<?xml version="1.0" encoding="UTF-8" standalone="no"?>
<!-- Generator: Adobe Illustrator 16.0.0, SVG Export Plug-In . SVG Version: 6.00 Build 0)  -->
<svg xmlns:rdf="http://www.w3.org/1999/02/22-rdf-syntax-ns#" xmlns="http://www.w3.org/2000/svg" enable-background="new 0 0 79.37 79.37" xml:space="preserve" height="25" viewBox="0 0 24.999999 24.999999" width="25" version="1.1" y="0px" x="0px" xmlns:cc="http://creativecommons.org/ns#" xmlns:xlink="http://www.w3.org/1999/xlink" xmlns:dc="http://purl.org/dc/elements/1.1/"><metadata><rdf:RDF><cc:Work rdf:about=""><dc:format>image/svg+xml</dc:format><dc:type rdf:resource="http://purl.org/dc/dcmitype/StillImage"/><dc:title/></cc:Work></rdf:RDF></metadata><defs><linearGradient id="linearGradient3103" y2="7.4355001" gradientUnits="userSpaceOnUse" x2="23.5156" gradientTransform="matrix(0.32658392,0,0,0.32894736,-0.46048333,-0.63651314)" y1="77.435097" x1="23.5156"><stop stop-color="#F2F2F2" offset="0"/><stop stop-color="#F6F6F6" offset="0.2413"/><stop stop-color="#FFF" offset="1"/></linearGradient></defs>
<polygon points="43.91,21.435,57.91,21.435,57.91,7.435,63.91,7.435,63.91,21.435,77.96,21.435,77.96,27.312,63.91,27.312,63.91,41.435,57.91,41.435,57.91,27.312,43.91,27.312" fill="#FFF" transform="matrix(0.32658392,0,0,0.32894736,-0.46048333,-0.63651314)"/><path fill="url(#linearGradient3103)" d="M10.548661,17.618421,9.2491832,16.6c-0.3958197-0.328619-0.9363161-0.76579-0.9363161-1.566777,0-0.80296,0.5404964-1.314473,1.0091443-1.7875,1.5143696-1.200658,2.9252126-2.478618,2.9252126-5.1749995,0-2.4615131-1.320379-3.8440789-2.205422-4.6167762h2.209341l2.024167-1.6447368h-7.6205095c-1.8905943,0.0351973-4.1453297,0.3213816-6.20052227,2.0348684-0.09634226,0.0835526-0.20052253,0.1805921-0.29098627,0.2677631v8.881579c0.98824294,0.827631,2.33148264,1.455592,3.96734144,1.455592,0.3612018,0,0.7563684-0.0375,1.153821-0.07336-0.1799477,0.437828-0.3605486,0.802631-0.3605486,1.422368,0,1.128947,0.576094,1.820066,1.0816459,2.477302-1.3778576,0.09408-4.2093401-0.142105-5.84225974,1.173685v2.097039c0.74395817-1.01875,1.93272364-1.474013,2.45362494-1.665789,1.5140431-0.510856,3.461463-0.583882,3.7873938-0.583882,0.3585891,0,0.5388634,0,0.8262573,0.0375,2.741672,1.96875,4.705748,2.981579,4.726322,4.844079,0.0039,0.360855-0.09765,0.473026-0.151208,0.657895h2.110712c0.217505-0.511842,0.290333-1.117106,0.290333-1.79079-0.000326-2.515789-2.072828-4.077631-3.658066-5.426644zm-4.6005881-4.625c-3.1009143,0-4.3739384-3.6108554-4.3739384-6.0513159,0-0.949671,0.094383-1.9319079,0.7073808-2.6976973,0.5780535-0.7289474,1.5862181-1.2026316,2.5244937-1.2026316,2.9908555,0,4.5013061,4.0815789,4.5013061,6.7062499,0,0.5256579-0.2651861,1.5532899-0.941868,2.3338819-0.5927498,0.680592-1.5166557,0.911513-2.4173742,0.911513z"/>
<g transform="translate(-1.41,-52.935001)">
</g>
<g transform="translate(-1.41,-52.935001)">
</g>
<g transform="translate(-1.41,-52.935001)">
</g>
<g transform="translate(-1.41,-52.935001)">
</g>
<g transform="translate(-1.41,-52.935001)">
</g>
<g transform="translate(-1.41,-52.935001)">
</g>
</svg>
