<?xml version="1.0" encoding="utf-8"?>
<!-- Generator: Adobe Illustrator 14.0.0, SVG Export Plug-In . SVG Version: 6.00 Build 43363)  -->
<!DOCTYPE svg PUBLIC "-//W3C//DTD SVG 1.1//EN" "http://www.w3.org/Graphics/SVG/1.1/DTD/svg11.dtd">
<svg version="1.1" id="Layer_1" xmlns="http://www.w3.org/2000/svg" xmlns:xlink="http://www.w3.org/1999/xlink" x="0px" y="0px"
	 width="250px" height="226px" viewBox="0 0 250 226" enable-background="new 0 0 250 226" xml:space="preserve">
<g>
	<path fill="#C6BCB6" d="M124.318,52.227c-32.209,0-58.329,27.212-58.329,60.777s26.12,60.778,58.329,60.778
		c18.492,0,34.965-8.966,45.652-22.957v-22.499h-36.169c-9.052,0-16.096,4.881-16.096,4.881v-0.227l16.096-38.102l49.004-0.004
		C174.643,70.161,150.473,52.227,124.318,52.227 M128.969,87.596l-18.556,43.902v15.384l11.397-7.653
		c0.058-0.034,5.455-3.608,11.992-3.608h28.88v12.634c-9.706,11.613-23.565,18.234-38.363,18.234
		c-28.14,0-51.035-23.99-51.035-53.484c0-29.498,22.895-53.492,51.035-53.492c19.186,0,37.631,11.365,47.238,28.071L128.969,87.596z
		"/>
	<path fill="#C6BCB6" d="M198.598,87.577l24.894-29.212l-2.729-4.497c-0.309-0.515-7.773-12.704-23.39-24.809
		c-14.339-11.102-38.65-24.337-73.056-24.337c-32.359,0-62.19,10.435-84,29.385C17.541,53.897,5,81.911,5,113.002
		c0,31.245,12.545,59.318,35.325,79.057c21.757,18.848,51.585,29.219,83.992,29.219c24.665,0,42.539-5.919,55.58-10.234
		c6.282-2.082,11.699-3.882,14.921-3.882c8.399,0,23.36,6.929,32.553,11.082l0.004-105.241c0-8.313,4.157-12.918,4.328-13.106
		l11.815-12.273L198.598,87.577z M220.085,113.002v93.953c0,0-15.65-7.079-25.268-7.079c-12.076,0-33.571,14.116-70.501,14.116
		c-61.875,0-112.027-39.521-112.027-100.99c0-61.057,50.152-100.99,112.027-100.99c62.616,0,90.214,45.625,90.214,45.625
		l-31.729,37.238l43.63-0.013C226.432,94.862,220.085,101.326,220.085,113.002"/>
         <path fill="#00205C" d="M133.802,94.881l-16.098,38.096v0.227c0,0,7.043-4.877,16.098-4.877h36.169v22.499
		c-10.684,13.987-27.16,22.957-45.654,22.957c-32.209,0-58.324-27.209-58.324-60.776c0-33.571,26.115-60.777,58.324-60.777
		c26.156,0,50.326,17.935,58.485,42.645l31.729-37.234c0,0-27.598-45.624-90.214-45.624c-61.875,0-112.027,39.929-112.027,100.991
		c0,61.466,50.152,100.986,112.027,100.986c36.93,0,58.421-14.116,70.501-14.116c9.617,0,25.268,7.079,25.268,7.079v-93.949
		c0-11.682,6.347-18.146,6.347-18.146l-43.63,0.014L133.802,94.881z"/>
</g>
</svg>