<?xml version="1.0" encoding="UTF-8" standalone="no"?>
<svg xmlns="http://www.w3.org/2000/svg" version="1.0" width="126" height="82">
<g transform="matrix(1.25,0,0,-1.25,-386.70525,467.7315)" id="g11"><path d="M349.9,338.7H357.4L358.2,343.3H362.9C361.6,334.9 352.9,329.7 343.1,330.5C333.4,331.2 324.3,336.7 324.3,346.1C324.4,356.2 333.1,362.98 342.8,363.4C349,363.7 355.5,361.2 360,357.4C360.5,357.1 360.2,357.4 360.7,356.9L369.6,356.9V373.3H360.9V367.5L360.8,367.5C 356.4,370.6 349,373.1 341.1,373.1C324.6,373.1 310.1,360.2 310.3,346C310.5,331.4 325.9,320.7 342.3,322C350,322.6 356.9,324.5 361.6,327.2L361.6,324.8H370.9V343.3H375.4V320.9H370V312.1H392.97V320.9H387.6V343.3H400.6L401.4,338.7H408.9V353.2H349.9V338.7z" style="fill:#C59353;stroke:#00254C;stroke-width:1.8" />
</g>
</svg>