<?xml version="1.0" encoding="UTF-8" standalone="no"?>
<svg
   xmlns:dc="http://purl.org/dc/elements/1.1/"
   xmlns:cc="http://creativecommons.org/ns#"
   xmlns:rdf="http://www.w3.org/1999/02/22-rdf-syntax-ns#"
   xmlns:svg="http://www.w3.org/2000/svg"
   xmlns="http://www.w3.org/2000/svg"
   xmlns:sodipodi="http://sodipodi.sourceforge.net/DTD/sodipodi-0.dtd"
   xmlns:inkscape="http://www.inkscape.org/namespaces/inkscape"
   width="95.078201"
   height="85.720551"
   viewBox="0 0 76.062561 68.57644"
   version="1.1"
   id="svg3069"
   inkscape:version="0.48.1 "
   sodipodi:docname="Holy Cross Crusaders.svg">
  <metadata
     id="metadata3151">
    <rdf:RDF>
      <cc:Work
         rdf:about="">
        <dc:format>image/svg+xml</dc:format>
        <dc:type
           rdf:resource="http://purl.org/dc/dcmitype/StillImage" />
        <dc:title></dc:title>
      </cc:Work>
    </rdf:RDF>
  </metadata>
  <defs
     id="defs3149" />
  <sodipodi:namedview
     pagecolor="#ffffff"
     bordercolor="#666666"
     borderopacity="1"
     objecttolerance="10"
     gridtolerance="10"
     guidetolerance="10"
     inkscape:pageopacity="0"
     inkscape:pageshadow="2"
     inkscape:window-width="1680"
     inkscape:window-height="994"
     id="namedview3147"
     showgrid="false"
     fit-margin-top="0"
     fit-margin-left="0"
     fit-margin-right="0"
     fit-margin-bottom="0"
     inkscape:zoom="9.0643379"
     inkscape:cx="47.539101"
     inkscape:cy="42.860277"
     inkscape:window-x="-4"
     inkscape:window-y="-4"
     inkscape:window-maximized="1"
     inkscape:current-layer="svg3069" />
  <g
     id="g3153"
     transform="matrix(0.0685205,0,0,0.0685205,-8.8028134,-0.87896386)">
    <g
       id="#5c2aa1ff">
      <path
         id="path3072"
         d="m 643.57,107.94 c 28.63,-2.3 57.36,2.95 84.43,12.1 21.18,7.29 41.49,16.98 60.87,28.17 15.84,8.97 32.92,16.43 51.12,18.72 19,2.36 39.23,-2.03 54.72,-13.49 -0.78,14.61 -9.3,27.69 -20.33,36.83 -8.43,7.29 -18.23,12.77 -28.2,17.65 8.73,10.48 20.03,18.49 31.92,25 6.44,3.89 13.4,6.99 20.77,8.62 7.94,2.19 16.22,0.24 24.32,1.02 -6.14,0.31 -12.36,-0.57 -18.41,0.86 2.6,0.4 6.45,-1.39 8.21,0.96 0.58,-1.72 2.6,-0.86 3.97,-1.06 3.74,0.42 7.29,-1.12 11.02,-0.98 -0.63,-0.22 -1.24,-0.44 -1.84,-0.66 11.36,-1.37 21.7,-10.36 24.14,-21.66 2.22,-7.99 0.7,-16.24 -1,-24.15 10.58,6.14 20.16,15.28 23.97,27.2 3,10.32 1.14,21.68 -4.36,30.84 -9.16,15.64 -26.09,26.18 -43.96,28.53 -2.01,0.45 -4.7,-0.48 -6.06,1.48 9.34,3.25 18.62,6.68 27.97,9.92 -0.17,0.28 -0.5,0.83 -0.67,1.11 -27.48,15.63 -58.08,28.27 -90.2,27.75 -14.16,0.38 -28.31,-2.26 -41.6,-7.09 -29.66,-10.62 -54.23,-31.96 -74.01,-56 -11.56,-12.95 -24.58,-24.89 -39.88,-33.29 -12.82,-7.24 -28.09,-12.47 -42.85,-8.7 -0.56,8.64 -4.8,17.12 -12.04,22.02 -8.42,5.92 -20.08,6.54 -29.19,1.84 -7.91,-3.69 -13.62,-10.59 -18.24,-17.78 -5.09,-0.94 -10.32,-1.07 -15.28,-2.6 -16.62,-4.23 -31.66,-16.46 -36.85,-33.12 -2.3,-6.41 -1.92,-13.36 -1.45,-20.04 2.76,-15.25 13.64,-27.77 26.34,-36.01 21.87,-13.57 46.97,-22.07 72.65,-23.99 m -26.66,17.96 c -7.54,2.43 -14.87,5.52 -21.86,9.25 -11.05,6.35 -22.03,14.25 -27.76,26.01 -3.48,5.83 -3.25,12.88 -2.61,19.39 2.85,10.67 11.67,18.81 21.66,22.91 10.27,4.17 21.54,5.5 32.56,4.89 -6.16,-6.9 -13,-14.66 -13.39,-24.38 -0.93,-8.27 4.92,-15.88 12.08,-19.36 6.26,-3.5 13.38,-4.86 20.37,-5.97 9.01,-0.06 18.13,-0.73 27.03,1 19.49,2.41 38.22,8.73 56.48,15.75 26.29,11.75 54.41,21.59 83.56,21.19 18.96,-0.51 38.04,-6.3 53.13,-18.01 -4.75,-0.48 -9.35,1.27 -14.09,0.96 -5.06,-0.16 -10.13,0.17 -15.16,-0.28 -4.92,-1.08 -10.01,-0.57 -14.9,-1.77 -22.75,-3.83 -44.4,-12.23 -65.08,-22.26 -12.32,-6.46 -24.55,-13.13 -37.35,-18.6 -20.78,-8.41 -43.08,-13.92 -65.61,-13.23 -9.75,-0.32 -19.51,0.48 -29.06,2.51 m 45,51.79 c -8.11,1.74 -15.87,6.69 -19.42,14.39 -4.15,8.08 -0.03,17.5 -2.75,25.9 -1.77,4.84 -6.46,8.53 -11.72,8.48 -7.58,0.61 -14.17,-3.71 -20.87,-6.5 1.5,7.25 7.87,12.54 14.43,15.33 6.99,4.08 16.68,2.32 22.18,-3.52 5.07,-4.82 7.2,-12.09 6.86,-18.95 0.32,-0.51 0.97,-1.53 1.29,-2.04 4.87,-0.54 9.25,-3.18 14.2,-3.31 25.61,-4.46 51.68,5.97 71.28,22.1 13.22,10.09 22.56,24.12 34.87,35.19 13.22,12.81 28.11,24.12 44.88,31.87 19.59,9.28 42.5,11.8 63.41,5.69 5.13,-1.12 9.65,-3.98 14.75,-5.19 0.11,-0.38 0.33,-1.14 0.44,-1.52 -5.17,-0.2 -10.41,0.56 -15.5,-0.52 -7.02,0.53 -13.69,-2.17 -20.39,-3.84 -1.68,-0.86 -2.81,-2.13 -3.41,-3.82 23,-1 46.29,-6.69 65.83,-19.23 11.53,-7.58 21.25,-17.93 27.81,-30.1 -6.42,3.09 -11.98,7.75 -18.68,10.28 -16.03,7.97 -34.44,11.72 -52.25,9.23 -8.18,-0.53 -16.15,-2.59 -24.1,-4.48 -32.17,-9.57 -61.9,-25.85 -89.73,-44.35 -18.18,-10.95 -37.15,-20.84 -57.43,-27.27 -14.83,-4.26 -30.67,-7.26 -45.98,-3.82 z"
         inkscape:connector-curvature="0"
         style="fill:#5c2aa1" />
      <path
         id="path3074"
         d="m 388.93,325.95 c 4.68,-0.74 9.38,-1.9 14.14,-1.34 6.84,0.61 13.01,4.02 18.35,8.15 0.11,13.14 0.21,26.28 -0.01,39.42 -4.5,-2.27 -8.41,-5.5 -12.86,-7.84 -15.43,-8.52 -33.05,-12.46 -50.57,-13.14 5.21,-5.07 12.01,-8.48 19.23,-9.42 8.44,-1 16.57,2.18 24.13,5.54 -7.96,-8.76 -20.58,-10.97 -31.89,-10.75 7.05,-4.29 15.52,-6.83 23.78,-5.19 6.07,0.88 11.57,3.69 17.26,5.8 -4.47,-7.47 -13.5,-9.95 -21.56,-11.23 z"
         inkscape:connector-curvature="0"
         style="fill:#5c2aa1" />
      <path
         id="path3076"
         d="m 781.86,368.85 c 22.56,-12.33 45.79,-23.89 70.72,-30.6 3.19,3.67 6.26,7.45 9.5,11.09 -20.73,2.87 -40.43,11.42 -57.34,23.65 4.8,-0.79 9.15,-3.05 13.71,-4.62 17.12,-6.26 35.25,-11.21 53.64,-9.72 1.33,2.89 2.69,5.77 3.91,8.72 -57.92,9.58 -113.38,32.61 -161.5,66.17 -4.38,-4.33 -8.7,-8.73 -13.2,-12.94 0.04,-0.48 0.13,-1.44 0.17,-1.92 22.91,-23.76 46.98,-47.39 76.65,-62.58 10.12,-4.7 20.77,-9.2 32.04,-9.83 -11.04,4.9 -22.01,12.01 -28.3,22.58 z"
         inkscape:connector-curvature="0"
         style="fill:#5c2aa1" />
      <path
         id="path3078"
         d="m 282.67,376.68 c 22.89,-15.1 51.21,-21.76 78.43,-18.37 21.68,2.45 42.45,10.88 60.37,23.2 0.2,11.79 0.19,23.58 -0.01,35.37 -4.35,-1.28 -8.51,-3.07 -12.7,-4.79 -21.93,-8.33 -45.27,-13.2 -68.74,-13.36 -6.38,0.79 -12.85,0.57 -19.19,1.72 -25.38,3.45 -49.33,14.4 -69.9,29.46 -17.27,12.65 -32.53,27.87 -46.1,44.4 4.09,-8.3 7.96,-16.75 13.05,-24.5 4.31,-6.64 8.22,-13.57 13.25,-19.73 13.3,-17.72 30.2,-33.08 50.25,-42.78 14.84,-7.34 31.18,-11.27 47.63,-12.57 -4.32,-0.49 -8.66,-1.23 -13.02,-0.94 -17.09,1.67 -33.73,7.08 -48.88,15.11 5.19,-4.07 9.94,-8.71 15.56,-12.22 z"
         inkscape:connector-curvature="0"
         style="fill:#5c2aa1" />
      <path
         id="path3080"
         d="m 864.92,375.51 c 20.33,-3.02 41.16,-2.63 61.33,1.28 4.58,1.23 9.27,1.91 13.92,2.76 -4.7,-0.16 -9.44,0.12 -14.09,-0.67 -4.03,-0.76 -8.02,0.67 -12.05,0.51 -13.22,0.04 -26.15,3.41 -38.38,8.22 3.19,0.01 6.26,-0.87 9.36,-1.47 11.47,-2.22 23.23,-3.71 34.9,-2.82 23.66,-0.17 47.03,8.55 65.65,22.99 5.51,4.11 10.41,8.95 15.35,13.73 -21.79,-9.9 -44.54,-19.68 -68.85,-20.1 -7.52,0.69 -15.56,1.12 -22.08,5.37 9,0.32 18.06,-0.57 27.02,0.7 29.49,3.3 57.36,16.23 80.53,34.51 11.84,9.02 22.05,19.9 31.77,31.12 -2.03,-6.9 -6.75,-12.56 -9.36,-19.2 5.35,0.27 10.66,-1.43 16,-0.48 4.19,0.6 8.48,0.08 12.64,0.98 21.33,2.28 41.42,10.55 60.56,19.81 -13.15,-3.07 -26.8,-4.46 -40.23,-2.63 -15.6,2.28 -29.95,10.02 -41.6,20.47 -13.79,-19.22 -31.28,-35.81 -51.28,-48.44 -26.26,-16.71 -56.5,-26.61 -87.23,-30.77 -6.85,-3.12 -14.62,-0.8 -21.84,-2.36 -13.61,-0.98 -27.3,-0.49 -40.94,-0.38 -11.64,1.03 -23.45,1.24 -34.75,4.6 -39.08,10.66 -73.72,32.94 -105.78,57.07 -9.92,7.37 -19.53,15.16 -29.12,22.94 -4.73,1.05 -9.63,-0.68 -14.44,-0.62 4.6,-3.96 9.2,-7.92 13.55,-12.16 30.07,-26.78 61.95,-51.87 97.13,-71.65 28.63,-16.04 59.61,-28.83 92.31,-33.31 z"
         inkscape:connector-curvature="0"
         style="fill:#5c2aa1" />
      <path
         id="path3082"
         d="m 499.38,385.99 c 16.15,9.03 31.53,19.36 46.47,30.26 -4.35,4.16 -8.59,8.49 -13.2,12.36 -3.05,0.51 -5.36,-2.15 -7.93,-3.33 -8.39,-5.27 -17.47,-9.27 -26.24,-13.85 -0.18,-8.51 1.15,-16.93 0.9,-25.44 z"
         inkscape:connector-curvature="0"
         style="fill:#5c2aa1" />
      <path
         id="path3084"
         d="m 497.73,421.15 c 18.43,7.9 35.52,18.64 51.8,30.29 18.44,13.87 36.46,28.31 53.53,43.84 -3.09,0.41 -6.15,0.89 -9.21,1.36 -8.31,-8.66 -17.35,-16.7 -27.68,-22.87 -4.33,-2.64 -8.67,-5.45 -13.59,-6.81 9.94,8.83 20.17,17.44 29.12,27.31 0.81,1.1 3.02,2.63 1.44,4.05 -3.45,0.4 -6.92,0.28 -10.38,0.33 -10.43,-12.42 -22.87,-23.09 -36.28,-32.18 -6.02,-3.68 -12.04,-7.35 -18.06,-11.01 -7.22,-3.94 -14.76,-7.26 -22.08,-10.99 0.41,-7.78 1.31,-15.52 1.39,-23.32 z"
         inkscape:connector-curvature="0"
         style="fill:#5c2aa1" />
      <path
         id="path3086"
         d="m 446.31,484.08 c 52.98,20.98 108.6,37.04 165.72,40.27 15.11,0.04 30.28,0.73 45.32,-0.92 33.85,-2.91 67.25,-10.21 99.67,-20.27 18.44,-5.47 36.42,-12.35 54.44,-19.05 0.03,112.06 0.04,224.12 -0.01,336.18 -61.05,53.37 -122.03,106.81 -182.96,160.31 -0.49,0.02 -1.47,0.05 -1.96,0.07 C 566.52,927.28 506.49,873.91 446.36,820.66 446.21,708.47 446.3,596.27 446.31,484.08 m 129.96,56.82 c -0.01,23.63 0,47.25 -0.01,70.88 -12.07,-1.45 -24.19,-2.45 -36.19,-4.41 -22.69,-3.1 -45.13,-7.7 -67.52,-12.45 -0.01,29.67 0.02,59.34 -0.02,89.01 34.22,7.58 68.82,13.53 103.72,16.82 0.04,70.25 0,140.5 0.02,210.75 34.21,0.05 68.42,-0.02 102.62,0.03 0.06,-70.44 -0.01,-140.89 0.03,-211.33 32.99,-3.33 65.69,-9.1 98.06,-16.22 -0.01,-29.68 -0.03,-59.36 0.01,-89.05 -32.38,7.11 -65.07,12.93 -98.07,16.24 -0.03,-23.44 0.03,-46.88 -0.03,-70.31 -23.76,3.64 -47.91,5.33 -71.91,3.48 -10.3,-0.53 -20.49,-2.16 -30.71,-3.44 z"
         inkscape:connector-curvature="0"
         style="fill:#5c2aa1" />
    </g>
    <g
       id="#d1d2d4ff">
      <path
         id="path3089"
         d="m 463.45,14.77 c 14.46,43.94 28.47,88.03 42.77,132.02 5.64,17.8 11.64,35.5 17.12,53.34 -1.59,34.15 -4.64,68.27 -6.44,102.43 1.63,-1.94 3.23,-3.92 4.82,-5.9 -0.06,-18.64 3.9,-37.87 14.46,-53.5 3.54,-5.41 7.99,-10.13 12.73,-14.5 -13.76,-10.43 -24.97,-25.26 -27.84,-42.59 -3.18,-16.39 1.72,-33.49 10.94,-47.13 9.05,-13.21 21.74,-23.56 35.62,-31.36 16.35,-9.06 34.28,-15.09 52.55,-18.92 40.53,-8.11 82.95,-2.61 121.43,11.81 23.24,8.55 45.18,20.38 65.81,34.03 13.92,6.56 28.97,11.81 44.53,11.87 9.69,0.11 19.56,-3.01 26.8,-9.6 5.64,-5.04 9.51,-11.66 14.18,-17.55 5.86,5.36 12.77,9.86 16.92,16.82 5.61,8.85 6.63,19.93 4.62,30.06 10.63,2 21.48,3.15 31.77,6.67 15.03,4.8 29.06,13.65 38.53,26.44 9.8,13.23 13.61,30.67 10.1,46.77 -2.92,13.97 -10.79,26.5 -20.94,36.37 2.95,1.3 5.91,2.63 8.86,3.96 -8.36,9.47 -16.08,19.67 -26.25,27.33 -20.76,16.64 -47.22,23.84 -73.16,27.31 2.53,4.41 5.16,8.77 7.75,13.15 23.14,-2.04 46.91,-0.18 68.83,7.9 33.52,11.89 60.59,38.33 76.52,69.77 25.59,-0.18 51.44,2.69 75.71,11.14 31.59,10.66 59.81,30.22 82.02,54.97 6.91,7.12 12.28,15.57 19.26,22.62 7.95,8.9 15.06,18.9 18.8,30.34 2.18,7.14 3.14,14.78 1.77,22.17 -1.84,11.39 -8.49,21.48 -16.86,29.2 -3.75,3.3 -7.43,6.96 -12.21,8.7 -79.17,34.13 -158.29,68.38 -237.45,102.55 -20.75,9.57 -41.46,19.22 -62.2,28.8 -25.24,11.12 -49.85,24.03 -71.75,40.92 l -1.08,0.83 c 0.09,-4.4 0.1,-8.8 0.04,-13.2 15.5,-11.54 32.41,-21.05 49.71,-29.61 25.27,-11.73 50.59,-23.36 75.84,-35.13 5.9,-3.09 12.68,-3.44 19.01,-5.2 23.9,-5.91 47.77,-14.26 67.69,-29.11 3.64,-2.64 6.71,-6.16 10.91,-7.97 47.74,-20.57 95.42,-41.3 143.17,-61.86 5.95,-2.18 10.51,-6.83 14.79,-11.33 7.46,-8.1 11.9,-19.41 9.85,-30.46 -2.62,-15.22 -13.06,-27.37 -23.26,-38.31 -9.55,-12.31 -19.89,-24.11 -31.77,-34.25 -15.64,-13.63 -33.64,-24.59 -53,-32.07 -27.01,-10.65 -56.41,-13.94 -85.27,-12.77 -12.23,-25.37 -30.8,-48.41 -55.64,-62.29 -26.77,-15.36 -58.85,-18.94 -89.08,-14.89 -6.6,-11.15 -13.11,-22.35 -19.67,-33.52 17.99,-1.75 36.16,-4.01 53.24,-10.2 18.03,-5.92 34.29,-17.04 46.35,-31.69 -3.97,-1.82 -7.94,-3.6 -11.93,-5.34 12.76,-8.14 23.86,-19.72 29.02,-34.16 4.54,-12.25 4.01,-26.38 -2,-38.03 -5.59,-11.29 -15.59,-19.88 -26.77,-25.38 -8.95,-4.44 -18.71,-7.05 -28.56,-8.53 7.75,7.88 14.3,17.91 14.81,29.26 0.58,8.54 -3.79,17.39 -11.38,21.54 -7.72,4.45 -17.11,4.46 -25.56,2.42 -14,-3.38 -26.3,-11.4 -37.48,-20.21 13.16,-9.31 25.57,-20.44 33.41,-34.73 4.79,-8.84 7.63,-19.51 4.52,-29.39 -1.44,-5.11 -4.85,-9.33 -8.67,-12.89 -5.47,7.23 -12.13,13.83 -20.53,17.55 -14.39,6.83 -31.1,5.38 -46.06,1.35 -9.59,-2.72 -19.11,-6.07 -27.84,-10.91 -33.22,-22.1 -70.64,-38.68 -110.25,-44.75 -28.91,-4.34 -58.95,-2.89 -86.86,6.15 -16.69,5.09 -32.88,12.55 -46.48,23.62 -9.87,8.1 -18.35,18.33 -22.81,30.42 -4.77,12.56 -4.25,27.09 1.85,39.11 6.66,13.77 18.98,23.92 32.28,30.98 -12.72,7.2 -23.38,18.26 -28.94,31.88 -5.25,12.25 -6.83,25.72 -6.8,38.95 0.19,2.26 -1.86,3.66 -3.07,5.28 -7.67,8.71 -13.66,20.26 -11.58,32.18 2.21,12.51 11.78,21.96 21.52,29.3 -0.42,15.32 4.11,30.6 12.56,43.36 -15.84,-12.55 -32.75,-23.7 -50.55,-33.27 3.66,-55.33 7.34,-110.66 11.02,-165.99 0.15,-3.61 1.01,-7.37 -0.32,-10.87 -15.93,-49.12 -31.77,-98.26 -47.66,-147.38 -14.14,50.8 -28.37,101.59 -42.37,152.43 -0.68,8.93 0.22,17.94 0.2,26.9 4.06,74.7 8.82,149.36 13.11,224.06 -4.6,-1.8 -9.19,-3.61 -13.8,-5.37 0.02,8.18 0.01,16.36 0.01,24.54 -13.58,-0.6 -27.3,-1.37 -40.48,-4.9 -4.76,-1.46 -9.96,-3.05 -13.22,-7.04 -2.48,-3.11 -0.79,-7.31 1.62,-9.88 8.89,-9.43 19.95,-17.2 32.62,-20.48 6.24,-2.27 12.88,-2.84 19.4,-3.75 -0.01,-3.77 -0.06,-7.54 0.08,-11.3 0.2,-11.79 0.21,-23.58 0.01,-35.37 -0.12,-3.11 -0.15,-6.22 -0.06,-9.33 0.22,-13.14 0.12,-26.28 0.01,-39.42 -0.1,-5.75 -0.04,-11.5 -0.03,-17.25 -15.43,-2.7 -32.03,-2.37 -46.3,4.69 -12.3,5.98 -21.44,16.96 -27.33,29.1 -18.07,-0.61 -36.41,2.14 -53.03,9.45 -22.39,9.46 -41.14,25.88 -56.44,44.52 -19.02,23.43 -33.43,50.25 -45.35,77.88 -1.07,2.68 -3.49,4.4 -5.52,6.33 -14.66,13.55 -29.26,27.18 -43.92,40.73 17.18,39.24 34.33,78.5 51.67,117.67 6.72,14.98 13.3,30.02 20.41,44.82 18.5,0.65 37.01,4.3 53.92,11.95 18.88,8.36 35.6,21.12 49.77,36.04 11.85,12.32 21.26,26.7 32.8,39.29 11,12.35 23.18,23.77 37.01,32.89 10.85,7.09 22.89,12.63 35.76,14.72 0.01,1.39 0.02,2.79 0.04,4.21 2.49,2.21 4.99,4.41 7.57,6.54 l -0.53,0.5 c -9.25,0.1 -18.37,-2.61 -27.03,-5.71 -16.09,-6.27 -30.25,-16.57 -43.02,-28.04 -12.92,-11.82 -24.43,-25.07 -35.02,-38.99 -11.85,-15.6 -25.61,-29.98 -42,-40.84 -14.48,-9.73 -30.91,-16.62 -48.1,-19.69 -8.74,-1.7 -17.64,-2.11 -26.52,-2.39 -5.6,-6.8 -8.44,-15.27 -12.24,-23.1 -22.46,-49.82 -44.24,-99.93 -66.14,-149.99 -0.31,-1.05 -1.54,-2.51 -0.17,-3.35 16.53,-15.47 33.15,-30.84 49.73,-46.26 2.48,-2.15 3.31,-5.44 4.68,-8.29 10.23,-22.79 22.23,-44.9 37.16,-64.99 15.73,-21.13 35.08,-40.19 58.71,-52.28 18.26,-9.58 38.87,-14.38 59.46,-14.35 6.8,-11.82 16.71,-22.01 29.05,-28.02 13.11,-6.49 28.12,-8.09 42.56,-6.94 -0.72,-29.86 -1.22,-59.72 -1.99,-89.58 0.08,-3.99 -0.47,-8.04 0.33,-11.98 17.33,-62.43 34.81,-124.83 52.08,-187.28 m 446.74,163.8 c -6.19,12.93 -16.01,23.67 -26.73,33.01 8.37,5.35 17.63,9.9 27.65,10.88 5.24,0.43 11.24,-0.27 15.03,-4.31 3.99,-4.32 3.72,-10.93 1.96,-16.17 -3.31,-9.54 -11.2,-16.27 -17.91,-23.41 M 513.25,354.53 c -0.3,5.01 -0.42,10.03 -1.08,15.02 5.66,3.56 11.58,6.69 17.15,10.41 -0.28,-2.92 -0.5,-5.85 -0.62,-8.77 -5.88,-4.85 -10.94,-10.55 -15.45,-16.66 z"
         inkscape:connector-curvature="0"
         style="fill:#d1d2d4" />
      <path
         id="path3091"
         d="m 466.12,126.05 c 0.15,-13.59 -0.3,-27.21 0.24,-40.79 11.03,38.61 22.35,77.15 33.54,115.73 0.41,1.3 0.57,2.63 0.49,3.99 -5.51,88.84 -10.96,177.67 -16.47,266.51 -5.93,-2.26 -11.85,-4.52 -17.79,-6.76 -0.02,-112.89 0,-225.78 -0.01,-338.68 z"
         inkscape:connector-curvature="0"
         style="fill:#d1d2d4" />
      <path
         id="path3093"
         d="m 552.06,259 c 7.9,-15.28 23.84,-25.61 40.4,-28.68 3.38,4.02 6.06,8.73 10.41,11.86 8.68,8.2 21.19,12.4 33.03,10.24 11.98,-2.19 20.98,-11.84 25.96,-22.48 8.85,1.34 17.86,3.59 25.15,9.02 10.88,7.3 18.02,19.34 20.86,31.98 3.8,12.73 3.01,26.25 1.52,39.28 5.14,3.9 10,8.62 12.23,14.83 2.56,6.45 2.85,13.98 -0.09,20.36 -3.72,8.42 -11.81,14.07 -20.24,17.12 -0.51,16.22 -3.51,32.79 -11.98,46.87 -6.73,12.07 -16.9,21.78 -27.91,29.94 11.08,-2.85 21.51,-8.31 29.87,-16.16 6.53,6.33 13.24,12.48 19.66,18.93 -5.86,3.39 -11.64,6.9 -17.49,10.31 -21.59,13.95 -41.35,30.48 -60.33,47.76 0.04,-8.75 0,-17.49 0.03,-26.24 -5.16,0 -10.31,-0.02 -15.46,0.01 0.03,8.75 -0.01,17.49 0.01,26.24 -15.23,-14.41 -30.69,-28.64 -47.28,-41.48 -10.87,-8.84 -22.39,-16.8 -33.84,-24.86 6.27,-4.41 12.55,-8.81 18.87,-13.13 8.41,9.11 19.64,15.31 31.73,17.95 -19.49,-13.46 -31.8,-35.61 -35.6,-58.74 -1.35,-6.21 -1.52,-12.57 -1.85,-18.89 -9.26,-5.16 -17.39,-13.18 -20.41,-23.56 -1.77,-5.95 -1.66,-12.56 0.95,-18.25 2.4,-6.11 7.53,-10.45 12.87,-13.95 -0.3,-15.77 1.1,-32.26 8.93,-46.28 m 9.42,0.59 c -8.82,12.94 -11.08,29.24 -9.59,44.56 8.64,-3.1 17.02,-7.01 25.98,-9.2 17.47,-5.4 35.9,-7.43 54.15,-6.79 24.57,1.35 48.47,9.36 69.73,21.59 1.57,-9.5 2.7,-19.2 1.2,-28.78 -1.73,-14.56 -9.96,-27.88 -21.54,-36.72 9.54,14.41 15.93,32.22 11.6,49.56 -5.03,-1.91 -10.03,-3.91 -15.05,-5.84 -15.23,-4.89 -31.05,-8.1 -47.06,-8.68 -8.4,-0.82 -16.93,-0.03 -25.26,-1.67 -5.04,-1.04 -11.23,-2.87 -12.98,-8.34 -2.39,-7.48 2.1,-14.83 5.28,-21.35 -2.91,-3.2 -5.85,-6.36 -8.78,-9.54 -11.01,4.2 -21.33,11.09 -27.68,21.2 m -17.41,74.45 c -1.52,3.93 -2.18,8.8 0.87,12.2 3.41,1.42 7.11,0.68 10.45,-0.59 20,-7.28 41.15,-11.87 62.5,-11.67 -0.02,-3.41 -0.02,-6.82 0,-10.23 -12.86,1.45 -26.04,2.5 -38.8,-0.28 -7.5,-1.57 -15.06,-5.44 -18.7,-12.51 -6.62,6.73 -12.87,14.18 -16.32,23.08 m 128,-10.3 c -12.81,2.86 -26.03,1.72 -38.94,0.28 0,3.42 0,6.83 -0.03,10.25 21.19,-0.15 42.18,4.31 62.03,11.54 3.34,1.12 7.27,2.61 10.6,0.67 3.4,-2.54 2.6,-7.41 1.57,-10.95 -3.18,-9.43 -9.82,-17.16 -16.62,-24.22 -3.76,6.9 -11.13,10.88 -18.61,12.43 m -114.51,35.99 c 0.04,11.04 1.12,22.22 4.75,32.71 2.63,6.23 4.78,12.77 8.96,18.2 3.16,5.67 7.9,10.12 12.31,14.79 12.02,11.06 26.87,18.44 42.13,23.94 -0.05,-10.91 0,-21.81 -0.03,-32.72 -12.48,-0.73 -25.37,-2.53 -36.37,-8.87 -9,-4.91 -16.11,-13.25 -19.29,-23.02 -2.17,-4.93 -2.42,-10.37 -3.39,-15.59 22.38,1.66 42.59,13.34 59.04,28.01 6.59,-5.58 12.39,-12.21 20.06,-16.38 6.07,-4.03 12.33,-7.77 19.21,-10.25 9.22,-4.62 19.4,-6.62 29.33,-9.11 -8,-1.63 -16.28,-1.65 -24.32,-0.32 -16,2.59 -30.62,10.17 -44.27,18.59 -20.24,-12.9 -44.01,-20.47 -68.12,-19.98 z"
         inkscape:connector-curvature="0"
         style="fill:#d1d2d4" />
      <path
         id="path3095"
         d="m 713.92,261.05 c -4.06,-9.27 -10.32,-17.34 -16.96,-24.89 19.58,9.06 35.71,24.14 49.12,40.79 3.58,4.1 6.29,8.92 10.13,12.8 11.61,10.14 24.18,19.27 37.92,26.3 14.52,7.28 30.49,11.91 46.79,12.33 -20.23,1.78 -40.26,6.57 -58.84,14.85 -32.94,14.43 -60.51,39.14 -82.05,67.63 1.22,-4.73 3.4,-9.15 4.51,-13.92 2.64,-8.79 3.74,-17.95 4.15,-27.1 10.01,-4.92 18.28,-13.46 22.25,-23.93 3.12,-8.12 3.33,-17.54 -0.36,-25.51 -2.78,-6.37 -7.83,-11.43 -13.44,-15.38 3.43,-14.49 3.07,-30.29 -3.22,-43.97 m 15.07,12.58 c 1.51,8.94 1.26,18.08 -0.08,27.03 7.45,6.6 12.85,15.61 14.49,25.47 2.02,10.78 -0.98,21.79 -5.95,31.34 16.78,-12.85 35.52,-23.2 55.56,-29.96 -13.54,-6.7 -26.25,-15.04 -37.87,-24.7 -3.22,-2.73 -6.74,-5.22 -9.29,-8.63 -5.23,-7.16 -10.64,-14.23 -16.86,-20.55 z"
         inkscape:connector-curvature="0"
         style="fill:#d1d2d4" />
      <path
         id="path3097"
         d="m 802.88,425.1 c 6.3,-2.39 12.44,-5.49 19.21,-6.3 10.97,-1.47 22.57,1.83 30.9,9.17 9.03,6.64 17.99,13.37 27.03,19.98 2.97,2.07 5.14,5.35 5.77,8.92 0.54,3.75 -2.68,6.67 -5.87,7.91 -14.49,5.55 -29.85,8.46 -45.25,9.99 0.04,-8.91 0,-17.83 0.01,-26.74 -47.45,19.57 -96.72,34.77 -147.03,44.99 34.81,-28.1 73.46,-51.72 115.23,-67.92 z"
         inkscape:connector-curvature="0"
         style="fill:#d1d2d4" />
      <path
         id="path3099"
         d="m 493.14,474.79 c 0.68,-8.2 1,-16.43 1.94,-24.6 7.53,4.03 15.46,7.34 22.6,12.09 15.72,9.18 29.95,20.63 43.37,32.87 -23.06,-5.24 -45.98,-11.43 -67.91,-20.36 z"
         inkscape:connector-curvature="0"
         style="fill:#d1d2d4" />
      <path
         id="path3101"
         d="m 353.01,489.99 c 0.83,-7.75 6.57,-13.67 11.16,-19.53 18.17,6.83 37.64,9.26 56.96,9.57 -0.02,3.14 -0.02,6.28 0.04,9.43 -18.33,4.64 -37.04,9.4 -56.09,8.82 -4.93,-0.2 -12.27,-2.1 -12.07,-8.29 z"
         inkscape:connector-curvature="0"
         style="fill:#d1d2d4" />
      <path
         id="path3103"
         d="m 834.68,480.4 c 16.46,-0.23 33.08,-2.15 48.64,-7.77 3.59,4.04 7.34,8.23 9.15,13.43 0.87,2.32 0.54,5.29 -1.64,6.78 -4,2.71 -9.13,2.49 -13.75,2.47 -14.37,-0.6 -28.43,-3.95 -42.39,-7.16 0,-2.59 -0.02,-5.17 -0.01,-7.75 z"
         inkscape:connector-curvature="0"
         style="fill:#d1d2d4" />
      <path
         id="path3105"
         d="m 834.24,495.02 c 15.42,4.24 31.18,7.37 47.14,8.51 -0.85,21.49 -3.45,43.09 -10.07,63.63 -6.98,21.78 -19.05,42.43 -37.09,56.84 0.05,-42.99 0.03,-85.98 0.02,-128.98 z"
         inkscape:connector-curvature="0"
         style="fill:#d1d2d4" />
      <path
         id="path3107"
         d="m 378.3,503.02 c 14.6,0.1 29.19,-2.26 42.94,-7.18 0,28.86 0.04,57.72 -0.02,86.58 -13.85,-8.27 -25.74,-20.17 -32.71,-34.82 -7.06,-13.75 -9.5,-29.3 -10.21,-44.58 z"
         inkscape:connector-curvature="0"
         style="fill:#d1d2d4" />
      <path
         id="path3109"
         d="m 408.1,601.08 c 4.2,-3.81 8.72,-7.25 13.08,-10.88 0.01,17.2 0.01,34.4 -0.01,51.61 -14.45,-2.64 -29.25,-1.14 -43.41,2.42 4.54,-8.24 8.59,-16.82 14.41,-24.27 4.39,-7.03 10.33,-12.83 15.93,-18.88 z"
         inkscape:connector-curvature="0"
         style="fill:#d1d2d4" />
      <path
         id="path3111"
         d="m 340.05,658.97 c 26.24,-7.76 53.66,-13.38 81.15,-10.62 -0.03,5.72 -0.01,11.45 -0.01,17.18 -27.47,-2.93 -54.94,2.78 -81.13,10.63 0.01,-5.73 0,-11.46 -0.01,-17.19 z"
         inkscape:connector-curvature="0"
         style="fill:#d1d2d4" />
      <path
         id="path3113"
         d="m 316.42,654.63 c 8.21,-2.64 16.45,4.36 17.62,12.36 1.86,8.54 -3.68,19 -12.96,19.74 -8.62,0.8 -15.45,-7.64 -15.35,-15.79 -0.32,-6.91 3.83,-14.29 10.69,-16.31 z"
         inkscape:connector-curvature="0"
         style="fill:#d1d2d4" />
      <path
         id="path3115"
         d="m 400.43,669.75 c 6.92,0.01 13.84,0 20.76,0 0.01,6.89 -0.04,13.79 0.03,20.69 -6.56,0.13 -13.12,0.02 -19.67,0.05 -0.35,-6.92 -0.74,-13.83 -1.12,-20.74 z"
         inkscape:connector-curvature="0"
         style="fill:#d1d2d4" />
      <path
         id="path3117"
         d="m 369.34,686.46 c 5.49,-7.36 14.47,-10.92 23.04,-13.32 -1.35,7.6 0.32,15.75 5.49,21.63 -2.23,1.77 -4.69,3.42 -6.17,5.93 -2.98,4.17 -3.34,9.5 -3.06,14.47 -7.58,-2.35 -15.49,-5.84 -19.97,-12.74 -3.18,-4.8 -2.8,-11.43 0.67,-15.97 z"
         inkscape:connector-curvature="0"
         style="fill:#d1d2d4" />
      <path
         id="path3119"
         d="m 394.02,718.15 c -1.31,-8.12 2.4,-15.96 7.61,-21.97 4.99,1.76 10.58,4.03 13.07,9.06 2.01,4.17 -1.13,8.72 -4.82,10.61 -4.77,2.84 -10.51,2.74 -15.86,2.3 z"
         inkscape:connector-curvature="0"
         style="fill:#d1d2d4" />
      <path
         id="path3121"
         d="m 367.56,710.82 c 6.39,5.06 13.33,9.55 21.03,12.36 -1.33,7.95 -0.13,16.16 3.17,23.5 -8.1,-1.13 -17.15,-3.2 -22.17,-10.28 -5.34,-7.45 -3.95,-17.21 -2.03,-25.58 z"
         inkscape:connector-curvature="0"
         style="fill:#d1d2d4" />
      <path
         id="path3123"
         d="m 392.94,725.65 c 7.24,0.72 15.15,1.62 20.93,6.5 2.63,2.09 3.39,6.25 1.03,8.84 -3.96,4.73 -10.42,5.97 -16.17,7.12 -1.37,-3.52 -3.05,-6.92 -4.09,-10.55 -0.77,-3.94 -1.08,-7.95 -1.7,-11.91 z"
         inkscape:connector-curvature="0"
         style="fill:#d1d2d4" />
      <path
         id="path3125"
         d="m 373.88,748.12 c 5.33,2.47 10.89,4.27 16.8,4.51 -0.73,6.4 -0.72,12.84 1.15,19.07 -5.5,-0.58 -11.58,-1.92 -15.13,-6.55 -3.78,-4.79 -3.56,-11.31 -2.82,-17.03 z"
         inkscape:connector-curvature="0"
         style="fill:#d1d2d4" />
      <path
         id="path3127"
         d="m 395.76,752.58 c 5.65,0.13 12.19,-0.01 16.6,4.11 2.59,2.47 1.56,6.6 -0.63,8.97 -3.61,4.15 -9.02,5.89 -14.18,7.19 -1.94,-6.61 -2.36,-13.43 -1.79,-20.27 z"
         inkscape:connector-curvature="0"
         style="fill:#d1d2d4" />
    </g>
    <g
       id="#000000ff">
      <path
         id="path3130"
         d="m 421.92,204.1 c 14,-50.84 28.23,-101.63 42.37,-152.43 15.89,49.12 31.73,98.26 47.66,147.38 1.33,3.5 0.47,7.26 0.32,10.87 -3.68,55.33 -7.36,110.66 -11.02,165.99 17.8,9.57 34.71,20.72 50.55,33.27 -8.45,-12.76 -12.98,-28.04 -12.56,-43.36 -9.74,-7.34 -19.31,-16.79 -21.52,-29.3 -2.08,-11.92 3.91,-23.47 11.58,-32.18 1.21,-1.62 3.26,-3.02 3.07,-5.28 -0.03,-13.23 1.55,-26.7 6.8,-38.95 5.56,-13.62 16.22,-24.68 28.94,-31.88 -13.3,-7.06 -25.62,-17.21 -32.28,-30.98 -6.1,-12.02 -6.62,-26.55 -1.85,-39.11 4.46,-12.09 12.94,-22.32 22.81,-30.42 13.6,-11.07 29.79,-18.53 46.48,-23.62 27.91,-9.04 57.95,-10.49 86.86,-6.15 39.61,6.07 77.03,22.65 110.25,44.75 8.73,4.84 18.25,8.19 27.84,10.91 14.96,4.03 31.67,5.48 46.06,-1.35 8.4,-3.72 15.06,-10.32 20.53,-17.55 3.82,3.56 7.23,7.78 8.67,12.89 3.11,9.88 0.27,20.55 -4.52,29.39 -7.84,14.29 -20.25,25.42 -33.41,34.73 11.18,8.81 23.48,16.83 37.48,20.21 8.45,2.04 17.84,2.03 25.56,-2.42 7.59,-4.15 11.96,-13 11.38,-21.54 -0.51,-11.35 -7.06,-21.38 -14.81,-29.26 9.85,1.48 19.61,4.09 28.56,8.53 11.18,5.5 21.18,14.09 26.77,25.38 6.01,11.65 6.54,25.78 2,38.03 -5.16,14.44 -16.26,26.02 -29.02,34.16 3.99,1.74 7.96,3.52 11.93,5.34 -12.06,14.65 -28.32,25.77 -46.35,31.69 -17.08,6.19 -35.25,8.45 -53.24,10.2 6.56,11.17 13.07,22.37 19.67,33.52 30.23,-4.05 62.31,-0.47 89.08,14.89 24.84,13.88 43.41,36.92 55.64,62.29 28.86,-1.17 58.26,2.12 85.27,12.77 19.36,7.48 37.36,18.44 53,32.07 11.88,10.14 22.22,21.94 31.77,34.25 10.2,10.94 20.64,23.09 23.26,38.31 2.05,11.05 -2.39,22.36 -9.85,30.46 -4.28,4.5 -8.84,9.15 -14.79,11.33 -47.75,20.56 -95.43,41.29 -143.17,61.86 -4.2,1.81 -7.27,5.33 -10.91,7.97 -19.92,14.85 -43.79,23.2 -67.69,29.11 -6.33,1.76 -13.11,2.11 -19.01,5.2 -25.25,11.77 -50.57,23.4 -75.84,35.13 -17.3,8.56 -34.21,18.07 -49.71,29.61 0.06,4.4 0.05,8.8 -0.04,13.2 l 1.08,-0.83 c -0.24,0.34 -0.74,1.02 -0.99,1.37 0.08,15.21 0.09,30.44 -0.01,45.66 -58.54,50.91 -116.74,102.23 -175.19,153.25 -10.11,8.76 -19.98,17.81 -30.29,26.32 -15.79,-14.51 -32.05,-28.5 -47.99,-42.84 -35.53,-31.48 -70.97,-63.06 -106.5,-94.54 -13.3,-12.12 -27.19,-23.59 -40.15,-36.06 -2.58,-2.13 -5.08,-4.33 -7.57,-6.54 -0.02,-1.42 -0.03,-2.82 -0.04,-4.21 -12.87,-2.09 -24.91,-7.63 -35.76,-14.72 -13.83,-9.12 -26.01,-20.54 -37.01,-32.89 -11.54,-12.59 -20.95,-26.97 -32.8,-39.29 C 305.1,723.77 288.38,711.01 269.5,702.65 252.59,695 234.08,691.35 215.58,690.7 208.47,675.9 201.89,660.86 195.17,645.88 177.83,606.71 160.68,567.45 143.5,528.21 c 14.66,-13.55 29.26,-27.18 43.92,-40.73 2.03,-1.93 4.45,-3.65 5.52,-6.33 11.92,-27.63 26.33,-54.45 45.35,-77.88 15.3,-18.64 34.05,-35.06 56.44,-44.52 16.62,-7.31 34.96,-10.06 53.03,-9.45 5.89,-12.14 15.03,-23.12 27.33,-29.1 14.27,-7.06 30.87,-7.39 46.3,-4.69 -0.01,5.75 -0.07,11.5 0.03,17.25 -5.34,-4.13 -11.51,-7.54 -18.35,-8.15 -4.76,-0.56 -9.46,0.6 -14.14,1.34 8.06,1.28 17.09,3.76 21.56,11.23 -5.69,-2.11 -11.19,-4.92 -17.26,-5.8 -8.26,-1.64 -16.73,0.9 -23.78,5.19 11.31,-0.22 23.93,1.99 31.89,10.75 -7.56,-3.36 -15.69,-6.54 -24.13,-5.54 -7.22,0.94 -14.02,4.35 -19.23,9.42 17.52,0.68 35.14,4.62 50.57,13.14 4.45,2.34 8.36,5.57 12.86,7.84 -0.09,3.11 -0.06,6.22 0.06,9.33 -17.92,-12.32 -38.69,-20.75 -60.37,-23.2 -27.22,-3.39 -55.54,3.27 -78.43,18.37 -5.62,3.51 -10.37,8.15 -15.56,12.22 15.15,-8.03 31.79,-13.44 48.88,-15.11 4.36,-0.29 8.7,0.45 13.02,0.94 -16.45,1.3 -32.79,5.23 -47.63,12.57 -20.05,9.7 -36.95,25.06 -50.25,42.78 -5.03,6.16 -8.94,13.09 -13.25,19.73 -5.09,7.75 -8.96,16.2 -13.05,24.5 13.57,-16.53 28.83,-31.75 46.1,-44.4 20.57,-15.06 44.52,-26.01 69.9,-29.46 6.34,-1.15 12.81,-0.93 19.19,-1.72 23.47,0.16 46.81,5.03 68.74,13.36 4.19,1.72 8.35,3.51 12.7,4.79 -0.14,3.76 -0.09,7.53 -0.08,11.3 -6.52,0.91 -13.16,1.48 -19.4,3.75 -12.67,3.28 -23.73,11.05 -32.62,20.48 -2.41,2.57 -4.1,6.77 -1.62,9.88 3.26,3.99 8.46,5.58 13.22,7.04 13.18,3.53 26.9,4.3 40.48,4.9 0,-8.18 0.01,-16.36 -0.01,-24.54 4.61,1.76 9.2,3.57 13.8,5.37 -4.29,-74.7 -9.05,-149.36 -13.11,-224.06 0.02,-8.96 -0.88,-17.97 -0.2,-26.9 m 44.2,-78.05 c 0.01,112.9 -0.01,225.79 0.01,338.68 5.94,2.24 11.86,4.5 17.79,6.76 5.51,-88.84 10.96,-177.67 16.47,-266.51 0.08,-1.36 -0.08,-2.69 -0.49,-3.99 -11.19,-38.58 -22.51,-77.12 -33.54,-115.73 -0.54,13.58 -0.09,27.2 -0.24,40.79 m 177.45,-18.11 c -25.68,1.92 -50.78,10.42 -72.65,23.99 -12.7,8.24 -23.58,20.76 -26.34,36.01 -0.47,6.68 -0.85,13.63 1.45,20.04 5.19,16.66 20.23,28.89 36.85,33.12 4.96,1.53 10.19,1.66 15.28,2.6 4.62,7.19 10.33,14.09 18.24,17.78 9.11,4.7 20.77,4.08 29.19,-1.84 7.24,-4.9 11.48,-13.38 12.04,-22.02 14.76,-3.77 30.03,1.46 42.85,8.7 15.3,8.4 28.32,20.34 39.88,33.29 19.78,24.04 44.35,45.38 74.01,56 13.29,4.83 27.44,7.47 41.6,7.09 32.12,0.52 62.72,-12.12 90.2,-27.75 0.17,-0.28 0.5,-0.83 0.67,-1.11 -9.35,-3.24 -18.63,-6.67 -27.97,-9.92 1.36,-1.96 4.05,-1.03 6.06,-1.48 17.87,-2.35 34.8,-12.89 43.96,-28.53 5.5,-9.16 7.36,-20.52 4.36,-30.84 -3.81,-11.92 -13.39,-21.06 -23.97,-27.2 1.7,7.91 3.22,16.16 1,24.15 -2.44,11.3 -12.78,20.29 -24.14,21.66 0.6,0.22 1.21,0.44 1.84,0.66 -3.73,-0.14 -7.28,1.4 -11.02,0.98 -1.37,0.2 -3.39,-0.66 -3.97,1.06 -1.76,-2.35 -5.61,-0.56 -8.21,-0.96 6.05,-1.43 12.27,-0.55 18.41,-0.86 -8.1,-0.78 -16.38,1.17 -24.32,-1.02 -7.37,-1.63 -14.33,-4.73 -20.77,-8.62 -11.89,-6.51 -23.19,-14.52 -31.92,-25 9.97,-4.88 19.77,-10.36 28.2,-17.65 11.03,-9.14 19.55,-22.22 20.33,-36.83 -15.49,11.46 -35.72,15.85 -54.72,13.49 -18.2,-2.29 -35.28,-9.75 -51.12,-18.72 -19.38,-11.19 -39.69,-20.88 -60.87,-28.17 -27.07,-9.15 -55.8,-14.4 -84.43,-12.1 M 552.06,259 c -7.83,14.02 -9.23,30.51 -8.93,46.28 -5.34,3.5 -10.47,7.84 -12.87,13.95 -2.61,5.69 -2.72,12.3 -0.95,18.25 3.02,10.38 11.15,18.4 20.41,23.56 0.33,6.32 0.5,12.68 1.85,18.89 3.8,23.13 16.11,45.28 35.6,58.74 -12.09,-2.64 -23.32,-8.84 -31.73,-17.95 -6.32,4.32 -12.6,8.72 -18.87,13.13 11.45,8.06 22.97,16.02 33.84,24.86 16.59,12.84 32.05,27.07 47.28,41.48 -0.02,-8.75 0.02,-17.49 -0.01,-26.24 5.15,-0.03 10.3,-0.01 15.46,-0.01 -0.03,8.75 0.01,17.49 -0.03,26.24 18.98,-17.28 38.74,-33.81 60.33,-47.76 5.85,-3.41 11.63,-6.92 17.49,-10.31 -6.42,-6.45 -13.13,-12.6 -19.66,-18.93 -8.36,7.85 -18.79,13.31 -29.87,16.16 11.01,-8.16 21.18,-17.87 27.91,-29.94 8.47,-14.08 11.47,-30.65 11.98,-46.87 8.43,-3.05 16.52,-8.7 20.24,-17.12 2.94,-6.38 2.65,-13.91 0.09,-20.36 -2.23,-6.21 -7.09,-10.93 -12.23,-14.83 1.49,-13.03 2.28,-26.55 -1.52,-39.28 -2.84,-12.64 -9.98,-24.68 -20.86,-31.98 -7.29,-5.43 -16.3,-7.68 -25.15,-9.02 -4.98,10.64 -13.98,20.29 -25.96,22.48 -11.84,2.16 -24.35,-2.04 -33.03,-10.24 -4.35,-3.13 -7.03,-7.84 -10.41,-11.86 -16.56,3.07 -32.5,13.4 -40.4,28.68 m 161.86,2.05 c 6.29,13.68 6.65,29.48 3.22,43.97 5.61,3.95 10.66,9.01 13.44,15.38 3.69,7.97 3.48,17.39 0.36,25.51 -3.97,10.47 -12.24,19.01 -22.25,23.93 -0.41,9.15 -1.51,18.31 -4.15,27.1 -1.11,4.77 -3.29,9.19 -4.51,13.92 21.54,-28.49 49.11,-53.2 82.05,-67.63 18.58,-8.28 38.61,-13.07 58.84,-14.85 -16.3,-0.42 -32.27,-5.05 -46.79,-12.33 -13.74,-7.03 -26.31,-16.16 -37.92,-26.3 -3.84,-3.88 -6.55,-8.7 -10.13,-12.8 -13.41,-16.65 -29.54,-31.73 -49.12,-40.79 6.64,7.55 12.9,15.62 16.96,24.89 m 67.94,107.8 c 6.29,-10.57 17.26,-17.68 28.3,-22.58 -11.27,0.63 -21.92,5.13 -32.04,9.83 -29.67,15.19 -53.74,38.82 -76.65,62.58 -0.04,0.48 -0.13,1.44 -0.17,1.92 4.5,4.21 8.82,8.61 13.2,12.94 48.12,-33.56 103.58,-56.59 161.5,-66.17 -1.22,-2.95 -2.58,-5.83 -3.91,-8.72 -18.39,-1.49 -36.52,3.46 -53.64,9.72 -4.56,1.57 -8.91,3.83 -13.71,4.62 16.91,-12.23 36.61,-20.78 57.34,-23.65 -3.24,-3.64 -6.31,-7.42 -9.5,-11.09 -24.93,6.71 -48.16,18.27 -70.72,30.6 m 83.06,6.66 c -32.7,4.48 -63.68,17.27 -92.31,33.31 -35.18,19.78 -67.06,44.87 -97.13,71.65 -4.35,4.24 -8.95,8.2 -13.55,12.16 4.81,-0.06 9.71,1.67 14.44,0.62 9.59,-7.78 19.2,-15.57 29.12,-22.94 32.06,-24.13 66.7,-46.41 105.78,-57.07 11.3,-3.36 23.11,-3.57 34.75,-4.6 13.64,-0.11 27.33,-0.6 40.94,0.38 7.22,1.56 14.99,-0.76 21.84,2.36 30.73,4.16 60.97,14.06 87.23,30.77 20,12.63 37.49,29.22 51.28,48.44 11.65,-10.45 26,-18.19 41.6,-20.47 13.43,-1.83 27.08,-0.44 40.23,2.63 -19.14,-9.26 -39.23,-17.53 -60.56,-19.81 -4.16,-0.9 -8.45,-0.38 -12.64,-0.98 -5.34,-0.95 -10.65,0.75 -16,0.48 2.61,6.64 7.33,12.3 9.36,19.2 -9.72,-11.22 -19.93,-22.1 -31.77,-31.12 -23.17,-18.28 -51.04,-31.21 -80.53,-34.51 -8.96,-1.27 -18.02,-0.38 -27.02,-0.7 6.52,-4.25 14.56,-4.68 22.08,-5.37 24.31,0.42 47.06,10.2 68.85,20.1 -4.94,-4.78 -9.84,-9.62 -15.35,-13.73 -18.62,-14.44 -41.99,-23.16 -65.65,-22.99 -11.67,-0.89 -23.43,0.6 -34.9,2.82 -3.1,0.6 -6.17,1.48 -9.36,1.47 12.23,-4.81 25.16,-8.18 38.38,-8.22 4.03,0.16 8.02,-1.27 12.05,-0.51 4.65,0.79 9.39,0.51 14.09,0.67 -4.65,-0.85 -9.34,-1.53 -13.92,-2.76 -20.17,-3.91 -41,-4.3 -61.33,-1.28 m -365.54,10.48 c 0.25,8.51 -1.08,16.93 -0.9,25.44 8.77,4.58 17.85,8.58 26.24,13.85 2.57,1.18 4.88,3.84 7.93,3.33 4.61,-3.87 8.85,-8.2 13.2,-12.36 -14.94,-10.9 -30.32,-21.23 -46.47,-30.26 m 303.5,39.11 c -41.77,16.2 -80.42,39.82 -115.23,67.92 50.31,-10.22 99.58,-25.42 147.03,-44.99 -0.01,8.91 0.03,17.83 -0.01,26.74 15.4,-1.53 30.76,-4.44 45.25,-9.99 3.19,-1.24 6.41,-4.16 5.87,-7.91 -0.63,-3.57 -2.8,-6.85 -5.77,-8.92 -9.04,-6.61 -18,-13.34 -27.03,-19.98 -8.33,-7.34 -19.93,-10.64 -30.9,-9.17 -6.77,0.81 -12.91,3.91 -19.21,6.3 m -305.15,-3.95 c -0.08,7.8 -0.98,15.54 -1.39,23.32 7.32,3.73 14.86,7.05 22.08,10.99 6.02,3.66 12.04,7.33 18.06,11.01 13.41,9.09 25.85,19.76 36.28,32.18 3.46,-0.05 6.93,0.07 10.38,-0.33 1.58,-1.42 -0.63,-2.95 -1.44,-4.05 -8.95,-9.87 -19.18,-18.48 -29.12,-27.31 4.92,1.36 9.26,4.17 13.59,6.81 10.33,6.17 19.37,14.21 27.68,22.87 3.06,-0.47 6.12,-0.95 9.21,-1.36 -17.07,-15.53 -35.09,-29.97 -53.53,-43.84 -16.28,-11.65 -33.37,-22.39 -51.8,-30.29 m -4.59,53.64 c 21.93,8.93 44.85,15.12 67.91,20.36 -13.42,-12.24 -27.65,-23.69 -43.37,-32.87 -7.14,-4.75 -15.07,-8.06 -22.6,-12.09 -0.94,8.17 -1.26,16.4 -1.94,24.6 m -140.13,15.2 c -0.2,6.19 7.14,8.09 12.07,8.29 19.05,0.58 37.76,-4.18 56.09,-8.82 -0.06,-3.15 -0.06,-6.29 -0.04,-9.43 -19.32,-0.31 -38.79,-2.74 -56.96,-9.57 -4.59,5.86 -10.33,11.78 -11.16,19.53 m 481.67,-9.59 c -0.01,2.58 0.01,5.16 0.01,7.75 13.96,3.21 28.02,6.56 42.39,7.16 4.62,0.02 9.75,0.24 13.75,-2.47 2.18,-1.49 2.51,-4.46 1.64,-6.78 -1.81,-5.2 -5.56,-9.39 -9.15,-13.43 -15.56,5.62 -32.18,7.54 -48.64,7.77 m -388.37,3.68 c -0.01,112.19 -0.1,224.39 0.05,336.58 60.13,53.25 120.16,106.62 180.17,160.01 0.49,-0.02 1.47,-0.05 1.96,-0.07 60.93,-53.5 121.91,-106.94 182.96,-160.31 0.05,-112.06 0.04,-224.12 0.01,-336.18 -18.02,6.7 -36,13.58 -54.44,19.05 -32.42,10.06 -65.82,17.36 -99.67,20.27 -15.04,1.65 -30.21,0.96 -45.32,0.92 -57.12,-3.23 -112.74,-19.29 -165.72,-40.27 m 387.93,10.94 c 0.01,43 0.03,85.99 -0.02,128.98 18.04,-14.41 30.11,-35.06 37.09,-56.84 6.62,-20.54 9.22,-42.14 10.07,-63.63 -15.96,-1.14 -31.72,-4.27 -47.14,-8.51 m -455.94,8 c 0.71,15.28 3.15,30.83 10.21,44.58 6.97,14.65 18.86,26.55 32.71,34.82 0.06,-28.86 0.02,-57.72 0.02,-86.58 -13.75,4.92 -28.34,7.28 -42.94,7.18 m 29.8,98.06 c -5.6,6.05 -11.54,11.85 -15.93,18.88 -5.82,7.45 -9.87,16.03 -14.41,24.27 14.16,-3.56 28.96,-5.06 43.41,-2.42 0.02,-17.21 0.02,-34.41 0.01,-51.61 -4.36,3.63 -8.88,7.07 -13.08,10.88 m -68.05,57.89 c 0.01,5.73 0.02,11.46 0.01,17.19 26.19,-7.85 53.66,-13.56 81.13,-10.63 0,-5.73 -0.02,-11.46 0.01,-17.18 -27.49,-2.76 -54.91,2.86 -81.15,10.62 m -23.63,-4.34 c -6.86,2.02 -11.01,9.4 -10.69,16.31 -0.1,8.15 6.73,16.59 15.35,15.79 9.28,-0.74 14.82,-11.2 12.96,-19.74 -1.17,-8 -9.41,-15 -17.62,-12.36 m 84.01,15.12 c 0.38,6.91 0.77,13.82 1.12,20.74 6.55,-0.03 13.11,0.08 19.67,-0.05 -0.07,-6.9 -0.02,-13.8 -0.03,-20.69 -6.92,0 -13.84,0.01 -20.76,0 m -31.09,16.71 c -3.47,4.54 -3.85,11.17 -0.67,15.97 4.48,6.9 12.39,10.39 19.97,12.74 -0.28,-4.97 0.08,-10.3 3.06,-14.47 1.48,-2.51 3.94,-4.16 6.17,-5.93 -5.17,-5.88 -6.84,-14.03 -5.49,-21.63 -8.57,2.4 -17.55,5.96 -23.04,13.32 m 24.68,31.69 c 5.35,0.44 11.09,0.54 15.86,-2.3 3.69,-1.89 6.83,-6.44 4.82,-10.61 -2.49,-5.03 -8.08,-7.3 -13.07,-9.06 -5.21,6.01 -8.92,13.85 -7.61,21.97 m -26.46,-7.33 c -1.92,8.37 -3.31,18.13 2.03,25.58 5.02,7.08 14.07,9.15 22.17,10.28 -3.3,-7.34 -4.5,-15.55 -3.17,-23.5 -7.7,-2.81 -14.64,-7.3 -21.03,-12.36 m 25.38,14.83 c 0.62,3.96 0.93,7.97 1.7,11.91 1.04,3.63 2.72,7.03 4.09,10.55 5.75,-1.15 12.21,-2.39 16.17,-7.12 2.36,-2.59 1.6,-6.75 -1.03,-8.84 -5.78,-4.88 -13.69,-5.78 -20.93,-6.5 m -19.06,22.47 c -0.74,5.72 -0.96,12.24 2.82,17.03 3.55,4.63 9.63,5.97 15.13,6.55 -1.87,-6.23 -1.88,-12.67 -1.15,-19.07 -5.91,-0.24 -11.47,-2.04 -16.8,-4.51 m 21.88,4.46 c -0.57,6.84 -0.15,13.66 1.79,20.27 5.16,-1.3 10.57,-3.04 14.18,-7.19 2.19,-2.37 3.22,-6.5 0.63,-8.97 -4.41,-4.12 -10.95,-3.98 -16.6,-4.11 z"
         inkscape:connector-curvature="0"
         style="fill:#000000" />
      <path
         id="path3132"
         d="m 616.91,125.9 c 9.55,-2.03 19.31,-2.83 29.06,-2.51 22.53,-0.69 44.83,4.82 65.61,13.23 12.8,5.47 25.03,12.14 37.35,18.6 20.68,10.03 42.33,18.43 65.08,22.26 4.89,1.2 9.98,0.69 14.9,1.77 5.03,0.45 10.1,0.12 15.16,0.28 4.74,0.31 9.34,-1.44 14.09,-0.96 -15.09,11.71 -34.17,17.5 -53.13,18.01 -29.15,0.4 -57.27,-9.44 -83.56,-21.19 -18.26,-7.02 -36.99,-13.34 -56.48,-15.75 -8.9,-1.73 -18.02,-1.06 -27.03,-1 -6.99,1.11 -14.11,2.47 -20.37,5.97 -7.16,3.48 -13.01,11.09 -12.08,19.36 0.39,9.72 7.23,17.48 13.39,24.38 -11.02,0.61 -22.29,-0.72 -32.56,-4.89 -9.99,-4.1 -18.81,-12.24 -21.66,-22.91 -0.64,-6.51 -0.87,-13.56 2.61,-19.39 5.73,-11.76 16.71,-19.66 27.76,-26.01 6.99,-3.73 14.32,-6.82 21.86,-9.25 z"
         inkscape:connector-curvature="0"
         style="fill:#000000" />
      <path
         id="path3134"
         d="m 661.91,177.69 c 15.31,-3.44 31.15,-0.44 45.98,3.82 20.28,6.43 39.25,16.32 57.43,27.27 27.83,18.5 57.56,34.78 89.73,44.35 7.95,1.89 15.92,3.95 24.1,4.48 17.81,2.49 36.22,-1.26 52.25,-9.23 6.7,-2.53 12.26,-7.19 18.68,-10.28 -6.56,12.17 -16.28,22.52 -27.81,30.1 -19.54,12.54 -42.83,18.23 -65.83,19.23 0.6,1.69 1.73,2.96 3.41,3.82 6.7,1.67 13.37,4.37 20.39,3.84 5.09,1.08 10.33,0.32 15.5,0.52 -0.11,0.38 -0.33,1.14 -0.44,1.52 -5.1,1.21 -9.62,4.07 -14.75,5.19 -20.91,6.11 -43.82,3.59 -63.41,-5.69 -16.77,-7.75 -31.66,-19.06 -44.88,-31.87 -12.31,-11.07 -21.65,-25.1 -34.87,-35.19 -19.6,-16.13 -45.67,-26.56 -71.28,-22.1 -4.95,0.13 -9.33,2.77 -14.2,3.31 -0.32,0.51 -0.97,1.53 -1.29,2.04 0.34,6.86 -1.79,14.13 -6.86,18.95 -5.5,5.84 -15.19,7.6 -22.18,3.52 -6.56,-2.79 -12.93,-8.08 -14.43,-15.33 6.7,2.79 13.29,7.11 20.87,6.5 5.26,0.05 9.95,-3.64 11.72,-8.48 2.72,-8.4 -1.4,-17.82 2.75,-25.9 3.55,-7.7 11.31,-12.65 19.42,-14.39 z"
         inkscape:connector-curvature="0"
         style="fill:#000000" />
      <path
         id="path3136"
         d="m 561.48,259.59 c 6.35,-10.11 16.67,-17 27.68,-21.2 2.93,3.18 5.87,6.34 8.78,9.54 -3.18,6.52 -7.67,13.87 -5.28,21.35 1.75,5.47 7.94,7.3 12.98,8.34 8.33,1.64 16.86,0.85 25.26,1.67 16.01,0.58 31.83,3.79 47.06,8.68 5.02,1.93 10.02,3.93 15.05,5.84 4.33,-17.34 -2.06,-35.15 -11.6,-49.56 11.58,8.84 19.81,22.16 21.54,36.72 1.5,9.58 0.37,19.28 -1.2,28.78 -21.26,-12.23 -45.16,-20.24 -69.73,-21.59 -18.25,-0.64 -36.68,1.39 -54.15,6.79 -8.96,2.19 -17.34,6.1 -25.98,9.2 -1.49,-15.32 0.77,-31.62 9.59,-44.56 z"
         inkscape:connector-curvature="0"
         style="fill:#000000" />
      <path
         id="path3138"
         d="m 544.07,334.04 c 3.45,-8.9 9.7,-16.35 16.32,-23.08 3.64,7.07 11.2,10.94 18.7,12.51 12.76,2.78 25.94,1.73 38.8,0.28 -0.02,3.41 -0.02,6.82 0,10.23 -21.35,-0.2 -42.5,4.39 -62.5,11.67 -3.34,1.27 -7.04,2.01 -10.45,0.59 -3.05,-3.4 -2.39,-8.27 -0.87,-12.2 z"
         inkscape:connector-curvature="0"
         style="fill:#000000" />
      <path
         id="path3140"
         d="m 672.07,323.74 c 7.48,-1.55 14.85,-5.53 18.61,-12.43 6.8,7.06 13.44,14.79 16.62,24.22 1.03,3.54 1.83,8.41 -1.57,10.95 -3.33,1.94 -7.26,0.45 -10.6,-0.67 -19.85,-7.23 -40.84,-11.69 -62.03,-11.54 0.03,-3.42 0.03,-6.83 0.03,-10.25 12.91,1.44 26.13,2.58 38.94,-0.28 z"
         inkscape:connector-curvature="0"
         style="fill:#000000" />
      <path
         id="path3142"
         d="m 557.56,359.73 c 24.11,-0.49 47.88,7.08 68.12,19.98 13.65,-8.42 28.27,-16 44.27,-18.59 8.04,-1.33 16.32,-1.31 24.32,0.32 -9.93,2.49 -20.11,4.49 -29.33,9.11 -6.88,2.48 -13.14,6.22 -19.21,10.25 -7.67,4.17 -13.47,10.8 -20.06,16.38 -16.45,-14.67 -36.66,-26.35 -59.04,-28.01 0.97,5.22 1.22,10.66 3.39,15.59 3.18,9.77 10.29,18.11 19.29,23.02 11,6.34 23.89,8.14 36.37,8.87 0.03,10.91 -0.02,21.81 0.03,32.72 -15.26,-5.5 -30.11,-12.88 -42.13,-23.94 -4.41,-4.67 -9.15,-9.12 -12.31,-14.79 -4.18,-5.43 -6.33,-11.97 -8.96,-18.2 -3.63,-10.49 -4.71,-21.67 -4.75,-32.71 z"
         inkscape:connector-curvature="0"
         style="fill:#000000" />
    </g>
    <g
       id="#ffffffff">
      <path
         id="path3145"
         d="m 576.27,540.9 c 10.22,1.28 20.41,2.91 30.71,3.44 24,1.85 48.15,0.16 71.91,-3.48 0.06,23.43 0,46.87 0.03,70.31 33,-3.31 65.69,-9.13 98.07,-16.24 -0.04,29.69 -0.02,59.37 -0.01,89.05 -32.37,7.12 -65.07,12.89 -98.06,16.22 -0.04,70.44 0.03,140.89 -0.03,211.33 -34.2,-0.05 -68.41,0.02 -102.62,-0.03 -0.02,-70.25 0.02,-140.5 -0.02,-210.75 -34.9,-3.29 -69.5,-9.24 -103.72,-16.82 0.04,-29.67 0.01,-59.34 0.02,-89.01 22.39,4.75 44.83,9.35 67.52,12.45 12,1.96 24.12,2.96 36.19,4.41 0.01,-23.63 0,-47.25 0.01,-70.88 z"
         inkscape:connector-curvature="0"
         style="fill:#ffffff" />
    </g>
  </g>
</svg>
