<?xml version="1.0" encoding="UTF-8" standalone="no"?>
<!-- Created with Inkscape (http://www.inkscape.org/) -->
<svg
   xmlns:svg="http://www.w3.org/2000/svg"
   xmlns="http://www.w3.org/2000/svg"
   version="1.0"
   width="401.01999"
   height="445.06"
   id="svg2"
   xml:space="preserve"
   style="overflow:visible"><defs
     id="defs265" /><polygon
     points="25.624,37.004 30.298,37.004 30.298,43.925 10.31,43.925 10.31,37.004 15.045,37.004 15.045,7.502 10.31,7.502 10.31,0.581 30.298,0.581 30.298,7.502 25.624,7.502 25.624,37.004 "
     transform="scale(9.9999999,9.9999999)"
     id="polygon248"
     style="stroke:#000005;stroke-width:1.16199994" /><polygon
     points="29.774,37.522 29.774,43.393 10.829,43.393 10.829,37.522 15.55,37.522 15.55,6.967 10.829,6.967 10.829,1.096 29.783,1.096 29.783,6.967 25.116,6.967 25.116,37.522 29.774,37.522 "
     transform="scale(9.9999999,9.9999999)"
     id="polygon252"
     style="fill:#B18E5F;fill-opacity:1" /><path
     d="M 400.96,277.4 C 400.37,268.97 395.33,263.71 393.17,261.46 C 392.63,260.89 392.34,260.53 391.71,260.08 C 391.71,260.08 387.58,257.17 385.92,255.99 C 388.33,251.95 389.92,247.3 389.92,241.5 C 389.92,238.95 389.69,236.24 389.23,233.36 C 389.22,233.35 388.43,228.87 388.43,228.87 C 387.64,224.59 387.06,221.14 387.06,218.37 C 387.06,215.85 387.54,213.9 388.78,212.42 C 390.64,210.2 391.62,207.43 391.62,204.61 C 391.62,203.56 391.48,202.49 391.2,201.45 C 390.16,197.61 387.31,194.53 383.57,193.19 C 365.4,186.69 355.14,198.9 351.29,203.51 C 351.29,203.51 347.32,207.55 343.85,211.1 C 346.94,206.2 349.77,201.29 352.21,196.91 L 353.19,195.17 C 358.94,184.92 360.65,178.42 363.48,167.68 L 363.74,166.65 C 364.91,162.19 366.11,155.41 366.11,149.27 C 366.11,148.9 366.1,148.54 366.09,148.19 C 365.88,139.77 361.3,132.82 353.51,129.1 C 342.56,123.83 330.91,131.68 317.89,153.16 C 314.08,159.43 311.58,165.34 309.3,171.6 C 308.41,171.19 303.5,168.87 303.5,168.87 C 301.88,168.1 300.09,167.7 298.29,167.7 C 298.24,167.7 298.15,167.72 298.1,167.72 C 297.67,167.36 297.39,166.97 296.9,166.62 C 289.88,161.63 284.04,162.45 281.55,162.8 C 276.18,163.2 267.98,166.37 264.1,168.96 C 263.44,169.41 262.8,170.16 262.21,170.58 C 262.21,168.32 262.08,156.67 262.08,156.67 L 268.17,139.95 C 268.64,138.64 268.86,137.34 268.86,136.08 C 268.86,131.76 266.23,127.89 261.98,125.74 C 261.98,125.74 261.68,125.58 261.45,125.48 C 258.77,123.18 255.58,121.94 251.94,122.78 L 242.93,124.86 C 238,126.44 234.31,128.67 231.69,131.68 C 229.54,134.14 228.48,137.37 228.74,140.64 C 228.88,142.35 228.68,143.98 228.08,146.11 C 228.08,146.14 225.25,153.93 225.25,153.93 L 224.72,155.29 C 224.73,155.26 224.73,155.25 224.73,155.25 C 224.73,155.31 223.21,159.36 222.51,161.22 C 221.7,161.08 221.01,160.64 220.18,160.58 C 215.07,160.2 209.71,161.37 204.9,163.76 C 196.55,167.13 191.06,171.95 187.13,177.09 C 186.81,176.61 186.58,176.07 186.2,175.65 C 180.42,169.22 170.69,165.65 160.01,172.47 C 158.87,170.95 157.07,170.49 153.54,170.63 L 142.64,171.07 L 141.77,171.35 C 141.75,171.35 131.25,175.92 131.25,175.92 C 129,176.9 127.44,178.42 126.39,180.25 C 123.8,179.72 121.24,179.24 118.68,180.09 C 116.71,178.96 114.77,177.7 112.4,177.29 C 102.61,175.59 96.519999,179.52 91.629999,182.67 L 90.319999,183.5 C 89.509999,184.01 88.869999,184.74 88.099999,185.33 C 89.659999,175.25 91.319999,165.96 93.169999,158.47 C 93.249999,158.12 96.389999,145.27 96.389999,145.27 L 101.76,121.26 C 101.97,120.33 102.07,119.41 102.07,118.51 C 102.07,114.71 100.26,111.21 96.989999,108.92 C 92.939999,106.11 87.729999,106.31 83.599999,109.01 L 67.319999,119.6 L 55.259999,127.75 C 55.039999,127.9 54.639999,128.19 54.429999,128.35 L 50.569999,131.35 C 39.3,140.05 35.16,144.99 35.16,154.15 C 35.16,157.86 35.84,162.28 37.01,167.92 C 37.01,167.92 37.57,170.82 38.03,173.24 C 37.82,173.32 37.6,173.29 37.4,173.38 C 36.69,170.85 35.88,167.96 35.88,167.96 C 34.48,163.02 30.17,159.67 25.04,159.33 C 19.91,159 15.19,162.1 13.16,166.82 L 0.99999999,195.02 C 0.33,196.55 0,198.18 0,199.81 C 0,201.61 0.4,203.39 1.19,205.04 C 15.04,234.03 35.39,267.31 43.49,280.25 C 44.63,282.07 46.22,283.55 48.13,284.56 L 51.899999,286.54 C 52.669999,286.95 53.549999,286.92 54.379999,287.16 C 54.049999,288.28 53.699999,289.41 53.699999,290.58 C 53.699999,293.11 54.489999,295.66 56.109999,297.84 C 59.769999,302.74 66.509999,304.16 71.819999,301.14 C 82.249999,295.22 92.989999,290.55 106.68,286 C 117.87,282.28 133.56,277.76 143.37,276.06 C 174.11,270.74 198.94,268.41 221.5,268.75 C 249.26,269.15 268.97,270.65 293.51,277.38 C 304.83,280.48 310.8,283.38 323.9,289.71 L 331.59,293.48 C 340.19,297.77 347,301.15 357.89,304.05 C 365.69,306.14 376.78,305.82 383.1,303.31 C 387.43,301.61 393.06,299.39 397.47,292.19 C 399.79,288.4 401.02,283.83 401.02,279.16 C 401.02,278.57 401.01,277.99 400.96,277.4 z M 204.26,163.99 C 204.47,163.87 204.7,163.84 204.91,163.74 C 205.15,163.64 205.3,163.5 205.54,163.41 C 205.11,163.57 204.67,163.77 204.26,163.99 z"
     id="path256" /><path
     d="M 81.229999,155.41 C 73.349999,187.42 69.659999,234.47 67.729999,266.86 C 65.119999,268.61 61.229999,274.2 57.399999,275.66 L 53.629999,273.68 C 39.34,250.85 22.88,222.46 11.98,199.68 L 24.15,171.46 C 26.79,179.81 31.36,198.55 34.34,206.73 C 39.83,222.01 45.37,241.14 54.189999,256.58 L 55.159999,256.05 C 55.629999,236.47 60.599999,201.63 62.949999,166.74 C 60.609999,168.63 53.939999,182.42 51.719999,180.87 C 46.09,147.15 41.79,153.41 61.779999,137.74 C 74.319999,129.51 80.139999,124.87 89.599999,119.31 C 88.039999,129.89 83.449999,145.1 81.229999,155.41 z"
     id="path260"
     style="fill:#FFFFFF" /><path
     d="M 351.85,163.41 C 348.91,174.58 347.6,179.88 342.44,189.08 C 337.29,198.28 330.77,210.35 323.17,218.16 C 323.04,220.7 323.29,222.52 324.02,225.14 C 324.71,227.62 326.26,229.93 327.94,231.41 C 331.27,234.35 335.11,233.13 337.34,232.19 C 341.81,230.34 343.62,228.07 346.95,224.94 C 353.42,218.87 356.59,215.74 360.45,211.13 C 365.16,205.5 370.08,201.13 379.33,204.45 C 371.84,213.37 375.44,225.01 377.09,235.13 C 378.72,245.25 378.41,253.86 363.08,256.73 C 362.29,259.27 363.55,260.65 365.35,261.5 C 367.14,262.35 369.53,262.47 370.87,262.76 C 374.41,263.54 376.56,264.38 378.52,265.5 C 380.46,266.61 382.06,267.87 384.02,269.42 C 385.68,271.18 388.42,273.82 388.73,278.05 C 388.94,281.12 388.11,283.82 386.97,285.69 C 384.65,289.5 381.99,290.48 378.5,291.86 C 375.01,293.24 366.76,293.73 360.88,292.15 C 348.81,288.94 342.45,285.1 330.3,279.22 C 315.93,272.27 309.35,269 296.59,265.5 C 269.83,258.17 248.34,256.83 221.54,256.44 C 194.75,256.05 167.34,259.41 141.17,263.93 C 130.98,265.7 115.11,270.2 102.71,274.32 C 90.329999,278.44 78.259999,283.28 65.699999,290.4 C 79.939999,276.69 97.689999,267.44 116.43,260.68 C 135.18,253.91 154.92,249.63 173.12,245.85 C 201.91,239.12 230.15,239.93 258.08,244.53 C 286,249.13 301.29,255.7 326.37,265.89 C 333.63,268.84 346.37,276.87 352.84,280.33 C 360.74,284.56 369.34,285.61 374.12,281.08 C 376.42,278.9 376.26,276.55 375.48,274.22 C 374.71,271.9 373.11,269.84 371.03,268.57 C 367.2,266.03 360.83,265.1 355.12,263.31 C 349.41,261.52 347.89,258.86 346.7,252.84 C 348.58,249.82 347.59,250.91 350.28,252.07 C 352.97,253.23 355.84,254.48 358.4,251.84 C 360.65,248.15 361.11,244.06 360.88,239.93 C 360.66,235.81 360.64,231.39 359.09,227.85 C 358.32,226.11 354.03,230.42 352.05,232.38 C 349.91,234.49 349.54,234.85 346.76,237.28 C 342.05,241.4 342.25,241.99 336.87,243.74 C 332.39,245.21 329.91,245.31 325.01,242.37 C 321.69,240.38 320.05,238.55 318.14,235.11 C 316.19,231.58 315.71,228.31 314.2,224.91 C 310.36,227.06 311.6,227.02 307.55,229.23 C 303.24,231.58 298.73,232.17 294.22,231.78 C 291.46,231.55 287.34,229.67 285.52,228.06 C 283.69,226.44 283.06,224.99 281.04,223.59 C 277.61,225.6 274.51,226.69 270.9,227.86 C 267.3,229.05 263.83,229.88 259.92,228.65 C 256.2,227.47 253.63,224.69 251.98,222.48 C 251.98,222.48 247.69,215.75 249.93,213.37 C 245.81,217.77 240.2,221.68 235.93,224.53 C 232.26,226.99 228.31,230.04 222.4,229.53 C 220.51,228.89 219.68,227.3 219.21,225.57 C 218.75,223.83 217.55,221.78 218.28,220.71 C 216.15,223.83 212.28,226.85 206.72,228.42 C 201.24,230 195.59,231 191.71,227.71 L 189.29,224.69 L 188.08,221.3 C 184.06,222.48 181.01,223.95 175.46,226.7 C 171.73,228.55 166.05,233.76 164.87,231.02 C 164.33,229.77 164.56,228.03 164.66,225.53 C 164.78,223.03 165.4,218.65 165.79,215.85 C 166.39,211.74 166.77,208.34 166.77,203.75 C 166.77,199.66 167.73,196.01 163.34,196.17 L 159.81,197.06 L 157.31,198.38 C 154.21,200.15 151.21,201.39 150.05,212.46 C 149.44,218.27 149.57,217.67 148.23,223.23 C 147.07,228.08 146.39,228.07 143.99,233.28 C 143.27,234.85 140.35,237.96 137.21,239.33 C 133.58,240.91 132.31,241.21 128.38,241.6 C 126.96,241.74 120.55,242.77 116.23,240.22 C 113.69,238.72 110.81,241.61 109.18,242.96 C 107.54,244.32 105.63,246.1 103.32,247.17 C 99.829999,248.79 96.109999,249.88 92.279999,249.44 C 88.449999,248.98 84.129999,247.67 81.369999,243.93 C 77.479999,238.66 76.589999,229.24 78.239999,222.96 C 79.809999,216.95 80.749999,213.69 83.889999,207.88 C 86.439999,203.17 91.719999,196.67 96.629999,193.57 C 101.55,190.45 104.47,188.07 110.16,189.06 C 113.29,189.6 114.84,191.55 115.45,193.18 C 116.06,194.8 116.43,196.11 118.39,195.91 C 120.59,195.7 119.72,192.28 122.31,191.41 C 123.97,190.84 127.52,192.58 128.98,194.74 C 126.71,200.15 124.75,204.76 123.01,210.37 C 119.47,221.89 122.39,227.6 123.28,229.42 C 124.63,232.16 128.76,231.19 130.73,230.06 C 135.15,227.57 135.59,224.38 136.48,221.27 C 137.68,217.03 137.82,214.37 138.17,207.11 C 138.51,200.38 139.17,192.57 137.01,186.31 C 139.41,184.96 142.08,183.63 144.9,182.82 C 147.73,182.02 147.47,181.48 150.52,182.21 C 151.23,183.82 151.73,185.31 151.58,187.3 C 151.45,188.96 151.37,191.98 153.46,191.88 C 157.23,191.71 160.79,186.48 164.64,183.36 C 168.48,180.24 172.52,178.57 176.98,183.55 C 178.31,186.54 178.56,189.54 178.37,192.53 C 178.16,195.54 177.51,198.55 176.98,201.57 C 176.34,204.61 176.23,208.12 176.2,210.59 C 176.16,213.06 176.59,214.31 179.53,214.31 C 189.08,214.31 187.12,203.05 191.22,193.43 C 194.77,185.08 199.43,178.49 209.72,174.52 C 212.51,173.05 215.83,172.21 219.08,172.45 C 222.33,172.69 225.48,174.02 227.95,176.88 C 230.02,174.84 231.33,171.97 232.44,168.86 C 233.56,165.76 234.5,162.43 235.85,159.48 C 237.34,155.67 238.69,152.38 239.59,149.19 C 240.5,145.99 240.96,142.87 240.67,139.42 C 241.92,137.99 244.08,136.95 246.49,136.19 C 248.89,135.41 251.55,134.9 253.79,134.52 L 254.52,135.43 L 256.33,136.34 C 253.01,147.8 247.77,159.08 243.53,170.5 C 239.29,181.91 234.99,193.46 231.39,205.48 C 231.29,206.98 230.44,209.4 230.36,211.27 C 230.3,213.15 231.02,214.49 234.12,213.91 C 243.96,211.7 249.81,200.71 256.72,191.96 C 262.82,184.22 265.3,182.41 270.67,178.83 C 273.02,177.26 279.29,174.91 282.04,174.72 C 284,174.58 285.97,173.64 289.69,176.28 C 292.88,178.56 291.79,181.7 293.41,182.36 C 296.85,183.75 295.36,179.61 298.12,179.61 L 301.65,181.28 L 304.78,182.75 L 295.37,199.61 L 292.24,207.84 C 291.72,210.17 289.97,216.44 293.12,219.2 C 295.73,221.48 300.94,220.95 302.59,220.42 C 306.31,219.25 311.84,215.09 312.92,208.61 C 314.29,200.55 315.01,192.15 317.49,184.16 C 320.49,174.45 323.07,167.53 328.1,159.23 C 333.14,150.93 342.98,137.36 348.1,139.84 C 351.11,141.28 353.67,143.73 353.78,148.27 C 353.92,153 352.98,159.09 351.85,163.41 z M 342.64,154.59 C 334.6,163.6 323.92,191.13 322.06,204.77 C 333.22,194.57 346.36,167.91 342.64,154.59 z M 280.7,188.14 C 274.81,188.68 258.03,204.96 260.11,212.4 C 262.14,219 271.51,215.94 274.03,213.78 C 277.57,210.55 281.97,202.9 284.62,194.67 C 285.39,189.83 283.63,187.34 280.7,188.14 z M 218.23,183.12 C 210.1,184.03 204.07,192.69 200.42,199.81 C 198.11,206.04 195.99,213.11 203.44,214.6 C 207.74,215.29 213.56,210.21 216.64,204.88 C 219.24,198.82 227.29,185.23 218.23,183.12 z M 106.9,203.11 C 102.94,203 99.789999,206.92 97.429999,208.9 C 92.049999,214.06 86.889999,223.74 89.219999,231.22 C 91.559999,237.1 95.409999,235.63 98.819999,235 C 105.73,231.9 109.71,219.15 110.77,212.4 C 110.69,209.23 113.02,203.89 106.9,203.11 z"
     id="path262"
     style="fill:#FFFFFF" /></svg>