<?xml version="1.0" encoding="utf-8"?>
<!-- Generator: Adobe Illustrator 13.0.0, SVG Export Plug-In . SVG Version: 6.00 Build 14948)  -->
<!DOCTYPE svg PUBLIC "-//W3C//DTD SVG 1.1//EN" "http://www.w3.org/Graphics/SVG/1.1/DTD/svg11.dtd">
<svg version="1.1" id="Layer_1" xmlns="http://www.w3.org/2000/svg" xmlns:xlink="http://www.w3.org/1999/xlink" x="0px" y="0px"
	 width="737.140625px" height="526.734375px" viewBox="0 0 737.140625 526.734375"
	 enable-background="new 0 0 737.140625 526.734375" xml:space="preserve">
<metadata><?xpacket begin="﻿" id="W5M0MpCehiHzreSzNTczkc9d"?>
<x:xmpmeta xmlns:x="adobe:ns:meta/" x:xmptk="Adobe XMP Core 4.1-c036 46.277092, Fri Feb 23 2007 14:16:18        ">
   <rdf:RDF xmlns:rdf="http://www.w3.org/1999/02/22-rdf-syntax-ns#">
      <rdf:Description rdf:about=""
            xmlns:dc="http://purl.org/dc/elements/1.1/">
         <dc:format>image/svg+xml</dc:format>
         <dc:creator>
            <rdf:Seq>
               <rdf:li>sdm</rdf:li>
            </rdf:Seq>
         </dc:creator>
         <dc:title>
            <rdf:Alt>
               <rdf:li xml:lang="x-default">CC brochure(fullpage).indd</rdf:li>
            </rdf:Alt>
         </dc:title>
      </rdf:Description>
      <rdf:Description rdf:about=""
            xmlns:xap="http://ns.adobe.com/xap/1.0/"
            xmlns:xapGImg="http://ns.adobe.com/xap/1.0/g/img/">
         <xap:CreatorTool>Adobe Illustrator CS3</xap:CreatorTool>
         <xap:CreateDate>2008-08-31T15:51:40-05:00</xap:CreateDate>
         <xap:ModifyDate>2008-08-31T15:51:41-05:00</xap:ModifyDate>
         <xap:MetadataDate>2008-08-31T15:51:41-05:00</xap:MetadataDate>
         <xap:Thumbnails>
            <rdf:Alt>
               <rdf:li rdf:parseType="Resource">
                  <xapGImg:width>256</xapGImg:width>
                  <xapGImg:height>184</xapGImg:height>
                  <xapGImg:format>JPEG</xapGImg:format>
                  <xapGImg:image>/9j/4AAQSkZJRgABAgEASABIAAD/7QAsUGhvdG9zaG9wIDMuMAA4QklNA+0AAAAAABAASAAAAAEA&#xA;AQBIAAAAAQAB/+4ADkFkb2JlAGTAAAAAAf/bAIQABgQEBAUEBgUFBgkGBQYJCwgGBggLDAoKCwoK&#xA;DBAMDAwMDAwQDA4PEA8ODBMTFBQTExwbGxscHx8fHx8fHx8fHwEHBwcNDA0YEBAYGhURFRofHx8f&#xA;Hx8fHx8fHx8fHx8fHx8fHx8fHx8fHx8fHx8fHx8fHx8fHx8fHx8fHx8fHx8f/8AAEQgAuAEAAwER&#xA;AAIRAQMRAf/EAaIAAAAHAQEBAQEAAAAAAAAAAAQFAwIGAQAHCAkKCwEAAgIDAQEBAQEAAAAAAAAA&#xA;AQACAwQFBgcICQoLEAACAQMDAgQCBgcDBAIGAnMBAgMRBAAFIRIxQVEGE2EicYEUMpGhBxWxQiPB&#xA;UtHhMxZi8CRygvElQzRTkqKyY3PCNUQnk6OzNhdUZHTD0uIIJoMJChgZhJRFRqS0VtNVKBry4/PE&#xA;1OT0ZXWFlaW1xdXl9WZ2hpamtsbW5vY3R1dnd4eXp7fH1+f3OEhYaHiImKi4yNjo+Ck5SVlpeYmZ&#xA;qbnJ2en5KjpKWmp6ipqqusra6voRAAICAQIDBQUEBQYECAMDbQEAAhEDBCESMUEFURNhIgZxgZEy&#xA;obHwFMHR4SNCFVJicvEzJDRDghaSUyWiY7LCB3PSNeJEgxdUkwgJChgZJjZFGidkdFU38qOzwygp&#xA;0+PzhJSktMTU5PRldYWVpbXF1eX1RlZmdoaWprbG1ub2R1dnd4eXp7fH1+f3OEhYaHiImKi4yNjo&#xA;+DlJWWl5iZmpucnZ6fkqOkpaanqKmqq6ytrq+v/aAAwDAQACEQMRAD8A9U4q7FXYq7FXYq7FXYq7&#xA;FXYqxLzfFxv4pOzx0+lSf65wHtXirPGXfH7iXedmS9BHmwvUvNvlvTLo2t/qEVtcABjG5ING6Hpm&#xA;iw9n58seKETKLusekyzFxjYQv/KwfJf/AFd7f/gj/TLf5I1X+pybP5Pz/wA0u/5WD5L/AOrvb/8A&#xA;BH+mP8kar/U5L/J+f+aXf8rB8l/9Xe3/AOCP9Mf5I1X+pyX+T8/80u/5WD5L/wCrvb/8Ef6Y/wAk&#xA;ar/U5L/J+f8Aml3/ACsHyX/1d7f/AII/0x/kjVf6nJf5Pz/zS7/lYPkv/q72/wDwR/pj/JGq/wBT&#xA;kv8AJ+f+aXf8rB8l/wDV3t/+CP8ATH+SNV/qcl/k/P8AzS7/AJWD5L/6u9v/AMEf6Y/yRqv9Tkv8&#xA;n5/5pd/ysHyX/wBXe3/4I/0x/kjVf6nJf5Pz/wA0u/5WD5L/AOrvb/8ABH+mP8kar/U5L/J+f+aU&#xA;bpXmjy/q07W+m30d1Mieo6RkkhQQKnbxOU59Dmwi5xMQ1ZdNkxi5CmdeTovgupfEqo+ipP686v2R&#xA;xbZJ+4fe6DtSW8QyTOydS7FXYq7FXYq7FXYq7FXYq7FXYq7FXYq7FXYq7FXYq7FWO+cYqw20tPss&#xA;yk/6wB/41zj/AGuxXDHPuJHz/sdr2XLeQfNf54WZj8x2V0BRZ7UIfdo3av4OMPsxkvBKPdL7w+gd&#xA;iTvER3Sec50ruXYq7FXYq7FXYq7FXYq7FXYq9R/IGASy65fFdh9Xghf2/eM4/wCI5yftXOhjj/WP&#xA;3V+l5btbNxkdz6T8qRcNK5f78kZvuov8M2nsvj4dLf8AOkT+j9DxPaMry13BOM6JwHYq7FXYq7FX&#xA;Yq7FXYq7FXYq7FXYq7FXYq7FXYq7FXYqlHmmLnpLN/vt1b7zx/42zn/abHxaQn+bIH9H6XO7OlWX&#xA;3h89fnrZ8rDSr0D+6llhJ/4yqGH/ACbOaL2WyVOce8A/L+173sOe8o+5409xCjcWahHahztBEu9n&#xA;qIRNE7tfXLf+f8D/AEw8JYfmsff97vrlv/P+B/pjwlfzWPv+931y3/n/AAP9MeEr+ax9/wB7hdQH&#xA;o1e/Q/0x4SkanGev3u+t2/8AP+B/pjwlfzWPv+931y3/AJ/wP9MeEo/NY+/73fXLf+f8D/THhK/m&#xA;sff97vrlv/P+B/pjwlfzWPv+9SuLuMxFYzUnY7EbYYx3ac+qiY1Evd/yHs2g8lSTMtPrV5LIjU3K&#xA;qqR/8SRs4L2oycWpA/mxH6S81rT6x7n0HokXpaTar4oG/wCD+L+Odj2Nj4NJjH9G/nv+l43VyvLL&#xA;3o3Nm47sVdirsVdirsVdirsVdirsVdirsVdirsVdirsVdirsVQmsRerpd0n/ABWxH+xHL+Ga/tbH&#xA;x6XIP6J+zdv0sqyRPm8J/OK09fyVNL/yyTwzfe3pf8zM4T2cycOqA/nRI/T+h7vsedZ67wf1/ofN&#xA;8zcpXbxO2ekAbOfllxSJWYWt2KqsFs8u/RP5j/DImVORh08p+5GmFI4JAo/ZNT3O2V3ZdgcUYYyB&#xA;3FLcudO7FXYq7FXYq+ovyvsHs/IWiwN9p4PWA9rh2mH4SZ5d21k8TWZCP51fLb9Dp9VIHIS9whjE&#xA;cSRjoihR9Apnp+LHwQEe4APGSlZJXZYxdirsVdirsVdirsVdirsVdirsVdirsVdirsVdirsVdirU&#xA;iB0ZD0YEH6dsjOAlEg9Ug0beQecNHn1Xy5qWlw0+szwskIY8V9Rd0qe3xAZ5Poc3gaiMpfwy3/S9&#xA;npc3BMTeGf8AKjPPX8tr/wAjv+bc7f8A0TaX+l8nYfm8fe7/AJUZ56/ltf8Akd/zbj/om0v9L5L+&#xA;bx97Fr/y9c6TqU9hf8Tc2z8JFQ8lr16982+HVRywE4/TJ2+k08ZREzuC10yTsls39zJ/qn9WEc2G&#xA;b6D7ilWXuidiqZeXfL2oeYNVj0zTwhupQzL6jcVoiljvv2GYur1cNPjOSf0hjOYiLLL/APlRnnr+&#xA;W1/5Hf8ANuaj/RNpf6XyaPzePvd/yozz1/La/wDI7/m3H/RNpf6XyX83j730P5X0wWkelaaPiW2S&#xA;CCo7rEFX9S5xmm/f6yJ/n5L+Zt02ryemUve9Mz1Z5R2KuxV2KuxV2KuxV2KuxV2KuxV2KuxV2Kux&#xA;V2KuxV2KuxV2KseuPKIluJZRdcBI7MF9OtORrSvLOQz+ygyZJTGSuIk1w8r/AM52kO0+GIHDy8/2&#xA;Kf8Agz/l8/5J/wDN+Vf6EP8Abf8AY/8AHmf8q/0ft/Yk+rad+j7oQep6tVDcqcepPap8M53tTs/8&#xA;pl8Pi4truq/SXP02fxY8VU+YvzD/AOU11f8A4zn/AIiM7rsj/Fcf9V7zQf3Efcx3Nk5iyb+5k/1T&#xA;+rCObXm+g+4pVl7onYqzn8lf/JgWX/GKf/k02aL2j/xOXvj97Rqv7s/jq+o9G0b9Jet++9L0uP7P&#xA;KvKvuv8ALnIdj9j/AJzi9XDw10vnfmO55vVarwq2u0z/AMGf8vn/ACT/AOb83X+hD/bf9j/x5xP5&#xA;V/o/b+xE6d5YFneR3JuPU9Op4cONagjryPjmZoPZoafNHIZ8XD04a6f1i1Z+0OOBjw1fn+xPM6h1&#xA;rsVdirsVdirsVdirsVdirsVdirsVdirsVdirsVdirsVdirsVdiq2SSONC8jBEHVmIAH0nFIFvPPO&#xA;PmvyvDqYM2sWMY9NRV7mFd6t4tnBe0mly5NTcISl6RyBPe9D2bhn4fI8+58w+eNSsLzzdqdxa3CT&#xA;wTTVikjIZWBAGxGdL2XilDTQjIUQHvdFkiMUYk70kckscdOZpXpmeBbl5MsYcyoy3UBjZQ1SQQNj&#xA;4ZIRLj5NTAxIB6IDLXVOxVmH5Talp+m+drS7v7iO1tkjmDTSsFUFoyBUnxOabt7DPJpZRgDKVjYe&#xA;9p1ESYEB9U+SPN3lSU3Qi1qxct6fELcwkmnKvRvfNZ7LafJi8TjjKN8PMEfzu95TtTBP0+k9enuZ&#xA;zHJHIgeNg6HoykEH6RnXOkIpdih2KuxV2KuxV2KuxV2KuxV2KuxV2KuxV2KuxV2KuxVSu7y0s4Gn&#xA;u547eBPtSysqIPmzEDFlGJkaAtgmvfnz+VujlkfWUvZ1/wB1WKtcVp4SIPS/4fBbsMXZOon/AA17&#xA;9v2sMuP+cmptRd4fKXlG/wBUcbLJJUcT4tHAs/8AxMZXkzwh9RA95c+PYPDvkmI/jzpCP5y/5yT1&#xA;un1PS7LQoWB4yssfIf6yzyTtX/nnmvyds6eP8V+4fgNw0OihzJl+PKvvUH8h/ndq++s+entQ/wBp&#xA;LJ5gKEdCsQtV+jpmFk9ocY+mMj9n620ZdLD6cd+/9tqP/QvWnXDiTXPMt9fydWf4UPau8pnzCye0&#xA;cukYj3n+xsHaRH0QA/HwR0H5C/lpbLWQ3d3xpXnPuf8AkUsfXMPJ7R5qsGPwCPz+c9w+DyX81/Le&#xA;h+X/ADZZ2OjW31a1e0jmeMu8hMhllUsTIzH7KDptm97E1uTUYJTyGzxEfCg7rs2cpkGRs2h/y48u&#xA;R+ZPP2nafPGJbKBjcXiEVUxQjkVYeDtxQ/PMrtDUeDglIfUdh8fxbb2xqeGJrpt8S+iZvIX5dRPw&#xA;by9Y1pXa3j/pnFz7WzRNGcvm8xHNmkLEipz+Q/IKw808t2Q5GilreMfwyGTtfUCNiUvmyhmyk0Zn&#xA;5vnD8z/LkWgecby1t4/SspwtzaINgI5eoUDoFkDKPYZ2nYusOo00ZE3IbH3j9lF3unycUAU5/JPy&#xA;n5c80eYL/TtbtzcRx2ZngCvJGVZZUUmsbL2em+R7Y1OTDjEoGvVX2Fx+0M08cAY971S8/wCcf/y3&#xA;lZlSS7tG8I5127/7tSTNAPaHNE0TH4j+x18e0c1cgfglv/QvFnbv6mieZryxk6h+KufvieDMvH7R&#xA;y6xB9x/tZHtIn64AqyeRfz00ih0bzu12qfZju5Zm7UoEmW5T6K5mY/aHEfqjIfb+prOXST+rHXu/&#xA;ZSunnf8A5yT0MVvtItdbhGxkWONnNO4W1eJgfmmZ2PtfTy/ir37NZ0GinykY/jzRdr/zk+bGRYPN&#xA;flS90yXo7RGpJHWkU6wEfLkcz8eaM94kH3NM+wL3xzB/HlbNtB/Pn8rdYKomspZTt/uq+VrelfGR&#xA;x6X/AA+Tt1+XsnUQ/hv3b/tZ3aXlpeQLPaTx3ED/AGZYmV0PyZSRhdfKJiaIpVxYuxV2KuxV2Kux&#xA;V2KuxV2KoXU9W0vSrVrvU7yGxtV+1PcSLEg/2TkDFnDHKZqIJPk8t8xf85K+SbGb6poMFz5iv2NI&#xA;0tkMcRb+X1HHM/7GNhkZSAFl2+DsPNLedQHn+P0sO8yfmN+fmo6PdanDYQ+V9Kt4XmYlV+ssiipW&#xA;k3OQNTuI0+ea+Xa2ATEBK5SNbfrdjg7N0kZUSZy+z7P2sI/LPy+fzK12/PmvVL+8aziWZCZyxYs9&#xA;CCZBJRfZaZV2trp6eIMa373YaqY00B4cYi/J7Npv5dflzohC22iwSzJ/uydTcPyHflMXoflnH6jt&#xA;rNI0ZH4bOtOfPk5y2/HcnsurwWsBIWO2t4x1YhUUD/gQM1v5mczURZ+bAaezubX6fffpGyF9b3Mc&#xA;1nIrNDLAyuj0qKh1rtUeOTMcovjuNdORYzjGMuGt2Oeb/N1v5b0d9UvlmnhV1j9OIgsS52+0VFMj&#xA;oNJPV5PDEqNXu5mHDxGg81k/5yAmkkVLTy+zes3C3eS4pyNQKcRFTqf5s6OPsmALlk/2P7XNGiHW&#xA;T2+8jjgtkiWnIkFj3NB1zmM8RGNB0+KRlKy+avznu0l/MKRKg/VLaKNgO1UMtD/yMzuvZyFaMf0i&#xA;fvr9D0vZewBPmWd/842+XjHY6p5jnWjXTi0tmPXhH8cpHszFR/scxfaDPvHGOm5/Q6jtfNxSEfiy&#xA;v8zPMj6L5U1PUYpPTunX0bRgaMJJTwUr7oCW+jOa7K0/5jVxB+m7PuH4pjpcVkRZPomrReYPK1jq&#xA;sVKXluk/EfsuR8af7Fqrlmu05hKUP5pcAx8PIR3F5B+f+hetpVhrca1e0kNvcEDf05d0LHwV1p/s&#xA;s2fspqqnLEf4hY945/jydzop7mLHP+cd5zH+YDJv++sZ0NPZkff/AIDN928L0/ukP0p7TH7r4voT&#xA;Uv8AehylC1Bt2rTvnnmeuN1eD6Xi1p/zkGrENc6C6wKaSTRXHOlenwtGo/4bOqn7Jfzcnzj+12h0&#xA;Xm9b8ka5beZtDg1u19aG2nZ1WGSivWNihrxZh1GaXN2fPT5DCUrrudVqhwS4aFom41sWUDXF3cxw&#xA;W6UDSzsqICxCrVmp1YgDfMDFkyyPDH1Huq2XgA8grjUra7t+M0UdzbyDcbOjD5GoOWjVygdxR+TA&#xA;6cg7GmOat+Wn5a6wrvcaNHbydTLahrcgnv8AuSqE/wCsM2eDtzNAbSNee7ZDPnhsJW8R8/aafy88&#xA;yW0PlTVr+0eaAXDn1ijgF2VRyiEYYHgdjnWdjdoz1WMzkAKlW3u/a7bEBnh+8ES9NtPPP/OQXleO&#xA;N9S0+HzVphUMs8KhpCnX4TCEk6d3iOX4e1sEzXFwnz2/Y6ieg0eX6TwS/Hf+gsn8tf8AOS/kXUX+&#xA;ra3FceX70Hi6XCmWEN4epGvIf7JFzZCQLgZ+w80d4VMPU9N1XS9UtFvNMu4b21f7M9vIsqH/AGSE&#xA;jC6ieOUDUgQfNFYsHYq7FXYqxzzp+YPlTybZC6129ELSAm3tUHOeWn8kY3/2Roo7nFytLo8mc1Af&#xA;qeVXH5s/mv5z/d+R9CGj6XJsus39CxU/tpyHp/QqyZgantLDh+o79w3P497uodl4MO+WXFLuH4/U&#xA;hbf8lI7+7Gp+fNeutdvuvpeoyRAHqoYkyFfDhw+Wc9q/aKX8AEfM7n8fNyhreEcOGAiGdaFo3l7R&#xA;1+raDpkFotKPJGgUkeLvu7f7I5z+XX5M0tyZe/k42UzlvOTEvzgvZl8gazMKMzJFGAegWSdENPob&#xA;J9iE5NbC/P7AXO0cAJgPOv8AnG6Yx+db6Bvh9XTnYVrUlZoiKf7Fic672gj+5B/pfoLf2qLxg/0v&#xA;1vb/ADBA9zBewQStFJNE8aSxsVdGZOIZWBBBB6HOB4hHMJHcAh1+nNAW+bbHyo+v/l95i87X+rTz&#xA;6hosttAttLWUus8saBmldi1P3jUFO2esY8UYCogAeWztcmp4M8MQG0r391vffyi/8ldo3/GCX/k7&#xA;JnCds/38/wAdHT6z+/PvDFfzx/5QSX/mJh/Wco9mP8a/zS7HR/Wxn8ybnUpE/LGKzsJtR/Rmg6de&#xA;G3hRn5FwlUJRWI5egB9OehZYcUDHlYadAIg5iTV5JD8fNGz/AJh/nLc3FYfKRgVwCoubW6BIPcMz&#xA;xCn0ZyOfsXQ4j++yni94H2U5EMOCtpX7iHlXnC716/8AMl3dazbi31SYok8EYoAUjVAAtW/ZUd86&#xA;Ts/HihhjHEbgOXzt2WPHwQFfSX1V5U0RfLfkrTdJACywQKs1O80nxzH/AINmzg+09T4k5T7zt+Pc&#xA;8xOfi5TJ43/zkFrZaXS9DjY0UNe3CU2qaxxGviKSffm49k9NUZ5T19I+8/odzoYcyyv/AJxx8wC7&#xA;8r3miyNWXTJ+cS/8U3FWFPlIr1+eT7fwcOUT/nD7R+ynA7VxVMS7/wBDK/OugLq+hapo5AJuYmEH&#xA;LYCQfHET/quFOcvpM/5bUxn0jL7Ov2I0+WiJPmnyHe+ZdP8AM8Nx5ethc6tEkoS3kFQV4ESbckNQ&#xA;te+ej9ojDLCRllwwNbu6zwjKNS5PUYfPv5yRSO9z5Pa5gj/vPqttdEiu9S6tMAKA9s53F2Bo84Ph&#xA;ZJGvMH9AcCePAP4wPeQgPy6l1C28sfmhZ3ljNp4vdMe7jtpkdOHpmVSo5henq0+jOvxx4YgHeg0a&#xA;7hllwyBBqVfc9E/Ib/yWmnf8Zbn/AJPvnFdtf4zL4fc43aX98fgl35w/+S51f/o3/wCoqLNT7Pf4&#xA;7D/O/wByXM0v94Px0eTa75Vn8qeUfK3mPSdYuor/AMyxyM9tCTEV9IrXi8bBmFZBtTPScuGExUwJ&#xA;DzFuRg1Pi5Z4zEVB9MOgttNgtGk9SaNESRq1LFVoWJ9yO+eW6ucaIG2/J02O5TMnzl+frhvOdsP5&#xA;LCJT/wAjZT/HOy9lhWlP9c/cHfaL6Pi9i/L3z/pOt6Tp1lZXsU2pQWkCXNk1UkEkcSiWgcKWAb9p&#xA;ajOe7T0uoxZZS4f3ZkaPTn9nxdVqNJwkk8r5p75h8t+VtcUQ6/pcFy/GgmK/vFB7LKvGRfoOUYe0&#xA;cmA7Ex+5x8Uskd4Fgdz+SNzply2p+QPMNxpF519B5G4NTopkjo3H2dWzodL7RH+MX5j9X9jlHWiQ&#xA;4c0BIIm2/OX80vJbLB590H9Jaep4/pezARvmWQGFq9lIQ50Gm1+LN9Mt+7q40+ycGbfDLhPcfxf3&#xA;vU/Jv5p+R/N6quj6khuyKtYT/urkf882+1TxQkZmul1OgzYfqG3f0ZZi4bDfzQ/MODyXoaSwxfXN&#xA;b1B/q2j6eKkyzGgqwG/BOQrTqaDvkZSERZ5OdoNEc865RHMvPvK/5cLHct5p88uNZ803h9RkmpJD&#xA;b91SNPsEr4/ZXovieL7U7blKxA8MPtP7PwXez1G3h4fTAJ55k8/aFoUfLU7+KyqAUhBLzMpNAVjU&#xA;M5FR1Apmi0+DUak1iia7+nz5Li0ZlyFvMNY/PDU7yO5fyvos1xDbJ6lzf3KM6xrWhZo4iQo6UZpP&#xA;ozoNL7K9c0vhH9Z/U7COkjGhIgX0Z3+WvmS9n/L+HWtdu1NxePPK00gSFEiSQxrWnFQo4VzWdqYY&#xA;YcxxYY92wsuDqcN5ajyDB/zZ/MLypfeV7zRNOv1vL2d4gRCGaMKkiyE+rTgfs/sk5mdg9k58ecZZ&#xA;x4YgHnz5Vy5/NztNgkJAkbMV0qfzH5W8818u6Y+p6idIsE+rwxySgNdafbSsxWIcj8Z9vnnWa7Rj&#xA;UQ4CSBfRJMMmK5mhxS5+UizmHyr/AM5G+ZwS4h8vWcwpR2S3I8SOPr3Sn7swtP7P6XH/AA8R/pb/&#xA;AGcvscOfaGkx9eI/j3BU138pdR/L78mPOQvNUjvm1P8ARxaCKNlSNob1Nw7NVuXqb/COmbpx8XaM&#xA;dTqsdRrh4vtizD8ov/JXaN/xgl/5OyZwHbP9/P8AHRGs/vz7wxX88f8AlBJf+YmH9Zyj2Y/xr/NL&#xA;sdH9b2j8t/8AyXflb/tkWH/UNHno7yOt/v5/15fegPNn/HUH/GJf1nPO/an/ABof1B+l2nZv938X&#xA;ztp+iL5h/PiWCnO1srprq57iltQ0PsZeKHN9izeF2bE9ZRofH9j0mqz8OnH9Wvm9+1SSrpGP2RU/&#xA;M5xGrluA6LTx2t8m+eNZXXfN+sakjBrfm0VsynkpjiX0kZf9dU5fTnpPZmm8DTwgedb+87l6vQ4a&#xA;gfKJ+1O/yL8wHSfzAtIXbjb6orWUtTtyf4otvH1EVfpyvtnB4mAnrHf9f2Ou7QxcWI+W76Y1SPdJ&#xA;B3+E/rGed6uPIuk08ujwm30yPy9+fEamiWup+rcW5J/5aYnqNun79WUDOpyZzqOySf4oUD/mkf73&#xA;d3fFxYD5PozyZ/x+f88/+N8Hsh/lf83/AHzy/av8Px/Qo/mv/wCS08zf9s64/wCTZztHE7P/AL+H&#xA;9YPPvyG/8lpp3/GW5/5PvnDdtf4zL4fc73tL++PwS784f/Jc6v8A9G//AFFRZqfZ7/HYf53+5Lma&#xA;X+8H46KKflDqfnz8tfJN5Yauunz6XYsIYZI2Kl5JORcSo3JCOA/ZOemkWKLr/wCUo6fUZAY3xSQd&#xA;z5c/5yN8t8n9O28xWsYoPTKSn/Wp/o1wx+/NJn9ndLk/h4T/AET+ux9jlQ1+jydTA+f4ISTyTJda&#xA;7+d9hd+bdH/RiLbSrcWV9GViPG3eEF1uFFQzyCg8aZndn6IabH4YNiy2a6YjpT4cr3G4999E503S&#xA;dM0n/nJbVtP0y1js7GG2UxW0KhI152cLtxUbCrMTmJ27/i594aY5JT0MZSNm/wDfF6lqf+9I/wBU&#xA;fxzzrVfV8GnT/S8W8uf85ARNxXXrBoGqFN5ZVZKk943PJQBuaOx9s6nVeyshvhn8JfrH6na5ND3H&#xA;5vVdA866JrtsW0+8h1CEr+9jBpIqnb95GwDLX/KXfNDmhqNMayxI8/1Hk63LpDE9zH/Mn5O+R9fc&#xA;3VgDoeqA81ntAFTkNwWhqE67/BxPvm20Xb+SGxPEO48/n/azx6vLj2l6opNpHn780PIPmfSvLeu3&#xA;cPmTS9UnS3s7mV2MwDSLHX1aGSq8xUOG9jnW9n9pY9VEmHTmx1HZ+DNjOSIMJAX+B/Ymlncjzd+e&#xA;+t31wfUsvKcX1HT4TuEn5FHenSvMS9v5fDMLt/OY4hEfxH7A144eDpIgc8m5/HyZvqLk3JB6IAB9&#xA;Irnn2oJM6TgHpeU/kX5I8u/mDd635n81wPqN7HdqEgeRhAOa8hVVozBdlVS3Gm1M9Y0+COKAhH6Y&#xA;hs7Y1mTBwwxmgR8Xp/5y6TDaflVqGjaHBaadHctBCicoLK3jT1keQlnMcajghHjlxdP2ZkMtSJzJ&#xA;lV95PJ8yLbeT7ZIIPMPmG81hLYFYbDSEJhjB3Ki4vPTVf+ecLD3yuOOMSSALPPzesM8svoiI+cv1&#xA;D9Yeh+RPzG/ILSLuKN/Kk1q9QBqd2Ev2Vq/bYMSU/wCeafRljrNXotZMfWD5D0/j4vpiwurG8s4b&#xA;2xkjmtLpFlhnioUdGUcWBHUccLyk4mJo8wiMWLzr/nIX/wAk/r//AEaf9RsGAuz7G/xqHx/3JST8&#xA;ov8AyV2jf8YJf+TsmcB2z/fz/HR2ms/vz7wxX88f+UEl/wCYmH9Zyj2Y/wAa/wA0ux0f1vaPy3/8&#xA;l35W/wC2RYf9Q0eejvI63+/n/Xl96TfmDqMGmm51C4NIbS1M0nuIwzUHuaZwHtFhOTWxgOcoxHzJ&#xA;dt2XHihX9J5Z/wA486VPPDrfmy9FbrU7gxI5FNgfVmYezO4H+xzP7cmI8GGP0wH7B9jse1Mm8YDo&#xA;zDzprtnpei3uo3k0lvB8MRnhUPJH6zCJXRW2Ypy5U9s5jQ4ZajUgAXvfy3+3kxwYzsBzYdD/AM46&#xA;+SZraK5i1q8kgnVXhmVoOLqwqGU8NwRnTz9ocsDUoxHz/Wy/lPJdcIv4q1t/zj15VtbiK6tdbvY7&#xA;mB1lgk5QHi6HkrU4DoRlZ9opSBBEKP471PaWQijH73qt36ctu6h1LAVFCOozns1SiRbrsdiTAfPX&#xA;5WTebn0+9t9R/Rd9p5YxTCMuzBirL8SsjKUZar882HY2uOnjKMo8UZ9Px3ufj1wxWKsFgUR/MTyr&#xA;+YuheWU813d4dUuLb1yskhX0pLj0zy9UvWgVs63sjNhyxlPFAQF0arevd72/MMWXBKZgPSD9z6E/&#xA;Nf8A8lp5m/7Z1x/ybObh5Xs/+/h/WDz78hv/ACWmnf8AGW5/5PvnDdtf4zL4fc73tL++PwS784f/&#xA;ACXOr/8ARv8A9RUWan2e/wAdh/nf7kuZpf7wfjo9J/Jj/wAlb5b/AOYRf+JNnp4eY7T/AMYn72aY&#xA;uCw385LAX35YeZIuPIx2Uk42qR6FJv8AjTEud2bPh1EPf9+zxD8hvI96bmy85i9Sa3kjuLae1YMJ&#xA;UZT6aUb4gw4qDvSmcx23rRRwkb7G3pu0dQKOOu57Fqf+9A/1R/HOH1X1fBwtP9Lyf/nGCfyvcWXm&#xA;DRdbezle/ktjBp956besFWQHhHJ9unLsM9eDPt0ZAYThe17jpyZF+an5GeT9J0LUfNnl6a40K/0y&#xA;J7lI7d2aFmXsoJ5xljsCrUHhkZwjIURYcbs/tbLKccc6kJbeaJ/KO/1LUvy8g1LVZzdXcrzIk7gc&#xA;vTjf01BIAqfhO5qffPPu2tNixZZCERHb73M1m2bhHJi/nVhP+b3kG05qDFeQT06tvdIdxXofSoM2&#xA;3slH91M/0v0ftbztp8h/on7kR+TbM35hef2Yksb1iSdySbmfMj2i5Q+P6GnWf3GP3foD0q//AN65&#xA;Po/4iM4TOf3hasP0h4n+W9r+dnl+11LQPL2lrpxurgNc6tex8RHwBSsJl+B1PWqo+enZO1tPCPFx&#xA;XfQbn9nxcvWw02WQnM3Q5D8fqZZb/kqt/dLqXn3X7rXb3qYfUZYhXqoZiZCv+pwzRar2il/ABHzO&#xA;5/HzaRreEcOGAiGc6Ho3lnRgtvoulw2tNucUahztSrOau23djnP5e0Z5pbmUnGy+JIXOSVedPLVj&#xA;5l026sNRhRpWVhbzEVaGSnwOjdRQ0r4jY7ZTpNflwZxIHruOhHc5WnnwUY8kL/zivrNzd+Rr7T53&#xA;Lrpt6y29f2YpkV+A/wBnyP056qHW9v4hHMJD+IPaMLonnX/OQv8A5J/X/wDo0/6jYMBdn2N/jUPj&#xA;/uSkn5Rf+Su0b/jBL/ydkzgO2f7+f46O01n9+feGK/nj/wAoJL/zEw/rOUezH+Nf5pdjo/re0flv&#xA;/wCS78rf9siw/wCoaPPR3kdb/fz/AK8vveV/85O601npMOlwkm51Zo4gi/aMUTc3pTf7XBfpznp6&#xA;bj7S4zyx4x8zYH6Xf9gwuJPcWUeVNEXy35K07SQAstvAqzU7zSfHKf8Ag2bOV7T1PiTnPvO36Psa&#xA;5z8XKZebyT/nIDWv3Ol6FEw5Su13cJvUBaxxfQxZ/uzaeymm3nlP9Ufef0O50GOzfwYv5V/N/wAy&#xA;eXdEj0hrRL62tmY27zFw0aNuUBHVQdx/TNv2h2Hi1M+MyMT5ORm7OuRlRHemv/Qwmtf9Wm2/4OTM&#xA;L/Qni/ny+xo/Ijvep/lN52h846Xd3c1stte2UwikhVi68WQMjioFKnkKe2ajXdkR0kxR4gR1dZr8&#xA;ZxkAHYsjuozFLIgFaH4R+Izn8kalSMcrALyHyDqp85/n7pl+baS3g0yCQtbzU5oYIXB5U6Unlz0/&#xA;sjQ/lsIhYlZJsef7HI7RHhaSQ7/1/qe8/mv/AOS08zf9s64/5NnNq8x2f/fw/rB59+Q3/ktNO/4y&#xA;3P8AyffOG7a/xmXw+53vaX98fgl35w/+S51f/o3/AOoqLNT7Pf47D/O/3JczS/3g/HR6T+TH/krf&#xA;Lf8AzCL/AMSbPTw8x2n/AIxP3s0xcFLvMlgdQ8vapp4HI3lpPBx619WJkp0Pj4YtuCfDOMu4h87f&#xA;84/eaLVtGfy2txx1QXM1zDBxahgKR1PKhTZuW1fozi/aTS5fEGSA9FUTtz3ex7Qwji4zyp67Oyx3&#xA;A+sKJW4ipGw79u+ctkIEvUL2ddAXH07MN8w/k7+XnmDnJDbfoq9f/d1nSIV94jWI+9AD75vtJ29l&#xA;htxcQ7pfrb4avNj5+oPNvzAj/MTyXpX+F5/MX6Y0LWwYYbaXk0qiJkag9TkYtyuyyU9s6vs/tOOp&#xA;sAUY1fx/sczTQw5ZeIIcMo/j4/JOfJf5kReUNJtvJvmvTLnRJrMPxuJY3YOHlaUsy05gFmoCoYHx&#xA;zS9s9jZ8s5TxkS4unI/q+5GTTjLLxYEStWlubLVfz98nT2FxFc27QI6zRMHQ+m9y5oVrv8OZfszh&#xA;njwSjMGMuM7H3Ra9QDHSTv8AHJFfk3LGn5j+fIGakzXcjLGepCXUoY/QXGR9ogeGB8y16wfuMZ8h&#xA;9wep3RgjvfUarmgJQeI2Fc4jKYxyWd3FxgmFBLNe836ZpNsbjUryKwg34l2AZqb0QfaY+yiuW4Y5&#xA;9QeHFEn3fpPRtxaW+Qt5rqX52C9uzp/lHSbnWr96iJyj8SezLEgaVxU9+Ob3Seys5b5pV5Dc/Pl9&#xA;7nDSiIuZEQyf8mfPGpearLU21O3igvLGZErCrICkgJ4lXZyGVkNd8h2l2Xj0khwX6h1cPtHEIEUd&#xA;iy6+/wB6ZP8APtnN5v7xjh+kMK/5xK/5R3Xv+YuL/k1nsAcf2i+uPue84XnXhH59/m35KvPKeu+T&#xA;rO5luNaMsdvKqROI45ba6jeVWdwoNPSYfDXfAXoeyOzssckcpFR/WE3/ACjBH5X6MCKH0JTv4GVy&#xA;M4Dtj+/n+OjdrP78+8Jd+Y3lPWPNHlh9M0pEa4M0b1kbggVSa1O+YPYOojhz8cvp4S5eHPHHK5PJ&#xA;/NGt/mv5UutN8tah5nntrZLaFLdrCZ444oFPoqvJFgJKCPf9ed9o+0IaiBljv0mnKxabT5LmIAkn&#xA;qP7Xomm/kbcR67Yaxr/mifV5bGWOdYp42NfTYPxLyTSHiSB2zn9R2/xRlER4eIVd/scKXaA4TGEO&#xA;G/x3PSNSnV2REIIG5INd85LVZAaAcXBCty+WfzC1j9NefdSuVYtb2r/VYASCAsH7s8afss4Zx889&#xA;E7J0/g6WEepFn47/ALHrOy8NV5bpHN/cyf6p/VmwHN3Ob6D7ilWXuieq/wDOOmufUvOc+mO1ItUt&#xA;mVF8ZoP3i/8AJP1M0fb2HiwiX80/YfwHW9qY7x33F9CajDyljZaAsKGpA6ZwWphZDqME6BeZa3+S&#xA;Ez65ea/onmWXR7m6dpXSFGqGkIaQCVJY2ozValM6fR9v+DhjCQ4uEVd/sc2OvBAhKHEPx5MG0Kb8&#xA;2/NN5rnlew8zS31rbJLDdm+nkeOeL1DEeLOsxHLr16d86PN2jDFjjOYPr+za3Iy4tNi4ZmAB8g9p&#xA;/Kvy3qnlzyXaaTqaql5BJMzhGDrR5WZaEexzkO0tRHNmM48jX3Or1mWOTIZR5Mb/ADgBP5c6vTf/&#xA;AHn/AOomLMD2f/x2H+d/uS7DS/3g/HRM/wAkvzg8kv5e0DyhLPNb61HGtqkckTenJKWJAR05jf8A&#xA;yqZ6cC6ftTs3Lxzy1ceb2nC6J2KvnSG1tbX/AJyf1iC1hSCFbZCsUShFBaygZiFUAbsSTml7d/xc&#xA;+8PWY5E6GJO+/wDvi9M1P/ekf6o/jnnWq+pq0/0vCvLX54a+lqZtb0pr6wgZY59StEKFGYEj1Af3&#xA;RZqbCqZ2Or9lcct8UuE9x3H6/vdtk0kboGj3LvMfmjRPPHnnyPa6XI0sYvYluUkRkaMzzxBlatAa&#xA;LH+yxGZfYHZuXSiYycyR8aYGBxYchP8ANP3PqDXvLeg+YLJrHWrCG/tWrRJkDcSe6N9pD7qQc6N4&#xA;rDnnjNwJBec6F/zj7oflz8wdM80aFdvHY2jTNNpdwPVp6sEkamGX7Xws4NHqf8rBTtMvbE8uGWOY&#xA;3Nbj39WDfmZ+Vf5h6H59uvOPkeOS4ivpGuJFtuLTRSy7zI8Lf3iO9W2B9xsCas+CGWPDMWHY9n9o&#xA;4Z4Riy7Ebb/Ykup61+eb2nrapHB5atBUS396sVpy23oJy7sd+kScvDNPj9ndLGXEYmXvLmwnprqJ&#xA;4z3Df7v0qv5Rfl35L87eYb9tY1K98wzWMUctzckvBbyM7FFQPITcyCik8j6Z7cc3WPHGA4YgAdwc&#xA;ftLXZsEBwgQv4n9X3vpXQ/Lmg6DaCz0bT4LC3FKpAipyI7uRux92NcseVy555DcySXgX/OOqNw8z&#xA;y0/dveRhX7Ej1Caf8EM5T2iPqh7i9X2n/B7npGpSJHNPI7BUQFmY9AAN84rILy0O9pwj0hiX/OJt&#xA;rKnlLWboikc1+I0PiY4VLf8AJwZ6+HF9oZfvIj+j+l7mzKqlmICgVJOwAGF598zfkYlnqN/5q8yX&#xA;kCTy3V4ptmkRSys7SSycSRtXmtaZyntLquDhF9/xe01sSBDGOgep6j5itrSBpLyeC0gp8Ukzqigf&#xA;6zEDOQjky5doRJ9wJcOGm32ssYvvzY8k2AWOXXICD0FtynH0mBZPxzLxdk62Y2gQPOo/fTkjRyO/&#xA;C8b/ADg84+XfM11pr6O7ytarKk8rxmMEOUKBeVGNKNWozrOwOz82mjIZK9VVv8/0Oy0uKUAbZVJ/&#xA;zkJE6xJb6LNeT8FErPMIyWVQCQFSWu9c1s/ZcykZSyCIvu/aHHjoK6oK+/P3VuMsMOgi2npxBllZ&#xA;yhI6lfTTLMXsri2JycQ937S3Q7OJ33PweX2cbLGWYEMxqa9c6mZei0mMxjvzKrN/cyf6p/VgHNvz&#xA;fQfcUqy90SYeX9autD1uy1e1oZ7KZZkU9G4ndT7MKg5TnwjLAwPKQYZMYnExPV6rbf8AOQmqXMoV&#xA;9AF1OQfhhnYE032X0n2Azls3stDmcpHvA/WHC/IADYouD/nIKwXkt/olxbyCvFI5Vk7bV5rFT7sx&#xA;peykv4cgI91fpKDoT0LHfyZ89+X/ACu+ryaxcPFcah6Iim9N5ABHzLkleRqxcdu2bjtzRZ80YjEB&#xA;tfWu5nrNMclVyD13TvzY8m3gJg163UA0IuSbf/k+I85PJ2ZrsfOEj7vV91uvloiP4WRadq9pLAJb&#xA;RobiFhtLEwcMD/lAsMwOKeI1KNHz2LTkwkne3lX5pi10jzv5N8wW1tHbsl+HupIkCchFNC6hyoHL&#xA;bl1zr/ZfVSyeIJG64a+1zcMeLDOF36f0F9OZ1zxLBfzp856n5Q8iz6tpbpHqBuIIYGkUOvxPyccT&#xA;1qisMS7DszTRzZhGX00Xi35d33mrXfzfXzTr2mtZvq1j6iSpDJHbyKttGiNEzlgeSID9o5oO2s0J&#xA;YCAQSJB6TUY8ePT+HA3wn483smp/70D/AFR/HPP9V9XwcLT/AEvO/wDnEpEk0vzPHIodHltVdGFQ&#xA;QUlBBBz14MfaI1KHx/Qzbzn+XXkfy8k/n7TdHSDV9BR9QSC2c28ExiUkq8aq6Dapqqg164uv02tz&#xA;ZKwyl6Z7b7kLvJX/ADkD5A8y+nbz3P6F1F9vq18QiFvCOf8Au29uXEnwxtdV2PmxbgcUfL9T0sEE&#xA;Ag1B3BGF1Txbzh+bPnrUfN+o+SvI2mxRXtgSt3q10ytwAoC6IfhUAsOvMn+XMXVauGCPFMu/0nZm&#xA;IYxlynY9B+P1JNB+T0E12NV876rceZNYf/dcjuIEA3A3PNgOw+Ff8nOS7Q9o8lcOMcN/P9TsYarb&#xA;hxREIMG/KT8xdV8vPr0Xljy6+q6trM8bwooYQW8UZkKc1jHSsp7qKd8645Y4YDjlyHMt3aOhjmMT&#xA;OXDGP2s4uPJ35u+cwZPOnmP9E6a+7aRYEAcf5HEZWM/NmkzTan2gxx+gcXmdh+v7nEhPTYf7qHFL&#xA;vP4/Uzby5oug+VNGTSdFjIiUl3djyeSRgA0kjbVY0HT5DbOS1vaRyyMpG5fYGrJx5ZcU3n35leb5&#xA;b0nyX5cB1DzDq7G2njho3pI+0isfshmWoP8AKtSabZsuwOyJzyDPkFRG48z3+4c3YYYCA8Se0Iva&#xA;vy68nQeT/J+n6FGwklgQvdzL0knkPKRh7cjRfYDO9eT1upOfKZ9/L3Jn5kS+fy7qiafGZb9rOcWk&#xA;SkKWmMTCNQWKgVanUjFqwEcceLlYt84eV/8AnHz830tfq76zHoFm7mSS3iuZGcuwCklbf4G2UdXz&#xA;GyaTFklxTjGR8xb1WbtvTg7AyPu/WynTP+cT9BD+rrev3l9Kx5SG3RIKk+Jk+sE/PLxEDYODk9oZ&#xA;/wAEQPfv+pl+mf8AOPH5UWPEtpLXki0pJczzPWniiskZ/wCBw04WTtnUy/ir3AMn0/8ALvyHp9Pq&#xA;fl7ToWHSQWsRf/gypb8cLiT1uaXOcvmUs8y29vb6gscESQxiJaJGoVepHQZ537U/40P6g/S7bs6R&#xA;OPfvfLP5h/8AKa6v/wAZz/xEZ1HZH+K4/wCq+h6D+4j7mO5snMWTf3Mn+qf1YRza830H3FKsvdE7&#xA;FWc/kr/5MCy/4xT/APJps0XtH/icvfH72jVf3Z/HV9ZeVLe3uI7yOeJJoz6dUkUMOjjoc1Xsh/lf&#xA;83/fPI9pyI4a8/0IjUPy78h6hX655e06Zj1kNrEH/wCDChvxztHAhrc0eU5fMsY1P/nHj8qL7kV0&#xA;lrORq1ktp5kpXwRmeMf8Dgpy8fbOpj/FfvAYlqH/ADiloiy+voPmC90+dTyiadEnKn2aM27DBKAI&#xA;o7hzcftDP+OIPu2/WxXzV/zj/wDnBLZi2GsReYLSN/ViiluHWYOBxqPrA4rsegkpmPi0eLHLihER&#xA;J7hTnYe29Pe4MT7v1fqfS+nNdtp9q14np3bRIbiMkHjIVHMVUlTRvA5lPJTriNcnif8AzllqHp+V&#xA;NF0+tDc3zT08RBCy/wDM/AXfez0LySl3R+8/sZN5b1jT/wBDWUOmzQ3llawR26SwOrr+6QJ9pSw/&#xA;Zzy3V58kcsuOJFnrsXIy6ckknYlHytFdThuYiFAPi/zpmHMxySu6REGA5W8p038vvzU/Lye4vPI2&#xA;pwalZzlWuLGVERpQleIZHqpoGO6SKc9A03b+Kf1jh+0OTlzafUgDKCCOv4/Uml7/AM5Aw3nl/WPL&#xA;PnXRbjQtVvbG5tRKiuYGaaFowSjD1UUltqc/nm6x5YzFxII8nEj2MYzjkxSEoiQPnz+X3JB+VnkP&#xA;yh5u/LcnVbMfW7W5nhF9AQlwuyyD4hs1BJsHBGc12rr8umz3E+nhBrp+Pc7DV6jJjzVE7EDboi9B&#xA;u/Nv5c+evLfl6116W/8ALWtXaWy2dynL00eVIyqgl+BrIKFCB4jNl2T2qNXEmuExadXgx58U5mNT&#xA;iLsJj+WB+s/mv+Yl4u6JfSRArupBuZQDX3EeYXtEfTAeZYajbTYh/RH3B6PdRwyXUnrmkIABXu23&#xA;TOInXiWTsGiBIiK5oFbrRNB00paQ22labCKs1EhiXtyP2VHzOXT1eXNOogykfiWYwymbkTIvPvMX&#xA;55+WrWQwacs2tXhPFBFVIeVacebCp9uCEHNppvZvU5t8h4B8z8v2ufj0Rrf0hC2ejfnv57ISO2/w&#xA;to0n2p5Q1vIUJBH2q3DGn8oVT3zpdH7PabDuRxy/pfq5fe05dbpcHXjl5b/seu/lp+UXlryHbM9m&#xA;DeavMvG51OYAOR1KRqNo0qOg3PcnbN7Tz2u7Ryag77R7mc4uvdirsVdirsVdirDvNn/HUH/GJf1n&#xA;PO/an/Gh/UH6Xfdm/wB38Xyt+Yf/ACmur/8AGc/8RGdR2R/iuP8Aqvomg/uI+5jubJzFk39zJ/qn&#xA;9WEc2vN9B9xSrL3ROxVnP5K/+TAsv+MU/wDyabNF7R/4nL3x+9o1X92fx1fW3kz/AI/P+ef/ABvm&#xA;q9kP8r/m/wC+eQ7V/h+P6GS52jqHYq7FXYq7FUj81+R/Kvmy2jt/MGnR3yQcvQZiySR86cuEiFXW&#xA;vEVoe2LkafVZMJuBp5VrH/OL+nQzm98oa9eaNeCvBJCZFFf2VkjMUqD58sryYozFSAI893cYe35c&#xA;skRIfj8dEgu7X8+vJp/3I6cnmfTE63FqDJIEUb0MapKPdpImzQ6r2a02TeNwPly+R/RTsMWr0ubk&#xA;eA+f4r7UX5c/O3yveusF5JJo17UK8VyP3XP9oeqPhoPFwuc5qfZ7VYd8frj5c/l+q23Loj/WDOLo&#xA;aD5g09Y9TtbfU7GVeUTkLKpDD7SNvT/WU5r8Wuy4Zb3GQ+HzDheHKBuJILXlTynoPlvTr2y0QyLZ&#xA;3UrXJt5HLiN2RUIUt8dKIPtE/PMvVa6WpFyIJEaYZss5yBnzDzn8z5jB53/L6cEKYtS5gnoONxam&#xA;pzbeyJ/vP83/AHzscYvDkH9H9BQn5XebNC0W586a1qt7FbLfahWIuaNJxeZzwiHxtT1egGZvb+LL&#xA;llCOOJlLf7a5nkjUaeUxjiByj+pUn/NPzV5ovX07yDoc97MdnvpkqFrUcuNRHGO4aR/9jmJo/ZYf&#xA;VnlZ7h+k/q+bKWHHhF5ZABO9H/5x08ya/cJqP5h6/JK9eQ0+0YMVB6j1GHpR+6xxke+dTp9Jiwx4&#xA;ccREeX43ddn7djDbDH4n9T1zyr+XPkryqijRNJht5gKG7YepcHxrM/J9/AGmZLo9Rrcub65E+XT5&#xA;MkxcV2KuxV2KuxV2KsVufNd/HcyxxxxGNHZUJDVoDQV+LOE1HtRnhklGMYcIkQNjyv8ArO6x9mwM&#xA;QSTdfjop/wCL9S/31D/wL/8ANWU/6LNT/Nh8pf8AFMv5Mx98vs/Ulmo6hNf3AnmVVcKFogIFB8yf&#xA;HNLr9fPVZOOYANVt/aXMwYBjjwh8zfmH/wAprq//ABnP/ERnf9kf4rj/AKr3Wg/uI+5jubJzFk39&#xA;zJ/qn9WEc2vN9B9xSrL3ROxVnP5K/wDkwLL/AIxT/wDJps0XtH/icvfH72jVf3Z/HV9P6Zq9zp3q&#xA;egqN6vHlzBP2a0pQjxziuze1suk4uARPFXO+l9xHe89qNLHLV3sjv8X6l/vqH/gX/wCas2f+izU/&#xA;zYfKX/FON/JmPvl9n6kVpfmW9ur+G3mSJY5CQSoYHoadWPfM7sz2jzZ9RHHMQEZdwN8vf3tOo0EI&#xA;QMgTYZJnZupdirsVdirsVdirG/NX5c+SvNSMNb0mG4mIoLtR6dwPCkycX28CaYuVp9blw/RIjy6f&#xA;J5Rqn/OPnmry7K97+XfmGRFJ5Npd6QA2384Bic+HOMU/mzE1Whw5xWSIl9/z5u7w9uQntmj8Qk0H&#xA;5o695evU03z/AKJPpNyTRL6FGMTdKtxqwYDu0bt8s5TW+yxHqwS+B/Qf1/N2McWPKLxSEgl/5qax&#xA;pGp23lfWtLnivYINQUCWNgSpYI/Bh9pSeAqCK5P2awZMGbJDIDE0PsLZggQJRO2zMPJP/OL2jWrL&#xA;fecLs6resebWVuWjtgxNTyf4ZJP+F+RzsqdLqu3pHbEOEd55/j5vatM0rTNKs0stNtIrK0j+xBAi&#xA;xoP9ioAwuiyZJTNyNlFYsHYq7FXYq7FXYq7FVssgjieQ9EUsfoFcryz4IGXcLZRjZAeOedtWn0vy&#xA;tqWoQSencRRfupNjR3YIp326tnlXZuEZtRGMtwTv972uhxCeWMTyeH/8rN89f9XV/wDkXF/zRndf&#xA;yJpP5g+Z/W9T/JuD+aHf8rN89f8AV1f/AJFxf80Y/wAiaT+YPmf1r/JuD+aGP39/d395LeXkhluZ&#xA;25SyEAFj40AAzY4sUccRGIqIcuEBECI5BQyxmsm/uZP9U/qwjm15voPuKVZe6JtVZiFUVJ7YGUYk&#xA;mgnWg3moaLepqFjOYL1AypIoBoGFDswI6Zi6nFDNHgmLi7DHoYkevdkn/KzfPX/V1f8A5Fxf80Zr&#xA;f5E0n8wfM/rT/JuD+aFsn5n+eljZv0s+wJ+xF/zRhHYmk/mD5n9bGfZ+CMSeEPobynqbXVjo+pv1&#xA;uIre4bp/uxVc/rzhsdYNYO6GT7pPG6rHtKI83qOervJuxV2KuxV2KuxV2KuxVC6npWmarZvZalaR&#xA;XtpJ9uCdFkQ/7FgRizx5JQNxNF4p54/5xc0W853nlC6Ol3e7CxuC0lsx6gK/xSx/8N8hgp32l7en&#xA;HbKOId45/qP2PdcLzzsVdirsVdirsVdirsVdiqC1qX0tKum8UK/8H8P8c1nbOTg0mQ/0a+e36XI0&#xA;kbyx97wf85rz0PJphrvdXMUVPZayf8y84n2bx8Wpv+bEn9H6Xu+xoXmvuBeEZ371bsVdirsVWTf3&#xA;Mn+qf1YRza830H3FLobd5TtsvdstMqdRhwSmduSYRQpEKKN+57nKibdtiwxgNlTA2uxVQvGpAf8A&#xA;KIGShzcXVyrGfN9G/lVevd+QNHlc1dI3h61oIZWjX/hVGebduY+DWTA77+YBeQ1QrIXuVvL6tvFL&#xA;/vxFb7xXPS9Pk48cZfzog/MPGTjwyI7lTLmLsVdirsVdirsVdirsVdirsVdirsVdirsVdirsVdir&#xA;sVSfzVLw0rj/AL8kVfuq3/Guc77UZeHS1/OkB+n9Dn9nRvLfcHzx+e97xttJtK/CzTTP7cAqr/xN&#xA;s03srj9U5e4fe972HGuOR8niL3kxclWovYUGdsIBy56uZOx2a+uXH8/4D+mHhDH81k7/ALnfXLj+&#xA;f8B/THhC/msnf9zvrlx/P+A/pjwhfzWTv+5prqdgQW2Ox2H9MeEIOpyEUS4XU6gANQDoKD+mPCFG&#xA;pmBQP3N/XLj+f8B/THhCfzWTv+531y4/n/Af0x4Qv5rJ3/c765cfz/gP6Y8IX81k7/uWSTyyAB2q&#xA;B02H8MIADCeaU9iXvn5B3nq+ULm3LVe2vXAXfZHjRh97cs4D2qx1qBLvh+k/sdPrh6gfJ9DaFL6m&#xA;kWzeC8f+BJX+Gdb2Jk49JjPlXy2/Q8drI1lkj82rjOxV2KuxV2KuxV2KuxV2KuxV2KuxV2KuxV2K&#xA;uxV2KuxVjnnGX4LWLxLMfooB+vON9rsnpxw95+523Zcd5F8vfn3qQk8z21kjVEFqnMeDO7MfvXjm&#xA;T7LYq05l3y/U9nopcOEj+cfseX507Y7FXYq7FXYq7FXYq7FXYq7FXsP/ADjzeoLjWrIn45EgmRfZ&#xA;C6uf+HXOO9rcZ4ccu6x86/UXB1w2BfTPlOXlpjJ3jkYfQQD/ABzO9lsnFpiP5sj+gvIdpRrJfeE6&#xA;zpXXuxV2KuxV2KuxV2KuxV2KuxV2KuxV2KuxV2KuxV2KuxVi/mi2vbi+j9GCSSNIwOSIzCpJJ3A+&#xA;WcP7TafNlzx4ISlER6RJ3s/sdz2fkhGBsgG+9j8vl2SZzJLphkc9XeAsdvcrmgjotYBQhlH+bJ2I&#xA;1cBymPms/wALj/q0f9O//NuH8prf5mX5ST+cj/PH+md/hcf9Wj/p3/5tx/Ka3+Zl+Ul/OR/nj/TO&#xA;/wALj/q0f9O//NuP5TW/zMvykv5yP88f6Z3+Fx/1aP8Ap3/5tx/Ka3+Zl+Ul/OR/nj/TO/wuP+rR&#xA;/wBO/wDzbj+U1v8AMy/KS/nI/wA8f6Z3+Fx/1aP+nf8A5tx/Ka3+Zl+Ul/OR/nj/AEzv8Lj/AKtH&#xA;/Tv/AM24/lNb/My/KS/nI/zx/pnf4XH/AFaP+nf/AJtx/Ka3+Zl+Ul/OR/nj/TO/wuP+rR/07/8A&#xA;NuP5TW/zMvykv5yP88f6Z3+Fx/1aP+nf/m3H8prf5mX5SX85H+eP9MqQ+X5oGLwaa0TkULJAVNPC&#xA;oXIy0WrlsYZD/myQdVA85j5sg8vJqVrHMpgdOTx7SRv0JIYjdemdF2DDU4IzHBKNyj9UZe493J1u&#xA;tOOZG97HqE5028vbguLm3MHFVoaEVO9ev0Z0XZ2rz5SfFhwUB37ne+fwcDPihH6TaOzaOM7FXYq7&#xA;FXYq7FXYq7FX/9k=</xapGImg:image>
               </rdf:li>
            </rdf:Alt>
         </xap:Thumbnails>
      </rdf:Description>
      <rdf:Description rdf:about=""
            xmlns:xapMM="http://ns.adobe.com/xap/1.0/mm/"
            xmlns:stRef="http://ns.adobe.com/xap/1.0/sType/ResourceRef#">
         <xapMM:DocumentID>uuid:DB4A57ACEC78DD1197C19659C283F713</xapMM:DocumentID>
         <xapMM:InstanceID>uuid:DC4A57ACEC78DD1197C19659C283F713</xapMM:InstanceID>
         <xapMM:DerivedFrom rdf:parseType="Resource">
            <stRef:instanceID>uuid:5473c34b-66fb-4d09-9097-8bb636ad100c</stRef:instanceID>
            <stRef:documentID>uuid:d1ccc7b5-cb3e-4adc-9428-dae14c7d7b59</stRef:documentID>
         </xapMM:DerivedFrom>
      </rdf:Description>
      <rdf:Description rdf:about=""
            xmlns:xapTPg="http://ns.adobe.com/xap/1.0/t/pg/"
            xmlns:stDim="http://ns.adobe.com/xap/1.0/sType/Dimensions#"
            xmlns:xapG="http://ns.adobe.com/xap/1.0/g/">
         <xapTPg:MaxPageSize rdf:parseType="Resource">
            <stDim:w>612.000000</stDim:w>
            <stDim:h>792.000000</stDim:h>
            <stDim:unit>Points</stDim:unit>
         </xapTPg:MaxPageSize>
         <xapTPg:NPages>1</xapTPg:NPages>
         <xapTPg:HasVisibleTransparency>False</xapTPg:HasVisibleTransparency>
         <xapTPg:HasVisibleOverprint>False</xapTPg:HasVisibleOverprint>
         <xapTPg:PlateNames>
            <rdf:Seq>
               <rdf:li>PANTONE 121  PC</rdf:li>
               <rdf:li>PANTONE 187  PC</rdf:li>
               <rdf:li>PANTONE 123  PC</rdf:li>
               <rdf:li>PANTONE 202  PC</rdf:li>
            </rdf:Seq>
         </xapTPg:PlateNames>
         <xapTPg:SwatchGroups>
            <rdf:Seq>
               <rdf:li rdf:parseType="Resource">
                  <xapG:groupName>Default Swatch Group</xapG:groupName>
                  <xapG:groupType>0</xapG:groupType>
                  <xapG:Colorants>
                     <rdf:Seq>
                        <rdf:li rdf:parseType="Resource">
                           <xapG:swatchName>PANTONE 121  PC</xapG:swatchName>
                           <xapG:type>SPOT</xapG:type>
                           <xapG:tint>100.000000</xapG:tint>
                           <xapG:mode>RGB</xapG:mode>
                           <xapG:red>255</xapG:red>
                           <xapG:green>228</xapG:green>
                           <xapG:blue>109</xapG:blue>
                        </rdf:li>
                        <rdf:li rdf:parseType="Resource">
                           <xapG:swatchName>PANTONE 123  PC</xapG:swatchName>
                           <xapG:type>SPOT</xapG:type>
                           <xapG:tint>100.000000</xapG:tint>
                           <xapG:mode>RGB</xapG:mode>
                           <xapG:red>255</xapG:red>
                           <xapG:green>202</xapG:green>
                           <xapG:blue>56</xapG:blue>
                        </rdf:li>
                        <rdf:li rdf:parseType="Resource">
                           <xapG:swatchName>PANTONE 187  PC</xapG:swatchName>
                           <xapG:type>SPOT</xapG:type>
                           <xapG:tint>100.000000</xapG:tint>
                           <xapG:mode>RGB</xapG:mode>
                           <xapG:red>184</xapG:red>
                           <xapG:green>18</xapG:green>
                           <xapG:blue>55</xapG:blue>
                        </rdf:li>
                        <rdf:li rdf:parseType="Resource">
                           <xapG:swatchName>PANTONE 202  PC</xapG:swatchName>
                           <xapG:type>SPOT</xapG:type>
                           <xapG:tint>100.000000</xapG:tint>
                           <xapG:mode>RGB</xapG:mode>
                           <xapG:red>131</xapG:red>
                           <xapG:green>11</xapG:green>
                           <xapG:blue>44</xapG:blue>
                        </rdf:li>
                     </rdf:Seq>
                  </xapG:Colorants>
               </rdf:li>
            </rdf:Seq>
         </xapTPg:SwatchGroups>
      </rdf:Description>
   </rdf:RDF>
</x:xmpmeta>
                                                                                                    
                                                                                                    
                                                                                                    
                                                                                                    
                                                                                                    
                                                                                                    
                                                                                                    
                                                                                                    
                                                                                                    
                                                                                                    
                                                                                                    
                                                                                                    
                                                                                                    
                                                                                                    
                                                                                                    
                                                                                                    
                                                                                                    
                                                                                                    
                                                                                                    
                                                                                                    
                           
<?xpacket end="w"?>
	</metadata>
<polyline fill="#FFCA38" points="519.1953125,526.71875 215.03125,526.71875 233.9296875,400.65625 285.0625,400.65625 
	285.0625,126.0234375 233.9296875,126.0234375 215.03125,0 519.203125,0 500.2890625,126.0234375 449.1640625,126.0234375 
	449.1640625,400.65625 500.2890625,400.65625 519.1953125,526.71875 "/>
<polyline fill="#B81237" points="429.8125,420.0078125 429.8125,106.6796875 483.6171875,106.6796875 496.71875,19.359375 
	237.515625,19.359375 250.6015625,106.6796875 304.421875,106.6796875 304.421875,420.0078125 250.6015625,420.0078125 
	237.515625,507.375 496.71875,507.375 483.6171875,420.0078125 429.8125,420.0078125 "/>
<polyline fill="#830B2C" points="366.21875,63.96875 260.6796875,63.96875 250.6015625,106.6796875 304.421875,106.6796875 
	366.21875,63.96875 "/>
<polyline fill="#830B2C" points="429.8125,106.6796875 483.6171875,106.6796875 473.546875,63.96875 366.21875,63.96875 
	429.8125,106.6796875 "/>
<polyline fill="#830B2C" points="429.8125,420.0078125 429.8125,106.6796875 366.21875,63.96875 366.21875,466.5703125 
	429.8125,420.0078125 "/>
<polyline fill="#830B2C" points="474.125,466.5703125 260.1015625,466.5703125 237.515625,507.375 496.71875,507.375 
	474.125,466.5703125 "/>
<polyline fill="#830B2C" points="496.71875,507.375 474.1171875,466.5703125 483.6171875,420.0078125 496.71875,507.375 "/>
<polyline fill="#830B2C" points="483.6171875,106.6796875 473.546875,63.96875 496.71875,19.359375 483.6171875,106.6796875 "/>
<path fill="#FFCA38" d="M539.828125,526.734375l-0.375-5.9453125c-0.03125-0.78125-0.03125-1.7109375-0.078125-2.828125h-0.1015625
	c-0.265625,0.8828125-0.546875,2.0859375-0.8515625,3.015625l-1.828125,5.625h-2.0859375l-1.78125-5.7734375l-0.7421875-2.8671875
	H531.875c0,0.9375-0.03125,1.9453125-0.078125,2.828125l-0.3671875,5.9453125h-1.9453125l0.75-10.1015625h3.046875l1.71875,4.9375
	c0.2578125,0.78125,0.4453125,1.5234375,0.671875,2.5703125h0.0625l0.671875-2.4921875l1.75-5.015625h2.9375l0.75,10.1015625
	H539.828125 M528.8984375,516.6328125v1.6640625H525.65625v8.4375h-2v-8.4375h-3.1953125v-1.6640625H528.8984375z"/>
<path fill="#830B2C" d="M480.2109375,305.015625c-1.671875-0.234375-3.34375-0.453125-5.0234375-0.6796875
	c-0.125-0.0234375-8.578125-1.1796875-12.671875-1.6796875c-4.15625-0.46875-8.296875-0.9296875-12.453125-1.34375
	l-0.296875-0.890625l2.4765625,0.25c0.46875-2.875,0.9453125-5.7578125,1.4140625-8.640625
	c1.203125-7.25,2.390625-14.4921875,3.5859375-21.7265625c0.6484375-3.9453125,1.296875-7.8828125,1.953125-11.828125
	c-4.1484375-0.46875-8.3203125-0.8984375-12.484375-1.296875c-4.0546875-0.390625-8.1015625-0.765625-12.1484375-1.078125
	c-3.515625-10.5703125-7.03125-21.0859375-10.546875-31.609375c2.5703125,0.1796875,5.15625,0.359375,7.7265625,0.546875
	c10.078125,0.7890625,20.1328125,1.765625,30.1875,2.9296875c4.1015625,0.46875,8.1953125,0.96875,12.2734375,1.5234375
	c-0.578125-4.0390625-1.15625-8.078125-1.71875-12.109375c-0.5546875-3.8671875-1.109375-7.734375-1.65625-11.59375
	c3.125,0.3984375,6.2578125,0.8125,9.3828125,1.25V305.015625 M355.890625,253.5078125
	c3.6875-11.4140625,7.34375-22.796875,11.015625-34.171875C370.625,230.6875,374.359375,242.0625,378.078125,253.46875
	C370.6875,253.375,363.28125,253.390625,355.890625,253.5078125z M275.296875,302.5859375
	c-4.1015625,0.4765625-17.71875,2.3359375-19.3828125,2.5703125v-97.9765625c3.1171875-0.4453125,6.25-0.859375,9.375-1.2578125
	c-0.546875,3.859375-1.0859375,7.734375-1.6484375,11.59375l-1.734375,12.1015625
	c4.09375-0.5390625,8.1875-1.0390625,12.28125-1.53125c10.046875-1.171875,20.109375-2.15625,30.1875-2.96875
	c2.90625-0.2109375,5.8125-0.4296875,8.734375-0.625c-8.53125,25.4609375-17.078125,51.046875-25.59375,76.7734375
	C283.4375,301.6796875,279.3671875,302.1171875,275.296875,302.5859375z M655.265625,251.59375
	c11.0546875,4.1796875,22.046875,8.59375,32.953125,13.265625c-0.71875,6.640625-1.4375,13.28125-2.15625,19.9140625
	c-10.203125-4.3359375-20.46875-8.4453125-30.796875-12.3515625V251.59375z M602.578125,331.7578125
	c-3.0234375-0.9140625-6.0703125-1.8046875-9.109375-2.6875c-1.90625,14.0859375-3.8046875,28.15625-5.734375,42.25
	c51.1484375,14.3359375,101.1953125,33.7890625,149.40625,58.3515625c-0.2890625-5.28125-0.5859375-10.5625-0.875-15.84375
	c-1.046875-19.84375-2.09375-39.6953125-3.1484375-59.546875c-15.1640625-7.625-30.515625-14.7421875-46.015625-21.3515625
	c0.96875,10.2421875,1.9375,20.4765625,2.9140625,30.7265625c-11.5-4.96875-23.0859375-9.640625-34.75-14.046875V318.6875
	c10.2265625,3.859375,20.3828125,7.9375,30.484375,12.21875c1.546875-12.3515625,3.109375-24.703125,4.6640625-37.0625
	c13.5703125,5.875,27.03125,12.125,40.3515625,18.765625c1.140625-19.7265625,2.2734375-39.453125,3.3984375-59.1875
	c0.3125-3.4609375,0.6171875-6.9296875,0.9296875-10.40625c-3.5859375-1.8515625-7.1796875-3.703125-10.78125-5.5
	C682.734375,217.25,639.8671875,200.7890625,596.171875,188.03125l0.015625-0.0546875
	c-2.2265625-0.640625-4.46875-1.265625-6.703125-1.890625l-1.75-0.5234375v0.015625
	c-0.90625-0.25-1.8046875-0.515625-2.7109375-0.765625C533.59375,170.578125,481.109375,161.5234375,428.328125,157.625
	c-3.84375-0.2734375-7.65625-0.5234375-11.5-0.7578125c0.28125,3.7265625,0.5625,7.4609375,0.828125,11.1953125
	c1.1484375,15.5234375,2.28125,31.0390625,3.421875,46.5546875l0.09375,1.3515625
	c-5.8828125-17.609375-11.7734375-35.1796875-17.6640625-52.671875c-0.8203125-2.40625-1.6328125-4.8203125-2.4375-7.21875
	c-2.5703125-0.109375-5.1484375-0.1875-7.71875-0.265625c-16.5078125-0.5078125-33.0234375-0.5078125-49.53125,0
	c-2.5546875,0.0859375-5.1015625,0.1875-7.671875,0.3125c-0.8125,2.390625-1.6328125,4.8046875-2.4296875,7.203125
	c-6.359375,18.78125-12.71875,37.640625-19.0625,56.578125c0.125-1.7421875,0.2421875-3.484375,0.375-5.21875
	c1.1328125-15.515625,2.28125-31.03125,3.421875-46.546875c0.2734375-3.734375,0.546875-7.4765625,0.828125-11.21875
	c-3.8359375,0.234375-7.6640625,0.5-11.4921875,0.796875C255.015625,161.671875,202.53125,170.7890625,151.125,185.078125
	c-2.03125,0.578125-15.2734375,4.4140625-17.328125,5.03125c-29.0625,8.78125-57.75,19.21875-85.921875,31.3359375
	c-10.1484375,4.375-19.109375,10.8046875-26.65625,18.9609375c-1.4765625,1.5859375-2.765625,3.0625-4.015625,4.625
	c-9.6328125,12.0625-14.46875,24.8984375-14.46875,37.8515625v33.75c0,13.1015625,4.90625,21.296875,14.1328125,23.921875
	L18.671875,341l0.203125,0.03125c7.6796875,1.65625,17.421875-0.140625,29-5.1328125
	C62.03125,329.8125,76.328125,324.140625,90.734375,318.890625c1.078125-0.3828125,1.703125-0.46875,1.9765625-0.46875
	c0.1171875,0.234375,0.3984375,0.96875,0.3984375,2.75v21.1640625c0,1.7734375-0.296875,2.7265625-0.40625,3.0390625
	c-0.28125,0.1875-0.90625,0.5546875-1.96875,0.9453125c-11.8046875,4.296875-23.546875,8.8984375-35.1953125,13.75
	c0.5703125-4.0078125,1.15625-8.03125,1.7265625-12.03125c0.6015625-4.2734375,1.2265625-8.5234375,1.8203125-12.7890625
	c-3.9140625,1.6171875-7.84375,3.265625-11.7578125,4.96875c-11.171875,4.796875-22.25,9.875-33.25,15.2109375
	c-3.0390625,1.484375-6.078125,2.9765625-9.109375,4.5C4.734375,363.25,4.484375,366.5625,4.25,369.8828125
	c-1.140625,16.046875-2.28125,32.1015625-3.4140625,48.1484375C0.546875,421.9140625,0.28125,425.7890625,0,429.671875
	c3.5390625-1.796875,7.0859375-3.5703125,10.640625-5.328125c29.296875-14.3828125,59.25-26.9140625,89.6875-37.578125
	c11.34375-3.953125,21.125-9.4921875,28.984375-16.6015625c1.1796875-1.0625,2.1953125-2.046875,3.21875-3.0859375
	c9.9375-10.3203125,15.203125-22.546875,15.1953125-35.6640625v-35.875
	C147.734375,282.484375,142.46875,273.125,132.53125,268.796875L132.4140625,268.75l-0.125-0.0625
	c-0.8671875-0.3359375-1.7734375-0.609375-2.7109375-0.875c-8.125-2.3125-17.984375-1.578125-29.25,2.3515625
	C86.03125,275.171875,71.84375,280.5859375,57.78125,286.421875C56.75,286.84375,56.125,286.96875,55.875,286.9921875
	C55.75,286.765625,55.4609375,286.0625,55.4609375,284.25V265c0-1.6328125,0.2421875-2.5078125,0.3515625-2.8046875
	c0.265625-0.203125,0.8984375-0.6171875,1.96875-1.0625c10.25-4.2421875,20.5703125-8.2734375,30.953125-12.0859375
	c-0.5078125,3.1796875-2.8203125,18.1328125-3.5,22.4296875c4.03125-1.4921875,8.0390625-2.96875,12.0859375-4.3984375
	c10.90625-3.8671875,21.890625-7.5,32.9296875-10.875c3.1796875-0.9765625,6.359375-1.9453125,9.5625-2.875
	c0.25-3.265625,0.5-6.5390625,0.7578125-9.8125c0.59375-7.53125,1.1953125-15.0625,1.7734375-22.5859375
	c0.59375,7.8828125,1.1640625,15.7578125,1.734375,23.640625c0.234375,3.15625,0.453125,6.3046875,0.6875,9.4609375
	c3.234375-0.921875,6.46875-1.8359375,9.6796875-2.7109375c9.8359375-2.6875,19.6953125-5.1796875,29.5859375-7.4921875
	c4.03125-0.9375,8.0703125-1.84375,12.109375-2.7265625c-0.5703125-3.8359375-1.140625-7.671875-1.7109375-11.5
	c-0.5390625-3.6796875-1.078125-7.3515625-1.6328125-11.015625c3.109375-0.6953125,6.1875-1.3671875,9.296875-2.015625v97.9765625
	c-1.65625,0.359375-11.046875,2.40625-14.0625,3.078125c-0.4375,3.078125-0.875,6.15625-1.3125,9.2109375
	c-1.125,7.96875-2.265625,15.9140625-3.3828125,23.8671875l-1.75,12.328125c4.03125-0.9609375,8.0859375-1.875,12.1328125-2.78125
	c23.40625-5.1640625,46.96875-9.2734375,70.65625-12.328125c4.09375-0.53125,8.203125-1.03125,12.3125-1.5078125V346.40625
	l2.0546875-0.234375c13.6171875-1.5234375,27.265625-2.6875,40.9375-3.515625
	c2.609375-0.15625,5.2265625-0.296875,7.8515625-0.4296875c0.78125-2.46875,1.5625-4.9453125,2.34375-7.3984375
	c4.921875-15.4609375,9.84375-30.859375,14.7578125-46.2265625c0.7734375,1.1171875,1.53125,2.2265625,2.3046875,3.3515625
	c1.0625,1.5234375,2.1171875,3.0625,3.171875,4.609375c1.921875-0.046875,3.8515625-0.078125,5.78125-0.1171875
	c11.875-0.1875,23.78125-0.109375,35.65625,0.2265625c3.5625,12.5078125,7.109375,25.0390625,10.65625,37.5859375
	c0.75,2.5703125,1.4921875,5.15625,2.2421875,7.7265625c2.71875,0.1171875,5.421875,0.25,8.1328125,0.3984375
	c15.5234375,0.8359375,31.03125,2.1328125,46.484375,3.859375l0.3671875,0.0390625v0.015625
	c4.109375,0.46875,8.2109375,0.9609375,12.3203125,1.5c23.6875,3.0234375,47.2578125,7.109375,70.6640625,12.234375
	c4.0546875,0.890625,8.109375,1.8046875,12.1484375,2.765625c-0.5859375-4.1171875-1.171875-8.2265625-1.7578125-12.328125
	c-1.1171875-7.9609375-2.2578125-15.90625-3.3828125-23.859375l-1.3125-9.203125
	c-3.0390625-0.6953125-6.078125-1.375-9.1015625-2.015625c-1.6640625-0.3515625-3.3203125-0.7109375-4.96875-1.0546875V216.359375
	c3.1015625,0.65625,6.1875,1.3046875,9.296875,2c-0.5546875,3.671875-1.09375,7.34375-1.6328125,11.015625
	c-0.578125,3.8359375-1.140625,7.6640625-1.71875,11.5c4.03125,0.875,8.0859375,1.78125,12.1171875,2.71875
	c9.8984375,2.296875,19.7578125,4.78125,29.59375,7.4375c3.21875,0.890625,6.453125,1.796875,9.6796875,2.71875
	c0.21875-3.1640625,0.46875-6.3125,0.6875-9.46875c0.375-5.140625,0.75-10.2890625,1.1328125-15.421875l0.2734375,2.1953125
	c3.8984375,1.125,7.8046875,2.2734375,11.6796875,3.46875v20.828125c-3.828125-1.1640625-7.6640625-2.3046875-11.5078125-3.40625
	c1.8984375,15.9609375,3.78125,31.9296875,5.6875,47.9296875c1.9453125,0.5625,3.875,1.140625,5.8203125,1.75v30.90625
	L602.578125,331.7578125z"/>
<path fill="#FFE46D" d="M126.34375,278.1953125L124.25,277.515625c-6.5234375-1.8046875-14.453125-1.1796875-24,2.140625
	c-14.2890625,4.9921875-28.484375,10.390625-42.5625,16.203125c-4.734375,1.9609375-8.078125,1.8359375-10.109375-0.3203125
	c-1.484375-1.5546875-2.2734375-4.1796875-2.2734375-8c0-6.40625,0-12.8359375,0-19.2421875
	C45.3125,264.21875,46.25,260.6953125,48.046875,257.6953125c2.0546875-3.4296875,5.2578125-6.125,9.640625-7.9375
	C71.921875,243.875,86.28125,238.421875,100.734375,233.390625c-1.15625,7.453125-2.328125,14.90625-3.4921875,22.359375
	c10.9140625-3.84375,21.8984375-7.46875,32.9375-10.84375c1.1796875-15.078125,2.3671875-30.171875,3.5546875-45.25v-0.015625
	c-29.0703125,8.75-57.7734375,19.15625-85.953125,31.234375c-8.609375,3.6953125-15.7265625,8.8203125-21.71875,15.2265625
	c-1.0703125,1.125-2.109375,2.296875-3.1015625,3.515625C15.875,258.40625,12.484375,267.4609375,12.484375,276.96875
	c0,11.2421875,0,22.4921875,0,33.7421875c0,9.75,3.390625,15.6640625,10.2265625,17.6875l1.5078125,0.359375
	C30.375,330.125,38.1953125,328.625,47.78125,324.5234375C61.9453125,318.4375,76.25,312.796875,90.671875,307.546875
	c4.3984375-1.6015625,7.65625-1.4140625,9.75,0.40625c1.8671875,1.5859375,2.84375,4.4609375,2.84375,8.6875
	c0,7.046875,0,14.1015625,0,21.15625c0,3.8828125-0.84375,7.171875-2.40625,9.9375
	c-2.078125,3.65625-5.46875,6.359375-10.1875,8.0625c-15.8125,5.75-31.46875,11.984375-46.984375,18.734375
	c1.1796875-8.296875,2.359375-16.6015625,3.546875-24.890625C36.0625,354.4453125,24.9765625,359.5,13.96875,364.828125
	c-1.15625,16.0234375-2.28125,32.046875-3.4375,48.09375C39.8359375,398.5625,69.8125,386.078125,100.25,375.4375
	c9.609375-3.34375,17.46875-7.78125,23.75-13.484375l2.34375-2.265625c7.3828125-7.734375,10.9375-16.390625,10.9375-26.125
	c0-11.9609375,0-23.921875,0-35.890625C137.28125,287.9296875,133.7265625,281.359375,126.34375,278.1953125"/>
<path fill="#FFE46D" d="M264.328125,336.78125c-1.1484375-7.5546875-2.296875-15.09375-3.421875-22.6328125
	c-5.234375,0.6953125-10.453125,1.4296875-15.671875,2.2265625c0-39.59375,0-79.1953125,0-118.796875
	c10.75-1.640625,21.5078125-3.0546875,32.2890625-4.2578125c-1.1328125,7.8828125-2.265625,15.7578125-3.3828125,23.640625
	c10.046875-1.171875,20.109375-2.1328125,30.1875-2.9296875c1.140625-15.546875,2.28125-31.0625,3.421875-46.6015625
	c-52.7734375,3.8984375-105.265625,12.96875-156.6796875,27.1953125c1.1015625,15.140625,2.203125,30.2890625,3.328125,45.421875
	c9.8203125-2.6640625,19.6796875-5.15625,29.578125-7.4609375C182.875,225.09375,181.765625,217.609375,180.6484375,210.125
	c10.6171875-2.515625,21.2578125-4.8046875,31.9453125-6.8828125c0,39.6015625,0,79.1953125,0,118.796875
	c-5.1875,1.0078125-10.359375,2.0703125-15.53125,3.1796875c-1.1328125,7.9375-2.265625,15.875-3.3984375,23.8125
	C217.078125,343.8984375,240.640625,339.8125,264.328125,336.78125"/>
<path fill="#FFE46D" d="M341.2734375,263.6328125C349.78125,237.03125,358.28125,210.5546875,366.8125,184.21875
	c8.6328125,26.3203125,17.25,52.78125,25.890625,79.375C375.5625,263.0546875,358.4140625,263.0625,341.2734375,263.6328125
	 M412.546875,331.3984375c15.515625,0.859375,31.0234375,2.1796875,46.484375,3.921875
	c1.140625-7.5859375,2.2890625-15.171875,3.4453125-22.75c-6.71875-0.7890625-13.4375-1.484375-20.15625-2.1171875
	c-2.4609375-7.453125-4.9140625-14.90625-7.375-22.328125c2.7109375,0.21875,5.421875,0.4609375,8.1328125,0.703125
	c1.203125-7.2578125,2.390625-14.515625,3.59375-21.765625c-6.6171875-0.65625-13.234375-1.2109375-19.859375-1.6875
	c-11.15625-33.484375-22.328125-66.71875-33.5-99.7421875c-16.5-0.5234375-33.0234375-0.546875-49.53125-0.0703125l0.0390625,0.0625
	c-16.2421875,47.7265625-32.46875,95.9296875-48.671875,144.640625c-6.6328125,0.5859375-13.2734375,1.265625-19.890625,2.015625
	c1.1484375,7.59375,2.296875,15.1796875,3.4375,22.7578125c13.625-1.5078125,27.2734375-2.6484375,40.9453125-3.4609375
	c7.15625-22.6015625,14.328125-45.1328125,21.5-67.546875c4.8984375,7.078125,9.796875,14.2109375,14.7109375,21.3671875
	c14.6015625-0.2109375,29.203125-0.015625,43.8046875,0.546875c4.265625,15.1328125,8.53125,30.265625,12.8203125,45.453125"/>
<path fill="#FFE46D" d="M542.359375,349.203125c-1.125-7.9453125-2.265625-15.8828125-3.3984375-23.8203125
	C533.796875,324.265625,528.609375,323.203125,523.4375,322.1875c0-39.6015625,0-79.203125,0-118.796875
	c10.671875,2.0859375,21.3203125,4.390625,31.9296875,6.9140625c-1.1015625,7.4921875-2.21875,14.9765625-3.3359375,22.46875
	c9.90625,2.296875,19.765625,4.796875,29.5859375,7.4921875c1.1171875-15.1484375,2.234375-30.28125,3.3515625-45.421875
	c-51.421875-14.2890625-103.90625-23.40625-156.6953125-27.3515625C429.421875,183.015625,430.5625,198.5625,431.703125,214.09375
	c10.078125,0.796875,20.1484375,1.7734375,30.1875,2.9453125c-1.125-7.8828125-2.25-15.75-3.3828125-23.6328125
	c10.78125,1.2109375,21.546875,2.6484375,32.2734375,4.28125c0,39.6171875,0,79.21875,0,118.8125
	c-5.203125-0.796875-10.421875-1.546875-15.640625-2.25c-1.140625,7.5390625-2.296875,15.078125-3.4375,22.6328125
	C495.390625,339.9296875,518.9609375,344.046875,542.359375,349.203125"/>
<path fill="#FFE46D" d="M724.203125,247.7265625c-40.4765625-19.796875-82.1953125-36.0234375-124.6953125-48.6953125
	c1.0078125,7.984375,2,15.9609375,3.0078125,23.9453125C606.8203125,224.28125,611.125,225.625,615.421875,227
	c0,13.875,0,27.765625,0,41.65625c-3.3671875-1.0859375-6.75-2.140625-10.125-3.1796875
	c1.046875,8.8046875,2.078125,17.6015625,3.125,26.3984375c2.3359375,0.734375,4.671875,1.4765625,7,2.2265625
	c0,17.234375,0,34.4921875,0,51.7265625c-4.296875-1.3671875-8.6015625-2.703125-12.90625-4.0234375
	c-1.0078125,7.3984375-2,14.7734375-3.0078125,22.171875c43.3515625,12.9140625,85.875,29.53125,127.1015625,49.859375
	L726.5625,413.78125c-0.9453125-17.9609375-1.8984375-35.9296875-2.84375-53.890625
	c-8.4921875-4.140625-17.0234375-8.1328125-25.609375-11.9609375c0.953125,10.265625,1.9375,20.515625,2.890625,30.78125
	C682.5546875,370.390625,663.859375,362.8125,644.9921875,355.9375c0-17.234375,0-34.4921875,0-51.734375
	c10.6484375,3.859375,21.2421875,7.9765625,31.7734375,12.3203125c1-8.0703125,2.03125-16.1328125,3.046875-24.1796875
	c-11.5390625-4.8125-23.140625-9.3359375-34.8203125-13.5859375c0-13.875,0-27.7734375,0-41.65625
	c18.28125,6.65625,36.3984375,13.984375,54.2890625,22c-0.96875,8.90625-1.9375,17.8359375-2.8984375,26.75
	c8.375,3.7109375,16.7109375,7.5703125,24.9765625,11.578125c0.9609375-16.5703125,1.90625-33.1328125,2.859375-49.6953125"/>
<path fill="#FFCA38" d="M99.5625,291.4453125c-8.8671875,2.8046875-42.609375,15.9375-50.1328125,19.421875
	c-6.09375,2.609375-10.7734375,3.1953125-14.1640625,2.03125c-3.6875,5.265625-7.359375,10.5390625-11.046875,15.859375
	C30.375,330.125,38.1953125,328.625,47.78125,324.5234375C61.9453125,318.4375,76.25,312.796875,90.671875,307.546875
	c4.3984375-1.6015625,7.65625-1.4140625,9.75,0.40625c4.421875-5.765625,8.875-11.46875,13.328125-17.140625
	C110.125,289.4453125,105.28125,289.453125,99.5625,291.4453125"/>
<path fill="#FFCA38" d="M28.953125,271.328125c0,8.90625,0,21.328125,0,29.53125
	c0.0078125,6.609375,2.1640625,10.65625,6.3125,12.0390625c4.09375-5.8203125,8.203125-11.6015625,12.3125-17.359375
	c-1.484375-1.5546875-2.2734375-4.1796875-2.2734375-8c0-6.40625,0-12.8359375,0-19.2421875
	C45.3125,264.21875,46.25,260.6953125,48.046875,257.6953125c-3.84375-2.078125-7.6875-4.1171875-11.515625-6.1328125
	C31.3203125,257.609375,28.953125,264.6015625,28.953125,271.328125"/>
<path fill="#FFCA38" d="M126.34375,278.1953125L124.25,277.515625c-3.515625,4.421875-7.0078125,8.828125-10.5,13.296875
	c4.296875,1.609375,6.8671875,5.15625,6.8671875,9.9765625c0,12.5390625,0,25.0703125,0,37.6015625
	c-0.09375,5.1875-2.9921875,12.0390625-7.1328125,17.015625c3.4921875,2.15625,7.0078125,4.34375,10.515625,6.546875
	l2.34375-2.265625c7.3828125-7.734375,10.9375-16.390625,10.9375-26.125c0-11.9609375,0-23.921875,0-35.890625
	C137.28125,287.9296875,133.7265625,281.359375,126.34375,278.1953125"/>
<path fill="#FFCA38" d="M51.921875,240.703125c-6.6875,2.8203125-11.734375,6.609375-15.390625,10.859375
	c3.828125,2.015625,7.671875,4.0625,11.515625,6.1328125c2.0546875-3.4296875,5.2578125-6.125,9.640625-7.9375
	C71.921875,243.875,86.28125,238.421875,100.734375,233.390625c5.4375-5.71875,10.8984375-11.359375,16.359375-16.953125
	C95.109375,223.5625,73.375,231.65625,51.921875,240.703125"/>
<path fill="#FFCA38" d="M113.875,238.4453125c-5.546875,5.703125-11.0859375,11.4765625-16.609375,17.296875
	c10.921875-3.8515625,21.890625-7.46875,32.9140625-10.8359375C124.734375,242.6875,119.2890625,240.5390625,113.875,238.4453125"/>
<path fill="#FFCA38" d="M113.484375,355.40625c-2.234375,2.671875-4.8203125,4.828125-7.515625,5.84375
	c-26.3359375,8.96875-52.328125,19.328125-77.8671875,31.09375C22.21875,399.125,16.359375,405.984375,10.53125,412.921875
	C39.8359375,398.5625,69.8125,386.078125,100.25,375.4375c9.609375-3.34375,17.46875-7.78125,23.75-13.484375
	C120.4921875,359.75,116.9765625,357.5625,113.484375,355.40625"/>
<path fill="#FFCA38" d="M47.234375,349.640625c-5.59375,6.390625-11.15625,12.8671875-16.6953125,19.40625
	c-0.8203125,7.7578125-1.6328125,15.5234375-2.4375,23.296875c5.171875-6,10.3828125-11.9375,15.5859375-17.8125
	C44.8671875,366.234375,46.046875,357.9296875,47.234375,349.640625"/>
<path fill="#FFCA38" d="M117.09375,216.4375c-1.078125,7.328125-2.15625,14.671875-3.21875,22.0078125
	c5.4140625,2.09375,10.859375,4.2421875,16.3046875,6.4609375c1.1796875-15.078125,2.3671875-30.171875,3.5546875-45.25
	C128.171875,205.1953125,122.625,210.7890625,117.09375,216.4375"/>
<path fill="#FFCA38" d="M183.9765625,232.5859375C178.8046875,229.9375,173.625,227.34375,168.46875,224.78125
	c-4.6953125,5.0546875-9.390625,10.140625-14.0703125,15.265625
	C164.234375,237.3828125,174.0859375,234.890625,183.9765625,232.5859375"/>
<path fill="#FFCA38" d="M183.9765625,232.5859375C182.875,225.09375,181.765625,217.609375,180.6484375,210.125
	c-4.9609375-2.6640625-9.921875-5.28125-14.8671875-7.859375c0.90625,7.5,1.796875,15.0078125,2.6875,22.515625
	C173.625,227.34375,178.8046875,229.9375,183.9765625,232.5859375"/>
<path fill="#FFCA38" d="M228.8984375,188.734375c-21.171875,3.65625-42.2109375,8.1796875-63.1171875,13.53125
	c4.9453125,2.578125,9.90625,5.1953125,14.8671875,7.859375c10.6171875-2.515625,21.2578125-4.8046875,31.9453125-6.8828125
	C218.0234375,198.34375,223.453125,193.5078125,228.8984375,188.734375"/>
<path fill="#FFCA38" d="M228.8984375,329.875c0-47.0546875-0.0078125-94.1015625-0.0078125-141.140625
	c5.4375,2.890625,10.890625,5.8359375,16.34375,8.84375c0,39.6015625,0,79.203125,0,118.796875
	C239.78125,320.8203125,234.328125,325.3203125,228.8984375,329.875"/>
<path fill="#FFCA38" d="M274.140625,216.9609375c5.2578125-4.4609375,10.5234375-8.8828125,15.78125-13.25
	c4.8125,3.3984375,9.59375,6.8359375,14.3984375,10.3203125C294.25,214.828125,284.1875,215.7890625,274.140625,216.9609375"/>
<path fill="#FFCA38" d="M292.859375,180.2421875c4.953125-4.3203125,9.921875-8.5859375,14.890625-12.8125
	c-1.140625,15.5390625-2.28125,31.0546875-3.421875,46.6015625h-0.0078125
	c-4.8046875-3.484375-9.5859375-6.921875-14.3984375-10.3203125C290.90625,195.890625,291.875,188.0625,292.859375,180.2421875"/>
<path fill="#FFCA38" d="M228.890625,188.734375c21.21875-3.6875,42.5703125-6.515625,63.96875-8.4921875
	c-5.125,4.3046875-10.2265625,8.671875-15.3359375,13.078125c-10.78125,1.203125-21.5390625,2.625-32.2890625,4.2578125
	C239.78125,194.5703125,234.328125,191.625,228.890625,188.734375"/>
<path fill="#FFCA38" d="M264.328125,336.78125c-4.0625-3.5703125-8.1015625-7.125-12.1640625-10.6171875
	C236.625,328.390625,221.125,331.078125,205.703125,334.2109375c-4,4.9140625-8.0234375,9.8515625-12.0390625,14.8203125
	C217.078125,343.8984375,240.640625,339.8125,264.328125,336.78125"/>
<path fill="#FFCA38" d="M260.90625,314.1484375c-2.921875,3.984375-5.8359375,7.9921875-8.7421875,12.015625
	c4.0625,3.4921875,8.1015625,7.046875,12.1640625,10.6171875C263.1796875,329.2265625,262.03125,321.6875,260.90625,314.1484375"/>
<path fill="#FFCA38" d="M284.1640625,322.125c-1.8359375,4.296875-3.640625,8.609375-5.46875,12.9140625
	c13.625-1.5078125,27.2734375-2.6484375,40.9453125-3.4609375c-4.0703125-3.859375-8.125-7.703125-12.171875-11.5078125
	C299.6796875,320.640625,291.90625,321.328125,284.1640625,322.125"/>
<path fill="#FFCA38" d="M434.9453125,288.125c2.7109375,0.21875,5.421875,0.4609375,8.1328125,0.703125
	c-1.71875-3.875-3.4453125-7.7421875-5.171875-11.625c-7.984375-0.6796875-15.953125-1.265625-23.9296875-1.71875
	C420.96875,279.6015625,427.9609375,283.8203125,434.9453125,288.125"/>
<path fill="#FFCA38" d="M453.5703125,322.390625c-8.3359375-0.875-16.671875-1.640625-25.0234375-2.2734375
	c-5.34375,3.7109375-10.671875,7.46875-16,11.28125c15.515625,0.859375,31.0234375,2.1796875,46.484375,3.921875
	C457.2109375,331,455.390625,326.703125,453.5703125,322.390625"/>
<path fill="#FFCA38" d="M426.8125,265.375c-11.15625-33.484375-22.328125-66.71875-33.5-99.75
	c-3.953125,3.734375-7.90625,7.4921875-11.859375,11.2890625c10.84375,32.6328125,21.6875,65.5,32.5234375,98.5703125
	C418.2578125,272.078125,422.546875,268.703125,426.8125,265.375"/>
<path fill="#FFCA38" d="M354.5546875,176.90625C338.84375,224.15625,323.125,271.890625,307.46875,320.0703125
	c4.046875,3.8046875,8.1015625,7.6484375,12.171875,11.5078125C335.34375,282,351.078125,232.890625,366.8125,184.21875
	C362.71875,181.75,358.625,179.3046875,354.5546875,176.90625"/>
<path fill="#FFCA38" d="M413.9765625,275.484375c-18.1953125-1.0390625-36.40625-1.4609375-54.609375-1.2734375
	c-1.171875,3.7265625-2.3515625,7.4609375-3.515625,11.1875c14.6015625-0.2109375,29.203125-0.015625,43.8046875,0.546875
	C404.4296875,282.421875,409.203125,278.921875,413.9765625,275.484375"/>
<path fill="#FFCA38" d="M442.3203125,310.453125c-2.4609375-7.453125-4.9140625-14.90625-7.375-22.328125
	c-6.984375-4.3046875-13.9765625-8.5234375-20.96875-12.640625c4.8671875,14.8359375,9.7109375,29.7109375,14.5703125,44.6328125
	C433.140625,316.859375,437.7265625,313.6328125,442.3203125,310.453125"/>
<path fill="#FFCA38" d="M443.078125,288.828125c-1.71875-3.875-3.4453125-7.7421875-5.171875-11.625
	c2.9296875-3.390625,5.84375-6.7734375,8.765625-10.140625C445.46875,274.3125,444.28125,281.5703125,443.078125,288.828125"/>
<path fill="#FFCA38" d="M459.03125,335.3203125c-1.8203125-4.3203125-3.640625-8.6171875-5.4609375-12.9296875
	c2.9609375-3.2890625,5.9296875-6.5703125,8.90625-9.8203125C461.3203125,320.1484375,460.171875,327.734375,459.03125,335.3203125"
	/>
<path fill="#FFCA38" d="M354.5546875,176.90625c4.0703125,2.3984375,8.1640625,4.84375,12.2578125,7.3125
	c4.8828125-2.484375,9.75-4.921875,14.640625-7.3046875C372.484375,176.7578125,363.5078125,176.75,354.5546875,176.90625"/>
<path fill="#FFCA38" d="M461.890625,217.0390625c-5.265625-4.4609375-10.515625-8.875-15.796875-13.25
	c-4.78125,3.390625-9.5859375,6.8359375-14.3828125,10.3046875
	C441.78125,214.890625,451.8515625,215.8671875,461.890625,217.0390625"/>
<path fill="#FFCA38" d="M461.890625,217.0390625c-1.125-7.8828125-2.25-15.75-3.3828125-23.6328125
	C453.46875,189,448.421875,184.640625,443.375,180.328125c0.90625,7.828125,1.8125,15.625,2.71875,23.4609375
	C451.375,208.1640625,456.625,212.578125,461.890625,217.0390625"/>
<path fill="#FFCA38" d="M507.140625,188.859375c-21.15625-3.6953125-42.4375-6.53125-63.765625-8.53125
	c5.046875,4.3125,10.09375,8.671875,15.1328125,13.078125c10.78125,1.2109375,21.546875,2.6484375,32.2734375,4.28125
	C496.2421875,194.6875,501.703125,191.75,507.140625,188.859375"/>
<path fill="#FFCA38" d="M507.140625,330c0-47.046875,0-94.09375,0-141.140625c5.4375,4.796875,10.875,9.625,16.296875,14.53125
	c0,39.59375,0,79.1953125,0,118.796875C518.015625,324.734375,512.578125,327.34375,507.140625,330"/>
<path fill="#FFCA38" d="M552.03125,232.7734375c5.1875-2.65625,10.359375-5.2578125,15.5234375-7.7890625
	C572.25,230.03125,576.9375,235.1171875,581.625,240.265625C571.7890625,237.5703125,561.9296875,235.0703125,552.03125,232.7734375
	"/>
<path fill="#FFCA38" d="M570.421875,202.515625c4.84375-2.6015625,9.703125-5.1640625,14.546875-7.671875
	c-1.1171875,15.140625-2.234375,30.2734375-3.3515625,45.421875c-4.6796875-5.1484375-9.3671875-10.234375-14.0625-15.28125
	C568.5078125,217.4921875,569.453125,210,570.421875,202.515625"/>
<path fill="#FFCA38" d="M507.140625,188.859375c21.21875,3.703125,42.328125,8.25,63.28125,13.65625
	c-5.0078125,2.546875-10.015625,5.140625-15.046875,7.7890625c-10.6171875-2.5234375-21.265625-4.828125-31.9375-6.9140625
	C518.015625,198.484375,512.578125,193.65625,507.140625,188.859375"/>
<path fill="#FFCA38" d="M542.359375,349.203125c-4.0078125-4.984375-8.015625-9.921875-12.046875-14.828125
	c-15.4140625-3.15625-30.9140625-5.859375-46.453125-8.109375c-4.046875,3.5-8.1015625,7.046875-12.15625,10.6171875
	C495.390625,339.9296875,518.9609375,344.046875,542.359375,349.203125"/>
<path fill="#FFCA38" d="M538.9609375,325.3828125c-2.8828125,2.9765625-5.765625,5.9765625-8.6484375,8.984375
	c4.03125,4.9140625,8.0390625,9.8515625,12.046875,14.8359375
	C541.234375,341.2578125,540.09375,333.3203125,538.9609375,325.3828125"/>
<path fill="#FFCA38" d="M711.34375,253.140625c-0.90625,10.4453125-1.8203125,20.8828125-2.7265625,31.328125
	c4.2734375,4.28125,8.5234375,8.59375,12.7421875,12.9609375c0.9609375-16.5703125,1.90625-33.1328125,2.859375-49.6953125
	C719.9375,249.4921875,715.6484375,251.296875,711.34375,253.140625"/>
<path fill="#FFCA38" d="M711.34375,253.140625c-26.671875-12.46875-53.8671875-23.421875-81.4453125-32.828125
	c5.0390625,5.5390625,10.078125,11.1328125,15.09375,16.7890625c18.28125,6.65625,36.3984375,13.984375,54.2890625,22
	C703.328125,257.0703125,707.328125,255.0859375,711.34375,253.140625"/>
<path fill="#FFCA38" d="M629.8984375,220.3125c0,21.7578125,0,43.5234375,0,65.296875
	c5.0390625-2.3359375,10.078125-4.625,15.09375-6.8515625c0-13.875,0-27.7734375,0-41.65625
	C639.9765625,231.4453125,634.9375,225.8515625,629.8984375,220.3125"/>
<path fill="#FFCA38" d="M644.9921875,304.203125c10.6484375,3.859375,21.2421875,7.9765625,31.7734375,12.3203125
	c-1.5390625-5.0546875-3.078125-10.125-4.609375-15.1796875c-13.9765625-5.640625-28.0703125-10.890625-42.2578125-15.734375
	C634.9375,291.75,639.96875,297.953125,644.9921875,304.203125"/>
<path fill="#FFCA38" d="M629.8984375,285.609375c0,25.21875,0,50.453125,0,75.671875
	c5.0390625-1.828125,10.078125-3.6171875,15.09375-5.34375c0-17.234375,0-34.4921875,0-51.734375
	C639.9765625,297.953125,634.9375,291.75,629.8984375,285.609375"/>
<path fill="#FFCA38" d="M723.71875,359.890625c-4.34375,0.125-8.6640625,0.296875-13.03125,0.515625
	c0.96875,11.5859375,1.921875,23.171875,2.8828125,34.75c4.3515625,6.171875,8.6796875,12.390625,12.9921875,18.6640625
	C725.6171875,395.84375,724.6640625,377.859375,723.71875,359.890625"/>
<path fill="#FFCA38" d="M713.5703125,395.15625c-34.5859375-16.296875-70.0390625-30.015625-106.078125-41.1640625
	c-2.6640625,3.3125-5.3203125,6.6328125-7.984375,9.984375c43.3515625,12.9140625,85.8671875,29.53125,127.1015625,49.859375
	C722.28125,407.5703125,717.9375,401.3359375,713.5703125,395.15625"/>
<path fill="#FFCA38" d="M629.8984375,285.609375c-5.5703125-1.90625-11.15625-3.75-16.7734375-5.5234375
	c-1.5625,3.9375-3.125,7.8671875-4.703125,11.796875c2.3359375,0.7265625,4.671875,1.46875,7,2.21875
	C620.25,291.2109375,625.078125,288.390625,629.8984375,285.609375"/>
<path fill="#FFCA38" d="M629.8984375,220.3125c-7.484375-2.546875-14.9921875-5-22.5234375-7.328125
	c-1.625,3.3359375-3.2421875,6.65625-4.859375,9.9921875C606.8203125,224.28125,611.125,225.625,615.421875,227
	C620.25,224.71875,625.078125,222.4921875,629.8984375,220.3125"/>
<path fill="#FFCA38" d="M676.765625,316.5234375c-1.5390625-5.0546875-3.078125-10.125-4.609375-15.1796875
	c2.5546875-3.015625,5.1015625-6.015625,7.65625-9C678.796875,300.390625,677.765625,308.453125,676.765625,316.5234375"/>
<path fill="#FFCA38" d="M696.3828125,285.8515625c4.0859375-0.4921875,8.171875-0.9609375,12.234375-1.3828125
	c4.2734375,4.28125,8.5234375,8.59375,12.7421875,12.9609375C713.09375,293.421875,704.7578125,289.5625,696.3828125,285.8515625"/>
</svg>
