<?xml version="1.0" encoding="utf-8"?>
<!-- Generator: Adobe Illustrator 16.0.0, SVG Export Plug-In . SVG Version: 6.00 Build 0)  -->
<!DOCTYPE svg PUBLIC "-//W3C//DTD SVG 1.1//EN" "http://www.w3.org/Graphics/SVG/1.1/DTD/svg11.dtd">
<svg version="1.1" id="Layer_1" xmlns="http://www.w3.org/2000/svg" xmlns:xlink="http://www.w3.org/1999/xlink" x="0px" y="0px"
	 width="437.889px" height="388.494px" viewBox="0 0 437.889 388.494" enable-background="new 0 0 437.889 388.494"
	 xml:space="preserve">
<polyline fill="none" points="0,0 0,388.494 437.889,388.494 437.889,0 "/>
<path fill="#0051BA" d="M420.665,95.476c-5.391-2.039-16.526-4.86-32.502-3.779c-8.854,0.598-27.899,5.722-27.899,5.722
	s12.665,11.558,26.569,20.065c15.891,9.721,27.729,14.467,28.283,14.748c0.562,0.281,0.322,0.896-0.009,1.116
	c-0.334,0.22-8.587,2.083-20.936,5.757c-11.423,3.41-21.146,8.253-46.474,14.124c-34.579,8.007-73.532,4.166-73.594,4.113
	c-0.053-0.053-0.22,1.389-0.498,2.61c-0.281,1.222-0.776,2.558-0.721,2.61c0.053,0.053,6.434-0.167,17.514,0.255
	c14.783,0.554,18.229,2.944,19.002,6.97c0.94,4.896-3.65,8.033-3.65,8.033s16.351-0.22,19.992,11.479
	c3.196,10.248-9.829,22.509-16.283,27.123c-6.431,4.605-30.056,15.618-52.471,31.799c-14.596,10.521-35.294,29.18-35.575,29.681
	c-0.278,0.501-0.442,0.334-0.108,0.721c0.328,0.387,8.291,5.265,13.113,9.703c4.731,4.351,9.17,10.529,9.17,10.529
	s0.817-0.079,4.951-9.281c2.106-4.693,2.836-10.063,3.39-10.731c1.14-1.362,6.17-1.89,6.504-2.224s2.558-5.062,6.504-8.622
	s6.495-4.509,8.051-5.124c1.562-0.606,0.144-8.728,6.12-18.598c7.119-11.76,18.029-13.465,31.061-10.811
	c14.32,2.918,21.521,16.919,21.521,16.919s5.109-0.703,8.707,6.653c2.561,5.238,1.945,14.52-2.555,28.644
	c-2.924,9.167-11.232,28.828-26.385,45.299c-14.546,15.82-22.896,18.905-22.896,18.905s-2.88,9.439-11.065,19.617
	c-4.737,5.889-15.108,13.755-21.955,13.693c-8.745-0.097-11.171-6.803-12.838-7.857c-1.67-1.055-6.806-3.05-8.897-5.502
	c-3.015-3.524-5.555-9.396-5.555-9.396s-5.429,0.896-12.305,7.374c-12.111,11.399-8.49,15.144-9.809,15.196
	c-2.036,0.088-6.275-10.688,3.489-25.295c4.878-7.286,10.617-9.062,10.617-9.281c0-0.229-2.215-0.606-3.946-1.96
	c-1.849-1.45-2.426-2.821-2.391-2.637l-1.38-0.633c0,0,2.716,5.599,1.775,6.064c-2.525,1.239-7.992-2.224-12.788-5.133
	c-6.337-3.841-7.901-6.152-8.402-6.1c-0.495,0.062-0.923,4.562-3.709,5.062c-2.777,0.492-4.808-1.389-8.142-3.832
	c-3.337-2.443-6.519-7.638-6.519-7.638s-1.116,4.131-7.339,17.358c-6.229,13.228-10.939,16.26-15.58,16.066
	c-5.795-0.255-8.563-5.01-8.563-5.01s-19.986,9.703-41.739,12.12c-26.728,2.979-42.636-4.113-43.576-4.166
	c-0.949-0.053-5.247,2.197-16.213,2.461c-10.184,0.246-23.104-3.243-28.904-10.652c-6.105-7.805-2.473-15.24-2.473-15.24
	s-0.97-2.03-1.605-6.302c-0.398-2.672,1.254-10.055,8.836-13.685c7.395-3.533,15.012,2.109,15.012,2.109s0.94-1.274,2.109-2.215
	c1.169-0.949,2.443-1.67,2.443-1.67s-0.076-1.002-0.129-1.784c-0.056-0.773,0.023-1.441,0.023-1.441s-2.449-0.272-5.449-0.554
	s-9.17-2.004-11.558-2.505c-2.391-0.501-4.005-0.22-4.509-0.606c-0.501-0.387,1.916-2.057,5.08-3.173
	c3.173-1.107,13.351-4.948,19.881-6.548c8.367-2.039,10.008-1.23,10.008-1.23s0.387-1.837,0.891-2.892
	c0.498-1.055,0.996-2.452,0.94-2.452c-0.053,0-2.232-2.021-3.073-4.737c-0.855-2.804-0.744-2.505-0.873-6.82
	c0,0-2.168,0.554-5.229,0.22c-3.05-0.334-7.228-3.63-6.835-8.394c0.557-6.653,6.34-10.389,6.448-10.67s-2.212-0.967-7.28-3.56
	c-5.596-2.848-7.055-4.983-6.835-6.029c0.229-1.063,2.276-0.976,4.058-0.976c1.778,0,3.334,0.281,3.501,0
	c0.167-0.272-6.258-3.05-9.144-4.772c-2.897-1.723-12.023-6.548-12.539-9.062c-0.431-2.118,9.896-0.729,9.729-1.063
	s-1.702,0.396-10.116-5.054c-3.891-2.522-9.352-8.165-8.836-9.396c0.425-1.046,4.433-0.888,8.145,0.352
	c3.152,1.046,7.641,1.925,7.641,1.925s-2.777-2.452-1.948-4.447c1.301-3.12,13.315,1.898,14.01,1.002
	c0.313-0.413-2.558-2.725-6.952-7.225c-4.389-4.5-4.775-6.803-4.351-7.875c0.527-1.327,2.074-0.914,3.683-1.02
	c1.617-0.114,3.838-0.229,3.727-0.501c-0.111-0.281-5.335-9.729-6.952-12.393c-1.608-2.672-9.826-17.815-4.113-20.9
	c5.698-3.076,16.362,10.028,16.805,10.081c0.448,0.053-0.773-3.103,1.6-4.078c2.206-0.905,5.493,3.094,6.504,2.285
	c0.255-0.202-2.335-4.307-4.005-8.728c-1.603-4.254-4.6-9.58-0.744-13.474c4.354-4.386,13.816,12.138,13.816,12.138
	s-3.979-14.941-5.508-25.567c-1.441-9.976-2.537-19.248,3.551-21.788c4.017-1.679,8.232,5.001,12.015,10.389
	c3.779,5.396,7.884,17.016,8.165,17.121c0.281,0.114,0.158-8.262,3.56-8.499c1.89-0.141,3.665,5.168,5.446,10.995
	c2.112,6.917,4.389,11.013,4.617,11.013c0.22,0,0.387-8.78,0.053-17.235c-0.334-8.446-0.123-16.928,4.605-17.262
	c4.72-0.334,9.817,11.373,11.839,16.796c2.048,5.493,6.1,18.738,7.181,18.87c0.562,0.07-0.176-6.337,5.159-6.416
	c5.695-0.079,10.626,21.753,10.626,21.753s9.387-5.133,15.838-6.451c7.084-1.459,15.012-1.16,15.012-1.16s-1.834-0.949-9.562-1.951
	c-7.726-0.993-11.016-0.431-12.779-4.526c-1.652-3.823,2.912-6.688,6.17-7.567c2.487-0.677,9.167-1.187,9.782-1.626
	c0.612-0.448,0.914-3.155,1.403-4.412c0.516-1.327,1.594-3.313,1.594-3.313s-4.017,2.188-8.941,2.883
	c-5.675,0.8-8.971-0.193-9.141-0.58c-0.287-0.65,2.994-5.106,4.107-7.339c1.113-2.224,2.355-6.97,2.355-6.97s-3.094,0.8-5.045,1.134
	c-1.942,0.334-5.385,0.686-6.123,0.141c-0.645-0.475,4.189-8.2,5.956-13.685c2.499-7.77,2.979-13.922,2.979-13.922
	s-1.74,0.65-2.628,0.932s-3.806,2.109-4.359,1.608s3.718-13.729,4.553-18.229c0.835-4.509,3.665-10.107,3.665-10.107
	s-5.186,1.274-12.211-1.336c-4.33-1.608-8.707-9.325-7.38-9.237c6.724,0.448,11.669-2.206,19.441-9.562
	c5.238-4.939,16.181-21.955,19.093-24.609c4.673-4.245,10.061-3.964,10.611-4.28c1.676-0.967,4.506-15.926,28.225-24.557
	c18.659-6.785,34.928-1.521,40.096,0.343c1.081,0.387,1.749,0.123,1.749,0.123s7.532-12.366,21.231-13.034
	c12.817-0.615,27.135,9.905,27.135,9.905s4.157-5.836,18.202-1.934c7.418,2.048,18.387,12.542,18.387,12.542
	c27.668-9.369,66.902-4.28,91.819,22.456c25.477,27.343,16.207,53.367,16.207,53.367S427.04,97.875,420.665,95.476 M106.312,295.699
	c-0.448,3.05,0.536,5.555,0.272,6.899c-0.272,1.345-1.617,5.827-1.617,5.827s0.896-0.272,2.332-0.439
	c1.491-0.167,1.881-0.378,1.975-0.729c0.082-0.36-0.428-3.05-0.428-4.298c0-1.257,0.598-4.122,0.867-7.436
	c0.272-3.322-0.984-4.307-0.984-4.307S106.673,293.282,106.312,295.699z M73.793,302.423c-1.433,1.16-2.505,2.232-2.505,2.681
	c0,0.457-0.094,2.153-0.36,2.962c-0.272,0.8,0.267,3.041,0.624,3.138c0.36,0.088,1.887-0.633,3.586-1.257
	c1.705-0.624,3.762-1.705,3.762-1.705s-0.721-1.793-0.984-2.953c-0.272-1.169-0.715-3.586-0.803-4.21
	c-0.094-0.633-0.814-1.169-0.814-1.169S75.226,301.254,73.793,302.423z"/>
<path fill="#E8000D" d="M360,114.82c-0.319-0.211-5.37-1.942-9.782-4.175c-3.586-1.819-10.521-5.871-10.521-5.871
	s-1.175-0.747-2.549-0.281c-4.796,1.644-14.124,4.904-19.283,6.785c-5.273,1.925-18.735,7.928-21.41,8.895
	c-2.672,0.958-3.595,1.626-4.456,1.661c-2.285,0.079-4.228,0.694-3.067,1.406c0.202,0.123,14.704,0.211,24.398,0.018
	c11.669-0.237,27.554-0.308,28.837-0.413c1.594-0.141,4.113-1.213,9.519-3.964c5.555-2.821,6.729-2.997,7.699-3.296
	C360.861,115.119,360,114.82,360,114.82"/>
<path fill="#E8000D" d="M317.915,27.817c0,0-3.091-5.15-11.262-8.93c-5.625-2.61-9.938-3.155-12.334-2.883
	c-1.863,0.22-4.096,1.125-4.192,2.399c-0.053,0.747,1.128,1.477,2.865,2.355c2.101,1.055,3.519,1.318,3.797,1.863
	c0.272,0.545,0.773,1.811,0.319,1.863c-2.303,0.281-4.875-0.686-6.129-1.38c-3.226-1.793-10.74-7.102-16.11-10.143
	c-5.467-3.111-10.925-4.658-18.721-3.261c-9.524,1.696-15.167,11.285-15.167,11.285s6.079,3.779,9.858,5.801
	c3.519,1.89,5.024,2.496,7.77,2.769c2.742,0.272,5.414,0.264,5.625,1.081c0.176,0.694-1.257,2.399-3.322,2.417
	c-5.326,0.044-3.952,0.545-21.729-8.657c-15.782-8.165-28.916-5.757-29.186-5.713c-1.758,0.272-18.747,1.995-29.795,12.498
	c-5.953,5.651-8.147,12.023-7.98,13.122c0.299,2.004,1.289,2.461,1.942,4.245c0.58,1.573,0.554,4.544-0.343,4.395
	c-1.116-0.185-2.918-5.977-7.523-6.064c-2.487-0.044-5.994-0.158-12.861,10.731c-4.494,7.128-10.512,14.203-12.917,16.673
	c-2.405,2.479-9.088,7.98-11.212,8.771c-4.055,1.521-4.863,0.562-5.136,1.037c-0.272,0.483,1.986,3.832,8.016,4.289
	c7.857,0.598,14.15-4.359,14.499-4.175c0.135,0.07-5.297,9.211-6.773,13.228c-1.641,4.447-2.215,7.374-3.094,10.02
	c-0.817,2.479-1.292,5.08-1.819,5.95c-0.264,0.439,6.642-1.529,11.268-4.975c5.414-4.034,7.884-7.603,7.884-7.603
	s-0.369,5.81-4.975,9.352c-4.342,3.349-7.418,4.43-8.534,6.038c-0.202,0.29-0.281,6.381-1.898,11.628
	c-2.868,9.316-5.681,13.553-5.681,13.553s4.652-0.053,11.174-4.289c6.337-4.122,9.041-7.022,9.041-7.022s0.527,3.551-3.967,7.488
	c-3.756,3.296-5.47,3.867-5.856,4.377c-0.202,0.272-1.072,4.676-1.898,7.031c-1.21,3.48-3.34,6.24-3.032,6.68
	c0.346,0.483,6.407-0.738,13.333-5.511c4.632-3.19,9.812-6.521,9.812-6.521s-3.404,4.623-5.856,9.932
	c-3.023,6.548-4.544,10.16-4.166,14.44c0.026,0.246,4.257-2.127,8.086-3.445c2.953-1.02,6.472-1.96,10.45-6.442
	c2.883-3.234,6.179-7.137,6.179-7.137s-1.755,4.395-2.44,8.508c-0.68,4.122-0.779,10.213-0.275,10.767
	c0.264,0.281,10.02-5.66,13.025-9.105c4.729-5.414,8.78-12.955,8.78-12.955s0.272,0.422,0.349,0.905
	c0.064,0.483-0.858,9.976-0.557,13.456c0.363,4.192,0.577,5.3,0.876,10.714c0.079,1.441-0.091,2.487,0.249,2.689
	c0.349,0.211,0.841-0.527,2.212-1.151c1.374-0.615,10.415-3.973,15.442-8.455c8.824-7.857,10.734-12.762,10.734-12.762
	s-1.887,9.932-2.024,13.456c-0.229,5.836,0.489,15.275,1.178,15.759c0.686,0.483,3.683-2.373,7.462-4.535
	c1.854-1.063,5.432-2.944,11.382-10.995c3.744-5.054,6.483-8.622,6.923-8.745c0.451-0.123-2.432,7.611-2.455,10.151
	c-0.021,2.839,1.351,7.356,2.074,9.334c0.577,1.564,0.718,2.417,1.175,4.605c0,0,6.618-6.425,10.67-10.705
	c9.149-9.659,8.575-15.126,8.575-15.126c-13.594-1.494-26.479-5.924-34.471-8.824c-20.994-7.603-32.66-17.227-44.821-28.635
	c-7.049-6.618-9.384-13.342-7.884-16.813c0.879-2.039,2.927-2.865,2.927-2.865s-10.204-11.962-8.657-22.72
	c0.905-6.319,9.932-8.78,26.707-5.555c21.466,4.131,43.245,16.295,43.245,16.295s-8.271-5.748-11.499-10.274
	c-3.229-4.535-4.875-8.104-4.875-8.104s-5.599,0.905-11.467-0.624c-5.877-1.529-11.429-2.672-15.615-10.028
	c-1.277-2.232,0.375-1.415,2.165,0.896c0.132,0.167,1.444,1.345,3.305,1.441c2.329,0.132,9.413-0.984,19.951-10.213
	c10.969-9.606,20.335-16.831,26.851-14.291c6.53,2.54,8.859,8.648,5.019,13.658c-3.847,5.01-4.743,7.075-4.743,7.075
	s1.447,0.888,3.568,3.085c2.133,2.197,4.465,4.333,4.465,4.333s7.485-9.413,26.153-21.428
	C308.716,31.192,317.915,27.817,317.915,27.817"/>
<path fill="#E8000D" d="M287.912,288.923c-0.343,0.483-3.565,6.565-5.572,10.547c-3.419,6.794-3.902,12.709-5.027,13.052
	c-0.507,0.149-6.062-3.129-14.221-4.843c-6.363-1.327-14.95-1.608-15.24-1.661c-0.296-0.044-0.442-0.387-0.636-0.729
	s-0.539-0.932-0.639-1.081c-0.097-0.141-0.193-0.431-0.237-0.773c-0.053-0.352,0.044-1.222,0.141-1.661s4.034-8.701,4.866-11.188
	c0.829-2.496,3.026-8.552,3.712-8.947c0.686-0.387,7.154-2.584,17.856-0.431c7.685,1.538,14.558,5.616,15.34,6.979
	C288.255,288.185,288.255,288.431,287.912,288.923 M278.487,290.531c-0.393-0.396-6.885-3.234-10.948-3.955
	c-3.858-0.686-10.6-0.053-10.942,0.149c-0.343,0.193-1.96,4.737-2.593,6.592s-2.549,6.346-2.391,6.592
	c0.439,0.686,4.005-0.923,10.649,0.835c5.73,1.512,10.11,3.718,10.409,3.762c0.29,0.044,1.368-3.665,2.733-6.891
	c1.084-2.566,2.689-6.152,2.883-6.442C278.487,290.874,278.487,290.531,278.487,290.531z"/>
<path fill="#E8000D" d="M108.993,325.011c-0.539,0.439-7.567,1.222-14.713,3.524c-5.194,1.679-11.443,5.106-11.73,4.966
	c-0.284-0.141-2.534-3.999-6.577-8.464c-4.04-4.465-4.377-3.577-4.866-6.311c-0.111-0.65,1.881-2.47,5.183-4.5
	c3.302-2.021,4.978-2.698,4.978-2.698s0.791,0.492,2.449,0.686c0.967,0.105,4.154-0.853,5.212-1.881
	c1.392-1.371,2.077-2.936,2.733-2.769c0.36,0.105,0.316,0.677,0.346,1.222c0.032,0.536,2.212,2.997,3.75,3.911
	c0.659,0.387,1.506,0.053,2.874,0.501c0.439,0.149,2.408,1.556,4.356,3.507C105.943,319.667,109.216,324.835,108.993,325.011
	 M94.104,316.195c-1.503-1.617-3.645-3.814-3.984-3.867c-0.34-0.062-4.014,1.046-5.607,1.731s-6.009,2.76-6.149,2.988
	s2.364,2.927,3.955,4.869c1.494,1.802,3.847,4.324,4.104,4.386c0.255,0.053,4.298-1.74,5.947-2.276
	c1.652-0.545,5.751-2.136,5.865-2.171C98.347,321.829,95.59,317.786,94.104,316.195z"/>
<path fill="#FFC82D" d="M258.841,42.847c-1.014-2.716-4.239-3.226-5.602-3.393c-1.359-0.167-6.706,0.677-17.238,9.598
	c-10.535,8.921-13.761,11.47-16.652,12.656c-2.883,1.187-5.941,1.784-5.599,2.118c0.334,0.343,5.347,1.679,7.726,1.96
	c5.186,0.589,8.145-0.334,8.145-0.334s-0.243-7.91,3.747-11.303c6.908-5.88,19.195,0.765,19.195,0.765s4.509-5.08,5.607-7.479
	C259.523,44.464,258.841,42.847,258.841,42.847"/>
<path fill="#FFC82D" d="M354.847,98.886c0,0-2.792,0.817-4.884,1.397c-2.095,0.58-6.284,1.512-6.17,1.74
	c0.114,0.237,8.842,6.17,11.865,7.33c3.032,1.169,8.382,3.375,10.245,3.841c1.857,0.466,4.415,0.817,4.415,1.283
	s-3.489,1.854-8.142,3.841c-4.655,1.969-9.305,4.535-9.305,4.887c0,0.343,15.003,1.74,22.219,2.558
	c7.216,0.809,16.409,1.978,18.732,2.329c2.326,0.343,4.77,1.046,4.655,0.694c-0.12-0.352-0.932-0.694-3.375-1.749
	c-2.443-1.046-11.751-6.75-16.872-10.354c-5.118-3.604-13.731-10.468-17.106-12.911C357.759,101.329,354.847,98.886,354.847,98.886"
	/>
<path fill="#FFC82D" d="M267.308,103.403c-0.595-1.107-6.044-6.979-15.853-13.228c0,0,11.294,4.482,17.051-2.347
	c7.11-8.446-2.569-17.648-1.767-19.072c4.667-8.235,28.682-29.083,58.983-39.103c32.487-10.749,60.261-0.053,79.544,15.829
	c28.755,23.687,22.506,49.605,22.506,49.605s-15.885-12.059-49.562-5.695c-32.906,6.223-34.778,9.527-61.614,18.369
	c-18.193,5.985-29.73,15.952-50.795,15.354c-38.842-1.099-48.234-14.871-48.234-14.871s0.592-4.922-6.879-12.393
	c-1.825-1.828-6.29-6.627-9.943-4.588c-3.785,2.118,7.049,15.311,16.646,22.931c6.202,4.931,15.694,8.745,24.205,10.274
	c27.352,4.931,43.063,2.215,70.415,2.804c19.368,0.422,32.695-0.677,57.419,1.538c14.502,1.301,28.187,3.981,28.187,4.324
	s-6.715,2.276-14.599,4.922c-11.643,3.911-34.295,12.691-56.61,14.783c-42.513,3.99-66.056,1.187-95.599-10.705
	c-27.431-11.039-46.453-33.372-44.156-36.914c0.747-1.143,2.628-0.457,2.628-0.457s5.774,4.509,8.663,6.803
	c2.886,2.285,10.717,6.768,12.659,7.216c2.206,0.51,3.946-0.141,3.911-0.677c-0.097-1.274-0.311-1.011-5.695-3.911
	c-7.564-4.078-16.371-11.558-19.89-15.803c-2.382-2.892-13.104-18.457-6.1-22.667c12.331-7.427,55.494,12.041,58.887,13.667
	c8.93,4.263,17.209,9.589,26.276,15.873C267.993,105.267,267.724,104.186,267.308,103.403 M310.415,43.312
	c-7.289,4.017-5.438,8.78-4.626,9.457c0.809,0.677,4.236,4.21,11.654-0.457c7.418-4.658,5.3-7.884,4.535-9.062
	C320.909,41.599,317.443,39.437,310.415,43.312z"/>
<path fill="#FFC82D" d="M312.293,46.028c-2.232,1.652-4.597,3.437-3.27,4.896c1.333,1.459,4.729-0.035,6.188-0.747
	s4.38-3.076,3.401-4.57C317.733,44.279,314.528,44.385,312.293,46.028"/>
<path fill="#FFC82D" d="M332.068,273.744c-4.772,18.29-15.7,24.891-16.77,26.587c-0.835,1.318-6.521,16.084-12.252,23.238
	c-5.669,7.066-10.866,11.514-20.171,17.024c-1.644,0.984-0.188,2.259-0.252,3.085c-0.056,0.809-2.165,11.373-11.443,19.96
	c-14.188,13.14-21.29,12.322-22.292,13.324c-0.439,0.448,2.953,2.892,6.346,2.575c3.296-0.308,13.764-5.265,22.368-17.402
	c6.847-9.668,8.121-17.06,8.232-17.587c0.246-1.195,0.627-1.564,1.752-0.826c0.457,0.299,0.984,1.898,1.512,1.696
	c4.711-1.74,17.736-12.832,29.496-29.9c8.578-12.428,16.392-32.493,18.185-40.702c2.517-11.496,0.067-18.896-2.637-19.723
	C331.181,254.197,335.517,260.543,332.068,273.744"/>
<path fill="#FFC82D" d="M225.782,351.888c-1.16-0.431-5.795-0.905-11.76,5.968c-5.971,6.882-8.121,15.688-7.682,16.269
	c0.439,0.589,1.096-4.438,9.976-11.171c8.886-6.732,10.705-5.282,11.76-7.172C228.586,354.858,227.528,352.547,225.782,351.888"/>
<path fill="#FFC82D" d="M61.655,295.787c-0.211,0.053-1.125,2.312-2.25,3.006c-1.134,0.703-1.239,0.158-2.314,1.292
	c-1.078,1.134-4.518,6.188-0.27,9.844c2.312,1.986,6.724,1.397,8.438,0.809s3.085-2.874,2.367-4.307
	c-0.639-1.292-2.042-0.756-3.009-2.092c-0.967-1.345-1.181-2.962-1.828-4.359s-1.081-1.784-0.97-2.417
	C62.033,296.323,61.655,295.787,61.655,295.787"/>
<path fill="#FFC82D" d="M47.619,308.584c-1.772,0.167-4.729,0.378-10.213,1.934s-13.339,3.771-13.339,4.412
	c0,0.527,11.335,1.529,15.167,1.45c5.106-0.105,11.021-2.47,11.83-4.623C51.87,309.604,49.397,308.426,47.619,308.584"/>
<path fill="#FFC82D" d="M71.771,325.573c0,0-1.345-1.503-1.617-1.503c-0.267,0-2.039,4.79-3.973,6.618
	c-1.942,1.828-4.518,4.623-5.54,3.12c-1.025-1.512,3.703-4.14,5.215-7.479c1.506-3.331,2.575-5.537,2.684-9.193
	c0.111-3.656,0.217-3.445-0.161-3.498c-0.372-0.053-3.278,1.345-7.26,1.283c-5.382-0.07-5.484-1.608-5.968-1.714
	s-1.025,2.628-6.021,4.57c-3.92,1.512-6.935,1.292-7.585,2.048c-0.642,0.756-0.65,4.676,0.697,8.596
	c0.932,2.725,3.932,7.427,2.159,8.016c-1.863,0.633-2.373-0.809-4.254-5.37c-1.269-3.085-1.345-3.929-1.556-4.148
	c-0.22-0.211-0.973-0.316-1.348-0.105c-0.381,0.22-2.37,2.584-2.637,3.015c-0.27,0.431,1.342,2.522,1.989,3.551
	c0.647,1.02,2.101,3.647,1.45,4.729c-0.642,1.081-1.072,1.178-1.45,0.703c-0.378-0.483-2.429-6.636-8.552-10.116
	c-6.987-3.981-15.041,0.633-15.809,7.312c-0.885,7.69,6.82,15.943,20.865,20.505c15.381,4.992,24.466-1.195,24.466-1.195
	s14.309,7.796,41.522,5.001c27.85-2.865,37.377-9.791,40.444-12.103c2.962-2.232,3.331-3.604,2.953-3.498
	c-0.369,0.114-4.465,2.426-7.632-0.589c-5.701-5.405-2.423-17.147-2.959-17.587c-0.539-0.431-2.004,0.431-3.656,0.114
	c-2.804-0.545-3.762-3.234-4.307-3.173c-0.967,0.105-1.828,4.781-6.126,4.351c-3.498-0.352-5.115-3.656-4.931-9.413
	c0.158-4.86,0.677-6.724,0.677-6.724s-2.206,0-4.465,0.272c-2.259,0.264-5.054,0.809-5.054,0.809s3.445,3.498,5.596,6.451
	c2.147,2.962,4.942,7.409,4.679,8.288c-0.158,0.527-3.067-0.65-16.942,3.507c-10.919,3.27-16.295,7.031-16.67,7.137
	c-0.381,0.105-0.7-2.259-2.209-4.518c-1.5-2.259-3.009-4.412-3.223-4.412c-0.217,0-0.489,5.309-2.238,8.771
	c-1.852,3.656-3.832,6.328-4.913,5.484c-1.509-1.187,1.556-5.484,2.953-9.36C72.062,331.392,71.771,325.573,71.771,325.573"/>
<path fill="#FFC82D" d="M142.233,351.193c0,0-4.438,3.313-22.456,9.035c-9.46,2.997-20.786,4.896-38.892,3.902
	c-16.163-0.896-21.141-4.658-22.465-4.904c-1.222-0.229-8.443,5.748-26.358,0.861c-14.484-3.946-17.253-9.844-19.245-10.793
	c-0.478-0.229-3.264,11.153,18.926,17.016c6.07,1.6,17.599,0.439,22.23-0.958c3.771-1.134,4.447-1.942,4.77-1.995
	c0.539-0.097,1.269,0,1.269,0.36c0,0.369,0.044,1.002,0.044,1.002s11.347,5.08,27.861,4.808s34.037-3.586,46.925-9.668
	c6.419-3.023,6.853-3.63,7.075-4.131c0.229-0.501,0.545-1.942,0.501-2.584C142.374,352.512,142.233,351.193,142.233,351.193"/>
<path fill="#FFC82D" d="M314.956,290.654c-0.1-1.758-0.633-4.456-1.4-4.395c-1.295,0.088-0.419,6.082-1.992,11.689
	c-3.349,11.979-5.619,16.989-12.023,24.662c-11.435,13.737-23.449,16.901-23.194,17.604c0.354,0.993,2.821,2.136,2.821,2.136
	s0.158,4.359-4.928,11.689c-9.633,13.904-21.598,18.176-25.219,18.835c-1.731,0.308-6.732-0.738-11.074-4.096
	c-2.751-2.136-5.062-6.671-5.045-9.396c0.009-1.134,3.58-2.733,6.422-4.658c2.692-1.819,3.853-5.001,2.637-5.968
	c-1.412-1.125-2.977,2.382-4.945,3.621c-1.963,1.248-5.054,2.83-5.212,2.268c-0.255-0.888-0.176-1.802-1.74-3.349
	c-1.251-1.239-2.391-2.171-2.391-2.171s2.848-0.677,5.599-3.727c2.168-2.391,2.399-7.62,0-11.856
	c-2.092-3.7-6.794-6.478-7.523-6.478c-0.721,0-0.413,1.503,0.1,2.329c0.521,0.826,1.28,1.028,2.581,2.057
	c1.283,1.011,4.456,5.194,3.41,9.396c-0.686,2.751-3.12,4.79-8.083,4.579c-3.938-0.167-5.93-1.195-9.478-3.428
	c-0.404-0.255-1.02,0.149-0.401,1.626c0.437,1.02,2.291,2.76,2.291,2.76s-1.74-1.195-2.259-1.512
	c-0.519-0.308-0.896-0.65-0.896-0.65s-1.034-2.118-1.796-4.421c-0.586-1.758-0.296-5.229-0.296-5.229s4.298,1.723,8.915,3.876
	c5.432,2.522,8.54,2.9,10.025,1.96c1.485-0.949-2.145-4.975-3.665-8.455c-1.28-2.918-2.364-7.98-1.74-8.156
	c0.817-0.237,2.127,2.092,11.399,6.645c3.173,1.564,10.679,4.632,11.73,4.342c0.996-0.281,0.231-7.567-3.258-16.752
	c-1.494-3.946-7.312-9.308-6.885-10.099c0.021-0.035,3.475,0.026,3.475,0.316c0-0.053-0.026,1.011,0.463,1.459
	c0.337,0.308,2.095,1.09,3.272,0.694c1.898-0.642,5.695-1.125,16.655,0.387c10.277,1.415,18.835,8.191,18.967,6.996
	c0.466-4.21,1.898-10.986,5.194-17.561c5.001-9.984,7.989-12.261,7.714-12.858c-0.809-1.784-7.907-6.671-15.668-8.666
	c-9.053-2.329-14.212-1.389-14.625-2.118c-0.34-0.615,5.098-8.692,12.65-9.958c6.012-1.011,8.842,1.819,9.85,1.424
	c0.343-0.132-0.322-2.215-1.96-3.463c-2.672-2.03-6.258-1.802-6.258-1.802s-0.507-12.375,8.842-21.401
	c5.423-5.247,18.844-8.183,29.9-1.635c14.95,8.859,14.643,20.259,12.023,34.058c-2.065,10.837-9.281,18.132-12.744,21.015
	C314.376,295.506,315.062,292.412,314.956,290.654 M248.81,328.28c-0.36,1.336,2.417,1.661,3.313,4.122
	c0.932,2.549,0.548,4.025,0.524,4.315c-0.094,0.896-1.948,4.5,0.091,4.544c2.197,0.053,4.181-8.095,1.424-11.707
	C251.698,326.329,249.135,327.041,248.81,328.28z"/>
<path fill="#FFFFFF" d="M254.997,61.286c0,0-11.057-9.334-17.956-5.124c-7.216,4.403-2.528,16.014,4.544,23.01
	c6.926,6.855,16.289,10.67,21.199,8.438c5.704-2.593,4.477-7.646,4.477-7.646s-3.135,5.484-8.581,5.344
	c-8.44-0.22-15.22-9.958-15.22-9.958s1.312-0.475,4.181-0.932c2.303-0.369,4.257-1.02,4.257-1.02s-3.188-1.169-5.777-1.872
	c-2.663-0.712-5.405-1.582-5.405-1.582s-2.546-5.309,1.591-8.736C246.92,57.393,254.997,61.286,254.997,61.286"/>
<path fill="#FFFFFF" d="M273.709,292.289c-0.176-0.448-3.472-1.696-7.444-2.276c-3.964-0.58-6.814-0.404-7.304-0.132
	c-0.492,0.264-1.21,1.512-1.79,2.944c-0.574,1.424-1.154,3.832-1.154,4.096c0,0.272,1.38-0.483,6.773,1.028
	c5.396,1.512,7.312,1.6,7.667,1.512c0.36-0.088,1.292-2.092,1.916-3.7C272.997,294.161,273.709,292.289,273.709,292.289"/>
<path fill="#FFFFFF" d="M308.399,177.961c0,0-0.905-0.088-1.236-0.114c-0.398-0.035-1.321-0.053-1.321-0.053
	s-3.085,1.793-4.377,2.355s-3.533,1.907-3.516,2.259c0.035,0.756,1.989,0.686,7.157,1.415c5.062,0.721,8.391,2.997,8.188,4.781
	c-0.296,2.646-4.939,7.04-12.794,9c-7.852,1.951-21.044,4.614-24.926,4.658c-1.488,0.009-1.058,0.993-0.53,1.283
	c0.53,0.299,4.122,3.023,4.254,4.307c0.138,1.301-1.192,3.454-5.212,4.614c-4.605,1.327-11.502,1.494-12.858,1.424
	c-1.362-0.07-1.362,0.527-1.195,0.896c0.161,0.36,3.015,2.549,3.217,4.342c0.193,1.793-0.65,4.641-13.157,5.95
	c-19.433,2.039-25.655,2.188-25.69,2.936c-0.035,0.729,1.934,0.466,10.638,1.09c7.925,0.562,21.407-0.844,26.648-3.252
	c8.092-3.709,3.627-9.246,3.609-9.58c-0.026-0.923,8.689,0.044,11.074-0.686c3.463-1.063,6.75-4.605,5.801-7.567
	c-0.832-2.575-2.224-3.243-2.291-3.507c-0.059-0.264,8.03,0.185,18.27-2.153c6.094-1.397,14.581-5.476,17.235-10.811
	c2.124-4.271-1.028-7.919-5.537-9.079s-6.144-0.967-6.267-1.195c-0.193-0.36,1.301-0.773,2.021-1.222
	C306.864,179.271,308.399,177.961,308.399,177.961"/>
<path fill="#FFFFFF" d="M150.683,178.989c0,0,0.718-0.053,1.544-0.053c0.835,0,2.021,0.053,2.021,0.053s-3.442,2.997-1.749,5.581
	c1.696,2.575,7.178,2.751,9.835,2.856c2.569,0.097,3.519-0.439,3.762,0.026c0.281,0.527-0.879,0.993-1.485,2.215
	c-0.609,1.222-0.202,4.025,5.127,5.01c9.029,1.67,16.939,1.74,18.454,1.819c1.521,0.079,2.25,0.431,2.25,0.606
	c0,0.536-0.316,0.158-5.815,0.633c-4.699,0.404-13.137,0.483-17.109-0.299c-5.232-1.037-6.146-2.988-6.246-4.324
	c-0.079-1.063,0.334-3.059,0.202-3.208c-0.123-0.158-8.733,1.854-11.452-2.18C146.511,182.522,150.683,178.989,150.683,178.989"/>
<path fill="#FFFFFF" d="M205.928,297.29c-5.52,10.705-6.812,18.079-6.891,18.475c-0.097,0.492-2.54-2.936-2.786-8.112
	c-0.393-8.112,1.714-15.882,0-16.462c-1.626-0.562-8.402,12.7-10.257,16.365c-1.863,3.665-9.773,17.833-8.508,18.914
	c1.45,1.23,7.433-10.213,9.088-12.955c1.591-2.61,6.064-10.6,6.064-10.6s-0.149,8.745,1.318,11.628
	c1.462,2.883,3.472,6.601,5.47,6.214c2.004-0.396,0.686-1.723,1.764-4.939c1.072-3.226,6.592-15.592,8.499-18.817
	s9.088-13.781,8.895-15.39C218.426,280.301,210.955,287.543,205.928,297.29"/>
<path fill="#FFFFFF" d="M106.251,247.553c-2.347-4.228-9.381-18.07-9.8-18.114c-0.422-0.044-0.721,6.741-0.759,9.633
	c-0.041,2.892-0.129,6.829-0.334,6.952c-0.211,0.132-4.321-3.814-7.257-6.706c-2.933-2.883-6.618-6.785-7.374-8.499
	c-0.756-1.723-1.676-4.482-2.432-4.271c-1.049,0.29-1.251,3.516-1.172,7.699c0.088,4.192,0.334,5.493-0.044,5.748
	c-0.378,0.246-5.045-1.969-8.842-3.735c-4.778-2.215-11.021-6.24-11.399-6.161c-0.457,0.105,4.28,6.249,5.912,9.765
	c1.928,4.148,3.642,7.963,3.097,8.174c-0.542,0.211-3.097-0.958-6.325-2.092c-3.223-1.134-6.665-2.435-6.914-2.136
	c-0.252,0.29,3.891,4.86,5.818,7.875s2.587,3.612,2.587,4.034c0,0.413-0.527,0.949-0.946,0.993
	c-0.416,0.044-3.062,0.211-5.197,0.255s-4.564-0.176-4.86,0.079c-0.29,0.255,3.973,5.212,7.251,8.429
	c4.649,4.562,8.467,6.363,8.587,6.574c0.132,0.211-2.259,1.494-5.188,2.848c-6.413,2.979-7.626,2.479-7.758,2.979
	c-0.082,0.343,5.423,2.013,9.393,3.401c5.15,1.802,9.387,2.083,10.515,2.215c1.134,0.132-1.052,1.169-1.758,1.591
	c-0.712,0.422-2.101,1.002-2.101,1.301c0,0.58,9.457,5.256,17.373,5.933c8.3,0.721,15.683-0.378,19.717-2.496
	c0.8-0.422,0.756-1.046-0.041-1.345c-1.005-0.369-2.35,1.503-14.25,1.222c-10.6-0.255-18.185-3.103-18.521-3.48
	c-0.287-0.325,2.895-1.424,4.274-2.136c1.386-0.721,3.103-1.266,2.936-2.013c-0.193-0.844-3.091-0.677-6.079-1.011
	c-3.814-0.413-13.617-2.892-13.828-3.138c-0.211-0.255,2.93-1.767,4.482-2.646c1.556-0.879,3.059-1.846,3.521-1.925
	c0.46-0.088,1.251-0.457,1.301-0.844c0.126-1.002-0.841-1.169-1.301-1.459c-0.463-0.29-2.068-1.775-7.166-5.783
	c-3.146-2.479-6.12-5.493-6.287-5.783c-0.167-0.299,2.646-0.378,4.822-0.466c2.174-0.079,3.308-0.211,3.896-0.501
	c0.586-0.29,1.213-0.545,1.172-1.257c-0.038-0.712-1.09-2.224-2.93-4.649c-1.354-1.784-3.938-4.491-3.858-4.737
	c0.088-0.246,1.969,0.501,4.485,1.257c2.511,0.756,5.517,2.171,6.229,1.626s0.404-2.927-1.371-6.442
	c-2.47-4.904-5.197-8.332-4.904-8.543c0.29-0.211,4.658,2.593,7.55,4.184c2.886,1.591,7.787,4.228,8.332,4.14
	s1.521-2.127,1.389-4.017c-0.126-1.881-0.46-5.317-0.246-5.449c0.202-0.123,5.273,5.871,7.576,7.919
	c2.306,2.057,4.696,3.938,5.827,4.86c1.134,0.923,2.936,2.689,3.349,3.067c0.425,0.378,1.345,0.29,1.556-0.466s0.041-4.482,0-5.739
	c-0.044-1.257,0.079-4.781,0.29-4.948s2.391,4.192,4.526,7.295c1.477,2.136,4.693,7.295,5.616,8.842
	c0.923,1.556,2.408,3.568,2.897,3.27C112.623,257.889,108.507,251.622,106.251,247.553"/>
<path fill="#FFFFFF" d="M90.976,317.479c-0.686-0.888-1.679-1.907-1.907-2.057c-0.229-0.141-1.989,0.773-2.795,1.028
	c-0.791,0.255-3.182,1.116-3.354,1.31c-0.164,0.193,1.312,1.679,1.825,2.364c0.51,0.686,2.162,2.531,2.47,2.558
	c0.132,0.018,2.109-0.853,3.19-1.195c1.081-0.334,2.077-0.8,2.391-1.107C92.944,320.229,91.661,318.357,90.976,317.479"/>
<path fill="#FFFFFF" d="M110.159,287.78c-0.683-0.343-2.596-4.14-2.057-7.831c0.533-3.691,2.654-10.714,3.281-12.779
	c0.639-2.109,1.348-4.729,1.775-4.781c0.431-0.053,1.846,1.986,1.846,2.672c0,0.905-2.338,7.383-2.874,9.949
	C111.604,277.576,110.159,287.78,110.159,287.78"/>
<path fill="#0051BA" d="M290.306,368.244c1.228,0,2.37,0.308,3.428,0.932c1.066,0.615,1.904,1.45,2.52,2.514
	s0.923,2.206,0.923,3.437s-0.302,2.382-0.914,3.445c-0.618,1.055-1.456,1.89-2.517,2.505s-2.212,0.923-3.439,0.923
	c-1.242,0-2.391-0.299-3.448-0.914c-1.063-0.615-1.901-1.45-2.517-2.514c-0.612-1.063-0.92-2.215-0.92-3.445
	c0-1.239,0.308-2.382,0.923-3.445s1.459-1.898,2.522-2.514C287.927,368.552,289.072,368.244,290.306,368.244 M290.306,369.369
	c-1.567,0-2.912,0.562-4.02,1.688c-1.116,1.125-1.67,2.479-1.67,4.069s0.554,2.944,1.661,4.069c1.11,1.116,2.452,1.679,4.028,1.679
	c1.564,0,2.906-0.562,4.014-1.688s1.664-2.479,1.664-4.061c0-1.591-0.557-2.944-1.67-4.069
	C293.203,369.932,291.864,369.369,290.306,369.369z M288.756,378.853h-1.192v-7.427h2.543c0.899,0,1.532,0.07,1.901,0.22
	c0.372,0.141,0.668,0.378,0.888,0.721c0.229,0.334,0.334,0.694,0.334,1.072c0,0.571-0.193,1.046-0.58,1.433
	c-0.396,0.396-0.896,0.615-1.518,0.668c0.278,0.114,0.533,0.299,0.779,0.571c0.237,0.264,0.554,0.694,0.923,1.301l0.896,1.441
	h-1.459l-0.647-1.16c-0.469-0.835-0.838-1.371-1.102-1.617c-0.264-0.255-0.624-0.369-1.066-0.369h-0.7V378.853z M288.756,372.419
	v2.259h1.444c0.621,0,1.066-0.088,1.351-0.272c0.281-0.185,0.425-0.475,0.425-0.87c0-0.404-0.141-0.703-0.416-0.87
	c-0.272-0.158-0.756-0.246-1.447-0.246H288.756z"/>
<path fill="#FFFFFF" d="M217.037,209.092c0,0-2.083,0.062-2.106,0.062c-0.029,0-0.196-0.009-0.196-0.009
	c-4.184-0.176-6.894-0.211-8.429-0.211c-1.863,0-2.807,0.65-2.807,1.916c0,0.571,0.24,1.907,2.508,1.907
	c0.888,0,1.986,0.088,2.396,0.185c1.778,0.387,2.156,0.905,2.285,3.146c0.146,2.364,0.146,4.412,0.146,15.812v9.36
	c0,7.778-0.293,14.01-3.976,17.701c-3.331,3.322-7.734,3.683-9.472,3.683c-2.561,0-5.584-0.334-8.572-2.786
	c-3.243-2.646-5.396-6.627-5.396-17.473v-10.485c0-11.399,0-13.447,0.149-15.812c0.149-2.549,0.671-2.927,1.767-3.129
	c0.853-0.141,1.23-0.202,1.942-0.202c2.268,0,2.443-1.459,2.443-1.907c0-1.916-2.177-1.916-2.892-1.916l-5.511,0.132l-3.7,0.088
	l-14.385,0.009l-4.274-0.123l-3.46-0.105c-2.121,0-2.438,1.204-2.438,1.916c0,1.529,1.406,1.837,1.942,1.96
	c0.009,0,0.035,0.009,0.062,0.009c0.009,0.044,0.026,0.114,0.026,0.281c0,0.756-1.673,2.725-3.149,4.465l-0.316,0.369
	c-1.28,1.503-5.736,6.135-9.665,10.213c-1.614,1.67-3.085,3.199-4.228,4.395c0-0.167,0-0.589,0-0.589
	c0-11.426,0-13.482,0.149-15.847c0.149-2.558,0.677-2.936,1.767-3.138c0.832-0.141,1.222-0.211,1.881-0.211
	c2.174,0,2.285-1.591,2.285-1.907c0-1.266-0.949-1.916-2.812-1.916l-5.314,0.132l-3.773,0.097l-3.313-0.079
	c-2.145-0.07-4.802-0.149-7.204-0.149c-2.886,0-2.886,1.441-2.886,1.916c0,0.571,0.246,1.907,2.511,1.907
	c1.066,0,2.2,0.088,2.631,0.193c1.767,0.378,2.162,0.932,2.297,3.146c0.152,2.373,0.152,4.43,0.152,15.855v13.219
	c0,6.855,0,12.771-0.369,15.847c-0.296,2.145-0.612,2.953-1.201,3.067c-0.853,0.193-1.626,0.281-2.452,0.281
	c-2.268,0-2.443,1.397-2.443,1.828c0,0.598,0.267,1.986,2.739,1.986c1.726,0,3.984-0.07,5.971-0.132l3.498-0.088l3.366,0.079
	c2.188,0.062,4.904,0.141,7.444,0.141c2.537,0,2.663-1.652,2.663-1.986c0-0.879-0.694-1.828-2.215-1.828
	c-0.917,0-2.534-0.149-3.501-0.299c-0.419-0.062-1.456-0.229-1.641-2.909c-0.229-3.19-0.229-9.123-0.229-15.987c0,0,0-1.942,0-3.832
	c1.775,1.96,28.608,31.605,28.608,31.605l0.056,0.044c3.328,2.953,5.602,4.772,10.008,5.186c1.626,0.149,3.006,0.149,5.291,0.149
	h6.539c0.832,0,3.032,0,3.032-1.978c0-0.923-0.677-1.846-2.212-1.846c-0.53,0-2.007-0.36-4.529-1.362
	c-3.604-1.406-7.031-4.412-9.905-7.172c-0.062-0.062-8.701-9.439-8.701-9.439s-16.866-18.149-20.739-22.307
	c3.504-3.621,13.119-13.28,15.352-15.328c3.19-2.918,6.715-5.906,8.692-5.906c0.949,0,1.819,0.229,1.986,3.103
	c0.149,2.364,0.149,4.421,0.149,15.812v10.934c0,9.817,2.25,16.427,7.075,20.769c6.064,5.484,14.045,5.484,17.455,5.484
	c4.544,0,10.521-0.642,16.392-5.687c6.633-5.687,7.547-14.651,7.547-23.493v-8.007c0-11.399,0-13.447,0.144-15.812
	c0.149-2.549,0.677-2.927,1.767-3.129c0.853-0.141,1.23-0.202,1.942-0.202c2.25,0,2.584-1.195,2.584-1.907
	c0-1.266-0.94-1.916-2.804-1.916C221.555,208.934,218.944,209.03,217.037,209.092"/>
</svg>
