<?xml version="1.0" encoding="UTF-8" standalone="no"?>
<!-- Generator: Adobe Illustrator 16.0.0, SVG Export Plug-In . SVG Version: 6.00 Build 0)  -->

<svg
   xmlns:dc="http://purl.org/dc/elements/1.1/"
   xmlns:cc="http://creativecommons.org/ns#"
   xmlns:rdf="http://www.w3.org/1999/02/22-rdf-syntax-ns#"
   xmlns:svg="http://www.w3.org/2000/svg"
   xmlns="http://www.w3.org/2000/svg"
   xmlns:sodipodi="http://sodipodi.sourceforge.net/DTD/sodipodi-0.dtd"
   xmlns:inkscape="http://www.inkscape.org/namespaces/inkscape"
   version="1.1"
   id="Layer_1"
   x="0px"
   y="0px"
   width="400.25"
   height="293.82242"
   viewBox="0 0 400.25001 293.82242"
   enable-background="new 0 0 412.667 308"
   xml:space="preserve"
   inkscape:version="0.91 r13725"
   sodipodi:docname="KState.svg"><metadata
     id="metadata23"><rdf:RDF><cc:Work
         rdf:about=""><dc:format>image/svg+xml</dc:format><dc:type
           rdf:resource="http://purl.org/dc/dcmitype/StillImage" /><dc:title></dc:title></cc:Work></rdf:RDF></metadata><defs
     id="defs21" /><sodipodi:namedview
     pagecolor="#ffffff"
     bordercolor="#666666"
     borderopacity="1"
     objecttolerance="10"
     gridtolerance="10"
     guidetolerance="10"
     inkscape:pageopacity="0"
     inkscape:pageshadow="2"
     inkscape:window-width="1285"
     inkscape:window-height="737"
     id="namedview19"
     showgrid="false"
     fit-margin-top="0"
     fit-margin-left="0"
     fit-margin-right="0"
     fit-margin-bottom="0"
     inkscape:zoom="0.75121104"
     inkscape:cx="199.3335"
     inkscape:cy="146.07331"
     inkscape:window-x="0"
     inkscape:window-y="23"
     inkscape:window-maximized="0"
     inkscape:current-layer="Layer_1" /><g
     id="Layer_1_1_"
     transform="translate(-7,-6.2508681)" /><g
     id="Layer_2"
     transform="translate(-7,-6.2508681)"><path
       d="m 267,168.333 c 0,0 -0.75,-3.5 3.25,-15.75 0,0 -42.75,-12.75 -87.5,-12.75 -44.75,0 -120.5,17.25 -136,72.25 -15.5,55 51.25,106.5 109.5,81.5 0,0 -24.75,-27 -22.25,-54.75 2.5,-27.75 18.75,-87.5 133,-70.5 z"
       id="path5"
       inkscape:connector-curvature="0"
       style="fill:#512888" /><path
       d="m 330.833,180.5 c 0,0 -14.334,24.666 -37,23.833 C 271.167,203.5 267,183 266.5,181.333 c -0.5,-1.667 -0.5,-3.333 -3.666,-3.5 -3.166,-0.167 -7,-1.833 -22.5,-1.333 -15.5,0.5 -48.5,4.5 -62.333,35.667 -13.833,31.167 8.333,53.167 18.5,60.167 0,0 10.666,-25.334 36.5,-25.167 25.834,0.167 36,18.166 37.168,23 0,0 44,-17.166 67,-53.833 l -9.668,-10 C 327.5,206.333 337.666,179 330.833,180.5 Z"
       id="path7"
       inkscape:connector-curvature="0"
       style="fill:#512888" /><path
       d="m 52.666,17.833 c 0,0 31,33.833 61.5,37 C 144.666,58 167.667,43.667 167.5,6.5 c 0,0 99,-4.167 139.5,21.583 l 0,2.5 -28,0 c 0,0 86.75,11.75 127.25,48.5 l 1,4.5 c 0,0 -8.5,27 -30.5,57.75 l -14,-0.5 c 0,0 -10.5,20 -16.75,20.25 -6.25,0.25 3.25,-2.75 1,-17.75 -2.25,-15 -15.5,-22.25 -28.75,-22.5 -13.25,-0.25 -25.5,8 -33.25,14.5 -7.75,6.5 -7.75,15 -16.25,9.25 -8.5,-5.75 -54.75,-17.75 -96.25,-15.25 -41.5,2.5 -135,22 -165.5,85 l 0,-183.5 45.666,-13 z"
       id="path9"
       inkscape:connector-curvature="0"
       style="fill:#512888" /><path
       d="m 58,8.333 100.334,0 c 0,0 8,26.667 -23.667,37 C 103,55.666 68,26.333 58,8.333 Z"
       id="path11"
       inkscape:connector-curvature="0"
       style="fill:#512888" /><g
       id="g13"><g
         id="g15"><path
           d="m 172.198,280.922 c 1.119,0 2.212,0.291 3.278,0.873 1.066,0.582 1.897,1.415 2.492,2.499 0.595,1.083 0.893,2.213 0.893,3.39 0,1.164 -0.293,2.283 -0.879,3.358 -0.587,1.074 -1.408,1.908 -2.466,2.503 -1.058,0.594 -2.163,0.891 -3.318,0.891 -1.154,0 -2.261,-0.297 -3.318,-0.891 -1.058,-0.595 -1.881,-1.429 -2.47,-2.503 -0.589,-1.075 -0.884,-2.194 -0.884,-3.358 0,-1.177 0.299,-2.307 0.897,-3.39 0.598,-1.084 1.43,-1.917 2.496,-2.499 1.066,-0.582 2.16,-0.873 3.279,-0.873 z m 0,1.12 c -0.937,0 -1.849,0.244 -2.734,0.729 -0.888,0.486 -1.581,1.183 -2.082,2.086 -0.5,0.906 -0.751,1.848 -0.751,2.826 0,0.974 0.246,1.906 0.738,2.799 0.492,0.893 1.18,1.588 2.063,2.086 0.884,0.5 1.806,0.748 2.766,0.748 0.96,0 1.883,-0.248 2.767,-0.748 0.883,-0.498 1.569,-1.193 2.059,-2.086 0.489,-0.893 0.733,-1.825 0.733,-2.799 0,-0.979 -0.249,-1.92 -0.747,-2.826 -0.497,-0.903 -1.191,-1.6 -2.081,-2.086 -0.89,-0.485 -1.801,-0.729 -2.731,-0.729 z m -2.925,9.376 0,-7.271 2.466,0 c 0.842,0 1.452,0.066 1.829,0.201 0.377,0.135 0.677,0.368 0.901,0.703 0.224,0.334 0.336,0.689 0.336,1.065 0,0.53 -0.188,0.993 -0.562,1.388 -0.374,0.395 -0.87,0.615 -1.489,0.663 0.254,0.106 0.457,0.235 0.61,0.385 0.288,0.287 0.642,0.769 1.061,1.442 l 0.874,1.424 -1.413,0 -0.637,-1.146 c -0.501,-0.9 -0.904,-1.465 -1.211,-1.691 -0.212,-0.167 -0.521,-0.251 -0.928,-0.251 l -0.681,0 0,3.09 -1.156,-0.002 0,0 z m 1.157,-4.092 1.405,0 c 0.672,0 1.13,-0.102 1.374,-0.305 0.245,-0.203 0.367,-0.473 0.367,-0.807 0,-0.215 -0.06,-0.406 -0.177,-0.578 -0.118,-0.17 -0.281,-0.297 -0.49,-0.38 -0.21,-0.084 -0.597,-0.126 -1.162,-0.126 l -1.317,0 0,2.196 0,0 z"
           id="path17"
           inkscape:connector-curvature="0"
           style="fill:#512888" /></g></g></g></svg>