<?xml version="1.0" encoding="utf-8"?>
<!-- Generator: Adobe Illustrator 18.1.1, SVG Export Plug-In . SVG Version: 6.00 Build 0)  -->
<svg version="1.0" id="Layer_1" xmlns="http://www.w3.org/2000/svg" xmlns:xlink="http://www.w3.org/1999/xlink" x="0px" y="0px"
	 viewBox="0 0 846 570" enable-background="new 0 0 846 570" xml:space="preserve">
<g>
	<defs>
		<rect id="SVGID_1_" x="5.6" y="9.2" width="835.5" height="489.7"/>
	</defs>
	<clipPath id="SVGID_2_">
		<use xlink:href="#SVGID_1_"  overflow="visible"/>
	</clipPath>
	<path clip-path="url(#SVGID_2_)" fill="#FFFFFF" d="M342.8,25.7c-93.6-0.6-182.5,23.2-243.7,80.1c-0.3-3.8-3-29.7-3-29.7
		l-25.5,31.9l-4.6,5.8c-21.5,27-44.6,60.3-53.7,102.8c-2.4,11.1-3.6,21.8-3.6,32.6c0,20.2,4.3,40.6,13.2,63.6
		c-7.5-1.5-16.3-3.3-16.3-3.3l11.9,22.9C54,402.3,118.1,452.7,204,481.4c34.5,11.5,53.9,13,64.9,14.1
		c-66.3-24.1-111.1-71.7-139.4-116.4c5.7,1.2,11.5,2.4,11.5,2.4l-8.4-21.2c-7-17.7-10.4-40.9-10.4-59.7c0-9.6,0.8-18,2.6-23.9
		c8.8-29,80.8-60.9,123.7-55.4c-3.9,0.5-13.2,2.3-13.2,2.3s37.2,1.6,68.5,9.3s69.4,18.9,102.7,33.6c14.8,6.5,58.9,28.7,91.6,50.9
		l-5.6-9.5c0,0,2.6,0.5,9.7,5.3c10.9,7.4,22.1,21.3,22.9,24c0.1,1.8-1.3,2.3-9.3,4.1c-10.5,2.3-21.6,4.2-21.6,4.2
		s10.6,10.7,26.9,16.1c16.3,5.4,27,5.9,37.2,4.8c8.9,13.3,25.3,28,55.5,35.9c45.2,11.8,83.4,1.5,110.6-9.8
		c5.7,12.2,8.8,23.8,8.8,33.4c0,3.1-0.3,6.1-1,8.8c-2.4,9.9-20.9,25.7-33,30.3c-12.1,4.7-15.5,5.8-19.3,7.2
		c4.5,3.8,15.9,9.3,21,11.2c6.9,2.5,15.3,4,19.8,4.8c20.8,3.6,41.9,1.8,60.2-4.2c23.5-7.6,40.9-22.5,50.2-43.1
		c7.1-15.7,9.9-31.1,9.9-45.5c0-37.2-18.4-67.8-28.1-81.3c5.3-5.3,8.3-12.1,8.5-19.9c0-0.4,0-0.7,0-1.1c0-21.2-19.8-44.9-39.9-59.6
		c-5.5-23.7-19.8-47.2-44.6-73.5c-11.8-12.4-26-24.5-41-37.3c-13.8-11.7-59.1-43.1-71.2-59.8c0,0,8.4,18.7,10.9,24.2
		c-30.4-20.7-80.3-45.3-111.2-57.5l-42-16.6c0,0,10.4,13.3,18.6,23.9c-34.7-11-73.9-19.2-88.6-21.2l0.5,0.1c-31-4.6-79.1-7-94.1-6
		C322.4,11.9,332.1,18.4,342.8,25.7"/>
</g>
<g>
	<defs>
		<rect id="SVGID_3_" x="-23.6" y="-47.7" width="864.9" height="575.8"/>
	</defs>
	<clipPath id="SVGID_4_">
		<use xlink:href="#SVGID_3_"  overflow="visible"/>
	</clipPath>
	<path clip-path="url(#SVGID_4_)" fill="#FFFFFF" d="M196.6,483.2C109.8,449.9,51,395.6,18.1,332.5l0.4,0.1
		c-0.1-0.1-0.1-0.3-0.2-0.4l-10.6-2.1c33,62.9,91.7,117.1,178.1,150.2c18.3,7,32.2,11.3,44.1,14.3
		C220.4,491.8,209.7,488.2,196.6,483.2"/>
</g>
<g>
	<defs>
		<rect id="SVGID_5_" x="5.6" y="9.2" width="835.5" height="489.7"/>
	</defs>
	<clipPath id="SVGID_6_">
		<use xlink:href="#SVGID_5_"  overflow="visible"/>
	</clipPath>
	<path clip-path="url(#SVGID_6_)" fill="#EDB111" d="M130.4,239.1c4.5-3.2,9.8-6.4,15.6-9.4l3.7-5.3
		C142.2,227.4,135.8,232.6,130.4,239.1"/>
	<path clip-path="url(#SVGID_6_)" fill="#EDB111" d="M41.8,339.4c-19.4-40.7-26.3-73-18.3-110.6c9.1-42.4,33.3-75.2,51.5-97.9
		l-1.4-15.6c-17.1,22.1-50.4,59.5-61.1,111.2c-7.8,37.5-0.7,69.8,18.8,110.3L17.1,334c33.1,63.1,91.9,117.4,178.5,150.6
		c18.4,7,32.3,11.3,44.2,14.3c-9.5-2.7-20.3-6.4-33.3-11.4c-87.1-33.4-146-87.8-179-151L41.8,339.4z"/>
</g>
<g>
	<defs>
		<rect id="SVGID_7_" x="-23.6" y="-47.7" width="864.9" height="575.8"/>
	</defs>
	<clipPath id="SVGID_8_">
		<use xlink:href="#SVGID_7_"  overflow="visible"/>
	</clipPath>
	<path clip-path="url(#SVGID_8_)" fill="#003E7E" d="M120.8,365.5c-11.3-28.9-13.8-71.1-7.9-91.2c3.6-12.5,9.4-25.3,17.5-35.1
		c5.4-6.5,13.2-12.8,20.1-16.3l-4.4,6.9l-14.1,20.4c22.5-21.1,83.5-45.7,148.7-41.4c5.6,0.4,11.2,0.9,16.8,1.7l-25.9,5.7l-6.2,1.4
		c6.5-0.5,16.9,0.5,29.5,2.7c29.1,5,84,21.1,117.4,35.8c18.7,8.3,45.4,20.5,77.2,42c-3.4-6.4-6.4-12.8-9.8-18.6
		c16.5,12.5,36.7,28.8,41.4,33.8c11.3,11.9,21.1,23.5,20.6,30.4c-0.5,6.9-15.1,6.2-15.9,7c18.7,5.8,33.6,5.7,39.4,2.1
		c-8.3-9.5-11.5-19.4-12.9-32.5c-5.8-8.3-40.9-54.3-128.6-81.4c0,0,7,5.1,17.3,12.6c-15.8-7.4-34.7-15.3-52.6-21.5
		c-14.3-5-50-15-71.5-19.5l23.5-5.8c-41.8-20.3-130.4-13.2-170.8,6.6l17.6-23.2c-51.7,10.6-77.3,45.7-86.2,69.2
		c-9.8,25.6-11.2,63.2-0.3,98.2l-15.6-3.2c1.6,4.4,3.4,8.8,5.4,13l0,0c11.5,24.6,29.3,46.7,53,69.6c-28.8-17.4-56.1-43.6-76.5-69.6
		l0,0c-7.3-9.3-13.7-18.6-19-27.4l13.7,2.7c-21.4-39.2-31.8-69.8-21.1-111.6c0-0.2,0.5-1.8,0.5-2c5.5-21.4,23-52.1,37.2-70.7
		l4.5,25.6C174,69.8,288.6,44.9,425.3,68.8c-2.9-3.2-9.4-14.6-17.5-22c56.7,0.1,142.4,41,158.2,49.7l-12.4-20.1
		c42.4,18.9,86.2,42.9,114,67.7c-1.5-4-4-13.1-5-15.7c4.8,3.7,40.5,34.2,60,52.4c30.5,28.5,44.1,60.1,50.5,79.9
		c0.4-0.3-0.9-10.3-1-12.4c16.3,16.7,34.1,40.1,23.1,59.3c-0.5,0.8-1,1.6-1.5,2.4l-9.6-5.5l2.5,3.6c2.8,4.1,18.5,27.4,25.5,57.4l0,0
		c4.8,20.6,5.5,44.4-4.9,67.2c-9.6,21.1-31,34-53.4,38.3c-11.5,2.2-25.7,3.4-34.2,2c2.7,0.4,25.5-9.9,34.7-27.7
		c6.8-13.2,5.3-34.5-0.4-49.8c-3.3-8.9-7.6-18.2-12.7-26.2c-1.7-2.7-2.5-3.8-2.5-3.8c-27.3-40.1-71.4-59.8-92.8-65
		c-28.3-6.9-49.7,1.7-55.5,20.3c0,0-0.7,4.7-0.6,6.8c0.1-0.1,0.3-0.3,0.4-0.4c2.2-0.6,5-0.8,8.2-0.9c6.1-0.1,13.2,0.5,18.8,1.2
		c8.9,1,25.9,4.1,33.9,5.7c-7-3.7-27.6-9.6-35.6-10.4c-1.2-0.1-2.4-0.2-3.5-0.4c-4.8-0.5-9.2-0.7-12.8-0.3c0.5-0.2,0.8-0.3,0.8-0.3
		l2.2-2.9c9.2-9.8,26.4-10.5,41.3-6.8c17.1,4.2,47.9,17.5,71.1,42.8c-13.5,5.6-46.5,15.3-83.4,3.3c-31.2-10.2-33-29.3-33-30.2
		c-0.1,1.1-7.6,24.8,27.5,37.6c0,0,0.8,0.3,2.7,1c33.4,11.2,59.6,4.9,75-1l0,0c4.8-1.8,8.6-3.6,11.2-4.9l3.6-1.7
		c1.8,2.1,3.5,4.3,5.2,6.6c0,0,1,1.3,3.2,4.7c-23.9,10.8-61.2,21.7-106.3,9.9c-13.8-3.6-24.5-8.9-32.9-14.5l0,0
		c-20.5-14-26.6-30.4-26.7-31.3l0.2,4.5c0.1,0.8,1.1,13.5,12.2,26.8l0,0c8.2,9.8,21.9,20,44.8,26c48.3,12.6,88.2-2.2,113.4-13.8
		c10.1,17.7,19,41.4,14.2,61.1c-3,12.5-17.9,26.5-34.6,34.9c2.2,1,8.5,2.5,12.7,3.2c33.6,5.7,80.4-1.3,97.9-39.8
		c11.6-25.5,10.2-50.6,4.1-71.6l0,0c-5.8-20.1-16-36.6-23.4-46.2c-0.1-3-1.2-9.5-0.7-9.8c22.4-13-0.1-48.1-29.5-67.9
		c-4-22.4-17-45.4-42.7-72.6c-21.9-23.2-52.5-44.9-86.1-77.4c1.1,3.3,6.7,21.5,6.3,21C632.5,95,561.1,57.1,520.9,41.2
		c3.4,4.3,11,14.7,16.6,23C504.2,47,435,31.2,411.5,28c-15.7-2.7-31.7-3.1-48.9-3.9c7,4.7,16.6,12.3,22.1,16.8
		C264.9,27.4,153.5,69.5,89.1,142.6L88,128.8l-1.7-20c-3.1,4-6.8,8.5-10.8,13.5c-18.1,22.8-42.4,55.5-51.5,97.9
		c-8,37.6-1.1,69.9,18.3,110.6l-14.1-2.8c6.7,12.9,14.6,25.5,23.5,37.6l0,0.1c34.8,47,86.2,86.9,155.5,113.5
		c13,5,23.9,8.6,33.3,11.4c10.9,3.2,20,5.2,28.7,6.8c-86.2-31.3-137.2-78.4-162.1-131.6l0,0c-0.4-0.8-0.8-1.7-1.2-2.5l12.4,2.5
		 M118.4,365.5L118.4,365.5l2.7,0.6c-0.1-0.2-0.1-0.4-0.2-0.6"/>
	<path clip-path="url(#SVGID_8_)" fill="#EDB111" d="M779.9,311.4c-6.5,2.9-12.4,3.1-16.9,2.5c-11.7,1.3-21.8-2.7-22.4-2.8
		c0.1,0,5.1,0.1,11.9-1.1c-8.3-0.4-16.5-3.3-24.1-7.9c-3.8,0.1-7,0.2-10.5-0.3c11.3,9.4,19.5,17.7,25,25.3
		c14.3,17,25.4,33.9,25.4,33.9s-15.2-17-23.2-24.9c-14.1-14.1-34-28-53.1-39.5c-36.2-18.5-48.2-23.7-74.4-24.3
		c-26.6-0.5-50.3,14.4-57.2,31.6c-2.5,10.1-1.2,23,3.8,34.7l-0.2-4.2c0.1,1.2,8.7,33.2,56.3,45.6c45.1,11.8,82.4,0.9,106.3-9.9
		c-2.6-3.9-5.4-7.7-8.4-11.2l-3.6,1.7c-10.9,5.2-42.3,20.2-86.2,5.8c-16.2-5.3-24.1-12.8-27.8-19.8c-5.4-5.7-8.8-12.3-9-19.8
		c-0.5,0.1-1,0.2-1.5,0.3c-0.1,0.2-0.3,0.3-0.4,0.4c-0.1-2.1,0.6-6.9,0.6-6.9c5.8-18.5,27.2-27.2,55.5-20.3
		c22.1,5.4,68.3,26.2,95.3,68.8c5.1,8,9.4,17.3,12.7,26.2c5.7,15.3,7.2,36.6,0.4,49.8c-9.2,17.8-32.1,28.2-34.7,27.7
		c8.5,1.4,22.7,0.2,34.2-2c22.4-4.3,43.8-17.2,53.4-38.3c1.8-4,3.3-8,4.4-12C819.2,374.1,784.2,309.5,779.9,311.4"/>
	<path clip-path="url(#SVGID_8_)" fill="#EDB111" d="M787.8,279.7c-6.8-13.4-16.2-15.6-16.2-15.6l-0.4,15.7c0,0-3.6-13.6-5.6-20.2
		c-6.9-22.9-27.1-53.7-50.6-75.4c1.6,3.3,2.7,6.6,2.6,9.3c-12.7-15.6-49-45.1-49-45.1l4.5,13.7c0,0-2.4-3.1-5-6.3
		c-24.1-28.6-90.7-63.2-110.9-73.7l8.9,14.4c-1.6-0.9-3.8-2-6.6-3.5l9,15.3l-47-22.1l25.3,0.7c-7.1-3.3-15.7-7.1-25.1-11
		c-23.3-8.2-48.5-14.7-78.9-20.4c-5.4-1-10.9-1.9-16.4-2.6c4.9,3.2,13.6,15,17.6,18.8c-99.2-13.9-180.8-7.1-244.7,17.1
		c-42.2,19.5-81,49.9-116.4,93.4l-1.1-6c0,0.1-0.1,0.1-0.1,0.2l-3.4-19.6c-14.2,18.6-31.5,49.2-37.1,70.5c0,0.2-0.5,1.8-0.5,2
		c-4.8,19-5.3,35.7-2.4,51.9c4,17.5,11.9,34.6,22.4,53.9l-2.2-0.4c1.1,2.1,2.2,4.1,3.3,6.3l-10.9-2.2c18.3,28.5,47,60.1,78.8,82.3
		C109,399,94,377.1,85.1,352.4l1.1,0.2c-0.8-2-1.6-4-2.3-6.1l15.1,3.1c-1.1-4.2-2.1-8.3-2.9-12.5C89,305.9,91,274,99.8,251.6
		c7.2-18.3,36.2-59.3,84.9-72.1l-7.2,11c3.1-0.9,6.4-1.7,9.7-2.4l-11.5,15.1c40.1-16.6,96.7-22.3,165.5-2.1l-6.9,0.9
		c2.1,0.8,4.1,1.6,6,2.6l-11.8,2.9c20.8,5,46.9,12.5,58.6,16.5c12.4,4.3,27.6,11.4,42.5,19.1c-3.8-2.7-6-4.3-6-4.3
		c21.9,6.8,40.6,14.8,56.3,23l-2.7-4.9c22.5,12.4,38.9,25.7,47.3,34.4c0.1,0.1,0.1,0.1,0.2,0.2c16.4,13.7,24.9,25,27.5,28.7
		c0.7,7.3,2,13.5,4.5,19.3c-6.9-31.4,0.3-40.7,2.8-46.3c0.7-1.6,1.7-3,2.8-4.3c10.4-15.9,33.9-24.8,54-24.2
		c20.9,0.7,41.1,6.5,61.3,18.5c-3.8-4.2-4-10.1-2.7-14.4c0.2-0.6,0.4-1.2,0.7-1.8c0.2-1.2,0.5-2.4,1-3.5c1.1-2.6,3.5-4.2,5.8-5.3
		c-1.4-4.8-6.5-15-18.6-16.3c-7.8-0.8-11.5,2-11.6,2.1c0.1-0.1,2.5-4.3,6.5-6c-4.1-2.4-14.5-0.1-14.8,0c0.5-0.2,10.1-9.3,25-4.6
		c3,0.9,5.6,2.4,7.9,3.7c-2.1-2.9-3.4-4.7-3.5-4.8c1.8,0.1,12.9,3.3,19,16.1c1.4,2.9,4.8,10.3,6.7,14.3c3.4,7.2,10,17.3,16.8,24.3
		c11.1,11.3,23.3,15.3,37.2,15.2c14.2-0.1,19.4-9.5,19.4-9.9c-0.1,0.3,0.3,6.9-3.9,11.8c3.1-1.7,7-5.7,8.1-8.6
		c1.4-3.9,0.5-11.4-1-13c0.7,0.8,9.7,8.8,7.9,16.8c-0.3,1.4-0.8,3.2-2,5c1.3,0.9,2.9,2,4.6,3.2l-2.4-3.5l8,4.6
		C795.1,305.6,794.4,292.6,787.8,279.7"/>
	<path clip-path="url(#SVGID_8_)" fill="#785200" d="M682.9,259.4c-1-4.2-5.9-15.8-18.8-17.2c-7.8-0.8-11.5,2-11.6,2.1
		c0.1-0.1,2.5-4.3,6.5-6c-4.1-2.4-14.5-0.1-14.8,0c0.5-0.2,10.1-9.3,25-4.6c3,0.9,5.6,2.4,7.9,3.7c-2.1-2.9-3.4-4.7-3.5-4.8
		c1.8,0.1,12.9,3.3,19,16.1c1.4,2.9,4.8,10.3,6.7,14.3c3.4,7.2,10,17.3,16.8,24.3c9.4,9.6,19.6,13.9,31,15
		c-6.1-1.6-10.2-5.2-9.4-8.9c8.6,3.6,17,5.2,21.3-5.1c4.3-10.2,2.1-44.8-38.2-88.8c0.4,2.4,1.5,6.6,1.6,11.1
		c-10.5-14.9-31.8-37.3-45-47.5c0.6,2.6,2.7,11.4,3.8,15.1c-7-7.3-26.8-24.1-26.8-24.1l4.1,12.5c0,0-2.2-2.9-4.6-5.7
		c-22-26.1-82.8-57.7-101.2-67.3l8.1,13.1c-1.4-0.8-3.5-1.9-6.1-3.1l8.2,13.9l-42.9-20.2l23.1,0.7c-6.5-3-14.3-6.5-23-10
		c-21.2-7.4-44.3-13.4-72-18.6c-4.9-0.9-9.9-1.7-15-2.4c3.9,2.5,10.3,10.9,14.4,15.4c-42.9-6-82.4-8.1-118.7-6.7
		c68.4-0.2,192.2,35.2,242.5,69.6c41.8,28.6,34.9,35.2-9.9,15.2c-99.6-44.5-180.3-47-180.3-47L326,146.9c0,0,92.6,12.1,156.7,46.4
		c55.1,29.5,36.2,31.1-18.4,11.5c-82.1-29.4-170.7-34.6-211.5-29.3c36.3,1.3,99.9,9.6,124.8,18c-6.3,1.9-22.4,9-30.1,10.8
		c13.8-0.9,167.4,46.2,209.4,101.4c0.2-1.7,0.4-3.6,0.8-5.6c5-22.8,34.3-36,58.7-35.2c20.9,0.7,41.1,6.5,61.3,18.5
		c-3.8-4.3-4-10.1-2.7-14.4c1.1-3.8,3.6-6.6,5-6.9C681,261.1,681.9,260.1,682.9,259.4"/>
	<path clip-path="url(#SVGID_8_)" fill="#FFFFFF" d="M663,212.1c-13-0.6-24.4,5.2-31.1,13.3c-5.3,6.5-6,16.5-2.7,23.3
		c-1.2-7.3,2.3-13.9,6.4-18.9c5.4-6.5,16.5-10.7,27.5-11c12.6-0.4,27.5,3.7,35.6,14.2C692.9,220.8,681.8,213,663,212.1"/>
	<path clip-path="url(#SVGID_8_)" fill="#EDB111" d="M664.5,214.2c-13.5-0.7-25.2,5.4-32.2,13.7c-5.5,6.7-6.2,17-2.8,24.1
		c-1.2-7.5,2.4-14.4,6.7-19.6c5.6-6.7,17.1-11.1,28.5-11.4c13-0.4,28.5,3.8,36.9,14.7C695.5,223.2,684,215.1,664.5,214.2"/>
	<path clip-path="url(#SVGID_8_)" fill="#EDB111" d="M369.6,34.7c-122-8.6-219.2,24.2-281.1,86.9l1.2,13.8
		C149.4,67.5,246.9,30.3,370.8,36C370.4,35.6,370,35.1,369.6,34.7"/>
	<path clip-path="url(#SVGID_8_)" fill="#EDB111" d="M37.3,403.8c0.9,6.9,16.6,25.4,43.8,43.9c34.9,23.8,52.9,27.2,59.7,27.7
		c-25.1-11.7-41.9-21.2-59-33.1C57.6,425.7,42.1,410.3,37.3,403.8"/>
	<path clip-path="url(#SVGID_8_)" fill="#003E7E" d="M747.7,334.5c-1.8-1.9-3.5-3.7-5.3-5.6c-6.4-7-13.6-14.9-28.8-26.3
		c-0.1,0-4.8-3.5-5.2-3.7c0.3,0,0.5-0.1,0.7-0.1h0.2c4.1,0,6.4-2,8.8-4.2l0.1-0.1c-2.1-1.8-4.2-3.8-6.2-5.9c-1.3,0.5-2.6,0.8-4,0.8
		c-1.4,0-2.8-0.2-4.4-0.7c-5.3-1.7-7.8-6.4-7.4-10.1l6.6,0.9c-0.1-0.1-1.6-2.9-4.1-5.6c1-0.8,2.1-1.2,3.3-1.2c0.2,0,0.3,0,0.5,0
		c-2.2-3.7-4.3-7.3-6.5-10.5c-1.5-1-5.3-3.3-9.1-3.3c-1.5,0-2.9,0.4-4.1,1.1c-0.9-4.5-5.9-16.4-19-17.8c-1-0.1-1.9-0.2-2.8-0.2
		c-5.9,0-8.7,2.3-8.8,2.3l0-0.2c1.8-2.8,4.1-4.9,6.5-5.9c-1.2-0.6-3.1-1-5.6-1c-4.3,0-8.9,1-9.1,1.1c0-0.1,0.2-0.2,0.3-0.4
		c4.9-3.8,10.4-5.7,16.3-5.7c2.7,0,5.6,0.4,8.4,1.3c2.7,0.8,5.2,2.2,7.4,3.4l0.5,0.3c-2.1-2.9-3.4-4.6-3.5-4.7h0c1.9,0,13,3.2,19,16
		c0.6,1.3,1.7,3.6,2.8,6.1c1.3,2.9,2.8,6.1,3.8,8.2c3.2,6.8,9.7,17,16.8,24.3c10.2,10.4,21.8,15.2,36.7,15.2h0.5
		c14.3-0.1,19.4-9.7,19.4-9.8c0.1,0.1,0.1,0.2,0.1,0.4c-0.1,4.7-1.4,8.6-3.9,11.5c3.1-1.8,7-5.9,8-8.6c1.4-3.9,0.4-11.4-0.9-12.9
		c0.1,0,0.3,0.1,0.4,0.3c7.6,7.5,8.3,13.1,7.5,16.4c-0.8,3.5-2.5,7.5-8.8,10.7c-5,2.5-10.7,3.7-16.9,3.7c-5.4,0-11.1-1-16.9-2.8
		c-0.3-0.1-0.5-0.2-0.6-0.2c0-0.1,0.2-0.1,0.6-0.1h0.1c1.2,0,5.6-0.1,11.2-1.1c-8-0.3-16.1-2.9-24.1-7.8l-1.2,0
		c-1.2,0-2.4,0.1-3.6,0.1c-2.2,0-4-0.1-5.7-0.4C733,314.2,742.7,324.9,747.7,334.5L747.7,334.5z"/>
	<path clip-path="url(#SVGID_8_)" fill="#EDB111" d="M755.2,267.6c-9.5-2.3-14.9-8.7-21.4-18.7l-4.7-7.1
		c-16-23.7-28.4-31.9-37.9-35.4c6.3,0.4,25.8,7.5,42.7,32.5l4.7,7.2C745,255.8,747.8,265.8,755.2,267.6"/>
	<path clip-path="url(#SVGID_8_)" fill="#003E7E" d="M750.2,269.7c-9.5-2.3-14.9-8.7-21.4-18.7l-4.7-7.1
		c-16-23.7-28.4-31.9-37.9-35.4c6.3,0.4,25.8,7.5,42.7,32.5l4.7,7.2C739.9,257.8,742.8,267.9,750.2,269.7"/>
	<path clip-path="url(#SVGID_8_)" fill="#EDB111" d="M572.2,272.2l8.3-1.9c-32.2-24.8-73.8-47.4-116.6-63.7
		c-13.4-5.1-36.2-13.2-49.9-17.1c12.1,4,25.7,8.9,34.9,12.4C496.8,220.2,537.7,243.4,572.2,272.2"/>
	<path clip-path="url(#SVGID_8_)" fill="#003E7E" d="M682.4,286.2c-5.7-5.9-7.7-13.8-2.1-24.1c-1.4,0.2-4,3-5.1,6.9
		c-1.3,4.3-1.1,10.1,2.7,14.4c-20.3-12.1-40.4-17.8-61.3-18.5c-24.4-0.8-53.7,12.4-58.7,35.2c-2.2,10.5-0.4,17.8-0.4,17.8
		s0.8-6.1,1.6-8.7c3.6-19.2,29.4-37.5,58.7-36.9c26.5,0.5,38.4,5.9,75.7,24.9l5.9,1.3C693.6,293.9,688,289.9,682.4,286.2"/>
	<path clip-path="url(#SVGID_8_)" fill="#785200" d="M541.4,142.4l4.4-3.3c-36.2-18.5-77.4-32.4-122.4-40.7
		c-14.1-2.6-38-6.3-52.2-7.7c12.6,1.7,26.9,4,36.6,5.8C458.3,105.7,502.3,120.3,541.4,142.4"/>
	<path clip-path="url(#SVGID_8_)" fill="#003E7E" d="M64.8,104.3C47,127,17.2,161,7.6,208.5l0.7,15.3
		C17.5,179.1,46.4,127.8,64.8,104.3"/>
	<path clip-path="url(#SVGID_8_)" fill="#003E7E" d="M561.1,476.1h-2.5H176.9h-4.3l1.1-4.2l21.8-81.1l0.7-2.4h2.5h13.6l39.1-172
		l-15.5,0l-4,0l0.7-3.9l14.6-80l0.5-2.7l2.7,0l374.5-1.1l4,0l-0.7,3.9l-14.6,80l-0.5,2.7l-2.7,0l-53.3,0.2l-68.1,60.9
		c5.8,14.2,38.4,94,45.7,112h45.5h4.3l-1.1,4.2l-21.8,81.1L561.1,476.1z"/>
	<path clip-path="url(#SVGID_8_)" fill="#FFFFFF" d="M553.7,209.7l-72.5,64.8l0.9,2.1c0,0,0.6,1.6,1.8,4.4
		c8.1,19.8,40.7,99.6,45.6,111.8l0.8,2.1H576L556,469.5H181.2l20.1-74.5h16.4l42.1-185.2l-19.9,0.1l13.4-73.4l367.8-1.1l-13.4,73.4
		l-53.1,0.2L553.7,209.7"/>
	<polygon clip-path="url(#SVGID_8_)" fill="#EDB111" points="546.2,462 544.3,462 360.6,462 357.4,462 358.2,459 371.5,405.1 
		372,403.3 373.9,403.3 404.9,403.2 382.1,348.2 331.7,391.4 328.7,403.4 351.3,403.3 354.5,403.3 353.7,406.4 340.4,460.2 340,462 
		338.1,462 195.8,462 192.6,462 193.5,458.9 208,405.6 208.5,403.7 210.3,403.7 225.3,403.7 274.1,202.2 254.6,202.2 251.7,202.2 
		252.2,199.3 261.6,146.8 262,144.8 264,144.8 405.8,144.8 408.9,144.8 408.2,147.8 395.2,200.3 394.8,202.2 392.8,202.2 
		377.4,202.2 367.1,245 417.1,202.2 411.1,202.2 407.9,202.2 408.7,199.2 421.6,146.7 422.1,144.8 424,144.8 605.9,144.8 
		608.8,144.8 608.3,147.7 598.9,200.2 598.5,202.2 596.5,202.2 554,202.2 468.6,272 522.3,402.8 558.9,402.7 562.1,402.7 
		561.3,405.8 546.7,460.2 	"/>
	<polygon clip-path="url(#SVGID_8_)" fill="#003E7E" points="594.4,197.3 552.2,197.3 462.6,270.5 519,407.8 555.7,407.7 
		542.4,457.1 363.7,457.1 375.8,408.2 412.2,408.1 384,340 327.2,388.6 322.5,408.3 348.2,408.3 336.1,457.1 199.1,457.1 
		212.2,408.7 229.2,408.6 280.4,197.3 257.6,197.3 266.1,149.7 402.6,149.7 390.9,197.3 373.6,197.3 358.7,258.7 430.4,197.3 
		414.2,197.3 425.9,149.7 602.9,149.7 	"/>
	<path clip-path="url(#SVGID_8_)" fill="#003E7E" d="M578.2,474.5c-1,1-2.3,1.5-3.7,1.5c-1.5,0-2.7-0.5-3.7-1.5
		c-1-1-1.5-2.3-1.5-3.7c0-1.4,0.5-2.7,1.5-3.7c1-1,2.3-1.5,3.7-1.5c1.5,0,2.7,0.5,3.7,1.5c1,1,1.5,2.3,1.5,3.7
		C579.7,472.2,579.2,473.4,578.2,474.5 M571.3,467.5c-0.9,0.9-1.3,2-1.3,3.2c0,1.3,0.4,2.3,1.3,3.2c0.9,0.9,2,1.3,3.2,1.3
		c1.3,0,2.3-0.4,3.2-1.3c0.9-0.9,1.3-2,1.3-3.2c0-1.3-0.4-2.3-1.3-3.2c-0.9-0.9-1.9-1.3-3.2-1.3
		C573.2,466.2,572.2,466.6,571.3,467.5 M574.4,467.8c0.7,0,1.2,0.1,1.6,0.2c0.6,0.2,0.9,0.7,0.9,1.5c0,0.5-0.2,0.9-0.6,1.1
		c-0.2,0.1-0.5,0.2-0.8,0.3c0.5,0.1,0.8,0.3,1,0.6c0.2,0.3,0.3,0.6,0.3,0.9v0.4c0,0.1,0,0.3,0,0.4c0,0.2,0,0.3,0,0.3l0,0.1h-1
		c0,0,0,0,0-0.1c0,0,0,0,0-0.1l0-0.2v-0.5c0-0.7-0.2-1.1-0.5-1.3c-0.2-0.1-0.6-0.2-1.1-0.2h-0.8v2.3h-1v-5.8H574.4z M575.5,468.7
		c-0.3-0.1-0.7-0.2-1.2-0.2h-0.9v2.1h0.9c0.4,0,0.8,0,1-0.1c0.4-0.2,0.6-0.5,0.6-0.9C575.9,469.2,575.7,468.9,575.5,468.7"/>
	<path clip-path="url(#SVGID_8_)" fill="#003E7E" d="M466.4,133.9c1.3-1.1,4.9-3.7,6.8-4.7c-58.8-25.1-162.2-27.1-227.4-7
		c14.8-3.8,27.5-6,38-7.7C332.3,107.1,428.5,117.9,466.4,133.9"/>
</g>
<rect x="4.4" y="9.1" fill="none" width="835.5" height="554"/>
<rect x="4.4" y="9.1" fill="none" width="835.5" height="554"/>
<path fill-rule="evenodd" clip-rule="evenodd" fill="#003E7E" d="M516.4,533.5h-14.6l12.6-24.6L516.4,533.5z M488,559.7l6-11.6h24.3
	l0.5,11.6h21.7l-10-68.5H507l-40.5,68.5H488z"/>
<g>
	<defs>
		<rect id="SVGID_9_" x="4.4" y="9.1" width="835.5" height="554"/>
	</defs>
	<clipPath id="SVGID_10_">
		<use xlink:href="#SVGID_9_"  overflow="visible"/>
	</clipPath>
	<path clip-path="url(#SVGID_10_)" fill="none" stroke="#EDB111" stroke-width="3.8418" d="M516.4,533.5h-14.6l12.6-24.6
		L516.4,533.5z M488,559.7l6-11.6h24.3l0.5,11.6h21.7l-10-68.5H507l-40.5,68.5H488z"/>
</g>
<polygon fill="#003E7E" points="539.9,507.5 543.8,491.2 660.3,491.2 657.3,505.4 621.9,505.4 619.4,517 652,517 648.9,530.3 
	616.2,530.3 613.6,543.7 650.3,543.7 646.8,559.7 589.6,559.7 600.9,507.5 581.9,507.5 570.9,559.7 549.9,559.7 560.9,507.5 "/>
<g>
	<defs>
		<rect id="SVGID_11_" x="4.4" y="9.1" width="835.5" height="554"/>
	</defs>
	<clipPath id="SVGID_12_">
		<use xlink:href="#SVGID_11_"  overflow="visible"/>
	</clipPath>
	<polygon clip-path="url(#SVGID_12_)" fill="none" stroke="#EDB111" stroke-width="3.8418" points="539.9,507.5 543.8,491.2 
		660.3,491.2 657.3,505.4 621.9,505.4 619.4,517 652,517 648.9,530.3 616.2,530.3 613.6,543.7 650.3,543.7 646.8,559.7 589.6,559.7 
		600.9,507.5 581.9,507.5 570.9,559.7 549.9,559.7 560.9,507.5 	"/>
</g>
<path fill="#003E7E" d="M408.3,507.4c0.1-2.4-0.7-3.1-2.2-3.9c-1.4-0.8-3.3-1.2-5.5-1.2c-4.9,0-7.3,2.4-8,4.8
	c-3.5,11.3,39.1,2.9,33.2,29.9c-3.5,15.9-17.7,24.2-36.5,24.2c-18.1,0-28-11.2-25.8-23.6H385c-0.1,2.5,0.9,6.5,2.5,7.7
	c1.6,1.1,3.8,1.7,6,1.7c5.6,0,10.2-1.8,11.1-5c4.8-17.3-38.1-6-32.4-32.2c3.2-14.6,16-20.1,33.1-20.1c14.2,0,20.5,3.2,22.4,9.8
	l2-8.3h62.8l-3.9,16.3h-20.8l-11,52.2h-21.1l11-52.2L408.3,507.4z"/>
<g>
	<defs>
		<rect id="SVGID_13_" x="4.4" y="9.1" width="835.5" height="554"/>
	</defs>
	<clipPath id="SVGID_14_">
		<use xlink:href="#SVGID_13_"  overflow="visible"/>
	</clipPath>
	<path clip-path="url(#SVGID_14_)" fill="none" stroke="#EDB111" stroke-width="3.8418" d="M408.3,507.4c0.1-2.4-0.7-3.1-2.2-3.9
		c-1.4-0.8-3.3-1.2-5.5-1.2c-4.9,0-7.3,2.4-8,4.8c-3.5,11.3,39.1,2.9,33.2,29.9c-3.5,15.9-17.7,24.2-36.5,24.2
		c-18.1,0-28-11.2-25.8-23.6H385c-0.1,2.5,0.9,6.5,2.5,7.7c1.6,1.1,3.8,1.7,6,1.7c5.6,0,10.2-1.8,11.1-5c4.8-17.3-38.1-6-32.4-32.2
		c3.2-14.6,16-20.1,33.1-20.1c14.2,0,20.5,3.2,22.4,9.8l2-8.3h62.8l-3.9,16.3h-20.8l-11,52.2h-21.1l11-52.2L408.3,507.4z"/>
</g>
<path fill-rule="evenodd" clip-rule="evenodd" fill="#003E7E" d="M274.7,491.2l-7.8,38.3l-18.1-38.3H145.4l-24.6,23.4l5.7-23.4
	h-22.2l-15.8,68.5h22.4l3.8-17.9l12.8-10.1l7.6,28h99.6l7.9-38l17.8,38h19.9l11.3-52.2h18.3l-11,52.2h21.1l11-52.2h20.8l3.9-16.3
	H274.7z M159.5,553.5l-13.1-36.3l25.8-22.2L159.5,553.5z M217.9,543.7h-35.8l2.7-13.4h32.6l3.1-13.3H188l2.5-11.5h35.8L217.9,543.7z
	"/>
<g>
	<defs>
		<rect id="SVGID_15_" x="-335.2" y="-199.7" width="1537.3" height="1019.3"/>
	</defs>
	<clipPath id="SVGID_16_">
		<use xlink:href="#SVGID_15_"  overflow="visible"/>
	</clipPath>
	<path clip-path="url(#SVGID_16_)" fill="none" stroke="#EDB111" stroke-width="3.8418" d="M274.7,491.2l-7.8,38.3l-18.1-38.3H145.4
		l-24.6,23.4l5.7-23.4h-22.2l-15.8,68.5h22.4l3.8-17.9l12.8-10.1l7.6,28h99.6l7.9-38l17.8,38h19.9l11.3-52.2h18.3l-11,52.2h21.1
		l11-52.2h20.8l3.9-16.3H274.7z M159.5,553.5l-13.1-36.3l25.8-22.2L159.5,553.5z M217.9,543.7h-35.8l2.7-13.4h32.6l3.1-13.3H188
		l2.5-11.5h35.8L217.9,543.7z"/>
</g>
<path fill="#003E7E" d="M668.1,556.3c-1,1-2.3,1.5-3.7,1.5s-2.7-0.5-3.7-1.5c-1-1-1.5-2.3-1.5-3.7c0-1.4,0.5-2.7,1.5-3.7
	s2.3-1.5,3.7-1.5c1.5,0,2.7,0.5,3.7,1.5c1,1,1.5,2.3,1.5,3.7C669.6,554,669.1,555.2,668.1,556.3 M661.2,549.3
	c-0.9,0.9-1.3,2-1.3,3.2s0.4,2.3,1.3,3.2c0.9,0.9,2,1.3,3.2,1.3s2.3-0.4,3.2-1.3c0.9-0.9,1.3-2,1.3-3.2s-0.4-2.3-1.3-3.2
	c-0.9-0.9-1.9-1.3-3.2-1.3C663.1,548,662,548.4,661.2,549.3 M664.3,549.6c0.7,0,1.2,0.1,1.6,0.2c0.6,0.2,0.9,0.7,0.9,1.5
	c0,0.5-0.2,0.9-0.6,1.1c-0.2,0.1-0.5,0.2-0.8,0.3c0.5,0.1,0.8,0.3,1,0.6c0.2,0.3,0.3,0.6,0.3,0.9v0.4c0,0.1,0,0.3,0,0.4
	c0,0.2,0,0.3,0,0.3l0,0.1h-1c0,0,0,0,0-0.1c0,0,0,0,0-0.1l0-0.2v-0.5c0-0.7-0.2-1.1-0.5-1.3c-0.2-0.1-0.6-0.2-1.1-0.2h-0.8v2.3h-1
	v-5.8H664.3z M665.4,550.5c-0.3-0.1-0.7-0.2-1.2-0.2h-0.9v2.1h0.9c0.4,0,0.8,0,1-0.1c0.4-0.2,0.6-0.5,0.6-0.9
	C665.7,551,665.6,550.7,665.4,550.5"/>
</svg>
