<svg xmlns="http://www.w3.org/2000/svg" width="821" height="671" viewBox="0 0 821 671"><path style="line-height:normal;text-indent:0;text-align:start;text-decoration-line:none;text-decoration-style:solid;text-decoration-color:#000000;text-transform:none;block-progression:tb;isolation:auto;mix-blend-mode:normal" d="M1.493 1.842v118.953l22.74.522 21.768.498.466 111.23.47 111.924 37.81 37.84 37.808 37.84H226.747v133.427h-45.414v119.078H449.368V554.077H405.77v-29.88h81.901l25.764 25.716 25.762 25.717v97.525h282.566V554.077h-66.575l-53.908-53.885-53.7-53.678 50.044-50.066 50.252-50.275h73.887V225.28H583.74l.48-51.723.476-51.742 21.77-.498 22.742-.52V1.84H359.356V120.92h45.414v104.36H225.878l.478-51.723.477-51.742 21.77-.498 22.742-.52V1.84H1.492zm1 1h267.851V119.82l-21.766.497-22.737.522-.487 52.71-.486 52.73h180.9V119.918h-45.414V2.843h267.852V119.82l-21.766.497-22.736.522-.486 52.71-.487 52.73h238.031v118.893H747.462l-50.545 50.568-50.75 50.776 54.406 54.385 54.2 54.177H820.764v117.078H540.195v-96.941l-26.056-26.008-26.055-26.01H404.77v31.88h43.598v117.08H182.333v-117.08h45.414V419.652H122.97l-37.518-37.548-37.518-37.55-.468-111.51-.47-112.203-22.74-.523-21.763-.498V2.84zM373.82 14.557l.49 47.284.492 47.26 22.736.522 21.764.498v129.69H213.213V108.203h43.597V16.374H16.025v91.828h43.598v229.47L94.72 372.8l35.097 35.134h107.828V566.69l-20.855.5-21.828.524-.49 46.35-.49 46.374h242.667v-93.644h-45.413V511.48l50.817.066 51.115.066 29.372 28.77 29.37 28.767v91.288h259.02l-.493-46.373-.49-46.355-31.42-.504-30.73-.49-60.65-60.672-60.44-60.46 56.848-56.87 57.054-57.075h70.321l-.493-46.374-.49-46.36-119.932-.47-118.94-.465V108.203h45.413V14.557H373.82zm1.013 1H615.49V107.202h-45.413v131.765l119.938.47 118.947.464.478 45.378.48 45.36H740.2l-57.347 57.37-57.554 57.577 61.146 61.166 60.938 60.958 31.135.498 30.445.488.48 45.38.48 45.364H552.91V568.728l-29.667-29.06-29.666-29.056-51.52-.066-51.82-.067v57.314h45.414v91.644H194.99l.482-45.363.48-45.385 20.86-.5 21.833-.523V406.937H130.233l-34.806-34.84-34.805-34.84V107.203H17.024V17.373H255.81v89.828h-43.597V240.81H420.302V109.144l-22.74-.52-21.77-.5-.48-46.294-.48-46.273zM30.558 32.723V89.91l21.832.524 20.86.5.464 119.4.47 120.092 29.63 29.672 29.63 29.672h101.57V330.64h-43.6V90.037h43.6V32.723H30.557zm357.863 0v57.315h43.598v242.42h-45.413v57.312H491.72l28.78-28.736 28.776-28.736V90.038h45.414V32.723H388.42zm-356.862 1H234.014v55.315h-43.6v242.6h43.6V388.77H133.86l-29.34-29.38-29.34-29.38-.466-119.68-.47-120.372-21.83-.524-20.856-.5v-55.21zm357.863 0h204.272v55.315h-45.414v242.845l-28.484 28.444-28.486 28.443H387.604v-55.312h45.415V89.038H389.42V33.723zM208.58 256.16V315.293h43.6V584.96h-43.6V644.09H416.67V584.96h-45.415v-89.828H499.86l43.276 43.902c11.94 12.113 22.796 23.277 30.666 31.506 3.934 4.114 7.122 7.495 9.324 9.89 1.1 1.198 1.957 2.15 2.53 2.82.288.334.504.6.642.782v.002c-.074.04-.127.075-.258.12-.407.145-1.053.29-1.857.41-1.608.243-3.862.396-6.34.396h-9.58V644.09h220.803V584.96h-52.047l-69.345-69.328-69.138-69.122 65.487-65.505 65.694-65.713h59.35v-57.315H568.26v57.315h9.58c2.478 0 4.733.15 6.343.39.805.12 1.45.264 1.86.407.127.043.18.078.253.116-.143.185-.37.454-.666.795-.594.682-1.478 1.65-2.617 2.872-2.28 2.44-5.58 5.887-9.65 10.084-8.145 8.393-19.38 19.788-31.74 32.154l-44.798 44.826H371.252v-91.644h45.415V256.16H208.58zm1 1H415.67V314.293h-45.415v93.644H497.24l45.093-45.12c12.362-12.37 23.6-23.764 31.75-32.163 4.074-4.2 7.376-7.65 9.662-10.1 1.143-1.224 2.032-2.2 2.64-2.896.305-.35.538-.626.704-.84.082-.107.146-.198.2-.283.027-.043.052-.083.076-.135.024-.053.06-.107.06-.26 0-.323-.205-.542-.392-.676-.186-.135-.402-.23-.66-.32-.514-.18-1.2-.327-2.043-.452-1.68-.25-3.97-.4-6.487-.4h-8.582v-55.315h218.806v55.315h-58.764l-65.988 66.006-66.196 66.212 69.848 69.83 69.637 69.62h51.462V643.09H569.26V585.96h8.583c2.518 0 4.806-.154 6.488-.407.842-.126 1.528-.275 2.042-.457.257-.09.472-.186.658-.322.187-.136.393-.36.39-.68 0-.29-.078-.3-.13-.386-.052-.086-.117-.174-.197-.28-.16-.21-.386-.487-.68-.83-.588-.686-1.448-1.64-2.552-2.843-2.21-2.405-5.4-5.79-9.337-9.907-7.875-8.234-18.733-19.4-30.676-31.515l-43.57-44.2H370.256v91.827h45.414V643.09H209.58V585.96h43.6V314.292h-43.6V257.16z" color="#000" font-family="sans-serif" white-space="normal" overflow="visible" solid-color="#000000" fill="#fff"/><path d="M196.635 613.674v-44.448l21.345-.512 21.345-.512V406.528l-54.54-.48-54.542-.48-34.003-34.04-34.003-34.037-.468-115.347-.47-115.35-21.343-.51-21.345-.512V18.69h236.153v87.196h-43.598v136.272l104.907-.47 104.906-.468V108.61l-22.252-.51-22.253-.51V16.874h237.97v89.013H569.03V240.31H808.82v89.012h-68.143l-58.11 58.13-58.108 58.13 61.743 61.763 61.743 61.763h60.875v89.012h-254.32v-88.144l-30.446-30.407-30.447-30.406H389.19v59.946h45.416v89.012H196.635v-44.448zm220.713.85V584.55l-22.253-.51-22.253-.51V496.45h126.486L541.9 539.59l42.572 43.145-8.63.553-8.627.554v61.592l111.264-.468 111.264-.468V584.55l-26.395-.5-26.397-.5-68.52-68.538-68.52-68.538 64.942-64.9 64.942-64.897 29.974-.49 29.974-.488v-58.131l-111.265-.47-111.265-.467V316.41l8.628.552 8.63.554-43.428 44.052-43.428 44.05H372.842V316.72l22.253-.51 22.253-.51v-59.947l-104.906-.47-104.907-.468v61.794h43.597V583.643h-43.598v61.792l104.908-.47 104.906-.468v-29.974zm-181.656-254.32v-29.972l-21.345-.512-21.345-.512V91.468l21.345-.51 21.345-.513v-58.13l-103.09-.47-103.09-.468V91.355H73.11V330.192l30.427 30.472 30.427 30.472 50.864-.48 50.864-.478v-29.975zm285.634 1.384l29.54-29.498V91.465l22.253-.51 22.252-.51v-58.13l-104-.47-103.997-.468V91.355h43.597V331.14h-45.414v59.947h106.229l29.54-29.5z" fill="#fff"/><path d="M1.938 1.938v120h44l.004 111.25.004 111.25 38.218 38.25 38.22 38.25h103.555v133h-45v119h269v-119h-44v-29h81.484l25.758 25.742 25.758 25.744V672.938h284v-119h-67.494l-53.754-53.746-53.752-53.746 50.246-50.254 50.246-50.254h74.508v-120h-238v-104h45v-120h-270v120h45v104h-178v-104h45v-120h-270z" fill="#0033a0"/><path d="M195.362 612.375l.487-44.05 21.343-.513 21.345-.512V403.925h-108.12L95.466 368.94l-34.95-34.987V104.307l-21.346-.512-21.345-.512-.487-43.143-.487-43.144h236.22v87.195h-43.598v136.244H420.195V106.12l-22.252-.51-22.253-.51-.487-44.96-.486-44.96H612.75v89.011h-45.414v134.427h239.787v89.012h-69.96l-58.108 58.13-58.11 58.13 61.744 61.762 61.74 61.763h62.693v89.013h-254.32v-89.96l-29.538-29.5-29.54-29.498H387.497v59.945h45.415v89.013H194.877l.486-44.052zm221.2.51V582.06l-22.253-.51-22.254-.51-.487-43.144-.488-43.143H495.61l42.4 42.428 42.4 42.43-7.445 1.19-7.445 1.19v61.72h223.437V581.95h-51.754l-68.584-68.566-68.585-68.566 64.933-64.952 64.932-64.95h59.057v-59.949H565.52V314.7l7.217 1.468 7.216 1.47-42.942 43.143-42.942 43.145H371.083l.486-44.052.486-44.052 22.253-.51 22.252-.51v-61.65H205.84v61.763h43.598V581.948H205.84v61.763H416.562v-30.825zM234.905 358.568v-30.824l-21.345-.512-21.344-.512V90.567l21.344-.512 21.345-.512V29.712H27.818V89.66h43.598v240.654l29.498 29.54 29.498 29.538h104.495v-30.824zm285.663 2.206l28.577-28.62.467-120.793.467-120.793 22.252-.51 22.253-.51V29.71H385.68V89.66h43.597v239.785h-45.414v59.946H491.992l28.576-28.618z" fill="#fff"/></svg>