<?xml version="1.0" encoding="utf-8"?>
<!-- Generator: Adobe Illustrator 15.0.0, SVG Export Plug-In . SVG Version: 6.00 Build 0)  -->
<!DOCTYPE svg PUBLIC "-//W3C//DTD SVG 1.1//EN" "http://www.w3.org/Graphics/SVG/1.1/DTD/svg11.dtd">
<svg version="1.1" id="Layer_2" xmlns="http://www.w3.org/2000/svg" xmlns:xlink="http://www.w3.org/1999/xlink" x="0px" y="0px"
	 width="511.545px" height="500px" viewBox="0 0 511.545 500" enable-background="new 0 0 511.545 500" xml:space="preserve">
<path fill="#FFFFFF" d="M333.414,186.022c0.157,1.224,0.26,2.468,0.26,3.738c0,0.714-0.056,1.411-0.103,2.116
	c-3.664-1.041-7.383-1.968-10.863-2.766c-9.11-2.086-16.504-3.275-16.504-3.275s5.502,1.355,15.911,8.61
	c2.717,1.901,5.779,4.211,9.166,6.994c-4.537,10.548-15.01,17.952-27.229,17.952c-16.355,0-29.622-13.266-29.622-29.631
	c0-11.141,6.16-20.827,15.242-25.892c-4.555-1.448-9.064-2.662-13.46-3.629c-7.857,7.403-12.784,17.878-12.784,29.521
	c0,22.44,18.192,40.624,40.624,40.624c3.72,0,7.311-0.546,10.734-1.473c1.716-0.474,3.404-1.013,5.028-1.7
	c13.062-5.5,22.599-17.644,24.481-32.2C340.808,191.802,337.171,188.795,333.414,186.022z"/>
<path fill="#C2A875" d="M251.294,444.265h-62.229l24.463-94.682c-15.251-55.68-41.709-95.265-70.903-123.411l-47.73,184.667
	c0,0-8.637,33.426-52.897,33.426l-8.423,32.58h305.352l33.091-104.495h-26.096C345.919,372.35,324.025,444.265,251.294,444.265z"/>
<path fill="#C2A875" d="M178.034,89.162l-3.107,12.003c22.533-0.594,48.705-0.037,75.867,3.108l-21.856-13.396
	c18.406-0.985,35.549-1.05,51.571-0.446l0.325-1.27c8.637-33.399,37.572-33.426,37.572-33.426h15.325l8.423-32.58H150.825
	l-8.415,32.58h15.326C157.736,55.735,186.662,55.763,178.034,89.162z"/>
<path fill="#C2A875" d="M488.219,199.297c-6.707-24.418-57.368-8.451-82.89,2.299c-8.507-0.712-19.389,0.65-19.389,0.65
	c11.531-14.927,31.663-31.178,51.905-37.515c-28.667-9.408-49.641,14.055-67.704,32.635c-14.184,15.262-31.875,23.472-50.328,29.844
	c-1.624,0.687-3.312,1.226-5.028,1.7c-27.201,8.904-55.532,14.908-76.452,34.37c39.65,16.883,76.888,27.145,118.421,33.239
	c36.588,5.373,64.531,20.05,81.711,29.613c-36.838-44.964-125.758-41.255-179.667-64.13
	c65.384-32.869,129.905-51.794,183.248-39.438c13.275,5.038,19.027,19.973,22.644,31.764
	C480.918,241.35,492.69,215.577,488.219,199.297z"/>
<path fill="#84371B" d="M315.881,258.874c13.405,5.965,32.358,12.783,50.921,14.815l-37.581-16.784
	C325.344,254.709,318.07,254.996,315.881,258.874z"/>
<path fill="#84371B" d="M280.591,109.227l14.815,15.761c-33.703-8.284-92.853-3.869-137.457,3.469
	c-43.815,7.218-92.455,29.259-92.455,29.259c140.807,27.656,167.265,189.558,167.265,189.558s21.634-32.321,71.609-42.749
	c-23.127-13.025-66.627-25.688-91.36-27.998c6.513-26.104,32.247-39.761,50.698-49.928c0,0-15.418-11.747-15.418-38.156
	c0-7.729,0.019-22.089,11.56-30.783c-13.591-1.251-25.038,0.104-32.024,3.666c0,0,51.784-54.549,137.457,12.958
	c0,0,16.086-26.652,45.021-34.444C410.302,139.841,381.877,111.036,280.591,109.227z"/>
<path fill="#096737" d="M304.052,208.481c-10.344,0-18.721-8.377-18.721-18.722c0-10.333,8.377-18.72,18.721-18.72
	c2.375,0,4.629,0.481,6.726,1.288c-7.013-3.423-14.119-6.233-21.105-8.46c-9.082,5.065-15.242,14.751-15.242,25.892
	c0,16.365,13.266,29.631,29.622,29.631c12.218,0,22.692-7.403,27.229-17.952c-3.386-2.782-6.448-5.093-9.166-6.994
	C320.028,202.507,312.772,208.481,304.052,208.481z"/>
<path fill="#096737" d="M333.414,186.022c-6.225-4.621-12.765-8.62-19.417-12.07c5.083,3.21,8.489,8.759,8.711,15.158
	c3.479,0.798,7.199,1.725,10.863,2.766c0.047-0.706,0.103-1.402,0.103-2.116C333.674,188.49,333.571,187.246,333.414,186.022z"/>
<path fill="#4B2913" d="M442.048,222.563c-53.343-12.357-117.864,6.568-183.248,39.438c53.908,22.875,142.828,19.166,179.667,64.13
	c-17.18-9.563-45.123-24.24-81.711-29.613c-41.534-6.094-78.771-16.355-118.421-33.239c20.92-19.462,49.251-25.466,76.452-34.37
	c-3.423,0.927-7.014,1.473-10.734,1.473c-22.431,0-40.624-18.183-40.624-40.624c0-11.643,4.926-22.117,12.784-29.521
	c4.396,0.967,8.905,2.181,13.46,3.629c6.986,2.227,14.092,5.037,21.105,8.46c-2.097-0.807-4.35-1.288-6.726-1.288
	c-10.344,0-18.721,8.386-18.721,18.72c0,10.345,8.377,18.722,18.721,18.722c8.72,0,15.976-5.974,18.063-14.036
	c-10.409-7.255-15.911-8.61-15.911-8.61s7.394,1.188,16.504,3.275c-0.222-6.399-3.628-11.948-8.711-15.158
	c6.652,3.451,13.192,7.45,19.417,12.07c3.757,2.773,7.394,5.78,10.881,8.988c-1.882,14.556-11.419,26.701-24.481,32.2
	c18.452-6.372,36.144-14.582,50.328-29.844c18.063-18.581,39.037-42.043,67.704-32.635c-20.243,6.337-40.374,22.588-51.905,37.515
	c0,0,10.881-1.362,19.389-0.65c25.521-10.75,76.183-26.717,82.89-2.299c4.472,16.279-7.3,42.053-23.527,55.03
	C461.075,242.537,455.323,227.601,442.048,222.563z M366.802,273.689c-18.563-2.033-37.517-8.851-50.921-14.815
	c2.189-3.878,9.463-4.165,13.34-1.968L366.802,273.689z M232.759,347.274c0,0-26.458-161.902-167.265-189.558
	c0,0,48.64-22.041,92.455-29.259c44.604-7.338,103.754-11.753,137.457-3.469l-14.815-15.761
	c101.286,1.809,129.711,30.614,129.711,30.614c-28.935,7.792-45.021,34.444-45.021,34.444
	c-85.672-67.507-137.457-12.958-137.457-12.958c6.986-3.562,18.433-4.917,32.024-3.666c-11.541,8.694-11.56,23.054-11.56,30.783
	c0,26.41,15.418,38.156,15.418,38.156c-18.451,10.167-44.186,23.824-50.698,49.928c24.733,2.311,68.232,14.973,91.36,27.998
	C254.393,314.954,232.759,347.274,232.759,347.274z M251.294,444.265c72.731,0,94.625-71.915,94.625-71.915h26.096l-33.091,104.495
	H33.573l8.423-32.58c44.26,0,52.897-33.426,52.897-33.426l47.73-184.667c29.194,28.146,55.652,67.731,70.903,123.411l-24.463,94.682
	H251.294z M157.736,55.735H142.41l8.415-32.58h191.328l-8.423,32.58h-15.325c0,0-28.935,0.027-37.572,33.426l-0.325,1.27
	c-16.021-0.604-33.165-0.539-51.571,0.446l21.856,13.396c-27.162-3.145-53.333-3.703-75.867-3.108l3.107-12.003
	C186.662,55.763,157.736,55.735,157.736,55.735z M510.624,200.595c-6.402-43.815-69.726-19.23-54.021-60.095
	c0,0-46.951-39.782-153.293-48.686l0.678-2.653c2.124-8.21,4.833-9.957,9.054-10.262h37.859L371.292,0h-237.64l-20.39,78.9h44.27
	l-6.031,23.322c-28.647,1.848-47.256,5.037-47.256,5.037l20.038,12.655C83.789,125.879,42.618,139.684,0,157.716
	c0,0,63.76,5.067,123.717,52.016L74.698,399.402c0,0-5.65,21.708-26.718,21.708H24.825L4.435,500h350.345l47.767-150.806H330.13
	c-5.668,21.92-18.582,71.915-72.852,71.915h-39.075l10.938-42.321c23.656-27.656,103.745-102.39,227.954-25.549
	c0,0,13.508-68.437-101.87-109.636c0,0,23.229-11.855,47.888-11.855c56.701,0,48.722,57.137,48.722,57.137
	C469.21,275.674,518.898,242.007,510.624,200.595z"/>
</svg>