<?xml version="1.0" encoding="utf-8"?>
<!-- Generator: Adobe Illustrator 16.0.0, SVG Export Plug-In . SVG Version: 6.00 Build 0)  -->
<!DOCTYPE svg PUBLIC "-//W3C//DTD SVG 1.1//EN" "http://www.w3.org/Graphics/SVG/1.1/DTD/svg11.dtd">
<svg version="1.1"
	 id="Layer_1" xmlns:dc="http://purl.org/dc/elements/1.1/" xmlns:cc="http://creativecommons.org/ns#" xmlns:rdf="http://www.w3.org/1999/02/22-rdf-syntax-ns#" xmlns:svg="http://www.w3.org/2000/svg" xmlns:sodipodi="http://sodipodi.sourceforge.net/DTD/sodipodi-0.dtd" xmlns:inkscape="http://www.inkscape.org/namespaces/inkscape" sodipodi:docname="LA_Tech_Athletics_Logo.svg" inkscape:version="0.48.5 r10040"
	 xmlns="http://www.w3.org/2000/svg" xmlns:xlink="http://www.w3.org/1999/xlink" x="0px" y="0px" width="318.821px"
	 height="184.118px" viewBox="0 0 318.821 184.118" enable-background="new 0 0 318.821 184.118" xml:space="preserve">
<sodipodi:namedview  inkscape:cy="113.52218" inkscape:cx="249.16831" inkscape:zoom="1.9823035" showgrid="false" guidetolerance="10" gridtolerance="10" objecttolerance="10" bordercolor="#666666" pagecolor="#ffffff" borderopacity="1" id="namedview254" inkscape:current-layer="Layer_1" inkscape:window-maximized="1" inkscape:window-y="-8" inkscape:window-x="-8" inkscape:window-height="838" inkscape:window-width="1440" inkscape:pageshadow="2" inkscape:pageopacity="0">
	</sodipodi:namedview>
<path id="path236" fill="#002E8B" d="M233.793,136.899c-0.877,2.383-2.742,4.018-4.887,4.018c-2.978,0-5.416-3.201-5.416-7.16
	c0-3.934,2.438-7.17,5.416-7.17h2.319c0,0,2.368-4.08,0.063-9.521c0,0,3.244-2.297,1.256-7.178v-18.26h-52.071v-4.563
	c3.327-8.452,8.159-18.949,8.159-35.137c0-11.127-3.498-19.234-3.498-19.234h-28.214v64.385h12.021v30.346H110.71V97.079h11.996
	V32.694H94.495v33.949c0,0-5.286,5.418,4.381,19.163c9.58,13.629-2.145,36.575-2.145,36.575c1.306,4.859,5.117,8.55,5.117,8.55
	c-1.234,7.776-6.919,17.032-6.919,17.032c1.802,4.318,3.852,5.955,3.852,5.955s14.723-12.178,24.666-12.178
	c0,0,9.989,7.15,17.774,11.381c13.441,7.328,25.771,11.694,25.771,11.694c2.034-4.668,2.116-8.142,2.116-8.142
	c-1.021-2.407-3.836-4.979-3.836-4.979l1.647-2.918c0,0,6.52,3.016,12.711,10.904l3.938-0.686c1.206,2.278,1.858,5.463,1.783,7.168
	c0,0,10.983-2.043,22.838,9.793l5.455-0.045v-5.517c0,0,4.454-3.601,12.063-5.076c11.603,4.777,19.57,13.774,19.57,13.774
	c12.325-0.579,17.533-10.688,17.533-10.688c-12.477-7.311-20.545-14.994-20.545-14.994s0.539-1.486,5.47-3.27
	c2.022-0.738,3.214-1.637,3.214-1.637s3.186-13.844-0.086-19.299h-5.129c-1.363,1.676-1.724,3.938-1.724,3.938h-5.656
	C236.064,133.149,234.475,134.956,233.793,136.899"/>
<polyline id="polyline238" fill="#002E8B" points="33.966,76.295 19.478,76.295 19.478,50.636 23.237,50.636 23.237,40.217 
	4.953,40.217 4.953,50.636 8.738,50.636 8.738,76.295 4.953,76.295 4.953,86.713 43.843,86.713 43.843,71.105 33.966,71.105 "/>
<path id="path240" fill="#002E8B" d="M75.774,40.188H54.433v10.438h3.946L50.285,76.27h-3.807v10.426h14.916V76.269l0.871-2.72
	h12.522l0.736,2.724v10.422h14.899V76.257H86.62 M65.649,62.812l2.994-9.444h0.069l2.83,9.444H65.649z"/>
<polyline id="polyline242" fill="#FFFFFF" points="68.643,53.367 65.649,62.812 71.542,62.812 68.712,53.367 "/>
<path id="path244" fill="#FFFFFF" d="M318.821,55.589v-20.32h-24.402v18.016h-4.265V35.269l-52.651-0.004l-2.787,2.03v-2.026h-18.35
	V0H64.694v35.234H49.476v20.339h2.148l-3.342,10.584H29.018v5.188h-4.589V55.589h3.765V35.265H0v20.324h3.786v15.753H0v20.32
	l66.344-0.015V78.501h4.231v13.146h25.822c0.878,2.264,1.284,4.825,1.284,7.594c0.016,4.957-1.3,10.299-2.665,14.322
	c-0.695,2.02-1.373,3.684-1.896,4.825c-0.442,0.985-1.65,3.438-1.65,3.438s0.714,4.364,5.019,10.523
	c-0.695,2.581-1.883,5.521-3.031,7.871c-1.6,3.281-4.093,7.298-4.093,7.298l0.998,2.333c3.183,6.283,8.465,10.43,8.465,10.43
	s3.266-2.701,3.664-3c1.358-1.064,5.045-3.867,9.262-6.309c3.51-2.049,7.529-3.74,10.267-4.17
	c3.087,2.154,10.484,7.207,16.828,10.658C152.69,165.023,169.686,171,169.686,171s2.952-6.199,3.918-10.764
	c1.273,1.17,3.964,4.859,3.964,4.859l2.692-0.479c0.322,1.748-0.062,7.594-0.062,7.594s4.986-1.293,7.18-1.215
	c2.711,0.108,9.478,0.686,17.314,8.481l1.469,1.465l12.428-0.099v-7.752c1.468-0.823,3.716-1.873,6.619-2.604
	c4.59,2.092,8.594,4.908,11.485,7.309c2.72,2.275,6.429,6.316,6.429,6.316l2.369-0.107c7.529-0.342,13.143-3.582,16.498-6.817
	c4.338-4.142,7.381-10.679,7.381-10.679s-3.607-2.161-7.83-4.852c-2.586-0.988-10.625-7.301-10.625-7.301l4.121-2.26
	c0,0,1.637-6.579,1.465-6.562c0.424-2.68,0.806-5.871,0.806-8.734c0-6.174-3.626-12.549-3.626-12.549H243.4
	c0,0-2.248,2.51-2.869,3.947h-2.173c-0.906-0.004-1.762,0.135-2.578,0.379c0.502-1.022,1.454-3.384,1.461-6.69
	c0.008-1.177-0.119-2.478-0.419-3.821c0.712-1.309,1.333-3.064,1.326-5.154c0-1.252-0.222-2.59-0.663-3.918V91.662h52.67V73.62
	h4.264v18.042h24.404v-20.32h-3.764V55.589 M229.766,40.217V55.82h-9.879v-5.185h-14.506v7.602h14.506v10.464h-14.506v7.594h14.506
	v-5.189h9.879v15.607h-38.898V76.295h3.766V50.636h-3.766V40.217H229.766z M69.647,4.953h141.766v30.282h-20.515v-7.467h-38.896
	v74.229h12.004v20.51h-48.354v-20.51h11.996V27.768H88.71v7.467H69.647V4.953z M89.538,40.184v25.015
	c-0.219,0.423-0.433,0.918-0.633,1.465l-7.959-26.479L89.538,40.184L89.538,40.184z M43.843,86.713H4.953V76.295h3.786V50.636H4.953
	V40.217h18.284v10.419h-3.759v25.659h14.489v-5.189h9.877v15.607H43.843z M90.424,86.694H75.525V76.272l-0.736-2.724H62.266
	l-0.871,2.72v10.426H46.479V76.269h3.807l8.094-25.644h-3.946V40.188h21.341L86.62,76.257h3.805L90.424,86.694L90.424,86.694z
	 M238.357,133.149h5.656c0,0,0.36-2.264,1.724-3.938h5.129c3.271,5.455,0.086,19.297,0.086,19.297s-1.19,0.898-3.214,1.638
	c-4.931,1.783-5.47,3.271-5.47,3.271s8.068,7.684,20.545,14.998c0,0-5.208,10.104-17.533,10.684c0,0-7.969-8.998-19.57-13.775
	c-7.608,1.477-12.063,5.076-12.063,5.076v5.516l-5.455,0.045c-11.854-11.836-22.838-9.793-22.838-9.793
	c0.075-1.705-0.577-4.889-1.783-7.168l-3.938,0.687c-6.191-7.89-12.711-10.903-12.711-10.903l-1.647,2.922
	c0,0,2.815,2.565,3.836,4.975c0,0-0.082,3.473-2.116,8.141c0,0-12.33-4.367-25.771-11.695c-7.785-4.229-17.774-11.381-17.774-11.381
	c-9.943,0-24.666,12.178-24.666,12.178s-2.05-1.637-3.852-5.955c0,0,5.685-9.254,6.919-17.031c0,0-3.812-3.689-5.117-8.549
	c0,0,11.725-22.947,2.145-36.576c-9.667-13.745-4.381-19.163-4.381-19.163V32.69h28.212v64.389H110.71v30.346h58.233V97.079h-12.021
	V32.69h28.214c0,0,3.499,8.111,3.499,19.238c0,16.188-4.834,26.685-8.16,35.137v4.563h52.07v18.26
	c1.99,4.881-1.256,7.178-1.256,7.178c2.306,5.438-0.062,9.521-0.062,9.521h-2.318c-2.979,0-5.418,3.236-5.418,7.17
	c0,3.959,2.439,7.16,5.418,7.16c2.143,0,4.008-1.635,4.885-4.018C234.475,134.956,236.064,133.149,238.357,133.149 M268.032,86.721
	h-28.919L232.4,81.9V45.091l6.713-4.874h28.919V55.82h-9.857v-5.18h-12.702l-2.334,1.659v22.307l2.349,1.678h12.688v-5.178h9.857
	V86.721z M269.497,66.157h-16.273v5.174h-5.133V55.589h5.133v5.181h16.273V66.157z M313.872,50.64h-3.756v25.655h3.756v10.422
	h-14.51V68.671h-14.16v18.046h-14.514V76.295h3.762V50.644l-3.762-0.004V40.217h14.514v18.021h14.16V40.217h14.51V50.64z"/>
<polyline id="polyline246" fill="#E31B23" points="88.71,27.768 127.648,27.768 127.648,101.995 115.652,101.995 115.652,122.506 
	164.006,122.506 164.006,101.995 152.004,101.995 152.004,27.768 190.898,27.768 190.898,35.234 211.413,35.234 211.413,4.953 
	69.647,4.953 69.647,35.234 88.71,35.234 "/>
<polyline id="polyline248" fill="#E31B23" points="258.174,76.283 245.482,76.283 243.144,74.605 243.144,52.299 245.471,50.64 
	258.174,50.64 258.174,55.82 268.036,55.82 268.036,40.217 239.113,40.217 232.4,45.088 232.4,81.899 239.113,86.721 
	268.036,86.721 268.036,71.105 258.174,71.105 "/>
<polyline id="polyline250" fill="#E31B23" points="190.868,50.636 194.631,50.636 194.631,76.291 190.868,76.291 190.868,86.713 
	229.766,86.713 229.766,71.105 219.887,71.105 219.887,76.291 205.374,76.291 205.374,68.701 219.887,68.701 219.887,58.237 
	205.374,58.237 205.374,50.636 219.887,50.636 219.887,55.82 229.766,55.82 229.766,40.217 190.868,40.217 "/>
<polyline id="polyline252" fill="#E31B23" points="299.362,58.237 285.208,58.237 285.208,40.217 270.688,40.217 270.688,50.64 
	274.45,50.644 274.45,76.295 270.688,76.295 270.688,86.717 285.208,86.717 285.208,68.671 299.362,68.671 299.362,86.717 
	313.872,86.717 313.872,76.295 310.116,76.295 310.116,50.64 313.872,50.64 313.872,40.217 299.362,40.217 "/>
</svg>
