<?xml version="1.0" encoding="utf-8"?>
<!-- Generator: Adobe Illustrator 14.0.0, SVG Export Plug-In . SVG Version: 6.00 Build 43363)  -->
<!DOCTYPE svg PUBLIC "-//W3C//DTD SVG 1.1//EN" "http://www.w3.org/Graphics/SVG/1.1/DTD/svg11.dtd">
<svg version="1.1" id="Layer_1" xmlns="http://www.w3.org/2000/svg" xmlns:xlink="http://www.w3.org/1999/xlink" x="0px" y="0px"
	 width="250px" height="188px" viewBox="0 0 250 188" enable-background="new 0 0 250 188" xml:space="preserve">
<g>
	<path fill="#FFCC00" d="M200.738,156.57l-23.973,22.142H104.43L80.457,156.57l6.288-9.935v-10.495H40.067l9.625-16.07
		c-7.269,1.955-11.904,3.65-13.681,4.345l-10.652,8.521L10.217,94.838l5.748-2.415c0.3-0.126,13.674-5.72,37.327-10.575V31.626
		L40.05,9.513l56.496,0.092l10.996,11.607L117.96,9.667l58.437-0.181l-13.26,22.141v26.388h40.557l-9.242,20.942v2.445
		c25.05,4.952,39.271,10.891,39.58,11.02l5.752,2.416l-15.141,38.1l-10.654-8.521c-2.217-0.863-8.873-3.287-19.537-5.829v28.052
		L200.738,156.57z M81.239,140.339h-0.011l-0.362,2.493h-1.121l0.735-4.334h1.108l0.881,2.316l0.929-2.316h1.122l0.654,4.334h-1.125
		l-0.316-2.493h-0.012l-1.039,2.493h-0.449L81.239,140.339z M79.595,139.455h-0.93v3.377h-1.126v-3.377h-0.931v-0.957h2.987V139.455
		z M211.955,127.96l14.423,11.54L245,92.646l-9.406-3.949c-0.473-0.198-13.297-5.54-35.906-10.347l11.09-25.126h-43.023V32.902
		l16.803-28.057l-68.656,0.212l-8.44,9.356l-8.926-9.421l-66.638-0.11l16.78,28.02v45.793c-21.598,4.713-33.813,9.808-34.278,10.003
		L5,92.65l18.62,46.85l14.423-11.54c0.515-0.192,1.172-0.437,1.972-0.715l-8.092,13.512h43.048v4.402h7.139L74.5,157.18
		l28.125,25.978h75.947l28.125-25.978l-7.633-12.052v-21.212C205.544,125.652,209.896,127.184,211.955,127.96z"/>
	<polygon fill="#FFCC00" points="108.03,58.867 108.046,64.857 130.021,41.039 130.021,41.094 133.662,31.091 	"/>
	<path fill="#FFCC00" d="M149.167,117.527l2.547,4.252h-20.319l-6.781,3.76l-0.035,0.059h33.466l-5.107-9.076l-0.004-4.304
		c-1.235-0.097-2.494-0.188-3.767-0.276V117.527L149.167,117.527z"/>
	<path fill="#FFCC00" d="M85.845,113.318c-1.158,0.136-2.305,0.272-3.427,0.418l-0.002,3.584l2.538,4.238h-20.24l-6.797,4.008
		l-0.017,0.031h33.383l-5.442-9.662L85.845,113.318z"/>
	<polygon fill="#FFCC00" points="107.73,39.959 107.73,35.271 107.725,35.274 92.14,18.824 90.527,22.025 	"/>
	<polygon fill="#FFCC00" points="64.721,21.983 58.143,18.76 58.142,18.76 63.514,27.732 67.261,26.226 	"/>
	<path fill="#FFCC00" d="M161.748,76.594c1.359,0.135,2.702,0.276,4.027,0.423l-1.91-6.604l-5.45-2.685h-0.063l3.396,8.781V76.594z"
		/>
	<path fill="#FFCC00" d="M119.389,147.863l4.676,3.505l1.798-3.021l-3.411-2.84l-2.011-3.975l0.019-30.334
		c-1.247,0.011-2.483,0.027-3.705,0.052l0.005,31.294L119.389,147.863z"/>
	<path fill="#FFCC00" d="M82.433,77.212c1.14-0.131,2.296-0.257,3.462-0.382l0.046-35.754l-3.489-9.534L82.433,77.212z"/>
	<path fill="#FFCC00" d="M149.167,26.226v49.339c1.263,0.083,2.511,0.171,3.749,0.263l-0.021-48.061l5.28-8.813l-6.473,3.039
		L149.167,26.226z"/>
	<path fill="#FFCC00" d="M180.372,75.406v3.531c1.267,0.193,2.512,0.39,3.737,0.592v-2.793l4.1-9.007h-0.025l-5.775,3.203
		L180.372,75.406z"/>
	<path fill="#FFCC00" d="M184.109,116.372c-1.211-0.235-2.459-0.463-3.737-0.69v34.84l2.228,3.52l-11.406,10.535h-61.297
		L98.488,154.04l-4.772,0.739l-0.036,0.059l14.758,13.629h64.226l14.759-13.629l-3.312-5.23v-33.235H184.109z"/>
	<path fill="#FFCC00" d="M92.908,67.729h-0.017l3.702,8.132c1.298-0.098,2.609-0.191,3.935-0.278l-1.847-4.061L92.908,67.729z"/>
	<path fill="#FFCC00" d="M124.197,67.729l-4.848,2.628l-2.106,4.509c1.309-0.027,2.626-0.05,3.956-0.063l3-7.074H124.197z"/>
	<path fill="#FFCC00" d="M192.58,106.645l-2.963-0.627l2.226-10.472l-5.851-1.243l0.482-2.271l7.976,1.697l6.714,1.426l-0.48,2.271
		l-5.875-1.245l-0.357,1.674L192.58,106.645z M206.578,96.665l12.813,3.675l-0.613,2.135l-9.899-2.84l-0.8,2.79l5.773,1.658
		l-0.611,2.134l-5.775-1.654l-0.891,3.104l10.021,2.873l-0.677,2.354l-12.933-3.709L206.578,96.665z M182.658,93.661l-2.286-0.363
		l-3.647-0.577l-1.675,10.571l-2.991-0.478l1.674-10.568l-5.907-0.936l0.364-2.292l12.184,1.928l2.648,0.42L182.658,93.661z
		 M162.561,90.738l-0.802-0.083l-8.836-0.929l-0.604-0.064l-0.303,2.887l0.908,0.095l5.066,0.534l-0.233,2.208l-4.831-0.508
		l-1.143-0.121l-0.34,3.214l1.481,0.155l8.843,0.929l0.045,0.008l-0.045,0.432l-0.211,2.003l-8.627-0.908l-3.764-0.394l-0.99-0.104
		l0.99-9.435l0.372-3.521l3.384,0.355l8.836,0.929l1.032,0.109L162.561,90.738z M140.354,96.914
		c-0.084,2.447-0.889,3.053-3.334,2.966l-7.035-0.245l-1.19-0.041c-2.446-0.086-3.206-0.746-3.122-3.189l0.35-9.94l3.025,0.105
		l-0.367,10.57l1.305,0.045l7.32,0.256l0.369-10.568l3.028,0.105L140.354,96.914z M116.754,99.23
		c-0.466,0.201-1.081,0.301-1.878,0.343l-1.413,0.075l1.815,3.267l-3.001,0.155l-1.637-3.272l-5.343,0.279
		c-2.447,0.128-3.261-0.463-3.389-2.907l-0.359-6.857c-0.127-2.445,0.62-3.116,3.066-3.244l9.579-0.502
		c1.219-0.064,2.032,0.052,2.559,0.485c0.528,0.437,0.765,1.196,0.829,2.422l0.359,6.857
		C118.027,97.975,117.712,98.816,116.754,99.23z M91.074,101.213l-5.207-3.802l-0.604-0.44l-2.838,0.348h-0.018l0.018,0.146
		l0.582,4.741l-0.583,0.072l-2.372,0.289l-1.59-12.926l3.966-0.487l3.449-0.423l3.659-0.449c1.98-0.244,2.994,0.344,3.215,2.148
		l0.373,3.032c0.221,1.805-0.62,2.618-2.6,2.863l-1.702,0.208l6.563,4.153L91.074,101.213z M71.258,103.703l-2.081-2.5l-5.658,1.098
		l-2.445,0.477l-0.941,3.088l-2.975,0.576l4.75-14.19l1.613-0.313l1.262-0.245l9.82,11.362L71.258,103.703z M49.278,108.288
		l-2.084-7.776c-0.065-0.244-0.159-0.689-0.263-1.367c-0.117,0.633-0.236,1.16-0.378,1.514l-3.044,7.559l-0.585,0.155l-6.423-5.045
		c-0.397-0.313-0.777-0.656-1.102-1.091c0.185,0.496,0.321,0.908,0.432,1.322l2.084,7.775l-2.365,0.635l-3.37-12.582l2.364-0.632
		l7.964,6.019l3.764-9.164l2.341-0.625l3.372,12.58L49.278,108.288z M217.229,118.861l4.676,3.742l9.666-24.318
		c0,0-13.346-5.602-37.119-10.401c-3.256-0.656-6.704-1.298-10.34-1.908c-1.228-0.206-2.471-0.408-3.738-0.606
		c-5.777-0.901-11.992-1.718-18.62-2.386c-2.866-0.29-5.813-0.549-8.833-0.779c-1.236-0.095-2.486-0.183-3.752-0.268
		c-6.105-0.4-12.501-0.665-19.171-0.759c-1.659-0.024-3.332-0.04-5.025-0.042c-1.513,0.001-3.008,0.016-4.492,0.034
		c-1.252,0.016-2.495,0.037-3.726,0.064c-6.899,0.157-13.491,0.496-19.763,0.972c-3.821,0.292-7.526,0.634-11.104,1.019
		c-1.164,0.125-2.315,0.254-3.455,0.389c-6.787,0.797-13.099,1.742-18.907,2.76c-3.608,0.632-7.021,1.295-10.231,1.967
		c-22.363,4.691-34.862,9.944-34.862,9.944l9.665,24.318l4.675-3.742c0,0,7.117-3.028,20.521-6.271
		c3.08-0.746,6.491-1.502,10.226-2.236c5.589-1.1,11.903-2.146,18.902-3.025c1.129-0.143,2.271-0.283,3.434-0.414
		c3.548-0.407,7.262-0.768,11.136-1.07c6.185-0.482,12.778-0.818,19.765-0.953c1.224-0.023,2.462-0.037,3.708-0.049
		c1.497-0.014,3.006-0.017,4.537-0.014c1.683-0.008,3.341,0,4.979,0.018c6.756,0.065,13.153,0.321,19.188,0.723
		c1.27,0.086,2.525,0.173,3.766,0.27c3.047,0.238,5.993,0.512,8.84,0.814c6.785,0.722,12.994,1.611,18.601,2.576
		c1.276,0.221,2.522,0.444,3.737,0.672c3.75,0.701,7.201,1.428,10.341,2.156C209.313,115.491,217.229,118.861,217.229,118.861z"/>
	<path fill="#FFCC00" d="M90.128,93.091l-0.192-1.554c-0.105-0.851-0.552-0.974-1.478-0.862l-2.585,0.318l-3.448,0.425l-0.734,0.09
		l0.444,3.606l0.289-0.036l3.446-0.424l3.03-0.37C89.828,94.17,90.232,93.942,90.128,93.091z"/>
	<polygon fill="#FFCC00" points="63.521,95.121 61.892,100.227 63.52,99.908 67.49,99.139 63.729,94.469 	"/>
	<polygon fill="#FFCC00" points="104.534,89.398 104.966,97.643 109.429,97.408 108.07,94.648 110.218,93.65 112.176,97.264 
		114.948,97.118 114.517,88.875 	"/>
	<polygon fill="#003366" points="76.608,139.455 77.539,139.455 77.539,142.832 78.665,142.832 78.665,139.455 79.595,139.455 
		79.595,138.498 76.608,138.498 	"/>
	<polygon fill="#003366" points="82.682,142.832 83.721,140.339 83.733,140.339 84.049,142.832 85.175,142.832 84.521,138.498 
		83.398,138.498 82.47,140.814 81.589,138.498 80.48,138.498 79.745,142.832 80.866,142.832 81.228,140.339 81.239,140.339 
		82.233,142.832 	"/>
	<path fill="#003366" d="M184.109,109.9c-1.215-0.229-2.461-0.452-3.737-0.674c-5.604-0.963-11.813-1.854-18.601-2.576
		c-2.847-0.303-5.793-0.575-8.84-0.813c-1.238-0.097-2.496-0.185-3.766-0.271c-6.033-0.399-12.432-0.655-19.188-0.721
		c-1.64-0.019-3.299-0.025-4.979-0.019c-1.531-0.003-3.041,0-4.537,0.014c-1.247,0.011-2.484,0.024-3.708,0.05
		c-6.987,0.135-13.581,0.469-19.765,0.952c-3.874,0.304-7.588,0.663-11.136,1.07c-1.164,0.131-2.305,0.272-3.434,0.414
		c-6.999,0.881-13.313,1.927-18.902,3.024c-3.734,0.735-7.146,1.491-10.226,2.237c-13.405,3.242-20.521,6.271-20.521,6.271
		l-4.675,3.744L18.43,98.285c0,0,12.499-5.253,34.862-9.944c3.209-0.672,6.623-1.334,10.231-1.967
		c5.808-1.019,12.12-1.963,18.907-2.76c1.14-0.135,2.291-0.264,3.455-0.389c3.579-0.385,7.284-0.727,11.104-1.019
		c6.272-0.477,12.864-0.815,19.763-0.972c1.231-0.027,2.474-0.048,3.726-0.064c1.484-0.019,2.979-0.033,4.492-0.034
		c1.693,0.001,3.366,0.017,5.025,0.042c6.67,0.095,13.063,0.359,19.171,0.759c1.266,0.085,2.516,0.173,3.752,0.268
		c3.02,0.23,5.967,0.489,8.833,0.779c6.628,0.668,12.842,1.485,18.62,2.386c1.268,0.198,2.512,0.4,3.738,0.606
		c3.636,0.609,7.084,1.251,10.34,1.908c23.773,4.8,37.119,10.401,37.119,10.401l-9.666,24.318l-4.676-3.742
		c0,0-7.914-3.37-22.777-6.807C191.313,111.327,187.859,110.602,184.109,109.9z M152.938,116.521l5.107,9.076h-33.466l0.035-0.059
		l5.361-8.95l0.004-5.387c6.765,0.069,13.162,0.332,19.188,0.739c1.272,0.086,2.53,0.18,3.767,0.275L152.938,116.521z
		 M172.663,168.467h-64.226L93.68,154.838l0.036-0.059l3.273-5.174v-37.381c6.174-0.494,12.768-0.836,19.765-0.975
		c1.222-0.023,2.458-0.041,3.705-0.052l-0.019,30.334l2.011,3.975l3.412,2.839l0.084,0.068h30.465l3.497-2.907l1.894-3.498
		l-0.023-28.96c6.806,0.742,13.015,1.65,18.593,2.631c1.278,0.229,2.526,0.456,3.737,0.691v33.234l3.313,5.23L172.663,168.467z
		 M57.9,125.598l0.017-0.029l5.005-8.608c5.694-1.164,12.206-2.282,19.496-3.222c1.122-0.146,2.269-0.283,3.427-0.418l-0.003,2.617
		l5.442,9.66H57.9z M117.243,74.866c-5.782,0.121-11.358,0.368-16.716,0.717c-1.326,0.086-2.636,0.18-3.935,0.278l-3.702-8.132
		h0.017h31.29h0.001l-3,7.074C119.869,74.816,118.552,74.838,117.243,74.866z M63.514,27.732l-5.373-8.972h0.001l33.988,0.055
		l0.009,0.008l15.585,16.45l0.005-0.003l14.796-16.4l35.668,0.048l-0.021,0.035l-5.28,8.813l0.021,48.061
		c-1.238-0.091-2.486-0.18-3.749-0.263c-6.11-0.394-12.508-0.654-19.165-0.748l0.021-33.724v-0.055l-21.978,23.819l-0.009,0.009
		L85.941,41.032v0.045l-0.046,35.754c-1.166,0.125-2.322,0.25-3.462,0.382c-6.766,0.78-13.078,1.706-18.908,2.707l0.012-52.152
		L63.514,27.732z M158.415,67.729h29.769h0.025l-4.1,9.007v2.793c-1.227-0.202-2.473-0.399-3.737-0.592
		c-4.604-0.706-9.474-1.355-14.597-1.92c-1.325-0.146-2.668-0.288-4.027-0.423V76.51l-3.396-8.781H158.415z M213.986,124.414
		l10.654,8.521l15.142-38.1l-5.753-2.416c-0.307-0.129-14.529-6.068-39.579-11.02v-2.445l9.243-20.942h-40.557V31.626l13.26-22.141
		l-58.438,0.181l-10.418,11.545L96.545,9.604L40.05,9.513l13.242,22.113v50.222c-23.653,4.855-37.027,10.449-37.327,10.575
		l-5.748,2.415l15.142,38.098l10.652-8.521c1.777-0.694,6.412-2.39,13.681-4.345l-9.625,16.07h46.679v10.496l-6.288,9.936
		l23.973,22.141h72.334l23.975-22.141l-6.289-9.936v-28.052C205.113,121.127,211.771,123.551,213.986,124.414z"/>
	<path fill="#003366" d="M46.272,95.609l-3.764,9.164l-7.964-6.02l-2.364,0.633l3.37,12.581l2.365-0.635l-2.084-7.776
		c-0.11-0.414-0.247-0.824-0.432-1.322c0.325,0.436,0.705,0.777,1.102,1.092l6.423,5.045l0.585-0.155l3.044-7.559
		c0.142-0.353,0.261-0.882,0.378-1.513c0.104,0.676,0.197,1.121,0.263,1.367l2.084,7.775l2.707-0.725L48.613,94.98L46.272,95.609z"
		/>
	<path fill="#003366" d="M63.52,99.908l-1.628,0.316l1.63-5.104l0.207-0.652l3.762,4.67L63.52,99.908z M63.521,91.938l-1.613,0.313
		l-4.75,14.19l2.975-0.576l0.941-3.088l2.445-0.477l5.658-1.098l2.081,2.5l3.346-0.648l-9.82-11.362L63.521,91.938z"/>
	<path fill="#003366" d="M82.425,95.078l-0.289,0.036l-0.444-3.606l0.734-0.09l3.448-0.425l2.585-0.318
		c0.925-0.112,1.373,0.011,1.478,0.862l0.192,1.554c0.104,0.851-0.301,1.079-1.228,1.193l-3.03,0.37L82.425,95.078z M90.523,96.323
		c1.98-0.245,2.821-1.06,2.6-2.863l-0.373-3.032c-0.221-1.804-1.234-2.392-3.215-2.148l-3.659,0.449l-3.449,0.423l-3.966,0.487
		l1.588,12.927l2.372-0.291l0.583-0.071l-0.582-4.741l-0.018-0.145h0.018l2.838-0.35l0.604,0.441l5.207,3.802l4.31-0.528
		l-6.563-4.152L90.523,96.323z"/>
	<path fill="#003366" d="M112.176,97.264l-1.958-3.613l-2.148,0.998l1.359,2.761l-4.463,0.233l-0.432-8.245l9.982-0.523l0.432,8.244
		L112.176,97.264z M117.581,89.474c-0.063-1.226-0.3-1.985-0.829-2.422c-0.526-0.434-1.34-0.549-2.559-0.485l-9.579,0.502
		c-2.446,0.128-3.194,0.799-3.066,3.244l0.359,6.857c0.128,2.444,0.942,3.035,3.389,2.907l5.343-0.279l1.637,3.272l3.001-0.155
		l-1.815-3.267l1.413-0.075c0.797-0.042,1.412-0.142,1.878-0.343c0.958-0.414,1.272-1.256,1.186-2.899L117.581,89.474z"/>
	<path fill="#003366" d="M137.305,97.439l-7.32-0.256l-1.305-0.045l0.367-10.571l-3.025-0.105l-0.35,9.939
		c-0.084,2.445,0.676,3.104,3.122,3.19l1.19,0.041l7.035,0.245c2.445,0.087,3.25-0.518,3.334-2.966l0.35-9.938l-3.028-0.105
		L137.305,97.439z"/>
	<polygon fill="#003366" points="152.923,87.492 149.539,87.136 149.167,90.656 148.177,100.091 149.167,100.193 152.93,100.588 
		161.557,101.496 161.768,99.493 161.813,99.063 161.768,99.055 152.926,98.126 151.443,97.971 151.783,94.757 152.926,94.878 
		157.757,95.386 157.99,93.177 152.924,92.644 152.016,92.549 152.318,89.662 152.923,89.726 161.759,90.655 162.561,90.738 
		162.791,88.529 161.759,88.42 	"/>
	<polygon fill="#003366" points="168.188,89.018 167.824,91.311 173.732,92.247 172.059,102.814 175.05,103.292 176.725,92.721 
		180.372,93.298 182.658,93.661 183.021,91.366 180.372,90.946 	"/>
	<polygon fill="#003366" points="194.809,96.18 200.684,97.425 201.164,95.154 194.45,93.728 186.477,92.031 185.992,94.303 
		191.843,95.546 189.617,106.018 192.58,106.645 194.45,97.854 	"/>
	<polygon fill="#003366" points="216.596,110.54 206.573,107.667 207.464,104.563 213.238,106.217 213.852,104.083 208.077,102.425 
		208.877,99.635 218.775,102.475 219.391,100.34 206.578,96.665 202.986,109.188 215.919,112.895 	"/>
	<path fill="#FFFFFF" d="M151.714,121.779l-2.547-4.252v-5.586c-6.026-0.407-12.425-0.67-19.188-0.739l-0.004,5.387l-5.36,8.95
		l6.78-3.76H151.714z"/>
	<path fill="#FFFFFF" d="M82.433,77.212l0.019-45.669l3.489,9.534v-0.045l22.096,23.834l0.009-0.009l-0.016-5.991l25.632-27.776
		l-3.641,10.003l-0.021,33.724c6.657,0.093,13.054,0.354,19.165,0.748V26.226l2.535-4.233l6.473-3.039l0.021-0.035l-35.669-0.048
		l-14.796,16.4v4.689L90.527,22.025l1.613-3.201l-0.009-0.008L58.143,18.76l6.578,3.223l2.54,4.242l-3.747,1.507l0.022,0.035
		l-0.012,52.152C69.355,78.918,75.667,77.993,82.433,77.212z"/>
	<path fill="#FFFFFF" d="M84.954,121.559l-2.538-4.236l0.002-3.584c-7.29,0.938-13.802,2.058-19.496,3.222l-5.005,8.608l6.797-4.01
		H84.954z"/>
	<path fill="#FFFFFF" d="M109.895,164.575h61.296L182.6,154.04l-2.228-3.519V115.68c-5.578-0.979-11.787-1.889-18.593-2.631
		l0.023,28.96l-1.894,3.498l-3.497,2.907h-30.465l-0.084-0.068l-1.799,3.021l-4.676-3.506l-2.629-5.317l-0.005-31.294
		c-6.998,0.139-13.591,0.479-19.765,0.975v37.381l-3.273,5.174l4.772-0.739L109.895,164.575z"/>
	<path fill="#FFFFFF" d="M165.775,77.017c5.123,0.564,9.992,1.214,14.597,1.92v-3.531l2.035-4.475l5.774-3.203h-29.768l5.449,2.685
		L165.775,77.017z"/>
	<path fill="#FFFFFF" d="M124.197,67.729h-31.29l5.772,3.793l1.847,4.061c5.357-0.349,10.934-0.596,16.716-0.717l2.106-4.509
		L124.197,67.729z"/>
</g>
</svg>
