<?xml version="1.0" encoding="utf-8"?>
<!-- Generator: Adobe Illustrator 13.0.0, SVG Export Plug-In . SVG Version: 6.00 Build 14948)  -->
<!DOCTYPE svg PUBLIC "-//W3C//DTD SVG 1.1//EN" "http://www.w3.org/Graphics/SVG/1.1/DTD/svg11.dtd">
<svg version="1.1" id="Layer_1" xmlns="http://www.w3.org/2000/svg" xmlns:xlink="http://www.w3.org/1999/xlink" x="0px" y="0px"
	 width="24.706px" height="28.605px" viewBox="0 0 24.706 28.605" enable-background="new 0 0 24.706 28.605" xml:space="preserve">
<g>
	<path fill="#18453B" d="M23.168,1.969c0,0-1.484,3.188-2.239,4.771C17.23,5.039,12.382,4.796,8.308,7.21
		C5.591,8.871,3.4,11.822,3.174,14.992c-0.076,2.112,0.842,4.425,0.54,6.538c-0.076,1.132-0.336,2.262-0.865,3.242
		C2.171,25.905,1.358,26.886,0,26.962c0.302-0.377,2.398-1.411,1.574-6.16C1.247,18.919-1.341,14.249,1.16,8.395
		C3.444,3.05,13.326-3.284,23.168,1.969z"/>
	<path fill="#18453B" d="M11.847,11.342c1.279-0.462,2.713-0.47,4.072-0.169c2.564,0.453,4.485,2.001,5.421,4.3
		c0.979,2.405,1.683,4.347,3.365,6.402c0.048,0.06-2.627-0.393-2.617-0.467c0.654-4.767-3.852-4.964-5.095-3.179
		c0.936,1.028,2.541,1.557,3.786,1.355c-0.264,4.734,1.057,9.03,0.981,9.021c-1.073-0.148-5.992-3.043-7.431-4.3
		c-2.113,0.377-3.769,1.157-6.216,1.496c-0.075,0.01,0.449-1.806,0.374-2.711c0-2.49-1.908-4.824-0.558-7.883
		C8.739,13.374,9.96,12.021,11.847,11.342z"/>
	<g>
		<path fill="#18453B" d="M13.617,9.905c0.143,0.002,0.36,0.035,0.364,0.021c0.041-0.165,0.175-1.345,1.181-2.206
			c1.119-0.958,2.59-0.863,2.575-0.872c-1.466-0.448-2.976-0.479-4.019-0.388L13.617,9.905z"/>
		<path fill="#18453B" d="M4.295,14.201c-0.223,1.419-0.238,2.735-0.119,3.435c0.003,0.01,0.211-1.201,0.9-1.883
			c0.6-0.595,1.364-0.711,1.635-0.701c0-0.004,0.136-0.464,0.117-0.465L4.295,14.201z"/>
		<path fill="#18453B" d="M7.132,13.938c0.074-0.188,0.164-0.355,0.273-0.57l-2.604-1.01c-0.162,0.324-0.284,0.811-0.344,1.074
			L7.132,13.938z"/>
		<path fill="#18453B" d="M7.761,12.945c0.007-0.009,0.418-0.532,0.425-0.527L5.8,10.625c-0.249,0.313-0.451,0.658-0.613,1.023
			L7.761,12.945z"/>
		<path fill="#18453B" d="M8.649,11.969c0.013-0.014,0.53-0.482,0.53-0.482L7.112,9.136C6.646,9.54,6.504,9.723,6.22,10.067
			L8.649,11.969z"/>
		<path fill="#18453B" d="M9.722,11.153c0.004,0.028,0.594-0.33,0.607-0.356L8.794,8.001C8.207,8.284,7.831,8.589,7.659,8.71
			L9.722,11.153z"/>
		<path fill="#18453B" d="M10.861,10.534c0.733-0.249,0.73-0.257,0.73-0.243l-0.872-3.142c-0.486,0.142-1.143,0.423-1.297,0.527
			L10.861,10.534z"/>
		<path fill="#18453B" d="M12.158,10.108c0.026,0.013,0.66-0.142,0.669-0.143l0.08-3.404c-0.026,0.026-0.79,0.143-1.438,0.324
			L12.158,10.108z"/>
	</g>
</g>
</svg>
