<?xml version="1.0" encoding="UTF-8" standalone="no"?>
<!-- Created with Inkscape (http://www.inkscape.org/) -->

<svg
   xmlns:dc="http://purl.org/dc/elements/1.1/"
   xmlns:cc="http://creativecommons.org/ns#"
   xmlns:rdf="http://www.w3.org/1999/02/22-rdf-syntax-ns#"
   xmlns:svg="http://www.w3.org/2000/svg"
   xmlns="http://www.w3.org/2000/svg"
   version="1.1"
   width="292.67499"
   height="178.5625"
   id="svg3128"
   xml:space="preserve"><metadata
     id="metadata3134"><rdf:RDF><cc:Work
         rdf:about=""><dc:format>image/svg+xml</dc:format><dc:type
           rdf:resource="http://purl.org/dc/dcmitype/StillImage" /><dc:title></dc:title></cc:Work></rdf:RDF></metadata><defs
     id="defs3132" /><g
     transform="matrix(1.25,0,0,-1.25,0,178.5625)"
     id="g3136"><g
       transform="scale(0.1,0.1)"
       id="g3138"><path
         d="m 2341.38,361.148 -102.47,327.614 86.15,188.371 -2.28,7.832 c -120.02,78.953 -246.38,143.245 -388.63,197.425 l 0,42.11 83.57,134.2 0,169.76 -529.63,0 -205.41,-319.2 c -37.45,2.29 -74.81,3.53 -112,3.53 -37.16,0 -74.54,-1.24 -111.96,-3.53 l -205.38,319.2 -529.668,0 0,-169.76 83.594,-134.2 0,-42.11 C 265.02,1028.23 138.645,963.918 18.6016,884.965 L 16.3398,877.133 102.5,688.762 0,361.148 9.45313,354.039 C 80.5664,400.82 155.176,443.57 231.914,482.074 l 0,-189.453 c 55.399,32.918 114.102,62.848 175.352,89.777 l 0,-79.707 L 323.801,175 l 0,-175 565.242,0 0,517.863 c 20.422,2.903 40.996,5.481 61.699,7.766 L 1170.69,178.898 1390.65,525.59 c 20.71,-2.246 41.28,-4.824 61.72,-7.727 l 0,-517.863 565.25,0 0,175 -83.47,127.691 0,79.668 c 61.24,-26.929 119.94,-56.82 175.31,-89.738 l 0,189.453 c 76.76,-38.504 151.37,-81.254 222.49,-128.035 l 9.43,7.109"
         id="path3140"
         style="fill:#660000;fill-opacity:1;fill-rule:nonzero;stroke:none" /><path
         d="m 2246.86,174.16 -18.67,0 0,54.43 -2.01,0 -17.15,-38.078 -13.16,0 -17.36,38.769 -2.49,0 0,-55.121 -17.64,0 0,69.649 30.27,0 14.07,-34.09 14.67,34.09 29.47,0 0,-69.649 z m -99.47,54.649 -19.94,0 0,-54.649 -18.79,0 0,54.649 -19.94,0 0,15 58.67,0 0,-15"
         id="path3142"
         style="fill:#660000;fill-opacity:1;fill-rule:nonzero;stroke:none" /><path
         d="m 294.688,391.422 0,442.527 c 267.414,139.305 577.746,216.061 875.992,216.061 298.26,0 608.57,-76.756 876.02,-216.061 l 0,-442.527 C 1777.34,526.418 1468.21,600.5 1170.68,600.5 873.176,600.5 564.031,526.418 294.688,391.422"
         id="path3144"
         style="fill:#ffffff;fill-opacity:1;fill-rule:nonzero;stroke:none" /><path
         d="m 294.688,391.422 0,442.527 c 267.414,139.305 577.746,216.061 875.992,216.061 298.26,0 608.57,-76.756 876.02,-216.061 l 0,-442.527 C 1777.34,526.418 1468.21,600.5 1170.68,600.5 873.176,600.5 564.031,526.418 294.688,391.422 z"
         id="path3146"
         style="fill:none;stroke:#ffffff;stroke-width:4.64121008;stroke-linecap:butt;stroke-linejoin:bevel;stroke-miterlimit:5;stroke-opacity:1;stroke-dasharray:none" /><path
         d="m 1307.64,659.594 c -39.72,3.066 -79.87,4.91 -119.65,5.418 l 0,55.773 16.22,-0.293 10.16,-0.148 c 0.06,0 -17.72,50.586 -17.72,50.586 l -4.95,0.109 c -32.46,0.449 -65.18,0.106 -97.33,-1.094 l -4.75,-0.156 -18.62,-51.016 c 0.01,0 10.56,0.411 10.56,0.411 l 16.21,0.546 0,-55.753 c -37.79,-1.289 -75.85,-3.789 -113.454,-7.372 l 0,55.692 21.724,2.031 4.53,0.402 c 0.06,0.028 1.57,4.239 1.57,4.239 l 96.22,270.926 c 25.47,0.742 51.32,0.949 77.14,0.656 l 92.05,-268.703 1.57,-4.442 4.68,-0.324 c 7.36,-0.508 15.32,-1.074 23.84,-1.738 l 0,-55.75 z m -156.67,243.496 -6.56,18.984 c 0.04,0.02 -6.77,-18.906 -6.77,-18.906 l -26.42,-73.449 -3.46,-9.696 10.34,0.274 c 17.08,0.418 34.37,0.613 51.28,0.527 l 10.03,0 -3.29,9.422 -25.15,72.844 z m 590.68,-59.641 -9.29,3.008 0,-79.141 4.93,-1.57 c 28.92,-9.336 58.06,-19.551 86.7,-30.351 l 0,-49.825 c -27.15,10.118 -54.75,19.891 -82.34,28.789 l -9.29,2.996 0,-85.234 4.93,-1.57 c 27.82,-8.977 55.74,-18.692 82.98,-28.887 l 9.56,-3.633 0,24.727 c 22.19,-8.449 44.42,-17.363 66.35,-26.68 l 0,-79.414 c -84.37,35.496 -171.67,65.086 -259.72,88.008 l 0,55.262 18.78,-4.981 8.9,-2.363 c 0.04,0 0.04,9.219 0.04,9.219 l 0,204.882 c 0.04,0 -5.24,1.379 -5.24,1.379 l -22.48,5.965 0,55.637 c 88.15,-23.078 175.45,-52.852 259.72,-88.613 l 0,-74.883 c -21.97,9.246 -44.16,18.164 -66.35,26.543 l 0,19.922 c 0,-0.032 -4.61,1.687 -4.61,1.687 -27.77,10.442 -55.9,20.235 -83.57,29.121 m -154.54,5.059 c -17.87,4.152 -35.94,8.066 -53.92,11.73 l 0,37.637 -5.69,1.063 c -14.54,2.89 -29.4,5.644 -45.36,8.398 l -8.23,1.445 0,-213.777 c 0.04,-0.039 5.84,-1.094 5.84,-1.094 l 21.68,-3.898 0,-55.586 c -41.41,7.597 -83.47,13.867 -125.32,18.664 l 0,55.672 19.73,-2.364 7.91,-0.886 c 0.07,-0.051 0.07,7.89 0.07,7.89 l 0,205.723 -6.18,0.789 c -14.48,1.816 -29.61,3.555 -45.02,5.117 l -7.85,0.782 0,-37.637 c -18.19,1.758 -36.57,3.312 -54.83,4.472 l 0,93.692 c 99.7,-6.758 199.56,-21.68 297.17,-44.414 l 0,-93.418 z m -923.817,-6.074 c -22.895,-6.309 -45.742,-13.094 -68.266,-20.215 l 0,24.023 -9.226,-3.027 c -27.539,-8.836 -55.852,-18.699 -84.16,-29.317 l -4.61,-1.746 0,-73.203 9.578,3.621 c 42.422,15.871 80.801,28.918 117.246,39.922 l 39.438,-25.742 0,-105.047 -55.91,-70.605 c -42.656,-13.196 -85.363,-28.059 -127.031,-44.27 -16.661,10.442 -33.301,20.703 -49.637,30.567 l 0,39.23 c 21.797,9.258 44.031,18.172 66.316,26.66 l 0,-38.301 9.578,3.555 c 27.114,10.164 55.207,19.988 83.528,29.051 l 4.89,1.633 0,94.168 -9.226,-3.008 C 544.109,706.965 504.063,692.57 466.418,677.629 l -35.703,24.023 0,86.496 53.523,74.735 c 41.321,16.066 83.965,30.93 126.797,44.199 17.207,-11.094 34.746,-22.715 52.258,-34.48 l 0,-30.168 z m 340.647,47.754 c -18.335,-1.602 -36.667,-3.426 -54.831,-5.516 l 0,37.656 -7.898,-0.918 c -14.531,-1.73 -29.883,-3.781 -45.586,-6.027 l -6.062,-0.848 0,-213.73 c 0.054,0 8.105,1.121 8.105,1.121 l 19.52,2.648 0,-55.644 c -41.727,-5.528 -83.665,-12.52 -124.993,-20.852 l 0,55.539 21.711,4.278 5.664,1.082 c 0.071,0 0.071,5.859 0.071,5.859 l 0,208 -8.411,-1.594 c -15.695,-2.988 -30.3,-5.945 -44.57,-9.043 l -5.625,-1.199 0,-37.656 c -17.883,-3.879 -35.84,-8.156 -53.722,-12.617 l 0,93.328 c 97.328,24.511 197.023,41.211 296.627,49.758 l 0,-93.625"
         id="path3148"
         style="fill:#660000;fill-opacity:1;fill-rule:nonzero;stroke:none" /><path
         d="m 2255.54,860.922 c -100.02,62.605 -205.27,115.32 -321.39,160.888 l 0,-65.763 c 53.66,-22.527 106.16,-47.266 157.04,-74.363 l 14.95,-7.961 3.32,-5.547 0,-323.047 c 46.82,-22.774 92.93,-47.031 137.97,-72.879 l -68.91,220.32 77.02,168.352"
         id="path3150"
         style="fill:#ffffff;fill-opacity:1;fill-rule:nonzero;stroke:none" /><path
         d="M 85.8594,860.922 162.883,692.57 93.957,472.25 c 45.047,25.848 91.16,50.105 137.957,72.879 l 0,323.047 3.32,5.547 14.961,7.961 c 50.891,27.097 103.399,51.855 157.071,74.382 l 0,65.774 C 291.145,976.262 185.891,923.547 85.8594,860.922"
         id="path3152"
         style="fill:#ffffff;fill-opacity:1;fill-rule:nonzero;stroke:none" /></g></g></svg>