<?xml version="1.0" encoding="utf-8"?>
<!-- Generator: Adobe Illustrator 13.0.1, SVG Export Plug-In . SVG Version: 6.00 Build 14948)  -->
<!DOCTYPE svg PUBLIC "-//W3C//DTD SVG 1.1//EN" "http://www.w3.org/Graphics/SVG/1.1/DTD/svg11.dtd">
<svg version="1.1" id="Layer_1" xmlns="http://www.w3.org/2000/svg" xmlns:xlink="http://www.w3.org/1999/xlink" x="0px" y="0px"
	 width="48.667px" height="43.5px" viewBox="-1.045 -1.179 48.667 43.5" enable-background="new -1.045 -1.179 48.667 43.5"
	 xml:space="preserve">
<g>
	<path fill="#DD0000" d="M44.52,0H26.544v11.965h2.843v7.071C27.77,16.642,16.539,0,16.539,0H0v11.965h2.885v17.379H0v11.965h18.402
		V29.344H15.56v-6.669c1.611,2.32,12.942,18.634,12.942,18.634h16.527V29.344h-2.926V11.965h2.926V0H44.52z"/>
	<path fill="#FFFFFF" d="M44.52,11.456V0.509H27.053v10.947h2.842V20.7C27.537,17.206,16.269,0.509,16.269,0.509H0.509v10.947h2.885
		v18.396H0.509v10.945h17.384V29.853h-2.842V21.05c2.353,3.389,13.717,19.749,13.717,19.749H44.52V29.853h-2.926V11.456H44.52z"/>
	<polygon fill="#DD0000" points="43.729,10.664 40.803,10.664 40.803,30.644 43.729,30.644 43.729,40.007 29.182,40.007 
		14.259,18.521 14.259,30.644 17.102,30.644 17.102,40.007 1.301,40.007 1.301,30.644 4.185,30.644 4.185,10.664 1.301,10.664 
		1.301,1.301 15.848,1.301 30.688,23.288 30.688,10.664 27.846,10.664 27.846,1.301 43.729,1.301 	"/>
</g>
</svg>
