<?xml version="1.0" encoding="UTF-8" standalone="no"?>
<!-- Created with Inkscape (http://www.inkscape.org/) -->

<svg
   xmlns:dc="http://purl.org/dc/elements/1.1/"
   xmlns:cc="http://creativecommons.org/ns#"
   xmlns:rdf="http://www.w3.org/1999/02/22-rdf-syntax-ns#"
   xmlns:svg="http://www.w3.org/2000/svg"
   xmlns="http://www.w3.org/2000/svg"
   version="1.1"
   width="173.4257"
   height="200"
   id="svg5514">
  <defs
     id="defs5516">
    <clipPath
       id="clipPath1812">
      <path
         d="m 223.169,320.641 45.164,0 0,52.083 -45.164,0 0,-52.083 z"
         id="path1814" />
    </clipPath>
  </defs>
  <metadata
     id="metadata5519">
    <rdf:RDF>
      <cc:Work
         rdf:about="">
        <dc:format>image/svg+xml</dc:format>
        <dc:type
           rdf:resource="http://purl.org/dc/dcmitype/StillImage" />
        <dc:title></dc:title>
      </cc:Work>
    </rdf:RDF>
  </metadata>
  <g
     transform="translate(-420.34457,-467.77148)"
     id="layer1">
    <path
       d="m 550.42441,545.57747 0,25.2134 7.68383,0 0,63.92056 -5.088,5.08801 -47.15898,0 -5.08799,-5.08801 0,-31.28443 21.09694,0 22.88636,-22.8787 0,-43.81818 -9.60383,-9.60384 7.488,-8.80126 0,-27.05277 -19.99102,-23.50077 -102.30515,0 0,27.9782 10.27198,0 0,79.70295 -10.27198,0 0,27.97437 52.45049,0 0,42.8697 21.4771,21.47325 70.3372,0 21.47325,-21.47325 0,-75.50583 7.68766,0 0,-25.2134 -43.34586,0 z m -91.83349,-49.82779 51.12954,0 4.94208,5.80992 0,6.47807 -4.94208,5.80991 -51.12954,0 0,-18.0979 z m 14.20414,75.04119 0,4.66176 -14.20414,0 0,-33.62685 51.69017,0 6.49728,6.49344 0,20.63998 -6.49728,6.49343 -9.50782,0 0,-4.66176 7.68384,0 0,-25.2134 -43.34972,0 0,25.2134 7.68767,0 z"
       id="path1794"
       style="fill:#FECB00;fill-opacity:1;fill-rule:nonzero;stroke:none" />
    <path
       d="m 554.94754,550.09868 0,16.17022 7.68383,0 0,70.31415 -7.74143,7.7376 -50.90298,0 -7.73759,-7.7376 0,-33.15452 -18.93118,0 0,40.99579 18.8275,18.82367 66.58937,0 18.83133,-18.82367 0,-78.15542 7.67998,0 0,-16.17022 -34.29883,0 z"
       id="path1798"
       style="fill:#003015;fill-opacity:1;fill-rule:nonzero;stroke:none" />
    <path
       d="m 469.63205,566.27005 7.68767,0 0,9.18143 18.93119,0 0,-9.18143 7.68383,0 0,-16.17022 -34.30269,0 0,16.17022 z"
       id="path1802"
       style="fill:#003015;fill-opacity:1;fill-rule:nonzero;stroke:none" />
    <path
       d="m 540.23152,578.67438 0,-40.07035 -11.22815,-11.22815 9.11232,-10.71358 0,-23.72733 -17.55647,-20.63997 -95.69267,0 0,18.93117 10.26814,0 0,88.74998 -10.26814,0 0,18.93117 95.12821,0 20.23676,-20.23294 z m -86.16565,-87.44821 57.742,0 7.37664,8.67071 0,9.8035 -7.37664,8.67072 -57.742,0 0,-27.14493 z m 0,88.74998 0,-42.67387 58.09145,0 9.14302,9.14302 0,24.38397 -9.14302,9.14688 -58.09145,0 z"
       id="path1806"
       style="fill:#003015;fill-opacity:1;fill-rule:nonzero;stroke:none" />
  </g>
</svg>
