<?xml version="1.0" encoding="UTF-8" standalone="no"?>
<!-- Generator: Adobe Illustrator 15.0.0, SVG Export Plug-In . SVG Version: 6.00 Build 0)  -->

<svg
   xmlns:dc="http://purl.org/dc/elements/1.1/"
   xmlns:cc="http://creativecommons.org/ns#"
   xmlns:rdf="http://www.w3.org/1999/02/22-rdf-syntax-ns#"
   xmlns:svg="http://www.w3.org/2000/svg"
   xmlns="http://www.w3.org/2000/svg"
   xmlns:sodipodi="http://sodipodi.sourceforge.net/DTD/sodipodi-0.dtd"
   xmlns:inkscape="http://www.inkscape.org/namespaces/inkscape"
   version="1.1"
   id="Layer_1"
   x="0px"
   y="0px"
   width="213.821px"
   height="175.528px"
   viewBox="0 0 213.821 175.528"
   enable-background="new 0 0 213.821 175.528"
   xml:space="preserve"
   inkscape:version="0.48.1 "
   sodipodi:docname="NewHampshireWildcats.svg"><metadata
   id="metadata3189"><rdf:RDF><cc:Work
       rdf:about=""><dc:format>image/svg+xml</dc:format><dc:type
         rdf:resource="http://purl.org/dc/dcmitype/StillImage" /></cc:Work></rdf:RDF></metadata><defs
   id="defs3187">
	

		
		
		
		
		
	
			
			
			
			
			
			
			
			
			
			
			
			
			
			
			
			
		</defs><sodipodi:namedview
   pagecolor="#ffffff"
   bordercolor="#666666"
   borderopacity="1"
   objecttolerance="10"
   gridtolerance="10"
   guidetolerance="10"
   inkscape:pageopacity="0"
   inkscape:pageshadow="2"
   inkscape:window-width="1680"
   inkscape:window-height="994"
   id="namedview3185"
   showgrid="false"
   inkscape:zoom="4.4266442"
   inkscape:cx="72.008214"
   inkscape:cy="87.764"
   inkscape:window-x="-4"
   inkscape:window-y="-4"
   inkscape:window-maximized="1"
   inkscape:current-layer="Layer_1" />
<g
   id="g3093">
			<g
   id="g3095">
				<path
   d="m 65.709,139.29 c 0,-0.594 -0.548,-0.857 -1.967,-0.817 l -7.988,0.22 -0.283,0.89 c 0.988,0.043 1.407,0.313 1.407,0.843 0,0.387 -0.187,0.886 -0.652,1.644 l -5.676,9.437 -0.29,-12.662 -8.594,0.235 -8.256,13.201 -0.05,-10.676 c 0,-2.008 -0.352,-2.292 -2.66,-2.225 l -9.338,0.258 -0.311,0.935 c 1.653,0.138 2.116,0.566 2.219,1.934 l 0.975,19.566 c 0.101,1.805 0.513,2.073 2.909,1.928 l 7.304,-0.442 7.501,-12.562 -0.147,9.914 c 0,1.946 0.293,2.178 2.436,2.05 l 7.348,-0.447 13.704,-22.239 c 0.272,-0.425 0.409,-0.777 0.409,-0.985 z"
   id="path3097"
   inkscape:connector-curvature="0"
   style="fill:#ffffff" />
				<path
   d="m 73.45,159.249 c 0,-0.208 0.044,-0.381 0.223,-0.976 l 5.356,-18.377 c 0.088,-0.311 0.132,-0.553 0.132,-0.754 0,-0.754 -0.614,-1.079 -2.16,-1.035 l -8.681,0.24 -0.272,0.869 c 0.996,0.112 1.45,0.446 1.45,1.035 0,0.21 -0.044,0.382 -0.224,0.976 l -5.517,18.655 c -0.09,0.321 -0.137,0.603 -0.137,0.778 0,0.768 0.693,1.074 2.245,0.98 l 8.744,-0.532 0.266,-0.875 c -0.977,-0.08 -1.425,-0.36 -1.425,-0.984 z"
   id="path3099"
   inkscape:connector-curvature="0"
   style="fill:#ffffff" />
				<path
   d="m 93.787,155.26 -4.616,0.25 4.574,-16.056 c 0.083,-0.271 0.127,-0.575 0.127,-0.741 0,-0.733 -0.631,-1.052 -2.068,-1.015 l -8.305,0.23 -0.263,0.855 c 0.954,0.108 1.387,0.433 1.387,1.012 0,0.206 -0.042,0.375 -0.217,0.955 l -5.271,18.241 c -0.088,0.275 -0.134,0.583 -0.134,0.789 0,0.721 0.617,1.023 2.057,0.936 l 12.981,-0.791 c 2.092,-0.127 2.555,-0.422 2.966,-1.943 l 1.211,-4.287 -1.165,0.059 c -0.456,1.123 -1,1.386 -3.264,1.506 z"
   id="path3101"
   inkscape:connector-curvature="0"
   style="fill:#ffffff" />
				<path
   d="m 119.904,136.927 -15.589,0.43 -0.245,0.829 c 0.895,0.104 1.3,0.425 1.3,0.98 0,0.198 -0.039,0.362 -0.201,0.927 l -4.953,17.67 c -0.083,0.303 -0.166,0.574 -0.166,0.733 0,0.732 0.665,1.023 2.059,0.938 l 12.43,-0.756 c 2.633,-0.162 3.922,-0.497 5.283,-1.35 1.901,-1.237 3.018,-3.056 4.282,-7.116 1.264,-3.947 1.833,-6.896 1.833,-8.965 0,-1.654 -0.342,-2.662 -1.219,-3.432 -0.919,-0.768 -1.879,-0.965 -4.814,-0.888 z m -3.556,10.887 c -0.94,3.437 -1.652,5.089 -2.479,5.845 -0.558,0.484 -0.95,0.572 -2.984,0.681 l -1.238,0.067 3.591,-12.979 1.854,-0.029 c 1.653,-0.058 2.237,0.372 2.237,1.597 -0.002,0.84 -0.311,2.433 -0.981,4.818 z"
   id="path3103"
   inkscape:connector-curvature="0"
   style="fill:#ffffff" />
				<path
   d="m 140.903,152.725 -2.441,0.13 c -1.065,0.058 -1.469,0.048 -1.873,0.007 -0.886,-0.137 -1.403,-0.804 -1.403,-1.742 0,-0.597 0.185,-1.546 0.628,-3.324 0.556,-2.181 1.219,-4.272 1.623,-5.226 0.659,-1.585 1.282,-2.012 3.067,-2.074 l 3.473,-0.118 c 1.542,-0.051 1.899,-0.31 2.256,-1.71 l 0.645,-2.48 -9.33,0.259 c -5.667,0.153 -7.504,2.261 -9.771,11.306 -0.644,2.699 -0.95,4.363 -0.95,5.665 0,1.844 0.646,3.076 2.047,3.755 1.203,0.592 2.707,0.689 7.124,0.419 5.236,-0.321 6.029,-0.464 6.896,-1.137 0.397,-0.331 0.721,-0.909 0.973,-1.849 l 0.866,-3.321 -0.971,0.05 c -0.396,1.038 -0.904,1.283 -2.859,1.39 z"
   id="path3105"
   inkscape:connector-curvature="0"
   style="fill:#ffffff" />
				<path
   d="m 166.342,153.467 -0.869,-15.941 c -0.034,-0.953 -0.067,-1.159 -0.201,-1.396 -0.235,-0.321 -0.605,-0.43 -1.444,-0.406 l -9.164,0.251 -0.21,0.764 c 0.659,0.045 1.005,0.277 1.005,0.67 0,0.242 -0.173,0.612 -0.555,1.322 l -9.512,16.436 c -0.218,0.352 -0.291,0.602 -0.291,0.849 0,0.555 0.43,0.778 1.397,0.717 l 6.18,-0.379 0.172,-0.768 c -0.698,-0.081 -1.015,-0.308 -1.015,-0.765 0,-0.215 0.105,-0.497 0.279,-0.842 l 1.225,-2.442 5.938,-0.317 0.104,3.222 c 0.036,1.295 0.272,1.489 1.84,1.395 l 6.223,-0.38 0.197,-0.755 c -0.863,-0.098 -1.235,-0.433 -1.299,-1.235 z m -11.194,-5.551 3.79,-7.505 0.24,7.319 -4.03,0.186 z"
   id="path3107"
   inkscape:connector-curvature="0"
   style="fill:#ffffff" />
				<path
   d="m 180.71,139.126 3.037,-0.106 c 1.354,-0.046 1.539,-0.195 1.917,-1.765 l 0.779,-3.074 -0.94,0.022 c -0.312,0.729 -0.719,0.941 -1.816,0.972 l -11.66,0.321 c -1.673,0.048 -1.871,0.2 -2.301,1.897 l -0.793,3.143 0.924,-0.034 c 0.365,-0.842 0.695,-1.031 1.977,-1.045 l 2.057,-0.102 -3.601,14.331 c -0.067,0.268 -0.102,0.504 -0.102,0.654 0,0.651 0.494,0.919 1.61,0.851 l 6.291,-0.384 0.194,-0.742 c -0.671,-0.074 -0.996,-0.319 -0.996,-0.849 0,-0.173 0,-0.32 0.129,-0.824 l 3.294,-13.266 z"
   id="path3109"
   inkscape:connector-curvature="0"
   style="fill:#ffffff" />
				<path
   d="m 189.494,135.477 c -1.021,0.514 -1.918,1.718 -2.478,3.287 -0.469,1.37 -0.841,3.108 -0.841,3.917 0,1.382 0.809,2.239 2.949,3.09 l 2.028,0.763 c 1.165,0.399 1.502,0.754 1.502,1.464 0,0.568 -0.276,1.125 -0.732,1.435 -0.462,0.308 -0.829,0.416 -2.336,0.497 l -2.321,0.124 c -1.779,0.095 -2.248,-0.083 -2.248,-1.034 l -0.881,0.045 -0.753,3.051 c -0.064,0.292 -0.223,0.994 -0.223,1.17 0,0.518 0.348,0.873 0.886,1.015 0.345,0.095 0.719,0.102 1.625,0.046 l 6.126,-0.374 c 2.591,-0.155 3.768,-0.684 4.914,-2.247 0.961,-1.268 1.95,-4.479 1.95,-6.283 0,-0.844 -0.271,-1.537 -0.811,-2.022 -0.389,-0.351 -0.987,-0.663 -2.222,-1.15 l -1.972,-0.771 c -1.003,-0.39 -1.247,-0.633 -1.247,-1.235 0,-0.683 0.303,-1.234 0.854,-1.51 0.36,-0.183 0.759,-0.254 1.85,-0.289 l 2.558,-0.088 c 1.226,-0.039 1.464,-0.274 1.794,-1.549 l 0.476,-2.096 -7.563,0.204 c -1.589,0.042 -2.175,0.147 -2.884,0.54 z"
   id="path3111"
   inkscape:connector-curvature="0"
   style="fill:#ffffff" />
				<path
   d="m 32.963,129.442 7.511,-4.262 c 4.298,1.395 10.724,2.06 19.071,1.965 0.029,0 0.055,0 0.083,0 1.624,0.032 3.136,-0.017 4.539,-0.132 8.606,-0.365 14.363,-1.509 18.39,-3.61 3.004,-1.555 4.118,-2.616 5.903,-9.286 0.004,-0.018 6.801,-25.565 7.934,-29.812 -0.003,0 -0.009,0 -0.012,0 l 3.859,-4.093 c -0.675,-0.902 -2.197,-1.42 -4.764,-1.576 l -20.898,-1.274 -0.581,2.009 c 2.344,0.463 3.592,1.352 3.649,2.738 0.021,0.492 -0.071,0.895 -0.455,2.261 l -8.278,30.685 c -1.278,4.539 -3.375,6.032 -8.66,6.046 -3.281,0.009 -5.236,-0.793 -5.805,-2.44 0.027,0.081 0.044,0.162 0.078,0.238 l -3.887,2.028 c -0.442,-1.192 -0.573,-2.273 -0.602,-2.921 -0.007,-0.181 -0.007,-0.357 -0.007,-0.533 0,-1.475 0.287,-2.675 0.875,-4.949 l 0.017,-0.062 c 0,0 6.982,-24.987 8.415,-30.103 -0.004,0 -0.012,0 -0.014,0 l 4.269,-4.574 c -0.851,-0.788 -2.476,-1.248 -5.047,-1.404 l -23.322,-1.427 -0.649,2.127 c 2.619,0.496 3.888,1.431 3.956,2.9 0.021,0.518 -0.082,0.943 -0.386,2.392 l -9.158,31.914 c -0.766,2.612 -1.383,5.845 -1.309,7.419 0.149,3.292 1.912,5.858 5.285,7.736 z"
   id="path3113"
   inkscape:connector-curvature="0"
   style="fill:#ffffff" />
				<path
   d="m 187.204,124.976 0.007,-0.01 c 1.358,-0.014 4.544,-0.043 7.904,-0.074 0.074,-0.711 5.755,-26.391 7.584,-34.664 l 2.452,-4.078 c -0.561,-0.583 -1.58,-0.904 -3.138,-0.999 l -14.669,-0.895 -0.406,1.687 c 1.639,0.368 2.434,1.096 2.477,2.256 0.013,0.409 -0.053,0.745 -0.24,1.896 l -2.479,10.828 -9.728,-0.312 -3.878,4.032 c 1.657,-7.166 3.31,-14.243 3.719,-16.027 l 3.004,-3.658 c -0.503,-0.82 -1.654,-1.264 -3.702,-1.389 l -16.078,-0.984 -0.444,1.768 c 1.88,0.396 2.753,1.158 2.799,2.374 0.015,0.428 -0.056,0.781 -0.347,1.98 l -8.974,37.882 c -0.147,0.656 -0.213,1.235 -0.199,1.601 0.017,0.439 0.14,0.805 0.356,1.112 l 5.979,-4.059 c 0.802,-0.007 4.897,-0.046 9.224,-0.09 0.084,-0.749 0.25,-1.456 0.441,-2.252 0,0 2.151,-9.27 4.226,-18.231 l 17.913,0.587 c 0,0.016 -0.003,0.03 -0.007,0.044 l -6.117,3.811 -3.959,17.145 c -0.135,0.624 -0.195,1.181 -0.183,1.525 0.011,0.263 0.069,0.492 0.149,0.704 l 5.954,-3.508 h 0.36 z"
   id="path3115"
   inkscape:connector-curvature="0"
   style="fill:#ffffff" />
				<path
   d="m 102.217,125.805 c 0.701,-0.007 3.877,-0.039 7.698,-0.076 0.101,-0.825 0.297,-1.604 0.529,-2.482 l 8.141,-31.923 c 0,0 0.695,1.38 1.791,3.566 0.855,-3.438 1.851,-6.522 2.835,-9.176 0.724,-1.957 1.44,-3.681 2.094,-5.135 -0.646,-0.127 -1.472,-0.208 -2.634,-0.279 l -0.661,-0.04 c -1.769,1.704 -3.541,3.527 -5.053,5.126 -2.311,2.437 -3.99,4.324 -3.99,4.324 -0.215,-1.661 -0.284,-3.173 -0.259,-4.546 0.037,-2.18 0.318,-3.988 0.674,-5.433 l -10.22,-0.623 -0.529,1.929 c 2.254,0.447 3.294,1.286 3.354,2.616 0.014,0.469 -0.07,0.854 -0.421,2.163 l -10.754,41.468 c -0.188,0.562 -0.363,1.356 -0.345,1.833 0.017,0.384 0.13,0.714 0.321,1.003 l 7.431,-4.334 c 0.001,0.003 -10e-4,0.012 -0.002,0.019 z"
   id="path3117"
   inkscape:connector-curvature="0"
   style="fill:#ffffff" />
				<path
   d="m 137.7,103.066 -6.362,-13.046 -0.017,-0.031 c -0.899,0.725 -1.74,1.468 -2.531,2.217 -2.569,2.434 -4.587,4.935 -6.14,7.211 1.368,2.728 2.951,5.875 4.524,9.014 4.207,8.385 8.364,16.658 8.364,16.669 0.071,0.137 0.127,0.246 0.18,0.348 0.532,0.021 1.217,0.018 1.51,0.014 0,0 4.847,-0.047 8.236,-0.081 1.436,-5.99 8.064,-33.6 9.12,-37.99 l 3.156,-3.401 c -0.41,-1.063 -1.715,-1.648 -4.167,-1.799 l -6.288,-0.384 c -2.004,0.568 -4.071,1.313 -6.193,2.259 0.483,0.406 0.729,0.917 0.753,1.543 0.019,0.441 -0.058,0.808 -0.374,2.05 l -3.771,15.407 z"
   id="path3119"
   inkscape:connector-curvature="0"
   style="fill:#ffffff" />
				<path
   d="m 80.456,48.972 -0.354,0.212 12.075,-3.302 4.73,-1.293 c 4.979,-2.865 12.963,-7.72 17.877,-10.908 -0.046,-0.017 -0.093,-0.04 -0.139,-0.057 -0.274,-0.107 -0.56,-0.225 -0.846,-0.35 -0.097,-0.044 -0.189,-0.082 -0.284,-0.126 -0.372,-0.171 -0.749,-0.354 -1.112,-0.558 -0.334,-0.189 -0.645,-0.352 -0.938,-0.501 -6.02,3.728 -17.319,10.381 -31.009,16.883 z"
   id="path3121"
   inkscape:connector-curvature="0"
   style="fill:#ffffff" />
				<path
   d="m 185.958,43.987 c 0,0 -7.375,-6.465 -16.741,-6.906 -4.867,-0.224 -19.337,-0.151 -30.502,12.398 -9.938,11.166 -16.267,23.91 -17.766,26.463 0,0 -0.003,0.001 -0.003,0.003 9.344,-11.162 17.229,-11.155 18.909,-11.008 -0.115,0.022 0.273,-0.056 0.564,-0.091 0,0 -9.478,7.796 -15.063,25.959 0,0 0.111,-0.13 0.289,-0.324 -0.032,0.033 -0.076,0.084 -0.103,0.111 1.634,-2.348 5.626,-7.822 8.907,-10.238 4.238,-3.124 11.98,-6.812 20.223,-6.359 8.241,0.453 17.909,3.027 26.508,3.379 8.598,0.354 6.95,-0.086 8.242,-0.164 l 0.252,-1.676 c 0,0 -38.245,1.813 -38.388,-16.286 0,0 -0.615,-6.85 5.392,-11.467 6.46,-4.962 11.733,-4.493 16.396,-3.473 0,0 -1.398,-2.764 -7.919,-1.803 0,0 0.801,-0.438 2.104,-0.768 -0.037,0.01 -0.081,0.017 -0.12,0.026 6.616,-2.368 11.546,2.244 11.546,2.244 0,0 2.995,2.655 8.44,5.854 4.238,2.49 7.994,0.387 9.452,-0.673 0.363,-0.889 0.527,-1.872 0.359,-2.932 -0.585,-3.688 -4.357,-6.133 -5.607,-6.852 -0.252,-0.144 -0.601,-0.292 -0.767,-0.337 -2.645,-0.728 -4.944,-1.368 -7.946,-1.439 0,0 0.83,0.824 1.757,2.166 1.299,1.891 1.585,4.193 1.585,4.193 z"
   id="path3123"
   inkscape:connector-curvature="0"
   style="fill:#ffffff" />
				<path
   d="m 174.306,33.742 c 2.207,0.545 3.048,-1.059 3.048,-1.059 -0.554,-0.116 -1.109,-0.442 -1.109,-0.442 -0.172,1.033 -1.939,1.501 -1.939,1.501 z"
   id="path3125"
   inkscape:connector-curvature="0"
   style="fill:#ffffff" />
				<path
   d="m 198.711,46.931 c 0,0 -0.027,0.944 -0.217,1.869 0.004,-0.003 0.004,-0.007 0.004,-0.009 0.624,0.28 2.845,1.207 4.502,0.946 1.505,-0.238 2.489,-0.868 2.926,-1.681 0.599,-3.155 -2.463,-6.701 -2.463,-6.701 0,0 -1.011,0.307 -2.055,1.38 -1.779,1.829 -2.697,4.196 -2.697,4.196 z"
   id="path3127"
   inkscape:connector-curvature="0"
   style="fill:#ffffff" />
				<path
   d="m 182.882,52.41 c 0,0 0.303,5.03 -1.814,8.511 0,0 4.438,-3.336 4.731,-6.031 0,0 -2.148,-1.27 -2.917,-2.48 z"
   id="path3129"
   inkscape:connector-curvature="0"
   style="fill:#ffffff" />
				<path
   d="m 197.943,59.191 c 0,0 3.837,-3.014 4.715,-5.464 0,0 -1.814,-0.255 -2.44,-0.542 0,0 -0.899,3.992 -2.275,6.006 z"
   id="path3131"
   inkscape:connector-curvature="0"
   style="fill:#ffffff" />
				<path
   d="m 190.042,69.118 c -1.123,2.107 -4.512,4.042 -5.733,4.685 1.248,0.027 2.604,0.037 4.088,0.03 1.421,-2.173 1.645,-4.715 1.645,-4.715 z"
   id="path3133"
   inkscape:connector-curvature="0"
   style="fill:#ffffff" />
				<path
   d="m 181.055,68.537 c 0,0 -2.458,2.941 -6.017,4.642 1.035,0.141 2.567,0.306 4.65,0.435 0.143,-0.251 1.308,-2.331 1.367,-5.077 z"
   id="path3135"
   inkscape:connector-curvature="0"
   style="fill:#ffffff" />
				<path
   d="m 180.097,24.093 c -0.646,-0.359 -11.735,-6.701 -27.289,-6.571 -10.954,0.093 -19.547,2.736 -23.682,4.295 0,0 0,0.002 -0.003,0.002 0.039,0.012 0.081,0.024 0.121,0.036 0.66,0.206 1.335,0.41 2.017,0.609 0.059,0.016 0.114,0.033 0.169,0.05 0.675,0.195 1.35,0.385 2.016,0.567 0.044,0.013 0.095,0.029 0.139,0.04 h 0.004 c 3.996,-1.5 12.344,-3.854 18.763,-4.066 15.543,-0.509 28.388,5.395 27.745,5.038 z"
   id="path3137"
   inkscape:connector-curvature="0"
   style="fill:#ffffff" />
				<path
   d="m 167.846,29.422 c 0.745,2.735 1.893,5.72 5.351,6.924 0.518,0.179 0.999,0.276 1.458,0.321 0,0 0,0 -0.004,0 1.94,0.191 3.348,-0.72 4.192,-1.804 0.011,-0.013 0.022,-0.028 0.032,-0.042 0.131,-0.169 0.244,-0.342 0.349,-0.514 0.01,-0.021 0.021,-0.042 0.034,-0.062 0.098,-0.173 0.186,-0.349 0.259,-0.518 -0.312,-0.086 -0.618,-0.185 -0.922,-0.287 0,0 -0.066,0.166 -0.229,0.391 -0.157,0.222 -0.411,0.5 -0.786,0.738 -0.002,10e-4 -0.005,0.003 -0.007,0.005 -0.004,0.003 -0.009,0.005 -0.014,0.008 -0.074,0.047 -0.157,0.093 -0.242,0.136 -0.026,0.014 -0.058,0.026 -0.084,0.04 -0.03,0.013 -0.06,0.028 -0.088,0.04 -0.119,0.052 -0.244,0.096 -0.379,0.134 -0.074,0.02 -0.152,0.037 -0.229,0.054 -0.048,0.009 -0.097,0.019 -0.147,0.028 -0.062,0.01 -0.125,0.021 -0.196,0.028 -0.017,0.003 -0.038,0.003 -0.057,0.005 -0.21,0.024 -0.441,0.029 -0.686,0.014 -0.014,0 -0.026,0 -0.04,0 -0.094,-0.005 -0.185,-0.015 -0.279,-0.027 -0.074,-0.006 -0.152,-0.018 -0.23,-0.029 -0.095,-0.015 -0.192,-0.03 -0.29,-0.05 -0.177,-0.035 -0.357,-0.075 -0.549,-0.128 -3.588,-1.003 -4.375,-4.824 -4.657,-5.378 -0.014,-0.033 -0.035,-0.076 -0.058,-0.126 -0.021,-0.048 -0.044,-0.102 -0.074,-0.16 -0.01,-0.024 -0.027,-0.052 -0.037,-0.078 -0.021,-0.04 -0.039,-0.08 -0.064,-0.123 -0.015,-0.031 -0.037,-0.064 -0.054,-0.098 -0.027,-0.043 -0.051,-0.085 -0.08,-0.129 -0.021,-0.037 -0.051,-0.073 -0.076,-0.109 -0.03,-0.046 -0.062,-0.089 -0.096,-0.136 -0.032,-0.04 -0.066,-0.079 -0.099,-0.119 -0.04,-0.046 -0.079,-0.091 -0.125,-0.138 -0.037,-0.042 -0.079,-0.083 -0.125,-0.125 -0.047,-0.046 -0.095,-0.091 -0.15,-0.138 -0.049,-0.042 -0.099,-0.081 -0.152,-0.123 -0.061,-0.046 -0.122,-0.091 -0.189,-0.136 -0.058,-0.04 -0.118,-0.08 -0.181,-0.118 -0.073,-0.044 -0.147,-0.088 -0.227,-0.131 -0.069,-0.036 -0.141,-0.073 -0.215,-0.109 -0.088,-0.042 -0.18,-0.082 -0.275,-0.122 -0.08,-0.033 -0.159,-0.066 -0.244,-0.095 -0.106,-0.038 -0.218,-0.074 -0.33,-0.108 -0.093,-0.028 -0.183,-0.056 -0.28,-0.081 -0.125,-0.033 -0.257,-0.06 -0.391,-0.09 -0.104,-0.021 -0.205,-0.043 -0.316,-0.062 -0.146,-0.025 -0.301,-0.045 -0.46,-0.065 -0.115,-0.015 -0.225,-0.031 -0.345,-0.043 -0.055,-0.005 -0.11,-0.009 -0.166,-0.014 -0.078,-0.005 -0.162,-0.007 -0.242,-0.014 -0.047,-0.003 -0.096,-0.005 -0.14,-0.007 -0.125,-0.006 -0.242,-0.017 -0.372,-0.021 -0.062,-0.001 -0.127,0 -0.188,-0.001 -0.015,0 -0.031,0 -0.045,0 -0.146,-0.002 -0.3,0.001 -0.452,0.002 -0.118,10e-4 -0.227,-0.001 -0.35,0.003 -0.004,0 -0.007,0 -0.014,0 h 0.003 c 1.402,0.142 4.474,0.688 5.049,2.787 z"
   id="path3139"
   inkscape:connector-curvature="0"
   style="fill:#ffffff" />
				<path
   d="m 120.317,24.689 c 6.886,2.855 19.812,0.406 19.812,0.406 0,0 1.045,-0.05 1.091,-0.05 -0.025,0 -0.286,-0.005 -0.719,-0.016 l -0.035,0.002 c -0.198,-0.005 -0.64,-0.017 -1.026,-0.03 -0.022,0 -0.045,0 -0.066,-0.001 -0.173,-0.005 -0.335,-0.01 -0.451,-0.014 -0.018,-0.001 -0.031,-0.001 -0.048,-0.001 -0.292,-0.01 -0.605,-0.021 -0.94,-0.033 -0.086,-0.003 -0.178,-0.007 -0.271,-0.01 -0.174,-0.007 -0.35,-0.013 -0.536,-0.022 -0.225,-0.007 -0.456,-0.02 -0.691,-0.029 -0.162,-0.009 -0.325,-0.015 -0.49,-0.023 -0.18,-0.008 -0.358,-0.019 -0.543,-0.027 -0.213,-0.011 -0.43,-0.022 -0.649,-0.035 -0.224,-0.013 -0.445,-0.024 -0.675,-0.038 -0.149,-0.01 -0.301,-0.019 -0.455,-0.028 -0.312,-0.02 -0.622,-0.04 -0.936,-0.062 -0.132,-0.008 -0.264,-0.018 -0.397,-0.028 -0.262,-0.021 -0.522,-0.04 -0.784,-0.06 -0.111,-0.009 -0.224,-0.016 -0.337,-0.026 -0.345,-0.028 -0.687,-0.058 -1.024,-0.089 -0.112,-0.01 -0.222,-0.021 -0.33,-0.032 -0.347,-0.034 -0.691,-0.068 -1.033,-0.104 -0.081,-0.009 -0.161,-0.019 -0.24,-0.026 -0.299,-0.035 -0.597,-0.07 -0.886,-0.106 -0.081,-0.01 -0.163,-0.02 -0.24,-0.03 -0.333,-0.043 -0.656,-0.089 -0.973,-0.138 -0.076,-0.012 -0.15,-0.023 -0.229,-0.035 -0.321,-0.052 -0.638,-0.103 -0.935,-0.159 -0.031,-0.005 -0.058,-0.012 -0.087,-0.017 -0.279,-0.053 -0.541,-0.109 -0.796,-0.166 -0.053,-0.013 -0.108,-0.025 -0.161,-0.036 -0.261,-0.062 -0.502,-0.126 -0.73,-0.193 -0.044,-0.014 -0.092,-0.028 -0.136,-0.043 -0.228,-0.069 -0.442,-0.142 -0.632,-0.219 -4.179,-1.724 -6.198,-4.113 -12.154,-6.416 0,0 0.001,0.035 0.008,0.095 0,0.018 0.002,0.051 0.004,0.073 0.003,0.057 0.01,0.117 0.02,0.204 0.002,0.048 0.011,0.111 0.016,0.169 0.01,0.084 0.022,0.169 0.032,0.271 0.01,0.078 0.021,0.164 0.034,0.252 0.015,0.108 0.032,0.219 0.051,0.338 0.017,0.102 0.033,0.205 0.052,0.314 0.022,0.134 0.051,0.274 0.078,0.419 0.023,0.115 0.046,0.227 0.072,0.35 0.034,0.17 0.078,0.353 0.12,0.536 0.027,0.11 0.053,0.215 0.08,0.33 0.074,0.293 0.157,0.597 0.252,0.912 0,0 0,0 0.003,0 1.837,0.444 2.346,0.421 8.231,3.365 0.224,0.107 0.452,0.207 0.679,0.306 z"
   id="path3141"
   inkscape:connector-curvature="0"
   style="fill:#ffffff" />
				<path
   d="m 200.82,39.677 c -0.024,-0.045 -0.038,-0.08 -0.063,-0.126 -0.074,-0.145 -0.165,-0.307 -0.26,-0.475 -0.014,-0.021 -0.022,-0.038 -0.036,-0.059 -0.095,-0.165 -0.208,-0.34 -0.328,-0.518 -0.021,-0.032 -0.038,-0.062 -0.059,-0.093 -0.104,-0.155 -0.229,-0.315 -0.351,-0.476 -0.045,-0.062 -0.084,-0.121 -0.135,-0.185 -0.117,-0.149 -0.256,-0.304 -0.391,-0.456 -0.067,-0.076 -0.125,-0.151 -0.196,-0.229 -0.215,-0.229 -0.448,-0.459 -0.7,-0.687 -1.16,-1.035 -4.442,-1.917 -5.74,-2.235 -0.435,0.066 3.473,1.668 4.476,2.816 0.195,0.225 0.377,0.444 0.542,0.654 0.013,0.014 0.02,0.025 0.029,0.038 1.142,1.45 1.613,2.548 1.863,2.946 0.058,0 0.117,0 0.176,-0.003 0.099,-0.002 0.188,-0.019 0.283,-0.022 0.41,-0.02 0.826,-0.037 1.212,-0.097 0.009,-0.002 0.018,-0.003 0.025,-0.003 -0.021,-0.06 -0.086,-0.231 -0.199,-0.481 -0.038,-0.089 -0.096,-0.201 -0.148,-0.309 z"
   id="path3143"
   inkscape:connector-curvature="0"
   style="fill:#ffffff" />
			</g>
		</g><path
   style="fill:#A3A9AC;fill-opacity:1"
   inkscape:connector-curvature="0"
   id="path3147"
   d="m 213.405,91.654 c 0.288,-1.346 0.416,-2.492 0.416,-3.629 l -0.005,-0.49 c -0.233,-6.748 -4.713,-11.238 -11.689,-11.72 0,0 -2.496,-0.176 -4.987,-0.349 0.036,-0.243 1,-6.369 1,-6.369 0,0 -1.064,-0.015 -1.964,-0.025 0.012,-0.236 0.037,-0.492 0.037,-0.712 0,-0.236 -0.025,-0.423 -0.037,-0.641 0.046,-0.027 0.603,-0.347 0.603,-0.347 6.229,-3.59 9.848,-8.339 11.205,-10.365 0.487,-0.336 0.973,-0.675 0.973,-0.675 2.695,-2.246 4.338,-5.645 4.505,-9.324 0.011,-0.212 0.016,-0.423 0.016,-0.635 0,-3.096 -1.106,-6.021 -3.064,-8.469 -0.783,-2.812 -3.009,-6.605 -7.805,-9.061 -0.021,-0.051 -0.03,-0.098 -0.054,-0.151 -0.769,-1.939 -2.368,-5.985 -7.155,-8.007 0,0 -1.164,-0.564 -2.184,-0.494 -1.04,0.069 -2.062,0.742 -2.112,0.752 -0.33,-0.167 -0.732,-0.401 -1.25,-0.748 -3.494,-3.038 -9.189,-7.886 -17.01,-9.968 C 169.532,9.345 166.235,8.774 162.855,8.396 161.001,7.004 148.032,2.437 141.869,0 c 0,0 4,3.411 5.665,8.299 -6.31,0.607 -12.942,1.959 -19.81,4.057 -1.159,0.354 -2.6,0.912 -4.337,1.67 -0.125,-0.078 -0.438,-0.267 -0.438,-0.267 -4.326,-2.65 -10.25,-6.28 -16.741,-7.833 l -8.935,-2.14 3.404,8.547 c 0.011,0.023 0.961,2.436 1.375,5.267 0.321,2.199 0.944,4.335 1.796,6.369 -5.55,3.032 -18.462,10.08 -18.462,10.08 -23.592,13.018 -50.318,27.763 -62.401,31.298 -0.398,0.085 -7.654,1.63 -7.654,1.63 l -6.534,20.9 c 0,0 1.777,-0.321 3.154,1.052 1.558,1.558 0.623,4.238 0.605,4.19 C 9.101,105.167 0,136.871 0,136.871 l 4.031,35.305 14.806,3.353 c 0,0 172.375,-11.952 172.754,-11.978 1.634,0.013 7.229,-0.238 10.585,-3.941 2.916,-3.217 3.625,-8.148 3.778,-9.603 0.056,-0.314 5.496,-30.192 5.496,-30.192 0,0 -2.156,0.189 -2.924,-0.735 -0.823,-0.988 -0.409,-3.129 -0.409,-3.17 1.94,-8.896 5.288,-24.256 5.288,-24.256 z m -11.853,31.997 c 1.199,0.198 4.279,0.416 4.279,0.416 l -4.595,25.248 c 0,0 -0.408,4.688 -2.593,7.096 -2.273,2.51 -7.196,2.376 -7.196,2.376 L 19.206,170.726 8.381,168.275 4.843,137.276 18.62,89.273 c 0,0 0.808,-1.715 -0.252,-3.585 -1.059,-1.869 -3.343,-1.768 -3.343,-1.768 l 4.021,-12.864 5.164,-1.1 c 16.831,-4.874 59.793,-30.084 86.052,-44.058 -1.769,-2.579 -3.014,-5.691 -3.494,-8.984 -0.507,-3.486 -1.665,-6.354 -1.665,-6.354 7.103,1.699 13.814,6.434 17.972,8.833 2.508,-1.171 4.564,-2.027 6.041,-2.48 9.492,-2.9 17.527,-4.061 24.376,-4.21 -0.335,-2.151 -3.821,-5.769 -3.821,-5.769 7.735,3.06 10.475,5.307 11.2,6.005 4.063,0.362 7.624,1.063 10.747,1.894 6.651,1.772 11.546,5.857 15.38,9.194 1.086,0.742 1.992,1.237 2.753,1.561 1.997,0.567 3.795,-0.512 3.795,-0.512 2.975,1.255 3.971,3.839 4.599,5.421 0.425,1.042 0.499,1.803 0.499,1.803 6.869,2.42 7.366,7.725 7.366,7.725 4.005,4.008 3.203,9.891 -0.104,12.646 -0.553,0.461 -1.426,0.985 -1.426,0.985 0,0 -3.23,5.642 -10.077,9.589 0,0 1.367,-2.278 2.562,-5.86 1.194,-3.583 1.245,-4.86 1.245,-4.86 -0.773,-0.461 -0.773,-0.461 -0.765,-0.456 0.005,0.003 -0.005,-0.003 -0.009,-0.005 -0.015,-0.01 -3.169,3.808 -9.416,3.387 -2.373,4.882 -10.622,9.663 -10.622,9.663 0.088,-0.154 2.876,-4.427 3.516,-8.911 0.187,-3.292 -0.388,-5.917 -1.407,-6.908 -1.021,-0.997 -2.443,-2.415 -5.702,-1.785 -3.261,0.634 -4.414,3.808 -4.414,3.808 1.263,1.309 1.958,3.264 1.011,6.185 -0.916,2.826 -2.601,4.4 -4.11,6.212 -1.511,1.813 -0.788,4.079 0.61,5.548 1.4,1.474 4.678,2.475 6.308,2.664 3.205,-1.397 7.7,-4.431 9.413,-7.639 0,0 0.559,4.967 -0.753,8.765 0,0 2.902,-1.163 4.864,-2.473 1.96,-1.312 4.407,-4.314 4.407,-4.314 0,0 1.167,2.609 -0.975,7.5 l 2.414,0.028 -0.954,6.068 10.171,0.707 c 6.127,0.423 7.17,4.646 7.255,7.126 0.005,0.11 0.005,0.22 0.005,0.33 0,0.792 -0.095,1.625 -0.305,2.614 -0.001,0.001 -5.597,25.658 -7.2,33.012 z" /><path
   style="fill:#A3A9AC;fill-opacity:1"
   inkscape:connector-curvature="0"
   id="path3149"
   d="m 59.339,82.358 c -1.433,5.115 -8.415,30.103 -8.415,30.103 l -0.017,0.062 c -0.588,2.274 -0.875,3.475 -0.875,4.949 0,0.176 0,0.353 0.007,0.533 0.028,0.647 0.159,1.729 0.602,2.921 l 3.887,-2.028 c -0.034,-0.076 -0.051,-0.157 -0.078,-0.238 -0.023,-0.064 -0.051,-0.132 -0.068,-0.203 -0.06,-0.227 -0.104,-0.46 -0.114,-0.714 -0.032,-0.756 0.064,-1.265 0.668,-3.619 l 9.119,-32.92 c 0.201,-0.571 0.277,-1.479 0.261,-1.894 -0.009,-0.195 -0.046,-0.372 -0.097,-0.547 -0.016,-0.052 -0.035,-0.104 -0.054,-0.153 -0.048,-0.126 -0.106,-0.244 -0.178,-0.357 -0.029,-0.046 -0.051,-0.095 -0.081,-0.137 -0.088,-0.12 -0.189,-0.233 -0.307,-0.338 l -0.005,0.007 -4.269,4.574 c 0.002,-10e-4 0.01,-10e-4 0.014,-10e-4 z" /><path
   style="fill:#A3A9AC;fill-opacity:1"
   inkscape:connector-curvature="0"
   id="path3151"
   d="m 96.394,84.305 c -1.133,4.247 -7.93,29.795 -7.934,29.812 -1.785,6.67 -2.899,7.731 -5.903,9.286 -4.026,2.102 -9.783,3.245 -18.39,3.61 -1.403,0.115 -2.915,0.164 -4.539,0.132 -0.028,0 -0.054,0 -0.083,0 -8.348,0.095 -14.773,-0.57 -19.071,-1.965 l -7.511,4.262 -0.025,0.017 c 0.242,0.134 0.499,0.264 0.76,0.391 0.039,0.019 0.076,0.042 0.116,0.061 0.512,0.245 1.061,0.479 1.637,0.697 0.083,0.032 0.167,0.062 0.253,0.095 0.57,0.211 1.17,0.409 1.799,0.592 0.082,0.023 0.167,0.046 0.251,0.069 0.644,0.18 1.309,0.35 2.013,0.504 0.023,0.007 0.043,0.01 0.063,0.016 0.703,0.15 1.443,0.287 2.208,0.414 0.138,0.021 0.276,0.046 0.419,0.067 0.746,0.117 1.52,0.222 2.322,0.313 0.148,0.019 0.301,0.031 0.451,0.049 0.815,0.088 1.648,0.165 2.52,0.229 0.038,0 0.074,0.007 0.114,0.007 0.893,0.066 1.824,0.112 2.772,0.15 0.188,0.009 0.376,0.016 0.563,0.022 0.936,0.032 1.894,0.053 2.882,0.059 0.194,0.004 0.39,0.002 0.587,0.004 1.04,0.003 2.102,-0.002 3.204,-0.023 12.481,-0.244 19.988,-1.695 25.334,-4.538 4.844,-2.554 6.647,-5.293 8.664,-12.883 l 8.466,-32.094 c 0.272,-0.928 0.343,-1.711 0.317,-2.264 -0.008,-0.224 -0.045,-0.43 -0.111,-0.623 -0.012,-0.032 -0.034,-0.061 -0.047,-0.095 -0.06,-0.155 -0.134,-0.308 -0.235,-0.444 -0.005,-0.009 -0.009,-0.019 -0.014,-0.027 l -0.005,0.005 -3.859,4.093 c 0.003,0 0.009,0 0.012,0 z" /><path
   style="fill:#A3A9AC;fill-opacity:1"
   inkscape:connector-curvature="0"
   id="path3153"
   d="m 116.27,129.26 c -2.073,-0.277 -3.091,-0.959 -3.146,-2.348 -0.019,-0.464 0.066,-0.851 0.406,-2.168 l 4.916,-19.422 0.018,0.031 c 0.439,-3.748 1.114,-7.259 1.912,-10.464 -1.096,-2.187 -1.791,-3.566 -1.791,-3.566 l -8.141,31.923 c -0.232,0.879 -0.429,1.657 -0.529,2.482 -3.821,0.037 -6.997,0.069 -7.698,0.076 0.001,-0.007 0.003,-0.016 0.003,-0.019 l -7.431,4.334 -0.009,0.004 c 0.007,0.008 0.016,0.019 0.023,0.028 0.039,0.056 0.09,0.104 0.136,0.155 0.065,0.081 0.139,0.154 0.222,0.226 0.062,0.052 0.127,0.102 0.199,0.148 0.093,0.066 0.198,0.125 0.308,0.18 0.073,0.038 0.143,0.077 0.222,0.113 0.191,0.081 0.397,0.152 0.629,0.216 0.071,0.019 0.157,0.032 0.235,0.051 0.181,0.041 0.372,0.08 0.578,0.108 0.105,0.017 0.217,0.03 0.328,0.042 0.208,0.025 0.43,0.046 0.66,0.06 0.107,0.005 0.218,0.014 0.333,0.019 0.35,0.014 0.715,0.021 1.111,0.014 l 16.095,-0.3 0.411,-1.923 z" /><path
   style="fill:#A3A9AC;fill-opacity:1"
   inkscape:connector-curvature="0"
   id="path3155"
   d="m 145.465,125.38 c -3.39,0.034 -8.236,0.081 -8.236,0.081 -0.293,0.004 -0.978,0.007 -1.51,-0.014 -0.053,-0.102 -0.108,-0.211 -0.18,-0.348 0,-0.011 -4.157,-8.284 -8.364,-16.669 -1.573,-3.139 -3.156,-6.286 -4.524,-9.014 -1.9,2.787 -3.103,5.223 -3.771,6.762 l 0.241,0.474 10.73,21.193 c 1.423,2.831 1.805,3.051 5.703,2.979 l 11.588,-0.213 10.549,-44.286 c 0.154,-0.567 0.212,-1.211 0.198,-1.645 -0.009,-0.231 -0.058,-0.438 -0.125,-0.638 -0.009,-0.02 -0.007,-0.045 -0.014,-0.067 l -0.01,0.012 -3.156,3.401 c -1.055,4.392 -7.684,32.002 -9.119,37.992 z" /><path
   style="fill:#A3A9AC;fill-opacity:1"
   inkscape:connector-curvature="0"
   id="path3157"
   d="m 173.067,104.663 3.9,-4.054 2.965,-13.067 c 0.137,-0.617 0.201,-1.1 0.183,-1.514 -0.007,-0.198 -0.032,-0.381 -0.078,-0.557 -0.017,-0.051 -0.039,-0.097 -0.058,-0.146 -0.044,-0.122 -0.088,-0.243 -0.153,-0.352 -0.004,-0.007 -0.006,-0.017 -0.013,-0.023 l -10e-4,0.005 -3.004,3.658 c -0.409,1.785 -2.081,8.883 -3.741,16.05 z" /><path
   style="fill:#A3A9AC;fill-opacity:1"
   inkscape:connector-curvature="0"
   id="path3159"
   d="m 191.006,105.255 -17.913,-0.587 c -2.074,8.962 -4.226,18.231 -4.226,18.231 -0.191,0.796 -0.357,1.503 -0.441,2.252 -4.326,0.044 -8.422,0.083 -9.224,0.09 l -5.979,4.059 h -0.005 c 0.054,0.078 0.12,0.146 0.186,0.212 0.068,0.069 0.146,0.134 0.227,0.194 0.073,0.056 0.147,0.108 0.23,0.157 0.065,0.039 0.137,0.074 0.211,0.109 0.106,0.05 0.222,0.092 0.342,0.136 0.062,0.021 0.12,0.044 0.187,0.062 0.194,0.056 0.407,0.104 0.632,0.141 0.062,0.01 0.132,0.017 0.198,0.023 0.194,0.027 0.399,0.048 0.615,0.061 0.075,0.007 0.146,0.014 0.226,0.018 0.291,0.012 0.594,0.019 0.925,0.012 l 16.229,-0.296 0.426,-1.759 c -1.806,-0.252 -2.646,-0.873 -2.692,-2.14 -0.015,-0.421 0.051,-0.772 0.339,-1.972 l 3.512,-15.33 9.873,0.177 -10e-4,0.006 10e-4,-0.002 6.117,-3.811 c 0.002,-0.013 0.005,-0.027 0.005,-0.043 z" /><path
   style="fill:#A3A9AC;fill-opacity:1"
   inkscape:connector-curvature="0"
   id="path3161"
   d="m 205.489,86.683 c -0.085,-0.194 -0.189,-0.375 -0.338,-0.533 l -2.452,4.078 c -1.829,8.273 -7.51,33.953 -7.584,34.664 -3.36,0.031 -6.546,0.061 -7.904,0.074 l -0.007,0.01 h -0.36 l -5.954,3.508 -0.014,0.007 c 0.021,0.051 0.051,0.093 0.074,0.142 0.03,0.06 0.056,0.122 0.093,0.178 0.046,0.072 0.104,0.136 0.163,0.203 0.065,0.072 0.135,0.142 0.215,0.206 0.084,0.067 0.169,0.134 0.267,0.189 0.069,0.041 0.149,0.071 0.227,0.106 0.085,0.039 0.169,0.078 0.264,0.11 0.088,0.03 0.182,0.058 0.277,0.081 0.104,0.03 0.212,0.054 0.325,0.078 0.102,0.02 0.203,0.037 0.312,0.054 0.139,0.019 0.283,0.034 0.433,0.044 0.104,0.01 0.201,0.021 0.312,0.027 0.264,0.012 0.542,0.019 0.845,0.014 l 14.879,-0.277 0.314,-1.678 c -1.572,-0.242 -2.342,-0.836 -2.381,-2.043 -0.017,-0.403 0.048,-0.737 0.307,-1.885 l 7.703,-35.098 c 0.125,-0.591 0.183,-1.049 0.171,-1.449 -0.009,-0.244 -0.06,-0.459 -0.127,-0.662 -0.02,-0.051 -0.041,-0.1 -0.06,-0.148 z" /><path
   style="fill:#A3A9AC;fill-opacity:1"
   inkscape:connector-curvature="0"
   id="path3163"
   d="m 163.817,52.065 c 1.958,3.232 -3.119,8.499 -3.119,8.499 3.55,-11.291 -2.144,-10.554 -2.144,-10.554 -4.187,2.981 -6.424,13.929 1.021,18.233 8.131,4.705 10.175,4.022 10.175,4.022 -2.756,-0.563 -5.878,-2.545 -6.612,-4.46 -0.544,-1.424 -0.197,-3.392 1.194,-4.963 0.733,-0.831 2.885,-2.478 3.994,-5.035 0.526,-1.208 1.404,-4.212 -0.387,-5.589 -2.155,-1.66 -4.122,-0.153 -4.122,-0.153 z" /><path
   style="fill:#A3A9AC;fill-opacity:1"
   inkscape:connector-curvature="0"
   id="path3165"
   d="m 181.181,77.374 c -8.599,-0.352 -18.267,-2.926 -26.508,-3.379 -8.242,-0.453 -15.984,3.235 -20.223,6.359 -3.281,2.416 -7.273,7.891 -8.907,10.238 0.026,-0.027 0.07,-0.078 0.103,-0.111 0.044,-0.048 0.085,-0.099 0.139,-0.154 0.078,-0.086 0.175,-0.188 0.276,-0.296 0.062,-0.067 0.125,-0.13 0.195,-0.206 0.124,-0.129 0.266,-0.272 0.411,-0.42 0.078,-0.078 0.144,-0.146 0.227,-0.229 0.198,-0.198 0.423,-0.416 0.66,-0.643 0.051,-0.044 0.088,-0.085 0.139,-0.133 0.292,-0.275 0.61,-0.567 0.952,-0.876 0.093,-0.084 0.203,-0.176 0.299,-0.264 0.257,-0.227 0.518,-0.455 0.8,-0.691 0.147,-0.127 0.316,-0.262 0.472,-0.391 0.253,-0.21 0.505,-0.416 0.773,-0.629 0.188,-0.149 0.387,-0.301 0.58,-0.452 0.266,-0.204 0.529,-0.405 0.809,-0.613 0.216,-0.161 0.444,-0.323 0.669,-0.485 0.281,-0.2 0.565,-0.401 0.857,-0.603 0.244,-0.167 0.494,-0.333 0.746,-0.499 0.301,-0.199 0.61,-0.398 0.924,-0.595 0.266,-0.166 0.532,-0.332 0.807,-0.497 0.323,-0.195 0.657,-0.39 0.997,-0.582 0.281,-0.162 0.565,-0.323 0.857,-0.48 0.353,-0.192 0.716,-0.379 1.083,-0.564 0.294,-0.152 0.588,-0.303 0.891,-0.448 0.391,-0.189 0.797,-0.369 1.199,-0.55 0.298,-0.132 0.589,-0.268 0.894,-0.396 0.458,-0.193 0.934,-0.372 1.405,-0.552 0.267,-0.102 0.527,-0.21 0.798,-0.305 0.754,-0.269 1.523,-0.519 2.312,-0.747 7.354,-2.124 18.265,0.116 26.846,1.176 11.225,1.385 15.565,0.151 15.565,0.151 l 0.196,-1.299 c -1.293,0.079 0.354,0.519 -8.243,0.165 z" /><path
   style="fill:#A3A9AC;fill-opacity:1"
   inkscape:connector-curvature="0"
   id="path3167"
   d="m 203,49.736 c -1.657,0.261 -3.878,-0.666 -4.502,-0.946 0,0.002 0,0.006 -0.004,0.009 -0.04,0.219 -0.1,0.429 -0.16,0.633 -0.019,0.057 -0.037,0.11 -0.056,0.165 -0.075,0.209 -0.159,0.406 -0.261,0.559 0,0 3.978,2.26 6.289,0.464 0.258,-0.2 0.476,-0.409 0.665,-0.624 0.085,-0.094 0.147,-0.194 0.218,-0.292 0.094,-0.123 0.189,-0.243 0.265,-0.371 0.07,-0.123 0.126,-0.249 0.183,-0.376 0.047,-0.105 0.1,-0.21 0.137,-0.315 0.047,-0.138 0.083,-0.277 0.115,-0.416 0.017,-0.065 0.042,-0.129 0.052,-0.195 -0.001,0.009 -0.014,0.015 -0.015,0.024 -0.437,0.813 -1.421,1.443 -2.926,1.681 z" /><path
   style="fill:#A3A9AC;fill-opacity:1"
   inkscape:connector-curvature="0"
   id="path3169"
   d="m 187.125,49.862 c -5.445,-3.199 -8.44,-5.854 -8.44,-5.854 0,0 -4.93,-4.612 -11.546,-2.244 0.039,-0.01 0.083,-0.016 0.12,-0.026 0.188,-0.048 0.384,-0.093 0.592,-0.135 0.053,-0.012 0.104,-0.019 0.159,-0.029 0.236,-0.045 0.481,-0.083 0.74,-0.114 0.032,-0.003 0.058,-0.008 0.09,-0.012 0.279,-0.031 0.57,-0.052 0.871,-0.062 0.074,-0.001 0.15,-0.001 0.225,-0.003 0.254,-0.003 0.515,0.003 0.78,0.019 0.069,0.003 0.132,0.005 0.202,0.01 0.32,0.025 0.646,0.064 0.982,0.123 0.08,0.013 0.161,0.032 0.239,0.047 0.277,0.054 0.562,0.121 0.846,0.202 0.088,0.024 0.172,0.046 0.26,0.073 0.349,0.108 0.704,0.237 1.061,0.39 0.069,0.03 0.141,0.067 0.21,0.098 0.303,0.138 0.608,0.295 0.913,0.469 0.093,0.053 0.188,0.104 0.28,0.162 0.371,0.223 0.737,0.468 1.108,0.75 0.04,0.032 0.084,0.071 0.125,0.104 0.331,0.259 0.659,0.547 0.985,0.857 0.097,0.09 0.191,0.183 0.288,0.277 0.367,0.368 0.733,0.758 1.098,1.199 0,0 8.114,10.926 14.646,6.221 0.259,-0.188 0.511,-0.397 0.756,-0.616 0.053,-0.05 0.104,-0.103 0.152,-0.152 0.189,-0.178 0.37,-0.363 0.539,-0.559 0.058,-0.067 0.111,-0.135 0.164,-0.203 0.159,-0.194 0.31,-0.397 0.446,-0.61 0.046,-0.072 0.094,-0.141 0.136,-0.214 0.141,-0.234 0.262,-0.476 0.372,-0.726 0.019,-0.042 0.046,-0.081 0.061,-0.122 -0.003,0.002 -0.005,0.005 -0.008,0.007 -1.458,1.06 -5.214,3.163 -9.452,0.673 z" /><path
   style="fill:#A3A9AC;fill-opacity:1"
   inkscape:connector-curvature="0"
   id="path3171"
   d="m 139.426,64.914 c -2.332,-0.071 -9.775,0.632 -18.479,11.031 0,0 0,0.002 -0.002,0.004 l 0.002,-0.002 0.065,-0.037 c 0.087,-0.066 0.27,-0.207 0.492,-0.379 0.014,-0.009 0.025,-0.019 0.039,-0.029 0.152,-0.116 0.326,-0.248 0.531,-0.402 0.079,-0.059 0.166,-0.125 0.252,-0.19 0.167,-0.126 0.343,-0.256 0.536,-0.399 0.134,-0.099 0.273,-0.201 0.419,-0.31 0.169,-0.123 0.346,-0.252 0.528,-0.386 0.194,-0.141 0.391,-0.284 0.6,-0.433 0.159,-0.117 0.327,-0.235 0.498,-0.355 0.243,-0.173 0.486,-0.347 0.747,-0.527 0.159,-0.11 0.323,-0.226 0.487,-0.339 0.285,-0.197 0.569,-0.394 0.867,-0.597 0.146,-0.098 0.293,-0.196 0.439,-0.294 0.332,-0.224 0.665,-0.446 1.008,-0.673 0.085,-0.057 0.173,-0.112 0.258,-0.166 1.274,-0.83 2.614,-1.657 3.95,-2.415 0.097,-0.056 0.189,-0.112 0.284,-0.166 0.33,-0.183 0.652,-0.355 0.978,-0.527 0.192,-0.105 0.389,-0.21 0.58,-0.31 0.293,-0.149 0.576,-0.286 0.862,-0.424 0.22,-0.105 0.445,-0.217 0.661,-0.315 0.266,-0.122 0.522,-0.23 0.783,-0.338 0.229,-0.097 0.453,-0.193 0.677,-0.277 0.241,-0.093 0.474,-0.173 0.705,-0.252 0.229,-0.076 0.451,-0.151 0.671,-0.215 0.212,-0.062 0.42,-0.112 0.624,-0.159 0.119,-0.027 0.309,-0.069 0.423,-0.091 -0.112,-0.011 -0.313,-0.025 -0.485,-0.028 z" /><path
   style="fill:#A3A9AC;fill-opacity:1"
   inkscape:connector-curvature="0"
   id="path3173"
   d="m 80.103,49.185 0,0 0.354,-0.212 c 13.69,-6.502 24.989,-13.155 31.011,-16.883 -0.095,-0.04 -0.079,-0.037 -0.115,-0.057 -0.093,-0.046 -0.188,-0.096 -0.277,-0.139 -0.28,-0.133 -0.535,-0.246 -0.779,-0.345 -0.061,-0.023 -0.12,-0.046 -0.178,-0.07 -0.215,-0.083 -0.423,-0.155 -0.613,-0.214 -0.019,-0.004 -0.041,-0.014 -0.06,-0.02 -0.206,-0.062 -0.393,-0.104 -0.573,-0.138 -0.046,-0.01 -0.092,-0.017 -0.137,-0.023 -0.173,-0.03 -0.339,-0.05 -0.496,-0.058 -0.976,0.578 -1.974,1.166 -2.981,1.76 -0.271,0.157 -0.544,0.319 -0.814,0.478 -0.473,0.278 -0.944,0.556 -1.423,0.835 -0.766,0.452 -1.539,0.902 -2.316,1.357 -0.019,0.011 -0.036,0.021 -0.057,0.033 -11.457,6.692 -23.733,13.607 -30.983,16.388 h 0.005 c -0.71,0.272 -1.392,0.52 -1.998,0.708 l 12.43,-3.4 z" /><path
   style="fill:#A3A9AC;fill-opacity:1"
   inkscape:connector-curvature="0"
   id="path3175"
   d="m 181.248,34.136 c 0.002,0 0.005,0 0.007,0 6.367,1.583 10.941,4.102 13.784,6.053 0.432,0.078 0.89,0.148 1.358,0.21 0.058,0.009 0.118,0.017 0.176,0.024 0.457,0.058 0.925,0.102 1.394,0.133 0.048,0.003 0.093,0.005 0.143,0.007 0.426,0.025 0.852,0.038 1.274,0.032 0.029,0 0.06,-10e-4 0.088,-10e-4 -0.25,-0.398 -0.722,-1.496 -1.863,-2.946 -0.01,-0.013 -0.017,-0.024 -0.029,-0.038 -0.165,-0.21 -0.347,-0.429 -0.542,-0.654 -1.003,-1.148 -4.91,-2.75 -4.476,-2.816 1.298,0.318 4.58,1.201 5.74,2.235 0.252,0.228 0.485,0.458 0.7,0.687 0.071,0.078 0.129,0.153 0.196,0.229 0.135,0.152 0.273,0.307 0.391,0.456 0.051,0.063 0.09,0.123 0.135,0.185 0.122,0.161 0.247,0.321 0.351,0.476 0.021,0.031 0.037,0.061 0.059,0.093 0.12,0.178 0.233,0.353 0.328,0.518 0.014,0.021 0.022,0.038 0.036,0.059 0.095,0.167 0.186,0.33 0.26,0.475 0.025,0.046 0.039,0.081 0.063,0.126 0.052,0.108 0.109,0.221 0.148,0.31 0.113,0.25 0.178,0.421 0.199,0.481 0,0 0,-0.002 0.002,-0.002 0.446,-0.072 0.879,-0.162 1.265,-0.302 0,0 -0.639,-5.67 -8.45,-6.281 -0.001,-10e-4 -6.531,1.442 -12.737,0.251 z" /><path
   style="fill:#A3A9AC;fill-opacity:1"
   inkscape:connector-curvature="0"
   id="path3177"
   d="m 96.908,44.589 9.46,-2.587 -8.613,13.264 22.966,-7.439 1.539,11.25 c 3.441,-4.794 19.297,-22.538 31.519,-26.682 0,0 -0.081,0.045 -0.204,0.116 -0.058,0.036 -0.141,0.083 -0.229,0.136 -0.032,0.019 -0.062,0.036 -0.095,0.059 -0.071,0.043 -0.154,0.094 -0.237,0.144 -0.072,0.048 -0.157,0.096 -0.241,0.149 -0.069,0.043 -0.146,0.093 -0.226,0.142 -0.113,0.071 -0.238,0.15 -0.366,0.235 -0.071,0.045 -0.143,0.091 -0.217,0.14 -0.11,0.073 -0.23,0.152 -0.354,0.233 -0.049,0.032 -0.09,0.058 -0.137,0.091 -0.06,0.037 -0.115,0.075 -0.173,0.113 -0.012,0.008 -0.021,0.014 -0.032,0.021 -0.152,0.103 -0.316,0.214 -0.48,0.327 -0.049,0.033 -0.089,0.061 -0.139,0.094 -0.042,0.027 -0.084,0.057 -0.127,0.086 -0.017,0.012 -0.032,0.024 -0.051,0.036 -0.236,0.164 -0.485,0.338 -0.74,0.521 -0.054,0.038 -0.1,0.07 -0.154,0.107 -0.28,0.204 -0.576,0.417 -0.881,0.643 -0.027,0.023 -0.058,0.043 -0.09,0.064 -0.045,0.034 -0.098,0.077 -0.144,0.112 -0.483,0.359 -0.998,0.752 -1.528,1.169 -0.119,0.092 -0.23,0.18 -0.353,0.276 -0.571,0.452 -1.168,0.942 -1.778,1.456 -0.132,0.111 -0.265,0.222 -0.399,0.338 -0.633,0.538 -1.277,1.103 -1.939,1.705 -0.11,0.098 -0.219,0.2 -0.323,0.298 -0.693,0.638 -1.397,1.297 -2.11,2.002 -0.018,0.014 -0.031,0.028 -0.046,0.042 -0.005,0.008 -0.014,0.014 -0.021,0.023 -0.014,0.013 -0.03,0.029 -0.042,0.043 -0.041,0.038 -0.078,0.076 -0.115,0.113 -0.388,0.385 -0.778,0.779 -1.17,1.184 -0.011,0.013 -0.024,0.026 -0.037,0.04 -0.062,0.066 -0.126,0.133 -0.188,0.199 -0.025,0.025 -0.049,0.052 -0.072,0.077 -0.355,0.37 -0.709,0.746 -1.061,1.131 -0.003,0.003 -0.007,0.007 -0.009,0.01 -0.121,0.129 -0.241,0.267 -0.363,0.4 0,10e-4 0,10e-4 -0.002,0.003 -0.03,0.031 -0.059,0.066 -0.088,0.097 -0.433,0.481 -0.867,0.974 -1.304,1.479 -0.007,0.011 -0.016,0.021 -0.025,0.031 -0.312,0.366 -0.624,0.733 -0.936,1.111 -0.001,0.005 -0.006,0.008 -0.01,0.012 -0.135,0.166 -0.272,0.335 -0.407,0.504 -0.018,0.021 -0.034,0.038 -0.048,0.057 -0.166,0.206 -0.331,0.418 -0.497,0.627 -0.271,0.345 -0.541,0.688 -0.812,1.042 -0.023,0.03 -0.046,0.058 -0.071,0.088 -0.213,0.285 -0.43,0.577 -0.643,0.869 -0.22,0.3 -0.441,0.6 -0.661,0.907 -0.014,0.019 -0.027,0.036 -0.041,0.057 -0.266,0.375 -0.529,0.752 -0.796,1.139 -0.012,0.02 -0.025,0.041 -0.039,0.062 -0.154,0.228 -0.308,0.454 -0.462,0.686 -0.005,0.007 -0.007,0.014 -0.014,0.017 -0.065,0.102 -0.13,0.207 -0.196,0.308 -0.358,0.545 -0.713,1.094 -1.062,1.658 -0.005,0.008 -0.011,0.015 -0.014,0.022 -0.086,0.14 -0.169,0.284 -0.254,0.424 -0.323,0.535 -0.645,1.072 -0.957,1.62 -0.003,0.007 -0.009,0.014 -0.01,0.021 -0.182,0.311 -0.354,0.632 -0.526,0.952 -0.208,0.377 -0.416,0.752 -0.619,1.138 -0.008,0.017 -0.015,0.034 -0.026,0.05 -0.212,0.411 -0.42,0.832 -0.628,1.249 -0.017,0.034 -0.032,0.067 -0.049,0.101 -0.347,0.704 -0.682,1.421 -1.008,2.149 -0.002,0.005 -0.005,0.01 -0.009,0.016 l 0,0 c -0.147,0.333 -0.299,0.663 -0.444,1.001 0,0.003 0,0.003 -0.004,0.007 -0.188,0.443 -0.368,0.898 -0.548,1.35 -0.025,0.059 -0.049,0.118 -0.072,0.179 -0.108,0.271 -0.221,0.54 -0.327,0.817 -0.001,0.012 -0.008,0.022 -0.012,0.032 -0.159,0.426 -0.314,0.862 -0.465,1.299 -0.425,1.197 -0.83,2.418 -1.188,3.677 -0.004,0.007 -0.006,0.013 -0.006,0.019 -0.245,0.854 -0.472,1.718 -0.683,2.601 l 0.003,-0.003 c 1.499,-2.553 7.828,-15.297 17.766,-26.463 11.165,-12.549 25.635,-12.622 30.502,-12.398 9.366,0.44 16.741,6.906 16.741,6.906 0,0 -0.286,-2.302 -1.585,-4.191 -0.927,-1.341 -1.757,-2.166 -1.757,-2.166 0,0 -5.14,-0.191 -7.962,-0.962 -0.459,-0.045 -0.94,-0.142 -1.458,-0.321 -3.458,-1.204 -4.605,-4.189 -5.351,-6.924 -0.575,-2.1 -3.646,-2.645 -5.049,-2.786 -0.365,0.013 -0.747,0.035 -1.156,0.072 l 0.233,-0.196 c 0.166,-0.119 0.4,-0.268 0.354,-0.237 4.359,-3.911 11.498,0.963 11.498,0.963 11.197,6.435 19.15,2.75 21.28,2.013 -0.448,-0.688 -1.13,-1.367 -2.168,-1.848 -0.912,0.624 -5.522,2.921 -17.749,-3.223 0,0 8.054,2.815 11.854,2.374 -0.577,-0.287 -1.203,-0.635 -1.888,-1.059 -3.438,-2.133 -9.32,-9.017 -22.321,-10.034 -10.746,-0.841 -21.888,-0.473 -35.207,4.628 -0.054,0.024 -0.137,0.062 -0.198,0.084 -0.001,0.002 -0.012,0.005 -0.015,0.007 -0.264,0.121 -0.707,0.332 -1.245,0.592 0.926,0.349 1.966,0.7 3.058,1.043 4.135,-1.559 12.728,-4.202 23.682,-4.295 15.554,-0.129 26.643,6.212 27.289,6.571 0.644,0.357 -12.202,-5.546 -27.746,-5.039 -6.419,0.212 -14.767,2.566 -18.763,4.066 3.405,0.933 6.477,1.657 7.366,1.863 0,0.003 0.046,0.01 0.09,0.019 0.062,0.009 0.134,0.023 0.176,0.043 l 0,0 c -0.046,0 -1.091,0.05 -1.091,0.05 0,0 -12.926,2.45 -19.812,-0.406 -0.232,-0.096 -0.462,-0.199 -0.682,-0.309 -5.886,-2.943 -6.395,-2.92 -8.231,-3.365 0.526,1.733 1.385,3.753 2.784,5.58 1.131,1.48 2.61,2.833 4.556,3.807 0,0 -1.735,0.601 -3.622,0.451 0,0 9.47,5.674 23.842,2.264 0,0 -14.833,5.458 -25.623,3.647 0,0 2.75,-0.842 4.335,-2.2 0,0 -1.381,-0.304 -3.029,-0.94 0.046,0.017 0.093,0.04 0.139,0.057 -4.914,3.186 -12.898,8.042 -17.877,10.906 z" /><path
   d="m 115.09,141.398 -1.854,0.029 -3.591,12.979 1.238,-0.067 c 2.034,-0.108 2.427,-0.196 2.984,-0.681 0.827,-0.756 1.539,-2.408 2.479,-5.845 0.67,-2.386 0.979,-3.979 0.979,-4.819 0.002,-1.223 -0.582,-1.653 -2.235,-1.596 z"
   id="path3179"
   inkscape:connector-curvature="0"
   style="fill:#003591;fill-opacity:1" /><polygon
   points="159.179,147.73 158.938,140.411 155.148,147.916 "
   id="polygon3181"
   style="fill:#003591;fill-opacity:1" /><path
   d="m 209.056,88.025 c 0,-0.11 0,-0.22 -0.005,-0.33 -0.085,-2.48 -1.128,-6.703 -7.255,-7.126 l -10.171,-0.707 0.954,-6.068 -2.414,-0.028 c 2.142,-4.891 0.975,-7.5 0.975,-7.5 0,0 -2.447,3.001 -4.407,4.314 -1.962,1.31 -4.864,2.473 -4.864,2.473 1.312,-3.798 0.753,-8.765 0.753,-8.765 -1.713,3.208 -6.208,6.242 -9.413,7.639 -1.63,-0.189 -4.907,-1.19 -6.308,-2.664 -1.398,-1.469 -2.121,-3.735 -0.61,-5.548 1.51,-1.812 3.194,-3.386 4.11,-6.212 0.947,-2.92 0.252,-4.875 -1.011,-6.185 0,0 1.153,-3.173 4.414,-3.808 3.259,-0.63 4.681,0.788 5.702,1.785 1.02,0.992 1.594,3.617 1.407,6.908 -0.64,4.483 -3.428,8.757 -3.516,8.911 0,0 8.249,-4.781 10.622,-9.663 6.247,0.421 9.401,-3.396 9.416,-3.387 0.004,0.002 0.014,0.009 0.009,0.005 -0.009,-0.005 -0.009,-0.005 0.765,0.456 0,0 -0.051,1.277 -1.245,4.86 -1.194,3.582 -2.562,5.86 -2.562,5.86 6.847,-3.947 10.077,-9.589 10.077,-9.589 0,0 0.873,-0.524 1.426,-0.985 3.308,-2.755 4.109,-8.638 0.104,-12.646 0,0 -0.497,-5.305 -7.366,-7.725 0,0 -0.074,-0.761 -0.499,-1.803 -0.628,-1.582 -1.624,-4.166 -4.599,-5.421 0,0 -1.798,1.08 -3.795,0.512 -0.761,-0.324 -1.667,-0.819 -2.753,-1.561 -3.834,-3.336 -8.729,-7.421 -15.38,-9.194 -3.123,-0.831 -6.684,-1.532 -10.747,-1.894 -0.726,-0.699 -3.465,-2.945 -11.2,-6.005 0,0 3.486,3.617 3.821,5.769 -6.849,0.149 -14.884,1.31 -24.376,4.21 -1.477,0.453 -3.533,1.309 -6.041,2.48 -4.157,-2.398 -10.869,-7.133 -17.972,-8.833 0,0 1.158,2.869 1.665,6.354 0.48,3.293 1.726,6.405 3.494,8.984 -26.257,13.975 -69.219,39.185 -86.05,44.059 l -5.164,1.1 -4.021,12.864 c 0,0 2.284,-0.102 3.343,1.768 1.06,1.87 0.252,3.585 0.252,3.585 l -13.778,48.001 3.538,30.999 10.825,2.451 172.241,-11.938 c 0,0 4.923,0.134 7.196,-2.376 2.185,-2.408 2.593,-7.096 2.593,-7.096 l 4.595,-25.248 c 0,0 -3.08,-0.218 -4.279,-0.416 1.604,-7.354 7.199,-33.012 7.199,-33.012 0.21,-0.989 0.305,-1.822 0.305,-2.614 z M 190.042,69.118 c 0,0 -0.224,2.542 -1.646,4.715 -1.483,0.007 -2.84,-0.003 -4.088,-0.03 1.222,-0.643 4.611,-2.577 5.734,-4.685 z m -8.987,-0.581 c -0.059,2.747 -1.224,4.827 -1.366,5.077 -2.083,-0.129 -3.615,-0.294 -4.65,-0.435 3.558,-1.701 6.016,-4.642 6.016,-4.642 z M 168.327,57.808 c -1.109,2.557 -3.261,4.204 -3.994,5.035 -1.392,1.571 -1.738,3.54 -1.194,4.963 0.734,1.915 3.856,3.896 6.612,4.46 0,0 -2.044,0.683 -10.175,-4.022 -7.445,-4.304 -5.208,-15.251 -1.021,-18.233 0,0 5.693,-0.737 2.144,10.554 0,0 5.077,-5.267 3.119,-8.499 0,0 1.967,-1.508 4.123,0.153 1.79,1.377 0.913,4.381 0.386,5.589 z m 12.74,3.113 c 2.117,-3.48 1.814,-8.511 1.814,-8.511 0.77,1.209 2.917,2.479 2.917,2.479 -0.292,2.695 -4.731,6.032 -4.731,6.032 z m 16.876,-1.73 c 1.376,-2.014 2.274,-6.006 2.274,-6.006 0.626,0.287 2.44,0.542 2.44,0.542 -0.877,2.45 -4.714,5.464 -4.714,5.464 z m 5.52,-17.836 c 0,0 3.062,3.546 2.463,6.701 0.001,-0.009 0.014,-0.015 0.015,-0.024 -0.01,0.065 -0.035,0.129 -0.052,0.195 -0.032,0.139 -0.068,0.278 -0.115,0.416 -0.037,0.105 -0.09,0.21 -0.137,0.315 -0.057,0.127 -0.112,0.253 -0.183,0.376 -0.075,0.128 -0.171,0.249 -0.265,0.371 -0.07,0.098 -0.133,0.198 -0.218,0.292 -0.189,0.215 -0.407,0.424 -0.665,0.624 -2.312,1.796 -6.289,-0.464 -6.289,-0.464 0.102,-0.153 0.186,-0.35 0.261,-0.559 0.019,-0.055 0.037,-0.108 0.056,-0.165 0.061,-0.204 0.12,-0.415 0.16,-0.633 0.189,-0.925 0.217,-1.869 0.217,-1.869 0,0 0.918,-2.367 2.697,-4.195 1.044,-1.074 2.055,-1.381 2.055,-1.381 z m -1.028,-1.19 c -0.386,0.14 -0.818,0.23 -1.265,0.302 -0.002,0 -0.002,0.002 -0.002,0.002 -0.008,0 -0.017,10e-4 -0.025,0.003 0,0 -0.005,0 -0.007,10e-4 -0.475,0.075 -0.978,0.104 -1.486,0.118 -0.002,0 -0.002,0 -0.002,0 -0.059,0.003 -0.118,0.003 -0.176,0.003 -0.028,0 -0.059,10e-4 -0.088,10e-4 -0.423,0.005 -0.849,-0.005 -1.274,-0.032 -0.05,-0.002 -0.095,-0.004 -0.143,-0.007 -0.469,-0.032 -0.937,-0.075 -1.394,-0.133 -0.058,-0.007 -0.118,-0.015 -0.176,-0.024 -0.469,-0.062 -0.927,-0.132 -1.358,-0.21 -2.843,-1.952 -7.417,-4.47 -13.784,-6.053 -0.002,0 -0.005,0 -0.007,0 6.206,1.191 12.736,-0.252 12.736,-0.252 7.812,0.61 8.451,6.281 8.451,6.281 z M 69.663,51.877 c 7.25,-2.781 19.526,-9.696 30.983,-16.388 0.021,-0.012 0.038,-0.022 0.057,-0.033 0.777,-0.455 1.551,-0.906 2.316,-1.357 0.479,-0.28 0.95,-0.557 1.423,-0.835 0.271,-0.159 0.544,-0.32 0.814,-0.478 1.01,-0.597 2.003,-1.182 2.981,-1.76 l 0,0 c 0.157,0.008 0.323,0.028 0.496,0.058 0.045,0.006 0.091,0.013 0.137,0.023 0.181,0.033 0.367,0.076 0.573,0.138 0.019,0.005 0.041,0.016 0.06,0.02 0.19,0.059 0.398,0.131 0.613,0.214 0.058,0.024 0.117,0.047 0.178,0.07 0.244,0.1 0.502,0.212 0.779,0.345 0.089,0.043 0.185,0.093 0.277,0.139 0.327,0.163 0.672,0.342 1.053,0.558 0.363,0.204 0.74,0.387 1.112,0.558 0.095,0.044 0.188,0.083 0.284,0.126 0.286,0.125 0.571,0.242 0.846,0.35 1.648,0.636 3.029,0.94 3.029,0.94 -1.585,1.357 -4.335,2.2 -4.335,2.2 10.79,1.811 25.623,-3.647 25.623,-3.647 -14.372,3.41 -23.842,-2.264 -23.842,-2.264 1.887,0.15 3.622,-0.451 3.622,-0.451 -1.945,-0.974 -3.425,-2.327 -4.556,-3.807 -1.399,-1.827 -2.258,-3.847 -2.784,-5.58 -0.003,0 -0.003,0 -0.003,0 -0.095,-0.315 -0.178,-0.619 -0.252,-0.912 -0.027,-0.114 -0.053,-0.219 -0.08,-0.33 -0.042,-0.183 -0.086,-0.366 -0.12,-0.536 -0.026,-0.123 -0.049,-0.235 -0.072,-0.35 -0.027,-0.146 -0.056,-0.285 -0.078,-0.419 -0.019,-0.109 -0.035,-0.212 -0.052,-0.314 -0.019,-0.119 -0.036,-0.23 -0.051,-0.338 -0.014,-0.088 -0.024,-0.174 -0.034,-0.252 -0.01,-0.101 -0.022,-0.186 -0.032,-0.271 -0.005,-0.058 -0.014,-0.121 -0.016,-0.169 -0.01,-0.086 -0.017,-0.147 -0.02,-0.204 -0.002,-0.021 -0.004,-0.055 -0.004,-0.073 -0.007,-0.06 -0.008,-0.095 -0.008,-0.095 5.956,2.303 7.976,4.692 12.154,6.416 0.189,0.077 0.404,0.15 0.632,0.219 0.044,0.015 0.092,0.029 0.136,0.043 0.229,0.067 0.47,0.131 0.73,0.193 0.053,0.011 0.108,0.023 0.161,0.036 0.255,0.057 0.517,0.113 0.796,0.166 0.029,0.005 0.056,0.012 0.087,0.017 0.297,0.056 0.613,0.107 0.935,0.159 0.078,0.012 0.152,0.023 0.229,0.035 0.316,0.048 0.64,0.095 0.973,0.138 0.077,0.01 0.159,0.02 0.24,0.03 0.289,0.036 0.587,0.072 0.886,0.106 0.079,0.008 0.159,0.018 0.24,0.026 0.342,0.036 0.687,0.071 1.033,0.104 0.108,0.011 0.218,0.021 0.33,0.032 0.338,0.031 0.68,0.062 1.024,0.089 0.113,0.01 0.226,0.018 0.337,0.026 0.262,0.02 0.522,0.04 0.784,0.06 0.134,0.01 0.266,0.02 0.397,0.028 0.313,0.022 0.624,0.042 0.936,0.062 0.154,0.009 0.306,0.018 0.455,0.028 0.229,0.013 0.451,0.025 0.675,0.038 0.22,0.012 0.437,0.024 0.649,0.035 0.185,0.009 0.363,0.019 0.543,0.027 0.165,0.008 0.328,0.014 0.49,0.023 0.235,0.01 0.467,0.022 0.691,0.029 0.187,0.009 0.362,0.015 0.536,0.022 0.093,0.003 0.185,0.007 0.271,0.01 0.335,0.013 0.648,0.023 0.94,0.033 0.017,0 0.03,0 0.048,0.001 0.155,0.005 0.308,0.01 0.451,0.014 0.021,10e-4 0.044,10e-4 0.066,10e-4 0.421,0.013 0.777,0.021 1.062,0.028 0.433,0.01 0.693,0.016 0.719,0.016 h -0.003 c -0.004,-0.002 -0.076,-0.019 -0.185,-0.043 -0.027,-0.007 -0.044,-0.01 -0.078,-0.019 -0.89,-0.206 -3.961,-0.93 -7.366,-1.863 h -0.004 c -0.044,-0.011 -0.095,-0.026 -0.139,-0.04 -0.666,-0.182 -1.341,-0.372 -2.016,-0.567 -0.055,-0.017 -0.11,-0.034 -0.169,-0.05 -0.682,-0.199 -1.356,-0.403 -2.017,-0.609 -0.04,-0.012 -0.082,-0.024 -0.121,-0.036 0.003,0 0.003,-0.002 0.003,-0.002 -1.092,-0.343 -2.132,-0.695 -3.058,-1.043 -0.007,-0.001 -0.012,-0.003 -0.017,-0.005 0.507,-0.255 0.92,-0.444 1.262,-0.587 0.003,-10e-4 0.014,-0.005 0.015,-0.007 0.062,-0.022 0.145,-0.061 0.198,-0.084 13.319,-5.101 24.461,-5.469 35.207,-4.628 13.001,1.017 18.883,7.901 22.321,10.034 0.685,0.424 1.311,0.772 1.888,1.059 -3.8,0.441 -11.854,-2.374 -11.854,-2.374 12.227,6.144 16.837,3.847 17.749,3.223 1.038,0.481 1.72,1.16 2.168,1.848 -2.13,0.736 -10.083,4.421 -21.28,-2.013 0,0 -7.139,-4.874 -11.498,-0.963 0.047,-0.031 -0.188,0.118 -0.354,0.237 l -0.233,0.196 c 0.409,-0.037 0.791,-0.059 1.156,-0.072 h -0.003 c 0.007,0 0.01,0 0.014,0 0.123,-0.004 0.231,-0.002 0.35,-0.003 0.152,-0.001 0.307,-0.004 0.452,-0.002 0.014,0 0.03,0 0.045,0 0.062,0.001 0.127,0 0.188,0.001 0.13,0.004 0.247,0.015 0.372,0.021 0.044,0.002 0.093,0.003 0.14,0.007 0.08,0.007 0.164,0.008 0.242,0.014 0.056,0.005 0.111,0.009 0.166,0.014 0.12,0.012 0.229,0.029 0.345,0.043 0.159,0.02 0.314,0.04 0.46,0.065 0.111,0.02 0.213,0.042 0.316,0.062 0.134,0.03 0.266,0.057 0.391,0.09 0.098,0.025 0.188,0.053 0.28,0.081 0.112,0.035 0.224,0.07 0.33,0.108 0.085,0.029 0.164,0.062 0.244,0.095 0.096,0.041 0.188,0.081 0.275,0.122 0.074,0.036 0.146,0.073 0.215,0.109 0.079,0.043 0.153,0.086 0.227,0.131 0.062,0.038 0.123,0.078 0.181,0.118 0.067,0.045 0.129,0.09 0.189,0.136 0.054,0.042 0.104,0.081 0.152,0.123 0.056,0.046 0.104,0.091 0.15,0.138 0.046,0.042 0.088,0.083 0.125,0.125 0.046,0.046 0.085,0.091 0.125,0.138 0.032,0.04 0.066,0.08 0.099,0.119 0.033,0.047 0.065,0.09 0.096,0.136 0.025,0.037 0.055,0.073 0.076,0.109 0.029,0.044 0.053,0.086 0.08,0.129 0.017,0.034 0.039,0.066 0.054,0.098 0.025,0.043 0.044,0.083 0.064,0.123 0.01,0.025 0.027,0.053 0.037,0.078 0.03,0.058 0.053,0.112 0.074,0.16 0.022,0.05 0.044,0.093 0.058,0.126 0.282,0.554 1.069,4.375 4.657,5.378 0.191,0.053 0.372,0.093 0.549,0.128 0.098,0.02 0.195,0.035 0.29,0.05 0.078,0.012 0.156,0.023 0.23,0.029 0.095,0.012 0.186,0.022 0.279,0.027 0.014,0 0.026,0 0.04,0 0.244,0.015 0.476,0.01 0.686,-0.014 0.019,-10e-4 0.04,-10e-4 0.057,-0.005 0.071,-0.007 0.134,-0.018 0.196,-0.028 0.051,-0.009 0.1,-0.019 0.147,-0.028 0.076,-0.017 0.154,-0.034 0.229,-0.054 0.135,-0.038 0.26,-0.083 0.379,-0.134 0.028,-0.012 0.058,-0.026 0.088,-0.04 0.026,-0.014 0.058,-0.026 0.084,-0.04 0.085,-0.043 0.168,-0.089 0.242,-0.136 0.005,-0.003 0.01,-0.005 0.014,-0.008 0.002,-10e-4 0.005,-0.003 0.007,-0.005 0.375,-0.239 0.629,-0.516 0.786,-0.738 0.162,-0.225 0.229,-0.391 0.229,-0.391 0.356,0.121 0.719,0.225 1.084,0.325 -0.004,0 -0.004,-0.002 -0.007,-0.002 -0.055,-0.013 -0.104,-0.026 -0.155,-0.036 -0.073,0.169 -0.161,0.345 -0.259,0.518 -0.014,0.021 -0.024,0.042 -0.034,0.062 -0.104,0.172 -0.218,0.345 -0.349,0.514 -0.01,0.014 -0.021,0.029 -0.032,0.042 -0.845,1.084 -2.252,1.996 -4.192,1.804 0.004,0 0.004,0 0.004,0 2.822,0.771 7.962,0.962 7.962,0.962 2.997,0.071 5.295,0.708 7.932,1.434 0.171,0.046 0.529,0.198 0.781,0.342 1.25,0.719 5.022,3.163 5.607,6.852 0.168,1.06 0.004,2.043 -0.359,2.932 0.003,-10e-4 0.005,-0.005 0.008,-0.007 -0.015,0.042 -0.042,0.08 -0.061,0.122 -0.11,0.25 -0.231,0.492 -0.372,0.726 -0.042,0.073 -0.09,0.142 -0.136,0.214 -0.137,0.212 -0.287,0.416 -0.446,0.61 -0.053,0.068 -0.106,0.136 -0.164,0.203 -0.169,0.195 -0.35,0.381 -0.539,0.559 -0.049,0.049 -0.1,0.103 -0.152,0.152 -0.245,0.219 -0.497,0.428 -0.756,0.616 -6.531,4.705 -14.646,-6.221 -14.646,-6.221 -0.364,-0.441 -0.73,-0.831 -1.098,-1.199 -0.097,-0.095 -0.191,-0.188 -0.288,-0.277 -0.326,-0.31 -0.654,-0.599 -0.985,-0.857 -0.041,-0.033 -0.085,-0.072 -0.125,-0.104 -0.371,-0.282 -0.737,-0.527 -1.108,-0.75 -0.093,-0.058 -0.188,-0.109 -0.28,-0.162 -0.305,-0.174 -0.61,-0.332 -0.913,-0.469 -0.069,-0.031 -0.141,-0.068 -0.21,-0.098 -0.356,-0.152 -0.712,-0.282 -1.061,-0.39 -0.088,-0.026 -0.172,-0.048 -0.26,-0.073 -0.284,-0.082 -0.568,-0.148 -0.846,-0.202 -0.078,-0.015 -0.159,-0.034 -0.239,-0.047 -0.336,-0.058 -0.662,-0.098 -0.982,-0.123 -0.07,-0.005 -0.133,-0.006 -0.202,-0.01 -0.266,-0.016 -0.526,-0.022 -0.78,-0.019 -0.074,0.002 -0.15,0.002 -0.225,0.003 -0.301,0.01 -0.592,0.031 -0.871,0.062 -0.032,0.003 -0.058,0.008 -0.09,0.012 -0.259,0.031 -0.504,0.069 -0.74,0.114 -0.055,0.01 -0.106,0.018 -0.159,0.029 -0.208,0.042 -0.404,0.086 -0.592,0.135 -1.303,0.33 -2.104,0.768 -2.104,0.768 6.521,-0.961 7.919,1.803 7.919,1.803 -4.662,-1.02 -9.936,-1.489 -16.396,3.473 -6.007,4.617 -5.392,11.467 -5.392,11.467 0.143,18.099 38.388,16.286 38.388,16.286 l -0.252,1.676 -0.196,1.299 c 0,0 -4.341,1.233 -15.565,-0.151 -8.581,-1.06 -19.492,-3.3 -26.846,-1.176 -0.788,0.229 -1.558,0.479 -2.312,0.747 -0.271,0.095 -0.531,0.203 -0.798,0.305 -0.472,0.18 -0.947,0.358 -1.405,0.552 -0.305,0.128 -0.596,0.264 -0.894,0.396 -0.402,0.181 -0.809,0.36 -1.199,0.55 -0.303,0.146 -0.597,0.296 -0.891,0.448 -0.367,0.186 -0.73,0.372 -1.083,0.564 -0.292,0.157 -0.576,0.318 -0.857,0.48 -0.34,0.192 -0.674,0.387 -0.997,0.582 -0.274,0.165 -0.541,0.331 -0.807,0.497 -0.313,0.196 -0.623,0.396 -0.924,0.595 -0.252,0.166 -0.502,0.332 -0.746,0.499 -0.292,0.201 -0.576,0.402 -0.857,0.603 -0.225,0.162 -0.453,0.324 -0.669,0.485 -0.279,0.208 -0.543,0.409 -0.809,0.613 -0.193,0.151 -0.393,0.303 -0.58,0.452 -0.269,0.213 -0.521,0.419 -0.773,0.629 -0.155,0.129 -0.324,0.264 -0.472,0.391 -0.282,0.236 -0.543,0.465 -0.8,0.691 -0.096,0.088 -0.206,0.18 -0.299,0.264 -0.342,0.309 -0.66,0.601 -0.952,0.876 -0.051,0.048 -0.088,0.089 -0.139,0.133 -0.237,0.227 -0.462,0.444 -0.66,0.643 -0.083,0.084 -0.148,0.151 -0.227,0.229 -0.146,0.147 -0.287,0.291 -0.411,0.42 -0.07,0.076 -0.133,0.139 -0.195,0.206 -0.102,0.108 -0.198,0.21 -0.276,0.296 -0.054,0.056 -0.095,0.106 -0.139,0.154 -0.178,0.194 -0.289,0.324 -0.289,0.324 5.586,-18.163 15.063,-25.959 15.063,-25.959 -0.291,0.036 -0.612,0.112 -0.931,0.186 -0.204,0.047 -0.412,0.097 -0.624,0.159 -0.22,0.064 -0.442,0.139 -0.671,0.215 -0.231,0.079 -0.464,0.159 -0.705,0.252 -0.224,0.084 -0.448,0.181 -0.677,0.277 -0.261,0.108 -0.518,0.216 -0.783,0.338 -0.216,0.098 -0.441,0.21 -0.661,0.315 -0.286,0.139 -0.569,0.275 -0.862,0.424 -0.191,0.1 -0.388,0.205 -0.58,0.31 -0.325,0.172 -0.647,0.345 -0.978,0.527 -0.095,0.054 -0.188,0.11 -0.284,0.166 -1.336,0.758 -2.676,1.585 -3.95,2.415 -0.085,0.054 -0.173,0.109 -0.258,0.166 -0.343,0.227 -0.676,0.449 -1.008,0.673 -0.146,0.098 -0.294,0.196 -0.439,0.294 -0.298,0.203 -0.582,0.399 -0.867,0.597 -0.164,0.113 -0.328,0.229 -0.487,0.339 -0.261,0.181 -0.504,0.354 -0.747,0.527 -0.171,0.12 -0.339,0.238 -0.498,0.355 -0.209,0.148 -0.405,0.292 -0.6,0.433 -0.183,0.134 -0.359,0.263 -0.528,0.386 -0.146,0.108 -0.285,0.211 -0.419,0.31 -0.193,0.144 -0.369,0.273 -0.536,0.399 -0.086,0.065 -0.173,0.132 -0.252,0.19 -0.205,0.154 -0.379,0.286 -0.531,0.402 -0.014,0.011 -0.025,0.021 -0.039,0.029 -0.358,0.277 -0.562,0.437 -0.562,0.437 0.003,-0.007 0.005,-0.014 0.005,-0.021 l -0.002,0.002 c 0.002,-0.002 0.002,-0.004 0.002,-0.004 0,-0.002 0.003,-0.002 0.003,-0.002 l -0.003,0.002 c 0.211,-0.883 0.438,-1.747 0.683,-2.601 0,-0.006 0.002,-0.012 0.006,-0.019 0.358,-1.259 0.764,-2.479 1.188,-3.677 0.15,-0.437 0.306,-0.873 0.465,-1.299 0.004,-0.01 0.011,-0.021 0.012,-0.032 0.106,-0.277 0.219,-0.546 0.327,-0.817 0.023,-0.061 0.047,-0.12 0.072,-0.179 0.18,-0.452 0.36,-0.907 0.548,-1.35 0.004,-0.003 0.004,-0.003 0.004,-0.007 0.146,-0.338 0.297,-0.668 0.444,-1.001 l 0,0 c 0.004,-0.005 0.007,-0.01 0.009,-0.016 0.326,-0.729 0.661,-1.446 1.008,-2.149 0.017,-0.034 0.032,-0.067 0.049,-0.101 0.208,-0.417 0.416,-0.837 0.628,-1.249 0.012,-0.017 0.019,-0.034 0.026,-0.05 0.203,-0.386 0.411,-0.761 0.619,-1.138 0.173,-0.32 0.345,-0.641 0.526,-0.952 10e-4,-0.007 0.007,-0.014 0.01,-0.021 0.312,-0.548 0.634,-1.085 0.957,-1.62 0.085,-0.14 0.168,-0.284 0.254,-0.424 0.003,-0.007 0.009,-0.014 0.014,-0.022 0.349,-0.563 0.703,-1.113 1.062,-1.658 0.066,-0.101 0.131,-0.206 0.196,-0.308 0.007,-0.003 0.009,-0.01 0.014,-0.017 0.154,-0.231 0.308,-0.458 0.462,-0.686 0.014,-0.021 0.027,-0.042 0.039,-0.062 0.267,-0.387 0.53,-0.765 0.796,-1.139 0.014,-0.021 0.027,-0.038 0.041,-0.057 0.22,-0.308 0.441,-0.607 0.661,-0.907 0.213,-0.292 0.43,-0.583 0.643,-0.869 0.025,-0.03 0.048,-0.058 0.071,-0.088 0.271,-0.354 0.541,-0.697 0.812,-1.042 0.166,-0.209 0.331,-0.421 0.497,-0.627 0.014,-0.019 0.03,-0.036 0.048,-0.057 0.135,-0.169 0.272,-0.338 0.407,-0.504 0.004,-0.003 0.009,-0.007 0.01,-0.012 0.312,-0.378 0.624,-0.746 0.936,-1.111 0.01,-0.01 0.019,-0.02 0.025,-0.031 0.437,-0.505 0.871,-0.999 1.304,-1.479 0.029,-0.031 0.058,-0.066 0.088,-0.097 0.002,-0.002 0.002,-0.002 0.002,-0.003 0.122,-0.133 0.242,-0.271 0.363,-0.4 0.002,-0.003 0.006,-0.007 0.009,-0.01 0.352,-0.385 0.705,-0.761 1.061,-1.131 0.023,-0.025 0.047,-0.051 0.072,-0.077 0.062,-0.066 0.127,-0.133 0.188,-0.199 0.013,-0.014 0.026,-0.026 0.037,-0.04 0.392,-0.405 0.782,-0.799 1.17,-1.184 0.037,-0.037 0.074,-0.075 0.115,-0.113 0.012,-0.014 0.028,-0.03 0.042,-0.043 0.007,-0.009 0.016,-0.015 0.021,-0.023 0.015,-0.014 0.028,-0.027 0.046,-0.042 0.713,-0.705 1.417,-1.365 2.11,-2.002 0.104,-0.099 0.213,-0.2 0.323,-0.298 0.662,-0.602 1.307,-1.167 1.939,-1.705 0.135,-0.116 0.268,-0.228 0.399,-0.338 0.61,-0.514 1.207,-1.004 1.778,-1.456 0.122,-0.096 0.233,-0.185 0.353,-0.276 0.53,-0.417 1.045,-0.81 1.528,-1.169 0.046,-0.035 0.099,-0.078 0.144,-0.112 0.032,-0.021 0.062,-0.042 0.09,-0.064 0.305,-0.226 0.601,-0.439 0.881,-0.643 0.055,-0.037 0.101,-0.069 0.154,-0.107 0.255,-0.183 0.504,-0.357 0.74,-0.521 0.019,-0.012 0.034,-0.024 0.051,-0.036 0.095,-0.064 0.177,-0.119 0.266,-0.18 0.164,-0.113 0.328,-0.224 0.48,-0.327 0.011,-0.007 0.021,-0.013 0.032,-0.021 0.111,-0.074 0.206,-0.136 0.31,-0.205 0.123,-0.082 0.243,-0.161 0.354,-0.233 0.074,-0.048 0.146,-0.095 0.217,-0.14 0.128,-0.084 0.253,-0.164 0.366,-0.235 0.08,-0.048 0.156,-0.098 0.226,-0.142 0.084,-0.053 0.169,-0.101 0.241,-0.149 0.083,-0.049 0.166,-0.101 0.237,-0.144 0.032,-0.022 0.062,-0.04 0.095,-0.059 0.088,-0.053 0.171,-0.101 0.229,-0.136 0.123,-0.071 0.204,-0.116 0.204,-0.116 -12.222,4.144 -28.077,21.888 -31.519,26.682 l -1.539,-11.25 -22.966,7.439 8.613,-13.264 -9.46,2.587 -4.73,1.293 -12.075,3.302 -12.429,3.405 c 0.606,-0.189 1.288,-0.436 1.998,-0.708 H 69.663 z M 177.354,32.683 c 0,0 -0.841,1.604 -3.048,1.059 0,0 1.768,-0.468 1.938,-1.501 0,0 0.556,0.326 1.11,0.442 z m -35.508,52.924 c -0.023,-0.626 -0.27,-1.137 -0.753,-1.543 2.122,-0.945 4.189,-1.69 6.193,-2.259 l 6.288,0.384 c 2.452,0.15 3.757,0.735 4.167,1.799 l 0.01,-0.012 c 0.007,0.022 0.005,0.048 0.014,0.067 0.067,0.2 0.116,0.406 0.125,0.638 0.014,0.434 -0.044,1.077 -0.198,1.645 l -10.549,44.286 -11.588,0.213 c -3.898,0.071 -4.28,-0.148 -5.703,-2.979 l -10.73,-21.193 -0.241,-0.474 c 0.668,-1.539 1.87,-3.975 3.771,-6.762 1.553,-2.276 3.57,-4.777 6.14,-7.211 0.791,-0.749 1.632,-1.492 2.531,-2.217 l 0.017,0.031 6.362,13.046 3.771,-15.409 c 0.315,-1.242 0.391,-1.608 0.373,-2.05 z M 28.987,114.286 38.145,82.372 c 0.304,-1.448 0.407,-1.874 0.386,-2.392 -0.068,-1.47 -1.337,-2.404 -3.956,-2.9 l 0.649,-2.127 23.322,1.427 c 2.571,0.156 4.196,0.616 5.047,1.404 l 0.005,-0.007 c 0.117,0.104 0.219,0.218 0.307,0.338 0.03,0.042 0.052,0.091 0.081,0.137 0.071,0.113 0.13,0.231 0.178,0.357 0.019,0.049 0.038,0.102 0.054,0.153 0.051,0.175 0.088,0.352 0.097,0.547 0.017,0.414 -0.06,1.322 -0.261,1.894 l -9.119,32.92 c -0.604,2.354 -0.7,2.863 -0.668,3.619 0.011,0.254 0.055,0.487 0.114,0.714 0.018,0.071 0.045,0.139 0.068,0.203 0.568,1.647 2.523,2.449 5.805,2.44 5.285,-0.014 7.382,-1.507 8.66,-6.046 l 8.278,-30.685 c 0.384,-1.366 0.476,-1.769 0.455,-2.261 -0.058,-1.387 -1.306,-2.275 -3.649,-2.738 l 0.581,-2.009 20.898,1.274 c 2.566,0.156 4.089,0.674 4.764,1.576 l 0.005,-0.005 c 0.005,0.009 0.009,0.019 0.014,0.027 0.102,0.137 0.176,0.289 0.235,0.444 0.013,0.034 0.035,0.062 0.047,0.095 0.066,0.193 0.104,0.399 0.111,0.623 0.025,0.553 -0.045,1.336 -0.317,2.264 l -8.466,32.094 c -2.017,7.59 -3.82,10.329 -8.664,12.883 -5.346,2.843 -12.853,4.294 -25.334,4.538 -1.103,0.021 -2.164,0.026 -3.204,0.023 -0.197,-0.002 -0.393,0 -0.587,-0.004 -0.988,-0.006 -1.946,-0.026 -2.882,-0.059 -0.188,-0.007 -0.375,-0.014 -0.563,-0.022 -0.948,-0.038 -1.88,-0.084 -2.772,-0.15 -0.04,0 -0.076,-0.007 -0.114,-0.007 -0.871,-0.064 -1.704,-0.142 -2.52,-0.229 -0.15,-0.018 -0.303,-0.03 -0.451,-0.049 -0.803,-0.092 -1.576,-0.196 -2.322,-0.313 -0.143,-0.021 -0.281,-0.046 -0.419,-0.067 -0.765,-0.127 -1.505,-0.264 -2.208,-0.414 -0.021,-0.006 -0.04,-0.009 -0.063,-0.016 -0.704,-0.154 -1.369,-0.324 -2.013,-0.504 -0.084,-0.023 -0.169,-0.046 -0.251,-0.069 -0.629,-0.183 -1.229,-0.381 -1.799,-0.592 -0.039,-0.014 -0.084,-0.025 -0.122,-0.039 -0.046,-0.017 -0.084,-0.039 -0.131,-0.056 -0.576,-0.219 -1.125,-0.452 -1.637,-0.697 -0.04,-0.019 -0.077,-0.042 -0.116,-0.061 -0.261,-0.127 -0.518,-0.257 -0.76,-0.391 l 0.025,-0.017 c -3.373,-1.878 -5.136,-4.444 -5.284,-7.737 -0.075,-1.572 0.543,-4.805 1.308,-7.417 z m 15.26,48.672 c -2.143,0.128 -2.436,-0.104 -2.436,-2.05 l 0.147,-9.914 -7.501,12.562 -7.304,0.442 c -2.396,0.146 -2.809,-0.123 -2.909,-1.928 l -0.975,-19.566 c -0.103,-1.367 -0.565,-1.796 -2.219,-1.934 l 0.311,-0.935 9.338,-0.258 c 2.309,-0.067 2.66,0.217 2.66,2.225 l 0.05,10.676 8.256,-13.201 8.594,-0.235 0.29,12.662 5.676,-9.437 c 0.466,-0.758 0.652,-1.257 0.652,-1.644 0,-0.529 -0.419,-0.8 -1.407,-0.843 l 0.283,-0.89 7.988,-0.22 c 1.419,-0.04 1.967,0.224 1.967,0.817 0,0.208 -0.137,0.56 -0.409,0.985 l -13.705,22.235 -7.347,0.451 z m 30.363,-1.849 -8.744,0.532 c -1.552,0.094 -2.245,-0.213 -2.245,-0.98 0,-0.176 0.047,-0.457 0.137,-0.778 l 5.517,-18.655 c 0.18,-0.594 0.224,-0.766 0.224,-0.976 0,-0.589 -0.454,-0.923 -1.45,-1.035 l 0.272,-0.869 8.681,-0.24 c 1.546,-0.044 2.16,0.281 2.16,1.035 0,0.201 -0.044,0.443 -0.132,0.754 l -5.356,18.377 c -0.179,0.595 -0.223,0.768 -0.223,0.976 0,0.624 0.448,0.904 1.426,0.985 l -0.267,0.874 z m 22.396,-3.127 c -0.411,1.521 -0.874,1.816 -2.966,1.943 l -12.981,0.791 c -1.439,0.088 -2.057,-0.215 -2.057,-0.936 0,-0.206 0.046,-0.514 0.134,-0.789 l 5.271,-18.241 c 0.175,-0.58 0.217,-0.749 0.217,-0.955 0,-0.579 -0.433,-0.903 -1.387,-1.012 l 0.263,-0.855 8.305,-0.23 c 1.438,-0.037 2.068,0.281 2.068,1.015 0,0.166 -0.044,0.471 -0.127,0.741 l -4.574,16.056 4.616,-0.25 c 2.264,-0.12 2.808,-0.383 3.265,-1.506 l 1.165,-0.059 -1.212,4.287 z m 1.647,-26.512 c -0.115,-0.005 -0.226,-0.014 -0.333,-0.019 -0.23,-0.014 -0.452,-0.034 -0.66,-0.06 -0.111,-0.012 -0.223,-0.025 -0.328,-0.042 -0.206,-0.028 -0.397,-0.067 -0.578,-0.108 -0.078,-0.019 -0.164,-0.032 -0.235,-0.051 -0.231,-0.063 -0.438,-0.135 -0.629,-0.216 -0.079,-0.036 -0.148,-0.075 -0.222,-0.113 -0.109,-0.055 -0.215,-0.113 -0.308,-0.18 -0.072,-0.047 -0.137,-0.097 -0.199,-0.148 -0.083,-0.071 -0.156,-0.145 -0.222,-0.226 -0.046,-0.051 -0.097,-0.1 -0.136,-0.155 -0.008,-0.01 -0.017,-0.021 -0.023,-0.028 l 0.009,-0.004 c -0.191,-0.289 -0.305,-0.619 -0.321,-1.003 -0.019,-0.477 0.157,-1.271 0.345,-1.833 l 10.754,-41.468 c 0.351,-1.309 0.435,-1.694 0.421,-2.163 -0.061,-1.33 -1.101,-2.169 -3.354,-2.616 l 0.529,-1.929 10.22,0.623 c -0.355,1.444 -0.637,3.253 -0.674,5.433 -0.025,1.373 0.044,2.885 0.259,4.546 0,0 1.68,-1.888 3.99,-4.324 1.512,-1.599 3.284,-3.422 5.053,-5.126 l 0.661,0.04 c 1.162,0.071 1.987,0.152 2.634,0.279 -0.653,1.454 -1.37,3.178 -2.094,5.135 -0.984,2.653 -1.979,5.738 -2.835,9.176 -0.798,3.205 -1.473,6.716 -1.912,10.464 l -0.018,-0.031 -4.916,19.422 c -0.34,1.317 -0.425,1.704 -0.406,2.168 0.055,1.389 1.072,2.07 3.146,2.348 l -0.41,1.924 -16.095,0.3 c -0.398,0.005 -0.763,-0.002 -1.113,-0.015 z m 25.451,18.743 c -1.265,4.061 -2.381,5.879 -4.282,7.116 -1.361,0.853 -2.65,1.188 -5.283,1.35 l -12.43,0.756 c -1.394,0.085 -2.059,-0.206 -2.059,-0.938 0,-0.159 0.083,-0.431 0.166,-0.733 l 4.953,-17.67 c 0.162,-0.564 0.201,-0.729 0.201,-0.927 0,-0.556 -0.405,-0.876 -1.3,-0.98 l 0.245,-0.829 15.589,-0.43 c 2.935,-0.077 3.895,0.12 4.813,0.89 0.877,0.77 1.219,1.777 1.219,3.432 10e-4,2.066 -0.569,5.016 -1.832,8.963 z m 19.762,4.391 c -0.252,0.939 -0.575,1.518 -0.973,1.849 -0.867,0.673 -1.66,0.815 -6.896,1.137 -4.417,0.271 -5.921,0.173 -7.124,-0.419 -1.4,-0.679 -2.047,-1.911 -2.047,-3.755 0,-1.302 0.307,-2.966 0.95,-5.665 2.267,-9.045 4.104,-11.152 9.771,-11.306 l 9.33,-0.259 -0.645,2.48 c -0.356,1.4 -0.714,1.659 -2.256,1.71 l -3.473,0.118 c -1.785,0.062 -2.408,0.489 -3.067,2.074 -0.404,0.953 -1.067,3.045 -1.623,5.226 -0.443,1.778 -0.628,2.728 -0.628,3.324 0,0.938 0.518,1.605 1.403,1.742 0.404,0.041 0.808,0.051 1.873,-0.007 l 2.441,-0.13 c 1.955,-0.106 2.463,-0.352 2.858,-1.392 l 0.971,-0.05 -0.865,3.323 z m 23.577,0.85 -6.223,0.38 c -1.567,0.095 -1.804,-0.1 -1.84,-1.395 l -0.104,-3.222 -5.938,0.317 -1.225,2.442 c -0.174,0.345 -0.279,0.627 -0.279,0.842 0,0.457 0.316,0.684 1.015,0.765 l -0.172,0.768 -6.18,0.379 c -0.968,0.062 -1.397,-0.162 -1.397,-0.717 0,-0.247 0.073,-0.497 0.291,-0.849 l 9.512,-16.436 c 0.382,-0.71 0.555,-1.08 0.555,-1.322 0,-0.393 -0.346,-0.625 -1.005,-0.67 l 0.21,-0.764 9.164,-0.251 c 0.839,-0.023 1.209,0.085 1.444,0.406 0.134,0.237 0.167,0.443 0.201,1.396 l 0.869,15.941 c 0.064,0.802 0.437,1.138 1.299,1.232 l -0.197,0.758 z m 10.84,-1.389 -0.194,0.742 -6.291,0.384 c -1.116,0.068 -1.61,-0.199 -1.61,-0.851 0,-0.15 0.034,-0.387 0.102,-0.654 l 3.601,-14.331 -2.057,0.102 c -1.281,0.014 -1.611,0.203 -1.977,1.045 l -0.924,0.034 0.793,-3.143 c 0.43,-1.697 0.628,-1.85 2.301,-1.897 l 11.66,-0.321 c 1.098,-0.03 1.504,-0.243 1.816,-0.972 l 0.94,-0.022 -0.779,3.074 c -0.378,1.569 -0.563,1.719 -1.917,1.765 l -3.037,0.106 -3.294,13.267 c -0.129,0.504 -0.129,0.651 -0.129,0.824 0,0.529 0.325,0.774 0.996,0.848 z m 21.184,-17.239 c -0.33,1.274 -0.568,1.51 -1.794,1.549 l -2.558,0.088 c -1.091,0.035 -1.489,0.106 -1.85,0.289 -0.552,0.275 -0.854,0.827 -0.854,1.51 0,0.603 0.244,0.846 1.247,1.235 l 1.972,0.771 c 1.234,0.487 1.833,0.8 2.222,1.15 0.54,0.485 0.811,1.179 0.811,2.022 0,1.805 -0.989,5.016 -1.95,6.283 -1.146,1.563 -2.323,2.092 -4.914,2.247 l -6.126,0.374 c -0.906,0.056 -1.28,0.049 -1.625,-0.046 -0.538,-0.142 -0.886,-0.497 -0.886,-1.015 0,-0.176 0.158,-0.878 0.223,-1.17 l 0.753,-3.051 0.881,-0.045 c 0,0.951 0.469,1.129 2.248,1.034 l 2.321,-0.124 c 1.507,-0.081 1.874,-0.189 2.336,-0.497 0.456,-0.31 0.732,-0.866 0.732,-1.435 0,-0.71 -0.337,-1.064 -1.502,-1.464 l -2.028,-0.763 c -2.141,-0.851 -2.949,-1.708 -2.949,-3.09 0,-0.809 0.372,-2.547 0.841,-3.917 0.56,-1.569 1.456,-2.773 2.478,-3.287 0.709,-0.393 1.295,-0.498 2.885,-0.542 l 7.563,-0.204 -0.477,2.098 z m 6.036,-47.884 -7.703,35.098 c -0.259,1.147 -0.323,1.481 -0.307,1.885 0.039,1.207 0.809,1.801 2.381,2.043 l -0.314,1.678 -14.879,0.277 c -0.303,0.005 -0.581,-0.002 -0.845,-0.014 -0.11,-0.007 -0.207,-0.018 -0.312,-0.027 -0.149,-0.01 -0.294,-0.025 -0.433,-0.044 -0.108,-0.017 -0.21,-0.034 -0.312,-0.054 -0.113,-0.024 -0.222,-0.048 -0.325,-0.078 -0.096,-0.023 -0.189,-0.051 -0.277,-0.081 -0.095,-0.032 -0.179,-0.071 -0.264,-0.11 -0.077,-0.035 -0.157,-0.065 -0.227,-0.106 -0.098,-0.056 -0.183,-0.122 -0.267,-0.189 -0.08,-0.064 -0.149,-0.134 -0.215,-0.206 -0.06,-0.067 -0.117,-0.131 -0.163,-0.203 -0.037,-0.056 -0.062,-0.118 -0.093,-0.178 -0.023,-0.049 -0.054,-0.091 -0.074,-0.142 l 0.014,-0.007 c -0.08,-0.212 -0.139,-0.441 -0.149,-0.704 -0.013,-0.345 0.048,-0.901 0.183,-1.525 l 3.959,-17.145 -0.001,0.002 0.001,-0.006 -9.873,-0.177 -3.512,15.33 c -0.288,1.199 -0.354,1.551 -0.339,1.972 0.046,1.267 0.887,1.888 2.692,2.14 l -0.426,1.759 -16.229,0.296 c -0.331,0.007 -0.634,0 -0.925,-0.012 -0.08,-0.004 -0.15,-0.011 -0.226,-0.018 -0.216,-0.013 -0.421,-0.033 -0.615,-0.061 -0.066,-0.007 -0.136,-0.014 -0.198,-0.023 -0.225,-0.037 -0.438,-0.085 -0.632,-0.141 -0.066,-0.019 -0.124,-0.042 -0.187,-0.062 -0.12,-0.044 -0.235,-0.086 -0.342,-0.136 -0.074,-0.035 -0.146,-0.07 -0.211,-0.109 -0.083,-0.049 -0.157,-0.102 -0.23,-0.157 -0.081,-0.061 -0.158,-0.125 -0.227,-0.194 -0.065,-0.066 -0.132,-0.134 -0.186,-0.212 h 0.005 c -0.217,-0.308 -0.34,-0.673 -0.356,-1.112 -0.014,-0.365 0.052,-0.944 0.199,-1.601 l 8.974,-37.882 c 0.291,-1.199 0.361,-1.553 0.347,-1.98 -0.046,-1.216 -0.919,-1.979 -2.799,-2.374 l 0.444,-1.768 16.078,0.984 c 2.048,0.125 3.199,0.568 3.702,1.389 l 0.001,-0.005 c 0.007,0.007 0.009,0.017 0.013,0.023 0.065,0.108 0.109,0.229 0.153,0.352 0.019,0.049 0.041,0.095 0.058,0.146 0.046,0.176 0.071,0.358 0.078,0.557 0.019,0.414 -0.046,0.896 -0.183,1.514 l -2.965,13.067 9.728,0.312 2.479,-10.828 c 0.188,-1.15 0.253,-1.486 0.24,-1.896 -0.043,-1.16 -0.838,-1.888 -2.477,-2.256 l 0.406,-1.687 14.669,0.895 c 1.558,0.095 2.577,0.416 3.138,0.999 0.148,0.158 0.253,0.339 0.338,0.533 0.019,0.049 0.04,0.098 0.058,0.148 0.067,0.203 0.118,0.418 0.127,0.662 0.016,0.401 -0.042,0.859 -0.167,1.449 z"
   id="path3183"
   inkscape:connector-curvature="0"
   style="fill:#003591;fill-opacity:1" />
</svg>