<?xml version="1.0" encoding="UTF-8" standalone="no"?>
<!-- Created with Inkscape (http://www.inkscape.org/) -->
<svg
   xmlns:svg="http://www.w3.org/2000/svg"
   xmlns="http://www.w3.org/2000/svg"
   version="1.0"
   width="115.535"
   height="138.33749"
   id="svg2"
   xml:space="preserve"><defs
     id="defs5" /><path
     d="M 107.21387,49.10512 L 81.733875,49.10512 L 81.733875,56.27137 L 90.475125,56.27137 L 107.21387,73.43887 L 107.21387,112.56012 L 89.941375,130.00762 L 25.602625,130.00762 L 8.330125,112.56012 L 8.330125,89.22387 L 32.803875,89.22387 L 32.803875,81.06887 L 25.593875,81.06887 L 8.330125,63.48137 L 8.330125,26.33762 L 25.576375,8.33012 L 89.958875,8.33012 L 107.21387,26.33762 L 107.21387,49.10512 z M 23.546375,3.57012 L 3.570125,24.42137 L 3.570125,65.42387 L 22.268875,84.47262 L 3.570125,84.47262 L 3.570125,114.52012 L 23.616375,134.76762 L 91.918875,134.76762 L 111.97387,114.52012 L 111.97387,71.35637 L 94.692625,53.86512 L 111.97387,53.86512 L 111.97387,24.42137 L 91.988875,3.57012 L 23.546375,3.57012 z"
     id="path559"
     style="fill:#000000;fill-opacity:1;fill-rule:nonzero;stroke:none" /><path
     d="M 100.485,134.16374 C 99.37375,134.16374 98.48125,133.26249 98.48125,132.15999 C 98.48125,131.05749 99.37375,130.15624 100.485,130.15624 C 101.5875,130.15624 102.48875,131.05749 102.48875,132.15999 C 102.48875,133.26249 101.5875,134.16374 100.485,134.16374 M 100.485,129.61374 C 99.07625,129.61374 97.93875,130.75124 97.93875,132.15999 C 97.93875,133.56874 99.07625,134.70624 100.485,134.70624 C 101.89375,134.70624 103.03125,133.56874 103.03125,132.15999 C 103.03125,130.75124 101.89375,129.61374 100.485,129.61374"
     id="path563"
     style="fill:#000000;fill-opacity:1;fill-rule:nonzero;stroke:none" /><path
     d="M 100.79137,131.90637 L 100.10887,131.90637 L 100.10887,131.26762 L 100.79137,131.26762 C 100.97512,131.26762 101.11513,131.41637 101.11513,131.59137 C 101.11513,131.76637 100.97512,131.90637 100.79137,131.90637 M 101.65762,131.59137 C 101.65762,131.11012 101.27262,130.72512 100.79137,130.72512 L 99.566375,130.72512 L 99.566375,133.63887 L 100.10887,133.63887 L 100.10887,132.44887 L 100.50262,132.44887 L 101.05387,133.63887 L 101.65762,133.63887 L 101.08887,132.40512 C 101.42137,132.28262 101.65762,131.95887 101.65762,131.59137"
     id="path567"
     style="fill:#000000;fill-opacity:1;fill-rule:nonzero;stroke:none" /><path
     d="M 45.84125,86.37112 L 45.84125,99.16362 L 68.7925,99.16362 L 68.7925,94.70112 L 78.015,94.70112 L 78.015,90.61487 L 68.7925,90.61487 L 68.7925,86.37112 L 45.84125,86.37112 z"
     id="path571"
     style="fill:#000000;fill-opacity:1;fill-rule:nonzero;stroke:none" /><path
     d="M 53.10375,33.12762 L 68.7925,45.40387 L 68.7925,33.12762 L 53.10375,33.12762 z"
     id="path575"
     style="fill:#000000;fill-opacity:1;fill-rule:nonzero;stroke:none" /><path
     d="M 61.810125,56.271245 L 45.823875,43.968745 L 45.823875,56.271245 L 61.810125,56.271245 z"
     id="path579"
     style="fill:#000000;fill-opacity:1;fill-rule:nonzero;stroke:none" /><path
     d="M 26.591375,10.71012 L 10.710125,27.29137 L 10.710125,62.50137 L 26.591375,78.68887 L 33.687625,78.68887 L 41.046375,73.44762 L 73.578875,73.44762 L 81.751375,79.36262 L 81.751375,90.61512 L 80.386375,90.61512 L 80.386375,94.70137 L 81.751375,94.70137 L 81.751375,106.55762 L 73.692625,112.35887 L 41.177625,112.35887 L 32.803875,106.25137 L 32.803875,91.60387 L 10.710125,91.60387 L 10.710125,111.58012 L 26.591375,127.62762 L 88.943875,127.62762 L 104.83387,111.58012 L 104.83387,74.40137 L 89.398875,58.65137 L 81.733875,58.65137 L 81.733875,62.39637 L 69.772625,62.39637 L 64.898875,58.65137 L 45.823875,58.65137 L 45.823875,62.33512 L 32.803875,62.31762 L 32.803875,27.08137 L 45.377625,27.08137 L 50.058875,30.74762 L 68.792625,30.74762 L 68.792625,27.08137 L 81.733875,27.08137 L 81.733875,46.72512 L 104.83387,46.72512 L 104.83387,27.29137 L 88.943875,10.71012 L 26.591375,10.71012 z"
     id="path583"
     style="fill:#CC0000;fill-opacity:1;fill-rule:nonzero;stroke:none" /><path
     d="M 79.35375,60.01637 L 79.35375,29.46137 L 71.1725,29.46137 L 71.1725,50.29512 L 44.555,29.46137 L 35.18375,29.46137 L 35.18375,59.96387 L 43.44375,59.96387 L 43.44375,39.13887 L 70.5775,60.01637 L 79.35375,60.01637 z"
     id="path587"
     style="fill:#CC0000;fill-opacity:1;fill-rule:nonzero;stroke:none" /><path
     d="M 79.38,80.569995 L 72.80875,75.827495 L 41.8075,75.827495 L 35.18375,80.543745 L 35.18375,105.04374 L 41.8775,109.97874 L 72.93125,109.97874 L 79.38,105.34124 L 79.38,97.081245 L 71.1725,97.081245 L 71.1725,101.54374 L 43.46125,101.54374 L 43.46125,83.991245 L 71.1725,83.991245 L 71.1725,88.234995 L 79.38,88.234995 L 79.38,80.569995 z"
     id="path591"
     style="fill:#CC0000;fill-opacity:1;fill-rule:nonzero;stroke:none" /><path
     d="M 100.485,130.1565 C 99.37375,130.1565 98.48125,131.05775 98.48125,132.16024 C 98.48125,133.26274 99.37375,134.16399 100.485,134.16399 C 101.5875,134.16399 102.48875,133.26274 102.48875,132.16024 C 102.48875,131.05775 101.5875,130.1565 100.485,130.1565"
     id="path595"
     style="fill:#ffffff;fill-opacity:1;fill-rule:nonzero;stroke:none" /><path
     d="M 100.79137,131.26762 L 100.10887,131.26762 L 100.10887,131.90637 L 100.79137,131.90637 C 100.97512,131.90637 101.11513,131.76637 101.11513,131.59137 C 101.11513,131.41637 100.97512,131.26762 100.79137,131.26762"
     id="path599"
     style="fill:#ffffff;fill-opacity:1;fill-rule:nonzero;stroke:none" /><path
     d="M 111.97375,53.864995 L 94.6925,53.864995 L 111.97375,71.356245 L 111.97375,114.51999 L 91.91875,134.76749 L 23.61625,134.76749 L 3.57,114.51999 L 3.57,84.472495 L 22.26875,84.472495 L 3.57,65.423745 L 3.57,24.421245 L 23.54625,3.569995 L 91.98875,3.569995 L 111.97375,24.421245 L 111.97375,53.864995 z M 115.535,22.986245 L 93.51125,-5e-06 L 22.02375,-5e-06 L -1.7763568e-14,22.986245 L -1.7763568e-14,66.884995 L 13.76375,80.902495 L -1.7763568e-14,80.902495 L -1.7763568e-14,115.98999 L 22.12875,138.33749 L 93.415,138.33749 L 96.90625,134.81124 C 97.72875,135.92249 99.05875,136.63999 100.54625,136.63999 C 103.0575,136.63999 105.0875,134.60999 105.0875,132.10749 C 105.0875,130.59374 104.34375,129.26374 103.215,128.43249 L 115.535,115.98999 L 115.535,70.017495 L 103.3725,57.434995 L 115.535,57.434995 L 115.535,22.986245 z"
     id="path603"
     style="fill:#ffffff;fill-opacity:1;fill-rule:nonzero;stroke:none" /><path
     d="M 71.172625,88.23512 L 71.172625,83.99137 L 43.461375,83.99137 L 43.461375,101.54387 L 71.172625,101.54387 L 71.172625,97.08137 L 79.380125,97.08137 L 79.380125,105.34137 L 72.931375,109.97887 L 41.877625,109.97887 L 35.183875,105.04387 L 35.183875,80.54387 L 41.807625,75.82762 L 72.808875,75.82762 L 79.380125,80.57012 L 79.380125,88.23512 L 71.172625,88.23512 z M 78.015125,90.61512 L 78.015125,94.70137 L 68.792625,94.70137 L 68.792625,99.16387 L 45.841375,99.16387 L 45.841375,86.37137 L 68.792625,86.37137 L 68.792625,90.61512 L 78.015125,90.61512 z M 53.103875,33.12762 L 68.792625,33.12762 L 68.792625,45.40387 L 53.103875,33.12762 z M 61.810125,56.27137 L 45.823875,56.27137 L 45.823875,43.96887 L 61.810125,56.27137 z M 43.443875,39.13887 L 43.443875,59.96387 L 35.183875,59.96387 L 35.183875,29.46137 L 44.555125,29.46137 L 71.172625,50.29512 L 71.172625,29.46137 L 79.353875,29.46137 L 79.353875,60.01637 L 70.577625,60.01637 L 43.443875,39.13887 z M 104.83387,46.72512 L 81.733875,46.72512 L 81.733875,27.08137 L 68.792625,27.08137 L 68.792625,30.74762 L 50.058875,30.74762 L 45.377625,27.08137 L 32.803875,27.08137 L 32.803875,62.31762 L 45.823875,62.33512 L 45.823875,58.65137 L 64.898875,58.65137 L 69.772625,62.39637 L 81.733875,62.39637 L 81.733875,58.65137 L 89.398875,58.65137 L 104.83387,74.40137 L 104.83387,111.58012 L 88.943875,127.62762 L 26.591375,127.62762 L 10.710125,111.58012 L 10.710125,91.60387 L 32.803875,91.60387 L 32.803875,106.25137 L 41.177625,112.35887 L 73.692625,112.35887 L 81.751375,106.55762 L 81.751375,94.70137 L 80.386375,94.70137 L 80.386375,90.61512 L 81.751375,90.61512 L 81.751375,79.36262 L 73.578875,73.44762 L 41.046375,73.44762 L 33.687625,78.68887 L 26.591375,78.68887 L 10.710125,62.50137 L 10.710125,27.29137 L 26.591375,10.71012 L 88.943875,10.71012 L 104.83387,27.29137 L 104.83387,46.72512 z M 25.576375,8.33012 L 8.330125,26.33762 L 8.330125,63.48137 L 25.593875,81.06887 L 32.803875,81.06887 L 32.803875,89.22387 L 8.330125,89.22387 L 8.330125,112.56012 L 25.602625,130.00762 L 89.941375,130.00762 L 107.21387,112.56012 L 107.21387,73.43887 L 90.475125,56.27137 L 81.733875,56.27137 L 81.733875,49.10512 L 107.21387,49.10512 L 107.21387,26.33762 L 89.958875,8.33012 L 25.576375,8.33012 z"
     id="path607"
     style="fill:#ffffff;fill-opacity:1;fill-rule:nonzero;stroke:none" /></svg>