<?xml version="1.0" encoding="UTF-8" standalone="no"?>
<svg
   xmlns:dc="http://purl.org/dc/elements/1.1/"
   xmlns:cc="http://creativecommons.org/ns#"
   xmlns:rdf="http://www.w3.org/1999/02/22-rdf-syntax-ns#"
   xmlns:svg="http://www.w3.org/2000/svg"
   xmlns="http://www.w3.org/2000/svg"
   xmlns:sodipodi="http://sodipodi.sourceforge.net/DTD/sodipodi-0.dtd"
   xmlns:inkscape="http://www.inkscape.org/namespaces/inkscape"
   width="61.865681"
   height="60.07711"
   viewBox="0 0 49.492544 48.061688"
   version="1.1"
   id="svg2"
   inkscape:version="0.48.1 "
   sodipodi:docname="NIU Huskies.svg">
  <metadata
     id="metadata64">
    <rdf:RDF>
      <cc:Work
         rdf:about="">
        <dc:format>image/svg+xml</dc:format>
        <dc:type
           rdf:resource="http://purl.org/dc/dcmitype/StillImage" />
      </cc:Work>
    </rdf:RDF>
  </metadata>
  <defs
     id="defs62" />
  <sodipodi:namedview
     pagecolor="#ffffff"
     bordercolor="#666666"
     borderopacity="1"
     objecttolerance="10"
     gridtolerance="10"
     guidetolerance="10"
     inkscape:pageopacity="0"
     inkscape:pageshadow="2"
     inkscape:window-width="1680"
     inkscape:window-height="994"
     id="namedview60"
     showgrid="false"
     fit-margin-top="0"
     fit-margin-left="0"
     fit-margin-right="0"
     fit-margin-bottom="0"
     inkscape:zoom="12.933378"
     inkscape:cx="30.93284"
     inkscape:cy="30.038555"
     inkscape:window-x="-4"
     inkscape:window-y="-4"
     inkscape:window-maximized="1"
     inkscape:current-layer="svg2" />
  <g
     id="g3041"
     transform="matrix(0.0957129,0,0,0.0957129,-5.1060914,-4.7462522)">
    <path
       id="path4"
       d="m 251.4,52.53 c 6.58,-1.74 12.61,3.16 15.29,8.81 6.22,12.87 13.31,25.45 22.37,36.56 3.91,-11.28 8.63,-22.95 17.84,-30.98 5.41,-4.74 12.8,-7.77 20.05,-6.47 5.23,1.38 8.16,6.39 11.13,10.49 10.52,15.81 19.88,32.34 29.22,48.86 5.45,0.24 10.88,0.69 16.33,1.08 3.65,-9.83 7.12,-19.75 11.14,-29.44 17.97,22.27 35.68,44.74 53.55,67.08 2.81,4 6.78,7.3 8.5,11.99 28.6,5.62 57.24,11.01 85.8,16.84 5.53,13.63 13.96,25.79 21.93,38.07 1.18,2.13 3.71,3.97 3.15,6.67 -2.2,17.31 -8.35,34.47 -19.61,47.99 -12.92,15.7 -31.97,25.71 -51.88,29.15 -14.84,2.26 -29.58,5.09 -44.4,7.51 -1.21,0.38 -2.96,0.2 -3.6,1.53 -4.43,7.87 -6.13,16.96 -6.69,25.88 31.4,0.08 62.79,-0.02 94.19,0.05 -5.22,13.95 -10.91,27.75 -15.81,41.81 -0.45,28.3 -0.01,56.65 -0.21,84.97 -0.3,3.99 1.96,7.45 3.38,11.01 4.88,11.51 10,22.91 14.72,34.47 -15.81,-0.11 -31.61,-0.46 -47.41,-0.53 5.84,11.16 12.3,21.97 18.12,33.14 -139.99,0.12 -279.98,0.08 -419.97,0.02 4.61,-10.95 9.79,-21.66 14.34,-32.64 -15.41,0.03 -30.83,0.14 -46.25,-0.05 4.88,-11.25 10.18,-22.31 15.23,-33.48 1.2,-2.88 3.16,-5.63 3.07,-8.87 -0.03,-28.71 0,-57.43 -0.01,-86.14 0.05,-2.65 -1.42,-4.96 -2.43,-7.31 -5.52,-12.11 -10.98,-24.26 -16.47,-36.38 12.36,-0.14 24.72,0.09 37.08,-0.12 3.45,-30.78 13.09,-60.84 28.11,-87.93 19.96,-36.36 48.52,-67.82 82.23,-91.93 -0.38,-32.01 4.88,-65.98 24.66,-92.12 6.47,-7.74 12.96,-17.01 23.31,-19.59 m -2.98,10.88 c -11.03,9.72 -19.74,22.12 -25.36,35.71 -9.08,21.94 -11.04,46.06 -10.55,69.57 -2.12,2.48 -5.24,3.96 -7.75,6.04 -24.88,19.3 -46.78,42.51 -64.31,68.68 -22.44,32.96 -37.13,71.37 -40.91,111.17 -9.14,0 -18.27,0 -27.41,0 4.11,9.21 8.31,18.37 12.44,27.57 0.92,1.8 0.74,3.86 0.77,5.83 -0.13,30.01 0.1,60.03 -0.11,90.04 -3.65,9.55 -8.48,18.67 -12.56,28.06 13.57,0.02 27.14,0 40.7,0.01 -0.1,3.52 0.56,7.21 -0.84,10.56 -2.84,7.34 -5.62,14.71 -8.46,22.05 129.67,0.09 259.33,-0.02 388.99,0.06 -4.09,-7.78 -8.57,-15.35 -12.72,-23.09 -1.05,-3.05 -0.32,-6.41 -0.49,-9.58 14.09,-0.01 28.17,0.01 42.26,-0.01 -4.02,-9.36 -8.05,-18.72 -12.09,-28.07 -1.03,-2.21 -0.65,-4.71 -0.72,-7.06 0.04,-28.34 0.01,-56.69 0.01,-85.04 -0.04,-1.38 0.29,-2.73 0.81,-4 3.51,-9.1 6.99,-18.21 10.46,-27.32 -29.38,-0.06 -58.76,0.07 -88.14,-0.07 -0.54,-15.64 1.52,-32.25 10.84,-45.31 17.55,-3.26 35.16,-6.26 52.79,-9.13 16.44,-3.05 32.12,-11.19 43.29,-23.75 10.77,-12.01 16.92,-27.65 19.05,-43.51 -7.69,-12.41 -16.19,-24.42 -22.37,-37.71 -31.46,-6.04 -62.88,-12.26 -94.33,-18.36 1.36,-2.31 2.72,-4.6 4.09,-6.9 -16.1,-20.17 -32.12,-40.41 -48.29,-60.52 -2.63,7.22 -5.43,14.38 -8.01,21.61 -9.08,-1.36 -18.26,-2.11 -27.44,-2.09 -7.46,-13.41 -15.4,-26.55 -23.11,-39.82 -3.63,-5.66 -7.11,-11.45 -11.13,-16.85 -1.09,-1.13 -1.98,-3.01 -3.75,-3.02 -6.96,0.06 -12.65,5.06 -16.54,10.39 -7.75,11.15 -11.07,24.62 -13.68,37.75 -14.69,-15.04 -26.19,-32.95 -35.23,-51.86 -1.67,-4.16 -7.04,-5.2 -10.2,-2.03 z"
       inkscape:connector-curvature="0"
       style="fill:#A5A7A8" />
    <path
       id="path6"
       d="m 248.42,63.41 c 3.16,-3.17 8.53,-2.13 10.2,2.03 9.04,18.91 20.54,36.82 35.23,51.86 2.61,-13.13 5.93,-26.6 13.68,-37.75 3.89,-5.33 9.58,-10.33 16.54,-10.39 1.77,0.01 2.66,1.89 3.75,3.02 4.02,5.4 7.5,11.19 11.13,16.85 7.71,13.27 15.65,26.41 23.11,39.82 9.18,-0.02 18.36,0.73 27.44,2.09 2.58,-7.23 5.38,-14.39 8.01,-21.61 16.17,20.11 32.19,40.35 48.29,60.52 -1.37,2.3 -2.73,4.59 -4.09,6.9 31.45,6.1 62.87,12.32 94.33,18.36 6.18,13.29 14.68,25.3 22.37,37.71 -2.13,15.86 -8.28,31.5 -19.05,43.51 -11.17,12.56 -26.85,20.7 -43.29,23.75 -17.63,2.87 -35.24,5.87 -52.79,9.13 -9.32,13.06 -11.38,29.67 -10.84,45.31 29.38,0.14 58.76,0.01 88.14,0.07 -3.47,9.11 -6.95,18.22 -10.46,27.32 -0.52,1.27 -0.85,2.62 -0.81,4 0,28.35 0.03,56.7 -0.01,85.04 0.07,2.35 -0.31,4.85 0.72,7.06 4.04,9.35 8.07,18.71 12.09,28.07 -14.09,0.02 -28.17,0 -42.26,0.01 0.17,3.17 -0.56,6.53 0.49,9.58 4.15,7.74 8.63,15.31 12.72,23.09 -129.66,-0.08 -259.32,0.03 -388.99,-0.06 2.84,-7.34 5.62,-14.71 8.46,-22.05 1.4,-3.35 0.74,-7.04 0.84,-10.56 -13.56,-0.01 -27.13,0.01 -40.7,-0.01 4.08,-9.39 8.91,-18.51 12.56,-28.06 0.21,-30.01 -0.02,-60.03 0.11,-90.04 -0.03,-1.97 0.15,-4.03 -0.77,-5.83 -4.13,-9.2 -8.33,-18.36 -12.44,-27.57 9.14,0 18.27,0 27.41,0 3.78,-39.8 18.47,-78.21 40.91,-111.17 17.53,-26.17 39.43,-49.38 64.31,-68.68 2.51,-2.08 5.63,-3.56 7.75,-6.04 -0.49,-23.51 1.47,-47.63 10.55,-69.57 5.62,-13.59 14.33,-25.99 25.36,-35.71 m -18.27,96.8 c 13.38,-8.21 27.62,-15.17 42.82,-19.32 -13.17,-10.81 -22.36,-25.9 -27.54,-42.02 -10.79,18.47 -15.3,40.1 -15.28,61.34 m 169.86,-20.97 c -0.42,5.27 -0.84,10.55 -1.22,15.82 -5.6,-3.07 -11.37,-6.16 -17.77,-7.09 -6.21,-1.04 -12.53,0.12 -18.51,1.8 -5.29,1.59 -10.66,4.23 -13.79,8.97 -3.87,5.93 -2.99,13.98 0.33,19.92 -9.72,-6.14 -23.26,-6.3 -32.41,1.01 -5.46,4.14 -8.17,11.53 -6.1,18.17 -20.38,-6.48 -43.72,-7.74 -63.1,2.52 -11.83,5.99 -21.04,16.04 -27.6,27.41 15.57,-3.92 32.42,-3.57 47.62,1.69 -26.71,9.11 -46.27,32.26 -57.02,57.65 15.57,-7.18 32.84,-8.98 49.62,-11.37 -22.77,15.07 -39.36,40.05 -41.65,67.56 24.49,-22.13 55.67,-36.18 88.01,-42.05 -17.9,17.61 -34.89,37.17 -44.31,60.76 10.85,-7.61 23.19,-13.04 36.05,-16.15 18.9,-4.65 38.43,-6.29 57.86,-5.86 -3.38,5.77 -6.61,11.63 -10.24,17.26 13.71,-0.49 27.44,-0.09 41.13,-1.03 5.62,-11.12 11.68,-22.06 16.72,-33.44 -10.3,4.07 -20.64,8.05 -30.95,12.09 6.42,-11.05 13.41,-21.78 19.6,-32.96 -10.01,1.13 -20.01,2.28 -30.04,3.2 5.57,-7.58 12.03,-14.51 17.24,-22.33 38.81,-1.73 77.68,-2.59 116.49,-4.22 15.52,-7.8 30.35,-20.67 34.04,-38.41 2.33,4.72 4.05,9.79 4.44,15.08 3.29,-5.54 5.69,-11.52 8.21,-17.43 -2.67,-5.74 -5.53,-11.39 -8.19,-17.13 -1.66,3.84 -3.01,7.81 -4.79,11.6 -2.09,-3.97 -3.97,-8.47 -7.94,-10.91 -2.8,-1.79 -6.41,-0.38 -8.75,1.52 -4.47,3.96 -4.91,10.44 -4.89,16.02 -5.11,-3.03 -10.41,-7.53 -10.67,-13.94 -0.25,-7.68 5.05,-13.96 10.19,-19.05 -28.14,-6 -56.24,-12.21 -84.4,-18.09 2.03,-3.12 4.21,-6.15 6.4,-9.16 -9.15,-13.65 -18.75,-27.08 -29.61,-39.43 M 102.65,354.58 c 15.39,0.02 30.78,-0.04 46.17,0.03 2.16,-15.78 6.93,-31.27 14.97,-45.06 -23.8,9.43 -44.65,25.58 -61.14,45.03 m 70.01,0.02 c 6.94,-0.05 13.88,0 20.83,-0.03 0.39,-4.45 1.1,-8.87 2,-13.25 -7.94,3.84 -15.52,8.35 -22.83,13.28 m 242.83,-8.74 c -0.28,2.91 -0.58,5.81 -0.89,8.72 4.19,0.01 8.38,-0.04 12.58,0.07 -4.3,-2.36 -8.16,-5.41 -11.69,-8.79 M 93.04,367.67 c 1.56,3.91 5.05,7.07 5.61,11.31 0.05,33.69 -0.04,67.39 0.05,101.08 0.39,4.91 -3.16,8.83 -4.86,13.18 15.41,0.02 30.83,0.09 46.24,-0.04 -1.75,-4.36 -5.29,-8.31 -4.86,-13.26 0.07,-21.71 0.02,-43.42 0.03,-65.13 34.99,19.86 69.87,39.93 104.77,59.97 -0.01,2.08 0.02,4.17 -0.02,6.26 0.1,4.38 -2.63,8.11 -3.77,12.21 14.69,0.01 29.38,0.04 44.07,-0.01 -1.47,-3.78 -4.25,-7.13 -4.78,-11.2 -0.06,-33.69 0.05,-67.38 -0.05,-101.06 -0.44,-4.96 3.14,-8.9 4.83,-13.27 -14.99,-0.08 -29.98,-0.04 -44.97,-0.02 1.5,4.48 5.31,8.33 4.75,13.34 -0.1,15.44 0.04,30.88 -0.07,46.32 -35.12,-19.58 -69.91,-39.77 -105.08,-59.22 -13.95,-0.4 -27.93,-0.27 -41.89,-0.46 m 196.15,-0.01 c 1.36,4.56 5.36,8.36 4.81,13.38 0.03,32.99 -0.1,65.98 -0.05,98.97 0.27,4.75 -2.57,8.84 -3.97,13.21 14.71,0.09 29.43,0.04 44.15,0.02 -1.52,-3.74 -4.24,-7.1 -4.82,-11.15 -0.08,-33.71 0.04,-67.42 -0.06,-101.13 -0.42,-4.95 3.14,-8.9 4.88,-13.27 -14.98,-0.06 -29.96,0.01 -44.94,-0.03 m 54.23,0.02 c 1.52,4.45 5.17,8.33 4.58,13.3 -0.02,30 -0.05,60 -0.04,90 8.91,7.15 17.91,14.2 26.83,21.35 1.1,1.18 2.72,1.23 4.23,1.22 28.64,-0.06 57.28,0.02 85.92,-0.04 9.46,-7.53 18.96,-15 28.39,-22.56 -0.01,-30.3 -0.02,-60.6 -0.09,-90.9 -0.19,-4.6 3.21,-8.2 4.6,-12.38 -15.04,0 -30.07,-0.04 -45.11,0.02 1.67,4.39 5.26,8.32 4.82,13.27 -0.09,24.04 0.04,48.08 -0.04,72.11 0.14,1.75 -1.34,2.94 -2.23,4.26 -1.51,1.73 -2.74,4.1 -5.19,4.61 -3.98,1.12 -7.86,3.04 -12.09,2.89 -11.34,-0.04 -22.68,-0.05 -34.02,0.01 -5.06,0.22 -9.77,-2.02 -14.48,-3.54 -2.27,-2.39 -5.15,-4.95 -5.72,-8.31 -0.02,-24.33 0.04,-48.65 -0.01,-72.98 -0.12,-4.58 3.21,-8.18 4.69,-12.31 -15.01,-0.07 -30.02,-0.04 -45.04,-0.02 m 139.16,116.58 c 0.77,0.79 1.73,1.19 2.88,1.2 0.64,2.81 -1.42,7.05 1.16,8.97 0.12,-2.99 0.07,-5.98 0.08,-8.96 1.13,-0.02 2.07,-0.44 2.81,-1.26 -2.31,-0.15 -4.63,-0.13 -6.93,0.05 m 8.71,-0.54 c -0.22,1.05 -0.66,3.14 -0.88,4.18 0.48,0.15 1.44,0.46 1.92,0.61 0.68,1.92 1.47,3.81 2.28,5.7 1.07,-2.19 2.06,-4.41 3.12,-6.6 0.95,2.08 -0.23,5.73 2.38,6.82 -0.52,-3.57 -1.27,-7.09 -2.01,-10.61 -1.1,2.52 -2.2,5.05 -3.55,7.45 -1.08,-2.52 -2.16,-5.04 -3.26,-7.55 m -1.18,4.23 c -0.21,2.14 -0.51,4.32 -0.75,6.47 2.38,-1.2 2.13,-4.56 0.75,-6.47 m -306.17,19.48 c 0.54,1.45 1.29,2.88 1.18,4.49 -0.06,4.64 0.29,9.32 -0.39,13.94 2.46,1.3 4.79,2.87 7.36,3.95 5.63,0.22 11.28,0.2 16.91,0.01 2.62,-1.06 4.98,-2.66 7.43,-4.05 -0.77,-4.58 -0.31,-9.24 -0.42,-13.86 -0.18,-1.63 0.66,-3.06 1.31,-4.47 -4.33,0.05 -8.66,0.05 -12.99,-0.01 2.45,4.62 0.94,10.12 1.22,15.14 -1.97,3.62 -10.59,2.73 -9.19,-2.5 0.38,-4.2 -1.02,-8.85 1.38,-12.63 -4.6,0.05 -9.2,0.05 -13.8,-0.01 m 57.52,4.23 c 0,1.75 0,3.51 0.01,5.27 1.65,0.92 3.27,1.94 5.02,2.7 3.33,0.94 6.92,0.6 10.21,1.77 1.13,1.42 -0.24,2.77 -1.73,2.94 -4.96,0.43 -9.97,0.16 -14.83,-0.97 1.31,2.19 2.62,4.39 3.96,6.57 5.64,-0.12 11.29,0.17 16.92,-0.12 2.66,-1.1 5.06,-2.73 7.6,-4.08 -0.01,-2.09 -0.01,-4.17 -0.02,-6.25 -1.89,-1.02 -3.69,-2.24 -5.71,-2.98 -3.39,-0.69 -6.89,-0.74 -10.24,-1.65 0.68,-1.29 1.78,-2.42 3.38,-2.21 4.27,-0.22 8.57,-0.13 12.74,0.87 -1.22,-2 -2.41,-4 -3.58,-6.02 -5.35,0.02 -10.72,-0.19 -16.06,0.07 -2.71,1.04 -5.11,2.74 -7.67,4.09 m 74.85,-4.2 c -2.64,3.57 -7.2,4.74 -10.76,7.13 -0.02,-2.47 0,-5.01 1.36,-7.17 -4.52,0.07 -9.04,0.07 -13.56,0 2.17,3.47 1.04,7.67 1.3,11.52 -0.24,3.68 0.86,7.74 -1.35,11.02 4.55,-0.04 9.1,-0.05 13.65,0.01 -1.78,-2.67 -1.35,-5.9 -1.27,-8.92 1.34,-0.72 2.69,-1.44 4.06,-2.13 2.07,3.57 4.93,6.83 5.68,11.01 4.78,0 9.55,0.01 14.32,-0.01 -4.99,-4.19 -7.58,-10.36 -11.42,-15.49 3.47,-2.5 8.11,-3.57 10.88,-6.88 -4.3,-0.16 -8.6,-0.06 -12.89,-0.09 m 34.8,-0.03 c 0.68,1.46 1.52,2.92 1.34,4.61 -0.02,4.69 0.03,9.38 -0.03,14.07 0.11,1.41 -0.82,2.59 -1.31,3.86 4.63,-0.06 9.27,-0.07 13.9,0.01 -2.06,-3.33 -1.12,-7.33 -1.3,-11.02 0.21,-3.86 -0.81,-8.03 1.29,-11.53 -4.63,0.06 -9.26,0.05 -13.89,0 m 39.71,0.01 c 2.02,3.56 1.02,7.75 1.24,11.64 -0.18,3.65 0.74,7.61 -1.3,10.89 8.33,-0.09 16.66,0 24.99,-0.04 1.3,-2.2 2.6,-4.38 3.91,-6.56 -5.45,1.34 -11.08,1.3 -16.64,0.92 0.01,-0.91 0.02,-2.72 0.03,-3.63 2.91,-0.17 5.81,0.14 8.67,0.73 -0.02,-2.23 -0.03,-4.46 -0.07,-6.69 -2.79,0.56 -5.65,1.09 -8.49,0.67 -0.06,-0.68 -0.19,-2.02 -0.25,-2.7 5.21,-0.09 10.49,-0.41 15.6,0.86 -1.23,-2.04 -2.45,-4.07 -3.7,-6.08 -7.99,0.03 -15.99,0.04 -23.99,-0.01 m 57.62,0.16 c -2.65,1.11 -5.06,2.7 -7.56,4.11 0.01,1.73 0.02,3.47 0.03,5.22 1.75,0.96 3.43,2.08 5.3,2.8 3.54,0.83 7.34,0.51 10.7,2.09 -0.6,1.24 -1.29,2.7 -2.95,2.56 -4.76,0.38 -9.55,0.08 -14.21,-0.98 1.15,2.18 2.39,4.32 3.63,6.45 4.85,0.14 9.69,0.06 14.54,0.1 3.88,0.34 6.82,-2.71 10.14,-4.2 -0.01,-2.14 -0.04,-4.28 -0.14,-6.41 -1.8,-0.93 -3.53,-2 -5.41,-2.77 -3.48,-0.96 -7.34,-0.37 -10.58,-2.16 0.54,-0.4 1.62,-1.19 2.17,-1.59 4.67,-0.51 9.45,-0.34 14.06,0.68 -1.19,-2.02 -2.38,-4.02 -3.57,-6.03 -5.38,0.1 -10.78,-0.21 -16.15,0.13 M 126.3,507.42 c 0.64,1.42 1.51,2.86 1.32,4.5 -0.02,4.72 0.03,9.45 -0.02,14.19 0.08,1.42 -0.8,2.61 -1.35,3.85 4.56,-0.05 9.11,-0.06 13.66,0.01 -1.84,-2.78 -1.29,-6.16 -1.3,-9.3 2.61,0.18 5.6,-0.61 7.98,0.39 0.19,3 0.51,6.27 -1.28,8.9 4.55,-0.04 9.1,-0.06 13.65,0.02 -2.1,-3.31 -1.12,-7.32 -1.32,-11 0.24,-3.87 -0.82,-8.05 1.29,-11.56 -4.52,0.07 -9.04,0.07 -13.56,0 1.52,2.29 1.35,5.02 1.34,7.64 -2.71,0.12 -5.42,0.14 -8.13,0.07 -0.06,-2.64 -0.21,-5.4 1.3,-7.71 -4.52,0.07 -9.05,0.07 -13.58,0 z"
       inkscape:connector-curvature="0"
       style="fill:#000000" />
    <path
       id="path8"
       d="m 230.15,160.21 c -0.02,-21.24 4.49,-42.87 15.28,-61.34 5.18,16.12 14.37,31.21 27.54,42.02 -15.2,4.15 -29.44,11.11 -42.82,19.32 z"
       inkscape:connector-curvature="0"
       style="fill:#ffffff" />
    <path
       id="path10"
       d="m 400.01,139.24 c 10.86,12.35 20.46,25.78 29.61,39.43 -2.19,3.01 -4.37,6.04 -6.4,9.16 28.16,5.88 56.26,12.09 84.4,18.09 -5.14,5.09 -10.44,11.37 -10.19,19.05 0.26,6.41 5.56,10.91 10.67,13.94 -0.02,-5.58 0.42,-12.06 4.89,-16.02 2.34,-1.9 5.95,-3.31 8.75,-1.52 3.97,2.44 5.85,6.94 7.94,10.91 1.78,-3.79 3.13,-7.76 4.79,-11.6 2.66,5.74 5.52,11.39 8.19,17.13 -2.52,5.91 -4.92,11.89 -8.21,17.43 -0.39,-5.29 -2.11,-10.36 -4.44,-15.08 -3.69,17.74 -18.52,30.61 -34.04,38.41 -38.81,1.63 -77.68,2.49 -116.49,4.22 -17.84,1.2 -35.94,6.29 -50.18,17.45 -8.18,6.28 -14.4,14.67 -19.7,23.43 -4.51,7.02 -8.11,14.56 -11.44,22.19 -12.86,3.11 -25.2,8.54 -36.05,16.15 9.42,-23.59 26.41,-43.15 44.31,-60.76 -32.34,5.87 -63.52,19.92 -88.01,42.05 2.29,-27.51 18.88,-52.49 41.65,-67.56 -16.78,2.39 -34.05,4.19 -49.62,11.37 10.75,-25.39 30.31,-48.54 57.02,-57.65 -15.2,-5.26 -32.05,-5.61 -47.62,-1.69 6.56,-11.37 15.77,-21.42 27.6,-27.41 19.38,-10.26 42.72,-9 63.1,-2.52 -2.07,-6.64 0.64,-14.03 6.1,-18.17 9.15,-7.31 22.69,-7.15 32.41,-1.01 -3.32,-5.94 -4.2,-13.99 -0.33,-19.92 3.13,-4.74 8.5,-7.38 13.79,-8.97 5.98,-1.68 12.3,-2.84 18.51,-1.8 6.4,0.93 12.17,4.02 17.77,7.09 0.38,-5.27 0.8,-10.55 1.22,-15.82 m -39.92,22.91 c 1.82,6.09 3.52,12.22 5.46,18.28 -2.15,2.18 -4.68,4.45 -5.03,7.69 -0.81,4.91 2.53,9.43 6.56,11.84 8.71,5.33 22.41,4.46 27.95,-5 9.88,3.43 17.64,10.71 24.49,18.34 -1.89,-7.44 -3.81,-14.88 -5.69,-22.32 -17.91,-9.61 -35.83,-19.23 -53.74,-28.83 z"
       inkscape:connector-curvature="0"
       style="fill:#ffffff" />
    <path
       id="path12"
       d="m 360.09,162.15 c 17.91,9.6 35.83,19.22 53.74,28.83 1.88,7.44 3.8,14.88 5.69,22.32 -6.85,-7.63 -14.61,-14.91 -24.49,-18.34 -5.54,9.46 -19.24,10.33 -27.95,5 -4.03,-2.41 -7.37,-6.93 -6.56,-11.84 0.35,-3.24 2.88,-5.51 5.03,-7.69 -1.94,-6.06 -3.64,-12.19 -5.46,-18.28 z"
       inkscape:connector-curvature="0"
       style="fill:#000000" />
    <path
       id="path14"
       d="m 329.3,300.24 c 14.24,-11.16 32.34,-16.25 50.18,-17.45 -5.21,7.82 -11.67,14.75 -17.24,22.33 10.03,-0.92 20.03,-2.07 30.04,-3.2 -6.19,11.18 -13.18,21.91 -19.6,32.96 10.31,-4.04 20.65,-8.02 30.95,-12.09 -5.04,11.38 -11.1,22.32 -16.72,33.44 -13.69,0.94 -27.42,0.54 -41.13,1.03 3.63,-5.63 6.86,-11.49 10.24,-17.26 -19.43,-0.43 -38.96,1.21 -57.86,5.86 3.33,-7.63 6.93,-15.17 11.44,-22.19 5.3,-8.76 11.52,-17.15 19.7,-23.43 z"
       inkscape:connector-curvature="0"
       style="fill:#A5A7A8" />
    <path
       id="path16"
       d="m 102.65,354.58 c 16.49,-19.45 37.34,-35.6 61.14,-45.03 -8.04,13.79 -12.81,29.28 -14.97,45.06 -15.39,-0.07 -30.78,-0.01 -46.17,-0.03 m 19.54,-10.54 c 6.49,0.23 13,0.22 19.49,0.02 0.92,-5.92 2.56,-11.68 4.25,-17.41 -8.77,4.46 -16.64,10.62 -23.74,17.39 z"
       inkscape:connector-curvature="0"
       style="fill:#A5A7A8" />
    <path
       id="path18"
       d="m 172.66,354.6 c 7.31,-4.93 14.89,-9.44 22.83,-13.28 -0.9,4.38 -1.61,8.8 -2,13.25 -6.95,0.03 -13.89,-0.02 -20.83,0.03 z"
       inkscape:connector-curvature="0"
       style="fill:#A5A7A8" />
    <path
       id="path20"
       d="m 415.49,345.86 c 3.53,3.38 7.39,6.43 11.69,8.79 -4.2,-0.11 -8.39,-0.06 -12.58,-0.07 0.31,-2.91 0.61,-5.81 0.89,-8.72 z"
       inkscape:connector-curvature="0"
       style="fill:#A5A7A8" />
    <path
       id="path22"
       d="m 93.04,367.67 c 13.96,0.19 27.94,0.06 41.89,0.46 35.17,19.45 69.96,39.64 105.08,59.22 0.11,-15.44 -0.03,-30.88 0.07,-46.32 0.56,-5.01 -3.25,-8.86 -4.75,-13.34 14.99,-0.02 29.98,-0.06 44.97,0.02 -1.69,4.37 -5.27,8.31 -4.83,13.27 0.1,33.68 -0.01,67.37 0.05,101.06 0.53,4.07 3.31,7.42 4.78,11.2 -14.69,0.05 -29.38,0.02 -44.07,0.01 1.14,-4.1 3.87,-7.83 3.77,-12.21 0.04,-2.09 0.01,-4.18 0.02,-6.26 -34.9,-20.04 -69.78,-40.11 -104.77,-59.97 -0.01,21.71 0.04,43.42 -0.03,65.13 -0.43,4.95 3.11,8.9 4.86,13.26 -15.41,0.13 -30.83,0.06 -46.24,0.04 1.7,-4.35 5.25,-8.27 4.86,-13.18 -0.09,-33.69 0,-67.39 -0.05,-101.08 -0.56,-4.24 -4.05,-7.4 -5.61,-11.31 m 8.07,4.7 c 0.93,1.76 2.38,3.45 2.21,5.58 0,35.03 0,70.06 -0.01,105.09 0.08,2.05 -1.25,3.77 -2,5.58 10.46,-0.01 20.91,0.05 31.37,-0.03 -0.99,-1.65 -1.96,-3.29 -2.92,-4.95 -7.18,-0.1 -14.36,-0.05 -21.53,-0.03 0.07,-37.06 0.05,-74.13 0.14,-111.19 -2.42,-0.02 -4.84,-0.04 -7.26,-0.05 M 242.7,372.3 c 0.97,1.76 2.34,3.5 2.08,5.65 -0.07,17.15 0.06,34.3 -0.07,51.45 1.68,1.02 3.38,2 5.08,3 0.02,-20.03 0.01,-40.06 0.01,-60.09 -2.37,0.01 -4.74,0.01 -7.1,-0.01 m -107.83,30.11 c 0.41,2.62 -1.23,6.66 2.09,7.84 35.93,20.72 71.75,41.63 107.69,62.33 -0.21,5.37 0.99,11.08 -1.62,16.06 9.94,-0.02 19.88,0 29.83,-0.01 -0.97,-1.68 -1.94,-3.35 -2.89,-5.02 -6.77,-0.04 -13.53,-0.01 -20.29,-0.02 -0.02,-5.17 0.15,-10.35 -0.09,-15.51 -38.36,-21.66 -76.44,-43.85 -114.72,-65.67 z"
       inkscape:connector-curvature="0"
       style="fill:#CC0000" />
    <path
       id="path24"
       d="m 289.19,367.66 c 14.98,0.04 29.96,-0.03 44.94,0.03 -1.74,4.37 -5.3,8.32 -4.88,13.27 0.1,33.71 -0.02,67.42 0.06,101.13 0.58,4.05 3.3,7.41 4.82,11.15 -14.72,0.02 -29.44,0.07 -44.15,-0.02 1.4,-4.37 4.24,-8.46 3.97,-13.21 -0.05,-32.99 0.08,-65.98 0.05,-98.97 0.55,-5.02 -3.45,-8.82 -4.81,-13.38 m 7.28,4.75 c 0.74,1.46 2.16,2.77 2.09,4.54 0.04,35.01 -0.07,70.02 -0.04,105.04 0.14,2.34 -0.86,4.5 -1.64,6.66 9.94,-0.06 19.88,0.04 29.83,-0.06 -0.99,-1.65 -1.97,-3.29 -2.92,-4.95 -6.57,-0.09 -13.13,-0.07 -19.7,-0.01 -0.02,-37.11 0.08,-74.22 -0.05,-111.33 -2.52,-0.01 -5.05,0.03 -7.57,0.11 z"
       inkscape:connector-curvature="0"
       style="fill:#CC0000" />
    <path
       id="path26"
       d="m 343.42,367.68 c 15.02,-0.02 30.03,-0.05 45.04,0.02 -1.48,4.13 -4.81,7.73 -4.69,12.31 0.05,24.33 -0.01,48.65 0.01,72.98 0.57,3.36 3.45,5.92 5.72,8.31 4.71,1.52 9.42,3.76 14.48,3.54 11.34,-0.06 22.68,-0.05 34.02,-0.01 4.23,0.15 8.11,-1.77 12.09,-2.89 2.45,-0.51 3.68,-2.88 5.19,-4.61 0.89,-1.32 2.37,-2.51 2.23,-4.26 0.08,-24.03 -0.05,-48.07 0.04,-72.11 0.44,-4.95 -3.15,-8.88 -4.82,-13.27 15.04,-0.06 30.07,-0.02 45.11,-0.02 -1.39,4.18 -4.79,7.78 -4.6,12.38 0.07,30.3 0.08,60.6 0.09,90.9 -9.43,7.56 -18.93,15.03 -28.39,22.56 -28.64,0.06 -57.28,-0.02 -85.92,0.04 -1.51,0.01 -3.13,-0.04 -4.23,-1.22 -8.92,-7.15 -17.92,-14.2 -26.83,-21.35 -0.01,-30 0.02,-60 0.04,-90 0.59,-4.97 -3.06,-8.85 -4.58,-13.3 m 7.76,4.63 c 0.93,1.78 2.3,3.51 2.08,5.65 -0.07,29.99 0,59.98 -0.14,89.97 9.18,6.81 18.44,13.52 27.7,20.22 24.78,-0.14 49.57,0.11 74.35,-0.12 2.98,-1.22 5.5,-3.3 8.07,-5.19 -26.37,-0.19 -52.73,0.37 -79.1,0.44 -8.29,-5.85 -16.53,-11.77 -24.83,-17.6 0.05,-31.11 0,-62.22 0.12,-93.33 -2.75,-0.04 -5.51,-0.04 -8.25,-0.04 m 109.96,0.01 c 0.94,1.78 2.3,3.53 2.08,5.68 -0.01,25.99 -0.02,52 -0.01,78 -1.78,2.34 -3.59,4.65 -5.35,7 5.76,-0.51 9.09,-5.63 12.29,-9.79 0.21,-26.93 -0.08,-53.87 0.16,-80.8 -3.06,-0.12 -6.12,-0.12 -9.17,-0.09 z"
       inkscape:connector-curvature="0"
       style="fill:#CC0000" />
    <path
       id="path28"
       d="m 101.11,372.37 c 2.42,0.01 4.84,0.03 7.26,0.05 -0.09,37.06 -0.07,74.13 -0.14,111.19 7.17,-0.02 14.35,-0.07 21.53,0.03 0.96,1.66 1.93,3.3 2.92,4.95 -10.46,0.08 -20.91,0.02 -31.37,0.03 0.75,-1.81 2.08,-3.53 2,-5.58 0.01,-35.03 0.01,-70.06 0.01,-105.09 0.17,-2.13 -1.28,-3.82 -2.21,-5.58 z"
       inkscape:connector-curvature="0"
       style="fill:#ffffff" />
    <path
       id="path30"
       d="m 242.7,372.3 c 2.36,0.02 4.73,0.02 7.1,0.01 0,20.03 0.01,40.06 -0.01,60.09 -1.7,-1 -3.4,-1.98 -5.08,-3 0.13,-17.15 0,-34.3 0.07,-51.45 0.26,-2.15 -1.11,-3.89 -2.08,-5.65 z"
       inkscape:connector-curvature="0"
       style="fill:#ffffff" />
    <path
       id="path32"
       d="m 296.47,372.41 c 2.52,-0.08 5.05,-0.12 7.57,-0.11 0.13,37.11 0.03,74.22 0.05,111.33 6.57,-0.06 13.13,-0.08 19.7,0.01 0.95,1.66 1.93,3.3 2.92,4.95 -9.95,0.1 -19.89,0 -29.83,0.06 0.78,-2.16 1.78,-4.32 1.64,-6.66 -0.03,-35.02 0.08,-70.03 0.04,-105.04 0.07,-1.77 -1.35,-3.08 -2.09,-4.54 z"
       inkscape:connector-curvature="0"
       style="fill:#ffffff" />
    <path
       id="path34"
       d="m 351.18,372.31 c 2.74,0 5.5,0 8.25,0.04 -0.12,31.11 -0.07,62.22 -0.12,93.33 8.3,5.83 16.54,11.75 24.83,17.6 26.37,-0.07 52.73,-0.63 79.1,-0.44 -2.57,1.89 -5.09,3.97 -8.07,5.19 -24.78,0.23 -49.57,-0.02 -74.35,0.12 -9.26,-6.7 -18.52,-13.41 -27.7,-20.22 0.14,-29.99 0.07,-59.98 0.14,-89.97 0.22,-2.14 -1.15,-3.87 -2.08,-5.65 z"
       inkscape:connector-curvature="0"
       style="fill:#ffffff" />
    <path
       id="path36"
       d="m 461.14,372.32 c 3.05,-0.03 6.11,-0.03 9.17,0.09 -0.24,26.93 0.05,53.87 -0.16,80.8 -3.2,4.16 -6.53,9.28 -12.29,9.79 1.76,-2.35 3.57,-4.66 5.35,-7 -0.01,-26 0,-52.01 0.01,-78 0.22,-2.15 -1.14,-3.9 -2.08,-5.68 z"
       inkscape:connector-curvature="0"
       style="fill:#ffffff" />
    <path
       id="path38"
       d="m 134.87,402.41 c 38.28,21.82 76.36,44.01 114.72,65.67 0.24,5.16 0.07,10.34 0.09,15.51 6.76,0.01 13.52,-0.02 20.29,0.02 0.95,1.67 1.92,3.34 2.89,5.02 -9.95,0.01 -19.89,-0.01 -29.83,0.01 2.61,-4.98 1.41,-10.69 1.62,-16.06 -35.94,-20.7 -71.76,-41.61 -107.69,-62.33 -3.32,-1.18 -1.68,-5.22 -2.09,-7.84 z"
       inkscape:connector-curvature="0"
       style="fill:#ffffff" />
    <path
       id="path40"
       d="m 482.58,484.26 c 2.3,-0.18 4.62,-0.2 6.93,-0.05 -0.74,0.82 -1.68,1.24 -2.81,1.26 -0.01,2.98 0.04,5.97 -0.08,8.96 -2.58,-1.92 -0.52,-6.16 -1.16,-8.97 -1.15,-0.01 -2.11,-0.41 -2.88,-1.2 z"
       inkscape:connector-curvature="0"
       style="fill:#ffffff" />
    <path
       id="path42"
       d="m 491.29,483.72 c 1.1,2.51 2.18,5.03 3.26,7.55 1.35,-2.4 2.45,-4.93 3.55,-7.45 0.74,3.52 1.49,7.04 2.01,10.61 -2.61,-1.09 -1.43,-4.74 -2.38,-6.82 -1.06,2.19 -2.05,4.41 -3.12,6.6 -0.81,-1.89 -1.6,-3.78 -2.28,-5.7 -0.48,-0.15 -1.44,-0.46 -1.92,-0.61 0.22,-1.04 0.66,-3.13 0.88,-4.18 z"
       inkscape:connector-curvature="0"
       style="fill:#ffffff" />
    <path
       id="path44"
       d="m 490.11,487.95 c 1.38,1.91 1.63,5.27 -0.75,6.47 0.24,-2.15 0.54,-4.33 0.75,-6.47 z"
       inkscape:connector-curvature="0"
       style="fill:#ffffff" />
    <path
       id="path46"
       d="m 183.94,507.43 c 4.6,0.06 9.2,0.06 13.8,0.01 -2.4,3.78 -1,8.43 -1.38,12.63 -1.4,5.23 7.22,6.12 9.19,2.5 -0.28,-5.02 1.23,-10.52 -1.22,-15.14 4.33,0.06 8.66,0.06 12.99,0.01 -0.65,1.41 -1.49,2.84 -1.31,4.47 0.11,4.62 -0.35,9.28 0.42,13.86 -2.45,1.39 -4.81,2.99 -7.43,4.05 -5.63,0.19 -11.28,0.21 -16.91,-0.01 -2.57,-1.08 -4.9,-2.65 -7.36,-3.95 0.68,-4.62 0.33,-9.3 0.39,-13.94 0.11,-1.61 -0.64,-3.04 -1.18,-4.49 z"
       inkscape:connector-curvature="0"
       style="fill:#ffffff" />
    <path
       id="path48"
       d="m 241.46,511.66 c 2.56,-1.35 4.96,-3.05 7.67,-4.09 5.34,-0.26 10.71,-0.05 16.06,-0.07 1.17,2.02 2.36,4.02 3.58,6.02 -4.17,-1 -8.47,-1.09 -12.74,-0.87 -1.6,-0.21 -2.7,0.92 -3.38,2.21 3.35,0.91 6.85,0.96 10.24,1.65 2.02,0.74 3.82,1.96 5.71,2.98 0.01,2.08 0.01,4.16 0.02,6.25 -2.54,1.35 -4.94,2.98 -7.6,4.08 -5.63,0.29 -11.28,0 -16.92,0.12 -1.34,-2.18 -2.65,-4.38 -3.96,-6.57 4.86,1.13 9.87,1.4 14.83,0.97 1.49,-0.17 2.86,-1.52 1.73,-2.94 -3.29,-1.17 -6.88,-0.83 -10.21,-1.77 -1.75,-0.76 -3.37,-1.78 -5.02,-2.7 -0.01,-1.76 -0.01,-3.52 -0.01,-5.27 z"
       inkscape:connector-curvature="0"
       style="fill:#ffffff" />
    <path
       id="path50"
       d="m 316.31,507.46 c 4.29,0.03 8.59,-0.07 12.89,0.09 -2.77,3.31 -7.41,4.38 -10.88,6.88 3.84,5.13 6.43,11.3 11.42,15.49 -4.77,0.02 -9.54,0.01 -14.32,0.01 -0.75,-4.18 -3.61,-7.44 -5.68,-11.01 -1.37,0.69 -2.72,1.41 -4.06,2.13 -0.08,3.02 -0.51,6.25 1.27,8.92 -4.55,-0.06 -9.1,-0.05 -13.65,-0.01 2.21,-3.28 1.11,-7.34 1.35,-11.02 -0.26,-3.85 0.87,-8.05 -1.3,-11.52 4.52,0.07 9.04,0.07 13.56,0 -1.36,2.16 -1.38,4.7 -1.36,7.17 3.56,-2.39 8.12,-3.56 10.76,-7.13 z"
       inkscape:connector-curvature="0"
       style="fill:#ffffff" />
    <path
       id="path52"
       d="m 351.11,507.43 c 4.63,0.05 9.26,0.06 13.89,0 -2.1,3.5 -1.08,7.67 -1.29,11.53 0.18,3.69 -0.76,7.69 1.3,11.02 -4.63,-0.08 -9.27,-0.07 -13.9,-0.01 0.49,-1.27 1.42,-2.45 1.31,-3.86 0.06,-4.69 0.01,-9.38 0.03,-14.07 0.18,-1.69 -0.66,-3.15 -1.34,-4.61 z"
       inkscape:connector-curvature="0"
       style="fill:#ffffff" />
    <path
       id="path54"
       d="m 390.82,507.44 c 8,0.05 16,0.04 23.99,0.01 1.25,2.01 2.47,4.04 3.7,6.08 -5.11,-1.27 -10.39,-0.95 -15.6,-0.86 0.06,0.68 0.19,2.02 0.25,2.7 2.84,0.42 5.7,-0.11 8.49,-0.67 0.04,2.23 0.05,4.46 0.07,6.69 -2.86,-0.59 -5.76,-0.9 -8.67,-0.73 -0.01,0.91 -0.02,2.72 -0.03,3.63 5.56,0.38 11.19,0.42 16.64,-0.92 -1.31,2.18 -2.61,4.36 -3.91,6.56 -8.33,0.04 -16.66,-0.05 -24.99,0.04 2.04,-3.28 1.12,-7.24 1.3,-10.89 -0.22,-3.89 0.78,-8.08 -1.24,-11.64 z"
       inkscape:connector-curvature="0"
       style="fill:#ffffff" />
    <path
       id="path56"
       d="m 448.44,507.6 c 5.37,-0.34 10.77,-0.03 16.15,-0.13 1.19,2.01 2.38,4.01 3.57,6.03 -4.61,-1.02 -9.39,-1.19 -14.06,-0.68 -0.55,0.4 -1.63,1.19 -2.17,1.59 3.24,1.79 7.1,1.2 10.58,2.16 1.88,0.77 3.61,1.84 5.41,2.77 0.1,2.13 0.13,4.27 0.14,6.41 -3.32,1.49 -6.26,4.54 -10.14,4.2 -4.85,-0.04 -9.69,0.04 -14.54,-0.1 -1.24,-2.13 -2.48,-4.27 -3.63,-6.45 4.66,1.06 9.45,1.36 14.21,0.98 1.66,0.14 2.35,-1.32 2.95,-2.56 -3.36,-1.58 -7.16,-1.26 -10.7,-2.09 -1.87,-0.72 -3.55,-1.84 -5.3,-2.8 -0.01,-1.75 -0.02,-3.49 -0.03,-5.22 2.5,-1.41 4.91,-3 7.56,-4.11 z"
       inkscape:connector-curvature="0"
       style="fill:#ffffff" />
    <path
       id="path58"
       d="m 126.3,507.42 c 4.53,0.07 9.06,0.07 13.58,0 -1.51,2.31 -1.36,5.07 -1.3,7.71 2.71,0.07 5.42,0.05 8.13,-0.07 0.01,-2.62 0.18,-5.35 -1.34,-7.64 4.52,0.07 9.04,0.07 13.56,0 -2.11,3.51 -1.05,7.69 -1.29,11.56 0.2,3.68 -0.78,7.69 1.32,11 -4.55,-0.08 -9.1,-0.06 -13.65,-0.02 1.79,-2.63 1.47,-5.9 1.28,-8.9 -2.38,-1 -5.37,-0.21 -7.98,-0.39 0.01,3.14 -0.54,6.52 1.3,9.3 -4.55,-0.07 -9.1,-0.06 -13.66,-0.01 0.55,-1.24 1.43,-2.43 1.35,-3.85 0.05,-4.74 0,-9.47 0.02,-14.19 0.19,-1.64 -0.68,-3.08 -1.32,-4.5 z"
       inkscape:connector-curvature="0"
       style="fill:#ffffff" />
  </g>
</svg>
