<?xml version="1.0" encoding="UTF-8" standalone="no"?>
<!-- Created with Inkscape (http://www.inkscape.org/) -->

<svg
   xmlns:dc="http://purl.org/dc/elements/1.1/"
   xmlns:cc="http://creativecommons.org/ns#"
   xmlns:rdf="http://www.w3.org/1999/02/22-rdf-syntax-ns#"
   xmlns:svg="http://www.w3.org/2000/svg"
   xmlns="http://www.w3.org/2000/svg"
   xmlns:sodipodi="http://sodipodi.sourceforge.net/DTD/sodipodi-0.dtd"
   xmlns:inkscape="http://www.inkscape.org/namespaces/inkscape"
   version="1.0"
   width="657.3028"
   height="557.32861"
   id="svg4262"
   inkscape:version="0.91 r13725"
   sodipodi:docname="Irish.svg">
  <metadata
     id="metadata8">
    <rdf:RDF>
      <cc:Work
         rdf:about="">
        <dc:format>image/svg+xml</dc:format>
        <dc:type
           rdf:resource="http://purl.org/dc/dcmitype/StillImage" />
        <dc:title></dc:title>
      </cc:Work>
    </rdf:RDF>
  </metadata>
  <sodipodi:namedview
     pagecolor="#ffffff"
     bordercolor="#666666"
     borderopacity="1"
     objecttolerance="10"
     gridtolerance="10"
     guidetolerance="10"
     inkscape:pageopacity="0"
     inkscape:pageshadow="2"
     inkscape:window-width="1287"
     inkscape:window-height="762"
     id="namedview6"
     showgrid="false"
     fit-margin-top="0"
     fit-margin-left="0"
     fit-margin-right="0"
     fit-margin-bottom="0"
     inkscape:zoom="0.96"
     inkscape:cx="328.65242"
     inkscape:cy="278.67842"
     inkscape:window-x="-4"
     inkscape:window-y="0"
     inkscape:window-maximized="0"
     inkscape:current-layer="svg4262" />
  <defs
     id="defs4264" />
  <g
     id="layer1"
     style="fill:#0c2340;fill-opacity:1;stroke:#c99700;stroke-width:7.30000019;stroke-linecap:round;stroke-linejoin:miter;stroke-miterlimit:4;stroke-dasharray:1.82500005, 1.82500005;stroke-dashoffset:0;stroke-opacity:1"
     transform="translate(-71.347581,-21.349828)">
    <path
       d="m 187.92573,574.77464 c -0.74017,-0.14758 -1.77553,-0.49105 -2.30079,-0.76316 -1.36568,-0.7075 -3.54461,-3.30319 -3.92528,-4.6761 -0.20825,-0.75126 -0.32256,-13.25597 -0.31915,-34.92624 0.005,-33.26339 0.0149,-33.77722 0.66208,-35.20961 0.80981,-1.79218 1.99355,-3.07388 3.682,-3.98661 1.26039,-0.68131 1.66091,-0.7009 17.57306,-0.85876 15.9225,-0.15789 16.31185,-0.17695 17.57306,-0.85995 1.52039,-0.82348 3.07573,-2.40714 3.9138,-3.98537 0.53514,-1.0078 0.61117,-2.08685 0.69992,-9.93302 l 0.0996,-8.80238 -72.09498,0 c -64.00236,0 -72.227786,-0.0555 -73.276236,-0.49451 -1.891093,-0.7916 -3.098956,-1.88835 -4.126606,-3.74671 l -0.958994,-1.73474 -0.08726,-35.50685 c -0.09823,-39.6079 -0.194919,-37.74152 2.093487,-40.27902 0.645938,-0.71617 1.764506,-1.61864 2.486168,-2.00554 1.263032,-0.6773 1.760364,-0.70941 13.403164,-0.86492 11.642717,-0.15547 12.140127,-0.18761 13.403247,-0.86491 0.72149,-0.3869 1.83778,-1.28672 2.48071,-1.99965 2.34764,-2.60325 2.17272,4.12475 2.17272,-83.54434 0,-87.17421 0.15957,-80.77439 -2.07984,-83.39537 -0.61985,-0.72545 -1.82017,-1.66377 -2.66735,-2.08519 -1.51825,-0.75514 -1.71488,-0.76853 -13.631807,-0.92806 -10.633918,-0.14231 -12.213662,-0.22886 -13.105137,-0.71767 -1.408631,-0.77208 -2.911025,-2.34211 -3.754887,-3.92307 l -0.713213,-1.33552 -0.08726,-35.5069 c -0.09839,-39.65236 -0.198576,-37.73461 2.115506,-40.30628 0.657881,-0.73118 1.921806,-1.66857 2.808162,-2.08314 l 1.612488,-0.75371 71.984988,-0.003 71.98502,-0.003 0,-7.85546 c 0,-8.89064 -0.2233,-10.21588 -2.08948,-12.40003 -0.62517,-0.73167 -1.8255,-1.67016 -2.66739,-2.08552 -1.52784,-0.75377 -1.56117,-0.75551 -17.65279,-0.91671 -15.74686,-0.15776 -16.15209,-0.17774 -17.41185,-0.85874 -1.68845,-0.91274 -2.87219,-2.19443 -3.682,-3.98662 -0.64716,-1.432287 -0.65689,-1.948368 -0.66389,-35.172139 -0.005,-24.92746 0.0918,-34.049111 0.37215,-34.986453 0.49772,-1.664451 2.50279,-3.913265 4.24036,-4.755927 l 1.38797,-0.673102 54.63263,0.0079 c 36.32445,0.0052 55.11587,0.119426 56.0746,0.34076 2.65204,0.61221 5.44574,2.201222 7.52717,4.281285 1.75589,1.754736 5.45251,7.76397 31.03237,50.445618 l 29.03911,48.453638 78.57595,0.0814 78.57599,0.0814 0,-7.85611 c 0,-8.89134 -0.22328,-10.21651 -2.08946,-12.40069 -0.62518,-0.73167 -1.8255,-1.67016 -2.66742,-2.08552 -1.52782,-0.75377 -1.56117,-0.75551 -17.65278,-0.91671 -18.11003,-0.18141 -17.37434,-0.0823 -19.69269,-2.65308 -2.20863,-2.4491 -2.07284,0.0258 -2.065,-37.633789 0.008,-38.433197 -0.18684,-35.419773 2.45337,-37.949904 2.50626,-2.401759 -5.67038,-2.196998 87.4097,-2.18911 83.57408,0.0071 83.76777,0.0086 85.21547,0.665085 1.78899,0.811258 3.06835,1.997153 3.97945,3.688643 l 0.69594,1.292085 0.0864,33.861411 c 0.0582,22.803351 -0.0236,34.270881 -0.2506,35.115268 -0.52112,1.938891 -2.19485,3.912481 -4.16821,4.915071 l -1.7484,0.88832 -15.19959,0 c -17.07566,0 -17.52051,0.0491 -19.90068,2.19863 -0.72666,0.65621 -1.65972,1.91992 -2.07352,2.80824 -0.72667,1.55993 -0.75247,1.89925 -0.7555,9.93299 l -0.003,8.31786 22.66441,0 c 24.93132,0 24.48621,-0.0314 28.41629,2.0056 1.67504,0.86818 5.93666,4.99897 29.23266,28.33526 23.86574,23.90701 27.40436,27.57584 28.3335,29.37607 2.09572,4.06048 1.94328,-4.69152 1.93882,111.32429 -0.003,71.56205 -0.11188,106.42076 -0.33632,107.39647 -0.18279,0.79458 -0.77697,2.39353 -1.32047,3.55328 -0.91415,1.9506 -3.00891,4.13727 -27.95405,29.18033 -16.20346,16.26699 -27.71877,27.57884 -28.85221,28.34235 -1.03746,0.69886 -2.83024,1.56273 -3.98385,1.91971 -2.01779,0.62437 -2.97307,0.64905 -25.11814,0.64905 l -23.02064,0 0,48.55759 c 0,53.78905 0.14461,50.16218 -2.10452,52.79453 -0.60624,0.70955 -1.79543,1.63497 -2.64267,2.05656 l -1.5404,0.76657 -36.75828,0 c -36.5962,0 -36.76474,-0.003 -38.21293,-0.67454 -0.80006,-0.37096 -1.89315,-1.11386 -2.42918,-1.65086 -0.53601,-0.53695 -14.53638,-23.66953 -31.11196,-51.40567 l -30.13743,-50.42944 -76.19573,-0.007 -76.19568,-0.007 0.0995,8.80238 c 0.0888,7.84617 0.16478,8.92522 0.69994,9.93302 0.83803,1.57823 2.39338,3.16189 3.91381,3.98537 1.26118,0.683 1.65053,0.70206 17.57307,0.85995 l 16.28331,0.16154 1.52063,0.89552 c 0.83641,0.49258 1.88387,1.37253 2.32776,1.95552 1.89383,2.4874 1.79431,0.43167 1.79431,37.07536 0,25.06047 -0.0978,33.9752 -0.38332,34.9298 -0.50511,1.68899 -2.81249,4.22245 -4.53142,4.97537 -1.32626,0.58095 -4.18833,0.60304 -84.2403,0.64861 -45.57708,0.026 -83.47303,-0.0736 -84.21315,-0.22124 z m 37.62037,-275.06651 0,-86.43307 -8.30285,0.109 c -9.12784,0.1199 -9.51818,0.19294 -11.81157,2.21019 -0.66258,0.58281 -1.52265,1.65483 -1.91123,2.38234 l -0.70646,1.32266 -0.0948,79.78695 c -0.071,59.77577 -0.001,80.11098 0.27893,81.079 0.47172,1.631 1.75498,3.43312 3.10407,4.35923 2.12572,1.45923 3.044,1.58761 11.46353,1.60252 l 7.98041,0.0142 0,-86.43302 z m 193.04629,86.19076 c -0.0738,-0.13326 -21.41248,-35.81592 -47.41939,-79.29486 -37.96604,-63.47259 -47.47242,-79.14958 -48.23505,-79.54467 -1.90129,-0.98495 -3.82867,-0.4474 -5.08333,1.4178 l -0.73517,1.09291 0,78.28555 0,78.28553 50.80352,0 c 27.94195,0 50.74317,-0.10901 50.66942,-0.24226 z m 223.75252,-0.63357 c 1.69668,-0.90911 3.08036,-2.29535 3.85899,-3.86605 0.59504,-1.2003 0.61419,-3.41914 0.6995,-81.18249 0.0811,-73.89984 0.0471,-80.05607 -0.44865,-81.37091 -0.71029,-1.88385 -2.5228,-3.85245 -4.31447,-4.68598 -1.38472,-0.64425 -2.05111,-0.67951 -14.59044,-0.77254 l -13.13952,-0.0975 0,86.43915 0,86.43911 13.30073,-0.0943 c 13.0169,-0.0922 13.32916,-0.10946 14.63386,-0.80853 z m -121.28573,-5.96191 c 1.89935,-1.49672 1.77782,4.27296 1.77782,-84.40615 l 0,-81.57396 -53.07609,0 c -42.33266,0 -53.04319,0.0817 -52.91351,0.40378 0.67165,1.66788 98.80805,164.69705 99.55649,165.3883 1.24239,1.14753 3.33068,1.23186 4.65529,0.18803 z"
       style="opacity:1;fill:#0c2340;fill-opacity:1;stroke:#c99700;stroke-width:7.30000019;stroke-linecap:round;stroke-linejoin:miter;stroke-miterlimit:4;stroke-dasharray:1.82500005, 1.82500005;stroke-dashoffset:0;stroke-opacity:1"
       id="path2286"
       inkscape:connector-curvature="0" />
  </g>
</svg>
