<?xml version="1.0" encoding="UTF-8" standalone="no"?>
<!DOCTYPE svg PUBLIC "-//W3C//DTD SVG 1.1//EN" "http://www.w3.org/Graphics/SVG/1.1/DTD/svg11.dtd">
<svg x="0" y="0" width="383.199px" height="376.996px" viewBox="0 0 383.199 376.996" enable-background="new 0 0 383.199 376.996" xmlns="http://www.w3.org/2000/svg" xmlns:xlink="http://www.w3.org/1999/xlink">
<g fill="#000">
	<path d="M101.88,138.862l-0.277,113.245c4.534-1.523,8.688-2.96,13.717-4.47l0.036-111.885C110.868,136.784,106.372,137.66,101.88,138.862"/>
	<path d="M296.997,157.052c1.029,0.293,10.939,3.365,10.939,3.365l0.027,101.876c4.884,2.433,9.113,4.728,13.479,7.564l0.038-104.7c0,0,12.062,4.659,12.938,5.055v-15.202c-12.026-5.112-25.114-8.909-37.485-12.696L296.997,157.052z"/>
	<path d="M253.779,132.626c-12.18-2.154-23.064-3.297-35.318-4.38l0.026,14.135c4.039,0.389,10.196,1.081,10.196,1.081l-0.015,95.55c5.036,0.729,10.276,1.373,14.844,2.188l-0.461-95.963c0,0,5.611,0.784,10.73,1.654v-14.269L253.779,132.626L253.779,132.626z"/>
	<path d="M136.162,228.185l0.308-81.381l8.757-1.269l0.358,80.88L136.162,228.185z M130.666,132.843l-8.024,10.55l0.128,93.853l7.269,6.534c8.215-1.983,14.371-2.979,22.308-4.199l6.666-8.757l0.296-91.646l-9.341-9.168C143.56,130.867,137.124,131.638,130.666,132.843"/>
	<path d="M278.853,184.786l-8.287-2.084l-0.008-32.389l8.312,2.055L278.853,184.786z M292.422,152.847l-7.662-13.786c-6.508-1.759-12.218-2.798-18.733-4.196l-8.95,8.186l0.024,101.092c4.519,1.171,8.965,2.094,13.34,3.498v-50.384l8.742,2.498v50.878c4.507,1.662,8.928,3.108,13.253,5.022V152.854L292.422,152.847L292.422,152.847z"/>
	<path d="M80.547,190.973l-9.083,3.482l-0.165-46.734c-4.688,1.692-9.061,2.949-13.696,4.833l-0.025,121.49c4.927-3.404,8.726-5.225,14.646-8.812l-0.139-55.521c0,0,5.25-2.271,9.257-3.64l0.127,54.367c4.521-2.193,8.288-3.64,13.02-5.646l0.021-113.939c-4.671,1.357-9.318,2.368-13.957,4.085v46.036h-0.007L80.547,190.973L80.547,190.973z"/>
	<polygon points="170.42,214.894 170.42,260.273 180.591,270.283 205.332,270.436 215.375,260.273 215.088,187.857 204.248,177.465 185.565,177.478 185.518,121.891 200.479,121.959 200.498,157.604 215.176,157.583 215.217,116.433 205.253,106.508 180.567,106.508 170.42,116.485 170.42,184.209 181.438,194.685 199.949,194.685 200.086,256.413 185.199,256.413 185.199,214.894"/>
	<path d="M35.003,310.857l-10.265,6.99l0.068-135.33l10.22-5.389L35.003,310.857z M17.433,170.368l-7.065,13.49v144.109l11.189,7.495c1.869-1.172,19.432-11.807,20.554-12.436l6.567-14.079l0.137-141.518l-10.275-7.501C31.305,163.319,24.373,166.485,17.433,170.368"/>
	<path d="M339.334,311.176c10.055,7.646,24.813,19.349,34.067,27.185v-18.503c-6.304-5.1-19.29-15.565-19.29-15.565v-56.319c0,0,13.341,7.236,19.29,10.865V241.27c-5.809-3.626-19.88-11.098-19.88-11.098l0.027-51.243c0,0,13.092,6.496,19.858,10.336l0.005-16.255c-10.874-6.428-22.916-11.011-34.448-16.188L339.334,311.176z"/>
</g>
<g fill="#666666">
	<path d="M150.123,248.121v20.746l22.096,21.647l41.398,0.307l22.031-22.207l0.056-20.262c-3.749-0.632-6.636-1.066-10.472-1.546v17.475l-15.652,15.657l-33.005,0.056l-15.897-15.444v-17.674C156.854,247.373,153.871,247.458,150.123,248.121"/>
	<path d="M172.515,86.111l-22.385,21.921v12.995c3.81-0.491,6.766-0.63,10.534-0.996v-7.708l16.042-15.646h32.554l15.67,15.581v7.602c3.769,0.354,6.844,0.822,10.649,1.302v-13.117l-21.858-21.933L172.515,86.111L172.515,86.111z"/>
	<path d="M311.759,75.805L245.537,9.742H140.771L73.698,75.604l0.104,51.685c-20.938,6.7-42.912,14.701-63.204,25.63v10.894c22.316-12.875,55.654-23.999,73.741-29.318V80.463l61.041-60.018l95.628-0.02l60.318,59.627l-0.078,54.254c20.877,5.863,52.102,17.711,72.199,28.925v-10.899c-20.228-10.853-40.248-18.13-61.611-24.963L311.759,75.805z"/>
	<path d="M301.295,296l-60.226,60.79l-95.981-0.054l-60.725-60.403v-28.438c-11.073,5.373-18.821,10.137-26.761,15.947v12.548c4.783-3.792,10.7-8.793,16.083-11.938v15.931l67.271,66.883l104.178,0.092l66.635-66.684l-0.007-15.625c7.531,4.515,14.207,9.061,20.403,14.332v-12.316c-9.071-6.934-19.254-13.697-30.812-19.184L301.295,296z"/>
</g>
<g fill="#BB0000">
	<path d="M149.278,30.206l-55.26,54.42v47.198c15.729-4.398,30.828-7.096,46.397-9.442v-18.626l28.016-27.326h49.358l27.473,27.506v18.333c15.553,2.289,30.582,5.16,46.313,9.505V84.879l-54.674-54.674H149.278z"/>
	<path d="M94.106,292.191l54.958,54.124l88.042,0.689l54.49-55.086l0.002-28.212c-14.49-6.13-29.236-10.592-46.267-13.944l-0.046,22.938l-27.24,27.875l-49.842-0.354l-27.816-27.454V249.92c-16.416,3.241-32.5,7.912-46.275,13.851v28.409h0.002L94.106,292.191L94.106,292.191z"/>
</g>
</svg>
