<?xml version="1.0" encoding="UTF-8"?>
<svg xmlns="http://www.w3.org/2000/svg" width="145.25" height="200">
<path d="m 36.876996,115.00237 -6.931657,-7.44167 0,-70.174908 6.931657,-7.4391 34.426079,0 6.930287,7.4391 0,70.174908 -6.930287,7.44167 -2.226875,0 0,-47.853303 -29.945355,0 0,47.853303 -2.253849,0 z m 80.485864,-47.853303 0,95.463803 -6.92895,7.44045 -34.427423,0 -6.930287,-7.44045 0,-17.66516 9.154462,0 27.887178,-29.94534 0,-85.055677 L 78.230662,5e-6 27.889885,5e-6 -4.9999998e-7,29.946693 l 0,85.055677 L 27.889885,144.94771 l 11.24096,0 0,25.10561 27.88853,29.94669 50.340785,0 27.88986,-29.94669 0,-102.904253 -27.88716,0 z" style="fill:#841617"/>
</svg>