<?xml version="1.0" encoding="UTF-8" standalone="no"?>
<!-- Created with Inkscape (http://www.inkscape.org/) -->
<svg
   xmlns:svg="http://www.w3.org/2000/svg"
   xmlns="http://www.w3.org/2000/svg"
   version="1.0"
   width="383.16"
   height="198.64626"
   id="svg2"
   xml:space="preserve"><path
     d="M 101.15963,113.50512 L 118.48838,64.92512 L 132.00338,59.73887 L 118.48587,64.92512 L 117.43963,64.92512 L 82.027125,64.92137 L 65.489625,113.55762 L 65.504625,113.54137 L 101.15963,113.50512 z"
     id="path35"
     style="fill:#000000;fill-opacity:1;fill-rule:nonzero;stroke:none" /><path
     d="M 352.126,52.737745 L 352.1135,52.742745 L 347.566,63.973995 L 217.02725,63.973995 L 219.93475,56.830245 L 223.23975,47.806495 L 193.261,47.806495 L 184.791,70.877745 L 168.246,78.480245 L 184.83975,70.858995 L 231.00225,108.519 L 214.80725,115.66399 L 230.991,108.519 L 220.1935,139.8015 C 220.1935,139.8015 211.3635,176.3815 180.52225,176.3815 L 136.56225,176.3815 L 119.76725,164.1765 L 126.91975,144.699 L 26.8185,144.699 L 26.82725,144.67275 L 40.54475,139.2715 L 26.8185,144.67275 L 30.30975,133.04525 L 162.36225,133.444 L 162.31725,133.47024 L 162.34975,133.47024 L 160.8485,137.08525 L 160.87475,137.08525 L 155.816,150.88775 L 155.8335,150.87775 L 185.681,150.87775 L 194.8985,125.4265 L 194.906,125.4265 L 147.25475,88.522745 L 147.25975,88.507745 L 168.21975,78.475245 L 147.23225,88.512745 L 155.17225,66.198995 C 171.0885,17.766495 198.94475,21.555245 198.506,21.572745 L 243.896,22.535245 L 243.871,22.560245 L 243.896,22.560245 L 258.7485,33.345245 L 251.83975,52.687745 L 251.8285,52.687745 L 352.126,52.737745 z M 325.04225,129.01024 C 318.42725,146.994 299.851,144.9565 299.851,144.9565 L 250.456,144.9565 L 234.716,134.22149 L 256.65975,72.650245 L 282.92225,72.650245 L 282.92975,72.650245 L 282.8285,72.957745 L 261.7485,133.339 L 261.76475,133.339 L 288.156,133.2815 C 297.50475,133.20775 300.0035,125.8465 301.64225,120.89275 C 303.261,115.94775 318.37725,72.511495 318.37725,72.511495 L 344.80975,72.511495 C 344.80975,72.511495 328.3935,119.8365 325.04225,129.01024 M 53.7085,73.170245 C 60.546,53.145245 77.60475,53.071495 77.60475,53.071495 L 131.14725,53.071495 L 145.25225,62.807745 C 145.25225,62.807745 133.13725,96.151495 128.516,109.024 C 122.98225,124.42775 104.54975,125.40025 104.54975,125.40025 L 95.19725,125.40025 L 64.806,125.40025 L 55.45225,125.40025 L 39.52225,114.2665 L 53.7085,73.170245 M 272.87225,28.981495 L 247.736,10.383995 L 196.32475,10.383995 C 173.1635,10.383995 156.72975,31.842745 152.01725,40.592745 L 82.7885,40.592745 C 73.35475,40.403995 50.36725,45.056495 43.78475,62.536495 C 38.826,75.656495 30.141,103.57525 26.11725,116.65775 L 38.52225,125.0065 L 23.53975,124.8965 L 14.12475,155.054 L 110.0585,155.07525 L 105.281,167.1065 L 132.421,188.25525 L 180.52225,188.21275 C 209.99225,188.21275 225.51975,162.54775 230.64725,146.239 L 246.4535,157.014 L 300.361,157.014 C 309.941,157.739 328.551,153.88775 335.81975,134.12775 C 338.816,125.94649 349.7335,94.890245 350.201,93.560245 L 356.401,75.940245 L 356.36475,75.940245 L 368.591,40.537745 L 268.75225,40.537745 L 272.87225,28.981495"
     id="path47"
     style="fill:#000000;fill-opacity:1;fill-rule:nonzero;stroke:none" /><path
     d="M 239.45837,58.51987 L 251.82837,52.68737 L 251.72338,52.73737 L 239.45837,58.51987 z"
     id="path51"
     style="fill:#FF7300;fill-opacity:1;fill-rule:nonzero;stroke:none" /><path
     d="M 249.756,58.51987 L 239.4585,58.51987 L 251.7235,52.73737 L 251.8285,52.68737 L 251.83975,52.68737 L 258.7485,33.34487 L 243.896,22.56112 L 243.871,22.56112 L 232.5385,36.40237 L 196.89975,36.40237 C 189.281,36.40237 181.3185,41.63362 178.3035,49.48237 C 173.571,61.76987 168.21975,78.47487 168.21975,78.47487 L 147.25975,88.50737 L 147.25475,88.52362 L 194.906,125.42612 L 214.791,115.69612 C 214.791,115.69612 206.1435,138.02612 203.516,145.92737 C 199.66975,157.49237 191.431,162.53112 179.8835,162.53112 L 134.761,162.53112 L 155.816,150.88862 L 160.8735,137.08612 L 160.8485,137.08612 L 162.34975,133.47112 L 162.31725,133.47112 L 151.61225,139.27112 L 128.916,139.27112 L 40.54475,139.27112 L 26.82725,144.67237 L 26.8185,144.69862 L 126.91975,144.69862 L 119.76725,164.17612 L 136.56225,176.38112 L 180.52225,176.38112 C 211.3635,176.38112 220.1935,139.80112 220.1935,139.80112 L 230.991,108.51862 L 214.80725,115.66487 L 168.246,78.47987 L 184.78975,70.87737 L 193.261,47.80737 L 223.23975,47.80737 L 219.93475,56.83112 L 217.02725,63.97362 L 347.566,63.97362 L 352.1135,52.74362 L 341.271,58.51987 L 249.756,58.51987 z"
     id="path55"
     style="fill:#FF7300;fill-opacity:1;fill-rule:nonzero;stroke:none" /><path
     d="M 313.50175,122.85212 C 308.183,134.70462 298.92175,139.06712 291.7755,139.06712 L 255.368,139.06712 L 261.76425,133.33962 L 261.748,133.33962 L 282.828,72.95837 L 282.9305,72.65087 L 282.92175,72.65087 L 265.928,82.14962 L 251.5255,125.20087 L 234.7155,134.22212 L 250.4555,144.95712 L 299.8505,144.95712 C 299.8505,144.95712 318.42675,146.99462 325.04175,129.00962 C 328.39425,119.83587 344.8105,72.51212 344.8105,72.51212 L 326.74675,82.81462 L 313.50175,122.85212 z"
     id="path59"
     style="fill:#FF7300;fill-opacity:1;fill-rule:nonzero;stroke:none" /><path
     d="M 65.489625,113.55775 L 82.027125,64.921495 L 117.43963,64.925245 L 118.48587,64.925245 L 132.00338,59.738995 L 115.38338,108.48275 C 111.53838,118.34399 100.58212,118.61775 100.58212,118.61775 L 60.372125,118.61775 L 65.489625,113.55775 z M 64.805875,125.40025 L 95.197125,125.40025 L 104.54962,125.40025 C 104.54962,125.40025 122.98213,124.429 128.51587,109.024 C 133.13712,96.151495 145.25337,62.807745 145.25337,62.807745 L 131.14712,53.071495 L 132.01962,59.736495 L 81.777125,59.717745 C 70.528375,59.717745 65.850875,73.212745 65.850875,73.212745 L 54.740875,105.76025 L 39.522125,114.2665 L 55.452125,125.40025 L 64.805875,125.40025"
     id="path63"
     style="fill:#FF7300;fill-opacity:1;fill-rule:nonzero;stroke:none" /><path
     d="M 372.63125,41.927495 C 372.63125,41.927495 360.41,77.342495 360.4275,77.361245 C 360.4275,77.361245 354.23375,94.984995 354.1625,95.194995 C 354.1625,95.194995 339.83,135.5975 339.83,135.60375 C 331.80375,157.435 311.37375,162.01625 300.33,161.29124 L 245.1325,161.29124 C 245.1325,161.29124 237.38875,156.01625 232.7775,152.86875 C 225.00375,172.20875 207.57875,192.48375 180.5225,192.48375 L 130.955,192.5325 L 100.11875,168.51 C 100.11875,168.51 102.5325,162.43125 103.75875,159.3475 C 92.765,159.3475 8.30625,159.33124 8.30625,159.33124 L 21.10625,118.43875 C 21.10625,118.43875 34.89375,73.974995 39.77875,61.026245 C 47.5925,40.317495 74.175,36.144995 82.78875,36.316245 L 149.62375,36.316245 C 156.62875,24.738745 173.6,6.109995 196.32375,6.109995 L 247.73625,6.109995 L 249.1525,6.109995 L 277.96875,27.428745 C 277.96875,27.428745 275.8575,33.337495 274.815,36.258745 L 374.585,36.258745 L 372.63125,41.927495 z M 283.48125,30.147495 C 284.2525,27.998745 285.2525,25.219995 285.2525,25.219995 L 251.15375,-4.9999999e-06 L 247.73625,-4.9999999e-06 L 196.32375,-4.9999999e-06 C 172.85875,-4.9999999e-06 154.9525,17.501245 146.26,30.211245 L 82.78875,30.211245 C 72.4725,30.003745 43.16125,34.747495 34.065,58.871245 C 29.115,71.974995 20.73875,98.793745 16.195,113.615 C 16.195,113.615 15.98375,114.2825 15.9325,114.45125 L 15.925,114.45125 L -7.1054274e-15,165.43625 C -7.1054274e-15,165.43625 73.1475,165.4525 94.76,165.4525 C 93.915,167.58625 92.755,170.51625 92.755,170.51625 L 128.85375,198.64624 L 180.53375,198.59375 C 207.38625,198.59375 225.64875,180.87375 235.33,161.99999 C 237.6725,163.6025 243.24375,167.40625 243.24375,167.40625 L 300.28375,167.40625 C 313.11625,168.12125 336.3725,162.69875 345.5625,137.71625 C 345.57375,137.695 359.92625,97.227495 359.92625,97.227495 C 360,97.007495 366.19625,79.386245 366.19625,79.386245 C 366.18875,79.333745 378.405,43.921245 378.405,43.921245 L 383.16,30.147495 L 283.48125,30.147495"
     id="path67"
     style="fill:#BEBEBE;fill-opacity:1;fill-rule:nonzero;stroke:none" /><path
     d="M 368.59075,40.53787 L 356.3645,75.94037 L 356.40075,75.94037 L 350.20075,93.56037 C 349.73325,94.89037 338.81575,125.94662 335.8195,134.12787 C 328.552,153.88787 309.942,157.73912 300.36075,157.01412 L 246.4545,157.01412 L 230.647,146.23912 C 225.5195,162.54662 209.992,188.21287 180.522,188.21287 L 132.422,188.25537 L 105.28075,167.10662 L 110.05825,155.07537 L 14.1245,155.05412 L 23.5395,124.89537 L 38.522,125.00662 L 26.117,116.65787 C 30.142,103.57537 38.827,75.65662 43.7845,62.53662 C 50.367,45.05662 73.3545,40.40412 82.78825,40.59287 L 152.017,40.59287 C 156.7295,31.84287 173.16325,10.38412 196.3245,10.38412 L 247.73575,10.38412 L 272.872,28.98162 L 268.752,40.53787 L 368.59075,40.53787 z M 277.96825,27.42912 L 249.152,6.11037 L 247.73575,6.11037 L 196.3245,6.11037 C 173.5995,6.11037 156.6295,24.73912 149.6245,36.31662 L 82.78825,36.31662 C 74.1745,36.14537 47.59325,40.31662 39.77825,61.02662 C 34.89325,73.97537 21.10575,118.43912 21.10575,118.43912 L 8.307,159.33162 C 8.307,159.33162 92.7645,159.34787 103.7595,159.34787 C 102.532,162.43162 100.1195,168.51037 100.1195,168.51037 L 130.95575,192.53287 L 180.522,192.48412 C 207.57825,192.48412 225.00325,172.20912 232.777,152.86787 C 237.38825,156.01537 245.13325,161.29037 245.13325,161.29037 L 300.3295,161.29037 C 311.3745,162.01537 331.80325,157.43412 339.8295,135.60287 C 339.8295,135.59787 354.162,95.19412 354.162,95.19412 C 354.23325,94.98412 360.42825,77.36037 360.42825,77.36037 C 360.41075,77.34287 372.63075,41.92787 372.63075,41.92787 L 374.58575,36.25787 L 274.81575,36.25787 C 275.85825,33.33662 277.96825,27.42912 277.96825,27.42912"
     id="path71"
     style="fill:#FF9900;fill-opacity:1;fill-rule:nonzero;stroke:none" /><path
     d="M 65.850875,73.21287 C 65.850875,73.21287 70.528375,59.71787 81.777125,59.71787 L 132.01962,59.73662 L 131.14712,53.07162 L 77.604625,53.07162 C 77.604625,53.07162 60.545875,53.14537 53.708375,73.17037 L 39.522125,114.26662 L 54.740875,105.76037 L 65.850875,73.21287 z"
     id="path75"
     style="fill:#FF9900;fill-opacity:1;fill-rule:nonzero;stroke:none" /><path
     d="M 115.38363,108.48212 L 132.00362,59.73837 L 118.48862,64.92462 L 101.15987,113.50462 L 65.503625,113.54212 L 65.489875,113.55712 L 65.481125,113.57837 L 60.372375,118.61712 L 100.58112,118.61712 C 100.58112,118.61712 111.53862,118.34462 115.38363,108.48212"
     id="path79"
     style="fill:#FF9900;fill-opacity:1;fill-rule:nonzero;stroke:none" /><path
     d="M 65.489625,113.55775 L 60.372125,118.61775 L 65.482125,113.579 L 65.489625,113.55775 z"
     id="path83"
     style="fill:#FF9900;fill-opacity:1;fill-rule:nonzero;stroke:none" /><path
     d="M 151.61212,139.27124 L 162.31338,133.47 L 162.31713,133.47 L 162.36212,133.445 L 30.309625,133.045 L 26.818375,144.6725 L 40.544625,139.27124 L 151.61212,139.27124 z"
     id="path87"
     style="fill:#FF9900;fill-opacity:1;fill-rule:nonzero;stroke:none" /><path
     d="M 151.61212,139.27124 L 162.31713,133.47 L 162.31338,133.47 L 151.61212,139.27124 z"
     id="path91"
     style="fill:#FF9900;fill-opacity:1;fill-rule:nonzero;stroke:none" /><path
     d="M 134.7615,162.53099 L 179.884,162.53099 C 191.4315,162.53099 199.669,157.49225 203.5165,145.92724 C 206.14275,138.026 214.7915,115.696 214.7915,115.696 L 194.909,125.42724 L 194.9065,125.42724 L 194.899,125.42724 L 185.68025,150.87725 L 155.83275,150.87725 L 155.81525,150.8885 L 134.7615,162.53099 z"
     id="path95"
     style="fill:#FF9900;fill-opacity:1;fill-rule:nonzero;stroke:none" /><path
     d="M 155.8155,150.88837 L 155.8155,150.88837 L 134.76175,162.53087 L 155.8155,150.88837 z"
     id="path99"
     style="fill:#FF7300;fill-opacity:1;fill-rule:nonzero;stroke:none" /><path
     d="M 214.79163,115.696 L 194.90662,125.426 L 194.90912,125.426 L 214.79163,115.696 z"
     id="path103"
     style="fill:#FF7300;fill-opacity:1;fill-rule:nonzero;stroke:none" /><path
     d="M 231.002,108.51912 L 184.8395,70.85912 L 168.24575,78.48037 L 214.80825,115.66412 L 231.002,108.51912 z"
     id="path107"
     style="fill:#FF9900;fill-opacity:1;fill-rule:nonzero;stroke:none" /><path
     d="M 196.89975,36.40287 L 232.5385,36.40287 L 243.8685,22.56037 L 243.871,22.56037 L 243.896,22.53412 L 198.506,21.57287 C 198.94475,21.55537 171.0885,17.76662 155.17225,66.19912 L 147.23225,88.51287 L 168.21975,78.47537 C 168.21975,78.47537 173.571,61.76912 178.3035,49.48287 C 181.3185,41.63287 189.281,36.40287 196.89975,36.40287"
     id="path111"
     style="fill:#FF9900;fill-opacity:1;fill-rule:nonzero;stroke:none" /><path
     d="M 232.53812,36.40287 L 243.87187,22.56037 L 243.86937,22.56037 L 232.53812,36.40287 z"
     id="path115"
     style="fill:#FF7300;fill-opacity:1;fill-rule:nonzero;stroke:none" /><path
     d="M 239.45837,58.51987 L 249.75588,58.51987 L 341.27213,58.51987 L 352.11338,52.73737 L 352.11338,52.74362 L 352.12588,52.73737 L 251.82837,52.68737 L 239.45837,58.51987 z"
     id="path119"
     style="fill:#FF9900;fill-opacity:1;fill-rule:nonzero;stroke:none" /><path
     d="M 341.2715,58.51987 L 352.114,52.74362 L 352.114,52.73737 L 341.2715,58.51987 z"
     id="path123"
     style="fill:#FF7300;fill-opacity:1;fill-rule:nonzero;stroke:none" /><path
     d="M 265.9275,82.15012 L 282.53875,72.86387 L 282.9225,72.65137 L 256.66,72.65137 L 234.71625,134.22137 L 251.52625,125.20012 L 265.9275,82.15012 z"
     id="path127"
     style="fill:#FF9900;fill-opacity:1;fill-rule:nonzero;stroke:none" /><path
     d="M 265.9275,82.15012 L 282.9225,72.65137 L 282.53875,72.86387 L 265.9275,82.15012 z"
     id="path131"
     style="fill:#FF7300;fill-opacity:1;fill-rule:nonzero;stroke:none" /><path
     d="M 301.64238,120.89237 C 300.00238,125.84737 297.50488,133.20737 288.15613,133.28112 L 261.76488,133.33987 L 255.36737,139.06737 L 291.77488,139.06737 C 298.92112,139.06737 308.18363,134.70487 313.50113,122.85237 L 326.74613,82.81487 L 344.80988,72.51112 L 318.37737,72.51112 C 318.37737,72.51112 303.25987,115.94862 301.64238,120.89237"
     id="path135"
     style="fill:#FF9900;fill-opacity:1;fill-rule:nonzero;stroke:none" /></svg>