<?xml version="1.0" encoding="utf-8"?>
<!-- Generator: Adobe Illustrator 16.0.0, SVG Export Plug-In . SVG Version: 6.00 Build 0)  -->
<!DOCTYPE svg PUBLIC "-//W3C//DTD SVG 1.1//EN" "http://www.w3.org/Graphics/SVG/1.1/DTD/svg11.dtd">
<svg version="1.1" id="Layer_1" xmlns="http://www.w3.org/2000/svg" xmlns:xlink="http://www.w3.org/1999/xlink" x="0px" y="0px"
	 width="450.828px" height="370.825px" viewBox="0 0 450.828 370.825" enable-background="new 0 0 450.828 370.825"
	 xml:space="preserve">
<path fill="#006241" d="M338.94,238.208c-1.128,20.73-3.011,42.224-14.076,59.317c-24.075,31.853-61.677,45.509-99.46,45.831v0.059
	c-37.773-0.343-75.362-13.968-99.437-45.826c-11.047-17.084-12.954-38.576-14.088-59.299c-2.539-47.517,1.982-130.038,4.376-138.706
	c11.959-43.147,53.589-65.671,96.828-69.687c0,0,6.96-0.542,12.768-0.696v-0.032c5.618,0.176,11.905,0.659,11.905,0.659
	c43.225,4.029,84.854,26.522,96.837,69.685C336.989,108.162,341.489,190.706,338.94,238.208 M435.758,90.802
	c-27.79-54.278-87.774-73.361-143.064-84.753C273.607,1.804,236.746,0,236.746,0c-3.784,0.032-7.562,0.096-11.342,0.171v0.076
	c-3.764-0.086-7.538-0.152-11.324-0.171c0,0-36.856,1.791-55.949,6.038c-55.287,11.383-115.26,30.478-143.07,84.763
	c-17.742,45.885-17.696,105.65-10.655,152.23l0.551,3.892c5.692,47.258,47.97,85.78,94.876,101.867
	c37.93,16.33,82.151,22.604,126.017,21.907v-0.063c43.582,0.617,87.486-5.709,125.146-21.922
	c46.914-16.092,89.177-54.615,94.872-101.861l0.554-3.896C453.451,196.45,453.529,136.699,435.758,90.802"/>
</svg>
