<?xml version="1.0" encoding="utf-8"?>
<!-- Generator: Adobe Illustrator 15.1.0, SVG Export Plug-In . SVG Version: 6.00 Build 0)  -->
<!DOCTYPE svg PUBLIC "-//W3C//DTD SVG 1.1//EN" "http://www.w3.org/Graphics/SVG/1.1/DTD/svg11.dtd">
<svg version="1.1" id="Layer_1" xmlns="http://www.w3.org/2000/svg" xmlns:xlink="http://www.w3.org/1999/xlink" x="0px" y="0px"
	 width="300px" height="367.108px" viewBox="0 0 300 367.108" enable-background="new 0 0 300 367.108" xml:space="preserve">
<path fill="#FFFFFF" d="M288.767,0H0l0.032,99.642v62.781c0,85.302,97.091,172.333,144.114,201.117l5.832,3.568l5.888-3.568
	C202.896,334.764,300,247.743,300,162.423L299.935,0H288.767"/>
<path fill="#011F5B" d="M288.767,11.167H11.18l0.017,88.474v62.781c0,80.243,95.363,165.009,138.781,191.594v0.041
	c0.008-0.008,0.024-0.008,0.032-0.016c0.016,0.008,0.016,0.008,0.024,0.016v-0.041c43.434-26.585,138.782-111.352,138.782-191.594
	L288.767,11.167"/>
<path fill="#FFFFFF" d="M25.068,112.699c0,13.698,0,49.724,0,49.724c0,66.381,77.667,143.387,124.946,175.09
	c47.261-31.703,124.941-108.709,124.941-175.09c0,0,0-36.025,0-49.724C252.413,112.805,47.599,112.805,25.068,112.699"/>
<path fill="#990000" d="M158.708,156.121c0,0,7.138,0,12.899,0c1.958,0,4.761,0.6,7.385,2.32l19.115-26.918
	c-7.291-3.204-16.104-4.704-26.078-4.704h-67.542c0,0,0.166,20.227,0,20.064c7.433,0,18.795,3.366,18.795,14.412v75.604
	l35.425-49.911V156.121"/>
<path fill="#011F5B" d="M184.726,165.861c-0.009-0.017-0.009-0.041-0.028-0.057C184.705,165.821,184.717,165.845,184.726,165.861"/>
<path fill="#FFFFFF" d="M207.819,137.654h0.008c-0.482-0.413-0.965-0.827-1.472-1.208
	C206.862,136.827,207.345,137.241,207.819,137.654"/>
<path fill="#FFFFFF" d="M204.522,135.091c0.571,0.39,1.135,0.803,1.679,1.232C205.657,135.894,205.094,135.481,204.522,135.091"/>
<path fill="#FFFFFF" d="M184.113,164.434c0.085,0.187,0.166,0.365,0.26,0.551C184.279,164.799,184.198,164.621,184.113,164.434"/>
<path fill="#FFFFFF" d="M206.205,136.324c0.049,0.033,0.105,0.073,0.154,0.122C206.311,136.397,206.254,136.356,206.205,136.324"/>
<path fill="#FFFFFF" d="M183.067,162.561c0.381,0.568,0.722,1.2,1.046,1.881C183.789,163.761,183.448,163.128,183.067,162.561"/>
<path fill="#FFFFFF" d="M204.441,135.034L204.441,135.034c0.024,0.025,0.057,0.041,0.081,0.057
	C204.498,135.075,204.466,135.051,204.441,135.034"/>
<path fill="#FFFFFF" d="M184.701,165.813L184.701,165.813c-0.109-0.284-0.207-0.56-0.333-0.828
	C184.494,165.253,184.592,165.537,184.701,165.813"/>
<path fill="#FFFFFF" d="M158.968,193.419c-0.15,0-0.26,0-0.26,0v-6.423l-35.429,49.894v3.698c0,0.017,0,0.025,0,0.032l38.75-47.201
	H158.968"/>
<path fill="#FFFFFF" d="M206.359,136.446c-0.053-0.049-0.109-0.089-0.158-0.13c-0.539-0.422-1.107-0.827-1.679-1.225
	c-0.024-0.017-0.057-0.032-0.081-0.057c-1.963-1.338-4.071-2.506-6.338-3.511l-19.12,26.918c1.48,0.981,2.9,2.319,4.079,4.12
	c0.382,0.568,0.722,1.208,1.055,1.874c0.085,0.187,0.167,0.373,0.251,0.551c0.122,0.276,0.231,0.543,0.329,0.819l23.122-28.151
	C207.345,137.241,206.866,136.835,206.359,136.446"/>
<path fill="#011F5B" d="M184.701,165.813l23.118-28.159c9.57,8.094,12.559,20.56,12.559,32.474c0,28.855-17.092,43.3-51.265,43.3
	h-10.49v29.489c0,10,5.53,17.007,19.898,17.007c0,3.074,0,19.285,0,19.285h-74.038c0,0-0.073-19.212,0-19.285
	c12.044,0,18.787-8.183,18.795-19.303l38.758-47.209c1.451,0,3.231,0,5.114,0c9.658,0,19.01-3.625,19.01-18.743
	C186.161,172.106,185.724,168.449,184.701,165.813"/>
<path fill="#990000" d="M58.227,67.314l-0.073,8.224c0,3.39,1.809,5.353,7.539,5.353v7.323h-30.32c0,0,0.073-7.323,0.15-7.323
	c4.749,0,7.465-2.336,7.539-6.18V47.996c0.085-3.763-4.067-4.826-6.934-4.826c0-2.255,0-7.616,0-7.616h29.415
	c11.545,0,19.692,4.38,19.534,14.858c-0.15,9.886-7.539,16.901-21.192,16.901H58.227 M58.227,57.655c0,0,1.735,0,3.321,0
	c3.54,0,7.012-1.2,7.092-6.188c0.077-4.899-3.021-6.48-5.661-6.48c-2.113,0-4.826,0-4.826,0L58.227,57.655z"/>
<path fill="#990000" d="M125.213,48.458c0,0,0.296-5.507-6.115-5.507c-2.032,0-6.942,0-6.942,0v14.176h3.707
	c3.694,0,3.694-3.69,3.694-3.69h6.411v14.404h-6.411c0,0-0.381-3.625-3.853-3.625h-3.548v16.074c0,0,5.516,0,7.093,0
	c3.321,0,6.188-1.589,6.261-6.415h10.417v14.331l-46.775,0.081c0,0,0-6.723,0-7.396c3.471,0,7.997-1.509,7.997-6.188l-0.073-26.779
	c0-3.917-5.58-4.68-7.166-4.68c0-3.991-0.077-7.689-0.077-7.689h46.094v12.904H125.213"/>
<path fill="#990000" d="M185.557,64.525V50.348c0-4.452-1.585-7.169-7.919-7.169v-7.696h26.856v7.624c-4.983,0-7.315,0.3-7.315,6.48
	c0,6.861,0.073,38.621,0.073,38.621h-13.431L165.269,63.17c0,0-0.081,8.216-0.081,10.479c0,4.899,2.567,7.088,7.997,7.088
	c0,3.317-0.077,7.47-0.077,7.47h-26.476c0,0,0-5.134,0-7.243c5.134,0,7.393-2.79,7.393-7.315c0-1.963,0-18.029,0-25.571
	c0-3.771-2.94-4.972-6.857-4.972v-7.624h17.498L185.557,64.525"/>
<path fill="#990000" d="M249.903,64.525V50.348c0-4.452-1.59-7.169-7.924-7.169v-7.696h26.86v7.624c-4.987,0-7.314,0.3-7.314,6.48
	c0,6.861,0.064,38.621,0.064,38.621h-13.422L229.603,63.17c0,0-0.072,8.216-0.072,10.479c0,4.899,2.567,7.088,8.005,7.088
	c0,3.317-0.081,7.47-0.081,7.47h-26.476c0,0,0-5.134,0-7.243c5.129,0,7.389-2.79,7.389-7.315c0-1.963,0-18.029,0-25.571
	c0-3.771-2.94-4.972-6.866-4.972v-7.624h17.507L249.903,64.525"/>
<path fill="#FFFFFF" d="M53.754,62.846l-0.073,8.224c0,3.382,1.809,5.353,7.538,5.353v7.308h-30.32c0,0,0.077-7.308,0.15-7.308
	c4.748,0,7.465-2.344,7.542-6.188V43.527c0.073-3.771-4.071-4.826-6.934-4.826c0-2.271,0-7.615,0-7.615h29.416
	c11.541,0,19.688,4.371,19.529,14.857c-0.146,9.887-7.538,16.902-21.192,16.902H53.754 M53.754,53.187c0,0,1.735,0,3.321,0
	c3.54,0,7.012-1.208,7.084-6.188c0.077-4.898-3.013-6.488-5.653-6.488c-2.113,0-4.826,0-4.826,0L53.754,53.187z"/>
<path fill="#FFFFFF" d="M120.74,43.981c0,0,0.3-5.507-6.115-5.507c-2.032,0-6.942,0-6.942,0v14.176h3.707
	c3.694,0,3.694-3.69,3.694-3.69h6.412v14.404h-6.412c0,0-0.381-3.617-3.852-3.617h-3.548v16.066c0,0,5.515,0,7.093,0
	c3.325,0,6.188-1.582,6.265-6.407h10.414v14.33l-46.775,0.073c0,0,0-6.715,0-7.389c3.471,0,8.001-1.508,8.001-6.188l-0.077-26.78
	c0-3.925-5.58-4.68-7.166-4.68c0-3.99-0.077-7.688-0.077-7.688h46.094v12.895H120.74"/>
<path fill="#FFFFFF" d="M181.084,60.048V45.871c0-4.452-1.59-7.169-7.915-7.169v-7.697h26.849v7.624
	c-4.976,0-7.315,0.301-7.315,6.488c0,6.861,0.073,38.621,0.073,38.621h-13.419l-18.564-25.044c0,0-0.073,8.224-0.073,10.486
	c0,4.898,2.567,7.088,7.998,7.088c0,3.317-0.082,7.469-0.082,7.469h-26.476c0,0,0-5.133,0-7.242c5.13,0,7.388-2.79,7.388-7.315
	c0-1.962,0-18.037,0-25.572c0-3.771-2.94-4.979-6.857-4.979v-7.624h17.498L181.084,60.048"/>
<path fill="#FFFFFF" d="M245.431,60.048V45.871c0-4.452-1.586-7.169-7.924-7.169v-7.697h26.857v7.624
	c-4.984,0-7.316,0.301-7.316,6.488c0,6.861,0.073,38.621,0.073,38.621h-13.426L225.13,58.693c0,0-0.063,8.224-0.063,10.486
	c0,4.898,2.559,7.088,7.988,7.088c0,3.317-0.074,7.469-0.074,7.469h-26.475c0,0,0-5.133,0-7.242c5.129,0,7.396-2.79,7.396-7.315
	c0-1.962,0-18.037,0-25.572c0-3.771-2.947-4.979-6.864-4.979v-7.624h17.497L245.431,60.048"/>
</svg>
