<svg xmlns:svg="http://www.w3.org/2000/svg" xmlns="http://www.w3.org/2000/svg" version="1.1" x="0" y="0" width="842.3" height="472.2" viewBox="-117.5 0 842.3 472.2" enable-background="new -117.5 0 853 792" xml:space="preserve">
<g transform="translate(-6.3432203,-167.70381)"><path d="m315.9 395c13.1 1.5 28 1.3 40 4 1.8-4.2 1-11 2-16 7.5-10.1 15.3-20 33-20 8.5-1.5 7.8 6.2 15 6 1.9-18.6-0.6-41.4-4-58 15.8-20.2 38.4-33.6 68-40 12 0.4 21.5 3.2 30 7 3.9 3.7 7.9 7.5 11 12 7.6 15.1 1.5 35.6 2 55 11.8-1.8 21.4-5.9 34-7 0.4-13.9-2.8-28.9 0-42 2.5-5.2 8.7-6.7 12-11 5.4-1.9 8.4-6.2 14-8 9.4-5.6 21.2-8.8 34-11 18.3-0.6 29.4 5.9 39 14 2.1 5.7 6.8 10.7 8 18 2.3 14.9-3.2 33.4-2 49 4.6 7.9 14 10 21 15 6.9 4.9 12.4 12.5 21 15 4.7 9 11 16.3 15 26 0.6 12.9-0.7 24-3 34-3.8 7.5-9.9 12.8-14 20-3.8 1.6-5.9 4.7-10 6-4.2 1.7-11.3 0.7-17 1-8.2-1.5-13.9-5.5-21-8-0.3 14.1-1 30.6-1 46 0 15.5-0.3 30.8 6 41 11.7-5.7 17.4-17.3 26-26 4.9-1.8 9.4-3.9 14-6 33.8-3.6 46.7 18.3 41 51-17 37.4-42.5 66.1-92 71-31.3-0.7-52.4-11.6-70-26-6.8 3.8-12.3 9.1-18 14-11.4 6-23.2 11.5-38 14-6.3 0-12.7 0-19 0-21.2-2.8-37.4-10.6-50-22-11.1 8.3-21.8 16.9-35 23-8.2 1.1-15.1 3.6-24 4-14.5-0.8-27.8-2.9-38-8-11.6-3.8-19.5-11.2-29-17-16.1 10.5-33.1 20.2-62 18-29-7-50.8-21.2-66-42-11.6-30.7 0.6-56.2 36-50 5 0.9 9.2 3.4 15 3 4.1-0.3 6.8-2.3 11-3 7.5-5.2 9.9-15.4 15-23 3.6-18.4 1.4-42.6 2-64-4.5-1-7.9 4.1-12 7-4 2.8-8.9 4.6-12 8-9.5 3.8-17.8 8.9-27 13-19.3 7.4-40.6 12.8-64 16-1.1 43.6 10.2 105.5-16 127-10.2 5.3-21.6 10.9-36 12-27.6 2.1-57-7.6-72-20-0.1-2.9-2.3-3.7-4-5-11.6-18.4-9.6-46.2-10-72-0.3-17.4-4.2-34.6-2-49-3.4-12.9-2.2-25.9-2-39 0.1-11.9-2.6-24.1-3-36-0.2-5.4 0.3-10.6 0-16-1.7-29.4-3.7-58.4-6-89-7.4 0.3-6.5 8.9-12 11-1.1 2.9-3.2 4.8-5 7-2.2 2.6-1.4 4.5-4 5-2.6 5.1-5.8 9.5-10 13-3.3 4.1-8 6.6-11 11-8.2 3.1-15.2 7.5-26 8-11-0.3-17-5.7-26-8-1.7-2.6-3.2-5.4-7-6-1.5-2.3-1.2-4.8-2-6 0.3 0.4-1.7 0.3-2 0-0.6-0.6 0-2.7-2-2-0.7-5-3-8.3-5-12-0.4-6.6-1.6-12.4-1-20 1.2-6.5 2.9-12.4 5-18 0-4.1 6.4-6.6 5-15 4.3 0.9 4.3-2.4 4-6 4-1.2 5.8-4.2 9-7 2.1-1.9 5.4-4.2 8-7 0.8-0.9 1.2-2 2-3 5.9-7.1 16-15.4 24-22 15-12.4 30.4-23.9 49-33 37.8-17.9 82.7-28.6 134-33 52.1-2.1 96.5 7.1 129 27 38 23.3 72.1 64.5 76 122 2.3 33.6-8.2 54.5-18 78zm-68 52c14.8-8.9 27-21.4 38-35 15.8-19.4 29.3-43.2 33-73 0-9.3 0-18.7 0-28-6.2-44.9-29.3-75.4-59-97-30-21.8-71.4-33.6-124-32-58.4 4.6-109.4 16.6-149 40-19.6 11.4-36.3 25.6-52 41-13.6 17.4-31.2 30.8-31 62 3.9 14.4 12.7 23.9 29 26 17.2-0.3 25.2-11.2 33-21 8.2-10.3 15.9-21.1 24-31 2.4-1.6 4.4-3.6 6-6 28-22 61.9-38.1 105-45 52.3-2.3 90 10 111 39 8.3 18.1 16.5 36.1 17 62-1.6 24.1-12 39.4-26 51-19.6 9.4-41 17-70 17-3.2-28.7-2.8-63.3-6-92-2.7-24.8-10.3-40.2-31-47-25.3-8.3-64.5-0.6-74 19-4.3 8.9-4 21.6-3 36 4.6 67.8 6.9 132.3 10 197 1.3 26.5-1.2 53.4 9 74 18.2 18.5 70.5 25.5 93 6 9.3-15.1 8-37.4 8-60 0-22.6-1.8-46.4-2-67 47.5-1.5 82.3-15.7 111-36zm-51-61c5-6.3 10.2-12.5 14-20 0.9-6.8 3.5-16 3-24-0.5-8.2-4-21.6-6-27-4.7-12.8-11.8-24.8-20-32 0.6 0 1.1-0.8 0-1-0.2 1.2-1.1 0.6-2 0 0.1-1.4-2.9-1.1-1-2 0-2.8-2.7 2.4-2-2-4.4 0-6.2-2.5-9-4-3.4-0.4-7-4.2-9-3-0.5-1.2-2.7-1.5-4-2-2.6-1.1-2.4-0.2-3-2-2.1 2-7.4-1.2-10-2-11.8-0.7-30.5-3.3-45-2 0.2 3.8 5.6 2.4 6 6 4.4-0.4 5.1 2.9 9 3 3.7 5.3 9.4 8.6 13 14 2 4 4.2 7.8 6 12 7 32 6.9 66.2 10 103 17.2-0.9 34.8-7.2 50-15zM629.9 285c-25.7-11.6-55.7 3.9-70 19 0.5 14.9 3.7 32.3 1 47-24.1 1.2-41.8 8.8-63 13-2.8-24.9 7.3-52.2-2-71-18.1-13.4-39.1-4.6-55 4-9.9 5.3-19.6 11-23 19 2.7 22.4 4.4 50.9 5 72-8.3 0.6-14.7-0.7-20-3-6.2-1.8-8.4-7.6-16-8-6.2 2.8-12.5 5.5-15 12-0.6 14.9 0.1 28.6 5 38 8.1 12.5 30.5 10.8 49 13 5.4 40.2-1 82.9-13 112-4.7 4.9-8 11.3-16 13-14 0.7-21.8-4.9-27-13-5.5-18.3-8.2-40.5-9-63-0.9-23.2 1.4-46.8-1-68-10.4-15.4-56.4-12.6-70-2-14.5 26.3-0.2 75.6-10 106-6.9 9.8-10.5 22.9-21 29-7 2-12.3 5.9-20 6-11.2 0.1-23.1-8.7-34-3-7.1 5.2-5.1 18.9-2 27 12.6 17.1 31.3 28 55 34 4.3 0 8.7 0 13 0 10-1.7 19.3-4 26-9 8.5-3.5 13.4-10.6 21-15 17.4 17.9 38 32.7 76 30 21.4-6 35.3-19.3 48-34 14.6 17.4 32.8 31.2 66 30 28.2-3.8 44.5-19.5 60-36 5.8 11.6 14.8 15.4 25 21 1.8 1 3.3 3.2 5 4 1.3 0.6 3 0.6 4 1 9.5 4.1 22.6 8.1 34 8 21.5-0.3 40.1-11.3 51-21 11.9-10.7 21.3-24.3 28-38 1.2-10.1 2-21.6-3-28-5.1-3.6-13.8-6.6-22-4-15.3 7.3-19.3 26-37 31-8.3 1-11.6-3-17-5-11.8-22.5-8.3-63.4-7-97 0.4-8.9-1.7-17.8 2-25 16.2 4.2 25.6 20.3 46 17 12.7-8.1 16.8-28.6 14-49-6.9-9.5-16-16.6-25-24-5.1-3.2-10.6-6.1-15-10-3.8-0.2-4.9-3.1-8-4-2.1-2.2-6.2-2.4-7-6-0.2-23.9 11.1-57.7-6-70zM376.9 450c-2.6 22.4 0.1 60.5 4 82 1.5 8.4 2.2 18 12 18 9.4-4.8 10.3-17.1 13-28 4.9-19.8 7.4-42.7 6-68-13.6-0.4-26.2-1.8-35-7 0 1 0 2 0 3z" fill="#CDB87D"/>
<path d="m137 483c0.2 20.6 2 44.4 2 67 0 22.6 1.3 44.9-8 60-22.4 19.5-74.8 12.5-93-6-10.2-20.6-7.7-47.5-9-74-3.1-64.7-5.4-129.1-10-197-1-14.4-1.3-27.1 3-36 9.5-19.6 48.7-27.3 74-19 20.6 6.7 28.3 22.2 31 47 3.2 28.6 2.8 63.3 6 92 29 0 50.4-7.6 70-17 14-11.6 24.4-26.9 26-51-0.5-25.9-8.7-43.9-17-62-21-29-58.7-41.3-111-39-43.1 6.9-76.9 23-105 45-1.6 2.4-3.6 4.4-6 6-8.1 9.9-15.8 20.7-24 31-7.8 9.8-15.8 20.7-33 21-16.3-2.1-25.1-11.6-29-26-0.2-31.2 17.4-44.6 31-62 15.6-15.3 32.4-29.6 52-41 39.6-23.4 90.6-35.4 149-40 52.6-1.6 94 10.2 124 32 29.7 21.6 52.8 52.1 59 97 0 9.3 0 18.7 0 28-3.7 29.8-17.2 53.6-33 73-11 13.6-23.2 26.1-38 35-28.7 20.3-63.5 34.5-111 36z" fill="#1C2957"/>
<path d="m147 271c0-1 1.2-0.8 2-1 0 1-1.2 0.8-2 1zM151 273 151 273c-0.5-0.5 0.7-1.3 1-1 0.5 0.5-0.7 1.3-1 1z" fill="#CDB87D"/>
<path d="m635.9 355c0.8 3.6 4.9 3.8 7 6 3.1 0.9 4.2 3.8 8 4 4.4 3.9 9.9 6.8 15 10 8.9 7.4 18.1 14.5 25 24 2.8 20.4-1.3 40.9-14 49-20.4 3.3-29.8-12.8-46-17-3.7 7.2-1.6 16.1-2 25-1.3 33.6-4.8 74.5 7 97 5.3 2 8.7 6 17 5 17.7-5 21.7-23.7 37-31 8.2-2.6 16.9 0.4 22 4 5 6.4 4.2 17.9 3 28-6.7 13.7-16.1 27.3-28 38-10.9 9.7-29.5 20.7-51 21-11.3 0.1-24.5-3.9-34-8-1-0.4-2.7-0.4-4-1-1.7-0.8-3.2-3-5-4-10.2-5.6-19.2-9.4-25-21-15.5 16.5-31.8 32.2-60 36-33.2 1.2-51.4-12.6-66-30-12.7 14.7-26.6 28-48 34-38 2.7-58.6-12-76-30-7.6 4.4-12.5 11.5-21 15-6.7 5-16 7.3-26 9-4.3 0-8.7 0-13 0-23.6-6-42.4-16.9-55-34-3.1-8.1-5.1-21.8 2-27 10.9-5.7 22.8 3.1 34 3 7.7-0.1 13-4 20-6 10.5-6.1 14.1-19.2 21-29 9.8-30.4-4.5-79.6 10-106 13.6-10.6 59.6-13.4 70 2 2.4 21.2 0.1 44.8 1 68 0.8 22.5 3.5 44.7 9 63 5.2 8.1 13 13.7 27 13 8-1.7 11.3-8.1 16-13 12-29.1 18.4-71.8 13-112-18.5-2.2-40.9-0.5-49-13-4.9-9.4-5.6-23.1-5-38 2.5-6.5 8.8-9.2 15-12 7.6 0.4 9.8 6.2 16 8 5.3 2.3 11.7 3.6 20 3-0.6-21.1-2.3-49.6-5-72 3.4-8 13.1-13.7 23-19 15.9-8.6 36.9-17.4 55-4 9.3 18.8-0.8 46.1 2 71 21.1-4.2 38.9-11.8 63-13 2.7-14.7-0.5-32.1-1-47 14.3-15.1 44.3-30.6 70-19 17.1 12.3 5.8 46 6 70zm-140 72c0.2 22.2-0.7 47.2 1 69 1.7 21.6 4.4 41.6 21 49 4.7 0 9.3 0 14 0 5.4-1.9 9.2-5.5 14-8 18-27.2 24.1-78.2 17-121-0.7 0-1.3 0-2 0-22.3-1-49.4 1.9-65 11z" fill="#1C2957"/>
<path d="m-2 350c-0.5-0.5 0.7-1.3 1-1 0.5 0.5-0.7 1.3-1 1zM560.9 416 560.9 416c0.7 0 1.3 0 2 0 7.1 42.8 1 93.8-17 121-4.8 2.5-8.6 6.1-14 8-4.7 0-9.3 0-14 0-16.6-7.4-19.3-27.4-21-49-1.7-21.8-0.8-46.8-1-69 15.5-9.1 42.7-12 65-11zm-50 21c0.5 14.3-0.6 30.2 0 45 0.8 18.7 1.7 37.5 11 48 15.6 1.6 15.7-12.3 21-21 6.3-21.7 9.2-50.9 7-78-15 0-27.4 2.6-39 6z" fill="#CDB87D"/>
</g>
</svg>