<?xml version="1.0" encoding="UTF-8" standalone="no"?>
<svg
   xmlns:dc="http://purl.org/dc/elements/1.1/"
   xmlns:cc="http://creativecommons.org/ns#"
   xmlns:rdf="http://www.w3.org/1999/02/22-rdf-syntax-ns#"
   xmlns:svg="http://www.w3.org/2000/svg"
   xmlns="http://www.w3.org/2000/svg"
   xmlns:sodipodi="http://sodipodi.sourceforge.net/DTD/sodipodi-0.dtd"
   xmlns:inkscape="http://www.inkscape.org/namespaces/inkscape"
   version="1.0"
   width="240.00003pt"
   height="309.60004pt"
   viewBox="0 0 240.00003 309.60004"
   preserveAspectRatio="xMidYMid meet"
   id="svg2"
   inkscape:version="0.91 r13725"
   sodipodi:docname="Portland.svg">
  <defs
     id="defs14" />
  <sodipodi:namedview
     pagecolor="#ffffff"
     bordercolor="#666666"
     borderopacity="1"
     objecttolerance="10"
     gridtolerance="10"
     guidetolerance="10"
     inkscape:pageopacity="0"
     inkscape:pageshadow="2"
     inkscape:window-width="1177"
     inkscape:window-height="763"
     id="namedview12"
     showgrid="false"
     showguides="false"
     fit-margin-top="0"
     fit-margin-left="0"
     fit-margin-right="0"
     fit-margin-bottom="0"
     inkscape:zoom="0.16219931"
     inkscape:cx="-910.42376"
     inkscape:cy="195.37496"
     inkscape:window-x="0"
     inkscape:window-y="0"
     inkscape:window-maximized="0"
     inkscape:current-layer="svg2" />
  <metadata
     id="metadata4">
Created by potrace 1.10, written by Peter Selinger 2001-2011
<rdf:RDF>
  <cc:Work
     rdf:about="">
    <dc:format>image/svg+xml</dc:format>
    <dc:type
       rdf:resource="http://purl.org/dc/dcmitype/StillImage" />
    <dc:title></dc:title>
  </cc:Work>
</rdf:RDF>
</metadata>
  <g
     transform="matrix(0.02666667,0,0,-0.02666667,0,309.60004)"
     id="g6"
     style="fill:#154734;stroke:none">
    <path
       d="m 0,10287 0,-1322 58,-42 c 31,-23 100,-70 152,-104 52,-33 104,-68 115,-75 11,-8 65,-44 120,-80 55,-37 103,-72 107,-78 4,-6 8,-1098 8,-2426 0,-2350 1,-2420 20,-2588 40,-345 132,-648 288,-952 69,-134 210,-345 291,-436 20,-22 61,-69 91,-105 142,-167 421,-427 639,-594 50,-38 113,-86 139,-106 58,-45 343,-237 432,-292 221,-135 243,-147 845,-482 121,-67 240,-134 265,-147 25,-14 126,-69 225,-123 99,-54 203,-110 230,-125 28,-15 127,-68 221,-119 l 171,-91 83,0 c 82,0 83,0 204,64 66,35 141,76 166,90 25,14 52,29 60,33 15,6 254,136 375,203 33,18 80,44 105,58 80,43 425,233 440,242 8,5 67,38 130,73 63,36 133,75 155,88 22,12 78,43 125,69 288,158 706,442 969,658 418,343 719,694 913,1062 94,178 200,481 236,670 6,30 18,91 26,135 8,44 18,119 22,168 3,48 10,90 15,93 5,3 9,1047 9,2438 l 0,2432 33,30 c 31,30 145,109 270,189 34,22 100,66 146,98 45,31 87,57 92,57 5,0 9,525 9,1325 l 0,1325 -21,0 c -17,0 -108,-54 -174,-102 -5,-4 -31,-24 -58,-43 -26,-19 -49,-35 -52,-35 -3,0 -46,-28 -96,-62 -49,-35 -99,-68 -109,-74 -11,-6 -28,-18 -38,-27 -10,-10 -21,-17 -25,-17 -3,0 -88,-55 -187,-122 -100,-68 -189,-128 -198,-133 -10,-6 -44,-28 -77,-51 -33,-22 -109,-73 -170,-114 -60,-40 -126,-83 -145,-97 -35,-24 -588,-395 -795,-533 -62,-41 -123,-83 -136,-93 -13,-9 -75,-51 -138,-92 -63,-41 -124,-81 -135,-90 -12,-8 -111,-75 -221,-148 -110,-73 -213,-142 -230,-153 -16,-12 -73,-50 -125,-84 -76,-51 -266,-179 -444,-299 -12,-8 -66,-44 -121,-80 -55,-35 -116,-77 -135,-93 -19,-15 -39,-28 -43,-28 -5,0 -26,-12 -46,-27 -20,-16 -44,-32 -53,-38 -9,-5 -128,-85 -265,-177 -137,-93 -256,-168 -265,-168 -8,0 -26,8 -39,18 -13,9 -31,22 -40,27 -9,6 -34,22 -55,37 -21,15 -85,58 -141,95 -56,38 -155,103 -220,147 -65,43 -140,94 -168,113 -27,19 -113,77 -190,129 -77,52 -149,100 -160,108 -11,8 -73,49 -138,92 -199,133 -281,187 -358,239 -41,27 -82,54 -91,60 -9,5 -170,114 -358,240 -188,127 -349,235 -359,240 -9,6 -32,21 -51,35 -19,14 -49,34 -66,45 -28,17 -711,475 -784,525 -31,22 -224,150 -378,252 -65,42 -122,81 -127,86 -6,4 -71,49 -145,99 -74,49 -240,160 -368,246 -128,86 -240,157 -248,157 -12,0 -14,-180 -14,-1323 z m 687,221 c 59,-40 116,-77 125,-83 10,-5 111,-73 225,-151 343,-231 992,-668 1018,-684 13,-8 201,-134 417,-279 768,-516 1349,-906 1373,-921 179,-113 376,-255 380,-273 3,-12 4,-400 3,-861 l -3,-839 -270,-182 c -148,-100 -448,-301 -665,-447 -217,-145 -541,-363 -720,-482 -179,-120 -335,-227 -347,-239 l -23,-20 0,-1519 c 0,-1370 -2,-1519 -16,-1525 -21,-8 -44,6 -149,88 -496,389 -796,843 -919,1394 -9,39 -16,87 -16,108 0,21 -7,54 -15,74 -13,31 -15,341 -15,2622 0,1422 0,2593 0,2602 0,14 -80,76 -130,102 -8,4 -96,63 -195,130 l -180,123 -3,654 c -1,360 0,661 3,668 2,6 7,12 9,12 3,0 54,-33 113,-72 z m 7753,-596 c 0,-615 -1,-660 -17,-674 -10,-8 -121,-84 -248,-168 -126,-84 -236,-160 -242,-168 -10,-13 -13,-286 -13,-1294 0,-1111 -2,-1279 -15,-1284 -8,-3 -57,23 -115,63 -55,37 -111,75 -124,83 -13,8 -164,110 -336,225 -171,116 -322,217 -335,225 -59,37 -166,112 -180,126 -13,13 -15,84 -15,550 0,576 2,557 -51,515 -24,-18 -584,-396 -684,-461 -30,-19 -106,-70 -170,-113 l -115,-78 0,-184 0,-184 148,-99 c 81,-54 309,-208 507,-341 477,-320 1091,-732 1120,-751 112,-72 324,-217 343,-233 l 22,-20 -1,-966 c 0,-929 -3,-1044 -29,-1176 -19,-93 -64,-253 -86,-302 -8,-17 -14,-36 -14,-42 0,-6 -4,-19 -9,-29 -5,-9 -27,-55 -47,-102 -21,-47 -58,-118 -81,-158 -24,-41 -43,-75 -43,-77 0,-14 -158,-231 -218,-300 -162,-186 -384,-385 -573,-513 -91,-61 -200,-132 -205,-132 -2,0 -36,-19 -76,-43 -251,-147 -581,-283 -875,-361 -146,-38 -181,-46 -238,-57 -33,-6 -80,-15 -105,-20 -25,-5 -110,-16 -190,-25 -80,-8 -161,-20 -180,-25 -19,-6 -69,-9 -110,-7 l -75,3 0,2189 c 0,1968 2,2190 16,2199 12,7 133,-70 550,-348 293,-197 542,-365 552,-373 16,-14 17,-80 17,-1118 0,-716 3,-1105 10,-1109 22,-13 232,103 366,202 246,183 438,446 495,678 25,99 28,177 28,780 l 1,640 -88,60 c -48,33 -95,65 -104,70 -15,9 -181,120 -542,365 -65,44 -122,80 -127,80 -4,0 -9,4 -11,8 -1,4 -104,76 -228,158 -752,503 -926,620 -932,629 -4,5 -8,389 -8,852 l 0,841 38,29 c 35,27 573,390 627,423 13,8 192,128 397,266 772,518 1241,833 1848,1239 344,230 650,436 680,457 99,68 90,129 90,-620 z"
       id="path8"
       inkscape:connector-curvature="0" />
    <path
       d="m 2196,8114 c -3,-8 -6,-391 -6,-850 0,-709 2,-835 14,-840 15,-6 977,632 1009,668 15,17 17,42 17,178 0,87 -3,166 -6,174 -6,14 -61,57 -139,106 -61,38 -774,518 -805,541 -48,36 -76,44 -84,23 z"
       id="path10"
       inkscape:connector-curvature="0" />
  </g>
</svg>
