<?xml version="1.0" encoding="UTF-8" standalone="no"?>
<svg
   xmlns:dc="http://purl.org/dc/elements/1.1/"
   xmlns:cc="http://creativecommons.org/ns#"
   xmlns:rdf="http://www.w3.org/1999/02/22-rdf-syntax-ns#"
   xmlns:svg="http://www.w3.org/2000/svg"
   xmlns="http://www.w3.org/2000/svg"
   xmlns:sodipodi="http://sodipodi.sourceforge.net/DTD/sodipodi-0.dtd"
   xmlns:inkscape="http://www.inkscape.org/namespaces/inkscape"
   width="156.77013"
   height="93.408867"
   viewBox="0 0 125.4161 74.727094"
   version="1.1"
   id="svg3053"
   inkscape:version="0.48.1 "
   sodipodi:docname="Providence Friars.svg">
  <metadata
     id="metadata3119">
    <rdf:RDF>
      <cc:Work
         rdf:about="">
        <dc:format>image/svg+xml</dc:format>
        <dc:type
           rdf:resource="http://purl.org/dc/dcmitype/StillImage" />
        <dc:title></dc:title>
      </cc:Work>
    </rdf:RDF>
  </metadata>
  <defs
     id="defs3117" />
  <sodipodi:namedview
     pagecolor="#ffffff"
     bordercolor="#666666"
     borderopacity="1"
     objecttolerance="10"
     gridtolerance="10"
     guidetolerance="10"
     inkscape:pageopacity="0"
     inkscape:pageshadow="2"
     inkscape:window-width="1680"
     inkscape:window-height="994"
     id="namedview3115"
     showgrid="false"
     fit-margin-top="0"
     fit-margin-left="0"
     fit-margin-right="0"
     fit-margin-bottom="0"
     inkscape:zoom="8.3182681"
     inkscape:cx="78.385063"
     inkscape:cy="46.704433"
     inkscape:window-x="-4"
     inkscape:window-y="-4"
     inkscape:window-maximized="1"
     inkscape:current-layer="svg3053" />
  <g
     id="g3155"
     transform="matrix(0.10370637,0,0,0.10370637,0.38469546,0.38469547)">
    <g
       id="g3121">
      <path
         d="m 701.52,0 30.09,0 c 41.29,2.48 81.95,13.53 119.32,31.14 16.4,7.85 32.09,17.27 46.6,28.23 8.15,6 15.33,13.15 22.34,20.42 -16.95,9.79 -34.1,19.24 -51.1,28.96 -1.05,0.7 -2.97,1.54 -2,3.15 3.64,11.05 8.19,21.81 11.68,32.92 -4.76,4.79 -10.1,9.05 -14.35,14.3 0.15,1.58 0.68,3.09 1.2,4.58 5.85,16.01 11.15,32.21 16.66,48.34 2.54,7.94 1.58,17.44 -4.14,23.79 -2.98,3.42 -8.5,3.92 -10.46,8.3 -6.07,11.74 -12.66,23.21 -18.67,34.98 1.53,8.92 6.15,17.06 8.3,25.84 -1.03,2.77 -2.97,5.06 -4.54,7.52 -12.23,18.42 -24.61,36.75 -36.56,55.36 17.3,9.45 35.25,17.76 53.83,24.4 25.33,9.12 51.16,16.71 77.03,24.14 4.65,1.34 9.53,0.84 14.31,0.89 79.65,0.01 159.29,-0.02 238.94,0.02 l 0,3.11 c -2.71,8.69 -3.74,17.79 -5.83,26.63 -17.79,89.34 -35.94,178.62 -53.63,267.98 l -712.14,0 c -23.46,-0.62 -46.94,-0.1 -70.42,-0.27 -76.72,-0.06 -153.45,0.12 -230.17,-0.08 -1.99,-8.61 -3.77,-17.25 -5.63,-25.88 C 81.45,688.75 40.73,688.81 0,688.74 l 0,-1.15 c 5.04,-6.3 9.11,-13.3 13.71,-19.91 10.96,-16.7 22,-33.34 33.05,-49.98 3.06,-4.33 3.21,-9.8 4.41,-14.78 10.04,-48.6 20,-97.22 30.11,-145.81 0.66,-3.69 2.07,-7.44 1.2,-11.22 -5.24,-20.97 -10.88,-41.84 -15.83,-62.88 42.13,-0.09 84.27,-0.02 126.41,-0.04 12.29,0.25 25.02,0.59 36.49,5.53 1.84,0.62 3.89,2 5.79,0.8 22.94,-11.71 46.28,-22.64 69.75,-33.23 26.67,-12.38 53.02,-25.81 77.02,-42.91 18.17,-12.84 34.92,-28.02 47.91,-46.17 15,-20.89 24.13,-45.63 27.95,-70.97 5.8,-34.91 1.82,-71.74 -13.34,-103.87 -2.81,-6.15 -6.79,-11.65 -10.44,-17.31 -2.15,-3.4 -4.92,-6.46 -6.31,-10.29 13.08,-0.76 26.15,-1.92 39.14,-3.67 19.44,-3.2 38.65,-7.97 57.13,-14.83 21.49,-8 42.87,-16.33 64.72,-23.32 C 625.36,10.83 663.14,2.43 701.52,0 M 642.89,19.08 C 605.5,27.11 569.5,40.27 533.84,53.87 505.98,64.63 476.62,71.46 446.89,74.22 463.66,101.25 471,133.4 471.28,165 c -0.35,27.54 -5.34,55.33 -16.87,80.46 -8.34,18.16 -20.24,34.57 -34.4,48.62 -16.29,16.44 -35.31,29.89 -55,41.94 -21.8,13.17 -44.59,24.59 -67.61,35.44 -21.28,10.12 -42.29,20.78 -63.39,31.27 -11.21,-8.16 -25.63,-8.99 -39,-9.23 -38.37,0.06 -76.73,-0.07 -115.1,0.06 4.43,16.76 8.51,33.61 12.93,50.37 0.43,1.92 1.17,3.91 0.62,5.9 -11.52,55.72 -23.01,111.46 -34.51,167.19 -0.51,2.7 -2.46,4.78 -3.84,7.07 -11.97,18.04 -23.97,36.04 -35.79,54.18 36.87,-0.05 73.74,-0.02 110.61,-0.02 2.21,8.63 4.28,17.29 6.26,25.97 219.61,0.05 439.21,0.01 658.82,0.02 111.91,-0.05 223.82,0.11 335.72,-0.07 9.56,-47.46 19.4,-94.86 29.07,-142.3 9.05,-44.72 18.53,-89.37 27.31,-134.15 -79.36,0.08 -158.73,-0.02 -238.09,0.05 -3.12,0.09 -6.09,-0.98 -9.05,-1.78 -27.34,-7.6 -54.31,-16.46 -80.93,-26.26 -34.27,-12.96 -67.03,-29.73 -98.06,-49.16 2.16,-4.05 5.22,-7.51 7.66,-11.39 14.42,4.36 28.9,8.51 43.32,12.85 11.05,-16.01 22.08,-32.03 33.12,-48.04 -3.39,-8.07 -6.76,-16.15 -10.28,-24.16 5.47,-9.92 11.76,-19.38 17.24,-29.3 -2.68,-0.41 -5.36,-0.78 -8.03,-1.09 1.62,-5.07 4.07,-9.82 5.85,-14.84 5.81,-0.56 12.61,-0.1 16.98,-4.73 4.64,-4.23 6.09,-11.09 4.03,-16.95 -6.13,-19.07 -12.88,-37.95 -19.58,-56.83 4.72,-4.25 9.02,-8.95 13.77,-13.18 1.49,-0.86 0.48,-2.55 0.16,-3.78 -4.07,-11.26 -8.2,-22.51 -12.16,-33.81 16.48,-9.17 32.82,-18.6 49.3,-27.77 -4.1,-4.24 -8.84,-7.79 -13.52,-11.35 C 859.95,44.97 826.65,30.18 792.13,20.83 768.94,14.63 745.07,10.55 721.02,10.5 c -26.27,-0.33 -52.49,3.01 -78.13,8.58 z"
         id="path3055"
         inkscape:connector-curvature="0"
         style="fill:#b6b7bb" />
      <path
         d="m 642.89,19.08 c 25.64,-5.57 51.86,-8.91 78.13,-8.58 24.05,0.05 47.92,4.13 71.11,10.33 34.52,9.35 67.82,24.14 96.71,45.37 4.68,3.56 9.42,7.11 13.52,11.35 -16.48,9.17 -32.82,18.6 -49.3,27.77 3.96,11.3 8.09,22.55 12.16,33.81 0.32,1.23 1.33,2.92 -0.16,3.78 -4.75,4.23 -9.05,8.93 -13.77,13.18 6.7,18.88 13.45,37.76 19.58,56.83 2.06,5.86 0.61,12.72 -4.03,16.95 -4.37,4.63 -11.17,4.17 -16.98,4.73 -1.78,5.02 -4.23,9.77 -5.85,14.84 2.67,0.31 5.35,0.68 8.03,1.09 -5.48,9.92 -11.77,19.38 -17.24,29.3 3.52,8.01 6.89,16.09 10.28,24.16 -11.04,16.01 -22.07,32.03 -33.12,48.04 -14.42,-4.34 -28.9,-8.49 -43.32,-12.85 -2.44,3.88 -5.5,7.34 -7.66,11.39 31.03,19.43 63.79,36.2 98.06,49.16 26.62,9.8 53.59,18.66 80.93,26.26 2.96,0.8 5.93,1.87 9.05,1.78 79.36,-0.07 158.73,0.03 238.09,-0.05 -8.78,44.78 -18.26,89.43 -27.31,134.15 -9.67,47.44 -19.51,94.84 -29.07,142.3 -111.9,0.18 -223.81,0.02 -335.72,0.07 -219.61,-0.01 -439.21,0.03 -658.82,-0.02 -1.98,-8.68 -4.05,-17.34 -6.26,-25.97 -36.87,0 -73.74,-0.03 -110.61,0.02 11.82,-18.14 23.82,-36.14 35.79,-54.18 1.38,-2.29 3.33,-4.37 3.84,-7.07 11.5,-55.73 22.99,-111.47 34.51,-167.19 0.55,-1.99 -0.19,-3.98 -0.62,-5.9 -4.42,-16.76 -8.5,-33.61 -12.93,-50.37 38.37,-0.13 76.73,0 115.1,-0.06 13.37,0.24 27.79,1.07 39,9.23 21.1,-10.49 42.11,-21.15 63.39,-31.27 23.02,-10.85 45.81,-22.27 67.61,-35.44 19.69,-12.05 38.71,-25.5 55,-41.94 14.16,-14.05 26.06,-30.46 34.4,-48.62 11.53,-25.13 16.52,-52.92 16.87,-80.46 -0.28,-31.6 -7.62,-63.75 -24.39,-90.78 29.73,-2.76 59.09,-9.59 86.95,-20.35 35.66,-13.6 71.66,-26.76 109.05,-34.79 m 58.91,106.73 c -25.61,26.31 -48.16,56.17 -62.97,89.95 -9.59,21.93 -14.9,45.77 -15.09,69.73 -12.71,-19 -18.38,-41.78 -20.04,-64.36 -2.29,-27.97 -0.4,-56.11 3.17,-83.89 l -0.49,-0.08 c -4.33,14.55 -8.9,29.04 -12.31,43.84 -5.93,25.18 -10.67,51.06 -8.81,77.03 0.5,8.52 1.41,17.05 3.75,25.29 -13.53,-8.53 -25.95,-18.91 -36.24,-31.17 -7.85,-9.03 -14.67,-18.87 -21.83,-28.41 5.2,22.01 12.14,44.15 25.12,62.94 -15.26,3.12 -30.46,6.82 -45.04,12.38 -16.35,6.21 -31.75,14.54 -47.13,22.8 17.33,-5.64 34.99,-10.33 52.94,-13.55 45.45,-8.17 92.7,-10.22 137.96,0.26 -6.96,-27.48 -4.48,-56.81 4.64,-83.49 5.74,-17.67 13.98,-34.42 23.21,-50.5 20.63,-35.38 46.74,-67.3 75.27,-96.58 -20.21,14.05 -38.79,30.35 -56.11,47.81 m 37.49,40.67 c -2.41,24.14 4.67,48.08 13.56,70.28 -12,-4.04 -24.04,-7.97 -36.02,-12.07 -2.8,6 -5.27,12.15 -7.99,18.19 -0.92,1.91 -1.34,4.03 -1.35,6.15 -0.2,10.85 1.95,21.86 7.03,31.51 6.29,11.93 17.47,20.3 28.74,27.21 18.67,10.97 39.71,17.46 61.01,20.88 6.57,-8.6 12.81,-17.45 19.43,-26.02 -2.92,-5.75 -5.63,-11.7 -8.89,-17.23 -5.48,-0.91 -11.06,-1.16 -16.58,-1.8 6.16,-3.58 12.67,-6.57 18.81,-10.2 3.26,-3.39 5.73,-7.48 8.63,-11.18 -12.17,0.57 -24.38,0.74 -36.56,1.04 9.89,-6.61 20.89,-11.63 32.68,-13.65 2,-4.98 4.34,-9.82 6.08,-14.9 -6.57,0.13 -13.13,0.04 -19.69,0.05 -1.5,-8.49 -3.31,-16.92 -4.79,-25.41 4.44,2.53 8.33,6.14 13.02,8.11 11.68,0.08 23.37,0.16 35.05,-0.05 -6.08,-18.63 -12.41,-37.18 -19.27,-55.54 -12.84,7.57 -25.64,15.23 -38.51,22.76 1.75,-5.71 3.69,-11.35 5.33,-17.09 -9.32,-0.59 -18.67,-0.73 -27.98,-1.38 16.52,-9.19 33.16,-18.19 49.77,-27.23 1.69,4.17 3.55,8.28 5.35,12.41 4.83,-4.45 9.89,-8.7 14.48,-13.39 -2.18,-7.67 -5.18,-15.09 -7.51,-22.73 -31.35,16.95 -62.44,34.4 -93.83,51.28 m -47.4,110.57 c -5.32,12.28 -10.79,24.51 -16.11,36.79 21.53,6.89 42.79,15.02 62.71,25.77 2.58,-3.19 4.53,-6.82 7.04,-10.06 -10.9,-4.55 -21.63,-9.76 -31.11,-16.89 -11.83,-8.39 -18.5,-22.05 -22.53,-35.61 m -225.88,63.4 c -40.31,9.55 -79.72,23.23 -116.97,41.39 44.98,-13.62 91.03,-24.04 137.78,-29.29 43.56,-4.85 88.04,-5.12 131.06,4.14 42.75,8.99 83.71,26.2 120.22,50.16 10.02,6.36 19.36,13.8 28.88,20.79 30.65,0.15 61.33,0.23 91.98,-0.05 -27.88,-9.35 -54.79,-21.55 -80.32,-36.13 -17.46,-9.71 -34.68,-19.87 -52.61,-28.69 -16.99,-8.65 -34.81,-15.67 -53.11,-21.04 -24.71,-7.12 -50.28,-10.85 -75.89,-12.73 -43.93,-3.4 -88.21,1.35 -131.02,11.45 M 106.3,414.1 c 2.67,10.34 5.28,20.69 7.94,31.03 1.09,3.26 -0.42,6.58 -0.92,9.81 -11.43,55.32 -22.82,110.64 -34.2,165.96 -0.27,1.62 -0.82,3.19 -1.75,4.57 -6.67,10.73 -13.3,21.5 -19.95,32.26 25.03,-0.06 50.07,0.21 75.09,-0.13 -2.68,-11.17 -5.25,-22.38 -7.6,-33.62 3.06,-17.03 6.98,-33.95 10.31,-50.95 11.58,-0.08 23.16,0.01 34.74,-0.04 9.94,-0.09 20.49,-2.09 28.16,-8.85 9.76,-8.3 13.9,-21.02 16.48,-33.15 5.15,-25.34 10.29,-50.69 15.4,-76.05 1.45,-7.87 2.83,-16.14 0.49,-23.99 -2.01,-7.09 -7.98,-12.73 -15.03,-14.71 -9.56,-2.8 -19.65,-2.15 -29.49,-2.24 -26.56,0.07 -53.12,-0.13 -79.67,0.1 m 107.78,172.89 c -4.75,8.45 -11.43,15.8 -16.07,24.32 16.74,-0.16 33.48,0.01 50.21,-0.08 4.44,-22.18 8.68,-44.39 13.24,-66.54 7.08,0.09 14.17,0.1 21.26,-0.01 -3.06,17.46 -7.25,34.72 -10.49,52.14 -0.56,3.76 -0.72,8 1.65,11.21 2.6,2.69 6.57,3.14 10.12,3.22 12.89,0.02 25.79,-0.03 38.68,0.03 -2.98,-7.06 -6.01,-14.09 -9.06,-21.11 -0.49,-1.31 -1.36,-2.68 -0.85,-4.1 2.25,-10.64 4.38,-21.31 6.77,-31.92 1.2,-5.25 1.17,-11.12 -1.87,-15.76 -2.67,-4.8 -7.59,-7.8 -12.8,-9.13 8,-2.39 15.67,-6.99 19.94,-14.38 5.59,-9.72 6.93,-21.07 9.22,-31.86 1.49,-7.97 3.2,-16.78 -0.78,-24.31 -2.92,-6.12 -9.58,-9.36 -16.07,-10.04 -10.68,-1.09 -21.44,-0.53 -32.16,-0.67 -14.38,0.07 -28.77,-0.19 -43.15,0.23 -9.37,46.23 -18.3,92.56 -27.79,138.76 m 159.55,-138.2 c -5.91,0.96 -11.58,3.67 -15.79,7.96 -6.65,6.81 -10.04,16.02 -11.99,25.18 -6.29,31.36 -12.72,62.71 -18.99,94.08 -1.59,8.54 -2.89,18.23 1.95,26 4.12,6.37 12.02,8.54 19.18,9 9.33,0.53 18.68,0.1 28.03,0.24 10.51,0.14 22.15,0.46 30.97,-6.25 10.62,-8.03 14.14,-21.68 16.86,-34.05 5.79,-29.3 11.76,-58.57 17.3,-87.92 1.45,-9.55 2.91,-21.14 -4.3,-28.83 -7.15,-6.8 -17.77,-5.76 -26.86,-6.2 -12.12,0.23 -24.3,-0.61 -36.36,0.79 M 448.27,448 c -0.7,54.43 -1.33,108.86 -1.71,163.29 17.6,-0.05 35.2,-0.1 52.79,0.03 21.27,-54.15 41.75,-108.62 63.14,-162.71 1.19,8.12 2.21,16.26 3.34,24.39 0.39,2.42 -0.49,4.77 -0.92,7.12 -6.88,33.66 -13.8,67.32 -20.69,100.97 -0.6,2.71 -0.84,5.57 -2.19,8.05 -3.9,7.39 -7.92,14.73 -11.79,22.15 46.25,-0.1 92.5,0.01 138.75,-0.06 8.51,-0.05 17.46,-2.46 23.4,-8.9 9.89,-10.32 12.4,-25.03 15.06,-38.53 5.04,-25.19 9.9,-50.42 15.01,-75.6 1.83,-9.07 4.67,-18.85 1.08,-27.84 -3.44,-8.38 -12.8,-12.61 -21.48,-12.34 -65.37,-0.05 -130.73,-0.01 -196.1,-0.01 2.54,8.94 5.46,17.82 7.52,26.88 -5.07,15.71 -10.33,31.36 -15.49,47.05 -5.6,17.69 -12.71,34.94 -16.6,53.13 0,-7.64 1.73,-15.18 1.95,-22.83 1.2,-26.42 3.12,-52.8 4.65,-79.21 -0.06,-2.76 1.36,-5.2 2.53,-7.6 2.9,-5.75 5.52,-11.64 8.48,-17.36 -16.91,-0.17 -33.82,-0.02 -50.73,-0.07 m 282.47,0.22 c 2.05,8.26 4.73,16.35 6.94,24.57 0.7,1.8 0.16,3.68 -0.21,5.49 -7.53,36.22 -14.75,72.52 -22.38,108.71 -5.07,8.36 -11.24,16.08 -16.61,24.28 34.54,-0.04 69.08,-0.01 103.62,-0.02 3.58,-18.18 7.22,-36.34 10.75,-54.53 -11.81,6.43 -23.56,12.97 -35.29,19.56 -1.11,0.58 -2.22,1.33 -3.53,1.2 -6.34,0.08 -12.68,-0.04 -19.02,0.05 1.95,-11.51 4.63,-22.88 6.57,-34.39 9.5,-0.36 19.01,0.03 28.51,-0.21 1.89,-9.89 3.84,-19.77 5.85,-29.63 -9.44,-0.11 -18.88,-0.02 -28.31,-0.05 1.96,-10.42 4.15,-20.8 6.12,-31.21 6.92,0.12 13.94,-0.42 20.8,0.24 9.1,6.21 18.09,12.6 27.13,18.92 3.52,-17.65 7.02,-35.3 10.45,-52.97 -33.8,0.02 -67.59,0.05 -101.39,-0.01 m 106.21,-0.01 c 1.79,10.64 3.94,21.22 5.87,31.84 0.58,2.7 -0.39,5.38 -0.87,8.01 -6.77,32.51 -13.48,65.04 -20.22,97.56 -0.4,2.21 -1.86,3.97 -3.09,5.77 -4.63,6.6 -9.34,13.13 -13.82,19.83 15.49,0.1 30.99,-0.04 46.49,0.07 3.28,-17.08 6.44,-34.19 9.66,-51.29 2.53,-14.4 5.89,-28.68 7.46,-43.23 0.69,3.07 0.81,6.23 1.1,9.36 0.96,11.77 4.21,23.16 6.24,34.75 3.23,16.66 6.64,33.29 9.69,49.98 16.24,0.29 32.49,0.1 48.74,0.1 -3.12,-7.95 -6.36,-15.87 -9.19,-23.92 6.94,-34.94 14.4,-69.81 21.66,-104.7 6.15,-11.55 13.23,-22.64 19.54,-34.12 -15.34,0.07 -30.67,0.01 -46,0.03 -3.24,16.88 -6.69,33.71 -9.95,50.58 -2.99,15.01 -6.32,30 -7.75,45.27 -0.63,-4.35 -0.79,-8.76 -1.55,-13.09 -5.81,-27.49 -10.53,-55.2 -15.96,-82.77 -16.01,0.01 -32.03,0.05 -48.05,-0.03 m 137.46,6.11 c -7.48,5.35 -12.35,13.71 -14.65,22.5 -2.56,9.63 -4,19.51 -6.11,29.25 -3.73,18.91 -7.47,37.82 -11.2,56.73 -1.55,8.37 -3.73,16.67 -4.18,25.2 -0.27,6.78 1.5,14.34 7.24,18.58 7.01,5.19 16.21,4.67 24.49,4.67 18.22,-0.05 36.45,0.11 54.68,-0.08 3.75,-19.99 7.88,-39.9 11.74,-59.87 -11.1,-0.12 -22.19,-0.01 -33.29,-0.05 -1.83,8.75 -3.35,17.56 -5.27,26.29 -6.94,-0.07 -13.89,-0.08 -20.83,0 6.16,-31.88 12.61,-63.7 18.83,-95.57 6.98,0.07 13.97,-0.01 20.95,0.04 -1.21,6.22 -2.48,12.42 -3.69,18.64 10.57,0.22 21.15,0.04 31.72,0.09 3.49,-17.57 6.99,-35.15 10.42,-52.73 -20.07,0.12 -40.16,-0.3 -60.23,0.24 -7.24,0.09 -14.68,1.77 -20.62,6.07 m 86.69,-6.03 c 2.45,8.87 5.41,17.63 7.44,26.6 -7.55,37.44 -15.2,74.89 -23.01,112.26 -5.1,8.3 -11.32,15.89 -16.47,24.16 34.13,-0.1 68.27,-0.1 102.4,0 3.78,-18.13 7.49,-36.27 11.19,-54.42 -10.73,5.6 -21.13,11.82 -31.72,17.67 -2.24,1.08 -4.26,3.07 -6.89,2.95 -6.21,0 -12.42,-0.01 -18.63,-0.02 2.11,-11.5 4.67,-22.9 6.65,-34.41 9.46,-0.38 19.08,0.38 28.45,-0.38 2.02,-9.77 3.91,-19.57 5.87,-29.36 -9.36,-0.14 -18.74,-0.16 -28.1,0.02 1.54,-10.51 4.07,-20.85 5.92,-31.31 6.87,-0.09 13.73,-0.07 20.6,-0.02 5.86,4.21 11.86,8.22 17.73,12.43 3.29,1.96 6.18,4.98 9.72,6.28 3.51,-17.45 6.82,-34.95 10.44,-52.37 -33.86,-0.25 -67.73,-0.09 -101.59,-0.08 M 137.39,621.35 c 5.04,20.87 10.39,41.67 15.26,62.58 162.79,0.15 325.6,0.02 488.39,0.06 39.98,-0.51 79.96,-0.13 119.94,-0.24 118.53,-0.08 237.05,0.16 355.57,-0.12 4.17,-20.76 8.45,-41.5 12.85,-62.2 -46.13,-0.39 -92.27,-0.06 -138.41,-0.17 -284.53,0.06 -569.07,-0.12 -853.6,0.09 z"
         id="path3057"
         inkscape:connector-curvature="0"
         style="fill:#000000" />
      <path
         d="m 701.8,125.81 c 17.32,-17.46 35.9,-33.76 56.11,-47.81 -28.53,29.28 -54.64,61.2 -75.27,96.58 -9.23,16.08 -17.47,32.83 -23.21,50.5 -9.12,26.68 -11.6,56.01 -4.64,83.49 -45.26,-10.48 -92.51,-8.43 -137.96,-0.26 -17.95,3.22 -35.61,7.91 -52.94,13.55 15.38,-8.26 30.78,-16.59 47.13,-22.8 14.58,-5.56 29.78,-9.26 45.04,-12.38 -12.98,-18.79 -19.92,-40.93 -25.12,-62.94 7.16,9.54 13.98,19.38 21.83,28.41 10.29,12.26 22.71,22.64 36.24,31.17 -2.34,-8.24 -3.25,-16.77 -3.75,-25.29 -1.86,-25.97 2.88,-51.85 8.81,-77.03 3.41,-14.8 7.98,-29.29 12.31,-43.84 l 0.49,0.08 c -3.57,27.78 -5.46,55.92 -3.17,83.89 1.66,22.58 7.33,45.36 20.04,64.36 0.19,-23.96 5.5,-47.8 15.09,-69.73 14.81,-33.78 37.36,-63.64 62.97,-89.95 z"
         id="path3059"
         inkscape:connector-curvature="0"
         style="fill:#b6b7bb" />
      <path
         d="m 739.29,166.48 c 31.39,-16.88 62.48,-34.33 93.83,-51.28 2.33,7.64 5.33,15.06 7.51,22.73 -4.59,4.69 -9.65,8.94 -14.48,13.39 -1.8,-4.13 -3.66,-8.24 -5.35,-12.41 -16.61,9.04 -33.25,18.04 -49.77,27.23 9.31,0.65 18.66,0.79 27.98,1.38 -1.64,5.74 -3.58,11.38 -5.33,17.09 12.87,-7.53 25.67,-15.19 38.51,-22.76 6.86,18.36 13.19,36.91 19.27,55.54 -11.68,0.21 -23.37,0.13 -35.05,0.05 -4.69,-1.97 -8.58,-5.58 -13.02,-8.11 1.48,8.49 3.29,16.92 4.79,25.41 6.56,-0.01 13.12,0.08 19.69,-0.05 -1.74,5.08 -4.08,9.92 -6.08,14.9 -11.79,2.02 -22.79,7.04 -32.68,13.65 12.18,-0.3 24.39,-0.47 36.56,-1.04 -2.9,3.7 -5.37,7.79 -8.63,11.18 -6.14,3.63 -12.65,6.62 -18.81,10.2 5.52,0.64 11.1,0.89 16.58,1.8 3.26,5.53 5.97,11.48 8.89,17.23 -6.62,8.57 -12.86,17.42 -19.43,26.02 -21.3,-3.42 -42.34,-9.91 -61.01,-20.88 -11.27,-6.91 -22.45,-15.28 -28.74,-27.21 -5.08,-9.65 -7.23,-20.66 -7.03,-31.51 0.01,-2.12 0.43,-4.24 1.35,-6.15 2.72,-6.04 5.19,-12.19 7.99,-18.19 11.98,4.1 24.02,8.03 36.02,12.07 -8.89,-22.2 -15.97,-46.14 -13.56,-70.28 z"
         id="path3061"
         inkscape:connector-curvature="0"
         style="fill:#ffffff" />
      <path
         d="m 691.89,277.05 c 4.03,13.56 10.7,27.22 22.53,35.61 9.48,7.13 20.21,12.34 31.11,16.89 -2.51,3.24 -4.46,6.87 -7.04,10.06 -19.92,-10.75 -41.18,-18.88 -62.71,-25.77 5.32,-12.28 10.79,-24.51 16.11,-36.79 z"
         id="path3063"
         inkscape:connector-curvature="0"
         style="fill:#ffffff" />
      <path
         d="m 466.01,340.45 c 42.81,-10.1 87.09,-14.85 131.02,-11.45 25.61,1.88 51.18,5.61 75.89,12.73 18.3,5.37 36.12,12.39 53.11,21.04 17.93,8.82 35.15,18.98 52.61,28.69 25.53,14.58 52.44,26.78 80.32,36.13 -30.65,0.28 -61.33,0.2 -91.98,0.05 -9.52,-6.99 -18.86,-14.43 -28.88,-20.79 -36.51,-23.96 -77.47,-41.17 -120.22,-50.16 -43.02,-9.26 -87.5,-8.99 -131.06,-4.14 -46.75,5.25 -92.8,15.67 -137.78,29.29 37.25,-18.16 76.66,-31.84 116.97,-41.39 z"
         id="path3065"
         inkscape:connector-curvature="0"
         style="fill:#b6b7bb" />
      <path
         d="m 106.3,414.1 c 26.55,-0.23 53.11,-0.03 79.67,-0.1 9.84,0.09 19.93,-0.56 29.49,2.24 7.05,1.98 13.02,7.62 15.03,14.71 2.34,7.85 0.96,16.12 -0.49,23.99 -5.11,25.36 -10.25,50.71 -15.4,76.05 -2.58,12.13 -6.72,24.85 -16.48,33.15 -7.67,6.76 -18.22,8.76 -28.16,8.85 -11.58,0.05 -23.16,-0.04 -34.74,0.04 -3.33,17 -7.25,33.92 -10.31,50.95 2.35,11.24 4.92,22.45 7.6,33.62 -25.02,0.34 -50.06,0.07 -75.09,0.13 6.65,-10.76 13.28,-21.53 19.95,-32.26 0.93,-1.38 1.48,-2.95 1.75,-4.57 11.38,-55.32 22.77,-110.64 34.2,-165.96 0.5,-3.23 2.01,-6.55 0.92,-9.81 -2.66,-10.34 -5.27,-20.69 -7.94,-31.03 m 36.95,119.41 c 8.74,-0.03 17.49,0 26.24,-0.02 5.11,-26.28 10.52,-52.49 15.65,-78.76 -8.74,0.04 -17.49,0.01 -26.24,0.01 -5.12,26.28 -10.45,52.51 -15.65,78.77 z"
         id="path3067"
         inkscape:connector-curvature="0"
         style="fill:#ffffff" />
      <path
         d="m 214.08,586.99 c 9.49,-46.2 18.42,-92.53 27.79,-138.76 14.38,-0.42 28.77,-0.16 43.15,-0.23 10.72,0.14 21.48,-0.42 32.16,0.67 6.49,0.68 13.15,3.92 16.07,10.04 3.98,7.53 2.27,16.34 0.78,24.31 -2.29,10.79 -3.63,22.14 -9.22,31.86 -4.27,7.39 -11.94,11.99 -19.94,14.38 5.21,1.33 10.13,4.33 12.8,9.13 3.04,4.64 3.07,10.51 1.87,15.76 -2.39,10.61 -4.52,21.28 -6.77,31.92 -0.51,1.42 0.36,2.79 0.85,4.1 3.05,7.02 6.08,14.05 9.06,21.11 -12.89,-0.06 -25.79,-0.01 -38.68,-0.03 -3.55,-0.08 -7.52,-0.53 -10.12,-3.22 -2.37,-3.21 -2.21,-7.45 -1.65,-11.21 3.24,-17.42 7.43,-34.68 10.49,-52.14 -7.09,0.11 -14.18,0.1 -21.26,0.01 -4.56,22.15 -8.8,44.36 -13.24,66.54 -16.73,0.09 -33.47,-0.08 -50.21,0.08 4.64,-8.52 11.32,-15.87 16.07,-24.32 m 59.67,-104.94 c -2.11,10.81 -4.29,21.61 -6.37,32.43 7.13,0.09 14.27,-0.11 21.4,0.11 2.38,-10.84 4.26,-21.78 6.59,-32.63 -7.21,0.11 -14.42,-0.04 -21.62,0.09 z"
         id="path3069"
         inkscape:connector-curvature="0"
         style="fill:#ffffff" />
      <path
         d="m 373.63,448.79 c 12.06,-1.4 24.24,-0.56 36.36,-0.79 9.09,0.44 19.71,-0.6 26.86,6.2 7.21,7.69 5.75,19.28 4.3,28.83 -5.54,29.35 -11.51,58.62 -17.3,87.92 -2.72,12.37 -6.24,26.02 -16.86,34.05 -8.82,6.71 -20.46,6.39 -30.97,6.25 -9.35,-0.14 -18.7,0.29 -28.03,-0.24 -7.16,-0.46 -15.06,-2.63 -19.18,-9 -4.84,-7.77 -3.54,-17.46 -1.95,-26 6.27,-31.37 12.7,-62.72 18.99,-94.08 1.95,-9.16 5.34,-18.37 11.99,-25.18 4.21,-4.29 9.88,-7 15.79,-7.96 m 9.39,33.24 c -6.14,31.84 -12.61,63.62 -18.79,95.46 6.98,-0.01 13.96,0.06 20.95,-0.04 6.23,-31.82 12.58,-63.62 18.82,-95.43 -7,-0.03 -13.99,-0.05 -20.98,0.01 z"
         id="path3071"
         inkscape:connector-curvature="0"
         style="fill:#ffffff" />
      <path
         d="m 448.27,448 c 16.91,0.05 33.82,-0.1 50.73,0.07 -2.96,5.72 -5.58,11.61 -8.48,17.36 -1.17,2.4 -2.59,4.84 -2.53,7.6 -1.53,26.41 -3.45,52.79 -4.65,79.21 -0.22,7.65 -1.95,15.19 -1.95,22.83 3.89,-18.19 11,-35.44 16.6,-53.13 5.16,-15.69 10.42,-31.34 15.49,-47.05 -2.06,-9.06 -4.98,-17.94 -7.52,-26.88 65.37,0 130.73,-0.04 196.1,0.01 8.68,-0.27 18.04,3.96 21.48,12.34 3.59,8.99 0.75,18.77 -1.08,27.84 -5.11,25.18 -9.97,50.41 -15.01,75.6 -2.66,13.5 -5.17,28.21 -15.06,38.53 -5.94,6.44 -14.89,8.85 -23.4,8.9 -46.25,0.07 -92.5,-0.04 -138.75,0.06 3.87,-7.42 7.89,-14.76 11.79,-22.15 1.35,-2.48 1.59,-5.34 2.19,-8.05 6.89,-33.65 13.81,-67.31 20.69,-100.97 0.43,-2.35 1.31,-4.7 0.92,-7.12 -1.13,-8.13 -2.15,-16.27 -3.34,-24.39 -21.39,54.09 -41.87,108.56 -63.14,162.71 -17.59,-0.13 -35.19,-0.08 -52.79,-0.03 0.38,-54.43 1.01,-108.86 1.71,-163.29 m 156.57,24.88 c -1.56,2.12 -1.81,4.82 -2.31,7.33 -7.23,35.65 -14.69,71.25 -21.83,106.91 2.66,7.93 6.08,15.62 9.12,23.43 5.08,-6.83 9.72,-13.97 14.65,-20.9 2.07,-2.58 2.19,-6.01 2.9,-9.09 6.86,-33.5 13.7,-67 20.59,-100.49 0.36,-2.32 1.41,-4.7 0.66,-7.06 -2.23,-8.08 -4.49,-16.16 -6.78,-24.23 -5.76,7.96 -11.35,16.05 -17,24.1 m 60.36,9.18 c -6.18,31.82 -12.63,63.58 -18.78,95.4 6.96,0.09 13.93,0 20.89,0.05 6.3,-31.81 12.51,-63.65 18.91,-95.44 -7.01,-0.12 -14.02,-0.12 -21.02,-0.01 z"
         id="path3073"
         inkscape:connector-curvature="0"
         style="fill:#ffffff" />
      <path
         d="m 730.74,448.22 c 33.8,0.06 67.59,0.03 101.39,0.01 -3.43,17.67 -6.93,35.32 -10.45,52.97 -9.04,-6.32 -18.03,-12.71 -27.13,-18.92 -6.86,-0.66 -13.88,-0.12 -20.8,-0.24 -1.97,10.41 -4.16,20.79 -6.12,31.21 9.43,0.03 18.87,-0.06 28.31,0.05 -2.01,9.86 -3.96,19.74 -5.85,29.63 -9.5,0.24 -19.01,-0.15 -28.51,0.21 -1.94,11.51 -4.62,22.88 -6.57,34.39 6.34,-0.09 12.68,0.03 19.02,-0.05 1.31,0.13 2.42,-0.62 3.53,-1.2 11.73,-6.59 23.48,-13.13 35.29,-19.56 -3.53,18.19 -7.17,36.35 -10.75,54.53 -34.54,0.01 -69.08,-0.02 -103.62,0.02 5.37,-8.2 11.54,-15.92 16.61,-24.28 7.63,-36.19 14.85,-72.49 22.38,-108.71 0.37,-1.81 0.91,-3.69 0.21,-5.49 -2.21,-8.22 -4.89,-16.31 -6.94,-24.57 z"
         id="path3075"
         inkscape:connector-curvature="0"
         style="fill:#ffffff" />
      <path
         d="m 836.95,448.21 c 16.02,0.08 32.04,0.04 48.05,0.03 5.43,27.57 10.15,55.28 15.96,82.77 0.76,4.33 0.92,8.74 1.55,13.09 1.43,-15.27 4.76,-30.26 7.75,-45.27 3.26,-16.87 6.71,-33.7 9.95,-50.58 15.33,-0.02 30.66,0.04 46,-0.03 -6.31,11.48 -13.39,22.57 -19.54,34.12 -7.26,34.89 -14.72,69.76 -21.66,104.7 2.83,8.05 6.07,15.97 9.19,23.92 -16.25,0 -32.5,0.19 -48.74,-0.1 -3.05,-16.69 -6.46,-33.32 -9.69,-49.98 -2.03,-11.59 -5.28,-22.98 -6.24,-34.75 -0.29,-3.13 -0.41,-6.29 -1.1,-9.36 -1.57,14.55 -4.93,28.83 -7.46,43.23 -3.22,17.1 -6.38,34.21 -9.66,51.29 -15.5,-0.11 -31,0.03 -46.49,-0.07 4.48,-6.7 9.19,-13.23 13.82,-19.83 1.23,-1.8 2.69,-3.56 3.09,-5.77 6.74,-32.52 13.45,-65.05 20.22,-97.56 0.48,-2.63 1.45,-5.31 0.87,-8.01 -1.93,-10.62 -4.08,-21.2 -5.87,-31.84 z"
         id="path3077"
         inkscape:connector-curvature="0"
         style="fill:#ffffff" />
      <path
         d="m 974.41,454.32 c 5.94,-4.3 13.38,-5.98 20.62,-6.07 20.07,-0.54 40.16,-0.12 60.23,-0.24 -3.43,17.58 -6.93,35.16 -10.42,52.73 -10.57,-0.05 -21.15,0.13 -31.72,-0.09 1.21,-6.22 2.48,-12.42 3.69,-18.64 -6.98,-0.05 -13.97,0.03 -20.95,-0.04 -6.22,31.87 -12.67,63.69 -18.83,95.57 6.94,-0.08 13.89,-0.07 20.83,0 1.92,-8.73 3.44,-17.54 5.27,-26.29 11.1,0.04 22.19,-0.07 33.29,0.05 -3.86,19.97 -7.99,39.88 -11.74,59.87 -18.23,0.19 -36.46,0.03 -54.68,0.08 -8.28,0 -17.48,0.52 -24.49,-4.67 -5.74,-4.24 -7.51,-11.8 -7.24,-18.58 0.45,-8.53 2.63,-16.83 4.18,-25.2 3.73,-18.91 7.47,-37.82 11.2,-56.73 2.11,-9.74 3.55,-19.62 6.11,-29.25 2.3,-8.79 7.17,-17.15 14.65,-22.5 z"
         id="path3079"
         inkscape:connector-curvature="0"
         style="fill:#ffffff" />
      <path
         d="m 1061.1,448.29 c 33.86,-0.01 67.73,-0.17 101.59,0.08 -3.62,17.42 -6.93,34.92 -10.44,52.37 -3.54,-1.3 -6.43,-4.32 -9.72,-6.28 -5.87,-4.21 -11.87,-8.22 -17.73,-12.43 -6.87,-0.05 -13.73,-0.07 -20.6,0.02 -1.85,10.46 -4.38,20.8 -5.92,31.31 9.36,-0.18 18.74,-0.16 28.1,-0.02 -1.96,9.79 -3.85,19.59 -5.87,29.36 -9.37,0.76 -18.99,0 -28.45,0.38 -1.98,11.51 -4.54,22.91 -6.65,34.41 6.21,0.01 12.42,0.02 18.63,0.02 2.63,0.12 4.65,-1.87 6.89,-2.95 10.59,-5.85 20.99,-12.07 31.72,-17.67 -3.7,18.15 -7.41,36.29 -11.19,54.42 -34.13,-0.1 -68.27,-0.1 -102.4,0 5.15,-8.27 11.37,-15.86 16.47,-24.16 7.81,-37.37 15.46,-74.82 23.01,-112.26 -2.03,-8.97 -4.99,-17.73 -7.44,-26.6 z"
         id="path3081"
         inkscape:connector-curvature="0"
         style="fill:#ffffff" />
      <path
         d="m 604.84,472.88 c 5.65,-8.05 11.24,-16.14 17,-24.1 2.29,8.07 4.55,16.15 6.78,24.23 0.75,2.36 -0.3,4.74 -0.66,7.06 -6.89,33.49 -13.73,66.99 -20.59,100.49 -0.71,3.08 -0.83,6.51 -2.9,9.09 -4.93,6.93 -9.57,14.07 -14.65,20.9 -3.04,-7.81 -6.46,-15.5 -9.12,-23.43 7.14,-35.66 14.6,-71.26 21.83,-106.91 0.5,-2.51 0.75,-5.21 2.31,-7.33 z"
         id="path3083"
         inkscape:connector-curvature="0"
         style="fill:#000000" />
      <path
         d="m 143.25,533.51 c 5.2,-26.26 10.53,-52.49 15.65,-78.77 8.75,0 17.5,0.03 26.24,-0.01 -5.13,26.27 -10.54,52.48 -15.65,78.76 -8.75,0.02 -17.5,-0.01 -26.24,0.02 z"
         id="path3085"
         inkscape:connector-curvature="0"
         style="fill:#000000" />
      <path
         d="m 273.75,482.05 c 7.2,-0.13 14.41,0.02 21.62,-0.09 -2.33,10.85 -4.21,21.79 -6.59,32.63 -7.13,-0.22 -14.27,-0.02 -21.4,-0.11 2.08,-10.82 4.26,-21.62 6.37,-32.43 z"
         id="path3087"
         inkscape:connector-curvature="0"
         style="fill:#000000" />
      <path
         d="m 383.02,482.03 c 6.99,-0.06 13.98,-0.04 20.98,-0.01 -6.24,31.81 -12.59,63.61 -18.82,95.43 -6.99,0.1 -13.97,0.03 -20.95,0.04 6.18,-31.84 12.65,-63.62 18.79,-95.46 z"
         id="path3089"
         inkscape:connector-curvature="0"
         style="fill:#000000" />
      <path
         d="m 665.2,482.06 c 7,-0.11 14.01,-0.11 21.02,0.01 -6.4,31.79 -12.61,63.63 -18.91,95.44 -6.96,-0.05 -13.93,0.04 -20.89,-0.05 6.15,-31.82 12.6,-63.58 18.78,-95.4 z"
         id="path3091"
         inkscape:connector-curvature="0"
         style="fill:#000000" />
      <path
         d="m 137.39,621.35 c 284.53,-0.21 569.07,-0.03 853.6,-0.09 46.14,0.11 92.28,-0.22 138.41,0.17 -4.4,20.7 -8.68,41.44 -12.85,62.2 -118.52,0.28 -237.04,0.04 -355.57,0.12 -39.98,0.11 -79.96,-0.27 -119.94,0.24 -162.79,-0.04 -325.6,0.09 -488.39,-0.06 -4.87,-20.91 -10.22,-41.71 -15.26,-62.58 m 197.69,10.41 c -11.54,0.13 -23.08,-0.25 -34.61,0.2 0.7,0.92 1.4,1.84 2.11,2.77 -2.36,11.97 -4.62,23.96 -7.02,35.92 -1.05,0.56 -2.06,1.19 -2.88,2.06 7.16,0.38 14.41,0.61 21.55,-0.11 -0.75,-0.6 -1.5,-1.19 -2.25,-1.76 0.34,-3.74 1.34,-7.38 1.93,-11.08 5.05,-0.02 10.1,-0.12 15.15,0.13 0.56,0.9 1.15,1.78 1.77,2.65 1,-5.51 2.76,-10.94 2.89,-16.56 -1.23,0.83 -2.14,2.43 -3.76,2.43 -4.58,0.26 -9.18,0.02 -13.77,0.05 0.28,-1.41 0.57,-2.82 0.87,-4.21 5.82,0.02 11.65,-0.1 17.47,0.1 0.62,0.72 0.72,2.14 1.8,2.38 1.39,-5.54 2.47,-11.16 3.42,-16.79 -1.48,0.78 -2.89,1.98 -4.67,1.82 m 634.98,2.67 c -3.69,2.34 -6.86,5.94 -7.62,10.37 -0.55,3.01 -0.48,6.91 2.46,8.72 0,0.99 -0.01,1.99 -0.05,2.99 -4.34,3.38 -7.15,8.29 -10.85,12.31 0.73,-0.03 2.21,-0.08 2.94,-0.11 7.27,5.01 16.44,6.03 25.04,5.53 7.84,-0.52 16.19,-4.87 18.59,-12.81 1.05,-3.42 1.19,-7.81 -1.86,-10.25 -5.33,-4.4 -12.69,-3.51 -18.76,-6.09 2.12,-3.31 6.38,-1.83 9.51,-1.26 2.5,0.81 5.96,0.84 7,3.78 3.88,-3.78 7.26,-8.03 10.65,-12.25 -3.69,0.26 -6.74,-2.02 -10.11,-3.08 -8.76,-2.99 -18.79,-2.28 -26.94,2.15 m -539.39,-2.37 c 0.74,0.68 1.49,1.38 2.25,2.07 -2.36,12.17 -4.49,24.4 -7.18,36.5 -0.96,0.66 -1.89,1.36 -2.82,2.06 7.1,0.56 14.25,0.32 21.37,0.14 -0.66,-0.79 -1.33,-1.56 -2.01,-2.33 0.42,-3.11 1.04,-6.18 1.74,-9.23 1.22,-0.02 2.45,-0.02 3.68,-0.02 1.14,3.16 2.72,6.17 3.39,9.48 -0.89,0.57 -1.7,1.24 -2.43,2 5.41,0.53 10.86,0.16 16.29,0.29 2.01,-0.11 4.21,0.35 6.06,-0.69 -1.61,-1.22 -3.04,-2.66 -3.77,-4.56 -1.47,-3.37 -3.54,-6.53 -4.24,-10.18 5.4,-2.08 10.18,-6.68 11.02,-12.59 1.36,-5.44 -2.32,-11.96 -8.06,-12.72 -6.28,-0.84 -12.63,-0.42 -18.94,-0.52 -5.45,0.11 -10.92,-0.28 -16.35,0.3 M 569,631.94 c 0.56,0.51 1.66,1.53 2.21,2.04 -1.92,11.32 -4.36,22.54 -6.42,33.83 -0.17,2.1 -1.85,3.47 -3.12,4.97 6.99,0.42 14.01,0.18 21.01,0.12 -0.73,-0.9 -1.44,-1.79 -2.16,-2.67 2.5,-12.08 4.5,-24.26 7.24,-36.29 0.99,-0.51 1.92,-1.13 2.78,-1.86 -7.16,-0.59 -14.37,-0.37 -21.54,-0.14 m 126.75,-0.02 c 0.35,0.56 1.06,1.68 1.41,2.23 -6.21,11.85 -13.63,23.01 -20.34,34.58 -0.72,1.79 -2.66,2.41 -3.8,3.83 6.99,0.92 14.12,0.28 21.16,0.34 -0.55,-0.95 -1.11,-1.88 -1.66,-2.8 0.5,-1.01 1.02,-2.01 1.54,-3.01 l 0.76,-0.38 c 4.54,0.08 9.08,0.04 13.63,0 0.08,0.87 0.22,2.62 0.29,3.5 -0.87,0.85 -1.72,1.72 -2.57,2.59 7.01,0.52 14.05,0.15 21.07,0.04 -1.08,-1.53 -2.43,-3 -2.61,-4.95 -1.98,-10.65 -3.98,-21.29 -5.72,-31.98 -0.65,-1.66 1.05,-2.77 1.8,-3.99 -8.32,-0.24 -16.65,-0.27 -24.96,0 m 129.2,0.06 c 0.55,0.51 1.65,1.53 2.2,2.05 -1.76,11.34 -4.37,22.54 -6.37,33.85 -0.19,2.06 -1.86,3.41 -3.08,4.92 7.03,0.34 14.08,0.23 21.12,0.05 -0.77,-0.82 -1.53,-1.64 -2.28,-2.44 0.56,-3.08 1.16,-6.15 1.75,-9.21 1.23,0.24 2.85,-0.31 3.86,0.54 1.36,2.76 2.19,5.76 3.42,8.59 -0.9,0.8 -1.78,1.62 -2.66,2.45 7.5,0.37 15.03,0.28 22.54,0.05 -4.27,-4.04 -6.04,-9.85 -8.36,-15.09 5.8,-2.24 10.99,-7.32 11.38,-13.81 0.81,-5.55 -3.38,-11.86 -9.33,-11.8 -11.37,-0.65 -22.81,-0.45 -34.19,-0.15 z"
         id="path3093"
         inkscape:connector-curvature="0"
         style="fill:#b6b7bb" />
      <path
         d="m 335.08,631.76 c 1.78,0.16 3.19,-1.04 4.67,-1.82 -0.95,5.63 -2.03,11.25 -3.42,16.79 -1.08,-0.24 -1.18,-1.66 -1.8,-2.38 -5.82,-0.2 -11.65,-0.08 -17.47,-0.1 -0.3,1.39 -0.59,2.8 -0.87,4.21 4.59,-0.03 9.19,0.21 13.77,-0.05 1.62,0 2.53,-1.6 3.76,-2.43 -0.13,5.62 -1.89,11.05 -2.89,16.56 -0.62,-0.87 -1.21,-1.75 -1.77,-2.65 -5.05,-0.25 -10.1,-0.15 -15.15,-0.13 -0.59,3.7 -1.59,7.34 -1.93,11.08 0.75,0.57 1.5,1.16 2.25,1.76 -7.14,0.72 -14.39,0.49 -21.55,0.11 0.82,-0.87 1.83,-1.5 2.88,-2.06 2.4,-11.96 4.66,-23.95 7.02,-35.92 -0.71,-0.93 -1.41,-1.85 -2.11,-2.77 11.53,-0.45 23.07,-0.07 34.61,-0.2 z"
         id="path3095"
         inkscape:connector-curvature="0"
         style="fill:#373536" />
      <path
         d="m 970.06,634.43 c 8.15,-4.43 18.18,-5.14 26.94,-2.15 3.37,1.06 6.42,3.34 10.11,3.08 -3.39,4.22 -6.77,8.47 -10.65,12.25 -1.04,-2.94 -4.5,-2.97 -7,-3.78 -3.13,-0.57 -7.39,-2.05 -9.51,1.26 6.07,2.58 13.43,1.69 18.76,6.09 3.05,2.44 2.91,6.83 1.86,10.25 -2.4,7.94 -10.75,12.29 -18.59,12.81 -8.6,0.5 -17.77,-0.52 -25.04,-5.53 -0.73,0.03 -2.21,0.08 -2.94,0.11 3.7,-4.02 6.51,-8.93 10.85,-12.31 0.04,-1 0.05,-2 0.05,-2.99 -2.94,-1.81 -3.01,-5.71 -2.46,-8.72 0.76,-4.43 3.93,-8.03 7.62,-10.37 m -2.94,24.49 c 4.73,2.17 10.12,3.05 15.3,2.47 0.07,-0.95 0.15,-1.89 0.23,-2.82 -5.17,-1.28 -11.25,-0.51 -15.63,-3.92 -1.67,1.04 -1.84,3.37 0.1,4.27 z"
         id="path3097"
         inkscape:connector-curvature="0"
         style="fill:#373536" />
      <path
         d="m 430.67,632.06 c 5.43,-0.58 10.9,-0.19 16.35,-0.3 6.31,0.1 12.66,-0.32 18.94,0.52 5.74,0.76 9.42,7.28 8.06,12.72 -0.84,5.91 -5.62,10.51 -11.02,12.59 0.7,3.65 2.77,6.81 4.24,10.18 0.73,1.9 2.16,3.34 3.77,4.56 -1.85,1.04 -4.05,0.58 -6.06,0.69 -5.43,-0.13 -10.88,0.24 -16.29,-0.29 0.73,-0.76 1.54,-1.43 2.43,-2 -0.67,-3.31 -2.25,-6.32 -3.39,-9.48 -1.23,0 -2.46,0 -3.68,0.02 -0.7,3.05 -1.32,6.12 -1.74,9.23 0.68,0.77 1.35,1.54 2.01,2.33 -7.12,0.18 -14.27,0.42 -21.37,-0.14 0.93,-0.7 1.86,-1.4 2.82,-2.06 2.69,-12.1 4.82,-24.33 7.18,-36.5 -0.76,-0.69 -1.51,-1.39 -2.25,-2.07 m 16.8,11.22 c -0.51,2.55 -1.01,5.12 -1.49,7.7 2.76,-0.01 5.63,0.29 8.29,-0.65 2.01,-0.59 2.36,-2.98 3.33,-4.53 -2.35,-3.24 -6.66,-2.55 -10.13,-2.52 z"
         id="path3099"
         inkscape:connector-curvature="0"
         style="fill:#373536" />
      <path
         d="m 569,631.94 c 7.17,-0.23 14.38,-0.45 21.54,0.14 -0.86,0.73 -1.79,1.35 -2.78,1.86 -2.74,12.03 -4.74,24.21 -7.24,36.29 0.72,0.88 1.43,1.77 2.16,2.67 -7,0.06 -14.02,0.3 -21.01,-0.12 1.27,-1.5 2.95,-2.87 3.12,-4.97 2.06,-11.29 4.5,-22.51 6.42,-33.83 -0.55,-0.51 -1.65,-1.53 -2.21,-2.04 z"
         id="path3101"
         inkscape:connector-curvature="0"
         style="fill:#373536" />
      <path
         d="m 695.75,631.92 c 8.31,-0.27 16.64,-0.24 24.96,0 -0.75,1.22 -2.45,2.33 -1.8,3.99 1.74,10.69 3.74,21.33 5.72,31.98 0.18,1.95 1.53,3.42 2.61,4.95 -7.02,0.11 -14.06,0.48 -21.07,-0.04 0.85,-0.87 1.7,-1.74 2.57,-2.59 -0.07,-0.88 -0.21,-2.63 -0.29,-3.5 -4.55,0.04 -9.09,0.08 -13.63,0 l -0.76,0.38 c -0.52,1 -1.04,2 -1.54,3.01 0.55,0.92 1.11,1.85 1.66,2.8 -7.04,-0.06 -14.17,0.58 -21.16,-0.34 1.14,-1.42 3.08,-2.04 3.8,-3.83 6.71,-11.57 14.13,-22.73 20.34,-34.58 -0.35,-0.55 -1.06,-1.67 -1.41,-2.23 m 4.4,23.41 c 2.29,-0.05 4.6,-0.08 6.91,-0.08 -0.29,-3.88 -0.68,-7.75 -1.26,-11.59 -2.21,3.72 -4.26,7.56 -5.65,11.67 z"
         id="path3103"
         inkscape:connector-curvature="0"
         style="fill:#373536" />
      <path
         d="m 824.95,631.98 c 11.38,-0.3 22.82,-0.5 34.19,0.15 5.95,-0.06 10.14,6.25 9.33,11.8 -0.39,6.49 -5.58,11.57 -11.38,13.81 2.32,5.24 4.09,11.05 8.36,15.09 -7.51,0.23 -15.04,0.32 -22.54,-0.05 0.88,-0.83 1.76,-1.65 2.66,-2.45 -1.23,-2.83 -2.06,-5.83 -3.42,-8.59 -1.01,-0.85 -2.63,-0.3 -3.86,-0.54 -0.59,3.06 -1.19,6.13 -1.75,9.21 0.75,0.8 1.51,1.62 2.28,2.44 -7.04,0.18 -14.09,0.29 -21.12,-0.05 1.22,-1.51 2.89,-2.86 3.08,-4.92 2,-11.31 4.61,-22.51 6.37,-33.85 -0.55,-0.52 -1.65,-1.54 -2.2,-2.05 m 16.77,11.36 c -0.48,2.58 -0.97,5.16 -1.44,7.75 3.3,-0.28 7.24,0.52 9.94,-1.91 1.35,-1.38 2.04,-4.41 -0.27,-5.17 -2.58,-1.18 -5.5,-0.67 -8.23,-0.67 z"
         id="path3105"
         inkscape:connector-curvature="0"
         style="fill:#373536" />
      <path
         d="m 447.47,643.28 c 3.47,-0.03 7.78,-0.72 10.13,2.52 -0.97,1.55 -1.32,3.94 -3.33,4.53 -2.66,0.94 -5.53,0.64 -8.29,0.65 0.48,-2.58 0.98,-5.15 1.49,-7.7 z"
         id="path3107"
         inkscape:connector-curvature="0"
         style="fill:#b6b7bb" />
      <path
         d="m 841.72,643.34 c 2.73,0 5.65,-0.51 8.23,0.67 2.31,0.76 1.62,3.79 0.27,5.17 -2.7,2.43 -6.64,1.63 -9.94,1.91 0.47,-2.59 0.96,-5.17 1.44,-7.75 z"
         id="path3109"
         inkscape:connector-curvature="0"
         style="fill:#b6b7bb" />
      <path
         d="m 700.15,655.33 c 1.39,-4.11 3.44,-7.95 5.65,-11.67 0.58,3.84 0.97,7.71 1.26,11.59 -2.31,0 -4.62,0.03 -6.91,0.08 z"
         id="path3111"
         inkscape:connector-curvature="0"
         style="fill:#b6b7bb" />
      <path
         d="m 967.12,658.92 c -1.94,-0.9 -1.77,-3.23 -0.1,-4.27 4.38,3.41 10.46,2.64 15.63,3.92 -0.08,0.93 -0.16,1.87 -0.23,2.82 -5.18,0.58 -10.57,-0.3 -15.3,-2.47 z"
         id="path3113"
         inkscape:connector-curvature="0"
         style="fill:#b6b7bb" />
    </g>
  </g>
</svg>
