<?xml version="1.0" encoding="UTF-8" standalone="no"?>
<svg
   xmlns:dc="http://purl.org/dc/elements/1.1/"
   xmlns:cc="http://creativecommons.org/ns#"
   xmlns:rdf="http://www.w3.org/1999/02/22-rdf-syntax-ns#"
   xmlns:svg="http://www.w3.org/2000/svg"
   xmlns="http://www.w3.org/2000/svg"
   xmlns:sodipodi="http://sodipodi.sourceforge.net/DTD/sodipodi-0.dtd"
   xmlns:inkscape="http://www.inkscape.org/namespaces/inkscape"
   width="102.28363"
   height="108.90087"
   viewBox="0 0 81.826904 87.120697"
   version="1.1"
   id="svg3164"
   inkscape:version="0.48.1 "
   sodipodi:docname="Quinnipiac_Bobcats.svg">
  <metadata
     id="metadata3341">
    <rdf:RDF>
      <cc:Work
         rdf:about="">
        <dc:format>image/svg+xml</dc:format>
        <dc:type
           rdf:resource="http://purl.org/dc/dcmitype/StillImage" />
        <dc:title />
      </cc:Work>
    </rdf:RDF>
  </metadata>
  <defs
     id="defs3339" />
  <sodipodi:namedview
     pagecolor="#ffffff"
     bordercolor="#666666"
     borderopacity="1"
     objecttolerance="10"
     gridtolerance="10"
     guidetolerance="10"
     inkscape:pageopacity="0"
     inkscape:pageshadow="2"
     inkscape:window-width="1680"
     inkscape:window-height="994"
     id="namedview3337"
     showgrid="false"
     fit-margin-top="0"
     fit-margin-left="0"
     fit-margin-right="0"
     fit-margin-bottom="0"
     inkscape:zoom="5.0451568"
     inkscape:cx="29.487781"
     inkscape:cy="52.466397"
     inkscape:window-x="-4"
     inkscape:window-y="-4"
     inkscape:window-maximized="1"
     inkscape:current-layer="svg3164" />
  <g
     id="#002a4eff"
     transform="matrix(0.14980043,0,0,0.14980043,0.33637335,0.49927504)"
     style="stroke:#002a4d;stroke-opacity:1">
    <path
       style="fill:#002a4e;stroke:#002a4d;stroke-opacity:1"
       inkscape:connector-curvature="0"
       d="m 224.76,266.41 c 2.7,-11.06 9.58,-21.16 19.02,-27.55 -7.12,9.3 -11.7,20.87 -10.89,32.71 -2.36,-2.2 -5.14,-3.95 -8.13,-5.16 z"
       id="path3305" />
    <path
       style="fill:#002a4e;stroke:#002a4d;stroke-opacity:1"
       inkscape:connector-curvature="0"
       d="m 284.99,239.16 c 9.95,6.87 16.4,17.95 19.13,29.59 -2.84,0.77 -5.62,1.81 -8.21,3.23 1.21,-11.92 -3.3,-23.76 -10.92,-32.82 z"
       id="path3307" />
    <path
       style="fill:#002a4e;stroke:#002a4d;stroke-opacity:1"
       inkscape:connector-curvature="0"
       d="m 199.01,271.89 c 4.55,-2.62 9.95,-3.64 15.1,-2.52 9.28,2.11 17.39,8.14 22.47,16.15 2.84,3.41 5.95,9.19 11.25,7.67 l 0.5,-0.84 c 1.99,-3.17 2.55,-6.9 3.24,-10.5 0.5,4.03 1.3,8.19 0.22,12.21 -0.58,2.44 -2.44,4.77 -4.99,5.27 -1.11,0.06 -2.21,0.13 -3.32,0.19 -0.13,1.54 -0.25,3.08 -0.36,4.63 -7.47,-8.57 -19.31,-12.57 -30.46,-10.37 -4.94,-5.83 -5.15,-14.06 -3.59,-21.18 -3.34,-0.34 -6.72,-0.24 -10.06,-0.71 m 14.4,4.05 c -1.29,4.61 -0.72,9.62 1.56,13.83 2.02,-0.08 4.19,0.8 6.11,-0.09 1.25,-1.3 2.78,-2.31 4,-3.62 0.84,-2.33 -0.62,-4.75 -3.13,-4.77 0.36,-1.33 0.69,-2.67 0.99,-4.01 -1.92,-0.8 -3.81,-1.72 -5.84,-2.2 -1.19,-0.25 -3.46,-0.97 -3.69,0.86 m 15.02,6.03 c 0.38,3.12 -0.41,6.17 -0.84,9.24 3.13,1.23 6.38,2.16 9.49,3.48 -2.18,-4.68 -5.64,-8.58 -8.65,-12.72 z"
       id="path3309" />
    <path
       style="fill:#002a4e;stroke:#002a4d;stroke-opacity:1"
       inkscape:connector-curvature="0"
       d="m 324.79,291.69 c 5.47,-8.78 17.1,-11.37 26.77,-10.21 3.38,2.84 5.22,7.2 6.57,11.33 -10,-6.22 -22.84,-5.94 -33.34,-1.12 z"
       id="path3311" />
  </g>
  <path
     id="path3225"
     d="m 38.86055,1.0685167 c 0.704062,-0.035952 1.409622,-0.017976 2.115182,-0.01498 0.01947,5.3284013 -0.009,10.6583004 0.01348,15.9867024 -0.695074,0.05243 -1.393144,0.01049 -2.089716,0.03445 -0.951233,-2.979531 -1.860521,-5.972544 -2.849204,-8.94009 -0.02547,2.793778 -0.01049,5.590552 -0.006,8.385828 -0.02846,0.215713 0.0734,0.495839 -0.118342,0.66062 -0.666612,0.0719 -1.337718,0.110852 -1.999836,0.215713 -0.009,-5.368848 -0.0045,-10.7376953 -0.003,-16.1065427 0.684588,-0.064414 1.369176,-0.1363184 2.05676,-0.1393144 0.958722,2.6230055 1.944409,5.237023 2.80726,7.8944827 0.04494,-0.2486687 0.08389,-0.5003335 0.08239,-0.7534962 -0.01348,-2.4072929 0.003,-4.8160838 -0.009,-7.2233767 z"
     inkscape:connector-curvature="0"
     style="fill:#002a4d;stroke:#002a4d;stroke-opacity:1;stroke-width:0.4;stroke-miterlimit:4;stroke-dasharray:none" />
  <path
     id="path3227"
     d="m 43.240715,1.1539029 c 0.717544,0.055426 1.43359,0.1243344 2.152632,0.1587885 0.01049,5.3748394 -0.0015,10.7481806 0.006,16.1215226 -0.722038,-0.06891 -1.438084,-0.173769 -2.160122,-0.230693 0.0045,-5.349373 0,-10.7002447 0.0015,-16.0496181 z"
     inkscape:connector-curvature="0"
     style="fill:#002a4d;stroke:#002a4d;stroke-opacity:1;stroke-width:0.4;stroke-miterlimit:4;stroke-dasharray:none" />
  <path
     id="path3229"
     d="m 29.716732,1.7561006 c 0.707058,-0.083888 1.412618,-0.1887485 2.121174,-0.2666447 0.0075,5.4062975 0.01498,10.8110971 -0.0045,16.2173941 -0.710054,0.122837 -1.41112,0.298103 -2.12417,0.408956 -0.895807,-2.891149 -1.890482,-5.752337 -2.801268,-8.6389912 -0.154295,3.1652832 0.02696,6.3455462 -0.09288,9.5138252 -0.702564,0.182757 -1.370674,0.473369 -2.061254,0.69807 -0.003,-5.64448 -0.0045,-11.2904583 0.0015,-16.9349385 0.678596,-0.1647805 1.35869,-0.3250669 2.047772,-0.4464053 0.978197,2.5720734 2.00433,5.1306648 2.843212,7.7521718 0.127331,-2.7638175 -0.006,-5.5366234 0.07041,-8.3034374 z"
     inkscape:connector-curvature="0"
     style="fill:#002a4d;stroke:#002a4d;stroke-opacity:1;stroke-width:0.4;stroke-miterlimit:4;stroke-dasharray:none" />
  <path
     id="path3231"
     d="m 47.530999,1.5568661 c 1.866513,0.2726368 3.724039,0.6051937 5.56958,0.9961728 0.358023,0.8478705 0.72803,1.6912469 1.080061,2.5421133 0.182756,0.3924772 0.130326,0.8343884 0.136318,1.2538296 -0.01947,1.5953746 0.02397,3.1922472 -0.01947,4.7876222 -0.322071,0.819408 -0.8254,1.56092 -1.151965,2.381826 -1.190913,-0.25466 -2.330895,-0.711552 -3.524804,-0.955726 -0.003,1.923437 0.0075,3.846875 -0.0075,5.77181 -0.689082,-0.185752 -1.382658,-0.356525 -2.082226,-0.497337 -0.01498,-5.42727 -0.01648,-10.8545393 0,-16.2803109 m 2.092712,3.843879 c -0.003,1.1175112 -0.01198,2.2350224 0.006,3.3510356 0.760986,0.1468045 1.505494,0.3685091 2.264982,0.5198075 0.212717,-0.058422 0.229195,-0.340047 0.263649,-0.5198075 0.02696,-0.6501338 0.003,-1.3017657 0.01049,-1.9518996 C 52.179306,6.5017783 52.105904,6.2051734 51.956104,5.9490147 51.214591,5.6494138 50.399677,5.5790076 49.623711,5.4007451 z"
     inkscape:connector-curvature="0"
     style="fill:#002a4d;stroke:#002a4d;stroke-opacity:1;stroke-width:0.4;stroke-miterlimit:4;stroke-dasharray:none" />
  <path
     id="path3233"
     d="m 56.030675,3.3424872 c 0.701066,0.2142146 1.38865,0.4673773 2.092712,0.6755999 0.01198,6.0249729 0.0075,12.0499469 0.0015,18.0749199 -0.687584,-0.413449 -1.382658,-0.816412 -2.077732,-1.219375 -0.05543,-0.247171 -0.03595,-0.50333 -0.03895,-0.753497 0.02247,-5.59205 -0.02097,-11.1855977 0.02247,-16.7776478 z"
     inkscape:connector-curvature="0"
     style="fill:#002a4d;stroke:#002a4d;stroke-opacity:1;stroke-width:0.4;stroke-miterlimit:4;stroke-dasharray:none" />
  <path
     id="path3235"
     d="m 20.520483,4.1199514 c 0.693576,-0.2456727 1.390148,-0.4793613 2.076234,-0.7415121 0.07041,4.2797983 0.01049,8.5655887 0.02996,12.8468847 -0.01049,1.625335 0.02397,3.25067 -0.01798,4.876004 -0.725034,0.381991 -1.38116,0.877831 -2.085222,1.294276 -0.02397,-6.090886 -0.01947,-12.184767 -0.003,-18.2756526 z"
     inkscape:connector-curvature="0"
     style="fill:#002a4d;stroke:#002a4d;stroke-opacity:1;stroke-width:0.4;stroke-miterlimit:4;stroke-dasharray:none" />
  <path
     id="path3237"
     d="m 16.269147,6.2141614 c 0.69058,-0.3984691 1.37367,-0.8448744 2.140648,-1.0800611 -0.02696,5.2445127 0.0075,10.4905237 -0.01648,15.7365357 -0.233688,1.117511 -0.642644,2.194576 -0.92277,3.303099 -0.139315,0.404461 -0.157291,0.892811 -0.501832,1.189415 -1.638817,1.601367 -3.121841,3.366016 -4.408627,5.26249 -0.464381,-0.567744 -0.865846,-1.190914 -1.237351,-1.820076 -0.05393,-6.086391 -0.0015,-12.178775 -0.02547,-18.268162 0.02397,-0.274135 -0.08239,-0.629162 0.188748,-0.8119185 0.629162,-0.5332895 1.234356,-1.1025311 1.923438,-1.5579244 0.02696,5.1860909 -0.006,10.3751779 0.01498,15.5627669 0.02397,0.151298 0.01798,0.447903 0.244175,0.434421 0.804428,-0.790946 1.506992,-1.686753 2.365348,-2.423771 0.124335,-0.426931 0.265147,-0.859854 0.247171,-1.310754 -0.01498,-4.738187 0.0075,-9.477873 -0.01198,-14.2160606 z"
     inkscape:connector-curvature="0"
     style="fill:#002a4d;stroke:#002a4d;stroke-opacity:1;stroke-width:0.4;stroke-miterlimit:4;stroke-dasharray:none" />
  <path
     id="path3239"
     d="m 63.273526,6.1632293 c 0.58572,0.3055929 1.166945,0.6261658 1.725701,0.9841888 0.200733,0.09737 0.161784,0.353529 0.218709,0.5332896 0.850866,5.1261703 1.6508,10.2598313 2.31891,15.4129663 0.398469,3.268645 0.858357,6.532797 1.139982,9.811928 -0.656126,-0.723536 -1.202898,-1.541446 -1.860522,-2.26648 -0.239681,-0.310087 -0.612684,-0.569242 -0.644142,-0.990181 -0.130326,-1.135488 -0.295107,-2.266481 -0.426931,-3.401968 -0.0015,-0.498835 -0.446405,-0.804428 -0.723536,-1.163949 -0.853862,-1.003663 -1.803597,-1.915948 -2.741348,-2.838719 -0.349035,0.751999 -0.404461,1.599869 -0.609688,2.398305 -0.674102,-0.515313 -1.330227,-1.053097 -2.017811,-1.551932 1.192411,-5.64448 2.375834,-11.293455 3.620676,-16.9274487 m 0.59321,8.3184177 c -0.277131,1.495008 -0.611186,2.981029 -0.963217,4.461057 0.68309,0.624668 1.339216,1.28379 2.062752,1.862019 -0.229195,-2.119676 -0.606692,-4.222874 -0.904795,-6.333562 l -0.19474,0.01049 z"
     inkscape:connector-curvature="0"
     style="fill:#002a4d;stroke:#002a4d;stroke-opacity:1;stroke-width:0.4;stroke-miterlimit:4;stroke-dasharray:none" />
  <path
     id="path3241"
     d="M 2.8635066,10.819027 C 4.4139411,9.536735 6.0183037,8.3203555 7.6855824,7.1953543 8.214378,7.7690899 8.6952373,8.3907617 9.1536267,9.0214215 c 0.046438,0.4059592 0.017976,0.8164123 0.020972,1.2238695 -0.0015,6.991186 0.0015,13.982372 -0.0015,20.973558 0.00899,0.383489 -0.03745,0.774468 0.040446,1.153464 0.6606199,0.933256 1.4665462,1.763151 2.0927122,2.718877 0.03296,1.414116 0.01198,2.831228 0.01049,4.246843 -0.02846,0.02247 -0.08389,0.06891 -0.11235,0.09288 C 10.106357,38.235501 8.9828542,37.059568 7.9117811,35.837196 5.9928376,37.66626 4.2027224,39.624151 2.3646712,41.534107 1.8673337,41.247988 1.3894704,40.933407 0.90112097,40.633806 0.86217286,32.552073 0.90261898,24.468842 0.88164692,16.385611 0.84419681,15.721995 1.1393037,15.112307 1.3175662,14.489137 1.603685,13.507944 1.9287519,12.538736 2.2358428,11.565033 2.309245,11.22199 2.6178339,11.031743 2.8635066,10.819027 m 1.2777977,3.370509 c -0.5872177,0.422438 -0.7115521,1.20889 -0.693576,1.88449 0.010486,6.547777 0.0015,13.095553 0.00449,19.64333 -0.013482,0.185753 0.047936,0.426931 0.2756328,0.426931 0.7609862,-0.799934 1.4905143,-1.632824 2.2799625,-2.408791 0.4179432,-0.373003 0.5902137,-0.942244 0.6201738,-1.487518 0.003,-6.384494 -0.00449,-12.768988 0.003,-19.153483 0.031458,-0.275633 -0.095872,-0.519807 -0.2097206,-0.759488 -0.8313924,0.521306 -1.5174783,1.23885 -2.2799625,1.854529 z"
     inkscape:connector-curvature="0"
     style="fill:#002a4d;stroke:#002a4d;stroke-opacity:1;stroke-width:0.4;stroke-miterlimit:4;stroke-dasharray:none" />
  <path
     id="path3298"
     d="m 29.513003,28.186889 c 5.322409,-2.775802 11.789294,-3.162288 17.433774,-1.153464 1.652299,0.626166 3.268646,1.38865 4.726204,2.393811 -0.399967,0.277131 -0.831393,0.524302 -1.303264,0.654628 -0.199235,-0.04943 -0.365513,-0.170773 -0.539282,-0.271139 -3.575736,-2.242512 -7.822578,-3.354031 -12.03197,-3.279131 -3.388486,0.100366 -6.756,0.985687 -9.747514,2.576567 0.368509,-0.464381 0.966213,-0.633656 1.462052,-0.921272 z"
     inkscape:connector-curvature="0"
     style="fill:#8c002e;stroke:none;stroke-opacity:1" />
  <path
     id="path3243"
     d="m 71.57996,7.3885968 c 1.794609,1.1264992 3.449904,2.4627191 5.087222,3.8064292 0.167777,0.161784 0.411952,0.289115 0.45839,0.539281 0.491345,1.998338 1.021639,3.990684 1.436586,6.006998 0.03745,2.232026 0.02397,4.467048 0.006,6.700573 -0.805926,-0.747504 -1.468044,-1.638817 -2.248505,-2.413285 -0.140812,-0.181259 -0.398469,-0.323569 -0.381991,-0.579728 -0.0045,-1.641813 -0.0015,-3.282127 0.0015,-4.92394 -0.003,-0.543776 -0.118342,-1.086053 -0.307091,-1.595375 -0.841878,-0.786452 -1.724202,-1.536952 -2.630495,-2.248504 -0.118342,0.272637 -0.290613,0.54078 -0.263649,0.849368 0.0045,6.093882 -0.0015,12.186265 0.0015,18.280147 0.06891,0.558756 0.145307,1.207391 0.6007,1.595374 0.811918,0.781959 1.53096,1.661287 2.348871,2.431261 0.314581,-0.248668 0.238182,-0.680093 0.251664,-1.030626 0.006,-1.36618 -0.03595,-2.733858 0.02097,-4.100038 0.792445,0.738516 1.447073,1.610354 2.155629,2.426767 0.21721,0.266644 0.530293,0.528795 0.467377,0.91528 -0.02397,1.796107 0.03296,3.595211 -0.02696,5.38982 -0.429927,0.747504 -0.979695,1.421606 -1.509988,2.098704 -1.773638,-1.923438 -3.590717,-3.807927 -5.430266,-5.665452 -0.567744,-1.730195 -1.050101,-3.502334 -1.506992,-5.268482 -0.04194,-6.53729 0.0015,-13.077577 -0.02097,-19.616366 0.006,-0.241179 -0.01798,-0.495839 0.08988,-0.719042 0.432923,-0.9766987 0.951233,-1.9114534 1.400634,-2.8791642 z"
     inkscape:connector-curvature="0"
     style="fill:#002a4d;stroke:#002a4d;stroke-opacity:1;stroke-width:0.4;stroke-miterlimit:4;stroke-dasharray:none" />
  <path
     id="path3300"
     d="m 54.937132,32.083198 c 4.2783,4.132994 6.738023,10.105537 6.550773,16.057108 -0.003,6.146311 -2.862686,12.186265 -7.500508,16.194924 -1.104029,0.963217 -2.28146,1.882992 -3.608692,2.515149 3.604198,-2.429762 6.549275,-5.882662 8.182099,-9.927274 2.464218,-5.758329 2.221541,-12.583236 -0.588715,-18.173788 -0.900301,-1.871008 -2.118178,-3.574238 -3.500836,-5.117183 0.17227,-0.510819 0.329561,-1.026133 0.465879,-1.548936 z"
     inkscape:connector-curvature="0"
     style="fill:#8c002e;stroke:none;stroke-opacity:1" />
  <path
     id="path3302"
     d="m 38.008185,54.124833 c -0.05992,-0.283123 0.326565,-0.337051 0.524302,-0.364015 0.263649,-0.0045 0.61568,-0.03895 0.78046,0.220207 0.226199,0.365513 0.323569,0.792444 0.479362,1.189415 0.25466,-0.500333 0.257656,-1.39614 0.991678,-1.412618 0.286119,0.01049 0.707058,0.01798 0.810421,0.349035 -0.124335,0.71305 -0.136319,1.692745 -0.936253,1.999836 -0.63815,0.196238 -1.409622,0.212716 -2.001334,-0.134821 -0.533289,-0.441911 -0.566245,-1.210387 -0.648636,-1.847039 z"
     inkscape:connector-curvature="0"
     style="fill:#8c002e;stroke:none;stroke-opacity:1" />
  <path
     id="path3245"
     d="m 26.104648,27.67929 c 4.022142,-2.742846 8.914624,-4.171942 13.778644,-4.08356 4.92394,0.03445 9.81043,1.667279 13.795121,4.555431 1.063584,-0.846372 2.070242,-1.962385 2.221541,-3.372007 0.438915,0.25466 0.714548,0.726532 0.889814,1.190913 0.289115,1.367678 -0.296604,2.729364 -1.039615,3.852867 3.240184,2.949571 5.681931,6.779968 6.92827,10.986364 1.941414,6.441418 1.063583,13.690261 -2.449237,19.439602 -2.100202,3.496342 -5.102202,6.438422 -8.634497,8.47421 2.194577,0.569242 4.559926,1.044109 6.77847,0.322071 1.274802,-0.378995 2.21405,-1.436586 3.499338,-1.790115 0.84787,-0.214215 1.755661,-0.01049 2.488185,0.446405 1.47104,-0.145306 3.048439,0.386485 4.019146,1.524968 -0.856859,-0.110852 -1.736187,-0.09138 -2.569078,0.152797 0.0764,0.295107 0.149801,0.590213 0.226199,0.888316 1.535454,-0.304095 3.115849,0.115347 4.414619,0.948237 1.030627,-0.04045 1.850035,-0.819408 2.518145,-1.53845 0.220206,1.162451 -0.08988,2.521141 -1.111519,3.220709 -0.03146,0.726532 -0.396971,1.360188 -0.789449,1.948903 0.587218,0.127331 1.036619,0.543776 1.375168,1.020141 0.805927,-0.314581 1.36618,-0.999168 1.85453,-1.682258 0.131824,1.192411 -0.124335,2.471707 -0.951233,3.377999 -0.54078,0.497338 -0.686086,1.265814 -1.225368,1.770641 0.127331,0.242677 0.244175,0.49584 0.414948,0.714548 0.807424,-0.205226 1.282291,-0.942244 1.882991,-1.454562 -0.0015,1.315248 -0.521305,2.726368 -1.670275,3.457394 -0.417943,0.227697 -0.581225,0.708556 -0.934754,1.008157 -0.557258,0.524302 -1.324236,0.734022 -2.068744,0.796938 -0.106359,0.170773 -0.211219,0.344541 -0.314581,0.51831 0.650134,0.124334 1.298769,-0.01947 1.933923,-0.160287 -0.455393,0.864349 -1.288283,1.511487 -2.252998,1.691247 -0.795441,0.230693 -1.628331,-0.0749 -2.417779,0.173769 -1.402132,0.197736 -2.997507,0.08838 -4.122508,-0.865847 -1.241846,-0.940746 -2.506161,-2.061254 -4.12101,-2.233524 -1.243343,0.06741 -2.500169,0.420939 -3.743513,0.131824 -2.551101,-0.536285 -5.040784,-1.333224 -7.481033,-2.242512 -2.870176,-1.098037 -5.671444,-2.410289 -8.243518,-4.101536 -2.561587,-1.694243 -5.048274,-3.51282 -7.371679,-5.52464 -0.498835,-0.389481 -0.898802,-0.915281 -1.469542,-1.202897 -3.328566,-1.408124 -6.338056,-3.575737 -8.718385,-6.296112 -3.255163,-3.668613 -5.332895,-8.358864 -5.869181,-13.23337 -0.359521,-3.315084 -0.0764,-6.708064 0.916779,-9.894319 1.156459,-3.800437 3.300103,-7.281799 6.113355,-10.080071 0.479362,-0.471871 1.003663,-0.894308 1.47104,-1.378164 -0.555759,-0.850866 -0.867344,-1.860521 -0.849368,-2.879164 0.02097,-0.723536 0.456891,-1.37367 1.002165,-1.821573 0.08389,1.309256 0.939249,2.396807 1.896473,3.222207 m 3.40796,0.507824 c -0.495839,0.287616 -1.093543,0.456891 -1.462052,0.921272 2.991514,-1.59088 6.359028,-2.476201 9.747514,-2.576567 4.209392,-0.0749 8.456234,1.036619 12.03197,3.279131 0.173769,0.100366 0.340047,0.221705 0.539282,0.271139 0.471871,-0.130326 0.903297,-0.377497 1.303264,-0.654628 C 50.215028,28.4223 48.598681,27.659816 46.946382,27.03365 41.301902,25.024826 34.835017,25.411312 29.512608,28.187114 m -3.383992,2.245508 c 0.248669,2.0268 1.041113,4.118014 2.684424,5.416784 0.811918,-0.396972 1.677765,-0.686086 2.575069,-0.802931 -1.018642,0.762484 -2.095708,1.44857 -3.06192,2.282959 -1.008157,0.865846 -2.031294,1.776633 -2.685922,2.951068 0.581226,0.119841 1.142977,0.316079 1.682259,0.56325 -0.54827,0.323569 -1.096539,0.678596 -1.472538,1.204395 -0.988683,1.32873 -1.439583,2.984025 -1.638817,4.607862 0.474867,-0.40596 0.888316,-0.889815 1.439582,-1.198404 1.139981,-0.740014 2.593045,-0.952731 3.903799,-0.597704 1.857526,0.467378 3.466382,1.559423 4.998841,2.666448 0.325067,-0.57823 0.859854,-1.154961 1.580394,-1.133989 1.125001,0.006 2.089716,0.75799 2.819244,1.550434 -0.92277,-0.456891 -1.987852,-0.723536 -3.006494,-0.444907 -0.280127,0.173768 -0.46588,0.443409 -0.58572,0.746006 0.746006,0.650134 1.495008,1.315248 2.1017,2.098704 -0.731026,-0.492843 -1.420108,-1.048603 -2.18409,-1.490514 0.04644,0.340047 0.0075,0.707058 0.125832,1.032125 0.760986,0.70556 1.489016,1.469542 2.380329,2.016314 0.564747,0.350533 1.240347,0.443409 1.893477,0.471871 -0.05093,-0.732524 -0.537783,-1.303264 -1.062085,-1.767645 -0.729528,-0.642644 -1.442578,-1.369176 -1.749669,-2.315915 0.942245,0.560254 2.095708,0.650134 3.172773,0.63066 0.940747,0.02247 1.90696,-0.118342 2.75483,-0.539282 -0.338549,1.127998 -1.339216,1.835056 -2.148138,2.615516 -0.392477,0.358023 -0.614182,0.850866 -0.707058,1.36618 0.51831,-0.006 1.053097,-0.02996 1.533956,-0.247171 1.030627,-0.440413 1.785622,-1.292778 2.628998,-1.99684 0.378995,-0.263648 0.223203,-0.801432 0.280127,-1.190913 -0.76548,0.443409 -1.450068,1.014149 -2.223039,1.442578 0.695074,-0.72054 1.414116,-1.415614 2.167613,-2.074736 -0.104861,-0.295107 -0.283123,-0.552763 -0.552764,-0.719042 -0.997671,-0.305593 -2.070242,-0.08089 -2.987021,0.367011 0.66811,-0.793942 1.646307,-1.405128 2.697906,-1.502498 0.79544,-0.03745 1.339216,0.594708 1.733191,1.199901 0.976699,-0.799934 2.065748,-1.460554 3.210223,-1.990847 1.211886,-0.53329 2.561588,-0.943743 3.891816,-0.665114 1.301765,0.233688 2.431261,1.056093 3.243179,2.076234 -0.149801,-0.889815 -0.271139,-1.790115 -0.57074,-2.645476 -0.428429,-1.331726 -1.159455,-2.726368 -2.509157,-3.309091 0.51831,-0.310087 1.113017,-0.43592 1.688251,-0.596206 -0.389481,-0.789448 -1.008157,-1.430594 -1.611853,-2.059756 -1.204395,-1.159455 -2.518145,-2.20656 -3.917281,-3.123339 l -0.009,-0.137816 c 0.856858,0.184254 1.692745,0.455393 2.474703,0.856858 1.662785,-1.297272 2.489683,-3.375004 2.774304,-5.410791 -1.282292,0.769974 -2.660456,1.364681 -3.968213,2.08672 -1.280794,0.632157 -2.661954,1.637318 -2.895643,3.144311 -0.139314,0.729528 0.358023,1.324235 0.871839,1.761653 -0.666612,-0.02097 -1.36618,-0.109355 -1.92943,-0.49584 -0.678596,-0.429927 -1.084555,-1.165447 -1.270307,-1.927931 -0.895807,-0.0734 -1.803598,-0.08988 -2.696408,0.02097 -0.537784,0.933256 -0.122836,2.043278 0.03146,3.028964 0.163282,0.790947 0.268143,1.845542 -0.534788,2.333891 0.0734,-0.778962 -0.178262,-1.584888 -0.816412,-2.070242 0.118342,0.828397 -0.197736,1.625335 -0.710054,2.264983 -0.633656,-0.504828 -0.858356,-1.436586 -0.805926,-2.232027 -0.674102,0.461386 -0.871839,1.307758 -0.822405,2.077732 -0.313082,-0.328063 -0.627663,-0.704062 -0.638149,-1.183423 -0.03895,-1.429096 0.903296,-2.907627 0.220206,-4.294778 -0.891312,-0.05842 -1.785621,-0.0779 -2.678431,-0.05093 -0.187251,0.678596 -0.519808,1.346706 -1.095042,1.776633 -0.621671,0.48835 -1.435088,0.632158 -2.208058,0.603696 0.316079,-0.271139 0.689082,-0.521305 0.844874,-0.925766 0.299601,-0.726533 0.01947,-1.550435 -0.423935,-2.154131 -0.579727,-0.771472 -1.36618,-1.394642 -2.235022,-1.806593 -1.303264,-0.768476 -2.684424,-1.400634 -3.99368,-2.160122 m 5.505166,1.517478 c 0.814915,0.828397 1.734689,1.691247 1.933924,2.897141 0.266645,-0.202231 0.567743,-0.371505 0.777464,-0.639648 -0.686086,-0.955727 -1.635821,-1.761653 -2.711388,-2.257493 m 13.93893,2.258991 c 0.257657,0.230692 0.530294,0.447903 0.829895,0.621672 0.175266,-1.19391 1.108523,-2.0268 1.879995,-2.867181 -1.075567,0.500334 -1.972872,1.325734 -2.70989,2.245509 m 9.364025,-2.125668 c -0.136318,0.522803 -0.293609,1.038117 -0.465879,1.548936 1.382658,1.542945 2.600535,3.246175 3.500836,5.117183 2.810256,5.590552 3.052933,12.415459 0.588715,18.173788 -1.632824,4.044612 -4.577901,7.497512 -8.182099,9.927274 1.327232,-0.632157 2.504663,-1.551932 3.608692,-2.515149 C 58.624814,60.326797 61.484504,54.286843 61.4875,48.140532 61.67475,42.188961 59.215027,36.216418 54.936727,32.083424 M 22.376116,51.136539 c 0.09737,2.519644 0.524301,5.037789 1.38116,7.413624 0.901798,2.486687 2.429763,4.690251 4.086555,6.730533 3.485856,4.191416 7.863025,7.534962 12.398982,10.509998 4.401137,2.72487 9.311595,4.564419 14.331407,5.774807 1.532458,0.435919 3.114351,0.01947 4.646809,-0.190247 1.038117,-0.18725 2.103198,-0.152796 3.147307,-0.03745 -0.645639,0.251665 -1.328729,0.389481 -1.989349,0.6007 0.311585,0.23219 0.684588,0.359521 1.011153,0.569241 0.608189,0.362517 1.096539,0.898803 1.731693,1.222372 0.674102,0.335553 1.357191,0.672604 2.08672,0.876332 1.018642,0.284621 2.160122,-0.03895 2.91961,-0.76548 -0.793942,-0.323569 -1.557925,-0.73552 -2.19907,-1.309255 -0.370007,-0.386486 -0.885321,-0.55576 -1.30626,-0.867345 0.606692,0.08988 1.163949,0.355027 1.748171,0.528796 1.181925,0.473369 2.501667,0.793942 3.758493,0.431425 0.66811,-0.175267 1.322737,-0.680094 1.429096,-1.397638 0.110852,-0.521306 -0.149801,-1.035121 -0.482358,-1.41861 -1.054595,0.411951 -2.220042,0.434421 -3.313585,0.169274 -0.564748,-0.16478 -1.126499,-0.370007 -1.587885,-0.744508 -0.536285,-0.440413 -1.276299,-0.338549 -1.888983,-0.597704 0.692078,-0.140812 1.387152,-0.340047 2.100202,-0.322071 0.738516,0.08988 1.393144,0.476366 2.097206,0.696572 0.939249,0.308589 1.969876,0.0015 2.723372,-0.602197 0.441911,-0.381991 0.740014,-1.032125 0.513815,-1.605861 -0.271139,-0.606692 -0.919774,-0.991679 -1.547438,-1.116013 -0.666612,0.399967 -1.423104,0.636652 -2.205063,0.603696 -0.684587,-0.04344 -1.349701,-0.218709 -2.026799,-0.308589 -0.798437,-0.09288 -1.506993,0.349035 -2.226035,0.615679 0.816413,-1.307757 2.480695,-1.520474 3.888819,-1.496506 0.596206,-0.08688 1.240348,0.0045 1.791614,-0.284621 0.630659,-0.304095 0.984188,-1.066579 0.813416,-1.743677 -0.284621,-0.80293 -1.045607,-1.397638 -1.881493,-1.532458 -2.374337,-0.389481 -4.723208,0.331059 -7.028637,0.814914 1.110022,-0.678596 2.336887,-1.135487 3.49784,-1.716713 -0.06292,-0.904794 -0.533289,-1.878497 -1.43359,-2.203564 -0.662118,-0.266645 -1.379662,-0.02846 -1.941413,0.350533 -0.807425,0.479361 -1.544443,1.068077 -2.362353,1.53096 -1.400634,0.825401 -2.996009,1.424603 -4.640817,1.384156 -2.513652,-0.14231 -4.929933,-0.972204 -7.236859,-1.932425 2.465715,0.59321 5.009326,0.686086 7.531965,0.756492 C 48.89229,69.690821 43.632797,66.74125 38.953031,63.312318 38.085687,63.189482 37.215346,63.069642 36.358488,62.880893 35.964513,61.609087 35.479159,60.358254 34.820037,59.198799 34.37513,58.42433 33.834351,57.678324 33.10632,57.148031 c -1.002164,-0.738516 -2.578065,-0.507824 -3.322573,0.492843 -0.826898,1.092045 -0.900301,2.528631 -0.873337,3.845377 -0.636651,-0.805926 -1.36618,-1.542944 -1.909955,-2.419277 -0.820906,-1.2763 -1.35869,-2.718878 -1.680761,-4.198906 -0.257657,0.256159 -0.531791,0.497338 -0.831392,0.704062 -0.584222,-2.137652 -0.72054,-4.365184 -0.801433,-6.568749 -0.181258,0.158789 -0.359521,0.319075 -0.539281,0.48086 0.140812,2.143644 0.542277,4.275304 1.244841,6.306598 0.723536,2.14664 1.956394,4.076069 3.300104,5.881165 3.103865,4.083559 7.114022,7.370181 11.300944,10.285297 4.60187,3.31808 9.952741,5.44225 15.409971,6.886326 0.790946,0.17976 1.581892,0.437417 2.402798,0.405959 1.438085,-0.02547 2.916615,-0.182756 4.317249,0.236685 0.352031,0.09587 0.6756,0.275633 0.948237,0.519807 -2.318911,-0.235186 -4.610858,0.903297 -6.916286,0.322071 -3.767481,-0.9003 -7.449576,-2.185588 -10.938428,-3.872341 -2.107692,-1.009655 -4.071575,-2.284456 -5.977037,-3.631162 -2.546607,-1.8021 -5.010824,-3.736023 -7.232365,-5.932097 -2.425269,-2.378831 -4.595877,-5.067749 -6.120845,-8.116188 -1.23885,-2.673937 -1.829063,-5.61452 -1.98935,-8.546114 -0.0779,-1.908458 0.218709,-3.803433 0.465879,-5.687923 -0.76548,2.104697 -1.065081,4.360691 -0.987184,6.594215 m 3.02447,-4.449072 c -0.581225,0.381991 -0.368509,1.168443 -0.447903,1.755661 0.358023,-0.275633 0.612684,-0.654628 0.963217,-0.937751 0.957225,-0.783456 2.275468,-1.166945 3.491848,-0.859854 1.760155,0.396971 3.298605,1.384155 4.802602,2.336886 0.02846,-0.280127 0.05692,-0.557257 0.08389,-0.835886 -1.626833,-0.987185 -3.267148,-2.110688 -5.190585,-2.401301 -1.289782,-0.218709 -2.70989,0.05393 -3.703067,0.942245 m 20.2665,1.40363 c -0.446405,0.169274 -0.193242,0.69807 -0.223202,1.056093 1.154961,-0.810421 2.401301,-1.499503 3.724039,-1.995342 0.999168,-0.367011 2.119676,-0.597704 3.151801,-0.218709 1.00516,0.283123 1.769143,1.030627 2.399802,1.827566 0.04045,-0.494342 -0.003,-0.987185 -0.06142,-1.477033 -0.867344,-1.002165 -2.227532,-1.49351 -3.536788,-1.394642 -2.010322,0.107857 -3.773473,1.195408 -5.454234,2.202067 M 27.550222,47.779512 c -1.196905,0.542277 -2.218544,1.526466 -2.702399,2.759324 -0.178263,0.659122 0.101864,1.300267 0.17976,1.950401 0.03146,0.239681 0.119841,0.467378 0.218709,0.689082 0.277131,-0.349035 0.572237,-0.69807 0.975201,-0.90779 -0.04494,2.032791 0.584221,4.065583 1.761653,5.723874 0.420939,-0.960221 0.933256,-1.97437 1.903963,-2.483691 0.928763,-0.551266 2.058258,-0.416445 3.051435,-0.14231 -0.627664,-0.843377 -1.730195,-1.316746 -2.774304,-1.122006 -0.925767,0.116845 -1.665781,0.719042 -2.398305,1.237352 l -0.09887,-0.03296 c -0.232191,-0.620174 -0.395473,-1.2763 -0.422437,-1.938418 1.474036,-0.87783 3.472374,-1.385654 5.046776,-0.449401 -0.286119,-0.435919 -0.656126,-0.804428 -0.961719,-1.22387 0.543776,0.298103 1.026133,0.696572 1.484523,1.113018 2.467213,2.261986 3.944245,5.421277 4.646809,8.655468 0.56325,0.03595 1.123503,0.116845 1.686753,0.164781 0.955727,0.0779 1.908457,-0.05692 2.858192,-0.143808 0.320573,-1.288284 0.722038,-2.561588 1.292778,-3.764485 1.107025,-2.336887 2.742846,-4.538953 4.994346,-5.873675 -0.308589,0.435919 -0.693576,0.808922 -1.036619,1.217877 1.608857,-0.9003 3.574238,-0.396971 5.075239,0.483856 0.04794,0.71305 -0.250167,1.414116 -0.46588,2.089716 -0.87034,-0.753496 -1.921939,-1.492013 -3.129331,-1.412618 -0.835886,0.02996 -1.587884,0.492843 -2.125668,1.111519 0.847871,-0.179761 1.754163,-0.347537 2.59005,-0.02397 1.172937,0.441911 1.959389,1.566912 2.279962,2.744344 1.304762,-1.590881 1.92194,-3.685091 1.920442,-5.725373 0.384987,0.259155 0.69807,0.602198 1.000667,0.951233 0.158788,-0.513816 0.26964,-1.041113 0.335553,-1.574403 0.101864,-0.272636 0.09737,-0.569241 0.0719,-0.853862 0.02696,-0.313083 -0.181259,-0.591712 -0.313083,-0.86285 -0.756492,-1.271806 -2.04927,-2.285955 -3.538286,-2.495676 -1.277798,-0.175266 -2.512154,0.338549 -3.632661,0.891313 -0.650134,0.346039 -1.315248,0.68309 -1.899469,1.135487 -0.140813,0.341545 -0.235187,0.701066 -0.343043,1.053097 -0.642644,2.106194 -1.46355,4.153966 -2.278465,6.198742 -0.381991,0.85536 -0.635154,1.923438 -1.55343,2.368345 -0.763982,0.271139 -1.602865,0.17227 -2.398305,0.128828 -0.747504,-0.03445 -1.32873,-0.633656 -1.601367,-1.289782 -0.981193,-2.312918 -1.766147,-4.706729 -2.602033,-7.07058 -0.121339,-0.495839 -0.215713,-1.002165 -0.390979,-1.481526 -1.044109,-0.75799 -2.185589,-1.39614 -3.398972,-1.842545 -1.054595,-0.395474 -2.275469,-0.43592 -3.309092,0.04794 m 8.808266,3.938253 c 0.05692,1.089049 0.173768,2.302433 0.960221,3.133825 0.11235,-0.707058 0.257656,-1.4261 0.641145,-2.04178 -0.579727,-0.293609 -1.090547,-0.695074 -1.601366,-1.092045 m 5.308927,1.111519 c 0.332557,0.641146 0.516811,1.346706 0.573736,2.06425 0.858356,-0.807424 0.927264,-2.073238 1.062085,-3.169777 -0.48835,0.446405 -1.041113,0.814914 -1.635821,1.105527 m -3.659625,1.295774 c 0.08239,0.636652 0.115347,1.405128 0.648636,1.847039 0.591712,0.347537 1.363184,0.331059 2.001334,0.134821 0.799934,-0.307091 0.811918,-1.286786 0.936253,-1.999836 -0.103363,-0.331059 -0.524302,-0.338549 -0.810421,-0.349035 -0.734022,0.01648 -0.737018,0.912285 -0.991678,1.412618 -0.155793,-0.396971 -0.253163,-0.823902 -0.479362,-1.189415 -0.16478,-0.259155 -0.516811,-0.224701 -0.78046,-0.220207 -0.197737,0.02696 -0.584222,0.08089 -0.524302,0.364015 m -0.405959,3.623672 c 0.157291,0.564748 0.825401,0.716046 1.33622,0.746007 -0.453895,-0.612684 -0.594708,-1.372172 -0.644142,-2.116681 -0.331059,0.39098 -0.666612,0.838883 -0.692078,1.370674 m 3.665617,-1.391646 c -0.07041,0.749003 -0.191745,1.532459 -0.678596,2.136155 0.510819,-0.003 1.119009,-0.149801 1.340714,-0.66811 0.003,-0.554262 -0.375999,-1.021639 -0.662118,-1.468045 z"
     inkscape:connector-curvature="0"
     style="fill:#002a4d;stroke:#002a4d;stroke-width:0.08;stroke-miterlimit:4;stroke-opacity:1;stroke-dasharray:none" />
  <g
     id="#ffffffff"
     transform="translate(0,-488.87931)" />
  <g
     id="#f4e7c8ff"
     transform="translate(0,-488.87931)" />
  <path
     id="path3247"
     d="m 45.129698,42.148289 c 1.265814,-0.778963 3.075403,-1.220874 4.31575,-0.163283 -0.310087,-0.009 -0.617177,-0.02247 -0.925766,-0.03895 -0.179761,-0.009 -0.359521,-0.01798 -0.537784,-0.02696 0.121338,1.083057 -0.04794,2.252998 -0.778962,3.103865 -1.066579,-0.241179 -2.217046,-0.293609 -3.238685,0.155792 -0.569242,0.221705 -1.057591,0.596206 -1.539949,0.961719 0.01049,-0.173768 0.02996,-0.524301 0.04045,-0.69807 -0.423935,-0.02846 -0.904794,-0.167776 -1.075567,-0.602198 -0.266645,-0.726532 -0.06591,-1.535454 0.212717,-2.22903 -0.06891,0.518309 -0.03445,1.048603 0.13482,1.54594 0.139315,0.290613 0.489848,0.521306 0.798436,0.310087 1.032125,-0.572237 1.556427,-1.748171 2.594544,-2.31891 m 0.820906,0.274134 c 0.04494,0.656126 0.121339,1.316746 -0.0045,1.971374 0.304095,-0.02996 0.648636,0.07939 0.931759,-0.05992 0.476365,-0.602198 0.450899,-1.409622 0.399967,-2.133158 -0.452397,-0.02547 -0.922771,-0.0015 -1.327232,0.221704 m -1.578896,1.26132 c -0.172271,0.191745 -0.350533,0.381991 -0.483856,0.605194 -0.181258,-0.0749 -0.390979,0.110852 -0.438915,0.281625 -0.08838,0.173768 0.196239,0.408955 0.284621,0.182756 0.317577,-0.08688 0.636652,-0.167776 0.963217,-0.214215 l 0.03296,-0.03595 c 0.08089,-0.01049 0.241178,-0.03146 0.322071,-0.04194 0.03296,-0.146804 0.06741,-0.293609 0.10486,-0.437417 0.480859,-0.241179 0.220207,-0.831392 -0.200733,-0.964715 -0.200732,0.203729 -0.392477,0.413449 -0.584221,0.624668 z"
     inkscape:connector-curvature="0"
     style="fill:#002a4d;stroke:#002a4d;stroke-opacity:1;stroke-width:0.4;stroke-miterlimit:4;stroke-dasharray:none" />
  <g
     id="#c19a00ff"
     transform="matrix(0.14980043,0,0,0.14980043,0.33637335,0.49927504)">
    <path
       style="fill:#c19a00"
       inkscape:connector-curvature="0"
       d="M 253.29,0 275,0 c -0.01,38.18 -0.02,76.36 0,114.54 -6.86,-0.45 -13.75,-0.11 -20.61,-0.48 -3.79,-12.93 -8.14,-25.68 -12.06,-38.58 -0.79,13.06 -0.04,26.16 -0.4,39.24 -7.22,0.69 -14.42,1.59 -21.66,2.11 0.07,-38.42 -0.03,-76.84 0.05,-115.26 6.67,-0.23 13.33,-0.83 19.99,-1.31 4.52,11.04 7.96,22.52 12.74,33.45 0.54,-11.23 0.1,-22.48 0.24,-33.71 m 3.88,3.8 c 0.08,16.07 -0.03,32.15 0.06,48.22 0.01,1.69 -0.25,3.37 -0.55,5.03 -5.76,-17.74 -12.34,-35.19 -18.74,-52.7 -4.59,0.02 -9.16,0.5 -13.73,0.93 -0.01,35.84 -0.04,71.68 0.02,107.52 4.42,-0.7 8.9,-0.96 13.35,-1.44 1.28,-1.1 0.6,-2.97 0.79,-4.41 -0.03,-18.66 -0.13,-37.33 0.04,-55.98 6.6,19.81 12.67,39.79 19.02,59.68 4.65,-0.16 9.31,0.12 13.95,-0.23 -0.15,-35.57 0.04,-71.15 -0.09,-106.72 -4.71,-0.02 -9.42,-0.14 -14.12,0.1 z"
       id="path3168" />
    <path
       style="fill:#c19a00"
       inkscape:connector-curvature="0"
       d="m 282.78,1.13 c 7.22,-1.25 14.42,0.68 21.66,0.86 0.12,38.45 0.06,76.9 0.03,115.34 -7.25,-0.68 -14.45,-1.76 -21.7,-2.42 -0.02,-37.93 -0.04,-75.85 0.01,-113.78 m 3.63,3.24 c -0.01,35.71 0.02,71.43 -0.01,107.14 4.82,0.38 9.6,1.08 14.42,1.54 C 300.77,77.18 300.85,41.31 300.78,5.43 295.98,5.2 291.2,4.74 286.41,4.37 z"
       id="path3170" />
    <path
       style="fill:#c19a00"
       inkscape:connector-curvature="0"
       d="m 192.27,5.25 c 7.2,-1.12 14.45,-1.91 21.66,-3.06 0.15,38.58 0.02,77.16 0.06,115.74 -6.74,1.41 -13.48,2.81 -20.22,4.2 -4.15,-12.73 -8.59,-25.39 -12.39,-38.23 -1,13.95 0.11,27.99 -0.59,41.97 -7.15,2.51 -14.28,5.06 -21.39,7.71 -0.28,-40.49 0.01,-80.99 -0.14,-121.48 6.58,-1.56 13.16,-3.14 19.79,-4.43 3.73,10 7.81,19.87 11.35,29.93 0.47,1.17 1.04,2.3 1.7,3.38 0.42,-11.9 0.1,-23.82 0.17,-35.73 m 3.86,3.14 c -0.51,18.47 0.38,36.98 -0.47,55.43 -5.6,-17.5 -12.45,-34.58 -18.98,-51.75 -4.6,0.81 -9.14,1.88 -13.67,2.98 -0.04,37.68 -0.03,75.37 -0.01,113.05 4.61,-1.5 9.07,-3.44 13.76,-4.66 0.8,-21.15 -0.41,-42.38 0.62,-63.51 6.08,19.27 12.72,38.37 18.7,57.67 4.76,-0.74 9.44,-1.91 14.18,-2.73 0.13,-36.09 0.08,-72.17 0.03,-108.26 -4.73,0.52 -9.44,1.22 -14.16,1.78 z"
       id="path3172" />
    <path
       style="fill:#c19a00"
       inkscape:connector-curvature="0"
       d="m 311,2.72 c 14.72,1.89 29.33,4.64 43.86,7.64 2.74,6.53 5.55,13.02 8.31,19.54 1.18,2.54 0.78,5.41 0.85,8.13 -0.15,11.35 0.2,22.71 -0.16,34.05 -2.79,6.74 -6.71,12.96 -9.66,19.63 -7.08,-2.2 -14.19,-4.33 -21.31,-6.4 -0.51,12.85 0.12,25.72 -0.32,38.57 -7.11,-1.92 -14.31,-3.47 -21.47,-5.17 C 310.87,80.05 311.07,41.38 311,2.72 m 4.05,4.34 c -0.11,36.22 -0.1,72.45 0,108.68 4.67,0.94 9.3,2.08 13.9,3.32 0.1,-12.85 0.03,-25.69 0.05,-38.53 7.97,1.63 15.58,4.68 23.53,6.38 2.18,-5.48 5.54,-10.43 7.69,-15.9 0.29,-10.65 0,-21.31 0.13,-31.96 -0.04,-2.8 0.31,-5.75 -0.91,-8.37 C 357.09,25 354.62,19.37 352.23,13.71 339.91,11.1 327.51,8.88 315.05,7.06 z"
       id="path3174" />
    <path
       style="fill:#c19a00"
       inkscape:connector-curvature="0"
       d="m 367.78,13.79 c 7.31,2.09 14.43,4.78 21.7,7 0.02,43.39 -0.07,86.77 0.05,130.16 -7.11,-4.37 -14.37,-8.57 -21.42,-12.95 -0.39,-41.4 0.24,-82.81 -0.33,-124.21 m 4.01,5.19 c -0.29,37.33 0,74.67 -0.15,112 0.02,1.67 -0.11,3.38 0.26,5.03 4.64,2.69 9.28,5.38 13.87,8.14 0.04,-40.22 0.07,-80.44 -0.01,-120.66 -4.7,-1.39 -9.29,-3.08 -13.97,-4.51 z"
       id="path3176" />
    <path
       style="fill:#c19a00"
       inkscape:connector-curvature="0"
       d="m 130.87,22.01 c 6.9,-3.23 14.43,-5.42 21.67,-7.96 -0.22,41.93 0.24,83.88 -0.23,125.82 -7.54,3.89 -14.29,9.07 -21.43,13.62 -0.22,-43.83 -0.19,-87.67 -0.01,-131.48 m 3.87,2.16 c -0.11,40.66 -0.14,81.34 0.02,122 4.7,-2.78 9.08,-6.09 13.92,-8.64 0.28,-10.85 0.05,-21.7 0.12,-32.55 -0.13,-28.58 0.27,-57.19 -0.2,-85.76 -4.58,1.75 -9.23,3.31 -13.86,4.95 z"
       id="path3178" />
    <path
       style="fill:#c19a00"
       inkscape:connector-curvature="0"
       d="m 417.39,31.89 c 5.93,3.27 11.78,6.68 17.61,10.1 1.4,0.64 1.25,2.35 1.58,3.6 9.87,60.32 18.15,120.92 24.5,181.71 -7.73,-9.09 -14.88,-18.71 -23.05,-27.43 -1.02,-1.14 -2.23,-2.31 -2.33,-3.93 -1.08,-8.3 -1.86,-16.65 -3.12,-24.92 -5.3,-6.6 -11.03,-12.99 -17.35,-18.64 -1.21,5.31 -2.41,10.63 -3.61,15.94 -3.95,-2.99 -7.34,-6.66 -11.36,-9.58 -2.82,-2.21 -5.87,-4.16 -8.43,-6.68 8.24,-40.11 17.3,-80.06 25.56,-120.17 m 2.75,5.92 c -8.31,37.61 -16.21,75.32 -24.17,113 4.59,3.33 8.97,6.92 13.47,10.36 1.37,-5.33 1.74,-10.99 4.07,-16.01 6.26,6.16 12.6,12.25 18.3,18.95 1.85,2.4 4.82,4.44 4.83,7.77 0.88,7.58 1.98,15.13 2.85,22.71 0.21,2.81 2.7,4.54 4.3,6.61 4.39,4.84 8.04,10.3 12.42,15.13 -1.88,-21.89 -4.95,-43.68 -7.61,-65.5 -4.46,-34.4 -9.8,-68.67 -15.48,-102.89 -0.38,-1.2 -0.12,-2.91 -1.46,-3.56 -3.73,-2.39 -7.61,-4.53 -11.52,-6.57 z"
       id="path3180" />
    <path
       style="fill:#c19a00"
       inkscape:connector-curvature="0"
       d="m 329.02,32.72 c 5.18,1.19 10.62,1.66 15.57,3.66 1,1.71 1.49,3.69 1.42,5.68 -0.05,4.34 0.11,8.69 -0.07,13.03 -0.23,1.2 -0.34,3.08 -1.76,3.47 -5.07,-1.01 -10.04,-2.49 -15.12,-3.47 -0.12,-7.45 -0.06,-14.91 -0.04,-22.37 m 3.68,4.68 c 0.04,4.91 -0.07,9.82 0.09,14.73 3.16,0.69 6.31,1.45 9.47,2.18 -0.05,-4.77 0.22,-9.54 -0.09,-14.3 -2.59,-1.97 -6.38,-1.67 -9.47,-2.61 z"
       id="path3182" />
    <path
       style="fill:#c19a00"
       inkscape:connector-curvature="0"
       d="m 11.51,68.46 c 12.23,-10.4 25.1,-20.02 38.44,-28.95 3.96,4.89 7.92,9.78 11.78,14.74 1.52,1.56 1.28,3.8 1.31,5.79 -0.14,48.98 0.03,97.95 -0.09,146.92 0.15,2 -0.4,4.36 1.1,5.98 4.29,5.4 8.64,10.75 12.93,16.15 -0.01,13.65 0.12,27.31 -0.07,40.96 C 67.9,260.61 59.23,250.85 50.24,241.38 38.02,253.65 26.01,266.14 14.2,278.81 9.48,275.84 4.75,272.9 0,269.99 L 0,101.47 c 3.19,-9.69 6.24,-19.43 9.23,-29.18 0.44,-1.44 1.02,-2.91 2.28,-3.83 m 5.36,0.43 c -1.64,1.42 -3.7,2.69 -4.19,4.98 -2.05,6.5 -4.22,12.97 -6.13,19.52 -1.19,4.16 -3.16,8.23 -2.91,12.66 0.14,53.96 -0.13,107.92 0.13,161.87 3.26,2 6.45,4.1 9.77,6.01 12.27,-12.75 24.22,-25.82 37.03,-38.03 7.15,8.16 14.65,16.01 21.98,23.99 0.19,-0.16 0.56,-0.47 0.75,-0.62 0.01,-9.45 0.15,-18.91 -0.07,-28.35 -4.18,-6.38 -9.56,-11.92 -13.97,-18.15 -0.52,-2.53 -0.21,-5.14 -0.27,-7.7 C 59.01,158.4 58.99,111.73 59,65.06 58.98,62.34 59.17,59.6 58.86,56.89 55.8,52.68 52.59,48.53 49.06,44.7 37.93,52.21 27.22,60.33 16.87,68.89 z"
       id="path3184" />
    <path
       style="fill:#c19a00"
       inkscape:connector-curvature="0"
       d="m 465.36,58.32 c 3.16,-5.95 5.71,-12.21 9.07,-18.06 14.26,9.67 28.03,20.05 41.14,31.23 2.9,11.48 5.63,23 8.49,34.49 0.81,3.63 2.05,7.23 1.96,11 -0.1,17.75 0.08,35.49 -0.09,53.23 -8.26,-9.19 -16.18,-18.69 -24.88,-27.47 -0.13,-12.25 0.04,-24.5 -0.07,-36.75 -0.43,-3.28 -0.64,-7.23 -3.54,-9.38 -3.44,-2.97 -6.86,-5.96 -10.43,-8.78 -0.05,39.74 0.02,79.48 -0.03,119.22 0.14,3.67 0.65,7.81 3.52,10.43 3.49,3.58 6.83,7.32 10.46,10.77 0.13,-12.32 -0.05,-24.63 0.09,-36.94 8.56,9.33 16.75,18.99 24.92,28.66 0.07,13.01 -0.01,26.02 0.05,39.04 0.1,1.42 -0.24,2.82 -1.12,3.97 -3.95,5.76 -8.1,11.41 -12.58,16.79 -12.49,-13.53 -25.08,-26.97 -38.27,-39.83 -1.37,-1.17 -2.21,-2.76 -2.59,-4.5 -3.1,-11.52 -6.69,-22.91 -9.59,-34.48 -0.28,-44 0,-88.02 -0.14,-132.02 -0.38,-3.93 2.07,-7.22 3.63,-10.62 m 10.23,-12.33 c -3,6.46 -6.46,12.7 -9.35,19.22 -0.72,1.49 -0.56,3.19 -0.6,4.8 0.15,43.65 -0.14,87.31 0.14,130.95 3.05,11.79 6.27,23.62 10.06,35.17 12.28,12.4 24.41,24.98 36.25,37.82 3.54,-4.52 7.21,-9.02 10.08,-14.01 0.4,-11.98 0.02,-23.99 0.18,-35.98 0.42,-2.58 -1.67,-4.33 -3.12,-6.11 -4.73,-5.45 -9.1,-11.27 -14.39,-16.2 -0.38,9.12 -0.1,18.25 -0.14,27.37 -0.09,2.34 0.42,5.22 -1.68,6.88 -5.46,-5.14 -10.26,-11.01 -15.68,-16.23 -3.04,-2.59 -3.55,-6.92 -4.01,-10.65 -0.02,-40.68 0.02,-81.35 -0.01,-122.03 -0.18,-2.06 0.97,-3.85 1.76,-5.67 6.05,4.75 11.94,9.76 17.56,15.01 1.26,3.4 2.03,7.02 2.05,10.65 -0.02,10.96 -0.04,21.91 -0.01,32.87 -0.11,1.71 1.61,2.66 2.55,3.87 5.21,5.17 9.63,11.12 15.01,16.11 0.12,-14.91 0.21,-29.83 -0.04,-44.73 -2.77,-13.46 -6.31,-26.76 -9.59,-40.1 -0.31,-1.67 -1.94,-2.52 -3.06,-3.6 -10.93,-8.97 -21.98,-17.89 -33.96,-25.41 z"
       id="path3186" />
    <path
       style="fill:#c19a00"
       inkscape:connector-curvature="0"
       d="m 25.4,91.39 c 5.09,-4.11 9.67,-8.9 15.22,-12.38 0.76,1.6 1.61,3.23 1.4,5.07 -0.05,42.62 0,85.24 -0.02,127.86 -0.2,3.64 -1.35,7.44 -4.14,9.93 -5.27,5.18 -10.14,10.74 -15.22,16.08 -1.52,0 -1.93,-1.61 -1.84,-2.85 -0.02,-43.71 0.04,-87.42 -0.03,-131.13 -0.12,-4.51 0.71,-9.76 4.63,-12.58 m 2.06,3.21 c -2.15,1.75 -2.81,4.7 -2.96,7.36 -0.02,42.71 0.03,85.43 -0.03,128.15 3.8,-3.04 6.77,-6.93 10.22,-10.33 2.67,-2.46 3.79,-6.22 3.63,-9.77 -0.15,-41.43 0.16,-82.86 -0.16,-124.29 -3.74,2.74 -7.16,5.89 -10.7,8.88 z"
       id="path3188" />
    <path
       style="fill:#c19a00"
       inkscape:connector-curvature="0"
       d="m 424.1,93.34 1.3,-0.07 c 1.99,14.09 4.51,28.13 6.04,42.28 -4.83,-3.86 -9.21,-8.26 -13.77,-12.43 2.35,-9.88 4.58,-19.8 6.43,-29.78 m -2.22,28.78 c 1.43,1.22 2.87,2.42 4.39,3.55 -0.58,-4.6 -1.35,-9.17 -1.92,-13.76 -1.2,3.3 -1.69,6.79 -2.47,10.21 z"
       id="path3190" />
    <path
       style="fill:#c19a00"
       inkscape:connector-curvature="0"
       d="m 258.15,123.11 c 1.52,-4.16 6.27,-3.72 9.83,-3.14 2.8,2.12 2.86,5.6 2.51,8.79 -1.57,-0.09 -3.15,-0.19 -4.72,-0.29 0,-0.83 -0.02,-2.49 -0.03,-3.32 -0.73,-0.05 -2.17,-0.16 -2.9,-0.22 -0.19,4.08 -0.52,8.16 -0.18,12.24 2.45,0.45 3.52,-1.13 3.31,-3.38 1.5,-0.01 2.99,-0.01 4.5,-0.01 0.41,3.12 -0.04,7.03 -3.28,8.42 -2.28,0.03 -4.77,0.47 -6.92,-0.36 -1.24,-1.33 -2.66,-2.9 -2.53,-4.84 0.03,-4.63 0.19,-9.27 0.41,-13.89 z"
       id="path3192" />
    <path
       style="fill:#c19a00"
       inkscape:connector-curvature="0"
       d="m 232.72,122.29 c 3.12,-0.44 6.22,-1.14 9.39,-1.28 4.64,2.88 1.61,8.65 2.32,12.97 0.54,3.42 -0.01,7.34 -3.23,9.26 -2.94,0.7 -5.97,0.98 -8.93,1.6 0.17,-7.52 0.14,-15.04 0.45,-22.55 m 4.53,3.83 c -0.02,0.72 -0.06,2.17 -0.07,2.89 0.62,-0.09 1.86,-0.25 2.48,-0.34 0.03,-0.64 0.1,-1.92 0.13,-2.56 -0.63,0 -1.91,0.01 -2.54,0.01 m 0.07,8.12 c -0.07,1.33 -0.14,2.67 -0.19,4.01 2.39,0.06 2.9,-2.04 2.72,-3.99 -0.63,-0.01 -1.9,-0.02 -2.53,-0.02 z"
       id="path3194" />
    <path
       style="fill:#c19a00"
       inkscape:connector-curvature="0"
       d="m 288.86,120.92 c 1.47,0.17 2.94,0.34 4.42,0.51 1.53,8.06 4.1,15.88 5.56,23.95 -1.67,-0.5 -3.32,-1.01 -4.97,-1.53 -0.46,-2.18 -0.92,-4.36 -1.34,-6.54 -1.29,-0.35 -2.57,-0.69 -3.85,-1.03 -0.84,2.16 -1.54,4.37 -2.08,6.62 -1.74,-0.06 -3.47,-0.16 -5.2,-0.3 2.31,-7.28 5.13,-14.4 7.46,-21.68 m 1.38,8.55 c -0.84,1.28 -0.62,2.07 0.66,2.35 0.82,-1.27 0.6,-2.05 -0.66,-2.35 z"
       id="path3196" />
    <path
       style="fill:#c19a00"
       inkscape:connector-curvature="0"
       d="m 208.34,126.54 c 2.48,-1.14 5.34,-1.27 7.95,-2.1 1.16,1.37 3.32,2.46 2.95,4.58 -0.23,4.32 -0.26,8.64 -0.24,12.96 0.09,2.32 -1.6,4.29 -3.19,5.8 -2.47,1.05 -5.13,1.59 -7.69,2.37 -1.3,-1.49 -3.04,-3 -2.63,-5.2 0.48,-6.13 -1.65,-13.32 2.85,-18.41 m 2.67,4.57 c -0.68,4.12 -0.48,8.34 -0.48,12.5 0.84,-0.17 2.51,-0.52 3.34,-0.69 0.2,-4.2 0.12,-8.4 0.13,-12.6 -0.75,0.2 -2.24,0.59 -2.99,0.79 z"
       id="path3198" />
    <path
       style="fill:#c19a00"
       inkscape:connector-curvature="0"
       d="m 310.3,125.09 c 4.81,1.34 9.62,2.7 14.43,4.06 -0.02,2.64 -0.01,5.28 0.02,7.92 -1.83,-0.54 -3.91,-1.09 -4.48,-3.2 -0.36,5.71 -0.71,11.43 -0.49,17.15 -1.66,-0.6 -3.45,-0.96 -4.93,-1.94 -0.33,-5.64 0.41,-11.29 0.14,-16.94 -0.48,0.25 -1.42,0.73 -1.9,0.97 -1.03,-0.42 -2.07,-0.84 -3.1,-1.26 0.11,-2.25 0.23,-4.5 0.31,-6.76 z"
       id="path3200" />
    <path
       style="fill:#c19a00"
       inkscape:connector-curvature="0"
       d="m 179.56,136.89 c 3.43,-1.47 6.85,-2.94 10.3,-4.37 1.31,1.26 3.53,2.26 2.83,4.5 -0.74,4.97 0.03,9.98 -0.32,14.96 -1.82,5.88 -8.37,7.25 -13.12,9.94 0.2,-8.34 -0.24,-16.7 0.31,-25.03 m 4.81,4.23 c 0.01,0.72 0.02,2.15 0.02,2.87 2.24,-0.03 3.05,-2.01 3.52,-3.88 -1.24,0.1 -2.42,0.49 -3.54,1.01 m 0.06,8.98 c 0,1.3 -0.01,2.59 -0.02,3.89 2.55,0.01 3.27,-2.55 2.97,-4.66 -1.08,-0.3 -2.02,0.38 -2.95,0.77 z"
       id="path3202" />
    <path
       style="fill:#c19a00"
       inkscape:connector-curvature="0"
       d="m 336.4,137.01 c 0.73,-0.99 1.67,-1.8 2.53,-2.68 3.32,1.77 8.01,2.18 9.68,6.03 1.44,1.93 1.04,4.43 1.27,6.68 -1.8,-0.77 -4.74,-0.55 -5.14,-3 -0.33,-1.74 -2.06,-2.3 -3.44,-2.99 -0.07,1.9 -0.32,4.16 2.07,4.56 6.97,1.95 8.87,12.29 3.54,16.86 -2.72,-1.39 -5.69,-2.4 -8.11,-4.28 -2,-2.67 -3.36,-5.87 -2.58,-9.24 1.61,0.7 3.22,1.43 4.83,2.15 0.2,1.1 0.4,2.2 0.62,3.3 1.11,0.17 2.22,0.34 3.34,0.51 0.31,-3.48 -3.21,-4.09 -5.55,-5.44 -3.39,-3.15 -3.62,-8.14 -3.06,-12.46 z"
       id="path3204" />
    <path
       style="fill:#c19a00"
       inkscape:connector-curvature="0"
       d="m 147.73,168.56 c 2.56,-8.41 8.94,-15.31 16.4,-19.75 -0.24,4.14 -0.52,8.37 0.55,12.42 1.23,5.14 4.37,9.55 7.94,13.34 41.36,-26.63 94.76,-33.14 141.38,-17.56 14.9,4.73 28.78,12.15 41.85,20.62 3.88,-3.9 7.58,-8.24 9.3,-13.57 1.56,-4.22 1.5,-8.78 1.1,-13.2 6.8,3.96 13.35,9.52 15.54,17.39 2.72,9.12 -0.55,18.63 -4.89,26.67 30,28.6 48.67,68.71 51.15,110.09 1.69,25.89 -2.91,52.14 -13.09,75.99 -12.22,28.83 -32.82,53.83 -58.41,71.81 8.61,2.2 17.82,2.4 26.47,0.32 10.64,-2.26 18.08,-11.9 29.02,-13.32 5.86,-1.2 11.47,1.17 16.88,3.03 6.96,0.29 14.03,1.37 20.14,4.95 8.35,4.25 13.29,12.5 19.78,18.9 8.14,-2.58 13.57,-9.62 17.17,-17.01 4.42,10.23 6.1,23.05 -0.59,32.7 -2.77,3.29 -4.11,7.45 -5.06,11.58 0.55,0.7 1.13,1.38 1.75,2.04 6.34,-4.4 10.34,-11.07 14.67,-17.26 2.41,8.23 2.59,17.03 0.76,25.39 -0.75,2.57 -0.07,5.19 0.52,7.72 2.63,11.1 0.99,23.79 -6.54,32.7 -1.88,2.44 -4.84,3.79 -6.67,6.21 -1.97,4.54 -3.77,9.27 -7.03,13.08 -6.06,7.78 -16.06,11.97 -25.83,11.62 -3.11,-0.14 -6.23,-0.02 -9.29,0.54 l -15.35,0 c -4.71,-0.83 -9.67,-1.75 -13.52,-4.81 -8,-5.85 -15.55,-13.46 -25.77,-15.05 -5.08,0 -10.06,1.37 -15.14,1.48 -8.9,0.62 -17.47,-2.29 -25.99,-4.38 -36.06,-10.01 -71.36,-24.39 -101.92,-46.27 -15.84,-10.95 -31.21,-22.65 -45.43,-35.65 -1.55,-1.46 -3.43,-2.48 -5.38,-3.3 -22.27,-9.81 -42.34,-24.6 -58.25,-43.03 -23.65,-27.08 -38.19,-62.01 -40.44,-97.92 -2.04,-28.89 3.53,-58.34 16.3,-84.35 9.51,-19.93 23.28,-37.7 39.7,-52.41 -3.32,-6.65 -5.18,-14.35 -3.78,-21.75 m 24.29,12.88 c -6.39,-5.51 -12.1,-12.77 -12.66,-21.51 -3.64,2.99 -6.55,7.33 -6.69,12.16 -0.12,6.8 1.96,13.54 5.67,19.22 -3.12,3.23 -6.62,6.05 -9.82,9.2 -18.78,18.68 -33.09,41.92 -40.81,67.29 -6.63,21.27 -8.52,43.92 -6.12,66.05 3.58,32.54 17.45,63.85 39.18,88.34 15.89,18.16 35.98,32.63 58.2,42.03 3.81,1.92 6.48,5.43 9.81,8.03 15.51,13.43 32.11,25.57 49.21,36.88 17.17,11.29 35.87,20.05 55.03,27.38 16.29,6.07 32.91,11.39 49.94,14.97 8.3,1.93 16.69,-0.43 24.99,-0.88 10.78,1.15 19.22,8.63 27.51,14.91 7.51,6.37 18.16,7.1 27.52,5.78 5.27,-1.66 10.83,0.38 16.14,-1.16 6.44,-1.2 12,-5.52 15.04,-11.29 -4.24,0.94 -8.57,1.9 -12.91,1.07 0.69,-1.16 1.39,-2.32 2.1,-3.46 4.97,-0.42 10.09,-1.82 13.81,-5.32 2.36,-2 3.45,-5.21 6.24,-6.73 7.67,-4.88 11.14,-14.3 11.15,-23.08 -4.01,3.42 -7.18,8.34 -12.57,9.71 -1.14,-1.46 -1.92,-3.15 -2.77,-4.77 3.6,-3.37 4.57,-8.5 8.18,-11.82 5.52,-6.05 7.23,-14.59 6.35,-22.55 -3.26,4.56 -7,9.13 -12.38,11.23 -2.26,-3.18 -5.26,-5.96 -9.18,-6.81 2.62,-3.93 5.06,-8.16 5.27,-13.01 6.82,-4.67 8.89,-13.74 7.42,-21.5 -4.46,4.8 -9.93,10 -16.81,10.27 -8.67,-5.56 -19.22,-8.36 -29.47,-6.33 -0.51,-1.99 -1,-3.96 -1.51,-5.93 5.56,-1.63 11.43,-1.76 17.15,-1.02 -6.48,-7.6 -17.01,-11.15 -26.83,-10.18 -4.89,-3.05 -10.95,-4.41 -16.61,-2.98 -8.58,2.36 -14.85,9.42 -23.36,11.95 -14.81,4.82 -30.6,1.65 -45.25,-2.15 23.58,-13.59 43.62,-33.23 57.64,-56.57 23.45,-38.38 29.31,-86.77 16.35,-129.77 -8.32,-28.08 -24.62,-53.65 -46.25,-73.34 4.96,-7.5 8.87,-16.59 6.94,-25.72 -1.17,-3.1 -3.01,-6.25 -5.94,-7.95 -1.01,9.41 -7.73,16.86 -14.83,22.51 -26.6,-19.28 -59.22,-30.18 -92.09,-30.41 -32.47,-0.59 -65.13,8.95 -91.98,27.26 z"
       id="path3206" />
    <path
       style="fill:#c19a00"
       inkscape:connector-curvature="0"
       d="m 198.84,214.24 c 5.8,2.75 11.05,6.91 14.92,12.06 2.96,4.03 4.83,9.53 2.83,14.38 -1.04,2.7 -3.53,4.37 -5.64,6.18 5.16,0.19 10.59,-0.77 14.74,-4.03 3.84,-2.87 6.06,-7.33 7.31,-11.86 5.96,-0.18 11.93,-0.05 17.88,0.34 4.56,9.26 -1.73,19.13 -1.47,28.67 0.07,3.2 2.17,5.71 4.26,7.9 -0.33,-5.14 0.99,-10.79 5.49,-13.87 -0.35,5.31 1.15,11.53 5.38,14.9 3.42,-4.27 5.53,-9.59 4.74,-15.12 4.26,3.24 5.94,8.62 5.45,13.82 5.36,-3.26 4.66,-10.3 3.57,-15.58 -1.03,-6.58 -3.8,-13.99 -0.21,-20.22 5.96,-0.74 12.02,-0.63 18,-0.14 1.24,5.09 3.95,10 8.48,12.87 3.76,2.58 8.43,3.17 12.88,3.31 -3.43,-2.92 -6.75,-6.89 -5.82,-11.76 1.56,-10.06 10.78,-16.77 19.33,-20.99 -4.17,3.21 -7.73,7.21 -10.21,11.87 4.01,-1.34 8.1,-2.54 12.36,-2.72 -4.22,2 -8.59,3.95 -11.85,7.41 0.3,0.21 0.91,0.62 1.21,0.83 9.34,6.12 18.11,13.11 26.15,20.85 4.03,4.2 8.16,8.48 10.76,13.75 -3.84,1.07 -7.81,1.91 -11.27,3.98 9.01,3.89 13.89,13.2 16.75,22.09 2,5.71 2.81,11.72 3.81,17.66 -5.42,-6.81 -12.96,-12.3 -21.65,-13.86 -8.88,-1.86 -17.89,0.88 -25.98,4.44 -7.64,3.54 -14.91,7.95 -21.43,13.29 -2.63,-4.04 -6.26,-8.26 -11.57,-8.01 -7.02,0.65 -13.55,4.73 -18.01,10.03 6.12,-2.99 13.28,-4.49 19.94,-2.45 -2.44,1.45 -4.75,3.14 -6.54,5.37 -5.66,2.81 -12.11,3.75 -18.39,3.6 -7.19,0.13 -14.89,-0.47 -21.18,-4.21 -1.8,-2.03 -3.96,-3.69 -6.14,-5.28 6.8,-1.86 13.91,-0.08 20.07,2.97 -4.87,-5.29 -11.31,-10.31 -18.82,-10.35 -4.81,-0.14 -8.38,3.71 -10.55,7.57 -10.23,-7.39 -20.97,-14.68 -33.37,-17.8 -8.75,-2.37 -18.45,-0.95 -26.06,3.99 -3.68,2.06 -6.44,5.29 -9.61,8 1.33,-10.84 4.34,-21.89 10.94,-30.76 2.51,-3.51 6.17,-5.88 9.83,-8.04 -3.6,-1.65 -7.35,-2.96 -11.23,-3.76 4.37,-7.84 11.2,-13.92 17.93,-19.7 6.45,-5.57 13.64,-10.15 20.44,-15.24 0.12,-0.07 0.35,-0.2 0.47,-0.27 -3.31,-2.97 -7.25,-5.01 -11.06,-7.23 4.02,0.22 7.84,1.53 11.61,2.87 -2.23,-4.58 -5.66,-8.42 -9.47,-11.75 m 25.92,52.17 c -3.15,-1.32 -6.58,-1.7 -9.9,-2.36 2.6,-3.75 6.26,-6.54 10.04,-9 -10.56,2.54 -20.4,8.62 -26.61,17.65 2.24,0.27 4.57,-0.52 6.73,0.3 0.98,2.25 -0.44,4.61 -0.33,6.94 -0.52,6.25 1.53,12.79 6.3,17.02 11.04,-1.3 23.76,-0.4 32.07,7.87 0.56,-1.56 0.82,-3.19 0.89,-4.84 0.95,-0.19 1.91,-0.41 2.85,-0.66 2.55,-0.5 4.41,-2.83 4.99,-5.27 1.08,-4.02 0.28,-8.18 -0.22,-12.21 -0.69,3.6 -1.25,7.33 -3.24,10.5 -4.03,-2.44 -7.44,-5.98 -9.22,-10.38 -1.51,-3.75 -3.17,-7.61 -6.22,-10.4 -0.81,-11.84 3.77,-23.41 10.89,-32.71 -9.44,6.39 -16.32,16.49 -19.02,27.55 m 60.23,-27.25 c 7.62,9.06 12.13,20.9 10.92,32.82 -4.31,2.61 -7.53,6.74 -9.4,11.38 -1.93,3.88 -5.35,8.34 -10.14,8.08 -1.13,-3.32 -1.36,-6.86 -0.9,-10.32 -1.86,4.63 -3.2,10.03 -1.42,14.88 1.14,2.9 4.35,3.83 7.18,4.02 -0.07,1.16 -0.2,3.5 -0.27,4.66 1.15,-0.47 2.29,-0.96 3.41,-1.51 8.66,-5.05 19.23,-4.34 28.75,-2.74 1.69,0.41 2.84,-1.4 3.93,-2.4 5.19,-5.73 5.88,-14.04 4.6,-21.35 2.06,0.11 4.11,0.2 6.18,0.26 0.23,0.17 0.67,0.52 0.9,0.7 -2.87,-6.5 -8.35,-11.42 -14.2,-15.22 -3,-1.81 -6.04,-3.77 -9.53,-4.46 3.49,2.65 6.46,5.9 8.78,9.63 -3.24,0.2 -6.5,0.39 -9.66,1.16 -2.73,-11.64 -9.18,-22.72 -19.13,-29.59 m -107.12,23.4 c 5.81,0.44 11.67,1.51 16.89,4.21 -2.92,-3.29 -5.96,-6.65 -9.82,-8.85 -2.77,0.67 -5.59,2.1 -7.07,4.64 m 155.14,3.3 c 2.2,-0.32 4.37,-0.8 6.56,-1.2 3.46,0.2 6.92,0.29 10.39,0.35 0.07,-0.48 0.19,-1.43 0.25,-1.91 l -0.53,0.16 c -1.72,-1.57 -3.32,-3.53 -5.63,-4.23 -4.06,1.56 -7.49,4.37 -11.04,6.83 m -156.94,14.2 c -2.61,3.35 -4.93,6.96 -6.3,11 10.07,-5.48 22.78,-5.84 32.93,-0.38 0.04,-0.31 0.14,-0.91 0.19,-1.21 -6.46,-7.69 -17.06,-10.8 -26.82,-9.41 m 148.72,11.63 c 10.5,-4.82 23.34,-5.1 33.34,1.12 -1.35,-4.13 -3.19,-8.49 -6.57,-11.33 -9.67,-1.16 -21.3,1.43 -26.77,10.21 z"
       id="path3208" />
    <path
       style="fill:#c19a00"
       inkscape:connector-curvature="0"
       d="m 213.41,275.94 c 0.23,-1.83 2.5,-1.11 3.69,-0.86 2.03,0.48 3.92,1.4 5.84,2.2 -0.3,1.34 -0.63,2.68 -0.99,4.01 -1.07,0.7 -3.05,1.08 -2.92,2.7 -0.4,2.06 1.62,3.43 2.48,5.05 -0.11,0.16 -0.32,0.48 -0.43,0.64 -1.92,0.89 -4.09,0.01 -6.11,0.09 -2.28,-4.21 -2.85,-9.22 -1.56,-13.83 z"
       id="path3210" />
    <path
       style="fill:#c19a00"
       inkscape:connector-curvature="0"
       d="m 304.5,279.86 c 2.7,-1.49 5.84,-1.65 8.86,-1.48 0.34,4.83 0.51,10.22 -2.67,14.24 -1.89,0.93 -4.19,0.2 -6.22,0.4 0.84,-4.37 0.33,-8.78 0.03,-13.16 z"
       id="path3212" />
    <path
       style="fill:#c19a00"
       inkscape:connector-curvature="0"
       d="m 290.73,292.32 c 0.89,-1.49 2.08,-2.76 3.23,-4.04 1.4,1.25 2.51,3.39 4.87,2.74 -0.8,0.94 -1.62,1.85 -2.48,2.73 l -0.22,0.24 c -2.18,0.31 -4.31,0.85 -6.43,1.43 0.3,-1.05 0.63,-2.09 1.03,-3.1 z"
       id="path3214" />
    <path
       style="fill:#c19a00"
       inkscape:connector-curvature="0"
       d="m 167.32,308.33 c 6.63,-5.93 16.11,-7.75 24.72,-6.29 12.84,1.94 23.79,9.44 34.65,16.03 -0.18,1.86 -0.37,3.71 -0.56,5.58 -10.04,-6.36 -20.31,-12.95 -32.06,-15.6 -8.12,-2.05 -16.92,0.51 -23.31,5.74 -2.34,1.89 -4.04,4.42 -6.43,6.26 0.53,-3.92 -0.89,-9.17 2.99,-11.72 z"
       id="path3216" />
    <path
       style="fill:#c19a00"
       inkscape:connector-curvature="0"
       d="m 302.61,317.7 c 11.22,-6.72 22.99,-13.98 36.41,-14.7 8.74,-0.66 17.82,2.62 23.61,9.31 0.39,3.27 0.68,6.56 0.41,9.86 -4.21,-5.32 -9.31,-10.31 -16.02,-12.2 -6.89,-2.53 -14.37,-0.99 -21.04,1.46 -8.83,3.31 -17.15,7.91 -24.86,13.32 0.2,-2.39 -1.49,-5.92 1.49,-7.05 z"
       id="path3218" />
    <path
       style="fill:#c19a00"
       inkscape:connector-curvature="0"
       d="m 181.67,315.62 c 6.9,-3.23 15.05,-2.96 22.09,-0.32 8.1,2.98 15.72,7.24 22.69,12.3 1.17,3.2 1.8,6.58 2.61,9.89 -8.73,-5.01 -17.89,-9.57 -27.76,-11.81 -5.05,-1 -10.51,-1.3 -15.27,0.98 2.52,1.5 5.01,3.07 7.32,4.88 -8.93,0.44 -17.96,2.41 -25.63,7.17 -1.02,0.48 -2.2,1.76 -3.39,0.97 -0.92,-1.71 -0.51,-3.78 -0.7,-5.64 3.23,-8.23 10.05,-14.8 18.04,-18.42 z"
       id="path3220" />
    <path
       style="fill:#c19a00"
       inkscape:connector-curvature="0"
       d="m 313.68,320.64 c 7.48,-3.69 15.72,-7.12 24.25,-5.95 9.94,1.4 18.57,8.17 23.62,16.66 0.88,1.81 2.27,3.67 2.09,5.76 -0.44,1.64 -0.84,3.3 -1.32,4.94 -8.45,-5.76 -18.5,-8.87 -28.7,-9.26 2.49,-1.71 5.09,-3.27 7.68,-4.83 -5.42,-2.69 -11.67,-2.09 -17.37,-0.73 -8.98,1.97 -16.96,6.69 -25.38,10.12 0.04,-0.52 0.12,-1.57 0.16,-2.1 0.72,-2.35 1.35,-4.75 2.29,-7.03 3.9,-3.02 8.34,-5.27 12.68,-7.58 z"
       id="path3222" />
  </g>
  <g
     id="#c19c00ff"
     transform="matrix(0.14980043,0,0,0.14980043,0.33637335,0.49927504)">
    <path
       style="fill:#c19c00"
       inkscape:connector-curvature="0"
       d="m 102.9,35.93 c 6.71,-4.42 14.02,-7.9 21.25,-11.39 0.24,36.8 0,73.62 0.12,110.43 0.1,3.81 -1.41,7.38 -2.43,10.98 -1.86,6.41 -3.74,12.82 -5.59,19.23 -0.42,1.7 -1.9,2.78 -3.05,4 -12.12,11.6 -22.41,24.95 -31.83,38.78 -3.24,-4.58 -6.23,-9.33 -9.4,-13.96 -1.14,-1.86 -2.83,-3.66 -2.48,-6.01 0.03,-42.32 -0.01,-84.65 0.02,-126.98 6.81,-6.28 14,-12.16 21.46,-17.66 0.08,35.63 -0.03,71.27 0.05,106.9 2.95,-3.14 6.06,-6.13 9.09,-9.19 2.22,-2.01 2.45,-5.25 2.42,-8.06 -0.15,-32.36 0.06,-64.72 0.37,-97.07 m 3.46,2.22 c 0.13,31.63 -0.02,63.27 0.08,94.9 0.12,3.01 -0.82,5.9 -1.65,8.75 -5.73,4.92 -10.42,10.9 -15.79,16.18 -1.51,0.09 -1.47,-1.89 -1.63,-2.9 -0.14,-34.63 0.08,-69.27 -0.1,-103.89 -4.6,3.04 -8.64,6.84 -12.84,10.4 -1.81,1.22 -1.1,3.59 -1.26,5.42 0.16,40.65 -0.19,81.32 0.17,121.95 2.48,4.2 5.16,8.36 8.26,12.15 8.59,-12.66 18.49,-24.44 29.43,-35.13 2.3,-1.98 2.42,-5.24 3.35,-7.94 1.87,-7.4 4.6,-14.59 6.16,-22.05 0.16,-35.02 -0.07,-70.04 0.11,-105.05 -5.12,1.57 -9.68,4.55 -14.29,7.21 z"
       id="path3250" />
  </g>
  <g
     id="#fefdfcff"
     transform="matrix(0.14980043,0,0,0.14980043,0.33637335,0.49927504)">
    <path
       style="fill:#fefdfc"
       inkscape:connector-curvature="0"
       d="m 219.03,283.99 c -0.13,-1.62 1.85,-2 2.92,-2.7 2.51,0.02 3.97,2.44 3.13,4.77 -1.22,1.31 -2.75,2.32 -4,3.62 0.11,-0.16 0.32,-0.48 0.43,-0.64 -0.86,-1.62 -2.88,-2.99 -2.48,-5.05 z"
       id="path3253" />
    <path
       style="fill:#fefdfc"
       inkscape:connector-curvature="0"
       d="m 283.43,319.63 c 1.79,-2.23 4.1,-3.92 6.54,-5.37 1.8,1.11 2.99,2.83 3.69,4.8 -5.03,4.4 -9.83,9.04 -14.47,13.85 5.16,-2.86 9.73,-6.67 14.84,-9.63 -0.38,2.6 0.66,6.19 -1.87,7.95 -5.63,4.7 -10.67,10.39 -17.55,13.33 -3.21,1.45 -6.78,1.61 -10.24,1.65 0.62,-3.44 2.1,-6.73 4.72,-9.12 5.4,-5.21 12.08,-9.93 14.34,-17.46 z"
       id="path3255" />
    <path
       style="fill:#fefdfc"
       inkscape:connector-curvature="0"
       d="m 273.24,372.88 c 1.91,2.98 4.44,6.1 4.42,9.8 -1.48,3.46 -5.54,4.44 -8.95,4.46 3.25,-4.03 4.06,-9.26 4.53,-14.26 z"
       id="path3257" />
  </g>
  <g
     id="#fefefeff"
     transform="matrix(0.14980043,0,0,0.14980043,0.33637335,0.49927504)">
    <path
       style="fill:#fefefe"
       inkscape:connector-curvature="0"
       d="m 172.18,199.82 c 8.74,5.07 17.96,9.29 26.66,14.42 3.81,3.33 7.24,7.17 9.47,11.75 -3.77,-1.34 -7.59,-2.65 -11.61,-2.87 3.81,2.22 7.75,4.26 11.06,7.23 -0.12,0.07 -0.35,0.2 -0.47,0.27 -5.99,0.78 -11.77,2.71 -17.19,5.36 -10.97,-8.67 -16.26,-22.63 -17.92,-36.16 z"
       id="path3261" />
    <path
       style="fill:#fefefe"
       inkscape:connector-curvature="0"
       d="m 330.96,215.1 c 8.73,-4.82 17.93,-8.79 26.49,-13.93 -1.9,13.59 -7.42,27.46 -18.52,36.12 -5.22,-2.68 -10.8,-4.49 -16.52,-5.72 l 0.06,0.92 c -0.3,-0.21 -0.91,-0.62 -1.21,-0.83 3.26,-3.46 7.63,-5.41 11.85,-7.41 -4.26,0.18 -8.35,1.38 -12.36,2.72 2.48,-4.66 6.04,-8.66 10.21,-11.87 z"
       id="path3263" />
    <path
       style="fill:#fefefe"
       inkscape:connector-curvature="0"
       d="m 208.93,209.95 c 7.18,3.31 13.52,8.69 18.1,15.07 -1.4,1.79 -3.41,2.92 -5.19,4.27 -1.33,-8.05 -7.47,-13.81 -12.91,-19.34 z"
       id="path3265" />
    <path
       style="fill:#fefefe"
       inkscape:connector-curvature="0"
       d="m 301.98,225.03 c 4.92,-6.14 10.91,-11.65 18.09,-14.99 -5.15,5.61 -11.38,11.17 -12.55,19.14 -2,-1.16 -3.82,-2.61 -5.54,-4.15 z"
       id="path3267" />
    <path
       style="fill:#fefefe"
       inkscape:connector-curvature="0"
       d="m 198.29,272.7 c 6.21,-9.03 16.05,-15.11 26.61,-17.65 -3.78,2.46 -7.44,5.25 -10.04,9 3.32,0.66 6.75,1.04 9.9,2.36 2.99,1.21 5.77,2.96 8.13,5.16 3.05,2.79 4.71,6.65 6.22,10.4 1.78,4.4 5.19,7.94 9.22,10.38 l -0.5,0.84 c -5.3,1.52 -8.41,-4.26 -11.25,-7.67 -5.08,-8.01 -13.19,-14.04 -22.47,-16.15 -5.15,-1.12 -10.55,-0.1 -15.1,2.52 3.34,0.47 6.72,0.37 10.06,0.71 -1.56,7.12 -1.35,15.35 3.59,21.18 11.15,-2.2 22.99,1.8 30.46,10.37 0.11,-1.55 0.23,-3.09 0.36,-4.63 1.11,-0.06 2.21,-0.13 3.32,-0.19 -0.94,0.25 -1.9,0.47 -2.85,0.66 -0.07,1.65 -0.33,3.28 -0.89,4.84 -8.31,-8.27 -21.03,-9.17 -32.07,-7.87 -4.77,-4.23 -6.82,-10.77 -6.3,-17.02 -0.11,-2.33 1.31,-4.69 0.33,-6.94 -2.16,-0.82 -4.49,-0.03 -6.73,-0.3 z"
       id="path3269" />
    <path
       style="fill:#fefefe"
       inkscape:connector-curvature="0"
       d="m 305,257.96 c 3.49,0.69 6.53,2.65 9.53,4.46 5.85,3.8 11.33,8.72 14.2,15.22 -0.23,-0.18 -0.67,-0.53 -0.9,-0.7 -8.28,-7.06 -20.36,-4.11 -28.81,1.09 -6.93,3.81 -10.43,11.66 -17.32,15.48 -2.06,1.41 -4.4,-0.13 -5.33,-2.07 4.79,0.26 8.21,-4.2 10.14,-8.08 1.87,-4.64 5.09,-8.77 9.4,-11.38 2.59,-1.42 5.37,-2.46 8.21,-3.23 3.16,-0.77 6.42,-0.96 9.66,-1.16 -2.32,-3.73 -5.29,-6.98 -8.78,-9.63 z"
       id="path3271" />
    <path
       style="fill:#fefefe"
       inkscape:connector-curvature="0"
       d="m 318.06,276.5 c 1.19,0.06 2.39,0.12 3.59,0.18 1.28,7.31 0.59,15.62 -4.6,21.35 -1.09,1 -2.24,2.81 -3.93,2.4 -9.52,-1.6 -20.09,-2.31 -28.75,2.74 -1.12,0.55 -2.26,1.04 -3.41,1.51 3.22,-2.44 6.48,-4.94 10.28,-6.42 6.82,-3 14.5,-2.65 21.62,-1.04 4.88,-5.68 6.01,-13.49 5.2,-20.72 z"
       id="path3273" />
    <path
       style="fill:#fefefe"
       inkscape:connector-curvature="0"
       d="m 293.96,288.28 c 1.28,-1.41 2.56,-2.81 3.9,-4.17 2.81,0.89 4.55,4.83 1.34,6.44 -0.25,0.96 -0.48,1.94 -0.7,2.92 -0.54,0.07 -1.61,0.21 -2.15,0.28 0.86,-0.88 1.68,-1.79 2.48,-2.73 -2.36,0.65 -3.47,-1.49 -4.87,-2.74 z"
       id="path3275" />
    <path
       style="fill:#fefefe"
       inkscape:connector-curvature="0"
       d="m 233.81,318.72 c 0.8,-2.02 2.04,-3.82 3.91,-4.98 2.18,1.59 4.34,3.25 6.14,5.28 2.05,6.32 6.81,11.17 11.68,15.46 3.5,3.1 6.75,6.91 7.09,11.8 -4.36,-0.19 -8.87,-0.81 -12.64,-3.15 -5.95,-3.65 -10.81,-8.75 -15.89,-13.46 -0.79,-2.17 -0.53,-4.62 -0.84,-6.89 5.1,2.95 9.7,6.66 14.58,9.95 -4.05,-5.23 -9.05,-9.67 -14.03,-14.01 z"
       id="path3277" />
    <path
       style="fill:#fefefe"
       inkscape:connector-curvature="0"
       d="m 186.03,326.66 c 4.76,-2.28 10.22,-1.98 15.27,-0.98 9.87,2.24 19.03,6.8 27.76,11.81 5.58,15.78 10.82,31.76 17.37,47.2 1.82,4.38 5.7,8.38 10.69,8.61 5.31,0.29 10.91,0.95 16.01,-0.86 6.13,-2.97 7.82,-10.1 10.37,-15.81 5.44,-13.65 10.92,-27.32 15.21,-41.38 -0.04,0.53 -0.12,1.58 -0.16,2.1 8.42,-3.43 16.4,-8.15 25.38,-10.12 5.7,-1.36 11.95,-1.96 17.37,0.73 -2.59,1.56 -5.19,3.12 -7.68,4.83 10.2,0.39 20.25,3.5 28.7,9.26 0.48,-1.64 0.88,-3.3 1.32,-4.94 0.17,1.9 0.2,3.88 -0.48,5.7 -0.44,3.56 -1.18,7.08 -2.24,10.51 -2.02,-2.33 -4.11,-4.62 -6.68,-6.35 0.01,13.62 -4.11,27.6 -12.82,38.22 -2.14,-7.86 -7.39,-15.37 -15.22,-18.32 -5.58,-2.16 -11.63,-1.04 -17.29,0.16 3.59,-4.13 8.61,-7.22 14.19,-7.42 8.06,-0.53 15.08,4.4 20.89,9.43 1.44,-4.51 3.43,-9.19 3.11,-13.95 -10.02,-5.88 -23.14,-9.24 -33.88,-3.23 2.29,-2.73 4.86,-5.22 6.92,-8.13 -15.03,8.91 -25.95,23.61 -33.34,39.21 -3.81,8.03 -6.49,16.53 -8.63,25.13 -6.34,0.58 -12.7,1.48 -19.08,0.96 -3.76,-0.32 -7.5,-0.86 -11.26,-1.1 -4.69,-21.59 -14.55,-42.68 -31.02,-57.78 -3.06,-2.78 -6.28,-5.44 -9.91,-7.43 2.04,2.8 4.51,5.26 6.42,8.17 -10.51,-6.25 -23.85,-2.86 -33.69,3 0.18,4.42 1.27,8.8 2.82,12.94 l 0.66,0.22 c 4.89,-3.46 9.83,-7.48 16.01,-8.26 6.97,-1.3 14.33,1.86 18.52,7.49 -6.63,-1.83 -14.17,-2.73 -20.37,0.95 -6.48,3.4 -9.9,10.17 -12.71,16.58 -7.86,-11.07 -12.06,-24.64 -11.76,-38.21 -2.69,1.4 -4.66,3.73 -6.51,6.06 -0.66,-1.48 -1.25,-3 -1.46,-4.6 -0.52,-4.34 -2.39,-8.62 -1.2,-13.02 0.19,1.86 -0.22,3.93 0.7,5.64 1.19,0.79 2.37,-0.49 3.39,-0.97 7.67,-4.76 16.7,-6.73 25.63,-7.17 -2.31,-1.81 -4.8,-3.38 -7.32,-4.88 z"
       id="path3279" />
    <path
       style="fill:#fefefe"
       inkscape:connector-curvature="0"
       d="m 240.47,341.91 c 3.41,2.65 6.82,5.33 10.69,7.29 -2.56,4.11 -3.53,8.91 -4.28,13.63 -5.25,-5.55 -6.03,-13.65 -6.41,-20.92 z"
       id="path3281" />
    <path
       style="fill:#fefefe"
       inkscape:connector-curvature="0"
       d="m 275.91,349.33 c 3.97,-1.94 7.66,-4.4 10.92,-7.38 -0.9,7.32 -1.36,15.77 -7.09,21.16 -0.38,-4.79 -1.61,-9.5 -3.83,-13.78 z"
       id="path3283" />
    <path
       style="fill:#fefefe"
       inkscape:connector-curvature="0"
       d="m 248.77,382.17 c 0.17,-3.55 2.41,-6.54 4.62,-9.15 0.33,4.97 1.27,10.04 4.3,14.13 -3.41,-0.2 -7.87,-1.21 -8.92,-4.98 z"
       id="path3285" />
    <path
       style="fill:#fefefe"
       inkscape:connector-curvature="0"
       d="m 240.47,416.43 c 5.72,1.26 11.53,2.06 17.32,2.88 31.24,22.89 66.35,42.58 105.21,48.14 -16.84,-0.47 -33.82,-1.09 -50.28,-5.05 -16.22,-6.79 -31.84,-15.02 -46.76,-24.34 -9.28,-6.16 -18.64,-12.71 -25.49,-21.63 z"
       id="path3287" />
    <path
       style="fill:#fefefe"
       inkscape:connector-curvature="0"
       d="m 407.78,455.84 c 3.75,-2.53 8.54,-4.12 12.96,-2.34 6.01,2.17 9.15,8.67 9.57,14.71 -7.75,3.88 -15.94,6.93 -23.35,11.46 15.39,-3.23 31.07,-8.04 46.92,-5.44 5.58,0.9 10.66,4.87 12.56,10.23 1.14,4.52 -1.22,9.61 -5.43,11.64 -3.68,1.93 -7.98,1.32 -11.96,1.9 0.33,-3.23 0.92,-6.61 -0.26,-9.74 -1.21,-3.34 -4.03,-6.51 -7.73,-6.89 -6.46,-0.62 -12.72,1.43 -19.01,2.54 -19.62,3.99 -40.19,4.98 -59.81,0.49 13.54,-3.18 27.49,-5.04 40.51,-10.1 -2.67,-0.26 -5.34,-0.47 -7.99,-0.85 5.99,-2.29 12.3,-3.75 18.08,-6.57 2.29,-1.28 5.97,-2.73 5.47,-5.94 -1.23,-4.45 -6.67,-5 -10.53,-5.1 z"
       id="path3289" />
    <path
       style="fill:#fefefe"
       inkscape:connector-curvature="0"
       d="m 451.48,505.94 c 5.22,0.22 10.27,-1.36 14.72,-4.03 4.19,0.83 8.52,3.4 10.33,7.45 1.51,3.83 -0.48,8.17 -3.43,10.72 -5.03,4.03 -11.91,6.08 -18.18,4.02 2.09,-6.29 -0.47,-12.66 -3.44,-18.16 z"
       id="path3291" />
    <path
       style="fill:#fefefe"
       inkscape:connector-curvature="0"
       d="m 450.11,530.56 c 7.3,1.77 15.08,1.62 22.12,-1.13 2.22,2.56 3.96,5.99 3.22,9.47 -0.71,4.79 -5.08,8.16 -9.54,9.33 -8.39,2.42 -17.2,0.28 -25.09,-2.88 2.29,-0.54 4.75,-1.25 6.26,-3.2 2.82,-3.16 2.7,-7.64 3.03,-11.59 z"
       id="path3293" />
    <path
       style="fill:#fefefe"
       inkscape:connector-curvature="0"
       d="m 419.13,555.61 c 7.02,0.22 14.19,-2.54 18.74,-8 4.28,3.83 9.38,6.58 14.68,8.74 -5.07,4.85 -12.69,7.01 -19.49,5.11 -4.87,-1.36 -9.43,-3.61 -13.93,-5.85 z"
       id="path3295" />
  </g>
  <g
     id="#002b4eff"
     transform="matrix(0.14980043,0,0,0.14980043,0.33637335,0.49927504)">
    <path
       style="fill:#002b4e"
       inkscape:connector-curvature="0"
       d="m 177.87,262.56 c 1.48,-2.54 4.3,-3.97 7.07,-4.64 3.86,2.2 6.9,5.56 9.82,8.85 -5.22,-2.7 -11.08,-3.77 -16.89,-4.21 z"
       id="path3314" />
    <path
       style="fill:#002b4e"
       inkscape:connector-curvature="0"
       d="m 333.01,265.86 c 3.55,-2.46 6.98,-5.27 11.04,-6.83 2.31,0.7 3.91,2.66 5.63,4.23 -3.26,1.13 -6.76,0.79 -10.11,1.4 -2.19,0.4 -4.36,0.88 -6.56,1.2 z"
       id="path3316" />
    <path
       style="fill:#002b4e"
       inkscape:connector-curvature="0"
       d="m 536.42,278.1 c 1.48,-2.63 1.06,-7.21 4.58,-8.1 l 0,9.95 -1.12,1.22 c -0.17,-2.48 -0.2,-4.97 -0.25,-7.45 -0.85,2.34 -1.56,4.75 -2.61,7.02 -2.76,-0.73 -2.41,-4.74 -3.7,-6.94 -0.02,2.24 -0.01,4.48 -0.01,6.73 l -1.62,0.08 c -0.03,-3.51 -0.04,-7.01 0.08,-10.51 3.82,0.38 3.24,5.38 4.65,8 z"
       id="path3318" />
  </g>
  <g
     id="#56534fff"
     transform="matrix(0.14980043,0,0,0.14980043,0.33637335,0.49927504)">
    <path
       style="fill:#56534f"
       inkscape:connector-curvature="0"
       d="m 349.68,263.26 0.53,-0.16 c -0.06,0.48 -0.18,1.43 -0.25,1.91 -3.47,-0.06 -6.93,-0.15 -10.39,-0.35 3.35,-0.61 6.85,-0.27 10.11,-1.4 z"
       id="path3321" />
  </g>
  <g
     id="#00294dff"
     transform="matrix(0.14980043,0,0,0.14980043,0.33637335,0.49927504)">
    <path
       style="fill:#00294d"
       inkscape:connector-curvature="0"
       d="m 523.4,270.47 c 2.53,0.47 6.87,-1.59 8,1.47 -0.89,0.02 -2.66,0.06 -3.55,0.08 -0.02,2.87 0.15,5.75 -0.19,8.61 -0.33,0.01 -0.97,0.03 -1.29,0.05 -0.39,-2.87 -0.21,-5.78 -0.22,-8.66 -0.86,-0.02 -2.6,-0.06 -3.47,-0.07 0.18,-0.37 0.54,-1.11 0.72,-1.48 z"
       id="path3324" />
    <path
       style="fill:#00294d"
       inkscape:connector-curvature="0"
       d="m 176.07,280.06 c 9.76,-1.39 20.36,1.72 26.82,9.41 -0.05,0.3 -0.15,0.9 -0.19,1.21 -10.15,-5.46 -22.86,-5.1 -32.93,0.38 1.37,-4.04 3.69,-7.65 6.3,-11 z"
       id="path3326" />
  </g>
  <g
     id="#be9a00ff"
     transform="matrix(0.14980043,0,0,0.14980043,0.33637335,0.49927504)">
    <path
       style="fill:#be9a00"
       inkscape:connector-curvature="0"
       d="m 228.43,281.97 c 3.01,4.14 6.47,8.04 8.65,12.72 -3.11,-1.32 -6.36,-2.25 -9.49,-3.48 0.43,-3.07 1.22,-6.12 0.84,-9.24 z"
       id="path3329" />
  </g>
  <g
     id="#666040ff"
     transform="matrix(0.14980043,0,0,0.14980043,0.33637335,0.49927504)">
    <path
       style="fill:#666040"
       inkscape:connector-curvature="0"
       d="m 287.8,294.2 c 0.32,-1.14 1.72,-2.38 2.93,-1.88 -0.4,1.01 -0.73,2.05 -1.03,3.1 -0.59,1.51 -2.49,-0.06 -1.9,-1.22 z"
       id="path3332" />
  </g>
  <g
     id="#c39c01ff"
     transform="matrix(0.14980043,0,0,0.14980043,0.33637335,0.49927504)">
    <path
       style="fill:#c39c01"
       inkscape:connector-curvature="0"
       d="m 147.13,338.03 c -0.52,-14.91 1.48,-29.97 6.59,-44.02 -1.65,12.58 -3.63,25.23 -3.11,37.97 1.07,19.57 5.01,39.2 13.28,57.05 10.18,20.35 24.67,38.3 40.86,54.18 14.83,14.66 31.28,27.57 48.28,39.6 12.72,8.99 25.83,17.5 39.9,24.24 23.29,11.26 47.87,19.84 73.02,25.85 15.39,3.88 30.69,-3.72 46.17,-2.15 -1.82,-1.63 -3.98,-2.83 -6.33,-3.47 -9.35,-2.8 -19.22,-1.75 -28.82,-1.58 -5.48,0.21 -10.76,-1.51 -16.04,-2.71 -36.43,-9.64 -72.15,-23.82 -102.87,-45.97 -27.95,-19.46 -54.72,-41.4 -75.44,-68.66 -8.97,-12.05 -17.2,-24.93 -22.03,-39.26 -4.69,-13.56 -7.37,-27.79 -8.31,-42.1 1.2,-1.08 2.39,-2.15 3.6,-3.21 0.54,14.71 1.45,29.58 5.35,43.85 2,-1.38 3.83,-2.99 5.55,-4.7 2.15,9.88 5.74,19.51 11.22,28.03 3.63,5.85 8.5,10.77 12.75,16.15 -0.18,-8.79 0.31,-18.38 5.83,-25.67 4.97,-6.68 15.49,-8.22 22.18,-3.29 4.86,3.54 8.47,8.52 11.44,13.69 4.4,7.74 7.64,16.09 10.27,24.58 6.85,8.92 16.21,15.47 25.49,21.63 14.92,9.32 30.54,17.55 46.76,24.34 15.4,6.41 31.53,11.95 48.31,12.9 10.98,0.27 21.63,-3.73 30.98,-9.24 5.46,-3.09 10.38,-7.02 15.77,-10.22 3.86,0.1 9.3,0.65 10.53,5.1 0.5,3.21 -3.18,4.66 -5.47,5.94 -5.78,2.82 -12.09,4.28 -18.08,6.57 2.65,0.38 5.32,0.59 7.99,0.85 -13.02,5.06 -26.97,6.92 -40.51,10.1 19.62,4.49 40.19,3.5 59.81,-0.49 6.29,-1.11 12.55,-3.16 19.01,-2.54 3.7,0.38 6.52,3.55 7.73,6.89 1.18,3.13 0.59,6.51 0.26,9.74 -9.4,-0.16 -20.51,1.26 -25.96,9.99 4.8,-1.78 9.53,-4.73 14.86,-4.11 4.52,0.6 8.96,1.77 13.53,2.06 2.97,5.5 5.53,11.87 3.44,18.16 -4.7,-1.47 -9.07,-4.05 -14,-4.65 -4.76,-0.12 -9.4,1.21 -14.02,2.15 4.09,1.73 9.03,1.05 12.61,3.99 3.08,2.5 6.83,3.87 10.6,4.97 -0.33,3.95 -0.21,8.43 -3.03,11.59 -1.51,1.95 -3.97,2.66 -6.26,3.2 -3.9,-1.16 -7.62,-2.93 -11.67,-3.53 2.81,2.08 6.25,3.21 8.72,5.79 -4.55,5.46 -11.72,8.22 -18.74,8 -4.24,-2.16 -7.5,-5.74 -11.56,-8.16 -2.18,-1.4 -4.67,-2.25 -6.75,-3.8 4.41,-1.41 8.97,-2.33 13.28,-4.01 -6.97,-0.77 -14.08,-1 -21.01,0.25 -10.23,1.4 -20.79,4.18 -31.02,1.27 -33.51,-8.08 -66.29,-20.36 -95.67,-38.55 -30.28,-19.86 -59.5,-42.18 -82.77,-70.16 -11.06,-13.62 -21.26,-28.33 -27.28,-44.93 -5.72,-15.86 -8.57,-32.67 -9.22,-49.49 z"
       id="path3335" />
  </g>
</svg>
