<?xml version="1.0" encoding="utf-8"?>
<!-- Generator: Adobe Illustrator 14.0.0, SVG Export Plug-In . SVG Version: 6.00 Build 43363)  -->
<!DOCTYPE svg PUBLIC "-//W3C//DTD SVG 1.1//EN" "http://www.w3.org/Graphics/SVG/1.1/DTD/svg11.dtd">
<svg version="1.1" id="Layer_1" xmlns="http://www.w3.org/2000/svg" xmlns:xlink="http://www.w3.org/1999/xlink" x="0px" y="0px"
	 width="218px" height="250px" viewBox="0 0 218 250" enable-background="new 0 0 218 250" xml:space="preserve">
<g>
	<path fill="#14234B" d="M36.412,141.216c0-3.517-1.904-5.795-5.715-5.795h-3.811v11.527h3.675
		C34.37,146.948,36.412,144.731,36.412,141.216"/>
	<path fill="#14234B" d="M103.395,159.266c0-2.874-2.001-4.86-5.938-4.86h-3.468v9.825h3.8
		C101.523,164.23,103.395,162.298,103.395,159.266"/>
	<path fill="#14234B" d="M64.599,163.79c5.037,0,7.353-2.925,7.353-11.37s-2.316-11.371-7.353-11.371
		c-4.967,0-7.35,2.926-7.35,11.371S59.632,163.79,64.599,163.79"/>
	<path fill="#14234B" d="M101.995,144.857c0-2.429-1.469-4.028-5.003-4.028h-3.002v8.112h3.002
		C100.393,148.941,101.995,147.286,101.995,144.857"/>
	<path fill="#14234B" d="M72.594,200.467c7.171,0,8.259-5.861,8.259-11.839c0-5.437-0.456-11.051-7.176-11.051
		c-6.682,0-7.232,6.685-7.232,11.9C66.444,193.904,66.77,200.467,72.594,200.467"/>
	<path fill="#14234B" d="M199.428,189.311l3.517,0.341l2.983-16.123l-1.98-1.536c-1.566-1.215-3.368-2.17-5.251-2.892l2.139-8.261
		h-4.054l0.036-12.638l0.153,0.859l12.028-2.277l-2.222-15.473H144.84l-4.688-16.327c0.946-0.381,1.965-0.839,2.743-1.3
		c2.135-1.279,4.853-4.033,4.853-4.033l6.587-11.166c0,0,11.245-4.66,14.67-6.446c3.982-2.073,7.959-6.219,7.959-6.219
		s4.428-18.884,2.984-30.163c-3.23-25.329-14.67-39.146-14.67-39.146s-0.727,3.004-2.738,5.297
		c-3.229,3.686-11.383,3.45-11.686-1.842c-0.251-4.374,0.246-4.374,1.74-8.059c-24.246,4.722-43.518,11.284-66.149,23.255
		c-20.75,10.979-48.989,34.079-48.989,34.079s6.672,9.134,16.413,14.966c8.453,5.067,22.879,9.674,22.879,9.674
		s-10.447,0.458-17.162,3.913c-6.713,3.453-25.365,16.576-25.365,16.576s-2.237,1.387-4.972,1.387c-2.739,0-7.215-0.463-7.215-0.463
		s1.479,6.042,6.549,9.896H12.358L9.399,138.68h3.854v21.356H9.399l2.418,11.032l-2.101,12.003l3.622-0.146
		c0.03,0.905,0.059,2.021,0.082,3.291c0.057,3.368,0.08,7.793,0.084,12.213c0.01,8.859-0.051,17.715-0.054,18.006
		c0,0.246,0.021,0.385,0.018,0.489l-0.292,0.115l-3.268,1.224l2.856,14.431l4.645-1.952c3.906-1.644,7.844-3.191,11.821-4.646
		l2.224-0.811l1.935-10.893l5.858-1.561l0.2,0.864c-1.2,0.891-2.27,1.81-3.194,2.733c2.347,2.313,3.493,3.891,4.97,6.836
		c2.698,5.379,2.721,11.03,2.488,15.225c4.451,1.198,5.229,1.587,11.806,0.466c3.893-0.66,9.008-3.76,9.945-4.038
		c8.854-2.642,12.274-2.176,16.778-0.156l-2.331-6.523c6.239,0.103,10.961,0.461,17.868,1.551c11.501,1.822,24,6.808,28.744,8.082
		c9.438,2.531,16.938,3.406,24.39,3.729c17.669,0.763,30.921-8.232,30.921-8.232l-7.616-8.86l1.658-7.504
		c4.509,3.458,10.907,6.198,17.315,6.045c10.733,0,13.687-9.474,13.687-16.322C206.875,197.656,203.543,192.522,199.428,189.311
		 M172.663,135.421h30.558l1.156,8.057l-4.084,0.773c-0.41-2.319-1.091-3.422-4.832-3.422h-2.789v21.525
		c0,1.876,0.542,2.595,2.855,2.595l-1.156,4.472h-12.863l-1.223-4.472c2.38,0,2.855-0.719,2.855-2.595v-21.525h-2.723
		c-3.741,0-4.423,1.103-4.832,3.422l-4.084-0.773L172.663,135.421z M158.414,204.609c0.608,0.069,1.264,0.064,1.725-0.335
		c0.865-0.755,0.84-21.563,0.84-24.374c0-2.247-0.548-2.93-2.8-2.989l1.279-4.924l12.775,0.049l1.096,5.387
		c-0.768-0.03-1.72-0.015-2.288,0.594c-0.962,1.029-0.389,22.921-0.389,26.03c0,2.265,0.608,3.207,2.83,3.703l-1.208,5.083
		c-4.12-1.034-8.66-2.143-12.842-3.041l0.021,0.235c-1.438-0.286-11.783-2.313-12.044-2.475c-4.647-2.933-0.881-14.285-8.317-14.977
		l-2.912-0.218c-0.036,2.173-0.113,4.346-0.113,6.517c0,2.121,0.788,2.685,2.8,2.901l-1.233,4.371
		c-4.136-0.496-8.281-0.905-12.433-1.228c-1.428-0.062-11.435-0.412-11.695-0.533c-5.158-2.38,0.394-13.026-9.704-13.026
		l-1.446,0.011c-0.039,2.067-0.121,4.141-0.121,6.209c0,2.072,0.84,2.467,2.774,2.451l-1.229,4.267
		c-1.172,0.013-2.339,0.028-3.511,0.054c-3.135-0.41-6.309-0.709-9.474-0.901l-0.768-3.07c0.739-0.034,1.694-0.098,2.252-0.666
		c0.906-0.919,0.891-18.405,0.891-21.026c0-2.078-0.847-2.49-2.792-2.473l1.21-4.314h5.817h10.467
		c6.164,0,13.463,1.868,13.463,9.434c0,4.251-2.912,6.887-6.654,8.144c7.842,2.219,3.066,9.72,9.137,11.015
		c0.711,0.036,1.612,0.054,2.17-0.445c1.607-1.766,0.968-18.69,0.968-21.257c0-2.099-0.814-2.539-2.79-2.557l1.229-4.322
		l4.699,0.005c8.67,0,25.09-2.378,25.09,10.656c0,4.504-2.467,7.442-6.639,8.704C156.699,194.406,151.269,202.867,158.414,204.609
		 M81.851,139.89l1.134-4.469h15.007c8.139,0,13.003,3.199,13.003,8.996c0,2.925-1.866,5.407-4.668,6.733
		c4.404,1.71,6.338,4.638,6.338,8.445c0,6.347-5.202,9.825-13.542,9.825H82.985l-1.134-4.472c2.267,0,2.8-0.719,2.8-2.595v-19.87
		C84.651,140.555,84.118,139.89,81.851,139.89 M80.563,131.312l8.75-14.947l25.553,9.784l-2.811,5.163H80.563z M88.93,93.881
		c-0.993,3.45-0.494,6.674-0.494,6.674s-4.228-2.994-3.734-7.596c0.499-4.606,7.71-4.376,7.71-4.376S89.925,90.427,88.93,93.881
		 M86.693,104.472l4.228,1.151l-1.584,4.737l-2.644-1.055l-13.479,22.688c-2.636-0.85-5.548-1.235-8.614-1.235
		c-6.004,0-11.45,1.499-15.383,5.093c-0.599-2.017-1.574-3.742-2.841-5.175c2.332,0.153,3.762,0.046,3.762,0.046
		s13.428-2.767,22.135-10.594C80.973,112.303,86.693,104.472,86.693,104.472 M64.599,134.868c10.347,0,17.426,4.745,17.426,17.552
		c0,12.806-7.079,17.554-17.426,17.554c-10.275,0-17.42-4.748-17.42-17.554C47.179,139.613,54.324,134.868,64.599,134.868
		 M73.695,171.373c11.289,0,17.049,5.38,17.049,16.917c0,7.035-2.592,11.918-6.884,14.902c-7.683-0.101-15.13,0.427-21.689,1.553
		c-4.123-2.776-5.61-8.071-5.61-14.408C56.561,178.478,61.329,171.373,73.695,171.373 M113.52,169.421l-1.151-4.472
		c2.313,0,2.856-0.719,2.856-2.595v-19.87c0-1.93-0.543-2.595-2.856-2.595l1.151-4.469h25.184v7.947l-3.947,0.716
		c-0.409-2.705-1.085-3.255-5.174-3.255h-4.832v8.556h4.561c2.313,0,3.199-0.387,3.199-2.155l3.946,0.939v7.729l-3.946,0.883
		c0-1.766-0.886-2.149-3.199-2.149h-4.561v9.27h7.15c3.608,0,4.218-0.772,4.832-3.422l4.15,0.773l-1.223,8.169H113.52z
		 M150.106,91.578l-1.244-9.901c0,0,4.602,0.806,4.725,4.143C153.689,88.622,150.106,91.578,150.106,91.578 M141.528,71.084
		c-12.188-1.612-16.287-0.691-16.287-0.691l-6.966,5.988c0,0,1.243-0.23,3.48-0.46c2.236-0.23,4.724,0.46,4.724,0.46l-3.726,2.073
		c0,0,1.233,1.218,5.221,1.612c2.702,0.264,6.26,0.333,9.822-1.039l0.993-1.728c0,0,1.243-0.688,2.738-0.458
		c1.489,0.228,1.863,0.921,1.863,0.921l0.998,11.626c0,0-2.242-0.919-3.609-0.919c-1.115,0-6.961,1.495-6.961,1.495
		s-0.834-0.829-0.998-1.495c-0.281-1.198,1.372-2.881,1.372-2.881s-4.355,0.23-4.729,2.764c-0.548,3.716,4.602,3.913,4.602,3.913
		l7.34,3.8l-6.593-1.151c0,0-2.441,0.23-3.854,0.806c-1.464,0.596-3.357,2.188-3.357,2.188s1.863-0.23,3.235-0.348
		c2.012-0.166,3.726,0.233,5.717,0.694c1.991,0.46,5.098,0.806,5.098,0.806s-1.617,2.416-4.601,1.955
		c-2.984-0.461-6.593-0.919-6.593-0.919s-0.246,1.037,1.494,2.416c1.74,1.385,0.502,0.46,3.48,1.385
		c2.984,0.918,6.342,3.567,6.342,3.567s-5.543-1.408-11.686,0.573c-5.349,1.73-9.843,2.334-15.048-0.919
		c-4.598-2.879-8.951-10.019-8.951-10.019s-1.866,4.724-2.736,10.365c-0.274,1.789-0.911,5.794-1.257,7.969l-7.26-2.889
		c0.737-2.523,1.705-5.73,2.552-8.189c2.085-6.063,6.091-15.312,6.091-15.312s-3.232,1.612-5.349-0.804
		c-3.621-4.146-2.92-12.852-0.87-15.084c2.864-3.107,7.463-2.073,7.463-2.073l2.114,3.685c0,0,4.599,0.133,9.325-4.604
		c4.474-4.491,4.853-7.485,4.853-7.485s6.971-2.247,17.279-0.806c9.075,1.267,14.798,6.104,14.798,6.104l1.74,6.907
		C154.831,74.884,148.734,72.039,141.528,71.084 M48.148,72.005l-2.986-2.764c1.763-1.556,5.919-4.688,8.599-6.792
		c8.057-6.327,20.267-14.731,36.738-22.869c27.843-13.764,38.193-17.603,54.331-21.029c-0.005,0.684,0.297,3.217,0.553,3.949
		c3.978,11.281,18.897,4.606,19.645,2.994c-0.747,3.685-3.972,7.928-10.942,8.287c-8.952,0.463-11.686-3.452-11.686-3.452
		s-31.334,7.368-49.238,15.66C75.253,54.275,48.148,72.005,48.148,72.005 M35.043,120.17c1.543-0.589,2.641-1.298,2.641-1.298
		c0.215-0.151,18.564-13.039,24.801-16.246c5.321-2.739,19.235-4.602,19.235-4.602s-11.688,7.138-18.155,11.281
		c-6.465,4.146-10.616,9.866-14.547,12.205c-3.48,2.073-7.337,3.685-13.057,1.612c-0.591-0.215-3.066-1.819-3.542-2.178
		C33.454,120.73,34.344,120.438,35.043,120.17 M14.508,134.571l1.154-5.276h16.394c8.435,0,13.743,4.038,13.743,11.531
		c0,4.883-2.245,8.271-6.531,10.16c4.489,1.434,5.443,5.928,6.122,9.966c0.34,2.083,1.157,3.194,3.606,3.194h0.883l-1.154,5.274
		H38.383c-5.101-5.666-1.497-16.023-8.568-16.023h-2.928v7.688c0,2.211,0.545,3.062,2.858,3.062l-1.159,5.274H15.662l-1.154-5.274
		c2.311,0,2.856-0.851,2.856-3.062v-23.452C17.364,135.421,16.819,134.571,14.508,134.571 M37.899,209.495l-3.678,0.599
		c-3.143-5.571-8.305-19.517-8.305-19.517s-0.01,15.97,0.105,22.829c0.018,1.085,0.023,2.825,1.531,2.825
		c0.468,0,0.941-0.123,1.387-0.264l-1.118,6.268c-4.041,1.477-8.036,3.051-12.003,4.719l-1.2-6.067
		c2.191-0.816,2.94-2.091,2.94-4.431c0,0,0.356-35.765-0.619-37.011c-0.453-0.584-1.192-0.696-1.884-0.696l-0.412,0.016l1.151-6.593
		l11.491-0.066l8.558,20.867l8.732-20.883l11.833-0.12l1.19,4.824c-2.172,0.056-2.8,0.729-2.8,2.928
		c0,2.789-0.104,22.692,0.783,23.463c0.235,0.204,0.903,0.046,1.198,0.046c0.144,0,0.284,1.156,0.43,2.528
		c-0.364,0.087-0.719,0.172-1.072,0.261c-4.187,1.07-8.062,2.598-11.417,4.374l-0.11,0.028l-1.208-4.957
		c0.824-0.192,1.74-0.494,2.26-1.216c0.184-0.256,0.793-3.537,0.793-3.537V186.13C46.457,186.13,38.147,209.293,37.899,209.495
		 M175.678,232.145l-0.701,0.373c-0.322,0.175-0.992,0.607-2.042,1.152c-1.064,0.558-2.523,1.223-4.401,1.86
		c-3.757,1.27-9.178,2.391-16.548,2.188c-11.43-0.308-20.98-2.897-29.759-5.605c-4.376-1.351-8.568-2.73-12.729-3.885
		c-4.123-1.141-8.215-2.058-12.404-2.477c-12.43-1.239-25.986-1.692-35.796,1.374c-5.53,1.729-8.043,3.024-12.763,5.845
		l-0.967,0.579l0.021-1.126c0.064-3.509,0.01-4.814-1.659-8.756c-0.901-2.134-1.361-3.07-1.804-3.736
		c-0.225-0.332-0.45-0.606-0.724-0.919c-0.297-0.335-0.645-0.714-1.098-1.241l-0.407-0.473l0.471-0.407
		c3.675-3.199,7.616-4.96,14.995-7.12c9.113-2.672,25.694-5.317,51.284,0.924c5.754,1.405,13.407,4.425,22.092,6.872
		c8.646,2.431,18.268,4.271,28.039,3.367c2.313-0.215,7.678-1.687,12.412-3.534l1.06-0.412l-1.781,9.275L175.678,232.145z
		 M174.056,169.178h-10.032c-4.954-4.753-1.459-13.441-8.317-13.441h-2.841v6.449c0,1.858,0.527,2.569,2.77,2.569l-1.121,4.423
		h-12.54l-1.121-4.423c2.242,0,2.769-0.711,2.769-2.569v-19.67c0-1.858-0.526-2.569-2.769-2.569l1.121-4.428h15.908
		c8.184,0,13.333,3.389,13.333,9.671c0,4.098-2.175,6.943-6.337,8.525c4.361,1.203,5.282,4.975,5.943,8.363
		c0.327,1.745,1.12,2.677,3.495,2.677h0.86L174.056,169.178z M193.188,218.944c-7.56,0.225-15.433-4.571-18.514-8.894l2.053-10.229
		l3.25,0.687c0.906,4.392,5.282,10.615,9.95,10.615c2.605,0,3.823-1.899,3.823-4.366c0-9.791-18.574-6.68-18.574-22.536
		c0-7.796,6.316-12.843,13.691-12.843c4.141,0,9.239,1.28,12.561,3.862l-1.837,9.958l-3.394-0.33
		c-1.055-3.673-3.772-6.503-7.724-6.503c-2.616,0-4.54,1.794-4.54,4.479c0,8.609,18.83,3.471,18.83,23.883
		C202.765,213.027,200.252,218.944,193.188,218.944"/>
	<path fill="#14234B" d="M106.678,176.845h-4.036l-0.185,9.315l3.642-0.013c2.881,0,5.905-1.224,5.905-4.611
		C112.005,178.28,109.659,176.845,106.678,176.845"/>
	<path fill="#14234B" d="M156.561,140.657h-3.695v9.669h3.563c3.695,0,5.677-1.857,5.677-4.806
		C162.104,142.569,160.257,140.657,156.561,140.657"/>
	<path fill="#14234B" d="M136.45,177.116l-0.169,9.776c1.388,0.071,2.79,0.223,4.183,0.223c2.979,0,5.374-1.364,5.374-4.684
		C145.838,176.633,140.556,177.198,136.45,177.116"/>
	<path fill="#14234B" d="M115.117,82.682c0,0-1.039,2.992-1.315,4.98c-0.276,1.95-0.113,5.044-0.113,5.044s1.336,0.888,2.969,1.866
		c1.633,0.973,4.976,1.495,4.976,1.495s-1.945-2.534-3.972-6.48C115.634,85.641,115.117,82.682,115.117,82.682"/>
	<polygon fill="#14234B" points="179.809,225.544 180.766,225.544 180.766,229.032 181.928,229.032 181.928,225.544 182.89,225.544 
		182.89,224.562 179.809,224.562 	"/>
	<polygon fill="#14234B" points="186.913,224.562 185.951,226.949 185.045,224.562 183.903,224.562 183.141,229.032 
		184.298,229.032 184.671,226.458 184.682,226.458 185.71,229.032 186.171,229.032 187.246,226.458 187.256,226.458 
		187.584,229.032 188.745,229.032 188.07,224.562 	"/>
	<g>
		<path fill="#B2B1AE" d="M72.272,120.129c-8.707,7.827-22.135,10.594-22.135,10.594s-1.431,0.107-3.762-0.046
			c1.267,1.433,2.242,3.158,2.841,5.175c3.934-3.594,9.379-5.093,15.383-5.093c3.066,0,5.979,0.386,8.614,1.235l13.479-22.688
			l2.644,1.055l1.584-4.737l-4.228-1.151C86.693,104.472,80.973,112.303,72.272,120.129"/>
		<path fill="#B2B1AE" d="M209.675,172.1l-3.624-2.81c-1.049-0.813-2.165-1.515-3.316-2.119l2.523-9.753h-5.042l0.011-5.489
			l12.627-2.391l-3.107-21.651h-59.711l-2.934-10.205c1.208-0.86,2.309-1.858,3.051-2.559c1.019-0.967,2.119-2.16,2.119-2.16
			l6.321-10.245c0.952-0.425,8.481-3.12,13.4-6.073c4.248-2.557,10.19-7.601,10.19-7.601s1.797-7.941,2.595-13.955
			c0.814-6.145,0.763-15.071,0.39-21.044C183.182,22.039,164.034,5,164.034,5s-30.588,1.151-76.845,23.486
			C52.44,45.267,30.219,68.515,30.219,68.515s3.439,5.814,6.293,9.054c2.721,3.089,6.838,7.043,12.372,10.36
			c2.582,1.546,5.732,3.091,8.898,4.504c-0.371,0.169-0.735,0.348-1.093,0.532c-3.741,1.922-9.837,5.087-15.255,8.742
			c-4.806,3.245-9.919,7.524-10.953,8.249c-0.463,0.179-4.387,0.952-4.712,0.962c-6.219,0.23-10.695,0-10.695,0
			s2.257,8.249,3.317,10.849H9.604l-4.458,20.34h4.686v14.505H5.146l3.184,14.531l-2.718,15.52l4.387-0.174
			c0.056,3.321,0.079,7.637,0.084,11.946c0.007,6.508-0.023,13.023-0.041,16.123l-4.051,1.518l4.228,21.405l8.517-3.58
			c3.857-1.623,7.742-3.153,11.67-4.587l3.995-1.458l1.482-6.88c0.873,1.088,1.536,2.188,2.342,3.793
			c0.205,0.415,0.392,0.824,0.563,1.239l0.32,1.31l0.153-0.041c1.267,3.809,1.282,7.701,1.098,11.03l-0.151,2.718l2.631,0.709
			c1.157,0.311,2.073,0.568,2.907,0.763c0.988,0.23,1.876,0.382,2.843,0.445c2.001,0.136,4.179-0.109,7.491-0.673
			c2.434-0.414,5.039-1.533,6.954-2.441c0.972-0.461,1.845-0.906,2.539-1.257l0.85-0.435c8.328-2.485,12.563-1.429,15.381-0.489
			l5.323,1.879l-2.398-7.775c3.967,0.2,7.695,0.594,12.525,1.356c11.363,1.802,23.705,6.749,28.393,8.006
			c9.72,2.607,17.449,3.511,25.121,3.839c18.774,0.811,32.778-8.691,32.947-8.81l3.112-2.113l-2.539-2.948h6.977v-4.641
			c0.64,0.034,1.279,0.049,1.925,0.034c13.84,0,17.11-12.515,17.11-19.747c0-6.654-1.647-11.594-4.202-15.299L209.675,172.1z
			 M182.89,225.544h-0.962v3.488h-1.162v-3.488h-0.957v-0.982h3.081V225.544z M187.584,229.032l-0.328-2.574h-0.01l-1.075,2.574
			h-0.461l-1.028-2.574h-0.011l-0.373,2.574h-1.157l0.763-4.471h1.142l0.906,2.388l0.962-2.388h1.157l0.675,4.471H187.584z
			 M206.875,206.727c0,6.849-2.953,16.322-13.687,16.322c-6.408,0.153-12.807-2.587-17.315-6.045l-1.658,7.504l7.616,8.86
			c0,0-13.252,8.995-30.921,8.232c-7.452-0.322-14.951-1.197-24.39-3.729c-4.744-1.274-17.243-6.26-28.744-8.082
			c-6.907-1.09-11.629-1.448-17.868-1.551l2.331,6.523c-4.504-2.02-7.923-2.485-16.778,0.156c-0.937,0.278-6.053,3.378-9.945,4.038
			c-6.577,1.121-7.355,0.732-11.806-0.466c0.233-4.194,0.21-9.846-2.488-15.225c-1.477-2.945-2.623-4.522-4.97-6.836
			c0.924-0.924,1.994-1.843,3.194-2.733l-0.2-0.864l-5.858,1.561l-1.935,10.893l-2.224,0.811c-3.977,1.454-7.916,3.002-11.821,4.646
			l-4.645,1.952l-2.856-14.431l3.268-1.224l0.292-0.115c0.002-0.104-0.018-0.243-0.018-0.489c0.002-0.291,0.064-9.146,0.054-18.006
			c-0.005-4.42-0.028-8.845-0.084-12.213c-0.023-1.27-0.051-2.386-0.082-3.291l-3.622,0.146l2.101-12.003l-2.418-11.032h3.854
			V138.68H9.399l2.958-13.489h16.226c-5.07-3.854-6.549-9.896-6.549-9.896s4.476,0.463,7.215,0.463c2.735,0,4.972-1.387,4.972-1.387
			s18.652-13.124,25.365-16.576c6.715-3.455,17.162-3.913,17.162-3.913s-14.426-4.606-22.879-9.674
			c-9.741-5.833-16.413-14.966-16.413-14.966s28.239-23.1,48.989-34.079c22.631-11.972,41.903-18.534,66.149-23.255
			c-1.494,3.685-1.991,3.685-1.74,8.059c0.303,5.292,8.456,5.528,11.686,1.842c2.012-2.293,2.738-5.297,2.738-5.297
			s11.439,13.817,14.67,39.146c1.443,11.278-2.984,30.163-2.984,30.163s-3.977,4.146-7.959,6.219
			c-3.425,1.786-14.67,6.446-14.67,6.446l-6.587,11.166c0,0-2.718,2.754-4.853,4.033c-0.778,0.461-1.797,0.919-2.743,1.3
			l4.688,16.327h61.938l2.222,15.473l-12.028,2.277l-0.153-0.859l-0.036,12.638h4.054l-2.139,8.261
			c1.883,0.722,3.685,1.677,5.251,2.892l1.98,1.536l-2.983,16.123l-3.517-0.341C203.543,192.522,206.875,197.656,206.875,206.727"/>
	</g>
	<path fill="#B2B1AE" d="M138.293,61.874c-10.309-1.441-17.279,0.806-17.279,0.806s-0.379,2.994-4.853,7.485
		c-4.726,4.737-9.325,4.604-9.325,4.604l-2.114-3.685c0,0-4.599-1.034-7.463,2.073c-2.05,2.232-2.751,10.938,0.87,15.084
		c2.117,2.416,5.349,0.804,5.349,0.804s-4.005,9.249-6.091,15.312c-0.847,2.459-1.815,5.666-2.552,8.189l7.26,2.889
		c0.346-2.175,0.983-6.18,1.257-7.969c0.87-5.641,2.736-10.365,2.736-10.365s4.353,7.14,8.951,10.019
		c5.205,3.253,9.699,2.649,15.048,0.919c6.143-1.981,11.686-0.573,11.686-0.573s-3.357-2.649-6.342-3.567
		c-2.979-0.924-1.74,0-3.48-1.385c-1.74-1.379-1.494-2.416-1.494-2.416s3.608,0.458,6.593,0.919c2.983,0.46,4.601-1.955,4.601-1.955
		s-3.106-0.346-5.098-0.806c-1.991-0.461-3.705-0.86-5.717-0.694c-1.372,0.118-3.235,0.348-3.235,0.348s1.894-1.592,3.357-2.188
		c1.413-0.576,3.854-0.806,3.854-0.806l6.593,1.151l-7.34-3.8c0,0-5.149-0.197-4.602-3.913c0.374-2.534,4.729-2.764,4.729-2.764
		s-1.653,1.684-1.372,2.881c0.164,0.666,0.998,1.495,0.998,1.495s5.846-1.495,6.961-1.495c1.367,0,3.609,0.919,3.609,0.919
		l-0.998-11.626c0,0-0.374-0.694-1.863-0.921c-1.495-0.23-2.738,0.458-2.738,0.458l-0.993,1.728
		c-3.563,1.372-7.12,1.303-9.822,1.039c-3.987-0.394-5.221-1.612-5.221-1.612l3.726-2.073c0,0-2.487-0.691-4.724-0.46
		c-2.237,0.23-3.48,0.46-3.48,0.46l6.966-5.988c0,0,4.1-0.921,16.287,0.691c7.206,0.955,13.303,3.8,13.303,3.8l-1.74-6.907
		C153.091,67.977,147.368,63.14,138.293,61.874 M121.633,96.067c0,0-3.343-0.522-4.976-1.495c-1.633-0.978-2.969-1.866-2.969-1.866
		s-0.163-3.094,0.113-5.044c0.276-1.989,1.315-4.98,1.315-4.98s0.517,2.958,2.544,6.905
		C119.688,93.533,121.633,96.067,121.633,96.067"/>
	<path fill="#B2B1AE" d="M148.862,81.677l1.244,9.901c0,0,3.583-2.956,3.48-5.758C153.464,82.483,148.862,81.677,148.862,81.677"/>
	<path fill="#FFFFFF" d="M183.935,182.844c0-2.685,1.924-4.479,4.54-4.479c3.951,0,6.669,2.83,7.724,6.503l3.394,0.33l1.837-9.958
		c-3.321-2.582-8.42-3.862-12.561-3.862c-7.375,0-13.691,5.047-13.691,12.843c0,15.856,18.574,12.745,18.574,22.536
		c0,2.467-1.218,4.366-3.823,4.366c-4.668,0-9.044-6.224-9.95-10.615l-3.25-0.687l-2.053,10.229
		c3.081,4.322,10.954,9.118,18.514,8.894c7.063,0,9.576-5.917,9.576-12.218C202.765,186.314,183.935,191.453,183.935,182.844"/>
	<path fill="#FFFFFF" d="M14.508,164.146l1.154,5.274h12.924l1.159-5.274c-2.313,0-2.858-0.851-2.858-3.062v-7.688h2.928
		c7.071,0,3.468,10.357,8.568,16.023h10.342l1.154-5.274h-0.883c-2.449,0-3.266-1.111-3.606-3.194
		c-0.678-4.038-1.633-8.532-6.122-9.966c4.287-1.889,6.531-5.277,6.531-10.16c0-7.493-5.308-11.531-13.743-11.531H15.662
		l-1.154,5.276c2.311,0,2.856,0.85,2.856,3.062v23.452C17.364,163.296,16.819,164.146,14.508,164.146 M26.887,135.421h3.811
		c3.811,0,5.715,2.278,5.715,5.795c0,3.516-2.042,5.732-5.851,5.732h-3.675V135.421z"/>
	<path fill="#FFFFFF" d="M64.599,169.974c10.347,0,17.426-4.748,17.426-17.554c0-12.807-7.079-17.552-17.426-17.552
		c-10.275,0-17.42,4.745-17.42,17.552C47.179,165.226,54.324,169.974,64.599,169.974 M64.599,141.049
		c5.037,0,7.353,2.926,7.353,11.371s-2.316,11.37-7.353,11.37c-4.967,0-7.35-2.925-7.35-11.37S59.632,141.049,64.599,141.049"/>
	<path fill="#FFFFFF" d="M81.851,164.949l1.134,4.472h16.138c8.34,0,13.542-3.479,13.542-9.825c0-3.808-1.934-6.735-6.338-8.445
		c2.802-1.326,4.668-3.809,4.668-6.733c0-5.797-4.865-8.996-13.003-8.996H82.985l-1.134,4.469c2.267,0,2.8,0.665,2.8,2.595v19.87
		C84.651,164.23,84.118,164.949,81.851,164.949 M93.989,140.829h3.002c3.534,0,5.003,1.6,5.003,4.028s-1.602,4.084-5.003,4.084
		h-3.002V140.829z M93.989,154.405h3.468c3.936,0,5.938,1.986,5.938,4.86c0,3.032-1.871,4.965-5.605,4.965h-3.8V154.405z"/>
	<path fill="#FFFFFF" d="M136.732,160.479c-0.614,2.649-1.224,3.422-4.832,3.422h-7.15v-9.27h4.561c2.313,0,3.199,0.384,3.199,2.149
		l3.946-0.883v-7.729l-3.946-0.939c0,1.769-0.886,2.155-3.199,2.155h-4.561v-8.556h4.832c4.089,0,4.765,0.55,5.174,3.255
		l3.947-0.716v-7.947H113.52l-1.151,4.469c2.313,0,2.856,0.665,2.856,2.595v19.87c0,1.876-0.543,2.595-2.856,2.595l1.151,4.472
		h26.141l1.223-8.169L136.732,160.479z"/>
	<path fill="#FFFFFF" d="M174.316,164.755c-2.375,0-3.168-0.932-3.495-2.677c-0.661-3.389-1.582-7.16-5.943-8.363
		c4.162-1.582,6.337-4.428,6.337-8.525c0-6.282-5.149-9.671-13.333-9.671h-15.908l-1.121,4.428c2.242,0,2.769,0.711,2.769,2.569
		v19.67c0,1.858-0.526,2.569-2.769,2.569l1.121,4.423h12.54l1.121-4.423c-2.242,0-2.77-0.711-2.77-2.569v-6.449h2.841
		c6.858,0,3.363,8.688,8.317,13.441h10.032l1.121-4.423H174.316z M156.428,150.326h-3.563v-9.669h3.695
		c3.696,0,5.544,1.912,5.544,4.863C162.104,148.469,160.123,150.326,156.428,150.326"/>
	<path fill="#FFFFFF" d="M180.418,140.829h2.723v21.525c0,1.876-0.476,2.595-2.855,2.595l1.223,4.472h12.863l1.156-4.472
		c-2.313,0-2.855-0.719-2.855-2.595v-21.525h2.789c3.741,0,4.422,1.103,4.832,3.422l4.084-0.773l-1.156-8.057h-30.558l-1.161,8.057
		l4.084,0.773C175.995,141.932,176.677,140.829,180.418,140.829"/>
	<path fill="#FFFFFF" d="M46.457,200.712c0,0-0.609,3.281-0.793,3.537c-0.52,0.722-1.436,1.023-2.26,1.216l1.208,4.957l0.11-0.028
		c3.355-1.776,7.23-3.304,11.417-4.374c0.353-0.089,0.708-0.174,1.072-0.261c-0.146-1.372-0.287-2.528-0.43-2.528
		c-0.294,0-0.962,0.158-1.198-0.046c-0.888-0.771-0.783-20.674-0.783-23.463c0-2.198,0.627-2.872,2.8-2.928l-1.19-4.824
		l-11.833,0.12l-8.732,20.883l-8.558-20.867l-11.491,0.066l-1.151,6.593l0.412-0.016c0.691,0,1.431,0.112,1.884,0.696
		c0.975,1.246,0.619,37.011,0.619,37.011c0,2.34-0.75,3.614-2.94,4.431l1.2,6.067c3.967-1.668,7.962-3.242,12.003-4.719l1.118-6.268
		c-0.445,0.141-0.918,0.264-1.387,0.264c-1.508,0-1.513-1.74-1.531-2.825c-0.115-6.859-0.105-22.829-0.105-22.829
		s5.162,13.945,8.305,19.517l3.678-0.599c0.248-0.202,8.558-23.365,8.558-23.365V200.712z"/>
	<path fill="#FFFFFF" d="M62.17,204.745c6.56-1.126,14.007-1.653,21.689-1.553c4.292-2.984,6.884-7.867,6.884-14.902
		c0-11.537-5.761-16.917-17.049-16.917c-12.366,0-17.134,7.104-17.134,18.964C56.561,196.674,58.048,201.969,62.17,204.745
		 M73.677,177.577c6.721,0,7.176,5.614,7.176,11.051c0,5.978-1.088,11.839-8.259,11.839c-5.825,0-6.15-6.563-6.15-10.989
		C66.444,184.262,66.995,177.577,73.677,177.577"/>
	<path fill="#FFFFFF" d="M155.184,182.572c0-13.034-16.42-10.656-25.09-10.656l-4.699-0.005l-1.229,4.322
		c1.976,0.018,2.79,0.458,2.79,2.557c0,2.566,0.64,19.491-0.968,21.257c-0.558,0.499-1.459,0.481-2.17,0.445
		c-6.07-1.295-1.295-8.796-9.137-11.015c3.742-1.257,6.654-3.893,6.654-8.144c0-7.565-7.299-9.434-13.463-9.434H97.406h-5.817
		l-1.21,4.314c1.945-0.018,2.792,0.395,2.792,2.473c0,2.621,0.015,20.107-0.891,21.026c-0.558,0.568-1.513,0.632-2.252,0.666
		l0.768,3.07c3.166,0.192,6.339,0.491,9.474,0.901c1.172-0.025,2.339-0.041,3.511-0.054l1.229-4.267
		c-1.935,0.016-2.774-0.379-2.774-2.451c0-2.068,0.082-4.142,0.121-6.209l1.446-0.011c10.097,0,4.545,10.646,9.704,13.026
		c0.261,0.121,10.268,0.472,11.695,0.533c4.151,0.322,8.297,0.731,12.433,1.228l1.233-4.371c-2.012-0.217-2.8-0.78-2.8-2.901
		c0-2.171,0.077-4.344,0.113-6.517l2.912,0.218c7.437,0.691,3.67,12.044,8.317,14.977c0.261,0.161,10.605,2.188,12.044,2.475
		l-0.021-0.235c4.182,0.898,8.722,2.007,12.842,3.041l1.208-5.083c-2.222-0.496-2.83-1.438-2.83-3.703
		c0-3.109-0.573-25.001,0.389-26.03c0.568-0.608,1.521-0.624,2.288-0.594l-1.096-5.387l-12.775-0.049l-1.279,4.924
		c2.252,0.06,2.8,0.742,2.8,2.989c0,2.811,0.025,23.619-0.84,24.374c-0.461,0.399-1.116,0.404-1.725,0.335
		c-7.146-1.742-1.715-10.203-9.869-13.333C152.717,190.015,155.184,187.076,155.184,182.572 M106.1,186.147l-3.642,0.013
		l0.185-9.315h4.036c2.981,0,5.327,1.436,5.327,4.691C112.005,184.924,108.981,186.147,106.1,186.147 M140.464,187.115
		c-1.393,0-2.795-0.151-4.183-0.223l0.169-9.776c4.105,0.082,9.388-0.483,9.388,5.315
		C145.838,185.751,143.442,187.115,140.464,187.115"/>
	<path fill="#FFFFFF" d="M60.364,219.886c0.039,0.095,0.056,0.174,0.056,0.243c0,0.161-0.089,0.259-0.284,0.43
		c-0.98,0.883-1.714,1.241-2.661,1.569c-1.999,0.688-3.174,0.146-3.174-1.311c0-1.489,1.298-2.918,3.261-3.593
		c1.454-0.502,2.802-0.407,2.802,0.087c0,0.051-0.015,0.107-0.051,0.174l0.228,0.008l1.456-3.447l-0.212-0.011
		c-0.156,0.246-0.279,0.374-0.438,0.431c-0.474,0.161-1.804-0.169-4.067,0.611c-3.573,1.23-5.697,4.028-5.697,6.713
		c0,2.715,2.086,4.049,5.925,2.728c2.7-0.932,3.964-2.4,4.261-2.503c0.069-0.025,0.174,0.011,0.333,0.113l0.228-0.185l-1.753-2.255
		L60.364,219.886z"/>
	<path fill="#FFFFFF" d="M70.616,211.86c-3.258,0.455-5.416,2.861-5.416,5.51c0,2.646,2.191,4.461,5.416,4.005
		c3.227-0.45,5.417-2.882,5.417-5.527C76.034,213.201,73.876,211.399,70.616,211.86 M70.636,219.235
		c-1.702,0.241-2.756-0.665-2.756-2.227c0-1.556,1.087-2.779,2.736-3.012c1.666-0.233,2.733,0.704,2.733,2.244
		C73.349,217.782,72.3,219.003,70.636,219.235"/>
	<path fill="#FFFFFF" d="M88.773,218.823l-5.664-0.396v-6.275c0-0.332,0.09-0.414,0.458-0.476v-0.246l-3.491-0.24v0.24
		c0.368,0.118,0.44,0.21,0.44,0.543v7.693c0,0.335-0.072,0.417-0.44,0.48v0.246l8.696,0.606c0.333,0.023,0.422,0.1,0.507,0.474
		l0.249,0.016v-3.066l-0.249-0.016C89.196,218.765,89.106,218.847,88.773,218.823"/>
	<path fill="#FFFFFF" d="M97.739,212.735c-3.263-0.522-5.418,1.244-5.418,3.89c0,2.646,2.19,5.116,5.418,5.625
		c3.222,0.513,5.413-1.261,5.413-3.91C103.151,215.693,100.999,213.247,97.739,212.735 M97.754,220.116
		c-1.702-0.271-2.751-1.489-2.751-3.048c0-1.562,1.087-2.46,2.736-2.198c1.663,0.266,2.733,1.52,2.733,3.063
		C100.472,219.477,99.42,220.377,97.754,220.116"/>
	<path fill="#FFFFFF" d="M114.129,216.631c0.369,0.179,0.456,0.289,0.456,0.621v4.436l-3.874-5.208
		c-0.161-0.215-0.281-0.351-0.281-0.474s0.104-0.199,0.348-0.21v-0.248l-4.03-1.003v0.248c0.369,0.177,0.438,0.281,0.438,0.614
		v7.698c0,0.332-0.069,0.401-0.438,0.396v0.248l3.104,0.773v-0.249c-0.371-0.176-0.438-0.283-0.438-0.616v-5.257l4.608,6.196
		c0.159,0.215,0.281,0.365,0.281,0.488s-0.107,0.205-0.353,0.215v0.243l3.332,0.832v-0.248c-0.369-0.177-0.456-0.289-0.456-0.622
		v-7.695c0-0.333,0.087-0.397,0.456-0.392v-0.248l-3.153-0.786V216.631z"/>
	<path fill="#FFFFFF" d="M121.612,218.724c0.368,0.194,0.435,0.302,0.435,0.635v7.698c0,0.333-0.066,0.399-0.435,0.382v0.248
		l3.485,0.998v-0.246c-0.363-0.194-0.455-0.307-0.455-0.64v-7.695c0-0.333,0.092-0.396,0.455-0.376v-0.246l-3.485-1.001V218.724z"/>
	<path fill="#FFFFFF" d="M139.02,231.548l-2.928-8.11c-0.107-0.307-0.158-0.532-0.158-0.58c0-0.192,0.066-0.246,0.261-0.218v-0.243
		l-4.575-1.139v0.243c0.194,0.063,0.266,0.153,0.266,0.345c0,0.072-0.057,0.251-0.158,0.507l-2.421,6.02
		c-0.189,0.496-0.313,0.921-0.824,1.06v0.246l3.138,0.78v-0.243c-0.246-0.133-0.364-0.287-0.364-0.515
		c0-0.087,0.016-0.171,0.067-0.281l0.368-0.906l4.279,1.067l0.368,1.09c0.071,0.21,0.103,0.344,0.103,0.431
		c0,0.156-0.103,0.235-0.333,0.232v0.243l3.368,0.84v-0.246C139.158,231.971,139.107,231.799,139.02,231.548 M132.254,227.126
		l1.489-3.678l1.592,4.448L132.254,227.126z"/>
	<path fill="#FFFFFF" d="M151.739,231.628l-5.661-0.494v-6.278c0-0.332,0.087-0.409,0.456-0.468v-0.243l-3.486-0.308v0.246
		c0.364,0.123,0.436,0.215,0.436,0.548v7.695c0,0.333-0.071,0.412-0.436,0.471v0.243l8.691,0.763
		c0.333,0.031,0.42,0.107,0.512,0.483l0.241,0.021v-3.068l-0.241-0.021C152.159,231.579,152.072,231.658,151.739,231.628"/>
	<path fill="#FFFFFF" d="M161.096,227.418c-1.966,0.102-2.979,0.243-2.979-0.474c0-0.548,0.824-1.091,2.277-1.241
		c1.72-0.182,3.312,0.194,3.312,0.688c0,0.051-0.03,0.122-0.051,0.23l0.23,0.081l1.12-2.571l-0.229-0.082
		c-0.118,0.223-0.226,0.253-0.42,0.273c-0.543,0.057-1.996-0.548-4.12-0.322c-2.806,0.297-4.505,1.702-4.505,3.348
		c0,1.668,1.418,2.359,4.259,2.165c1.72-0.11,2.841-0.246,2.841,0.771c0,0.649-0.809,1.189-2.277,1.344
		c-2.191,0.229-3.896-0.361-3.896-0.993c0-0.052,0.021-0.107,0.057-0.161l-0.23-0.082l-1.28,2.938l0.23,0.082
		c0.139-0.189,0.226-0.305,0.349-0.317c0.194-0.018,1.684,0.647,4.771,0.322c2.963-0.31,4.749-1.881,4.749-3.672
		C165.303,227.886,163.937,227.276,161.096,227.418"/>
	<path fill="#A6192E" d="M142.398,30.329c0,0,2.733,3.916,11.686,3.452c6.971-0.358,10.195-4.602,10.942-8.287
		c-0.747,1.612-15.667,8.287-19.645-2.994c-0.256-0.732-0.558-3.266-0.553-3.949c-16.138,3.427-26.487,7.266-54.331,21.029
		c-16.471,8.138-28.681,16.542-36.738,22.869c-2.679,2.104-6.835,5.236-8.599,6.792l2.986,2.764c0,0,27.105-17.73,45.012-26.017
		C111.064,37.696,142.398,30.329,142.398,30.329"/>
	<path fill="#A6192E" d="M49.019,121.511c3.931-2.339,8.082-8.059,14.547-12.205c6.467-4.143,18.155-11.281,18.155-11.281
		s-13.914,1.863-19.235,4.602c-6.237,3.207-24.586,16.095-24.801,16.246c0,0-1.098,0.709-2.641,1.298
		c-0.699,0.269-1.589,0.56-2.624,0.775c0.476,0.358,2.951,1.963,3.542,2.178C41.682,125.196,45.538,123.583,49.019,121.511"/>
	<path fill="#A6192E" d="M84.702,92.96c-0.494,4.602,3.734,7.596,3.734,7.596s-0.5-3.225,0.494-6.674
		c0.996-3.455,3.483-5.297,3.483-5.297S85.201,88.354,84.702,92.96"/>
	<polygon fill="#A6192E" points="89.313,116.364 80.563,131.312 112.056,131.312 114.866,126.148 	"/>
	<path fill="#B01F2E" d="M97.739,214.87c-1.648-0.262-2.736,0.637-2.736,2.198c0,1.559,1.049,2.776,2.751,3.048
		c1.666,0.261,2.718-0.64,2.718-2.184C100.472,216.39,99.402,215.136,97.739,214.87"/>
	<path fill="#A6192E" d="M70.616,213.997c-1.648,0.232-2.736,1.456-2.736,3.012c0,1.562,1.054,2.468,2.756,2.227
		c1.664-0.232,2.713-1.453,2.713-2.994C73.349,214.701,72.282,213.764,70.616,213.997"/>
	<polygon fill="#A6192E" points="132.254,227.126 135.335,227.896 133.743,223.448 	"/>
	<path fill="#A6192E" d="M170.468,226.264l1.781-9.275l-1.06,0.412c-4.734,1.848-10.099,3.319-12.412,3.534
		c-9.771,0.904-19.394-0.937-28.039-3.367c-8.686-2.447-16.338-5.467-22.092-6.872c-25.59-6.241-42.171-3.596-51.284-0.924
		c-7.378,2.16-11.319,3.921-14.995,7.12l-0.471,0.407l0.407,0.473c0.453,0.527,0.801,0.906,1.098,1.241
		c0.274,0.313,0.499,0.587,0.724,0.919c0.443,0.666,0.903,1.603,1.804,3.736c1.668,3.941,1.723,5.247,1.659,8.756l-0.021,1.126
		l0.967-0.579c4.719-2.82,7.232-4.115,12.763-5.845c9.81-3.066,23.366-2.613,35.796-1.374c4.189,0.419,8.282,1.336,12.404,2.477
		c4.16,1.154,8.353,2.534,12.729,3.885c8.778,2.708,18.329,5.298,29.759,5.605c7.37,0.202,12.791-0.919,16.548-2.188
		c1.878-0.638,3.337-1.303,4.401-1.86c1.05-0.545,1.72-0.978,2.042-1.152l0.701-0.373L170.468,226.264z M62.102,222.128
		c-0.159-0.103-0.264-0.139-0.333-0.113c-0.297,0.103-1.561,1.571-4.261,2.503c-3.839,1.321-5.925-0.013-5.925-2.728
		c0-2.685,2.124-5.482,5.697-6.713c2.263-0.78,3.593-0.45,4.067-0.611c0.159-0.057,0.281-0.185,0.438-0.431l0.212,0.011
		l-1.456,3.447l-0.228-0.008c0.036-0.066,0.051-0.123,0.051-0.174c0-0.494-1.349-0.589-2.802-0.087
		c-1.963,0.675-3.261,2.104-3.261,3.593c0,1.456,1.175,1.999,3.174,1.311c0.947-0.328,1.681-0.687,2.661-1.569
		c0.195-0.171,0.284-0.269,0.284-0.43c0-0.069-0.018-0.148-0.056-0.243l0.212-0.197l1.753,2.255L62.102,222.128z M70.616,221.375
		c-3.225,0.456-5.416-1.358-5.416-4.005c0-2.648,2.157-5.055,5.416-5.51c3.26-0.461,5.417,1.341,5.417,3.987
		C76.034,218.493,73.843,220.925,70.616,221.375 M89.529,221.488l-0.249-0.016c-0.084-0.374-0.174-0.45-0.507-0.474l-8.696-0.606
		v-0.246c0.368-0.063,0.44-0.146,0.44-0.48v-7.693c0-0.333-0.072-0.425-0.44-0.543v-0.24l3.491,0.24v0.246
		c-0.369,0.062-0.458,0.144-0.458,0.476v6.275l5.664,0.396c0.333,0.023,0.422-0.059,0.507-0.417l0.249,0.016V221.488z
		 M97.739,222.25c-3.228-0.509-5.418-2.979-5.418-5.625c0-2.646,2.155-4.412,5.418-3.89c3.26,0.512,5.413,2.958,5.413,5.604
		C103.151,220.989,100.96,222.763,97.739,222.25 M117.282,217.419c-0.369-0.006-0.456,0.059-0.456,0.392v7.695
		c0,0.333,0.087,0.445,0.456,0.622v0.248l-3.332-0.832v-0.243c0.245-0.01,0.353-0.092,0.353-0.215s-0.122-0.273-0.281-0.488
		l-4.608-6.196v5.257c0,0.333,0.067,0.44,0.438,0.616v0.249l-3.104-0.773v-0.248c0.369,0.005,0.438-0.064,0.438-0.396v-7.698
		c0-0.333-0.069-0.438-0.438-0.614v-0.248l4.03,1.003v0.248c-0.243,0.011-0.348,0.087-0.348,0.21s0.12,0.259,0.281,0.474
		l3.874,5.208v-4.436c0-0.332-0.087-0.442-0.456-0.621v-0.246l3.153,0.786V217.419z M125.098,219.728
		c-0.363-0.021-0.455,0.043-0.455,0.376v7.695c0,0.333,0.092,0.445,0.455,0.64v0.246l-3.485-0.998v-0.248
		c0.368,0.018,0.435-0.049,0.435-0.382v-7.698c0-0.333-0.066-0.44-0.435-0.635v-0.243l3.485,1.001V219.728z M139.476,232.416
		l-3.368-0.84v-0.243c0.23,0.003,0.333-0.076,0.333-0.232c0-0.087-0.031-0.221-0.103-0.431l-0.368-1.09l-4.279-1.067l-0.368,0.906
		c-0.052,0.11-0.067,0.194-0.067,0.281c0,0.228,0.118,0.382,0.364,0.515v0.243l-3.138-0.78v-0.246
		c0.512-0.139,0.635-0.563,0.824-1.06l2.421-6.02c0.102-0.256,0.158-0.435,0.158-0.507c0-0.191-0.071-0.281-0.266-0.345v-0.243
		l4.575,1.139v0.243c-0.194-0.028-0.261,0.025-0.261,0.218c0,0.048,0.051,0.273,0.158,0.58l2.928,8.11
		c0.088,0.251,0.139,0.423,0.456,0.622V232.416z M152.492,234.307l-0.241-0.021c-0.092-0.376-0.179-0.452-0.512-0.483l-8.691-0.763
		v-0.243c0.364-0.059,0.436-0.138,0.436-0.471v-7.695c0-0.333-0.071-0.425-0.436-0.548v-0.246l3.486,0.308v0.243
		c-0.369,0.059-0.456,0.136-0.456,0.468v6.278l5.661,0.494c0.333,0.03,0.42-0.049,0.512-0.41l0.241,0.021V234.307z M160.554,233.416
		c-3.087,0.325-4.576-0.34-4.771-0.322c-0.123,0.013-0.21,0.128-0.349,0.317l-0.23-0.082l1.28-2.938l0.23,0.082
		c-0.036,0.054-0.057,0.109-0.057,0.161c0,0.632,1.704,1.223,3.896,0.993c1.469-0.154,2.277-0.694,2.277-1.344
		c0-1.017-1.121-0.881-2.841-0.771c-2.841,0.194-4.259-0.497-4.259-2.165c0-1.646,1.699-3.051,4.505-3.348
		c2.124-0.226,3.577,0.379,4.12,0.322c0.194-0.021,0.302-0.051,0.42-0.273l0.229,0.082l-1.12,2.571l-0.23-0.081
		c0.021-0.108,0.051-0.18,0.051-0.23c0-0.494-1.592-0.87-3.312-0.688c-1.453,0.15-2.277,0.693-2.277,1.241
		c0,0.717,1.013,0.575,2.979,0.474c2.841-0.142,4.207,0.468,4.207,2.326C165.303,231.535,163.517,233.106,160.554,233.416"/>
</g>
</svg>
