<?xml version="1.0" encoding="UTF-8" standalone="no"?>
<!-- Created with Inkscape (http://www.inkscape.org/) -->

<svg
   xmlns:dc="http://purl.org/dc/elements/1.1/"
   xmlns:cc="http://creativecommons.org/ns#"
   xmlns:rdf="http://www.w3.org/1999/02/22-rdf-syntax-ns#"
   xmlns:svg="http://www.w3.org/2000/svg"
   xmlns="http://www.w3.org/2000/svg"
   version="1.1"
   width="182"
   height="200"
   id="svg20647">
  <defs
     id="defs20649" />
  <metadata
     id="metadata20652">
    <rdf:RDF>
      <cc:Work
         rdf:about="">
        <dc:format>image/svg+xml</dc:format>
        <dc:type
           rdf:resource="http://purl.org/dc/dcmitype/StillImage" />
        <dc:title></dc:title>
      </cc:Work>
    </rdf:RDF>
  </metadata>
  <path
     d="m 121.11563,57.70922 c -0.47665,1.57663 -0.50925,3.07586 -0.30962,4.4936 0.19962,1.91885 1.62552,2.96586 1.62552,2.96586 0.59073,-1.66626 1.64181,-1.72737 2.01662,-3.38955 0.42777,-2.71735 -0.56221,-2.96586 -0.59073,-4.4936 -0.0285,-1.52775 0.28111,-3.33252 0.28111,-3.33252 0,0 -2.54217,2.1755 -3.0229,3.75621"
     id="path6552"
     style="fill:#000000;fill-opacity:1;fill-rule:nonzero;stroke:none" />
  <path
     d="m 77.649927,60.68323 c -0.56221,2.07366 0.260735,4.02917 1.205899,5.00285 0.94109,0.9859 3.540292,2.3018 3.540292,2.3018 0,0 -1.845515,-1.84959 -1.800701,-4.51805 0.02852,-1.99218 2.782531,-3.05141 2.138841,-5.76061 -0.639615,-2.7092 -2.562535,-4.1025 -2.562535,-4.1025 0,0 0.643689,1.58478 0.342214,2.86401 -0.529618,1.57663 -2.297726,2.14699 -2.86401,4.2125"
     id="path6556"
     style="fill:#000000;fill-opacity:1;fill-rule:nonzero;stroke:none" />
  <path
     d="m 109.81571,71.96979 c -4.46229,-9.555308 -5.41804,-2.829902 0,0 M 43.92714,96.02251 43.89862,96.26695 M 71.178012,79.55139 c 0.452212,-6.18023 -0.02852,-10.6005 -2.228469,-15.31817 -1.576632,-3.85807 -4.493604,-7.52058 -8.380184,-9.56979 -0.537766,-0.2974 -1.161085,-0.53369 -1.694777,-0.94516 -0.533692,-2.14699 -1.48293,-4.25324 -3.295853,-5.80543 -1.784405,-1.50737 -3.955838,-2.30995 -6.26986,-2.42402 -6.571336,0.43999 -11.492708,3.87028 -15.45262,8.04612 l -0.354436,0.11407 c -2.827345,0.36258 -5.41025,1.34034 -7.728347,2.94549 -5.736169,5.23507 -12.099731,9.68386 -19.2862379,11.94084 -0.06111,0.0937 -0.06111,0.30555 0,0.39111 2.6766071,2.0818 6.7750349,2.02069 9.9527419,1.04294 4.253239,-1.69886 6.563187,-2.5381 10.331622,-5.48359 0.741465,-0.50924 1.466634,-1.53996 1.670333,-1.38922 -0.790353,1.38922 -2.179581,3.98843 -2.648089,6.49393 -0.46036,2.50957 -3.055488,4.45693 -6.172085,6.55096 0.41962,0.45629 1.531818,-0.19148 1.906624,-0.28518 0.370733,-0.0937 2.415872,-0.73332 4.59138,-2.0818 2.179581,-1.34442 2.774382,-2.06144 4.289904,-3.45474 3.601402,-3.78881 6.294305,-8.42907 7.777235,-11.12198 3.801026,-0.39925 10.71865,-2.96993 12.934897,-1.58885 l 0.615172,0.33814 c -0.46036,0.74147 -1.218121,2.32624 -1.218121,2.32624 l -1.776257,4.10658 c 0,0 -3.438442,-0.42777 -5.055814,-1.13664 -3.540291,-1.5033 -4.403976,-3.23067 -4.403976,-3.23067 0,0 -0.268883,2.33032 0.03259,3.38955 0.305549,1.04702 1.470708,2.55032 2.411798,3.23067 0.941091,0.68443 4.522122,2.5992 4.742117,3.38956 -0.277031,0.73739 -3.075857,10.75531 -4.114723,15.93335 -0.02852,0.14666 -0.12222,0.5011 -0.354437,0.35443 -2.171433,-2.77031 -4.302126,-4.90915 -8.205003,-5.53247 -3.902876,-0.60702 -8.029821,2.23255 -10.8205,5.74432 -2.256987,2.75809 -3.42622,6.72207 -3.44659,7.62242 -0.171107,4.41213 -4.232869,5.25544 -4.232869,5.25544 -2.489204,0.14667 -4.069909,-1.84959 -4.069909,-1.84959 0,0 -0.822945,4.40805 3.161411,5.9195 0.96146,0.27296 3.238817,-0.10592 4.746191,-2.8803 0.753687,-1.7396 0.843314,-3.51178 1.075531,-4.86434 0.228144,-1.35664 0.822945,-2.57068 1.670334,-3.85806 2.199951,-2.82735 5.499877,-4.25324 9.097205,-3.59733 4.664711,1.01035 7.75279,5.25951 10.844944,8.61647 0.114071,0.0896 0.203699,0.33815 0.02852,0.41148 -1.132568,-0.11 -2.228469,-0.38296 -3.44659,-0.38296 -3.862137,-0.0856 -7.129471,1.33627 -10.131997,3.33659 -4.518048,2.75402 -7.223173,7.63465 -7.789457,12.73935 0.06518,0.15481 -0.02444,0.57036 0.268883,0.45221 2.346615,-5.17803 7.638719,-8.68166 13.342296,-8.76721 4.012874,-0.20777 7.487982,1.45441 10.844944,3.06364 0.118146,0.11407 0.146664,0.26481 0,0.37888 -3.238817,0.92072 -6.518373,1.85366 -9.060539,4.3999 -2.538092,2.53402 -3.332518,5.96431 -3.418072,9.56571 0.118145,0.35444 -0.146664,1.04294 0.325919,1.16109 2.138841,-4.54249 6.746516,-8.32722 11.826774,-8.7061 0.651837,0.0611 1.515522,-0.15074 2.049213,0.2974 l -0.05703,0.11814 c -2.855863,1.81292 -5.707651,4.73804 -7.043918,7.27614 -1.336266,2.54624 -3.145115,3.27548 -3.059561,3.36103 3.295852,0.53369 4.395828,0.4237 7.483907,-0.70072 1.283305,-0.52962 3.46696,-3.16956 4.974334,-3.46289 0.358511,0.057 2.48513,-0.60702 3.691029,-0.0774 0.827019,0.66813 -2.261061,3.98843 -2.86401,3.84176 -5.499878,-0.0774 -6.326897,1.05516 -7.830197,3.23474 -1.507373,2.18366 -3.198077,4.38361 -5.960237,5.27581 -0.62332,0.33 -1.336267,0.44407 -1.935143,0.80665 -0.02037,0.23222 5.736169,0.14667 7.993156,-0.83924 2.053288,-0.68035 3.536218,-2.6155 5.646541,-2.99845 0,0 0.505174,2.19995 -3.263261,5.43469 0.0937,0.20778 4.061762,-0.50924 5.728021,-2.02884 12.901241,-9.15159 4.059783,-2.36113 1.731443,3.82954 -0.272957,2.01255 -1.894402,6.44912 -1.682555,6.72208 0.215921,0.27295 3.523996,-2.66031 5.418398,-3.62992 1.894402,-0.98183 1.413672,-5.62617 2.142915,-6.81985 3.214748,-3.50475 3.15572,0.69578 1.751813,3.59325 2.443998,-1.24937 5.524791,-5.04483 3.475108,1.49515 -0.973682,2.70106 -2.163285,4.49361 -2.163285,4.49361 0,0 3.031044,-1.56848 5.092479,-4.55471 2.057362,-2.97401 2.599202,-4.65657 2.758087,-5.57321 0.725169,0.98183 0.41962,0.90035 1.034792,2.5992 0.700725,1.94736 0.484804,3.74399 0.484804,3.74399 0,0 1.193677,-0.81887 1.845515,-3.14104 0.521469,-1.87404 0.41962,-2.1307 0.354436,-2.15514 2.375132,-0.11407 1.780331,4.06584 1.780331,4.06584 0,0 1.739591,0.13851 1.955512,-2.4118 -0.150737,-0.90443 9.834596,-0.67628 12.014177,2.14291 2.187729,2.82735 2.786605,2.79475 3.951764,3.3977 1.169234,0.59481 3.316223,0.48888 5.186181,0.95739 1.743665,0.28111 5.063965,1.78033 6.339125,2.61957 1.77625,2.08996 -2.87216,9.48417 -4.807307,11.96527 -0.04074,0.057 -0.08963,0.1181 -0.126293,0.163 0.134441,-0.073 0.272956,-0.1386 0.407398,-0.2241 3.055492,-1.6703 7.316882,-5.2554 7.838352,-11.37862 0.0244,-0.32185 1.95958,-0.23222 2.26106,0.14666 1.22627,1.12849 1.46663,3.95176 2.33032,5.65466 0.87183,1.6907 4.97433,3.0433 6.94614,1.7152 0,0 1.79255,-0.9615 1.2996,-2.2 -0.79035,0.5255 -1.27516,0.5948 -2.25291,0.6885 -0.98183,0.086 -1.31998,-0.2404 -2.11033,-0.7374 -0.79035,-0.4929 -0.9085,-0.6396 -1.42589,-1.5725 -0.52555,-0.9452 -0.49703,-3.24291 0.17925,-3.91919 0.68036,-0.68036 2.45254,-1.20998 4.25324,-0.98183 1.81292,0.22814 1.71515,1.51959 1.71515,1.51959 0,0 0.52962,1.91883 -1.05109,2.47293 1.23442,0.7455 2.44439,-0.094 2.44439,-0.094 0,0 0.47666,0.6518 -0.12222,2.758 2.06959,0.053 2.59106,-2.1388 2.59106,-2.1388 0,0 0.49295,0.1915 0.5622,0.4115 0.45629,-0.1874 0.41555,-1.0144 0.41555,-1.0144 0,0 0.41147,-0.11 0.60295,0.3055 0.86776,0.2607 -0.19148,-6.14354 -0.52554,-6.85649 -0.33814,-0.71295 -5.95209,-4.93359 -6.97059,-4.92545 -1.01442,0.008 -2.44439,0.96961 -3.98843,1.69071 -1.53996,0.71294 -3.42622,2.48105 -5.56913,2.03699 -1.28331,-1.10405 -4.34287,-0.63554 -4.34287,-0.63554 l -2.33847,-0.60295 c 0,0 -2.110325,-0.9248 -2.16736,-1.2996 -0.04889,-0.37888 0.43185,-1.2996 0.76184,-2.54217 0.32184,-1.25886 0.21592,-1.95551 0.70072,-2.33439 0.48888,-0.37481 1.73552,-0.32185 2.66031,-0.86776 2.14727,-1.94037 3.01914,-1.8229 4.72583,-0.53777 1.63774,1.24257 7.41465,3.14105 10.3031,3.48733 2.89253,0.34222 6.32282,0.33407 7.32095,0.28111 0.99812,-0.053 -0.73739,-1.45849 -0.8922,-1.75181 0,0 6.3106,1.75181 10.52717,2.04921 4.22065,0.30555 12.05084,-0.14666 14.03895,-2.10218 0,0 -1.33627,-0.37888 -1.87811,-0.82701 l 0.0937,-0.0815 c 2.11033,-0.54184 12.97971,1.35256 11.23605,-3.53622 -0.44814,-0.52962 -0.98183,-0.32999 -1.4259,-0.65591 0.11815,-0.15481 12.42973,-2.92512 9.27239,-3.78881 -2.59105,-0.21185 -11.25234,-1.86181 -14.96374,-2.8803 -3.70733,-1.01443 -8.64499,-2.48513 -11.14235,-3.34474 -0.28925,-0.11815 -0.71702,-4.31028 -0.27295,-4.08621 0.74554,1.0185 1.29145,1.707 2.42809,2.38735 2.19588,0.59481 5.4184,0.65184 7.00318,0.65999 1.59293,0 2.07773,-2.25699 2.63179,-3.55659 -0.23629,0.28518 -1.03886,0.74554 -1.25071,0.74554 -1.5033,0.37481 -4.97026,-0.12629 -5.38173,-0.2811 -0.41962,-0.14667 -1.4096,-1.8007 -1.12442,-2.63995 0.28518,-0.83516 1.97995,-1.80477 1.97995,-1.80477 0,0 2.0207,-0.19148 2.71735,0 0.69665,0.17926 2.29365,1.15294 2.52994,1.597 0.23222,0.43592 0.81073,1.38923 0.76184,2.20403 0.87998,-1.38923 0.29333,-2.21218 0.65591,-2.36699 0.1874,0 0.64776,0.13852 0.73739,0.64777 0.39925,-0.20778 0.18333,-2.19588 0.37073,-2.46069 0,0 0.37481,0.23629 0.69666,0.46036 0.26073,-0.33814 0.20777,-2.22847 -0.0896,-2.94142 -0.30555,-0.72109 -2.14699,-2.51772 -2.48513,-2.75808 -0.34629,-0.21592 -0.57036,-0.25666 -0.57036,-0.25666 0,0 -0.0367,-0.21185 0.64776,-0.99406 0.67628,-0.79035 4.5099,-1.4707 5.69951,-2.31809 0.6722,-0.50925 -0.0611,-0.45222 0.73739,-1.24664 0.79035,-0.78628 4.2899,-1.06739 5.32877,-5.54062 -9.06462,2.4892 -14.71116,3.28771 -22.05247,3.28771 -7.33725,0 -17.39591,-0.9085 -19.24958,-2.12255 -0.68035,-0.54184 -0.97368,-1.6907 -0.74554,-2.77438 0.22407,-1.09183 1.53997,-1.86589 2.37514,-2.2244 0.60702,-0.11407 0.33406,2.26106 0.33406,2.26106 0,0 4.40805,-2.93327 6.55504,-3.72769 2.14292,-0.79035 8.92203,-1.69071 8.92203,-1.69071 -2.03292,2.48513 -0.68443,5.35729 0.97775,5.4184 0.71702,0.0407 3.69103,0.94109 7.04799,-2.44846 0.71295,-0.71295 1.88218,-1.31997 1.88218,-1.31997 1.27924,0.30147 2.14699,0.33814 2.14699,0.33814 l 2.80698,-0.0693 c -1.90255,-0.94924 -3.06364,-1.41367 -3.10845,-2.23254 0.0855,-0.0774 1.84144,0.71295 2.06958,0.22814 -0.86368,-0.49295 -1.31997,-1.19775 -1.31997,-1.19775 0,0 2.55846,-0.19555 5.05174,0.82702 -1.54811,-2.63587 -2.24476,-2.52994 -3.47103,-3.27956 -0.62332,-0.35036 -1.80478,-0.71295 -2.33032,-1.0959 -0.30555,-0.2974 0.0774,-1.51552 -0.40333,-2.34661 -1.12034,-2.82735 -2.59105,-4.07399 -4.17583,-4.86434 -1.58478,-0.79035 -2.70512,-0.90035 -3.78066,-0.79035 -1.07553,0.12222 -2.07365,0.48073 -2.26513,1.41367 -0.18333,0.94516 0.46443,1.40145 0.87591,1.86588 0.0326,0.0896 -0.87591,0.057 -1.77219,-0.0815 -0.91257,-0.14259 -3.89065,0.26889 -5.87468,-0.65183 -3.304,-1.04294 -6.43282,-7.90761 -6.98281,-8.86907 0.0652,1.52775 -0.73739,2.58291 -0.73739,2.58291 -1.01442,0.24037 -3.46696,-3.82954 -3.46696,-3.82954 -0.22814,2.0981 0.10592,4.57915 0.10592,4.57915 -2.55846,-2.24476 -3.15326,-5.76468 -3.15326,-5.76468 -2.10217,0.79035 -0.11407,5.51617 -0.17111,5.54061 -1.63366,-2.44031 -2.60327,-3.05548 -4.01694,-6.83614 -1.4096,-3.78066 -1.67441,-6.08246 -1.80478,-6.77911 0,0 0.85146,-1.01849 1.24257,-1.45034 0.39925,-0.42777 1.65811,-1.18145 1.65811,-1.18145 0,0 -0.97776,-0.24037 -1.80478,-0.11815 -0.83924,0.13852 -1.54811,0.32185 -1.54811,0.32185 0,0 -0.16703,-0.90035 0.26073,-4.82767 -2.62772,1.11627 -3.62992,4.91729 -3.81732,6.8117 -1.62144,1.36886 -2.48105,2.77438 -2.48105,2.77438 0,0 -0.13852,-2.25291 -1.52775,-3.88658 -1.3933,-1.64589 -2.32217,-1.71107 -3.24289,-3.16549 -0.92072,-1.10405 -0.81887,-4.23286 -0.88405,-4.15138 -0.14667,0.74553 -0.84332,1.69885 -0.78628,3.10844 -0.0245,1.43812 0.30147,1.93922 0.84331,3.84584 0.54184,1.90256 0.37481,4.04547 -0.90035,6.15579 -3.074517,5.787423 -0.86145,-1.537578 -0.83109,-3.15326 0,-2.5992 -0.4848,-4.48953 -2.407729,-6.63244 C 98.192632,51.6483 97.007102,50.255 97.007102,50.255 c 2.277357,5.05174 -0.305548,10.3194 -0.305548,10.3194 0,0 -0.749613,-2.90475 -2.252913,-4.36731 -1.507374,-1.47478 -3.165485,-2.71327 -3.165485,-2.71327 1.434042,3.90695 0.476656,9.08498 0.146663,9.41497 -0.5011,-0.45221 -1.429968,-2.33439 -2.595127,-3.43437 -1.16516,-1.08775 -2.802901,-1.71922 -2.802901,-1.71922 0,0 0.884054,2.55032 0.96146,4.55064 0.06926,1.99218 -0.904424,3.42622 -0.98183,6.24542 -0.07333,2.82734 4.97026,8.13167 4.97026,8.13167 -4.717673,0.27703 -10.96309,-6.50208 -10.96309,-6.50208 0.431843,5.85024 7.088732,10.46607 7.088732,10.46607 -1.230343,0.32999 -10.967164,-6.07431 -12.278987,-6.72615 1.340341,5.80135 7.520574,11.04864 7.520574,11.04864 -1.519596,0.65591 -5.793205,-1.0959 -5.793205,-1.0959 3.352889,7.16614 10.787909,6.48171 10.787909,6.48171 0.0041,1.08775 -9.818301,0.19555 -9.818301,0.19555 2.925121,3.20215 10.136071,3.74399 10.136071,3.74399 -1.788478,0.82702 -7.316874,0.59073 -7.316874,0.59073 0.892202,1.31182 3.084005,2.19995 4.061761,3.03919 -1.189603,0.35036 -3.890654,2.40772 -6.396154,4.81545 -2.505499,2.4118 -5.145441,9.84682 -9.69608,9.19091 -2.92512,-0.0489 -8.131671,-7.37391 -1.055162,-19.12328 3.010674,-5.121 3.458812,-7.08059 3.919172,-13.25675"
     id="path6540"
     style="fill:#000000;fill-opacity:1;fill-rule:nonzero;stroke:none" />
  <path
     d="m 138.97846,3.23178 -91.469073,0 -44.1901505,41.48931 2.4847813,21.66123 0.3218447,-0.0774 C 12.200172,64.39829 18.494476,60.45875 24.915074,54.60036 c 2.444391,-1.6907 5.178033,-2.78253 8.143893,-3.22659 1.169234,-1.26294 2.558462,-2.49328 4.094354,-3.6014 l 2.236303,-9.18308 102.718046,-0.24847 1.24239,15.85197 35.58157,1.73935 -0.49696,-14.57222 z"
     id="path6476"
     style="fill:#000000;fill-opacity:1;fill-rule:nonzero;stroke:none" />
  <path
     d="M 142.60666,161.59852 39.139105,160.85312 37.15128,136.27844 c -0.875907,-0.0163 -1.698851,-0.0693 -2.371059,-0.14259 -2.26106,-0.22815 -4.302126,-2.03292 -4.302126,-2.03292 -0.01222,-0.0245 3.063635,-0.57443 5.442842,-2.04514 0.476656,-0.2974 0.875906,-0.57851 1.230343,-0.85146 l 0,-3.6177 c -0.407399,-0.0611 -0.839241,-0.13444 -1.303675,-0.22814 -1.205899,-0.19963 -2.195877,-1.01443 -2.195877,-1.01443 0,0 -0.252587,0.44407 -0.932942,2.03292 0,0 -0.794427,-1.10405 -1.303675,-2.60735 -0.509248,-1.49108 -0.676281,-3.8825 -0.676281,-3.8825 0.118145,-4.79916 1.438116,-8.39241 4.021021,-10.98346 0.749613,-0.75369 1.556262,-1.36886 2.391429,-1.90255 l 0,-2.30588 c -0.855537,-0.15481 -1.727369,-0.22407 -2.62772,-0.17518 -4.962111,0.0693 -9.260164,2.54217 -12.091583,7.52057 -1.584779,3.51585 -2.375132,6.57541 -2.375132,6.57541 -0.154811,0.008 -0.945164,-3.87436 -1.014422,-7.80982 -0.232217,-5.43877 3.646215,-11.54567 8.469812,-14.50746 3.299926,-2.18365 6.41245,-3.34474 9.639045,-3.57696 l 0,-0.54998 c -1.869959,-1.94329 -3.88658,-3.62177 -6.294305,-4.14732 -2.676607,-0.4848 -5.275808,0.55406 -7.076509,2.86401 -0.708873,1.10405 -1.120346,2.0207 -1.275157,2.94957 -0.04889,0.27703 -0.08963,0.57443 -0.130367,0.90035 -0.175182,1.26293 -0.387029,2.83549 -1.087754,4.44879 -2.122545,3.93954 -5.459138,4.55064 -7.202803,4.03324 C 9.5052277,103.50731 9.0896814,99.07482 9.4807838,96.9645 l 0.8310922,-4.39176 2.770309,3.49548 c 0,0 0.920721,1.0796 2.208099,1.09183 0.611098,-0.18333 2.395503,-0.91258 2.489204,-3.28363 0.02852,-1.47071 1.405525,-5.8258 3.911024,-8.88536 3.748065,-4.70953 8.522774,-7.1417 12.743421,-6.47356 1.006274,0.15888 1.898476,0.4074 2.717347,0.72109 l 0,-13.88821 c -1.381081,1.73552 -4.114724,5.45099 -5.153589,6.27801 -0.04074,0.0326 -3.92732,2.79475 -5.369511,3.66251 -1.44219,0.86776 -5.402102,1.75589 -6.469485,1.87811 -1.06331,0.13037 -3.04734,0.0733 -3.04734,0.0733 1.165159,-1.2833 2.692903,-3.2103 2.692903,-3.2103 0,0 1.86181,-2.38328 3.821397,-5.23914 0,0 -0.794427,0.65184 -6.15579,2.77846 C 13.94587,72.66723 9.199679,72.875 5.8019767,70.45505 l -1.3996614,83.82627 41.7053697,44.2037 92.872815,0 39.2155,-39.8404 0,-13.99462 -35.58934,-0.24848 z"
     id="path6480"
     style="fill:#000000;fill-opacity:1;fill-rule:nonzero;stroke:none" />
  <path
     d="m 136.35278,116.72087 c -0.15481,0.057 -0.76184,0.42369 -0.7211,0.44406 -0.0489,0.16704 1.32405,0.63147 1.44219,0.57444 0.10593,-0.057 -0.053,-0.95332 -0.0896,-1.13664 -0.0326,-0.18333 -0.47666,0.053 -0.63147,0.11814"
     id="path6296"
     style="fill:#FFFFFF;fill-opacity:1;fill-rule:nonzero;stroke:none" />
  <path
     d="m 106.26314,69.06663 c 0.59073,2.73364 3.55251,2.90475 3.55251,2.90475 -1.32404,-0.5948 -3.07586,-4.12287 -2.54216,-7.00725 0,0 -1.58071,1.27923 -1.01035,4.1025"
     id="path6300"
     style="fill:#FFFFFF;fill-opacity:1;fill-rule:nonzero;stroke:none" />
  <path
     d="m 53.55231,77.89092 c -1.055161,-2.25291 -1.377006,-1.9881 -1.377006,-1.9881 0,0 -1.784405,3.2714 -2.839567,6.8891 -1.087753,3.21845 -0.98183,7.8302 -0.607023,10.3194 1.055162,4.35916 0.985904,5.94802 3.544366,9.78571 -0.154812,-2.73364 -1.429969,-9.3335 -0.529618,-13.41155 0.904424,-4.05769 3.46696,-8.73055 1.808848,-11.59456"
     id="path6304"
     style="fill:#FFFFFF;fill-opacity:1;fill-rule:nonzero;stroke:none" />
  <path
     d="m 51.320187,49.7788 c -0.87998,-1.0959 -2.415872,-1.88218 -3.108449,-1.90255 -1.2059,-0.0937 -2.969934,0.93295 -3.711399,1.66626 -0.741465,0.74147 -1.951438,2.13884 -1.759961,2.69291 0.46036,0.65183 2.872158,0.0611 5.006925,0.0978 2.06551,0.0285 4.175834,0.74147 4.55064,0.0896 0.228143,-0.4237 -0.0937,-1.55626 -0.977756,-2.64402"
     id="path6308"
     style="fill:#FFFFFF;fill-opacity:1;fill-rule:nonzero;stroke:none" />
  <path
     d="m 61.990333,70.17272 c -0.590728,-2.40365 -1.572558,-4.66879 -2.790679,-6.77096 -0.179255,-0.26889 -0.655911,-0.86369 -0.92072,-0.26889 -0.56221,1.60515 -1.511448,3.08808 -2.256987,4.57509 -0.179255,0.2974 -0.329993,0.68443 -0.03259,0.95331 0.949238,0.5948 3.246965,3.05141 4.041392,8.08686 0.790352,5.02729 -0.338141,10.10755 -0.338141,10.10755 0,0 4.175833,-7.28836 2.297727,-16.68296"
     id="path6312"
     style="fill:#FFFFFF;fill-opacity:1;fill-rule:nonzero;stroke:none" />
  <path
     d="m 111.89296,137.78337 c -0.99405,0.59887 -1.73144,1.4707 -2.81919,1.06331 -2.19181,-0.89221 -4.26139,-0.62332 -4.26139,-0.62332 0,0 -2.46476,-0.32592 -2.63994,-0.84332 -0.17111,-0.50925 0.24036,-0.70072 0.35036,-1.11627 0.13037,-0.52554 -0.0611,-0.91665 0.22815,-1.21405 0.28925,-0.28925 1.42182,-0.28925 2.19995,-0.74961 0.6722,-0.39518 1.18553,-0.8922 1.60107,-1.30368 0.14667,-0.13851 -0.0448,-0.057 0.86776,0.6274 1.17738,0.8922 4.21657,2.2855 6.87688,2.85993 -0.22814,0.11408 -1.91884,1.00628 -2.40365,1.29961 m 12.55602,-76.00424 c -0.37481,1.66218 -1.42997,1.72329 -2.01662,3.38955 0,0 -1.42589,-1.04701 -1.62552,-2.96586 -0.19963,-1.41774 -0.17111,-2.91697 0.30962,-4.4936 0.48073,-1.58071 3.0229,-3.75621 3.0229,-3.75621 0,0 -0.30962,1.80477 -0.28111,3.33252 0.0285,1.52774 1.0185,1.77625 0.59073,4.4936 m -5.51617,0.32184 c 0.0693,0.63147 0.51739,1.71515 0.51739,1.71515 l -0.34221,0.33814 c -0.97776,-2.62772 -1.57663,-5.11285 -1.76404,-6.16801 -0.0367,-0.20777 2.16329,-1.70292 2.16329,-1.70292 0,0 -0.16703,0.47665 -0.1874,0.51739 -0.52147,1.71515 -0.64369,3.47511 -0.38703,5.30025 m -34.347757,4.37546 c -0.529618,-0.30555 -1.527744,-1.82922 -1.507374,-3.27548 0,-0.19148 1.584779,-2.48106 1.92292,-3.32845 0.154811,0.65999 0.39925,1.59701 0.41962,2.20403 0.02444,0.68036 -0.704799,3.6014 -0.835166,4.3999 m -2.18773,1.51145 c 0,0 -2.599201,-1.3159 -3.540291,-2.3018 -0.945164,-0.97368 -1.768109,-2.92919 -1.205899,-5.00285 0.562209,-2.06551 2.334392,-2.63587 2.86401,-4.2125 0.301475,-1.27923 -0.342215,-2.86401 -0.342215,-2.86401 0,0 1.922921,1.3933 2.562536,4.1025 0.64369,2.7092 -2.110323,3.76843 -2.142915,5.76061 -0.04074,2.66846 1.804774,4.51805 1.804774,4.51805 m -5.385806,13.44415 -3.401776,-1.39738 c 0.0041,-0.13852 0.154811,-3.18178 0.171107,-4.30213 1.405525,3.80103 3.230669,5.69951 3.230669,5.69951 m 0.672208,6.82392 -4.774709,-0.43999 3.552514,3.89065 c 0.264808,0.31777 0.827018,0.77406 0.827018,0.77406 l -0.937016,-0.0326 c 0,0 1.674407,2.29365 2.407724,3.16548 0.741465,0.87998 1.446264,1.44219 2.269209,2.04514 -1.372932,1.03072 -2.827345,2.3018 -3.992504,3.42215 -0.924794,0.90035 -1.768109,2.19995 -2.664385,3.5851 -1.54404,2.37921 -3.707325,5.33285 -5.593579,5.05582 -0.244439,-0.0326 -1.10405,-0.57036 -1.792553,-1.99625 -0.806649,-1.68256 -2.191803,-6.42468 2.440316,-14.10414 2.876232,-4.8847 3.609549,-7.47168 4.065836,-12.59268 l 1.654037,3.46289 c 1.690703,3.05141 2.538092,3.76436 2.538092,3.76436 m -40.532062,31.94003 c 0.745539,-0.80665 1.633667,-1.58071 2.639941,-2.11032 -0.847389,1.01442 -1.568484,2.04921 -2.098101,3.05141 -0.171108,0.32999 -0.354437,0.60295 -0.54184,0.86776 -0.672208,0.95331 -1.368859,1.51959 -1.633668,1.70292 -0.342214,0.22815 -0.843314,0.12222 -0.908498,0.17111 0,0 0.924794,-1.93107 2.542166,-3.68288 m 16.617778,11.92047 c 0.58258,-0.0489 1.157012,-0.15888 1.682556,-0.27703 -0.06926,0.14667 -0.146664,0.27703 -0.215922,0.39925 -0.195551,0.19148 -2.041065,1.26701 -2.436242,1.52775 0.118146,-0.2037 0.774057,-1.35256 0.969608,-1.64997 M 168.34208,123.0885 c -2.18773,-0.17111 -8.41278,-1.26294 -13.98191,-3.0066 l -1.94737,-0.60295 c 1.38923,-0.6274 2.16329,-1.97996 2.67661,-2.88846 0.15481,-0.27703 1.05109,-1.90255 1.17331,-2.19995 0.12222,-0.2974 -0.83924,-0.2974 -0.57443,-0.61924 0.22814,-0.0611 0.44406,-0.15074 0.65591,-0.26074 1.51959,-0.79443 0.80665,-1.74774 1.26293,-2.0981 0.19148,-0.13852 0.33814,-0.30147 0.44407,-0.43592 0.9859,-1.27923 0.35036,-3.32029 -0.11,-4.42434 -0.53777,-1.27516 -1.6907,-2.20403 -1.6907,-2.20403 0.29332,-0.0978 0.5948,-0.19147 0.84738,-0.26888 1.34849,-0.42369 2.61958,-0.82294 3.49141,-1.45034 0.76998,-0.57036 1.0796,-1.44626 1.0796,-1.44626 0.0937,-0.0448 0.19556,-0.0937 0.28926,-0.13444 1.45034,-0.65999 4.46508,-2.037 5.48358,-6.37986 l 0.76591,-3.33252 -3.29585,0.89628 c -8.79166,2.41179 -14.23043,3.14511 -21.57175,3.21844 -8.30685,0.0978 -16.2063,-1.13664 -16.2063,-1.13664 1.1733,-0.7822 4.56693,-2.93327 6.14764,-3.51177 1.4096,-0.52555 3.8988,-1.18146 5.17803,-1.03479 -0.0204,0.80664 0.14259,1.597 0.47666,2.34254 0.6885,1.51552 2.02884,2.49327 3.43844,2.54216 0.0285,0.008 4.94174,0.69258 8.63277,-3.04326 0.35444,-0.35444 0.53777,-0.65999 0.7822,-0.6111 0.98591,0.17925 1.66626,0.21999 1.87404,0.22407 l 7.64279,-0.17111 -2.95771,-2.43217 5.57321,2.28551 -3.04327,-5.20655 c -1.42589,-2.4281 -2.3955,-3.05957 -3.6177,-3.68696 -0.1874,-0.10185 -2.06551,-0.54184 -2.05736,-1.00627 0.0122,-0.53369 -0.10999,-1.20998 -0.44406,-1.86996 -1.15701,-2.83957 -2.73364,-4.64027 -5.13322,-5.83802 -1.72737,-0.86368 -3.24697,-1.17331 -4.9173,-0.99405 -3.06363,0.32184 -3.74399,1.64996 -4.20028,3.15326 -1.10405,0.0163 -2.19587,0.14259 -4.03324,-0.52554 -1.84144,-0.65591 -7.86279,-11.13012 -7.95649,-11.28494 0,0 -0.2811,1.75182 -0.73739,4.07806 -0.43999,-0.58258 -1.9107,-2.82734 -1.9107,-2.82734 0.45221,-0.7211 0.96146,-1.85774 1.15701,-3.10845 0.31777,-2.04922 0.008,-3.1329 -0.38295,-4.13917 -0.13444,-0.36258 -0.18333,-0.49703 -0.18333,-0.72517 -0.0285,-1.30367 1.2059,-8.51462 1.2059,-8.51462 0,0 -4.49361,3.84584 -5.94394,5.09247 -1.14887,-0.28517 -3.634,-0.87998 -4.47731,-0.87998 l 0.17111,-2.23254 0.38702,-3.47103 -3.21029,1.37293 c -3.20216,1.37293 -4.40806,5.08841 -4.83582,7.14984 -0.32592,-0.41147 -0.66406,-0.87998 -0.66406,-0.87998 -0.78628,-0.92072 -1.45849,-1.44626 -1.99625,-1.86181 -0.45222,-0.34629 -1.09183,-1.11627 -1.21813,-1.26701 -0.0774,-0.14666 -0.77405,-2.44439 -0.73331,-5.6058 -0.0407,-1.17331 -0.17111,-3.42215 -0.17111,-3.42215 0,0 -3.67473,6.0458 -3.73584,6.20061 -0.28518,0.7048 -0.54999,1.76811 -0.54999,1.76811 0,0 -1.303675,-1.54812 -2.493279,-2.48921 -1.189603,-0.94516 -5.793204,-3.83769 -5.793204,-3.83769 l 3.238817,6.71392 c 1.140715,2.14292 0.802575,3.74807 0.802575,3.74807 -1.592928,-1.55219 -3.389555,-2.92105 -3.462886,-2.97808 l -5.495804,-4.11473 2.358836,6.44912 c 0.415547,1.14479 0.586654,2.44439 0.631468,3.64214 -1.173307,-0.92479 -3.035118,-1.88625 -3.242891,-1.97181 0,0 -1.926994,-0.7822 -3.136967,-1.25478 -0.937017,-1.53182 -2.102176,-2.52587 -2.277357,-2.65217 0,0 -5.634319,-4.0862 -5.630245,-4.06991 l 2.538091,6.46949 c 0.167034,0.43184 0.346289,1.23849 0.301475,1.47478 -0.0937,0.28111 -0.403324,0.5948 -0.790353,0.99405 -0.704799,0.71295 -1.662185,1.71108 -2.106249,3.34067 -0.769983,2.79883 0.150737,5.39803 2.114397,7.36169 l 0.68443,6.28208 c -1.609224,-0.85554 -5.438768,-2.95364 -5.438768,-2.95364 -0.387029,-2.54624 -1.157012,-5.04359 -2.244765,-7.35761 -1.878107,-4.6199 -5.340993,-9.06869 -10.225699,-11.09753 -0.774057,-2.57476 -2.000326,-4.56286 -3.743991,-6.04579 -2.081805,-1.77626 -4.676933,-2.78254 -7.655015,-2.93327 -2.407724,0.057 -4.819522,0.66813 -7.105027,1.62552 -1.906624,0.81072 -3.719547,1.85773 -5.365436,3.05548 -1.535892,1.10813 -2.921046,2.3344 -4.094354,3.60141 -2.961786,0.44406 -5.699503,1.53589 -8.143893,3.22659 -6.420598,5.85839 -12.714902,9.79793 -18.7892116,11.70455 l -0.3218447,0.0774 -3.5565876,0.88405 c 0.7047992,1.07146 3.2388169,2.98623 3.2388169,2.98623 0.1018496,0.0774 0.2199951,0.13037 0.3177707,0.2037 3.3977022,2.41588 8.1438933,2.21218 11.6678883,1.11628 5.361363,-2.12662 6.15579,-2.78254 6.15579,-2.78254 -1.959587,2.85994 -3.821397,5.24322 -3.821397,5.24322 0,0 -1.527744,1.92292 -2.692903,3.2103 0,0 1.98403,0.053 3.043266,-0.0733 1.071457,-0.12222 5.031369,-1.01035 6.473559,-1.87811 1.442191,-0.87183 5.328771,-3.62992 5.369511,-3.66251 1.038865,-0.82702 3.768434,-4.54656 5.153589,-6.27801 0.476656,-0.61517 0.806648,-0.9859 0.835166,-0.92072 0.647764,1.40145 1.878107,2.83549 2.892529,3.56474 0.150737,0.11 0.875906,0.54591 1.637741,1.02257 0.888128,0.54999 1.845515,1.15294 2.016622,1.33219 -0.5011,1.82922 -1.332193,5.08026 -2.016622,7.69983 -0.497026,1.9107 -0.912572,3.48733 -1.067384,3.93547 -1.173307,-1.1122 -2.558461,-2.08181 -4.298052,-2.74587 -0.818871,-0.31369 -1.715147,-0.56628 -2.717347,-0.72517 -4.220647,-0.66406 -8.995356,1.76811 -12.747495,6.47764 -2.501426,3.05956 -3.878432,7.41057 -3.911024,8.88536 -0.08963,2.37105 -1.878106,3.09622 -2.48513,3.27955 -1.287379,-0.0122 -2.208099,-1.08775 -2.208099,-1.08775 l -2.774383,-3.49955 -0.8270182,4.39175 c -0.3911024,2.1144 0.024444,6.54689 4.6036012,8.26204 1.743665,0.5174 5.080258,-0.0978 7.202803,-4.03324 0.700725,-1.6133 0.912572,-3.18993 1.087754,-4.44879 0.04074,-0.32592 0.08148,-0.6274 0.130367,-0.90035 0.154811,-0.92887 0.566284,-1.84552 1.275157,-2.95364 1.796627,-2.30588 4.399902,-3.34882 7.072435,-2.86401 2.411798,0.52554 4.42842,2.20402 6.298379,4.15139 0.158885,0.1711 0.31777,0.33814 0.476656,0.50924 -0.158886,0 -0.317771,0.0245 -0.476656,0.0407 -3.226595,0.22815 -6.339119,1.38923 -9.639045,3.57696 -4.823597,2.95771 -8.702029,9.06461 -8.469812,14.50338 0.06926,3.93954 0.859611,7.82205 1.014422,7.8139 0,0 0.790353,-3.06363 2.375132,-6.57541 2.831419,-4.98248 7.129471,-7.45131 12.091583,-7.52464 0.896277,-0.0489 1.772183,0.0244 2.62772,0.17518 0.994052,0.1711 1.979956,0.44814 2.94549,0.79442 -1.0022,0.41148 -1.992178,0.9085 -2.94549,1.51553 -0.835167,0.52961 -1.641816,1.14886 -2.391429,1.89847 -2.582905,2.59513 -3.902876,6.18838 -4.021021,10.98754 0,0 0.167033,2.39142 0.676281,3.8825 0.509248,1.5033 1.299601,2.60328 1.299601,2.60328 0.680355,-1.58478 0.937016,-2.03292 0.937016,-2.03292 0,0 0.989978,0.81887 2.195877,1.01442 0.464434,0.0978 0.896276,0.16703 1.303675,0.23222 1.230343,0.17925 2.220321,0.23222 3.0066,0.21999 -0.977756,1.36071 -1.592928,2.32217 -3.0066,3.39771 -0.354437,0.26888 -0.753687,0.54998 -1.230343,0.85146 -2.379207,1.47071 -5.455064,2.02069 -5.442842,2.04514 0,0 2.041065,1.80477 4.302126,2.03292 0.672208,0.0693 1.491078,0.12629 2.371059,0.14259 1.706999,0.0244 3.662511,-0.16704 5.365436,-0.97776 0.37888,-0.17518 0.749613,-0.38703 1.099976,-0.63962 0,0 0.162959,1.0185 -1.099976,2.38736 -0.203699,0.21592 -0.431842,0.43999 -0.708873,0.67628 l 0.708873,0.0815 1.890328,0.21592 c 1.018496,0.22 4.037318,-0.40332 6.172085,-1.6133 -0.158885,0.34629 -0.281105,0.7211 -0.334066,1.1285 -0.118146,0.86775 -0.598876,2.49735 -0.985904,3.79695 -0.798501,2.7092 -1.222195,5.7932 -1.222195,5.7932 0,0 3.92732,-0.85961 5.825796,-2.27735 1.014422,-0.76999 2.277357,-1.71515 3.08808,-2.1307 1.169233,-0.60295 1.8007,-1.68255 2.175507,-2.88845 0,0 1.531818,-0.22 1.988104,-0.3911 -0.778131,1.8781 -1.576632,3.1003 -1.580706,3.10845 l -4.38768,6.5713 7.023547,-3.63396 c 0.138516,-0.0733 3.515848,-1.84552 5.842093,-5.21877 0.211847,-0.30555 0.415546,-0.59888 0.607023,-0.89628 -0.0041,0.16296 -0.554061,4.72175 -0.554061,4.72175 l 3.711398,-2.52995 c 0.14259,-0.10592 0.558136,-0.41962 1.04294,-1.01035 l 1.641816,0.13445 c 1.275156,0.0896 3.161411,-0.63555 3.88658,-2.90475 2.375132,-0.15074 7.667237,0.55406 8.669437,1.84551 2.008474,2.61142 2.969934,3.17771 4.212499,3.76029 1.014422,0.52147 2.631793,0.85146 3.894728,0.98997 0.737391,0.0896 1.511448,0.17519 2.330318,0.36666 1.413673,0.24037 4.949894,1.70293 4.958034,2.0207 -0.0204,0.72924 -0.41147,2.61963 -2.794748,6.89723 -0.370733,0.6682 -0.570358,1.0837 -2.175507,4.0129 0,0 0.602949,-0.1059 1.385154,-0.2607 1.939221,-2.4811 6.583561,-9.8713 4.807301,-11.96125 -1.27516,-0.83924 -4.595454,-2.33847 -6.339119,-2.62365 -1.869958,-0.46851 -4.016948,-0.36258 -5.182107,-0.95331 -1.169233,-0.60702 -1.768109,-0.57443 -3.955838,-3.3977 -2.179581,-2.8192 -12.164915,-3.04734 -12.010103,-2.14292 -0.219995,2.55031 -1.959586,2.40773 -1.959586,2.40773 0,0 0.598875,-4.17991 -1.776257,-4.06584 0.06111,0.0244 0.162959,0.28518 -0.358511,2.15921 -0.647763,2.32217 -1.84144,3.13697 -1.84144,3.13697 0,0 0.211847,-1.79255 -0.488878,-3.74399 -0.615172,-1.69885 -0.309623,-1.6133 -1.030718,-2.5992 -0.162959,0.91664 -0.704799,2.5992 -2.762161,5.57728 -2.061435,2.98216 -5.092479,4.55471 -5.092479,4.55471 0,0 1.189603,-1.79662 2.163285,-4.49767 0.977756,-2.7092 0.272957,-4.81953 0.272957,-4.81953 0,0 -0.415546,1.16109 -1.666259,2.19588 -1.242565,1.03072 -2.081806,1.12849 -2.081806,1.12849 0.607024,-1.21404 1.40145,-3.29585 1.311823,-5.16988 -0.179255,-0.23629 -0.533692,-0.0896 -0.774057,0 -0.802575,0.45221 -1.556262,0.38703 -2.289579,1.57663 -0.729243,1.19368 -0.248513,5.84209 -2.142915,6.81985 -1.890328,0.96961 -5.202477,3.90287 -5.418398,3.63399 -0.211847,-0.27703 1.409598,-4.7136 1.682555,-6.72615 0.268883,-1.99625 4.171759,-3.194 4.982482,-4.32657 0.810723,-1.14071 1.450338,-3.66658 1.120345,-4.17583 -0.334066,-0.49295 -2.717347,0.83109 -4.901002,0.83109 -0.977756,0.0815 -1.951438,3.00253 -2.933268,3.84584 -1.666259,1.5196 -5.634319,2.23662 -5.728021,2.02885 3.768435,-3.23474 3.263261,-5.4347 3.263261,-5.4347 -2.106249,0.38296 -3.593253,2.31403 -5.646541,2.99438 -2.256987,0.98591 -8.013526,1.07553 -7.989082,0.83924 0.594802,-0.36258 1.307749,-0.47665 1.931068,-0.80665 2.762161,-0.8922 4.452864,-3.09215 5.960238,-5.2758 1.5033,-2.17959 2.330319,-3.30808 7.830197,-3.23475 0.602949,0.14667 3.691029,-3.16956 2.86401,-3.83769 -1.205899,-0.52962 -3.332519,0.13037 -3.691029,0.0733 -1.507374,0.2974 -3.691029,2.93327 -4.974334,3.46289 -3.088079,1.12442 -4.188055,1.23849 -7.483908,0.7048 -0.08555,-0.0896 1.723295,-0.8148 3.059562,-3.36104 1.336267,-2.53809 4.188055,-5.46321 7.043917,-7.28021 l 0.05704,-0.11814 c -0.533692,-0.44407 -1.393302,-0.23222 -2.049213,-0.29333 -5.080258,0.37888 -9.687933,4.15954 -11.826775,8.7061 -0.472582,-0.12222 -0.207773,-0.81072 -0.325918,-1.16516 0.08555,-3.59732 0.87998,-7.02762 3.418072,-9.56164 2.542166,-2.54624 5.825796,-3.48325 9.060539,-4.3999 0.150738,-0.11814 0.118146,-0.26888 0,-0.38295 -3.356962,-1.60923 -6.83207,-3.27141 -10.844944,-3.06364 -5.703577,0.0896 -10.995681,3.59325 -13.342296,8.76721 -0.293327,0.12222 -0.203699,-0.2974 -0.268883,-0.45221 0.566284,-5.1047 3.271409,-9.98126 7.789457,-12.73934 3.002526,-1.99626 6.26986,-3.42215 10.131997,-3.33252 1.218121,0 2.314022,0.26888 3.44659,0.37888 0.179255,-0.0733 0.08555,-0.32185 -0.02852,-0.41147 -3.092154,-3.35289 -6.180233,-7.60206 -10.844944,-8.61241 -3.597328,-0.65591 -6.897254,0.76591 -9.097205,3.59326 -0.847389,1.29145 -1.442191,2.5055 -1.670334,3.86213 -0.232217,1.35257 -0.321844,3.12068 -1.075531,4.86027 -1.507374,2.77845 -3.784731,3.15733 -4.746191,2.8803 -3.984356,-1.51145 -3.161411,-5.9195 -3.161411,-5.9195 0,0 1.580705,1.99626 4.069909,1.84959 0,0 4.061762,-0.84331 4.232869,-5.25544 0.02037,-0.90035 1.189603,-4.86026 3.44659,-7.62242 2.790679,-3.5077 6.917624,-6.35134 10.8205,-5.74024 3.902877,0.61924 6.037644,2.76216 8.205003,5.52839 0.232217,0.14667 0.325919,-0.20777 0.354437,-0.35443 1.042939,-5.17396 3.837692,-15.19189 4.114723,-15.93335 -0.219995,-0.78628 -3.801027,-2.70513 -4.742117,-3.38956 -0.94109,-0.68035 -2.106249,-2.18365 -2.407724,-3.23067 -0.305549,-1.05923 -0.03667,-3.38955 -0.03667,-3.38955 0,0 0.863685,1.72737 4.403976,3.23067 1.617372,0.71295 5.055814,1.13664 5.055814,1.13664 l 1.780331,-4.1025 c 0,0 0.753687,-1.58885 1.214047,-2.33032 L 51.12135,57.60733 c -2.216247,-1.38108 -9.133871,1.1896 -12.934897,1.58885 -1.48293,2.69291 -4.175834,7.33725 -7.777235,11.12198 -1.515522,1.3933 -2.110323,2.11032 -4.289905,3.45474 -2.175507,1.34849 -4.220646,1.9881 -4.591379,2.08588 -0.370732,0.0896 -1.487004,0.73739 -1.90255,0.2811 3.112523,-2.09403 5.707651,-4.04139 6.168011,-6.54689 0.468508,-2.50957 1.857736,-5.1047 2.648089,-6.498 -0.203699,-0.14667 -0.928868,0.88405 -1.670333,1.3933 -3.768435,2.94141 -6.078384,3.78065 -10.331622,5.47951 -3.177708,0.98183 -7.2761349,1.03886 -9.9527421,-1.03887 -0.06111,-0.0896 -0.06111,-0.30147 0,-0.39518 C 13.677368,66.27677 20.036856,61.82798 25.773025,56.59291 28.091121,54.99183 30.674027,54.01 33.501372,53.65149 l 0.354436,-0.11814 c 3.959912,-4.17176 8.881284,-7.60613 15.452619,-8.04205 2.314023,0.11 4.485456,0.91258 6.269861,2.41995 1.812923,1.55219 2.762161,3.66251 3.295853,5.80543 0.533692,0.41554 1.161085,0.64776 1.694777,0.94923 3.88658,2.04922 6.803552,5.70765 8.380184,9.56572 2.199951,4.71767 2.680681,9.13794 2.228469,15.31818 -0.456286,6.18023 -0.908498,8.13574 -3.919172,13.25674 -7.07651,11.75344 -1.869959,19.07846 1.055162,19.12328 4.550639,0.65591 7.19058,-6.77911 9.69608,-9.19091 2.5055,-2.40365 5.206551,-4.46101 6.396154,-4.81138 -0.977756,-0.83924 -3.165485,-1.73144 -4.061761,-3.03919 0,0 5.528395,0.23222 7.316874,-0.5948 0,0 -7.210951,-0.54184 -10.136071,-3.74399 0,0 9.826448,0.8922 9.8183,-0.19555 0,0 -7.435019,0.68443 -10.787908,-6.47763 0,0 4.273609,1.74773 5.793205,1.09182 0,0 -6.180233,-5.24729 -7.520574,-11.04864 1.311823,0.65184 11.048643,7.06021 12.278986,6.73022 0,0 -6.656889,-4.61582 -7.088731,-10.47014 0,0 6.245417,6.77911 10.96309,6.50615 0,0 -5.043592,-5.3084 -4.97026,-8.13167 0.07741,-2.82327 1.051088,-4.25324 0.98183,-6.24541 -0.07741,-2.0044 -0.96146,-4.55472 -0.96146,-4.55472 0,0 1.637741,0.63554 2.8029,1.71922 1.16516,1.10405 2.094028,2.98623 2.599202,3.43437 0.329993,-0.32999 1.283305,-5.50395 -0.150738,-9.4109 0,0 1.658112,1.23442 3.165486,2.71327 1.5033,1.45849 2.252913,4.36731 2.252913,4.36731 0,0 2.582905,-5.26766 0.305548,-10.3194 0,0 1.18553,1.38923 1.808849,1.95552 1.922925,2.14291 2.407725,4.03324 2.407725,6.63244 0,2.59105 -1.368859,4.37953 -0.80665,5.81358 0,0 0.35444,-0.54592 1.63774,-2.66032 1.27516,-2.10625 1.44219,-4.25323 0.90035,-6.15171 -0.54184,-1.90663 -0.86775,-2.40773 -0.84331,-3.84992 -0.057,-1.40552 0.63962,-2.36291 0.78628,-3.10437 0.0652,-0.0856 -0.0367,3.04734 0.88405,4.14731 0.92072,1.45849 1.84959,1.5196 3.24289,3.16956 1.38923,1.63367 1.52775,3.88658 1.52775,3.88658 0,0 0.85961,-1.40959 2.48105,-2.77845 0.18741,-1.89441 1.18961,-5.69136 3.8214,-6.8117 -0.43184,3.92732 -0.26481,4.83174 -0.26481,4.83174 0,0 0.70887,-0.18333 1.54811,-0.32184 0.82702,-0.1263 1.80478,0.11814 1.80478,0.11814 0,0 -1.25886,0.74962 -1.65811,1.18146 -0.3911,0.42777 -1.24257,1.44626 -1.24257,1.44626 0.13037,0.69665 0.39518,3.00253 1.80478,6.77911 1.41367,3.78066 2.38328,4.3999 4.01695,6.83614 0.057,-0.0244 -1.927,-4.75026 0.1711,-5.53654 0,0 0.5948,3.51585 3.15734,5.76469 0,0 -0.33407,-2.48513 -0.11,-4.57916 0,0 2.45254,4.06991 3.46696,3.82547 0,0 0.80258,-1.05516 0.73739,-2.58291 0.54999,0.96554 3.67881,7.82613 6.98281,8.86907 1.98811,0.92479 4.96211,0.50924 5.87469,0.65183 0.89627,0.14259 1.80477,0.17111 1.77218,0.0856 -0.41147,-0.46444 -1.05924,-0.9248 -0.87591,-1.86589 0.19148,-0.93701 1.18961,-1.29145 2.26514,-1.41774 1.07553,-0.10593 2.19587,0 3.78065,0.79442 1.58478,0.79036 3.05549,2.037 4.17584,4.86434 0.48073,0.82702 0.0978,2.04921 0.40332,2.34254 0.52554,0.38703 1.707,0.74961 2.33032,1.09998 1.22627,0.74554 1.92292,0.64369 3.47103,3.27548 -2.49327,-1.02257 -5.05174,-0.82702 -5.05174,-0.82702 0,0 0.45629,0.7048 1.31997,1.19775 -0.22814,0.48481 -1.98403,-0.30555 -2.06958,-0.22814 0.0489,0.82294 1.2059,1.28738 3.10845,2.23254 l -2.80697,0.0733 c 0,0 -0.86776,-0.0407 -2.14699,-0.33814 0,0 -1.16516,0.60295 -1.88218,1.3159 -3.35289,3.38955 -6.33097,2.4892 -7.048,2.45254 -1.66218,-0.0652 -3.01067,-2.93734 -0.97775,-5.4184 0,0 -6.77911,0.89628 -8.92203,1.6907 -2.14698,0.79036 -6.55503,3.7277 -6.55503,3.7277 0,0 0.27295,-2.37514 -0.33407,-2.26514 -0.83517,0.35851 -2.15106,1.13257 -2.37513,2.2244 -0.22407,1.08775 0.0652,2.23661 0.74554,2.77845 1.85366,1.20998 11.91232,2.11848 19.24957,2.11848 7.34132,0 12.98786,-0.79443 22.05247,-3.28771 -1.03479,4.47323 -4.53842,4.75434 -5.32877,5.54469 -0.79443,0.79036 -0.0652,0.73332 -0.73739,1.24257 -1.1896,0.84739 -5.02322,1.52774 -5.6995,2.32217 -0.68443,0.77813 -0.64777,0.98998 -0.64777,0.98998 0,0 0.22407,0.0448 0.57036,0.25666 0.33814,0.24036 2.17958,2.03699 2.48513,2.75808 0.2974,0.71295 0.35444,2.60735 0.0896,2.94549 -0.32185,-0.22814 -0.69665,-0.46036 -0.69665,-0.46036 -0.18741,0.26074 0.0285,2.24884 -0.37074,2.45662 -0.0896,-0.50925 -0.54998,-0.64777 -0.73739,-0.64777 -0.36258,0.15481 0.22407,0.97776 -0.65183,2.36699 0.0448,-0.81073 -0.5337,-1.76811 -0.76591,-2.20403 -0.23629,-0.43999 -1.8333,-1.41774 -2.52995,-1.597 -0.69665,-0.19148 -2.71734,0 -2.71734,0 0,0 -1.69478,0.97368 -1.97996,1.80885 -0.28518,0.83924 0.7048,2.4892 1.12442,2.63587 0.41555,0.15481 3.87843,0.65591 5.38173,0.28518 0.21185,0 1.01442,-0.46444 1.25071,-0.74554 -0.55406,1.29552 -1.03886,3.55251 -2.63179,3.55251 -1.58478,-0.008 -4.8073,-0.0652 -7.00318,-0.65591 -1.13664,-0.68036 -1.68255,-1.36886 -2.42809,-2.38736 -0.44407,-0.22814 -0.0163,3.96806 0.27296,4.08621 2.49735,0.85961 7.43502,2.32624 11.14234,3.34067 3.7114,1.01849 12.37269,2.66846 14.96374,2.8803 3.15734,0.86369 -9.15016,3.63807 -9.27238,3.79288 0.44406,0.32185 0.97775,0.12222 1.42589,0.65184 1.74774,4.88878 -9.12165,2.99438 -11.23605,3.53622 l -0.0896,0.0856 c 0.53776,0.44406 1.8781,0.82702 1.8781,0.82702 -1.99218,1.95144 -9.82237,2.40772 -14.04302,2.0981 -4.21657,-0.2974 -10.52717,-2.04921 -10.52717,-2.04921 0.15481,0.2974 1.89033,1.69885 0.8922,1.75181 -0.99813,0.057 -4.42842,0.0652 -7.32095,-0.27703 -2.88845,-0.34629 -8.66536,-2.24884 -10.3031,-3.49141 -1.64182,-1.23849 -2.01662,-1.377 -2.56661,-1.20182 -0.53777,0.17111 -1.24257,1.19775 -2.15921,1.73959 -0.9248,0.54591 -2.17144,0.49295 -2.66031,0.86776 -0.48481,0.38295 -0.37481,1.0796 -0.70073,2.33439 -0.32999,1.24257 -0.810724,2.16736 -0.761837,2.54217 0.06111,0.3748 2.167357,1.30367 2.167357,1.30367 l 2.33847,0.59888 c 0,0 3.05956,-0.46851 4.34287,0.63554 2.14291,0.44814 4.02917,-1.32405 5.56913,-2.03699 1.54404,-0.71702 2.97401,-1.68256 3.98843,-1.69071 1.0185,-0.008 6.63245,4.21658 6.97059,4.92545 0.33407,0.71295 1.3933,7.11722 0.52554,6.85652 -0.19147,-0.4156 -0.60295,-0.3015 -0.60295,-0.3015 0,0 0.0407,0.827 -0.41554,1.0144 -0.0693,-0.224 -0.56221,-0.4155 -0.56221,-0.4155 0,0 -0.52147,2.1918 -2.59106,2.1429 0.59888,-2.1103 0.12222,-2.7581 0.12222,-2.7581 0,0 -1.20997,0.8352 -2.44031,0.09 1.57663,-0.55 1.04701,-2.46878 1.04701,-2.46878 0,0 0.0978,-1.29553 -1.71515,-1.5196 -1.8007,-0.23222 -3.56881,0.2974 -4.24916,0.97776 -0.67628,0.67628 -0.70887,2.97802 -0.18333,3.91912 0.52147,0.933 0.63554,1.0837 1.42589,1.5767 0.79443,0.497 1.13257,0.8229 2.11033,0.7333 0.97775,-0.09 1.46256,-0.163 2.25698,-0.6885 0.48888,1.2385 -1.30367,2.1999 -1.30367,2.1999 -1.97181,1.3322 -6.07431,-0.02 -6.94614,-1.711 -0.86369,-1.703 -1.09998,-4.5303 -2.33032,-5.65472 -0.2974,-0.38295 -2.23662,-0.4685 -2.26106,-0.14666 -0.52147,6.12318 -4.78286,9.70828 -7.838348,11.37858 0.994058,-0.1996 2.208098,-0.4888 2.953638,-0.7862 1.4259,-0.5908 1.03479,-0.5297 2.33847,-1.373 1.2996,-0.8474 4.2899,-4.738 4.56286,-6.3309 0.0611,-0.3871 0.86776,2.9332 1.29553,3.7725 0.7048,1.3851 2.39957,2.5381 4.51804,3.084 2.07774,0.5337 4.04547,0.3137 5.39803,-0.603 l 1.7233,-1.6744 1.36071,-0.3218 c 2.07366,-0.4808 2.42809,-2.2244 2.5992,-2.1715 0.38295,0.1141 1.02664,0.2852 1.14071,0.2526 l 0.86776,-1.0103 c 1.64997,-1.9107 -0.36666,-8.96277 -0.39517,-9.02388 -0.25666,-0.53777 -1.89848,-2.06144 -3.6177,-3.36104 1.22219,0.0163 2.55439,0.0245 2.98216,0 0.97368,-0.057 1.79255,-0.98183 1.79255,-0.98183 2.24069,0.5174 5.21877,1.1122 7.62242,1.28738 3.11252,0.22 12.68639,0.20778 15.64002,-2.67661 0,0 0.14667,-0.42369 0.35851,-0.42369 3.60955,0.0611 7.5328,0.0163 9.21536,-2.31402 0.53776,-0.75776 0.64776,-2.7092 0.64776,-2.7092 6.53467,-1.76404 8.24574,-2.59513 8.25389,-4.56286 0,-0.41962 -0.13852,-1.82515 -2.02477,-2.34254"
     id="path6316"
     style="fill:#FFFFFF;fill-opacity:1;fill-rule:nonzero;stroke:none" />
  <path
     d="m 149.77611,109.01864 c -1.02257,-0.13852 -2.11847,0.69665 -2.11847,0.69665 0,0 1.65404,-0.057 2.06959,0.0856 0.41554,0.14259 1.92699,0.8148 2.81104,1.74367 0.22815,0.24036 0.37074,0.41962 0.55407,0.99405 0.20777,-0.73739 0.0244,-1.20183 -0.13852,-1.43812 -0.37481,-0.63961 -2.15921,-1.95143 -3.17771,-2.0818"
     id="path6320"
     style="fill:#FFFFFF;fill-opacity:1;fill-rule:nonzero;stroke:none" />
  <path
     d="m 147.73508,106.32529 c 0.37481,-0.0815 3.57696,-0.15481 4.1025,0.22814 0.52147,0.37481 2.90475,2.11847 3.15734,2.94956 0.13444,-0.83516 0.13444,-1.34441 -0.1874,-1.7844 -0.36666,-0.67628 -1.99626,-2.20403 -2.48513,-2.51772 -0.48481,-0.32185 -5.78913,-0.46444 -6.52245,0.0693 -0.73332,0.53776 -3.07179,2.91289 -3.07179,2.91289 0,0 -2.11439,2.09403 -2.64401,2.26106 -0.53369,0.15889 -0.52554,0.0856 -0.79035,0.2037 -0.26481,0.11 0.44813,3.77251 0.71702,3.77251 0.26073,0 1.06738,-0.6111 1.38515,-0.36666 0.32185,0.24037 0.76184,0.85147 0.76184,0.85147 0,0 1.11219,1.14479 1.69885,1.65403 0.11814,0.17926 4.55064,0.75776 6.6243,0.71702 0.36665,0 1.12441,-1.46663 1.12441,-1.46663 -1.11219,0.70073 -5.49987,0.0122 -6.02949,-0.17518 -0.52554,-0.19963 -1.78848,-2.5992 -1.62552,-3.52807 0.16296,-0.93702 2.50957,-2.46883 2.50957,-2.46883 0,0 1.19775,-0.8311 1.56849,-0.96961 0.65591,-0.27703 1.53589,-0.27703 1.53589,-0.27703 0,0 0.80257,0.0774 1.51552,0.30962 0.71702,0.22814 2.85994,1.81292 3.07993,2.75401 0.18741,-0.83924 0.18741,-1.63367 -0.13851,-1.84959 -0.37074,-0.56628 -2.2244,-2.22847 -2.67254,-2.45661 -0.45628,-0.21592 -4.03324,-0.19148 -4.10657,-0.2974 -0.0733,-0.11 0.11407,-0.45629 0.49295,-0.52554"
     id="path6324"
     style="fill:#FFFFFF;fill-opacity:1;fill-rule:nonzero;stroke:none" />
  <path
     d="m 138.42931,110.80504 c -0.41962,-0.0815 -1.34849,0.34629 -2.1307,0.45629 -0.60702,0.0896 -1.12442,1.03071 -1.27108,1.36478 -0.15481,0.33407 0.30148,0.84739 0.5011,1.66626 0.19555,0.82702 -0.11,1.88218 0.22407,1.88218 0.34222,0 0.71702,-0.60295 1.27516,-0.79035 0.57443,-0.19148 1.65811,-0.26481 1.96366,-0.41555 0.30147,-0.15074 0,-1.05516 -0.0774,-1.73144 -0.0733,-0.67221 -0.0733,-2.35477 -0.4848,-2.43217"
     id="path6328"
     style="fill:#FFFFFF;fill-opacity:1;fill-rule:nonzero;stroke:none" />
  <path
     d="m 138.08747,118.00625 c -0.14667,0.44814 1.65811,0.82295 1.95551,0.67628 0.30147,-0.15481 -0.057,-2.55846 -0.14666,-3.04734 -0.0937,-0.5011 -1.62145,0.0326 -2.037,0.18741 -0.41147,0.14259 0.11815,2.10217 0.22815,2.18365"
     id="path6332"
     style="fill:#FFFFFF;fill-opacity:1;fill-rule:nonzero;stroke:none" />
  <path
     d="m 134.59404,116.58969 c 0.30147,-1.73959 -0.053,-3.34067 -0.65184,-3.38141 -0.71702,-0.14666 -4.66471,0.61517 -4.86026,0.96146 -0.17926,0.33814 5.39802,2.82735 5.5121,2.41995"
     id="path6336"
     style="fill:#FFFFFF;fill-opacity:1;fill-rule:nonzero;stroke:none" />
  <path
     d="m 101.03539,140.01509 c -0.87183,-0.43999 -1.601075,-1.08368 -1.975881,-1.08368 -0.382955,0 -2.089954,2.44439 -2.032918,2.77439 0.05704,0.31777 1.792553,0.63961 2.827344,1.07145 1.026645,0.42777 2.440315,1.06739 2.766235,1.06739 0.32592,0 1.3933,-2.55439 1.01442,-2.98623 -0.16703,-0.32999 -1.72737,-0.41962 -2.5992,-0.84332"
     id="path6340"
     style="fill:#FFFFFF;fill-opacity:1;fill-rule:nonzero;stroke:none" />
  <path
     d="m 106.2872,145.83193 c 0,0 -1.06739,0.29332 -1.75182,-0.0652 0.76184,3.24289 -3.7888,9.76939 -3.7888,9.76939 1.10812,-0.277 5.16581,-3.9843 5.54062,-9.7042"
     id="path6344"
     style="fill:#FFFFFF;fill-opacity:1;fill-rule:nonzero;stroke:none" />
  <path
     d="m 108.26837,144.98413 c 0.37888,0.14259 1.487,-0.15888 2.30994,1.57663 0.8311,1.50736 1.26294,4.59136 2.09403,5.31246 0.82702,0.713 0.90443,0.937 2.93734,1.3526 1.99218,0.1874 2.8192,-0.094 2.93327,-0.6274 -2.40365,0.4929 -3.56066,-0.6152 -3.56066,-0.6152 0,0 -1.25479,-0.7781 -1.74366,-1.8659 -0.49296,-1.0877 -0.63962,-2.91694 -0.33815,-3.67063 0.30148,-0.74961 0.56629,-1.62144 1.57664,-2.03699 0.71702,-0.29333 1.64181,-0.67628 2.88438,-0.67628 1.23849,0 2.39142,0 3.33252,1.02257 0.31369,0.44814 0.40332,1.4096 0.40332,1.62144 0.15888,1.21405 -0.39518,1.76809 -0.39518,1.76809 0,0 1.05109,0.1793 1.26294,-0.86774 0.30962,0.83514 0.46443,1.29964 0.49702,2.94144 0,0 1.6133,-1.3118 1.08368,-3.16143 0,0 -0.48073,-2.60735 -1.45441,-3.77251 -0.93701,-1.12442 -3.34067,-2.24884 -4.20842,-2.28958 -0.86369,-0.0326 -3.81325,1.57663 -4.09843,1.20183 -0.28518,-0.36666 3.25919,-2.43625 4.47323,-2.38328 1.2059,0.0733 3.76436,2.08588 4.51805,2.91289 0.79035,1.05924 1.37293,3.36104 1.49515,5.21058 1.58071,0.1467 0.60295,-4.71762 -0.1874,-5.7239 -0.52962,-0.60295 -5.01507,-4.39175 -6.3269,-4.11879 -1.31997,0.25666 -5.3858,2.73771 -6.55096,3.2714 -1.26701,0.57036 -2.53402,0.1263 -2.77439,0.22815 -0.26073,0.10999 0.22815,0.82294 0,1.79662 -0.22406,0.98183 -0.54184,1.43405 -0.16295,1.59293"
     id="path6348"
     style="fill:#FFFFFF;fill-opacity:1;fill-rule:nonzero;stroke:none" />
  <path
     d="m 107.13866,144.98413 c 0.48073,-0.17111 0.82702,-2.58698 0.67628,-3.33659 -0.15074,-0.74961 -2.76624,-0.85146 -3.22252,-0.62739 -0.33814,0.0407 -0.43184,1.17738 -0.61925,1.75588 -0.26073,0.83924 -0.79035,1.34034 -0.56628,1.63367 0.34629,0.86368 2.67661,0.94109 3.73177,0.57443"
     id="path6352"
     style="fill:#FFFFFF;fill-opacity:1;fill-rule:nonzero;stroke:none" />
  <path
     d="m 153.61953,85.58545 c 0.4848,-0.0611 1.8007,0.15074 2.40772,0.23222 0.59888,0.0652 1.55627,0.44406 1.55627,0.44406 0,0 -0.27703,-0.91257 -2.01255,-1.78033 -0.85961,-0.41147 -1.85366,-0.99405 -2.45254,-0.84739 -0.60295,0.15482 -1.83737,1.86181 -2.06551,2.57069 -0.22814,0.71294 -0.20777,2.15106 1.07553,2.5992 1.4259,0.33814 2.25699,0.19962 2.25699,0.19962 0,0 -1.84552,-0.2811 -2.48513,-1.86588 -0.33814,-1.12849 1.24256,-1.49515 1.71922,-1.55219"
     id="path6356"
     style="fill:#FFFFFF;fill-opacity:1;fill-rule:nonzero;stroke:none" />
  <path
     d="m 37.988047,64.4317 c -0.03259,-0.0693 -0.35851,0.30555 -0.835166,0.92072 l 0,13.88821 c 1.739591,0.66406 3.124745,1.63367 4.298052,2.74586 0.154812,-0.44813 0.566284,-2.02477 1.06331,-3.93546 l 0,-9.03202 c -0.757761,-0.47666 -1.48293,-0.91258 -1.633667,-1.02257 -1.014422,-0.72925 -2.248839,-2.16329 -2.892529,-3.56474"
     id="path6376"
     style="fill:#73000A;fill-opacity:1;fill-rule:nonzero;stroke:none" />
  <path
     d="M 181.55651,39.20396 141.2037,2e-5 l -95.913791,0 -44.84641016,43.55903 0,112.87787 44.84641016,43.5631 95.913791,0 40.35281,-39.1999 0,-18.95622 -42.07203,0 0,16.58922 -96.968954,0 0,-20.62653 -0.708873,-0.0774 c 0.281105,-0.24036 0.505174,-0.46443 0.708873,-0.67628 l 0,-1.75181 c -1.702925,0.81072 -3.654363,1.0022 -5.361362,0.97775 l 0,27.36897 107.687606,0 0,-16.59735 31.35745,0 0,11.59455 -37.21991,36.1362 -91.46908,0 -41.7094429,-40.4994 0,-83.82632 C 5.7030111,70.3822 5.58894,70.33328 5.4830164,70.2518 c 0,0 -2.5340177,-1.91477 -3.2388169,-2.98215 l 3.5565876,-0.88813 0,-20.66325 L 47.51023,5.2188 l 91.46908,0 37.21991,36.14031 0,11.59048 -31.35745,0 0,-16.5974 -107.687606,0 0,11.42345 c 1.641816,-1.19776 3.454738,-2.24477 5.361362,-3.05549 l 0,-3.15327 96.968954,0 0,16.59334 42.07203,0 0,-18.95625 z"
     id="path6380"
     style="fill:#73000A;fill-opacity:1;fill-rule:nonzero;stroke:none" />
  <path
     d="M 37.630356,94.68429 C 37.47147,94.51318 37.312585,94.34615 37.1537,94.17504 l 0,0.54999 c 0.158885,-0.0163 0.31777,-0.0407 0.476656,-0.0407"
     id="path6384"
     style="fill:#73000A;fill-opacity:1;fill-rule:nonzero;stroke:none" />
  <path
     d="m 40.096778,107.49089 c -0.965534,-0.35036 -1.951438,-0.62332 -2.94549,-0.79442 l 0,2.30587 c 0.953312,-0.60295 1.94329,-1.09997 2.94549,-1.51145"
     id="path6388"
     style="fill:#73000A;fill-opacity:1;fill-rule:nonzero;stroke:none" />
  <path
     d="m 37.152873,131.20669 c 1.413672,-1.07553 2.028843,-2.03699 3.002526,-3.3977 -0.782205,0.0122 -1.772183,-0.0407 -3.002526,-0.21999 l 0,3.61769 z"
     id="path6392"
     style="fill:#73000A;fill-opacity:1;fill-rule:nonzero;stroke:none" />
  <path
     d="m 37.152873,120.19435 0,1.80885 c 0.187403,-0.26481 0.370732,-0.53369 0.54184,-0.86776 0.529617,-1.0022 1.246638,-2.03699 2.094027,-3.05141 -1.006274,0.52961 -1.890328,1.30774 -2.635867,2.11032"
     id="path6396"
     style="fill:#73000A;fill-opacity:1;fill-rule:nonzero;stroke:none" />
  <path
     d="m 39.488129,50.7973 c -0.745539,0.37073 -1.784405,1.0022 -3.230669,2.37921 -1.959586,1.71922 -3.870284,5.55691 -4.196203,6.11097 -0.321845,0.55814 -4.220647,6.7343 -4.452864,9.46794 -0.60295,3.38955 -2.554388,4.45694 -2.554388,4.45694 1.988104,-0.94924 5.198403,-4.31843 6.917624,-6.63245 2.509574,-3.16956 4.078058,-6.35949 6.017274,-9.9283 0.949238,-1.63774 2.892528,-4.92137 4.236943,-6.41245 0.472582,-0.47665 -1.996252,0.18741 -2.737717,0.55814"
     id="path6400"
     style="fill:#73000A;fill-opacity:1;fill-rule:nonzero;stroke:none" />
  <path
     d="m 55.366443,65.00446 c 1.368858,-2.26513 2.350688,-4.6973 2.52587,-7.49205 -0.146664,-1.62552 0.03259,-3.34882 -0.741465,-4.81545 -1.275157,-2.74994 -2.094028,-3.66251 -3.299927,-4.50175 -1.205899,-0.83925 -4.175833,-1.71515 -4.155463,-1.15702 -0.08963,0.55814 3.251039,0.46036 4.363236,6.3106 0.492952,2.66032 -0.277031,3.62178 -1.393302,6.09876 -0.566284,0.97775 -1.04294,2.02069 -1.429968,3.09215 -3.055488,6.95022 -5.459138,14.20191 -6.827997,21.90174 -0.505174,1.42182 -0.492952,6.30245 -0.195551,7.76094 1.246639,6.12319 3.214373,9.72052 6.632445,14.91485 2.016622,3.2103 7.157989,6.25356 11.745295,7.23132 -9.700155,-5.80135 -10.995682,-9.49646 -10.995682,-9.49646 0,0 -7.528721,-11.74122 -2.639941,-24.84722 1.898476,-5.07211 3.890654,-10.18089 6.41245,-15.00041"
     id="path6404"
     style="fill:#73000A;fill-opacity:1;fill-rule:nonzero;stroke:none" />
  <path
     d="m 41.624522,53.80915 c -0.423694,0.28111 -0.798501,0.72517 -1.397377,1.58478 -0.05296,0.14667 -1.197751,1.79663 -1.018495,1.94737 3.833618,0.0896 9.463863,-2.96586 13.089709,-0.74554 0.382954,-0.0856 0.329992,-1.07146 0.39925,-1.36479 -0.0937,-0.45221 0.08555,-1.19367 -0.448138,-1.42996 -1.54404,-0.21185 -3.271409,-0.32592 -4.937668,-0.36259 -1.48293,0.0652 -5.267661,0.0978 -5.687281,0.37073"
     id="path6408"
     style="fill:#73000A;fill-opacity:1;fill-rule:nonzero;stroke:none" />
  <path
     d="m 30.110617,59.19582 c 0.509248,-0.46036 0.908499,-1.73959 1.442191,-2.69291 0,0 0.321844,-0.41554 -0.464435,-0.37073 -1.625519,0.0937 -3.801026,1.59293 -6.029495,3.11252 -3.951764,3.7114 -8.286483,6.97874 -13.040821,8.97092 -0.594802,0.38295 -1.340341,0.41147 -1.902551,0.7985 3.291779,0.14666 6.204677,-0.91665 9.003504,-2.19995 4.249165,-1.83737 10.021999,-6.51023 10.991607,-7.61835"
     id="path6412"
     style="fill:#73000A;fill-opacity:1;fill-rule:nonzero;stroke:none" />
  <path
     d="m 50.390899,109.07364 c 0,0 -3.662511,-7.06022 -5.120997,-8.7387 -1.470708,-1.67848 -6.485782,-2.40772 -10.066813,-1.33219 -3.572884,1.09183 -5.683207,2.11032 -9.068688,5.16174 -0.484804,0.62739 -1.311822,1.28738 -1.523669,2.05328 l 0.509247,-0.26888 c 4.701377,-3.32029 11.712703,-5.46321 25.27092,3.12475"
     id="path6416"
     style="fill:#73000A;fill-opacity:1;fill-rule:nonzero;stroke:none" />
  <path
     d="m 121.67585,57.93492 c -0.38703,0.91257 -0.56221,2.09403 -0.30148,4.23694 0.22407,1.60515 0.90035,2.04107 0.90035,2.04107 0.49295,-1.27516 1.707,-1.40145 1.69478,-3.16549 0.057,-1.58478 -0.36666,-1.75996 -0.59073,-3.22659 -0.17111,-1.07553 0.053,-2.4281 0.053,-2.4281 0,0 -1.35256,1.64182 -1.75588,2.54217"
     id="path6420"
     style="fill:#73000A;fill-opacity:1;fill-rule:nonzero;stroke:none" />
  <path
     d="m 109.00047,61.8138 c -0.80257,1.25479 -1.14479,3.69103 -0.88813,5.36136 0.26074,1.66626 1.47479,4.05361 2.41588,4.42842 0.94109,0.37888 1.63366,0.0407 2.87623,0.45629 1.24664,0.40332 2.5992,0.79035 2.5992,0.79035 -1.03072,-0.94924 -3.92325,-3.23474 -4.15954,-4.42435 -0.0407,-0.10592 -0.72109,-1.97995 -0.3748,-4.91729 0.37073,-3.23882 3.87843,-7.55317 3.87843,-7.55317 0,0 -2.61957,1.13257 -3.86621,2.52994 -1.33627,1.21813 -2.24884,2.87216 -2.48106,3.32845"
     id="path6424"
     style="fill:#73000A;fill-opacity:1;fill-rule:nonzero;stroke:none" />
  <path
     d="m 47.115038,68.25517 c 0.260734,-0.91257 0.505173,-1.4707 0.989978,-2.41587 0.305548,-0.3748 -3.043266,-0.84331 -4.852115,-1.62959 -1.617371,-0.70887 -2.937342,-2.15106 -2.937342,-2.15106 0,0 0.03667,0.68035 0.167033,1.18552 0.191478,0.70888 1.189604,1.66219 1.865885,2.26107 0.904424,0.82294 4.685081,3.04733 4.766561,2.74993"
     id="path6428"
     style="fill:#73000A;fill-opacity:1;fill-rule:nonzero;stroke:none" />
  <path
     d="m 112.70862,54.15504 c -0.3911,0.96146 -0.65998,2.48105 -0.65998,2.48105 0.62331,-0.47258 1.01849,-0.68443 1.75588,-1.0022 0,0 -0.0937,-0.60295 -0.11814,-1.36886 -0.0163,-0.76998 0.11814,-1.80885 0.11814,-1.80885 0,0 -0.70072,0.7374 -1.0959,1.69886"
     id="path6432"
     style="fill:#73000A;fill-opacity:1;fill-rule:nonzero;stroke:none" />
  <path
     d="m 146.3385,75.50397 c -1.63774,-0.40332 -3.15733,-0.41554 -3.33252,0.73739 -0.1711,1.14887 1.18553,1.86589 1.18553,1.86589 0,0 1.74774,0.11407 3.89473,1.40145 2.14699,1.30367 3.33252,2.61957 3.33252,2.61957 0,-0.77406 -0.0978,-1.71107 -0.3911,-2.33439 -0.56629,-1.68663 -3.05549,-3.89066 -4.68916,-4.28991"
     id="path6436"
     style="fill:#73000A;fill-opacity:1;fill-rule:nonzero;stroke:none" />
  <path
     d="m 150.05075,82.02438 c -0.45221,-0.49295 -2.63179,-2.05736 -3.25918,-1.95144 -0.63962,0.12222 -3.50363,2.37921 -3.50363,2.60735 -0.11407,0.39518 0.39518,1.18146 0.73739,1.57664 0.33814,0.39925 0.89628,0.86775 1.35664,0.79442 0.44814,-0.0733 1.14071,-0.75368 1.22219,-0.8922 0.14259,-0.19148 -0.13851,-0.11407 -0.39517,-0.19148 -0.99813,-0.1711 -1.03072,-1.82107 0.13036,-2.33846 0.7211,-0.32592 1.89441,-0.25666 2.80698,1.14886 0.59073,0.79035 1.64181,1.30367 1.84959,1.35664 0.21184,0.0326 0.56628,-0.41148 0.50925,-0.63962 -0.11408,-0.47666 -1.0022,-0.97776 -1.45442,-1.47071"
     id="path6440"
     style="fill:#73000A;fill-opacity:1;fill-rule:nonzero;stroke:none" />
  <path
     d="m 141.03131,91.22303 c 0.4848,0.90035 1.2059,1.02257 2.66846,0.97776 2.48513,0.0815 5.12099,-3.08401 6.36356,-3.57696 0.52962,-0.33407 0.41555,-0.86776 0.19148,-1.12442 -0.22815,-0.26481 -3.28363,-0.38703 -4.29398,-0.33814 -1.01442,0.0407 -3.31622,0.21999 -3.99251,0.67221 -0.3748,0.1874 -1.42996,2.4892 -0.93701,3.38955"
     id="path6444"
     style="fill:#73000A;fill-opacity:1;fill-rule:nonzero;stroke:none" />
  <path
     d="m 28.800824,86.63695 c 6.542817,-0.057 10.995681,5.16581 15.098182,9.63089 l 0.02852,-0.24851 C 43.544572,94.74825 40.513528,81.99261 32.870735,81.96816 c -3.841766,0.0326 -7.308726,2.83142 -9.268312,6.17616 l 0.179255,0.0367 c 1.54404,-0.80258 3.120671,-1.54404 5.019148,-1.54404"
     id="path6448"
     style="fill:#73000A;fill-opacity:1;fill-rule:nonzero;stroke:none" />
  <path
     d="m 147.01112,86.44465 c 1.2833,0.0367 2.37513,0.26074 2.79068,0 0.41147,-0.26888 0.12629,-0.55406 0.79442,-1.49107 0.68443,-0.94924 -1.36478,-0.21185 -2.8803,-0.65591 -0.30555,-0.11 -1.1122,0.65591 -1.71922,1.15293 -1.46256,0.84332 -2.02885,-0.49702 -2.25699,-0.34221 -0.22407,0.14666 -1.05924,1.22219 -0.79035,1.41367 0.26073,0.18333 2.78253,-0.12222 4.06176,-0.0774"
     id="path6452"
     style="fill:#73000A;fill-opacity:1;fill-rule:nonzero;stroke:none" />
  <path
     d="m 158.81508,98.94523 c 1.55218,-0.59481 1.86996,-1.1122 2.04106,-2.20403 -2.03291,0.57443 -11.0242,2.20403 -15.27744,2.40772 -4.45693,0.0815 -8.91387,0.0244 -13.3097,-0.2974 -2.40365,-0.18333 -8.93425,-1.95143 -8.31907,-0.76998 0.93701,1.65811 4.08213,4.83175 4.45286,7.06021 0.36666,2.23255 -0.0856,5.36544 -0.37073,7.72835 0.24036,0.50925 4.00472,-0.69665 5.14136,-0.85961 1.18146,-0.40332 1.06331,-1.33219 2.22033,-1.97996 0.74146,-0.28517 3.21029,-0.74553 4.39175,-0.81072 0.28111,0.12222 2.07773,-1.64996 2.35884,-2.15921 0.33406,-0.34629 -2.82735,0.16296 -3.90288,-0.0611 -0.72924,-0.057 0.0693,-0.74146 0.46443,-0.74146 0.39518,0 3.77251,0.34628 4.11065,0.12222 0.34222,-0.22407 2.00033,-1.68663 1.55219,-1.85774 -0.45221,-0.17111 -2.66031,0.0733 -3.22659,-0.0978 -0.56629,-0.17518 -0.0611,-0.56628 0.67628,-0.56628 0.73332,0 7.47983,0.21999 8.55536,0.11 0.84332,0 2.10218,-0.94109 2.4118,-1.86589 0.17111,-0.50517 -4.94174,-0.25666 -6.16394,-0.1711 -1.22219,0.10592 -6.35948,0.24443 -9.62682,-0.0204 l -0.26888,-0.17926 c -0.0326,-0.0896 0,-0.17111 0.0937,-0.17111 6.50615,0.14667 16.02298,-0.9859 21.99544,-2.61549"
     id="path6456"
     style="fill:#73000A;fill-opacity:1;fill-rule:nonzero;stroke:none" />
  <path
     d="m 78.103382,61.8138 c -0.260735,3.42622 2.786604,4.85619 2.786604,4.85619 0,0 -1.091827,-1.65811 -0.863684,-3.26734 0.452212,-2.34254 2.183655,-3.24289 2.252913,-4.71767 0.08148,-1.46256 -1.238491,-3.56881 -1.238491,-3.56881 0,0 0.342214,0.97368 -0.338141,2.37106 -0.643689,1.13257 -2.411798,1.75996 -2.599201,4.32657"
     id="path6460"
     style="fill:#73000A;fill-opacity:1;fill-rule:nonzero;stroke:none" />
  <path
     d="m 15.123671,100.41312 c -1.511448,0.0733 -2.994378,-0.7985 -2.994378,-0.7985 0,0 0.619245,2.77031 2.994378,2.89253 2.314022,-0.057 3.727695,-2.49328 4.065835,-4.46509 0,0 -1.356636,2.19995 -4.065835,2.37106"
     id="path6464"
     style="fill:#73000A;fill-opacity:1;fill-rule:nonzero;stroke:none" />
  <path
     d="m 84.881626,128.19932 c 1.055162,-1.65811 -0.476656,-3.28771 -2.745864,-5.5121 -1.087754,-1.46256 -3.743991,-2.44439 -4.44879,-5.58136 -1.364785,-4.96618 5.471359,-15.82335 9.207202,-15.76631 -1.40145,2.5992 -0.321844,5.7932 -0.321844,5.7932 0,0 0.570357,-3.78473 3.581031,-6.34319 3.919172,-3.92732 8.803878,-5.9358 10.205329,-6.59171 -1.299601,-0.10999 -1.637742,-0.053 -1.865885,-0.50925 -0.448138,-0.84331 0.957386,-3.70325 5.736165,-5.13729 -1.91884,0.90443 -3.61769,1.57663 -4.1799,3.16549 -0.452215,1.18553 0.19555,1.63366 0.19555,1.63366 0,0 1.12849,-1.07145 1.86588,-1.5807 0.73739,-0.50925 2.75402,-0.87591 2.77031,-0.84332 0.17111,0.39111 0.053,0.72517 -0.17518,1.07146 -0.22814,0.33814 -0.85961,0.33814 -1.37293,1.18146 -0.30148,0.52554 -0.47258,1.43811 -0.18741,1.77218 0.28518,0.34629 1.50738,0.0733 2.18366,-0.60702 0.85146,-1.29553 0.67628,-0.81887 0.90442,-2.28958 0.28111,-1.75589 1.58071,-2.09403 1.58071,-2.09403 0,0 -0.22407,3.04734 0.28518,3.56474 0.27703,-1.64589 1.12442,-1.52775 1.12442,-1.52775 0,0 -0.053,2.9292 0.68035,3.21845 0.11,-1.58071 1.07553,-1.47071 1.07553,-1.47071 0,0 0.17111,2.54217 0.63962,2.7255 0.2037,-0.85554 0.76591,-1.707 0.76591,-1.707 0,0 0.62739,2.19995 1.01849,2.53401 0.28518,-0.55813 1.07554,-1.40959 1.07554,-1.40959 0,0 0.30555,3.81732 2.84771,5.16988 -0.89628,-5.7932 -0.34221,-6.18431 0.46036,-6.53059 0,0 0.53369,5.17803 5.97653,8.01352 0,0 -1.41774,-2.68883 -1.91884,-4.3999 -0.49703,-1.69478 -1.36071,-5.62617 0.13037,-7.12947 0.41554,-0.53369 -1.95959,0.27295 -0.9085,-0.32999 1.05923,-0.60295 5.33284,-2.26921 5.53654,-1.94737 0.26481,0.3911 0.053,1.46256 -0.0367,1.84959 0,0 3.05141,-2.03292 4.96618,-2.5992 1.927,-0.55814 9.66349,-1.5196 9.66349,-1.5196 0.33814,0 2.03699,-1.69885 1.97996,-2.15514 -0.0611,-0.44813 -0.98591,-1.51959 -0.90443,-1.8007 0.18741,-0.63961 4.47731,-3.14511 2.99031,-3.10845 -4.17991,-0.57035 -8.70203,-0.15073 -11.35012,-1.5807 -3.13697,-1.69885 -3.81732,-4.5262 -4.91323,-6.49393 0.21592,0.66813 -0.90442,1.58071 -0.90442,1.58071 0,0 -2.35476,-1.55219 -2.99438,-2.7092 0.44814,1.27515 0,2.75808 0,2.75808 -3.54029,-2.22439 -3.78473,-3.72362 -3.78473,-3.72362 -0.15074,0.52962 0.95739,4.06176 0.95739,4.06176 0,0 -3.46289,-1.79662 -5.81765,-6.99503 -0.97776,-1.78847 -2.14292,-7.29243 -2.14292,-7.29243 -1.41367,2.2244 -1.58478,2.94549 -1.58478,2.94549 0,0 -1.1896,4.22472 0.33814,6.828 1.18961,1.75181 4.01288,3.95176 4.69323,4.17583 1.63367,1.18961 0.33407,1.0185 0.33407,1.0185 0,0 -4.68916,-1.35256 -5.98876,-1.40553 -1.29552,-0.0611 -1.91884,0.33815 -3.72769,-0.1711 -1.80478,-0.50925 -3.13289,-2.65217 -2.98623,-4.74212 0.16296,-2.56254 1.07553,-2.80697 1.35256,-3.78473 0.94924,-1.58071 1.2222,-4.99878 -0.44406,-6.94614 -0.52147,-0.67628 -1.38516,-1.48293 -2.66439,-2.26921 0.52962,1.69885 0.71702,2.22439 0.59888,3.27956 -0.18333,2.5992 -0.29333,3.61769 -2.36699,6.5917 -3.312145,3.29993 2.90068,9.34165 2.90068,9.34165 0,0 -3.33252,-2.94549 -4.974334,-5.23915 -1.731443,-3.01067 0.187403,-8.24574 0.02852,-10.00977 -0.167033,-1.77219 -0.517396,-3.2429 -0.517396,-3.2429 0,0 -0.114072,3.64622 -0.875906,5.22692 -0.769983,1.58478 -1.218122,2.85179 -1.344415,4.48953 -0.293327,3.50363 0.753687,6.13542 0.753687,6.13542 -1.617372,-1.80884 -2.521796,-7.08465 -2.48513,-9.56571 0.03259,-2.74994 -1.975882,-4.47323 -1.975882,-4.47323 0,0 0.130367,1.80477 -0.03667,3.62992 -0.158885,1.82107 -0.623319,2.11439 -0.814797,4.68508 -0.370732,2.55846 5.389881,9.33349 5.389881,9.33349 0,0 -4.147316,-2.85586 -5.691355,-7.33724 -0.448139,-1.99625 -4.065836,-6.66911 -4.065836,-6.66911 0,0 0.566284,0.86776 0.41962,2.67661 -0.154811,1.80884 -1.283304,3.49955 -0.607023,5.80542 1.128493,2.37106 5.210625,9.28868 11.989733,9.97311 -3.507699,1.93922 -14.043021,-2.66031 -16.206306,-3.61362 1.030718,2.16329 9.8183,8.0013 16.377419,9.09313 -4.986561,2.15921 -17.599614,-4.1188 -22.590244,-7.45539 3.356963,4.75434 8.473886,8.69796 8.473886,8.69796 -1.356637,1.02257 -6.049866,0.28517 -6.049866,0.28517 2.366985,3.26327 12.201581,3.38956 12.201581,3.38956 -0.753687,2.4892 -8.693881,2.26106 -8.693881,2.26106 4.171759,2.04921 8.35574,1.40552 8.35574,1.40552 -0.374806,0.97369 -0.863684,1.70293 -2.815122,2.07774 -2.815123,0.64776 -6.049866,0.35443 -6.049866,0.35443 l 3.825471,1.81293 c 0,0 -5.145441,3.30807 -7.964638,6.06616 -2.815123,2.76623 -5.833944,10.03014 -8.706103,9.32942 -2.122545,0.76591 -4.102501,-0.0733 -4.815448,-1.05924 -0.721095,-0.97368 -2.916972,-3.87436 -3.165485,-6.47356 -0.240366,-2.60327 1.051087,-9.34164 3.316222,-12.80453 2.256987,-3.46288 4.065836,-5.71987 4.216573,-17.17591 -0.264809,-8.10723 -3.483256,-14.14895 -7.109101,-17.12703 -0.859611,-0.86368 -2.529944,-2.05329 -2.982156,-2.16736 -0.452212,-0.10999 -0.06926,1.33627 -0.175181,2.14699 -0.114072,0.91665 -0.558136,1.83737 -0.228143,2.19181 0.607023,0.99812 2.265134,1.20182 4.24509,9.16646 2.314023,12.42157 -3.275482,17.05777 -3.389554,21.61248 -0.904424,4.66879 -0.607023,8.43315 -0.301475,11.15049 -2.86401,-6.33504 -1.731443,-13.22822 -0.774057,-19.2129 0.957387,-5.98468 -2.041065,-12.2301 -3.316222,-13.09786 -0.240365,-0.11815 -0.62332,-0.41962 -0.806649,0 -0.680355,1.46256 -1.303675,2.46476 -1.747739,4.00473 5.422472,5.92764 0.769983,11.95714 0.0163,16.25112 -0.753687,4.28583 0.904424,12.80453 1.955512,14.61338 1.055162,1.8007 7.019474,9.47201 14.161167,9.93644 -2.741791,1.34442 -4.135093,1.4096 -6.779109,0.75369 -8.579809,-2.17144 -12.523425,-6.1069 -15.175588,-6.02542 -3.385481,0.10999 -4.701377,0.59887 -6.062088,1.12849 -1.352562,0.53369 -2.859936,1.2059 -4.065835,2.56661 -1.205899,1.35664 -2.020696,2.7866 -2.261061,4.2125 0,0 1.658111,-2.03699 4.599527,-3.45881 5.190255,-1.96774 7.679459,-1.73959 11.289009,0.60295 3.014747,1.19367 7.532795,5.93986 11.900105,4.88878 0.146664,-0.057 2.318097,-0.0122 2.261061,0.22814 0,0.11814 -2.167359,0.54184 -2.261061,0.59887 -3.458812,0.60295 -7.023547,-1.45033 -10.535321,-3.3814 -0.977756,-0.53369 -3.018822,-1.73959 -3.923246,-1.43404 -0.90035,0.29332 -3.308075,1.80884 -5.047666,3.84176 -1.731443,2.02477 -3.088079,4.81545 -3.088079,4.81545 2.713273,0.52554 3.165485,0.15481 8.135745,-3.9925 1.731443,-0.82295 5.393954,-0.75776 8.812026,0.75368 0.224069,0.38296 0.374807,0.83517 -0.07741,1.2059 -1.694778,0.0245 -2.151064,-0.37888 -3.161412,0.30148 -1.006274,0.68443 -1.128493,2.63994 -0.831092,2.48513 0.607023,0.15481 1.662185,-0.82295 4.371384,-0.59888 1.434042,0.37073 -4.273609,2.01662 -6.172085,2.10218 -4.171759,-0.0815 -5.275809,-0.22 -6.779109,1.21404 -1.507373,1.42183 -2.187729,3.16142 -3.621771,4.74212 0.835167,-0.0937 4.595454,-2.48105 5.426546,-2.86401 0.827019,-0.37888 5.723947,0 8.812026,-0.68443 3.08808,-0.67221 4.595454,-1.57256 5.349141,-2.25291 0,0 -0.232217,2.18365 -1.556262,5.0884 0.06111,0.21185 5.255439,-4.54656 5.634319,-5.52839 -0.122219,0.29333 -1.2996,3.04734 -0.215921,6.34319 0.329993,2.55032 0.810723,2.66031 0.109998,6.72207 2.546239,-2.43624 3.902876,-5.91135 4.0088,-8.23352 0.105923,-2.33439 -0.325919,-4.83174 0.268882,-7.26391 0.435917,-1.73144 2.041066,-4.6036 2.114398,-4.55471 -0.187403,0.97368 -1.568484,3.30807 -1.62552,6.23727 -0.05296,2.92919 1.140716,7.36576 1.845515,7.96056 0.374806,0.27296 1.026644,-1.13257 0.757761,-2.1144 -0.268883,-2.65216 -0.651837,-6.47763 0,-6.82392 0.264809,0.0856 1.295527,1.24257 1.572558,2.8192 0.594801,1.29552 0,2.4892 0.973682,3.46696 0.03259,-0.0326 0.647763,-1.03072 0.753687,-2.9292 0.109997,-1.8944 -0.480731,-2.7092 -0.700726,-3.57696 -0.219995,-0.85961 -0.277031,-4.3836 -0.277031,-4.3836 0,0 2.982156,2.25291 4.106576,2.7092 1.132567,0.44406 5.479508,3.56881 6.779108,5.56506"
     id="path6468"
     style="fill:#73000A;fill-opacity:1;fill-rule:nonzero;stroke:none" />
  <path
     d="m 82.093393,118.48328 c -0.749613,-0.45222 -1.205899,-1.34442 -1.205899,-1.34442 0,0 1.507374,1.11627 2.86401,1.11627 0,0 -0.904424,0.68036 -1.658111,0.22815 m 39.692817,1.80884 c 2.78253,1.05924 8.95869,3.01475 12.6538,3.99251 3.68695,0.97775 8.205,1.95958 12.7312,2.55846 4.51804,0.60295 7.30465,1.15294 12.79638,0.22814 0.50517,0 4.06583,-0.71294 2.14699,-1.12849 -1.91885,-0.41147 -8.40056,-1.62552 -10.78384,-2.23662 -2.38328,-0.61109 -9.51275,-2.38328 -15.68483,-4.64026 -7.83427,-2.7092 -11.69234,-5.75654 -14.84967,-8.54315 -3.31215,-2.66031 -6.69356,-8.07056 -10.51496,-10.78383 -3.82139,-2.7092 -4.95396,-3.90695 -6.92984,-3.73177 -1.97588,0.17111 -3.617699,1.91885 -5.023223,2.94142 0,0 0.60295,-1.40146 1.307749,-2.32218 0,0 -5.87061,2.06144 -9.178685,6.26987 -1.812923,2.26513 -2.86401,4.81952 -3.882506,7.60205 -0.924795,-1.36479 -1.898477,-4.7136 -1.466634,-6.88096 -0.7048,-0.27703 -2.96586,2.39958 -3.238817,4.02102 -0.272957,1.6296 1.658111,4.06991 1.658111,4.06991 -1.959586,-0.52962 -2.86401,-2.48513 -2.86401,-2.48513 0,0 -0.676282,1.28331 -0.378881,2.56254 0.309623,1.27923 1.808849,2.78253 1.808849,2.78253 -1.295527,0.7048 -2.786605,-1.42997 -2.786605,-1.42997 0,0 -1.055162,3.08808 0.07741,4.81952 2.937342,3.01475 4.289904,3.83769 6.628371,7.38206 1.128493,1.58071 2.709199,2.03699 2.562536,5.57728 -0.378881,6.47356 1.425894,5.49173 1.425894,5.49173 0,0 -0.224069,-2.40772 0.456286,-2.55438 0,0 0.525544,2.33031 1.5033,3.76436 0.977756,1.42996 2.562535,2.85993 3.768435,2.63586 1.201825,-0.22814 1.38108,-0.93294 2.028843,-1.96366 0.977756,-1.56441 0.533692,-6.39615 0.607024,-6.77096 0.07333,-0.37888 1.727363,-0.75368 0.277031,-1.49515 -1.157012,-0.5948 -1.792553,-1.42182 -1.711073,-1.8944 0,0 2.635867,1.27516 2.635867,-0.9085 0.297401,-2.02884 -1.955512,-2.48513 -2.562536,-3.0066 -2.86401,-2.33439 -5.190255,-6.48578 -5.948015,-6.48578 0,0 -1.055162,0.15888 -1.201826,-0.45221 -0.154811,-0.5948 0.977756,-0.90035 1.878107,-0.13852 0.908498,0.74961 2.032918,2.47698 3.695103,3.98436 1.658111,1.51145 2.558461,2.18365 3.691029,2.18365 0,0 -1.507374,-1.12849 -1.132568,-2.18365 0,0 1.959587,2.4892 3.161404,3.31622 1.21405,0.82294 3.91918,1.5033 3.91918,1.5033 -0.37481,0.68443 -2.55847,0 -2.55847,0 0,0 6.17616,4.8236 9.94052,6.48578 3.76436,1.64996 8.41685,2.15921 10.27866,1.58886 1.86589,-0.55814 -2.03291,-0.95739 -3.05956,-1.47479 -2.50957,-0.99405 -4.39175,-1.85366 -8.18463,-3.94769 -3.78473,-2.08588 -6.88911,-5.8095 -6.88911,-5.8095 0,0 4.28991,2.75402 6.72208,2.59513 -0.11,0.56221 -1.63367,0.67221 -1.63367,0.67221 0,0 1.10405,0.79035 5.76469,2.83549 4.66471,2.04514 9.18683,3.20622 15.07373,4.73397 5.88284,1.53589 11.29716,1.35664 13.8597,0.30962 -3.31623,-0.15481 -10.22163,-2.14699 -14.91078,-3.6177 -5.71988,-1.95958 -10.25015,-4.06991 -13.69266,-6.2006 -0.63554,-0.34629 -0.43592,-1.02664 0.20777,-0.80665 0.64776,0.21592 2.10625,0.8311 5.80135,2.33439 3.69511,1.50738 11.67197,3.68289 17.77479,4.59546 4.59138,0.97368 12.79639,1.17331 16.03928,1.24256 3.86213,0.0204 2.26106,-1.487 1.35256,-1.5807 -0.9085,-0.0937 -9.94052,-1.1285 -16.93962,-2.48921 -7.00726,-1.35663 -14.19784,-4.06583 -18.82996,-6.05801 -0.60295,-0.30555 -0.45221,-1.35664 0.60295,-1.05924"
     id="path6472"
     style="fill:#73000A;fill-opacity:1;fill-rule:nonzero;stroke:none" />
  <path
     d="m 37.152873,120.19435 c -1.617372,1.75589 -2.542166,3.68288 -2.542166,3.68288 0.06518,-0.0448 0.566284,0.057 0.908498,-0.17111 0.264809,-0.18333 0.96146,-0.74554 1.633668,-1.70292 l 0,-1.80885 z"
     id="path6484"
     style="fill:#000000;fill-opacity:1;fill-rule:nonzero;stroke:none" />
  <path
     d="m 112.44989,117.07535 c -2.71734,-0.90035 -3.95991,-2.14292 -3.95991,-2.14292 0,0 0.34222,1.18146 1.30775,1.91477 1.12442,0.96147 5.18618,2.59921 6.31875,2.59921 1.13257,0 1.52367,-1.86181 1.52367,-1.86181 -1.91885,0.90035 -2.48513,0.3911 -5.19026,-0.50925"
     id="path6488"
     style="fill:#000000;fill-opacity:1;fill-rule:nonzero;stroke:none" />
  <path
     d="m 108.09723,105.51742 c 0.52554,0.23221 1.90255,-0.15889 1.90255,-0.15889 -1.06738,-0.15074 -1.47886,-0.53777 -2.16329,-1.11627 -1.07145,-0.96146 -1.45441,-2.01255 -1.45441,-2.01255 0,0 -0.21184,1.24257 0.0856,1.78033 -0.13445,-0.26888 0.41554,0.98998 1.62959,1.50738"
     id="path6492"
     style="fill:#000000;fill-opacity:1;fill-rule:nonzero;stroke:none" />
  <path
     d="m 100.43084,107.71366 c -1.804771,-0.72924 0.56629,0.45221 0.67221,1.69478 0.11407,1.23849 0.61925,1.46663 1.86589,2.25698 1.24663,0.79036 -0.56629,-0.6722 -0.50925,-2.03699 0.0652,-1.35256 -1.29145,-1.63367 -2.02885,-1.91477"
     id="path6496"
     style="fill:#000000;fill-opacity:1;fill-rule:nonzero;stroke:none" />
  <path
     d="m 107.35331,111.23484 c 0.87591,0.27296 2.34662,-1.11627 2.34662,-1.11627 -1.69885,0.23222 -1.73959,-0.0692 -3.60955,-1.41367 -1.86996,-1.36071 -2.63587,-2.96586 -2.63587,-2.96586 0,0 -0.13852,1.95551 0.39518,2.77846 -0.0978,-0.17926 1.56848,2.10625 3.50362,2.71734"
     id="path6500"
     style="fill:#000000;fill-opacity:1;fill-rule:nonzero;stroke:none" />
  <path
     d="m 98.210906,112.42445 c 0,0 0.619245,0.62332 0.676281,1.08368 0.06111,0.44814 0.399251,0.84331 -0.676281,0.89627 -1.075532,0.057 -5.145441,-1.40959 -5.145441,-1.40959 0,0 3.959912,2.70919 5.882832,2.82734 2.032913,-0.11815 0.847389,-2.15106 0.619245,-2.71735 -0.228143,-0.56628 1.075528,-0.56628 1.075528,-0.56628 0,0 -2.151059,-0.84332 -2.432164,-0.11407"
     id="path6504"
     style="fill:#000000;fill-opacity:1;fill-rule:nonzero;stroke:none" />
  <path
     d="m 82.093816,118.48364 c 0.753687,0.45221 1.658111,-0.22814 1.658111,-0.22814 -1.356636,0 -2.86401,-1.11627 -2.86401,-1.11627 0,0 0.452212,0.8922 1.205899,1.34441"
     id="path6508"
     style="fill:#000000;fill-opacity:1;fill-rule:nonzero;stroke:none" />
  <path
     d="m 114.82095,109.83832 c -0.34221,0.29333 -0.3911,2.3018 2.93734,3.90288 2.82327,1.36071 5.30433,1.1896 5.19026,0.56221 0,0 -2.76624,-0.56221 -4.62805,-1.57256 -1.86588,-1.02257 -3.49955,-2.89253 -3.49955,-2.89253"
     id="path6512"
     style="fill:#000000;fill-opacity:1;fill-rule:nonzero;stroke:none" />
  <path
     d="m 121.73571,83.32557 c -1.37293,0.78628 -3.01475,2.04922 -4.66063,2.62365 -1.63775,0.58258 -7.34132,1.25071 -7.34132,1.25071 3.084,0.23629 6.41652,1.83737 6.41652,1.83737 0,0 -1.22627,1.47478 -2.9129,3.01882 0,0 3.67066,-1.45441 5.64654,-2.93734 1.68663,-1.20998 4.39176,-5.41025 4.68101,-6.03765 0,-0.37888 -1.44626,-0.0448 -1.82922,0.24444"
     id="path6516"
     style="fill:#000000;fill-opacity:1;fill-rule:nonzero;stroke:none" />
  <path
     d="m 107.7432,80.90282 c 1.94329,0.0978 4.69323,-0.95739 4.69323,-0.95739 0,0 -3.43844,0.0815 -3.48733,-0.55814 -0.0489,-0.65183 0.87998,-1.43404 2.12255,-2.08588 1.24664,-0.64369 4.39583,-1.47478 4.39583,-1.47478 0,0 -4.35509,0.0815 -6.41245,0.99813 -1.58886,0.71294 -4.56694,2.70105 -4.41213,3.30807 0.15481,0.5948 1.16109,0.68036 3.1003,0.76999"
     id="path6520"
     style="fill:#000000;fill-opacity:1;fill-rule:nonzero;stroke:none" />
  <path
     d="m 108.40768,106.63165 c -1.38516,-0.56628 0.37888,0.56628 0.52554,1.29553 0.13851,0.74554 0.47666,1.13256 1.43404,1.74774 0.95739,0.60295 -0.2811,-0.68036 -0.3911,-1.56849 -0.11815,-0.88813 -1.0022,-1.25478 -1.56848,-1.47478"
     id="path6524"
     style="fill:#000000;fill-opacity:1;fill-rule:nonzero;stroke:none" />
  <path
     d="m 87.138617,122.68885 c -0.977756,-0.2974 -1.250713,-0.99405 -1.250713,-0.99405 0,0 0.329993,1.20997 0.60295,1.47071 0.268883,0.25258 0.733317,0.3911 0.973682,0.28925 0.407398,-0.004 1.132567,-1.08776 1.132567,-1.08776 0,0 -0.48073,0.61518 -1.458486,0.32185"
     id="path6528"
     style="fill:#000000;fill-opacity:1;fill-rule:nonzero;stroke:none" />
  <path
     d="m 104.25424,118.48364 c -0.16703,1.13257 0.39926,1.52367 1.97589,2.26514 1.01849,0.50517 2.09402,1.24256 3.61769,0 0,0 -1.01442,-0.057 -2.87623,-0.68443 -1.86996,-0.61925 -2.71735,-1.58071 -2.71735,-1.58071"
     id="path6532"
     style="fill:#000000;fill-opacity:1;fill-rule:nonzero;stroke:none" />
  <path
     d="m 94.264047,134.95842 c 1.324045,-0.0774 0.167033,-2.61957 0.199625,-2.32624 0.04074,0.29333 0.0937,1.54811 -0.611097,1.58478 -0.696651,0.0407 -2.558462,-1.23442 -2.558462,-1.23442 0,0 1.711073,1.89848 2.969934,1.97588"
     id="path6536"
     style="fill:#000000;fill-opacity:1;fill-rule:nonzero;stroke:none" />
  <path
     d="m 112.81573,80.2579 c 0,0 0.7822,0.60703 0.7822,1.29553 0,0.69665 -1.11219,2.88438 -1.11219,2.88438 0,0 3.38548,-1.20997 5.8869,-2.46069 2.23255,-1.07553 4.97026,-2.64808 4.87656,-4.21657 0,0 -3.66251,1.61737 -5.93987,2.12662 -2.26921,0.50925 -4.4936,0.37073 -4.4936,0.37073"
     id="path6544"
     style="fill:#000000;fill-opacity:1;fill-rule:nonzero;stroke:none" />
  <path
     d="m 88.781675,126.41288 c 0,0 0.769983,1.95144 1.971808,2.31809 1.315897,0.2363 0.545914,-3.05956 0.513322,-2.77438 -0.02852,0.30148 -0.04074,2.08995 -0.733317,1.95959 -0.688503,-0.12222 -1.751813,-1.5033 -1.751813,-1.5033"
     id="path6548"
     style="fill:#000000;fill-opacity:1;fill-rule:nonzero;stroke:none" />
  <path
     d="m 54.459159,92.72674 c -0.228143,6.86059 2.855862,7.83834 2.855862,7.83834 -1.886254,-5.64654 -1.279231,-13.48488 0.529618,-18.60588 0,0 -3.161411,3.9151 -3.38548,10.76754"
     id="path6372"
     style="fill:#FFFFFF;fill-opacity:1;fill-rule:nonzero;stroke:none" />
  <path
     d="m 65.376224,88.05999 c 1.413673,-2.19588 2.48513,-6.02135 2.501426,-12.10381 0.02037,-6.08245 -2.204025,-12.9023 -6.188381,-15.68483 3.60955,5.56913 5.870611,16.11668 2.709199,23.94687 -0.366658,0.94517 -4.819522,8.89351 -2.859936,12.42973 0.896276,-3.61363 2.102176,-5.95209 3.837692,-8.58796"
     id="path6368"
     style="fill:#FFFFFF;fill-opacity:1;fill-rule:nonzero;stroke:none" />
  <path
     d="m 28.431753,84.6464 c 3.739917,-0.64776 6.665037,0.10592 10.616801,3.084 0,0 -2.595127,-4.43656 -6.119123,-4.70952 -2.652163,-0.10185 -4.497678,1.62552 -4.497678,1.62552"
     id="path6360"
     style="fill:#FFFFFF;fill-opacity:1;fill-rule:nonzero;stroke:none" />
  <path
     d="m 30.548562,102.09608 c 4.0088,-0.92479 9.753117,-1.30367 13.061192,0.5011 0,0 -1.629594,-2.77845 -4.827671,-2.83141 -3.198077,-0.057 -8.233521,2.33031 -8.233521,2.33031"
     id="path6364"
     style="fill:#FFFFFF;fill-opacity:1;fill-rule:nonzero;stroke:none" />
</svg>