<?xml version="1.0" encoding="UTF-8" standalone="no"?>
<!-- Created with Inkscape (http://www.inkscape.org/) -->
<svg
   xmlns:svg="http://www.w3.org/2000/svg"
   xmlns="http://www.w3.org/2000/svg"
   version="1.0"
   width="500"
   height="573.17072"
   id="svg2">
  <defs
     id="defs5" />
  <g
     transform="scale(12.195122,12.195122)"
     id="g2167">
    <path
       d="M 20.5,47 L 0,47 L 0,23.5 L 0,0 L 20.5,0 L 41,0 L 41,23.5 L 41,47 L 20.5,47 z M 20.5,44 L 30,44 L 30,42.5 L 30,41 L 20.5,41 L 11,41 L 11,42.5 L 11,44 L 20.5,44 z M 15,38 L 19,38 L 19,23.5 L 19,9 L 14,9 L 9,9 L 9,13 L 9,17 L 10.5,17 L 12,17 L 12,14.5 L 12,12 L 14,12 L 16,12 L 16,23.5 L 16,35 L 13.5,35 L 11,35 L 11,36.5 L 11,38 L 15,38 z M 26,38 L 30,38 L 30,36.5 L 30,35 L 27.5,35 L 25,35 L 25,23.5 L 25,12 L 27,12 L 29,12 L 29,14.5 L 29,17 L 30.5,17 L 32,17 L 32,13 L 32,9 L 27,9 L 22,9 L 22,23.5 L 22,38 L 26,38 z M 4.5,17 L 6,17 L 6,11.5 L 6,6 L 20.5,6 L 35,6 L 35,11.5 L 35,17 L 36.5,17 L 38,17 L 38,10 L 38,3 L 20.5,3 L 3,3 L 3,10 L 3,17 L 4.5,17 z "
       style="fill:#990033"
       id="path2169" />
    <path
       d="M 20.5,44 L 11,44 L 11,42.5 L 11,41 L 20.5,41 L 30,41 L 30,42.5 L 30,44 L 20.5,44 z M 15,38 L 11,38 L 11,36.5 L 11,35 L 13.5,35 L 16,35 L 16,23.5 L 16,12 L 14,12 L 12,12 L 12,14.5 L 12,17 L 10.5,17 L 9,17 L 9,13 L 9,9 L 14,9 L 19,9 L 19,23.5 L 19,38 L 15,38 z M 26,38 L 22,38 L 22,23.5 L 22,9 L 27,9 L 32,9 L 32,13 L 32,17 L 30.5,17 L 29,17 L 29,14.5 L 29,12 L 27,12 L 25,12 L 25,23.5 L 25,35 L 27.5,35 L 30,35 L 30,36.5 L 30,38 L 26,38 z M 3,17 L 3,3 L 20.5,3 L 38,3 L 38,10 L 38,17 L 36.5,17 L 35,17 L 35,11.5 L 35,6 L 20.5,6 L 6,6 L 6,11.5 L 6,17 L 3,17 z "
       style="fill:#FFFFFF"
       id="path2171" />
  </g>
</svg>
