<svg xmlns:svg="http://www.w3.org/2000/svg" xmlns="http://www.w3.org/2000/svg" version="1" width="320" height="162.1" viewBox="0 0 320 162.1" preserveAspectRatio="xMidYMid meet">
  <g transform="matrix(0.0302495,0,0,-0.0302495,-0.03970247,162.07425)" class="s0">
    <path d="m4619 5351-175-6-422-425-421-425-1 318c0 249-3 333-15 386l-16 68-62-9C2597 5128 1640 4899 835 4618 622 4544 256 4406 102 4342L8 4303 3 3385c-3-529-2-916 3-912 23 13 467 217 609 280 88 38 223 93 300 123l140 53 9 315 9 316 104 40c57 22 111 40 119 40 12 0 14-146 12-1127l-3-1126-185-82c-102-44-204-91-228-103l-42-22 0-590C850 24 851 0 868 0c11 0 129 53 263 119 623 303 1206 531 1667 651l43 11-3 549c-2 301-6 551-10 555-9 9-67-5-286-66-95-27-177-49-182-49-7 0-9 376-8 1088l3 1087 76 22c42 12 98 25 123 28l46 7 0-297 0-297 23 6c97 24 858 166 892 166 8 0 10-197 7-779-3-428-1-800 3-826 7-47 16-57 428-478l422-429 95 6c418 28 1001 25 1303-5l110-11 444 444 443 443-2 420-3 420-235 27c-197 22-468 49-742 73l-58 5 0-232 0-231-128-130-129-129-344 1-344 2-107 107-108 107 9 798 10 797 72 80c40 45 109 114 155 155l82 75 258 0 257 0 158-162 158-163 1-165c0-91 3-181 6-200l6-36 184-12c101-7 327-28 501-47 175-19 326-35 336-35 16 0 17 23 17 340 0 187 3 340 8 340 4 0 61-9 127-20 66-11 124-20 128-20 5 0 5-525 1-1167l-7-1168 328-542 327-541 216-71c359-118 686-247 995-395l138-65 567 489 567 489 10 995c6 547 14 998 17 1002 4 4 89-34 188-85 99-50 183-91 185-91 3 0 5 269 5 599l0 598-152 68c-351 155-767 314-1262 481-170 57-312 104-316 104-7 0-22-1111-15-1118 2-3 71-28 152-57l148-53 4-33c1-19 0-458-4-977l-7-942-107-93c-58-50-113-97-122-104-12-10-45-1-177 51-89 36-204 78-256 96l-95 31-109 182c-60 100-117 197-126 215-16 31-17 103-14 947 2 502 6 916 10 920 4 4 83-11 176-34 93-23 174-41 178-41 13 0 12 1097-1 1109-20 20-778 180-1185 250-247 43-573 91-579 85-3-2-7-171-9-375l-5-371-421 420-421 421-265 10c-269 11-662 12-981 2zm969-71 247-11 438-437 437-437 0-422 0-423-22 0c-13 0-147 13-298 30-151 16-346 35-432 41l-158 12 0 181 0 181-178 180-177 180-290 3-290 3-173-173-172-174-10-829-10-830 128-127 127-127 374-2 374-3 149 152 148 153 0 204 0 205 38 0c77 0 706-65 830-85l32-6 0-372 0-372-422-422-423-422-85 9c-205 22-614 31-929 20-174-6-343-13-376-16l-60-6-409 417-409 416 7 1211 7 1211 437 443 436 444 166 3c420 7 720 6 948-3zM3524 5159c3-17 6-362 6-766 0-578-3-735-12-738-7-3-141-27-298-55-157-28-339-62-405-75-66-14-125-25-132-25-10 0-13 64-13 295 0 162-2 295-5 295-17 0-214-45-292-67l-93-26 0-1162 0-1163 133 39c193 58 328 91 343 85 12-4 14-90 14-484l0-479-82-22C2254 692 1614 437 1088 174l-168-84 0 525 0 524 23 13c12 6 112 51 222 99l200 87 6 128c4 71 7 611 8 1201l1 1071-72-22c-40-13-126-42-191-66l-117-43-1-246c-1-135-4-277-8-314l-6-68-170-68C669 2853 493 2775 147 2616l-77-36 2 838 3 837 155 63c825 335 1742 601 2640 766 165 31 600 102 636 105 6 1 14-13 18-30zm3501-25c456-65 1376-254 1397-287 5-6 7-225 6-484-3-413-5-473-18-473-8 0-89 18-179 40-90 22-167 38-170 34-3-3-8-442-9-975l-4-969 63-107c34-60 98-165 141-235l78-126 98-32c53-18 181-66 285-107l187-74 145 126c79 69 146 129 149 133 2 4 7 462 11 1018l7 1011-154 55-153 55-2 179c-2 98 0 320 5 492l7 312 251-85c497-167 855-304 1188-453l169-76-6-291c-4-159-7-392-7-517l0-227-152 74c-84 40-169 80-189 88l-36 15-7-282c-3-154-9-622-12-1038l-7-756-56-49c-30-26-273-236-539-465l-484-417-89 44C8666 422 8176 614 7838 716l-97 29-317 524-317 524 4 1186 4 1186-140 22c-176 28-181 29-190 50-8 20-7 897 2 919 3 8 15 11 31 9 15-3 108-16 207-31zM4573 5183l-62-4-411-417-410-417 0-806M4573 5183l-62-4-411-417-410-417 0-806c0-443-3-967-6-1165l-6-359 383-388 384-389 245 12c257 13 866 8 1035-9l90-9 398 396 397 397-2 305-3 305-50 7c-80 11-492 56-582 64l-83 7 0-179-1-179-179-182-178-183-164 11c-93 7-265 9-403 6l-240-6-157 154-158 154 0 239c0 131 3 523 7 872l6 632 201 206 201 205 330-5 329-6 208-210 208-210 0-155 0-155 88-6c114-9 548-54 590-61l32-6 0 353 0 353-414 414-415 415-573 2c-315 1-601 0-635-3zM3285 5059C2422 4922 1573 4707 805 4433 585 4354 190 4202 179 4191c-9-9-17-1428-8-1442 5-8 64 14 200 77 107 48 268 118 359 155l165 67 3 299c2 297 2 300 25 321 38 36 463 182 530 182 16 0 17-66 15-1287l-3-1288-220-95-220-95-3-417-2-417 157 75c466 223 869 384 1293 519l195 62 8 354c7 350 5 419-14 419-5 0-113-30-239-66-127-37-233-65-235-62-3 2-2 570 2 1261l6 1257 78 25c42 13 164 43 269 67l192 42 19-23c18-21 19-44 19-295l0-273 138 27c75 15 223 42 328 60l191 33 6 501c11 799 10 846-10 845-10-1-72-10-138-20zM6876 4998c-7-72-8-698-1-698 17 0 266-42 302-51l43-11-5-317c-3-174-7-716-10-1206l-5-890 303-498 302-498 235-79c337-112 593-212 868-341 57-27 109-46 116-42 9 6 774 663 937 806l56 49 7 1081c4 595 9 1084 12 1086 5 5 175-66 289-121l80-39 6 103c4 57 8 240 9 408l2 305-124 56c-265 121-676 278-1095 420l-203 68 0-392 0-392 98-34c53-18 121-42 150-53l52-19-2-1072-3-1071-86-75c-47-42-131-116-188-165l-102-89-217 86c-120 48-267 103-328 123-95 31-112 41-129 68-11 18-80 132-153 254l-134 222 4 1049c2 577 6 1052 10 1056 3 4 84-12 178-35 94-23 173-40 175-38 2 2 5 173 7 381 2 309 1 379-11 386-16 10-457 108-706 157-150 29-536 95-691 118l-41 6-7-62z" fill-opacity="0.9" fill="#4d1979"/>
  </g>
  <path transform="scale(0.8,0.8)" d="m34.9 179.2 0-19.7 8.4-3.7 8.4-3.7 0.2-3.8c0.3-4.9 0.4-87.2 0.1-87.2-0.3 0-10.1 3.3-12.3 4.2l-1.8 0.7-0.4 11.8c-0.2 6.5-0.4 11.9-0.5 12-0.1 0.1-3 1.3-6.5 2.7-3.5 1.4-11.1 4.7-17 7.4l-10.7 4.8 0-31.5 0-31.5 8.9-3.5C42.1 26.3 75 16.8 106.2 11c11.1-2.1 26.3-4.5 26.5-4.3 0.3 0.3 0.3 57.1 0 57.4-0.3 0.3-28.6 5.5-30.3 5.6l-1.2 0.1-0.2-10.8c-0.1-5.9-0.3-10.9-0.4-11-0.2-0.2-6.3 1.1-11.3 2.5l-3.4 0.9 0 44c0 27.7 0.1 44 0.3 44 0.2 0 3.6-0.9 7.7-2.1 4-1.1 8-2.2 8.8-2.3l1.4-0.2 0.2 5c0.1 2.8 0.2 10.9 0.2 18.1l0 13.1-1 0.2c-3.1 0.7-12.8 3.8-18.1 5.7-13.3 4.8-25.7 10-40.9 17.3l-9.8 4.7 0-19.7zm10.4 10.9C61.6 182.2 78.8 175.4 94.8 170.3l5.9-1.8 0.2-2.9c0.1-1.6 0.2-8.1 0.2-14.6 0-9.5-0.1-11.8-0.5-11.9-0.3-0.1-4.2 0.9-8.7 2.1-4.5 1.3-8.4 2.3-8.7 2.3-0.3 0-0.4-9.4-0.4-42.9 0-23.6 0.1-45 0.3-47.5l0.2-4.6 3.5-1c1.9-0.5 6.4-1.6 9.8-2.4l6.3-1.4 0.7 0.7c0.7 0.7 0.7 1.2 0.9 11.1 0.1 5.7 0.3 10.4 0.4 10.4 0.1 0 1.9-0.3 3.9-0.7 2-0.4 7.5-1.4 12.1-2.2l8.5-1.5 0.2-7.7c0.4-12.9 0.3-43.1 0-43.3-0.7-0.5-22.6 3.4-36.1 6.3C67.5 22.6 43.5 29.7 19.9 38.7 8.2 43.2 7 43.7 6.7 44.3 6.3 44.9 5.8 94.3 6.2 96.9c0.2 2 0.3 2 1.2 1.8 0.5-0.1 4.2-1.7 8.2-3.4 4-1.8 9.7-4.2 12.7-5.5l5.5-2.3 0.2-5.3c0.1-2.9 0.2-8 0.2-11.2 0-5.1 0.1-6 0.6-6.6 0.3-0.4 2.2-1.4 4-2.1 4-1.6 12.8-4.5 14.7-4.8l1.3-0.2 0.2 2.2c0.1 1.2 0.2 23.1 0.1 48.6l-0.1 46.3-8.3 3.6-8.3 3.6-0.1 15.9-0.1 15.9 0.8-0.3c0.4-0.2 3.2-1.5 6.1-2.9zM218.6 159.4 218.6 159.4c-8-1.1-34.2-1.3-47.5-0.3l-4.5 0.3-10.6-10.8c-5.8-5.9-12.8-13-15.5-15.7l-4.8-4.9 0.3-45.7 0.3-45.7 16.5-16.8 16.5-16.8 25.5 0.1 25.5 0.1 16.6 16.6 16.6 16.6 0 15.9c0 13.9-0.1 15.9-0.5 15.9-0.3 0-6-0.5-12.6-1.2-6.6-0.7-13.3-1.3-14.9-1.4-1.6-0.1-3.5-0.3-4.3-0.4l-1.5-0.2 0-6.8 0-6.8-6.8-6.8-6.8-6.8-11.1-0.2-11.1-0.2-6.6 6.7-6.6 6.7 0 10.5c0 5.8-0.2 19.9-0.3 31.3l-0.3 20.8 4.9 4.9 4.9 4.9 14.2 0.1 14.2 0.1 5.7-5.9 5.7-5.9 0-7.7 0-7.7 2.2 0.2c12.3 1.1 28.1 2.7 30.3 3.2l1 0.2 0 14 0 14-15.9 15.9c-8.8 8.8-16 15.9-16.1 15.9-0.1 0-1.1-0.2-2.3-0.3zm16.3-18.2 15.2-15.1-0.2-11.6c-0.1-6.4-0.3-11.7-0.3-11.7-0.1-0.2-22.4-2.6-24.7-2.6l-2.5-0.1-0.1 6.8-0.1 6.8-6.5 6.6-6.5 6.6-15.4-0.1-15.4-0.1-5.8-5.7-5.8-5.7 0.2-32.9 0.2-32.9 7.5-7.8 7.5-7.8 12.3 0.2 12.3 0.2 8 8 8 8 0 5.9 0 5.9 1.7 0c1.6 0 19.9 1.8 23.8 2.3l1.7 0.2 0-13.4 0-13.4-15.8-15.8-15.8-15.8-23.9-0.1-23.9-0.1-11.6 11.8c-6.4 6.5-13.5 13.7-15.7 16l-4.1 4.2-0.1 44.1-0.1 44.1 14.4 14.7 14.4 14.7 8.8-0.4c11.5-0.6 39.8-0.1 42.8 0.7 0.1 0 7-6.7 15.4-15zM337.4 191.4c-9.2-4.7-27.1-11.7-40.7-16l-4.1-1.3-11.9-19.8-11.9-19.8 0.2-44.8c0.1-24.7 0.1-44.8 0-44.8-1.1 0-11.2-1.8-11.7-2.1-0.6-0.3-0.7-1-0.7-17.6 0-15.4 0.1-17.3 0.6-17.5 2.3-0.9 57.7 9.6 60.7 11.5 0.4 0.3 0.5 2.1 0.6 11.7 0.1 6.3 0 14.3-0.1 17.8-0.2 5.9-0.3 6.4-0.9 6.4-0.4 0-3-0.6-6-1.2-2.9-0.7-5.7-1.2-6.1-1.2l-0.8 0-0.3 36.7-0.3 36.7 4.8 8.1c2.7 4.5 5.1 8.5 5.5 9 0.4 0.6 1.4 1.1 3.2 1.7 1.4 0.5 6.3 2.3 10.8 4l8.2 3.2 2.3-2c1.3-1.1 3.8-3.3 5.6-4.9l3.3-2.9 0.2-13.7c0.1-7.6 0.3-24.9 0.3-38.5l0.1-24.8-5.6-2-5.6-2 0-18.2c0-10 0.1-18.3 0.2-18.4 0.2-0.2 16.4 5.2 27 9.1 8.3 3 18.6 7.2 26.6 10.7l6.9 3.1-0.2 2.9c-0.1 1.6-0.3 10.2-0.4 19.3l-0.2 16.4-6.6-3.1c-3.6-1.7-6.8-3.1-7-3.1-0.6 0-0.8 7.5-1.1 43.3-0.3 32.3-0.4 35.1-1 35.6-1.7 1.6-40 34.5-40.2 34.5-0.1 0-1.8-0.8-3.7-1.8zm11.2-8.8c4.1-3.5 12.6-10.8 18.8-16.2l11.3-9.8 0.2-9.8c0.1-5.4 0.3-18.7 0.3-29.5 0-10.9 0.1-24.9 0.3-31.2l0.2-11.5 3 1.2c1.6 0.7 4.7 2 6.8 3 2.1 1 3.9 1.7 4 1.6 0.1-0.1 0.4-7.1 0.6-15.4 0.3-12.8 0.3-15.2-0.1-15.5-2.1-1.3-19-8.3-29.4-12.1-7.6-2.8-23.5-8.3-24.1-8.3-0.3 0-0.4 3.8-0.4 14.9l0 14.9 5.5 1.9 5.5 1.9 0.1 40.5 0.1 40.5-4.3 3.7c-2.3 2-5.5 4.8-7 6.1l-2.8 2.4-6.9-2.7c-3.8-1.5-8.9-3.4-11.3-4.3-7-2.5-5.9-1.4-12.3-12l-5.6-9.4 0.2-37c0.1-20.3 0.2-38.1 0.4-39.5 0.2-2.2 0.3-2.6 0.9-2.6 0.4 0 3.1 0.6 6 1.2 3 0.7 5.6 1.2 6 1.2 0.6 0 0.6-0.8 0.7-10.8 0.2-15 0-18-0.7-18.4-0.7-0.4-16.2-3.8-25.4-5.7-9.7-1.9-28.6-5-28.9-4.8-0.1 0.1-0.2 6.7-0.2 14.5l0 14.3 5.6 0.9c3.1 0.5 6 1.1 6.5 1.2l0.8 0.3-0.2 17.7c-0.1 9.7-0.3 30.2-0.4 45.5l-0.2 27.8 11.5 18.9 11.5 18.9 3.4 1.1c14 4.6 25.5 9 34.6 13.1 4.4 2 7.1 3.2 8 3.4 0 0 3.5-2.9 7.6-6.4z" fill-opacity="0.9" fill="#ffffff"/>
</svg>