<?xml version="1.0" encoding="UTF-8" standalone="no"?>
<!-- Generator: Adobe Illustrator 15.0.0, SVG Export Plug-In . SVG Version: 6.00 Build 0)  -->

<svg
   xmlns:dc="http://purl.org/dc/elements/1.1/"
   xmlns:cc="http://creativecommons.org/ns#"
   xmlns:rdf="http://www.w3.org/1999/02/22-rdf-syntax-ns#"
   xmlns:svg="http://www.w3.org/2000/svg"
   xmlns="http://www.w3.org/2000/svg"
   xmlns:sodipodi="http://sodipodi.sourceforge.net/DTD/sodipodi-0.dtd"
   xmlns:inkscape="http://www.inkscape.org/namespaces/inkscape"
   version="1.1"
   id="Layer_1"
   x="0px"
   y="0px"
   width="788px"
   height="596px"
   viewBox="16 28 792 574"
   enable-background="new 16 28 792 574"
   xml:space="preserve"
   inkscape:version="0.91 r13725"
   sodipodi:docname="Utah.svg"><metadata
     id="metadata3500"><rdf:RDF><cc:Work
         rdf:about=""><dc:format>image/svg+xml</dc:format><dc:type
           rdf:resource="http://purl.org/dc/dcmitype/StillImage" /></cc:Work></rdf:RDF></metadata><defs
     id="defs3498"><clipPath
       clipPathUnits="userSpaceOnUse"
       id="clipPath3504"><rect
         style="fill:#0000ff;fill-rule:evenodd;stroke:#000000;stroke-width:1.00507605px;stroke-linecap:butt;stroke-linejoin:miter;stroke-opacity:1"
         id="rect3506"
         width="789.44513"
         height="610.60645"
         x="13.445162"
         y="14.125596" /></clipPath><clipPath
       clipPathUnits="userSpaceOnUse"
       id="clipPath3508"><rect
         style="fill:#0000ff;fill-rule:evenodd;stroke:#000000;stroke-width:1.00507605px;stroke-linecap:butt;stroke-linejoin:miter;stroke-opacity:1"
         id="rect3510"
         width="789.44513"
         height="610.60645"
         x="13.445162"
         y="14.125596" /></clipPath><clipPath
       clipPathUnits="userSpaceOnUse"
       id="clipPath3512"><rect
         style="fill:#0000ff;fill-rule:evenodd;stroke:#000000;stroke-width:1.00507605px;stroke-linecap:butt;stroke-linejoin:miter;stroke-opacity:1"
         id="rect3514"
         width="789.44513"
         height="610.60645"
         x="13.445162"
         y="14.125596" /></clipPath><clipPath
       clipPathUnits="userSpaceOnUse"
       id="clipPath3516"><rect
         style="fill:#0000ff;fill-rule:evenodd;stroke:#000000;stroke-width:1.00507605px;stroke-linecap:butt;stroke-linejoin:miter;stroke-opacity:1"
         id="rect3518"
         width="789.44513"
         height="610.60645"
         x="13.445162"
         y="14.125596" /></clipPath><clipPath
       clipPathUnits="userSpaceOnUse"
       id="clipPath3520"><rect
         style="fill:#0000ff;fill-rule:evenodd;stroke:#000000;stroke-width:1.00507605px;stroke-linecap:butt;stroke-linejoin:miter;stroke-opacity:1"
         id="rect3522"
         width="789.44513"
         height="610.60645"
         x="13.445162"
         y="14.125596" /></clipPath><clipPath
       clipPathUnits="userSpaceOnUse"
       id="clipPath3524"><rect
         style="fill:#0000ff;fill-rule:evenodd;stroke:#000000;stroke-width:1.00507605px;stroke-linecap:butt;stroke-linejoin:miter;stroke-opacity:1"
         id="rect3526"
         width="789.44513"
         height="610.60645"
         x="13.445162"
         y="14.125596" /></clipPath><clipPath
       clipPathUnits="userSpaceOnUse"
       id="clipPath3528"><rect
         style="fill:#0000ff;fill-rule:evenodd;stroke:#000000;stroke-width:1.00507605px;stroke-linecap:butt;stroke-linejoin:miter;stroke-opacity:1"
         id="rect3530"
         width="789.44513"
         height="610.60645"
         x="13.445162"
         y="14.125596" /></clipPath><clipPath
       clipPathUnits="userSpaceOnUse"
       id="clipPath3532"><rect
         style="fill:#0000ff;fill-rule:evenodd;stroke:#000000;stroke-width:1.00507605px;stroke-linecap:butt;stroke-linejoin:miter;stroke-opacity:1"
         id="rect3534"
         width="789.44513"
         height="610.60645"
         x="13.445162"
         y="14.125596" /></clipPath><clipPath
       clipPathUnits="userSpaceOnUse"
       id="clipPath3536"><rect
         style="fill:#0000ff;fill-rule:evenodd;stroke:#000000;stroke-width:1.00507605px;stroke-linecap:butt;stroke-linejoin:miter;stroke-opacity:1"
         id="rect3538"
         width="789.44513"
         height="610.60645"
         x="13.445162"
         y="14.125596" /></clipPath><clipPath
       clipPathUnits="userSpaceOnUse"
       id="clipPath3540"><rect
         style="fill:#0000ff;fill-rule:evenodd;stroke:#000000;stroke-width:1.00507605px;stroke-linecap:butt;stroke-linejoin:miter;stroke-opacity:1"
         id="rect3542"
         width="789.44513"
         height="610.60645"
         x="13.445162"
         y="14.125596" /></clipPath><clipPath
       clipPathUnits="userSpaceOnUse"
       id="clipPath3544"><rect
         style="fill:#0000ff;fill-rule:evenodd;stroke:#000000;stroke-width:1.00507605px;stroke-linecap:butt;stroke-linejoin:miter;stroke-opacity:1"
         id="rect3546"
         width="789.44513"
         height="610.60645"
         x="13.445162"
         y="14.125596" /></clipPath><clipPath
       clipPathUnits="userSpaceOnUse"
       id="clipPath3548"><rect
         style="fill:#0000ff;fill-rule:evenodd;stroke:#000000;stroke-width:1.00507605px;stroke-linecap:butt;stroke-linejoin:miter;stroke-opacity:1"
         id="rect3550"
         width="789.44513"
         height="610.60645"
         x="13.445162"
         y="14.125596" /></clipPath><clipPath
       clipPathUnits="userSpaceOnUse"
       id="clipPath3552"><rect
         style="fill:#0000ff;fill-rule:evenodd;stroke:#000000;stroke-width:1.00507605px;stroke-linecap:butt;stroke-linejoin:miter;stroke-opacity:1"
         id="rect3554"
         width="789.44513"
         height="610.60645"
         x="13.445162"
         y="14.125596" /></clipPath><clipPath
       clipPathUnits="userSpaceOnUse"
       id="clipPath3556"><rect
         style="fill:#0000ff;fill-rule:evenodd;stroke:#000000;stroke-width:1.00507605px;stroke-linecap:butt;stroke-linejoin:miter;stroke-opacity:1"
         id="rect3558"
         width="789.44513"
         height="610.60645"
         x="13.445162"
         y="14.125596" /></clipPath></defs><sodipodi:namedview
     pagecolor="#ffffff"
     bordercolor="#666666"
     borderopacity="1"
     objecttolerance="10"
     gridtolerance="10"
     guidetolerance="10"
     inkscape:pageopacity="0"
     inkscape:pageshadow="2"
     inkscape:window-width="1284"
     inkscape:window-height="757"
     id="namedview3496"
     showgrid="false"
     inkscape:zoom="0.39340102"
     inkscape:cx="394"
     inkscape:cy="298"
     inkscape:window-x="0"
     inkscape:window-y="2"
     inkscape:window-maximized="0"
     inkscape:current-layer="Layer_1" /><polygon
     points="502.645,20.588 502.645,28.265 502.645,190.009 743.391,190.009 743.391,28.265 743.391,20.588 735.712,20.588 510.309,20.588 "
     id="polygon3468"
     clip-path="url(#clipPath3556)"
     transform="matrix(1.0065257,0,0,0.99999996,-0.11557551,0)"
     style="fill:#003057" /><path
     d="M 743.391,417.05 C 664.017,399.433 583.485,388.331 502.645,383.679 l 0,55.357 c 0,21.868 0,37.651 -7.607,46.726 -8,9.53 -26.479,13.783 -59.92,13.783 l -37.322,0 c -33.44,0 -51.915,-4.253 -59.912,-13.783 -7.618,-9.073 -7.618,-24.857 -7.618,-46.726 l 0,-55.386 c -80.833,4.574 -161.358,15.649 -240.732,33.223 l 0,56.564 c -0.294,6.73 -0.15,39.287 27.343,71.317 35.293,41.07 99.002,63.267 189.363,65.914 l 0.123,0 0.122,0 220.063,0 0.121,0 0.104,0 0.338,-0.016 c 90.083,-2.645 153.639,-24.828 188.925,-65.898 26.85,-31.271 27.749,-62.263 27.356,-71.317 l 0,-56.387 z"
     id="path3470"
     clip-path="url(#clipPath3552)"
     inkscape:connector-curvature="0"
     transform="matrix(1.0065257,0,0,0.99999996,-0.11557551,0)"
     style="fill:#003057" /><polygon
     points="89.53,20.588 89.53,28.265 89.53,190.009 330.261,190.009 330.261,28.265 330.261,20.588 322.601,20.588 97.211,20.588 "
     id="polygon3472"
     clip-path="url(#clipPath3548)"
     transform="matrix(1.0065257,0,0,0.99999996,-0.11557551,0)"
     style="fill:#003057" /><rect
     x="103.998"
     y="35.360001"
     width="211.828"
     height="154.694"
     id="rect3474"
     clip-path="url(#clipPath3544)"
     transform="matrix(1.0065257,0,0,0.99999996,-0.11557551,0)"
     style="fill:#9d968d" /><rect
     x="517.08801"
     y="35.360001"
     width="211.84599"
     height="154.694"
     id="rect3476"
     clip-path="url(#clipPath3540)"
     transform="matrix(1.0065257,0,0,0.99999996,-0.11557551,0)"
     style="fill:#9d968d" /><path
     d="M 728.934,413.947 C 658.992,399.146 588.187,389.327 517.088,384.583 l 0,54.446 c 0,46.943 0,75.268 -81.964,75.268 l -37.335,0 c -81.967,0 -81.967,-28.324 -81.967,-75.268 l 0,-54.488 c -71.081,4.724 -141.883,14.499 -211.828,29.272 l 0,59.954 c -0.178,3.221 -1.056,32.341 23.746,61.247 32.518,37.861 92.639,58.361 178.745,60.888 l 220.063,0 0.155,0 c 85.915,-2.541 145.953,-23.026 178.468,-60.888 24.227,-28.219 24.043,-55.962 23.764,-61.168 l 0,-59.899 z"
     id="path3478"
     clip-path="url(#clipPath3536)"
     inkscape:connector-curvature="0"
     transform="matrix(1.0065257,0,0,0.99999996,-0.11557551,0)"
     style="fill:#9d968d" /><rect
     x="526.42798"
     y="45.009998"
     width="193.14999"
     height="145.05099"
     id="rect3480"
     clip-path="url(#clipPath3532)"
     transform="matrix(1.0065257,0,0,0.99999996,-0.11557551,0)"
     style="fill:#003057" /><path
     d="M 719.578,412.115 C 655.75,398.999 591.225,390.093 526.428,385.32 l 0,53.709 c 0,47.386 0,84.924 -91.304,84.924 l -37.333,0 c -91.304,0 -91.304,-37.538 -91.304,-84.924 l 0,-53.871 c -64.794,4.682 -129.327,13.518 -193.171,26.535 l 0,62.426 c 0,0 -8.769,106.175 193.171,112.153 l 219.94,0 c 201.944,-5.979 193.15,-112.153 193.15,-112.153 l 0,-62.004 z"
     id="path3482"
     clip-path="url(#clipPath3528)"
     inkscape:connector-curvature="0"
     transform="matrix(1.0065257,0,0,0.99999996,-0.11557551,0)"
     style="fill:#003057" /><rect
     x="113.31"
     y="45.009998"
     width="193.17101"
     height="145.05099"
     id="rect3484"
     clip-path="url(#clipPath3524)"
     transform="matrix(1.0065257,0,0,0.99999996,-0.11557551,0)"
     style="fill:#003057" /><path
     d="m 359,249.806 c -16.686,32.339 -33.458,65.045 -50.291,98.607 0.136,-32.662 0.281,-65.341 0.425,-98.003 16.621,-0.281 33.244,-0.474 49.866,-0.604 m 70.556,42.869 c -9.197,-0.095 -18.395,-0.137 -27.595,-0.137 4.766,-10.517 9.537,-21.016 14.295,-31.521 4.418,10.534 8.854,21.079 13.3,31.658 m 99.475,-41.806 c 0.184,33.395 0.366,66.776 0.557,100.161 -16.956,-34.62 -33.878,-68.138 -50.706,-101.067 16.718,0.225 33.433,0.534 50.149,0.906 M 118.752,270.677 C 107,270.425 95.063,270.165 87.554,270.021 c 0.021,-5.225 0.041,-10.443 0.073,-15.657 10.404,-0.54 20.813,-1.057 31.223,-1.555 -0.027,5.952 -0.063,11.91 -0.098,17.868 m -1.006,72.802 c -9.443,1.264 -18.879,2.604 -28.308,4.006 0.034,-6.286 0.056,-12.574 0.083,-18.855 9.437,-0.492 18.872,-0.955 28.315,-1.361 -0.035,5.402 -0.062,10.806 -0.09,16.21 m 591.859,-0.127 c -0.035,-6.94 -0.069,-13.881 -0.113,-20.815 27.511,3.313 54.945,7.109 82.294,11.369 -0.013,-17.487 -0.013,-34.987 -0.042,-52.473 -27.454,-2.498 -54.95,-4.727 -82.504,-6.681 -0.028,-5.878 -0.07,-11.773 -0.084,-17.643 29.293,1.53 58.559,3.298 87.782,5.301 l 0,-2.463 c 0,-17.608 -0.016,-35.206 -0.016,-52.807 l 0,-0.522 c -243.067,0.077 -500.337,0.083 -743.396,0.242 -19.447,-0.158 -35.823,16.215 -35.815,35.732 l 0,61.236 c 0,10.422 8.792,21.032 19.31,25.215 -6.253,0.92 -12.514,1.875 -18.767,2.829 l 0,45.385 c 0,15.876 15.896,30.957 34.539,26.451 32.381,-7.509 64.944,-13.965 97.635,-19.362 16.387,-2.892 41.697,-19.798 41.809,-36.064 0.124,-17.834 0.247,-35.67 0.369,-53.5 -0.137,-12.225 -11.21,-18.822 -24.479,-21.647 7.37,-0.417 14.742,-0.835 22.107,-1.221 0.035,-6.088 0.077,-12.166 0.123,-18.248 16.313,-0.624 32.62,-1.178 48.939,-1.652 L 238.519,372.4 c 23.334,-2.549 46.711,-4.561 70.113,-6.05 20.717,-1.255 41.453,-2.092 62.19,-2.504 4.313,-9.75 8.619,-19.455 12.906,-29.134 21.202,-0.203 42.402,-0.056 63.594,0.441 4.407,9.798 8.821,19.609 13.229,29.47 46.487,1.768 92.919,5.613 139.153,11.559 -0.274,-41.084 -0.563,-82.188 -0.835,-123.292 9.13,0.323 32.484,0.667 41.637,1.035 0.281,42.017 0.562,84.031 0.856,126.046 53.505,7.861 106.702,18.551 159.365,32.06 l 0,-53.59 c -30.255,-5.712 -60.635,-10.752 -91.122,-15.089"
     id="path3486"
     clip-path="url(#clipPath3520)"
     inkscape:connector-curvature="0"
     transform="matrix(1.0065257,0,0,0.99999996,-0.11557551,0)"
     style="fill:#9d968d" /><path
     d="m 190.66,213.948 c -0.071,10.867 -0.151,21.724 -0.221,32.591 19.134,-0.618 38.272,-1.152 57.424,-1.597 -0.252,39.907 -0.501,79.827 -0.754,119.745 17.644,-1.712 35.308,-3.123 52.979,-4.24 l 0.547,-116.54 c 20.65,-0.316 41.297,-0.537 61.952,-0.667 5.038,-9.99 10.056,-19.959 15.07,-29.911 -62.341,0.043 -124.685,0.254 -186.997,0.619"
     id="path3488"
     clip-path="url(#clipPath3516)"
     inkscape:connector-curvature="0"
     transform="matrix(1.0065257,0,0,0.99999996,-0.11557551,0)"
     style="fill:#003057" /><path
     d="m 441.3,299.343 c -8.158,-19.454 -16.292,-38.792 -24.397,-58.109 l -0.791,0 c -8.695,19.271 -17.421,38.525 -26.166,57.843 17.117,-0.071 34.238,0.012 51.354,0.266 m -54.173,-86.21 c 21.231,-0.014 42.446,0 63.667,0.028 24.923,48.228 50.012,97.214 75.199,148.606 -19.757,-1.516 -39.534,-2.667 -59.338,-3.475 -4.408,-9.88 -8.815,-19.72 -13.222,-29.516 -25.279,-0.654 -50.575,-0.821 -75.857,-0.513 -4.296,9.698 -8.601,19.425 -12.906,29.173 -17.521,0.416 -35.034,1.103 -52.541,2.078 25.154,-50.146 50.177,-98.387 74.998,-146.381"
     id="path3490"
     clip-path="url(#clipPath3512)"
     inkscape:connector-curvature="0"
     transform="matrix(1.0065257,0,0,0.99999996,-0.11557551,0)"
     style="fill:#003057" /><path
     d="m 26.561,375.523 c 0,-12.197 0.013,-24.409 0.021,-36.614 18.159,-2.947 36.363,-5.67 54.596,-8.176 -0.028,6.892 -0.067,13.785 -0.087,20.675 -0.014,2.712 2.737,4.864 5.986,4.331 11.162,-1.824 22.335,-3.551 33.518,-5.187 1.962,-0.281 5.478,-2.842 5.5,-5.621 0.042,-8.499 0.091,-16.999 0.15,-25.497 -0.044,-0.203 -75.773,3.123 -77.096,3.391 -10.162,0.708 -23.121,-10.527 -23.106,-19.998 0.01,-20.195 0.025,-40.389 0.038,-60.59 0,-14.544 12.548,-27.287 27.431,-27.339 34.026,-0.322 68.071,-0.617 102.111,-0.839 15.566,-0.052 26.532,11.18 26.461,22.135 -0.074,9.707 -0.137,19.401 -0.204,29.111 -18.26,0.898 -36.497,1.897 -54.722,3.018 0.027,-6.007 0.063,-12.015 0.102,-18.016 0.021,-2.652 -3.482,-5.175 -6.885,-5.038 -11.868,0.458 -23.739,0.958 -35.595,1.479 -3.285,0.145 -5.506,3.558 -5.513,5.576 -0.028,8.46 -0.063,16.917 -0.102,25.377 -0.014,-0.045 68.022,0.818 73.763,1.134 10.211,0.145 31.139,2.906 31.283,16.647 -0.124,17.92 -0.246,35.855 -0.369,53.764 -0.077,11.453 -20.43,25.68 -33.364,27.861 -32.7,5.166 -65.268,11.369 -97.666,18.57 C 39,398.845 26.561,386.863 26.561,375.523"
     id="path3492"
     clip-path="url(#clipPath3508)"
     inkscape:connector-curvature="0"
     transform="matrix(1.0065257,0,0,0.99999996,-0.11557551,0)"
     style="fill:#003057" /><path
     d="m 701.143,349.78 c -0.063,-11.951 -0.141,-23.909 -0.197,-35.868 27.524,3.002 54.994,6.456 82.378,10.344 -0.017,-11.753 -0.029,-23.485 -0.043,-35.238 -27.453,-2.729 -54.964,-5.144 -82.518,-7.25 -0.07,-10.903 -0.111,-21.813 -0.183,-32.721 29.321,1.266 58.62,2.722 87.865,4.389 l 0,-2.449 c 0,-11.822 -0.013,-23.637 -0.013,-35.473 l 0,-0.501 c -104.528,-1.062 -223.328,-1.674 -327.938,-1.838 5.032,10.008 10.071,20.057 15.116,30.153 20.647,0.234 41.302,0.561 61.942,0.979 0.224,39.479 0.447,78.973 0.681,118.457 17.649,1.487 35.272,3.284 52.865,5.348 -0.266,-40.838 -0.546,-81.666 -0.821,-122.514 14.844,0.425 43.87,0.898 58.692,1.425 0.288,42.326 0.574,84.637 0.856,126.977 47.807,6.99 95.34,16.142 142.492,27.448 -0.025,-12.043 -0.025,-24.086 -0.025,-36.137 -30.261,-5.895 -60.656,-11.073 -91.149,-15.531"
     id="path3494"
     clip-path="url(#clipPath3504)"
     inkscape:connector-curvature="0"
     transform="matrix(1.0065257,0,0,0.99999996,-0.11557551,0)"
     style="fill:#003057" /></svg>