<?xml version="1.0" encoding="UTF-8" standalone="no"?>
<!-- Created with Inkscape (http://www.inkscape.org/) -->
<svg
   xmlns:svg="http://www.w3.org/2000/svg"
   xmlns="http://www.w3.org/2000/svg"
   version="1.0"
   width="232.95399"
   height="119.91626"
   id="svg2"
   xml:space="preserve"
   style="overflow:visible"><defs
     id="defs16" /><path
     d="M 213.11973,77.026067 L 213.11973,76.796907 C 222.42922,75.072704 231.04824,68.866373 231.04824,58.638235 C 231.04824,44.04305 217.94609,37.032157 202.31719,36.917077 L 166.02386,36.588848 L 166.02386,15.675254 C 166.02386,12.426987 167.30375,10.557682 170.55102,10.557682 L 183.5571,10.557682 L 183.5571,-0.083743395 L 124.60596,-0.083743395 L 124.60596,10.556682 L 139.34824,10.556682 C 142.59551,10.556682 143.8744,12.426987 143.8744,15.674253 L 143.8744,36.588848 L 68.704946,36.588848 L 68.704946,47.987803 L 83.655379,47.987803 C 86.926662,47.987803 88.215561,52.753128 88.215561,56.024411 L 88.215561,73.136353 C 60.208016,73.136353 56.607503,59.147591 56.607503,47.254291 L 56.607503,15.675254 C 56.607503,12.426987 60.047904,10.557682 63.296171,10.557682 L 75.057379,10.557682 L 75.057379,-0.083743395 L 0,-0.083743395 L 0,10.557682 L 14.348013,10.557682 C 17.595279,10.557682 18.874171,12.426987 18.874171,15.675254 L 18.874171,46.748938 C 18.874171,72.356809 45.397681,82.373799 88.21456,82.373799 L 88.21456,103.77073 C 88.21456,107.14108 86.232177,108.92533 83.059963,108.92533 L 70.145951,108.92533 L 70.145951,119.60378 L 201.51162,119.89398 C 202.31719,119.89398 233.11668,121.50311 233.11668,97.368263 C 233.11668,85.531002 224.15242,78.52011 213.11973,77.026067 z M 166.02386,53.023317 L 166.02386,48.58522 L 186.03182,48.58522 C 195.98777,48.58522 202.81053,51.143005 202.81053,60.260367 C 202.81053,68.356017 194.09845,72.750083 186.03182,71.789413 L 156.3441,71.789413 C 163.08081,66.752898 166.02386,59.216639 166.02386,53.023317 z M 125.3865,48.58522 L 143.8754,48.58522 L 143.8754,54.487339 C 143.8754,61.738399 139.35325,71.722366 125.3865,71.722366 L 125.3865,48.58522 z M 186.83238,108.32691 L 125.3865,108.32691 L 125.3865,83.145337 L 186.83238,83.161349 C 194.87199,83.161349 203.82724,85.487972 203.82724,97.701495 C 203.82824,107.50334 191.66976,108.32691 186.83238,108.32691 z"
     id="path13"
     style="fill:#005bbb;fill-opacity:1" /></svg>