<?xml version="1.0" encoding="UTF-8" standalone="no"?>
<svg
   xmlns:dc="http://purl.org/dc/elements/1.1/"
   xmlns:cc="http://creativecommons.org/ns#"
   xmlns:rdf="http://www.w3.org/1999/02/22-rdf-syntax-ns#"
   xmlns:svg="http://www.w3.org/2000/svg"
   xmlns="http://www.w3.org/2000/svg"
   xmlns:sodipodi="http://sodipodi.sourceforge.net/DTD/sodipodi-0.dtd"
   xmlns:inkscape="http://www.inkscape.org/namespaces/inkscape"
   width="95.020355"
   height="92.658081"
   viewBox="0 0 76.016284 74.126465"
   version="1.1"
   id="svg3119"
   inkscape:version="0.48.1 "
   sodipodi:docname="Vermont_Catamounts.svg">
  <metadata
     id="metadata3251">
    <rdf:RDF>
      <cc:Work
         rdf:about="">
        <dc:format>image/svg+xml</dc:format>
        <dc:type
           rdf:resource="http://purl.org/dc/dcmitype/StillImage" />
        <dc:title />
      </cc:Work>
    </rdf:RDF>
  </metadata>
  <defs
     id="defs3249" />
  <sodipodi:namedview
     pagecolor="#ffffff"
     bordercolor="#666666"
     borderopacity="1"
     objecttolerance="10"
     gridtolerance="10"
     guidetolerance="10"
     inkscape:pageopacity="0"
     inkscape:pageshadow="2"
     inkscape:window-width="1680"
     inkscape:window-height="994"
     id="namedview3247"
     showgrid="false"
     fit-margin-top="0"
     fit-margin-left="0"
     fit-margin-right="0"
     fit-margin-bottom="0"
     inkscape:zoom="1.4823908"
     inkscape:cx="27.308951"
     inkscape:cy="35.631547"
     inkscape:window-x="-4"
     inkscape:window-y="-4"
     inkscape:window-maximized="1"
     inkscape:current-layer="svg3119" />
  <path
     id="path3187"
     d="m 25.691168,22.018497 c 1.641473,-0.522643 3.439427,-0.194035 4.991706,0.472569 0.860639,0.364598 1.535067,1.035896 2.131256,1.736926 -0.317654,-0.02973 -0.635308,-0.06416 -0.951398,-0.09389 0.948268,0.58054 1.920008,1.236191 2.417614,2.272087 1.009294,1.866804 0.461615,4.055957 0.115795,6.024473 1.032766,-1.067192 1.81673,-2.333114 2.696147,-3.520796 1.087535,-0.377116 2.048321,-1.151691 3.226614,-1.234626 1.225237,0.02504 2.312771,0.668169 3.472287,0.982694 -0.159609,-0.657216 -0.413107,-1.2847 -0.760492,-1.86524 1.220543,0.09858 2.284605,0.73702 3.434732,1.090664 0.625919,0.378682 1.303477,0.721372 2.05458,0.726067 1.506901,0.125184 2.813507,0.924796 4.110725,1.628955 -0.630614,1.879322 -1.262792,3.76021 -1.915313,5.631708 -0.342691,-0.154915 -0.704159,-0.261321 -1.079711,-0.286358 0.222202,0.411542 0.472569,0.807436 0.747974,1.184553 -0.774575,2.36441 -1.589835,4.716301 -2.40666,7.068193 -0.61966,0.654086 -1.261227,1.301912 -2.023284,1.790129 0.596188,-0.85438 1.391106,-1.571057 1.802648,-2.547491 -1.309736,0.624354 -2.295559,1.710324 -3.173411,2.833849 -0.644697,0.860639 -1.66651,1.527243 -1.86211,2.652333 -0.189341,1.084405 0.488217,2.042062 0.568022,3.096736 0.07198,0.464745 0.02817,0.952962 0.197164,1.398929 0.222202,0.439709 0.589929,0.7824 0.8935,1.165775 -0.359904,0.341126 -0.682252,0.719807 -1.013989,1.090664 -0.486652,-1.170469 -0.278534,-2.458297 -0.521078,-3.67571 -0.09702,0.145526 -0.19247,0.294182 -0.284793,0.442837 -0.06885,-0.07668 -0.206554,-0.23159 -0.275405,-0.308265 -0.239414,0.297312 -0.558633,0.58054 -0.593058,0.985823 -0.04851,0.3912 -0.05007,0.788658 -0.07981,1.182987 -0.610271,0.23785 -0.990517,0.774576 -1.303477,1.322255 -0.01721,-1.018684 0.209683,-2.01546 0.267581,-3.027885 -0.15961,0.107971 -0.319219,0.214378 -0.46944,0.334867 -0.604012,0.506995 -0.838732,1.292524 -1.294088,1.916878 -0.190905,-0.158045 -0.375551,-0.327043 -0.589929,-0.450662 -0.400588,-0.04068 -0.782399,0.133008 -1.16421,0.23159 0.264451,-1.010859 0.788659,-1.924702 1.096924,-2.918348 -0.868463,0.862203 -1.696241,1.786999 -2.763434,2.417613 0.0579,-0.500736 0.27071,-1.024943 0.122054,-1.520984 -0.300441,-0.560198 -1.00147,-0.233155 -1.488123,-0.200294 0.724502,-1.522549 1.94035,-2.702407 3.02945,-3.957375 0.738584,-0.819954 1.771351,-1.250274 2.754045,-1.696241 -0.215943,-0.73389 0.400588,-1.300347 0.649391,-1.932526 0.599318,-1.420837 0.885676,-3.005977 1.863674,-4.243733 0.89663,-1.280004 2.342503,-2.171939 2.888618,-3.688229 0.272275,-0.674428 0.07198,-1.402059 -0.184646,-2.045191 -0.151786,0.610271 -0.162739,1.280005 -0.510124,1.82299 -0.93262,1.342597 -2.25018,2.350327 -3.253216,3.628767 -1.103183,1.452133 -1.32069,3.328326 -2.198541,4.891559 -0.998342,-0.81839 -1.411448,-2.063969 -1.807342,-3.242262 -0.07355,0.769881 -0.104842,1.55228 0.05477,2.314337 0.06885,0.461615 0.22846,0.942008 0.09858,1.408318 -0.245673,0.596188 -0.8935,0.863769 -1.469346,1.035896 -1.017118,0.275405 -2.045191,0.516384 -3.063874,0.783964 -0.04694,-0.369292 -0.09076,-0.740149 -0.136138,-1.109442 -0.614966,0.870028 -1.053109,1.841768 -1.467781,2.816637 -0.281663,-0.58367 -0.594623,-1.16421 -1.049979,-1.63052 -0.672863,-0.693205 -1.325384,-1.409883 -2.081182,-2.013895 0.384941,0.732326 0.874722,1.402059 1.394235,2.043627 -1.516289,-0.164304 -2.932431,-0.77614 -4.428379,-1.040591 -0.760491,-0.15335 -1.530372,-0.0063 -2.273651,0.159609 0.788658,0.552374 1.492817,1.248709 1.826119,2.173505 -1.370763,-0.804306 -2.888617,-1.619566 -4.530091,-1.444309 -1.23932,0.237849 -2.480205,0.558633 -3.753951,0.475699 -1.848026,-0.15335 -3.497323,0.841861 -5.265545,1.189246 -0.646262,-0.01878 -1.3488565,-0.02034 -1.9059247,-0.394329 -0.496041,-0.336431 -0.9294901,-0.752668 -1.3942351,-1.128219 0.2910524,-0.333302 0.5867993,-0.66191 0.8856757,-0.987388 -0.7198071,0.07824 -1.4474383,0.145526 -2.1703751,0.08293 -0.2190717,-0.03286 -0.5069946,-0.0532 -0.6165305,-0.281663 -0.2754044,-0.558633 -0.4287547,-1.16734 -0.6446968,-1.751009 0.4068475,-0.06729 0.8168246,-0.151786 1.2314962,-0.115796 1.6070477,0.201859 2.736832,1.735362 4.3955183,1.740056 1.899665,-0.03755 3.739868,-0.613401 5.637968,-0.685382 1.184552,-0.06103 2.373799,0.143962 3.555221,-0.0266 0.819954,-0.109536 1.596094,-0.433449 2.417613,-0.533596 0.926361,-0.11736 1.857416,0 2.785341,-0.02973 -0.414671,-0.852815 -0.945138,-1.650863 -1.265921,-2.550622 0.53516,0.244109 1.060933,0.50856 1.58827,0.769881 -0.308266,-0.469439 -0.669734,-0.916972 -0.855945,-1.452133 -0.137702,-0.377116 0.0078,-0.821519 0.35208,-1.031202 0.708853,-0.46318 1.641473,-0.555503 2.220448,-1.220542 0.298877,-0.244109 0.494477,-0.6979 0.907583,-0.746409 0.480393,0.311395 0.730761,0.855945 1.081276,1.290959 -0.0845,-0.62592 -0.344256,-1.200201 -0.604012,-1.768222 -0.308266,-0.621225 0.126748,-1.269052 0.488217,-1.758833 0.666604,-0.940444 1.869934,-1.450568 2.225143,-2.611649 0.125184,-0.104841 0.255062,-0.201859 0.386505,-0.297311 0.395894,-0.286358 0.826213,-0.536726 1.162645,-0.895065 0.236285,-0.790223 -0.111101,-1.683723 -0.74015,-2.195412 -0.636872,-0.568022 -1.494382,-0.735455 -2.284605,-0.977999 0.949833,0.0094 1.920007,0.09389 2.804118,0.467875 0.718243,0.298876 1.181423,0.956092 1.788565,1.414578 -0.419366,-0.999906 -1.096924,-1.857416 -1.766657,-2.699277 -0.837167,-0.981129 -1.736926,-1.948174 -2.863581,-2.600695 -0.34895,-0.187776 -0.741714,-0.414671 -1.151692,-0.30983 -0.445967,0.123619 -0.860639,0.331737 -1.276875,0.530467 0.597753,-0.436579 1.258098,-0.769881 1.923137,-1.0891 -0.996776,-0.481958 -2.115607,-0.477263 -3.195318,-0.530467 0.478828,-0.408412 0.970175,-0.801176 1.43492,-1.223672 -0.977999,0.142397 -1.829249,0.666604 -2.758739,0.965481 -0.524207,0.159609 -0.848121,0.622789 -1.154821,1.04372 0.865333,0.597753 1.708759,1.305042 2.779081,1.486558 -0.248802,0.194035 -0.46318,0.42719 -0.65565,0.677558 -0.70103,-0.552374 -1.422402,-1.079711 -2.0937,-1.66964 -0.23159,-0.168998 -0.458486,-0.441273 -0.774575,-0.391199 -0.802742,0.08137 -1.535067,0.447532 -2.290865,0.696335 0.27071,-1.276875 1.247144,-2.25018 2.36441,-2.847933 -0.226895,0.414672 -0.471004,0.819955 -0.704159,1.231497 1.068757,-0.829344 2.010766,-1.896536 3.334585,-2.32842 m 11.125715,9.410696 c -0.854379,1.531938 -1.998247,2.885488 -3.304853,4.052827 0.715112,0.06416 1.341032,-0.380245 1.89497,-0.77301 0.826214,-0.614966 1.134479,-1.633649 1.538197,-2.533408 0.308265,-0.677558 0.597753,-1.370763 0.722937,-2.110913 -0.320784,0.43032 -0.594624,0.8935 -0.851251,1.364504 m 8.086877,7.147998 c -1.085969,1.860545 -2.754044,3.37527 -3.462898,5.451757 -0.302006,0.949833 -0.984258,1.785435 -0.982693,2.818202 0.704159,-0.705724 1.015554,-1.693112 1.686852,-2.427002 1.78387,-2.103089 3.131161,-4.5786 3.861922,-7.241886 0.04851,-0.23785 0.06572,-0.481958 0.08763,-0.722937 -0.54142,0.61966 -0.769881,1.427096 -1.190812,2.121866 z"
     inkscape:connector-curvature="0"
     style="fill:#87460a;stroke:#87460a;stroke-opacity:1;stroke-width:0.4;stroke-miterlimit:4;stroke-dasharray:none" />
  <path
     id="path3208"
     d="m 51.815474,8.4376132 c 7.1746,-0.00313 14.3492,0.00156 21.522235,-0.00156 0.215942,-0.032861 0.552373,0.07511 0.513253,0.3473852 0.0016,3.9292084 0.0094,7.8599814 -0.0047,11.7891894 -2.01546,0.02817 -4.03092,-0.0063 -6.04638,0.01721 -2.084311,6.303007 -4.312584,12.55907 -6.39533,18.863642 -0.07824,0.230026 -0.15961,0.460051 -0.248803,0.686947 -0.151786,0.375551 -0.308266,0.749538 -0.442838,1.129784 -0.104842,0.295747 -0.197165,0.596188 -0.294182,0.8935 -0.705724,1.93409 -1.330079,3.896347 -1.995118,5.844521 -0.164304,0.461616 -0.328608,0.924796 -0.483523,1.389541 -0.09232,0.27384 -0.178387,0.550809 -0.259756,0.827778 -1.264357,3.935468 -2.733703,7.802084 -4.002754,11.735987 1.361374,0.0532 2.735267,-0.104842 4.087253,0.120489 -0.03286,3.91356 -0.0047,7.827121 -0.01408,11.742246 -9.646981,0.0266 -19.297092,0.01408 -28.944073,0.0047 0.0078,-3.930773 -0.01565,-7.863111 0.01095,-11.793884 1.306606,-0.137702 2.621037,-0.03599 3.932338,-0.07511 -0.920101,-2.727443 -1.887147,-5.440804 -2.83072,-8.161988 -0.137702,-0.373986 -0.206553,-0.787093 -0.431884,-1.120395 -0.06103,-0.06729 -0.122055,-0.134573 -0.183082,-0.198729 0.436579,0.06259 0.880982,0.02191 1.295653,-0.134573 1.057804,2.86671 2.010766,5.769411 3.031014,8.650204 0.256627,0.702595 0.499171,1.413013 0.70103,2.134385 -1.47404,0.03755 -2.94808,-0.0063 -4.423685,0.0266 -0.0047,3.154633 0.0047,6.310831 -0.0047,9.465464 1.172034,0.139267 2.351892,0.03755 3.527055,0.0094 6.572153,0.0031 13.144305,0.0016 19.716457,0 1.140738,0.03599 2.284606,0.106406 3.425344,0.02034 -0.01252,-3.168716 0.0016,-6.335868 -0.0078,-9.504584 -1.489688,-0.01408 -2.980941,0.01878 -4.469064,-0.01721 0.649391,-2.12969 1.433355,-4.215566 2.121866,-6.331173 4.270335,-12.444841 8.493725,-24.905329 12.767189,-37.348604 1.885582,-0.11423 3.775858,-0.0063 5.663005,-0.05946 0.0016,-3.246956 0.0078,-6.493913 -0.0047,-9.7424338 -6.540856,-0.00782 -13.083278,0.00313 -19.625699,-0.00469 -0.104841,0.9122772 -0.06259,1.8323792 -0.02191,2.7477852 0.0078,2.336244 -0.0094,4.672488 0.0094,7.008732 1.491252,0.01408 2.985635,-0.01878 4.478452,0.01721 -0.287923,1.084406 -0.682252,2.13595 -1.039026,3.196883 -3.077958,8.963164 -6.146527,17.929458 -9.221356,26.894187 -0.485087,1.416142 -0.938879,2.844803 -1.492817,4.235908 -0.159609,-0.46318 -0.497606,-0.818389 -0.868463,-1.120395 0.791788,-1.603918 1.126655,-3.387788 1.804212,-5.03865 0.305136,-0.500736 0.428755,-1.078146 0.472569,-1.655557 0.375552,-0.65565 0.589929,-1.384846 0.838732,-2.092135 0.816825,-2.351892 1.632085,-4.703783 2.40666,-7.068193 0.106406,-0.300442 0.220636,-0.599318 0.331737,-0.898195 0.652521,-1.871498 1.284699,-3.752386 1.915313,-5.631708 0.05946,-0.170563 0.120489,-0.342691 0.179952,-0.513254 0.100147,-0.292617 0.1956,-0.588364 0.280099,-0.885676 0.683816,-2.143773 1.461521,-4.256251 2.16568,-6.392201 0.211248,-0.6134 0.458486,-1.217413 0.578976,-1.85585 -1.342597,-0.02034 -2.686759,0 -4.029356,-0.01095 -0.01408,-4.046568 -0.03443,-8.096266 0.0094,-12.1428338 z"
     inkscape:connector-curvature="0"
     style="fill:#013823;stroke:#013823;stroke-opacity:1;stroke-width:0.08;stroke-miterlimit:4;stroke-dasharray:none" />
  <path
     id="path3210"
     d="m 12.413855,8.5487139 c 7.346728,-0.020342 14.693456,-0.010954 22.040183,-0.00469 -0.0031,4.0074485 0.02191,8.0164615 -0.01252,12.0239095 -1.422402,0.01408 -2.846368,-0.01565 -4.26877,0.01721 0.09545,0.305135 0.197165,0.607141 0.259757,0.921666 -0.408413,-0.161174 -0.832473,-0.27697 -1.262792,-0.358339 -0.223767,-0.574281 -0.43032,-1.156386 -0.604013,-1.74788 1.556975,-0.02504 3.113949,-0.0016 4.669358,-0.01252 0.0094,-3.245391 0.01095,-6.492348 -0.0016,-9.739304 -6.540857,0.00469 -13.080149,0.00156 -19.621005,0.00156 -0.01721,3.2453912 -0.0063,6.4923482 -0.0063,9.7377392 1.846462,0.01878 3.692923,-0.02504 5.537821,0.02191 0.621224,1.51003 1.012424,3.106125 1.696241,4.589553 -0.331737,0.266016 -0.683817,0.50543 -1.039026,0.73702 -0.461616,-1.391105 -0.962351,-2.769693 -1.431791,-4.159233 -1.913748,-0.02504 -3.829061,0.01878 -5.742809,-0.01878 -0.05164,-0.04694 -0.15335,-0.137702 -0.204989,-0.183081 -0.02504,-3.941727 -0.0063,-7.885018 -0.0078,-11.8267451 z"
     inkscape:connector-curvature="0"
     style="fill:#013823;stroke:#013823;stroke-opacity:1;stroke-width:0.08;stroke-miterlimit:4;stroke-dasharray:none" />
  <path
     id="path3212"
     d="m 14.862765,10.942855 c 5.728726,-0.02191 11.459017,-0.02034 17.189308,0 0.01252,2.387882 0.02347,4.777329 -0.0063,7.165211 -1.74475,0.08606 -3.4895,0.07198 -5.235815,0.09389 0.255062,0.924796 0.61966,1.813601 0.891935,2.732138 -1.273746,-0.0266 -2.459863,0.488217 -3.661628,0.835602 -0.866898,0.259756 -1.699371,0.688511 -2.323725,1.35668 -0.38807,-1.689982 -1.095359,-3.284512 -1.628955,-4.930679 -1.024943,-0.136138 -2.059275,-0.04382 -3.087347,-0.0078 -0.710418,-0.02817 -1.420837,-0.07355 -2.13282,-0.07355 -0.103277,-2.389447 -0.09858,-4.782023 -0.0047,-7.17147 z"
     inkscape:connector-curvature="0"
     style="fill:#013823;stroke:#013823;stroke-opacity:1;stroke-width:0.08;stroke-miterlimit:4;stroke-dasharray:none" />
  <path
     id="path3214"
     d="m 54.215875,10.945985 c 5.711513,-0.02973 11.424591,-0.02191 17.136105,-0.0031 0.02817,2.391012 0.03286,4.783588 -0.0047,7.1746 -1.763527,0.11736 -3.533314,-0.09076 -5.292147,0.07042 -4.470629,13.125527 -8.9616,26.24323 -13.438487,39.365628 -0.765187,2.28617 -1.603918,4.551998 -2.298689,6.86164 1.675899,0.03755 3.354928,-0.02817 5.030826,0.03599 0,2.32216 0.04538,4.64745 -0.02504,6.969611 -3.33302,0.04694 -6.667605,0.0063 -10.000626,0.02034 -4.703783,-0.01095 -9.407566,0.02191 -14.109785,-0.01721 -0.01565,-2.32529 -0.01408,-4.652145 -0.0016,-6.977435 1.638344,-0.05007 3.276688,-0.0063 4.915031,-0.02347 -0.190905,-0.705724 -0.430319,-1.397365 -0.679122,-2.084311 -0.735455,-2.038932 -1.397365,-4.104466 -2.159422,-6.134009 0.204989,-0.422495 0.400589,-0.934184 0.880982,-1.111007 0.716677,-0.266015 1.475605,-0.406847 2.178199,-0.711983 -0.107971,1.270616 -0.212813,2.542797 -0.377116,3.808719 0.557068,-0.148656 1.123525,-0.311395 1.589835,-0.665039 0.610271,-0.408413 1.100053,-1.013989 1.804212,-1.267487 0.392764,0.12049 0.721372,0.494476 0.727631,0.915407 0.0016,0.582105 -0.134573,1.153256 -0.212813,1.729102 0.337997,-0.06259 0.677558,-0.120489 1.009295,-0.212812 0.821519,2.106218 1.436485,4.290676 2.297124,6.381247 0.724502,-1.74788 1.23932,-3.575564 1.887147,-5.353175 3.523925,-10.288548 7.049416,-20.575532 10.574906,-30.86408 1.20333,-3.569304 2.480205,-7.116702 3.635026,-10.701655 -1.683723,-0.06729 -3.36901,0.06416 -5.051168,-0.03912 -0.05477,-2.387882 -0.02504,-4.777328 -0.01565,-7.166775 z"
     inkscape:connector-curvature="0"
     style="fill:#013823;stroke:#013823;stroke-opacity:1;stroke-width:0.08;stroke-miterlimit:4;stroke-dasharray:none" />
  <path
     id="path3216"
     d="m 34.507241,47.745344 c 0.54768,-0.344256 1.189247,-0.475699 1.819861,-0.568022 0.04851,0.06103 0.147091,0.179952 0.195599,0.239414 -1.452132,2.165681 -3.29077,4.184271 -3.891653,6.795919 -0.373987,-1.134479 -0.77614,-2.259569 -1.201765,-3.37527 0.754233,-1.259662 1.824555,-2.328419 3.077958,-3.092041 z"
     inkscape:connector-curvature="0"
     style="fill:#013823;stroke:#013823;stroke-opacity:1;stroke-width:0.08;stroke-miterlimit:4;stroke-dasharray:none" />
  <path
     id="path3218"
     d="m 41.861793,57.85394 c 0.353644,-0.30983 0.686946,-0.646261 0.974869,-1.018683 0.08606,0.327043 0.198729,0.647826 0.306701,0.96861 0.08293,-0.173693 0.167433,-0.345821 0.245673,-0.519513 0.01252,0.38494 0.03599,0.771445 0.05946,1.15795 0.259757,-0.06416 0.521078,-0.126748 0.782399,-0.18934 -0.359903,0.970175 -0.649391,1.966951 -1.024943,2.932432 -0.569586,-1.060933 -0.732325,-2.290865 -1.344161,-3.331456 z"
     inkscape:connector-curvature="0"
     style="fill:#013823;stroke:#013823;stroke-opacity:1;stroke-width:0.08;stroke-miterlimit:4;stroke-dasharray:none" />
  <path
     id="path3185"
     d="m 17.953241,2.7057574 c 1.700936,-0.6008825 3.498889,-0.9294901 5.303101,-0.9420085 2.757175,-0.025037 5.572247,0.00313 8.229274,0.8309078 1.483429,0.4365787 3.040403,0.6634745 4.442462,1.3472913 0.722937,0.3599036 1.456827,0.7025944 2.243921,0.8981941 0.610271,0.2112478 1.049979,0.7182424 1.555409,1.0984884 1.236191,0.9545269 2.245485,2.1656807 3.126467,3.4472504 0.682252,0.9936471 1.146997,2.1077831 1.646168,3.1968831 1.125089,2.281475 1.910618,4.714737 2.533408,7.176164 0.203424,0.810566 0.251932,1.657121 0.525772,2.450474 0.683817,1.680593 1.297218,3.389353 1.866804,5.112196 -0.256627,0.06259 -0.521078,0.161174 -0.783964,0.07354 -1.801082,-0.471004 -3.453509,-1.35668 -5.15288,-2.0937 -0.0579,-1.747879 -0.07981,-3.497324 -0.05477,-5.245203 0.08763,-1.982599 -0.610271,-3.874441 -1.106312,-5.763152 C 41.472158,11.748726 40.293865,9.2200123 38.334738,7.3297361 36.557127,5.461367 34.09257,4.4286002 31.612365,3.8887448 29.643848,3.4427774 27.620564,3.3661022 25.623882,3.1251233 24.625541,3.034365 23.638153,2.8027749 22.631988,2.8262469 21.182985,2.910746 19.730852,3.1126049 18.3507,3.5789148 17.296026,3.8558841 16.316462,4.3613139 15.250835,4.600728 l 0.09232,-0.1048415 C 16.012891,3.6524603 16.929863,3.034365 17.953241,2.7057574 z"
     inkscape:connector-curvature="0"
     style="fill:#87460a;stroke:#87460a;stroke-opacity:1;stroke-width:0.4;stroke-miterlimit:4;stroke-dasharray:none" />
  <path
     id="path3189"
     d="m 32.908017,23.298502 c 0.895065,-0.176822 1.810472,-0.128314 2.71649,-0.103277 1.035897,0.04538 2.095265,0.0845 3.074829,0.460051 -0.632179,0.225331 -1.290959,0.352079 -1.94348,0.500735 -0.84812,0.194035 -1.646167,0.547679 -2.428567,0.916972 -0.566456,-0.510124 -1.023378,-1.126655 -1.419272,-1.774481 z"
     inkscape:connector-curvature="0"
     style="fill:#87460a;stroke:#87460a;stroke-opacity:1;stroke-width:0.4;stroke-miterlimit:4;stroke-dasharray:none" />
  <path
     id="path3191"
     d="m 18.998526,25.957094 c 0.350515,-0.262886 0.769881,-0.718243 1.244015,-0.54142 0.08293,0.308265 -0.05477,0.611836 -0.123619,0.907583 -0.378681,-0.107971 -0.752668,-0.228461 -1.120396,-0.366163 z"
     inkscape:connector-curvature="0"
     style="fill:#87460a;stroke:#87460a;stroke-opacity:1;stroke-width:0.4;stroke-miterlimit:4;stroke-dasharray:none" />
  <path
     id="path3193"
     d="m 60.712917,41.270209 c 0.134572,-0.380246 0.291052,-0.754233 0.442838,-1.129784 1.807342,2.167245 3.109254,4.694394 4.406471,7.183988 -0.613401,1.023378 -0.973304,2.359716 -2.146903,2.898007 -0.857509,0.269145 -1.74162,-0.150221 -2.495853,-0.535161 -0.888805,-0.471005 -1.693112,-1.078146 -2.495853,-1.679029 0.665039,-1.948174 1.289394,-3.910431 1.995118,-5.844521 1.065627,1.525678 1.890276,3.229743 3.168716,4.598942 0.11736,-0.89037 -0.339561,-1.689982 -0.705724,-2.462993 -0.503865,-1.150126 -1.289394,-2.143773 -2.16881,-3.029449 z"
     inkscape:connector-curvature="0"
     style="fill:#87460a;stroke:#87460a;stroke-opacity:1;stroke-width:0.4;stroke-miterlimit:4;stroke-dasharray:none" />
  <path
     id="path3195"
     d="m 1.2490203,48.12872 c 0.7041592,-0.402154 1.4771695,-0.74328 2.287735,-0.830908 0.6759928,0.02504 0.9185365,0.840296 0.9623509,1.400494 0.115795,0.586799 -0.6055769,0.843426 -1.0718868,0.758927 -0.6196601,-0.303571 -1.0171188,-1.035896 -1.74475,-1.104747 -0.333302,0.129878 -0.5742809,0.409977 -0.85125022,0.625919 0.0844991,-0.3067 0.0798047,-0.702594 0.41780112,-0.849685 z"
     inkscape:connector-curvature="0"
     style="fill:#87460a;stroke:#87460a;stroke-opacity:1;stroke-width:0.4;stroke-miterlimit:4;stroke-dasharray:none" />
  <path
     id="path3197"
     d="m 66.031666,49.09733 c 0.874722,0.187775 1.765092,0.557068 2.373799,1.234625 0.879416,1.458392 1.021813,3.276688 2.095264,4.636497 0.616531,0.757363 1.165775,1.564799 1.682159,2.394142 0.500735,0.81213 1.333208,1.325384 1.948173,2.038932 0.03443,0.395894 0.08137,0.790223 0.125184,1.186117 -0.685381,0.341126 -1.362939,-0.04069 -1.932526,-0.417801 -0.01252,0.269145 -0.0266,0.536725 -0.04381,0.805871 -1.269051,-0.65878 -2.09683,-1.873064 -2.879229,-3.024755 -0.630613,-0.912277 -0.868463,-2.017025 -1.413012,-2.974682 -0.447533,-0.793352 -0.926361,-1.596094 -1.090665,-2.505241 -0.217507,-1.142303 -0.311395,-2.329985 -0.865333,-3.373705 z"
     inkscape:connector-curvature="0"
     style="fill:#87460a;stroke:#87460a;stroke-opacity:1;stroke-width:0.4;stroke-miterlimit:4;stroke-dasharray:none" />
  <path
     id="path3199"
     d="m 3.7620862,50.543203 c 0.2049886,-0.09702 0.4037179,-0.272275 0.6478265,-0.211248 0.6869464,0.109536 1.4568271,0.151786 1.9919881,0.649392 -0.8809814,0.240979 -1.9919881,0.350514 -2.6398146,-0.438144 z"
     inkscape:connector-curvature="0"
     style="fill:#87460a;stroke:#87460a;stroke-opacity:1;stroke-width:0.4;stroke-miterlimit:4;stroke-dasharray:none" />
  <path
     id="path3201"
     d="m 1.0925405,51.353769 c 0.5570681,0.276969 1.0687571,0.636873 1.5335022,1.049979 -0.5930585,0.186211 -1.1673394,0.456921 -1.5601038,0.957657 -0.26445089,-0.650956 -0.12518385,-1.350421 0.026602,-2.007636 z"
     inkscape:connector-curvature="0"
     style="fill:#87460a;stroke:#87460a;stroke-opacity:1;stroke-width:0.4;stroke-miterlimit:4;stroke-dasharray:none" />
  <path
     id="path3203"
     d="M 5.3159308,52.034456 C 5.639844,51.791912 6.0310436,51.84355 6.3972064,51.942133 6.1155427,52.255092 5.865175,52.693236 5.4082539,52.755828 4.7917234,52.832503 4.0656571,52.89666 3.585264,52.417831 4.1266842,52.11739 4.8011122,52.414702 5.3159308,52.034456 z"
     inkscape:connector-curvature="0"
     style="fill:#87460a;stroke:#87460a;stroke-opacity:1;stroke-width:0.4;stroke-miterlimit:4;stroke-dasharray:none" />
  <path
     id="path3205"
     d="m 4.97324,53.096954 c 0.3661628,0.251932 0.7088536,0.535161 1.0327668,0.840296 -0.356774,0.330173 -0.7823991,0.629049 -0.992082,1.081276 -0.026602,0.319219 0.107971,0.624355 0.1736926,0.93262 C 4.6837523,55.636621 4.0093243,55.298625 3.8888349,54.672706 4.1704985,54.098425 4.5914293,53.605513 4.97324,53.096954 z"
     inkscape:connector-curvature="0"
     style="fill:#87460a;stroke:#87460a;stroke-opacity:1;stroke-width:0.4;stroke-miterlimit:4;stroke-dasharray:none" />
  <g
     id="#ffffffff"
     transform="matrix(0.15647982,0,0,0.15647982,-0.99490032,-0.5975316)">
    <path
       style="fill:#ffffff"
       inkscape:connector-curvature="0"
       d="m 249.48,162.41 c 2.49,-1.65 5.69,-0.59 8.49,-0.73 -0.24,2.74 -2.9,3.96 -4.79,5.52 -4.26,3.01 -8.12,6.52 -12.14,9.83 -3.15,2.64 -5.67,6.05 -9.26,8.14 -0.19,-3.53 -0.8,-7.12 -0.13,-10.63 3.75,-6.76 11.75,-8.32 17.83,-12.13 z"
       id="path3122" />
    <path
       style="fill:#ffffff"
       inkscape:connector-curvature="0"
       d="m 175.3,163.45 c 1.2,0.05 2.4,0.1 3.6,0.15 0.32,2.56 -0.56,5.09 -3.29,5.75 -0.13,-1.97 -0.23,-3.94 -0.31,-5.9 z"
       id="path3124" />
    <path
       style="fill:#ffffff"
       inkscape:connector-curvature="0"
       d="m 166.77,164.81 c 1.35,-0.22 2.7,-0.41 4.05,-0.59 0.97,1.96 1.79,3.99 2.27,6.13 -2.53,-1.28 -5.39,-2.62 -6.32,-5.54 z"
       id="path3126" />
    <path
       style="fill:#ffffff"
       inkscape:connector-curvature="0"
       d="m 146.86,180.63 c 3.85,-1.68 8.14,-1.13 12.22,-1.05 2.54,0.02 4.65,2.29 5.43,4.54 -0.91,3.09 -4.9,4.59 -4.98,7.87 1.68,3.19 4.18,5.83 6.36,8.66 -7.65,-0.05 -15.11,-1.91 -22.55,-3.49 0.15,-1.93 -0.34,-4.14 1.03,-5.73 1.85,-2.81 4.94,-4.4 7.3,-6.71 0.04,-2.46 -3.24,-2.8 -4.81,-4.09 z"
       id="path3128" />
    <path
       style="fill:#ffffff"
       inkscape:connector-curvature="0"
       d="m 134.86,206.03 c -3.51,-6.27 -6.86,-14.67 -2.7,-21.37 0.15,1.39 0.29,2.78 0.4,4.18 3.28,2.39 6.77,5.12 7.99,9.19 -0.31,3.5 -3.24,5.85 -5.69,8 z"
       id="path3130" />
    <path
       style="fill:#ffffff"
       inkscape:connector-curvature="0"
       d="m 182.88,196.48 c 9.62,-3.81 20.16,2.13 25.65,10.05 2.16,2.86 1.49,6.57 1.12,9.86 -0.84,0.61 -1.67,1.23 -2.47,1.9 -8.06,6.12 -15.67,12.91 -21.91,20.92 -3.62,4.09 -6.84,8.54 -10.77,12.33 -3.74,3.55 -9.29,3.56 -14.06,2.84 -3.5,-1.21 -6.46,-4.23 -6.71,-8.05 6.25,-2.32 13.66,0.76 19.35,-3.19 6.29,-6.7 5.75,-16.69 9.26,-24.75 1.82,-6.04 5.6,-11.1 9.25,-16.12 -6.24,0.16 -12.49,0.13 -18.72,-0.14 0.34,-2.29 1.47,-4.28 2.97,-6.01 3.51,0.75 7.01,1.55 10.51,2.37 -1.16,-0.68 -2.31,-1.36 -3.47,-2.01 z"
       id="path3132" />
    <path
       style="fill:#ffffff"
       inkscape:connector-curvature="0"
       d="m 142.93,202.54 c 1.67,-0.18 3.34,-0.31 5.02,-0.39 -0.2,1.23 -0.41,2.46 -0.62,3.69 -2.33,0.34 -3.58,-1.4 -4.4,-3.3 z"
       id="path3134" />
    <path
       style="fill:#ffffff"
       inkscape:connector-curvature="0"
       d="m 149.9,202.44 c 1.37,-0.01 2.74,-0.01 4.11,0.02 -0.53,1.16 -0.4,3.04 -2.02,3.25 -1.32,-0.57 -1.5,-2.14 -2.09,-3.27 z"
       id="path3136" />
    <path
       style="fill:#ffffff"
       inkscape:connector-curvature="0"
       d="m 157.34,203.24 c 2.48,0.07 4.97,0.16 7.45,0.33 -0.98,4.44 -3.06,8.58 -5.9,12.12 -0.53,-4.15 -1.26,-8.27 -1.55,-12.45 z"
       id="path3138" />
    <path
       style="fill:#ffffff"
       inkscape:connector-curvature="0"
       d="m 136.99,207.43 c 1.64,-1.17 3.31,-2.3 5.03,-3.35 0.86,4.96 2.42,9.85 2.47,14.91 -3.14,-3.32 -6.52,-6.96 -7.5,-11.56 z"
       id="path3140" />
    <path
       style="fill:#ffffff"
       inkscape:connector-curvature="0"
       d="m 164.45,226.42 c 2.53,3.57 4.92,7.27 7.05,11.09 1.09,1.98 -1.33,3.31 -2.91,3.78 -6.16,1.27 -12.47,1.22 -18.73,1.35 -2.55,-3.65 -4.73,-7.71 -4.9,-12.25 3.57,3.15 6.73,6.74 10.39,9.8 0.52,-1.41 1,-2.82 1.45,-4.25 0.99,0.63 1.98,1.28 2.96,1.92 1.31,-1.71 3.18,-1.67 5.12,-1.19 -0.25,-3.41 -0.52,-6.83 -0.43,-10.25 z"
       id="path3142" />
    <path
       style="fill:#ffffff"
       inkscape:connector-curvature="0"
       d="m 31.25,294.96 c -0.31,-2.54 1.05,-4.68 2.54,-6.58 0.86,-0.03 2.59,-0.1 3.45,-0.14 0.94,1.2 2.49,2.21 2.42,3.93 0.54,2.74 -1.41,5.1 -1.31,7.8 -0.05,2.16 0.05,4.33 0.05,6.5 -3.36,-3 -7.9,-6.43 -7.15,-11.51 z"
       id="path3144" />
    <path
       style="fill:#ffffff"
       inkscape:connector-curvature="0"
       d="m 15.3,323.76 c -1.82,-2.89 -0.24,-6.11 1.38,-8.64 3.85,1.4 7.5,3.6 9.56,7.27 -0.9,0.08 -2.69,0.24 -3.58,0.32 1.42,3.46 3.94,6.23 6.53,8.87 -5.67,1.01 -11.94,-2.32 -13.89,-7.82 z"
       id="path3146" />
    <path
       style="fill:#ffffff"
       inkscape:connector-curvature="0"
       d="m 63.52,341.36 c 12.87,-6.95 24.66,-16.22 38.98,-20.13 6.13,2.26 12.55,3.54 19,4.47 14.63,3.04 29.54,4.97 44.49,4.51 8.48,-0.99 17.58,0.19 25.35,-4.07 3.35,-1.09 6.88,-1.45 10.38,-1.45 -2.14,2.85 -4.45,5.83 -7.7,7.49 -5.69,2.4 -11.99,2.34 -18.01,3.16 -8.7,0.44 -17.4,0.15 -26.05,-0.72 -13.42,0.54 -25.71,-6.33 -39.05,-6.46 -4.94,-0.17 -10.02,0.08 -14.62,2.08 -6.7,2.73 -13.77,4.54 -20.24,7.81 -6.19,2.94 -10.23,9.26 -17.18,10.82 -0.68,-1.28 -1.34,-2.55 -2.03,-3.81 -2.07,1.03 -4.16,2.06 -6.31,2.93 -0.08,-1.25 -0.16,-2.49 -0.22,-3.73 4.32,-1.45 9.2,-0.45 13.21,-2.9 z"
       id="path3148" />
    <path
       style="fill:#ffffff"
       inkscape:connector-curvature="0"
       d="m 225.4,339.43 c 1.43,-1.33 3.5,-1.01 5.29,-1.22 0.01,4.6 -1.83,9.18 -4.91,12.57 -2.92,2.29 -5.9,4.51 -8.45,7.22 0.25,-6.82 2.32,-14.34 8.07,-18.57 z"
       id="path3150" />
    <path
       style="fill:#ffffff"
       inkscape:connector-curvature="0"
       d="m 16.15,345.07 c 1.46,-3.12 4.91,-3.8 7.86,-4.77 0.6,0.98 1.21,1.97 1.81,2.96 3.32,-0.13 6.65,-0.18 9.96,0.15 -4.24,2.99 -9.51,4.26 -14.65,4.13 -1.97,0.06 -3.42,-1.49 -4.98,-2.47 z"
       id="path3152" />
    <path
       style="fill:#ffffff"
       inkscape:connector-curvature="0"
       d="m 44.36,356.33 c 3.57,-3.08 7.26,-6.08 11.36,-8.42 -2.24,6.07 -7.61,10.78 -13.99,12.05 -0.33,-1.56 -1.75,-3.27 -0.82,-4.86 0.84,-2.6 3.6,-3.55 5.77,-4.73 0.36,2.34 -1,4.21 -2.32,5.96 z"
       id="path3154" />
    <path
       style="fill:#ffffff"
       inkscape:connector-curvature="0"
       d="m 288.15,356.06 c 1.33,-2.25 3.08,-5.71 6.27,-4.55 2,1.5 1.2,4.34 1.42,6.49 0.28,6.48 -3.9,12.08 -8.35,16.35 0.24,-6.07 -2.96,-12.72 0.66,-18.29 z"
       id="path3156" />
    <path
       style="fill:#ffffff"
       inkscape:connector-curvature="0"
       d="m 247.3,352.02 c 2.04,-2.01 4.25,0.99 4.31,2.96 0.39,7.93 -5.64,14.58 -12.4,17.86 2.04,-7.07 1.58,-15.99 8.09,-20.82 z"
       id="path3158" />
    <path
       style="fill:#ffffff"
       inkscape:connector-curvature="0"
       d="m 266.75,360.96 c -0.53,-3.97 2.08,-7.77 5.27,-9.93 1.19,1.08 2.55,2.06 3.46,3.43 1.96,9.31 -4.02,18.34 -11.45,23.4 2.36,-5.23 4,-11.16 2.72,-16.9 z"
       id="path3160" />
    <path
       style="fill:#ffffff"
       inkscape:connector-curvature="0"
       d="m 280.11,367.03 c 0.2,-0.36 0.58,-1.09 0.78,-1.46 0.68,0.31 2.05,0.92 2.73,1.23 0.01,1.03 0.02,2.06 0.02,3.1 -0.5,1.11 -1.04,2.21 -1.57,3.32 -0.69,-2.05 -1.41,-4.1 -1.96,-6.19 z"
       id="path3162" />
  </g>
  <g
     id="#010101ff"
     transform="matrix(0.15647982,0,0,0.15647982,-0.99490032,-0.5975316)">
    <path
       style="fill:#010101"
       inkscape:connector-curvature="0"
       d="M 99.33,19.55 C 117.38,10.35 137.77,5.82 158,6.17 c 8.33,0.01 16.66,-0.1 24.98,0.39 16.45,1.98 32.85,5.27 48.31,11.35 23.48,9.69 44.34,26.45 57.35,48.42 11.65,16.79 17.79,36.59 22.42,56.29 2.31,8.46 3.28,17.33 6.88,25.39 3.38,8.31 6.98,16.59 11.81,24.17 4.61,5.91 8.46,13.15 15.89,15.94 -0.54,1.9 -1.15,3.79 -1.79,5.66 -9.62,-5.16 -19.97,-8.98 -30.74,-10.83 1.11,1.23 2.23,2.45 3.32,3.7 -4.8,-0.03 -9.13,-2.22 -13.13,-4.64 -5.7,-4.2 -11.76,-8.17 -18.63,-10.13 -2.97,-0.92 -6.11,-0.39 -9.07,0.29 -7.68,1.6 -14.8,5.07 -21.62,8.84 -3.78,2.13 -7.89,4.01 -10.58,7.56 -5.62,7.59 -10.63,15.68 -17.23,22.5 2.21,-12.58 5.71,-26.57 -0.74,-38.5 -3.18,-6.62 -9.39,-10.81 -15.45,-14.52 2.02,0.19 4.05,0.41 6.08,0.6 -3.81,-4.48 -8.12,-8.77 -13.62,-11.1 -9.92,-4.26 -21.41,-6.36 -31.9,-3.02 -8.46,2.76 -14.48,9.58 -21.31,14.88 1.49,-2.63 3.05,-5.22 4.5,-7.87 -7.14,3.82 -13.38,10.04 -15.11,18.2 4.83,-1.59 9.51,-3.93 14.64,-4.45 2.02,-0.32 3.47,1.42 4.95,2.5 4.29,3.77 8.9,7.14 13.38,10.67 3.08,0.48 5.87,-1.17 8.62,-2.27 5.79,-2.6 11.59,-5.38 17.92,-6.38 -7.3,4.42 -15.4,7.51 -22.08,12.94 10.05,-1.87 19.68,-5.94 30,-6.2 -7.52,3.69 -15.93,5.07 -23.43,8.8 8.24,0.05 16.32,-2.38 24.6,-1.96 -8.43,2.43 -17.08,3.93 -25.5,6.4 6.07,1.92 12.62,2.38 18.31,5.42 -7.27,0.58 -14.33,-2.44 -21.61,-1.33 1.44,0.93 2.94,1.77 4.46,2.6 1.16,0.65 2.31,1.33 3.47,2.01 -3.5,-0.82 -7,-1.62 -10.51,-2.37 -1.5,1.73 -2.63,3.72 -2.97,6.01 6.23,0.27 12.48,0.3 18.72,0.14 -3.65,5.02 -7.43,10.08 -9.25,16.12 -3.51,8.06 -2.97,18.05 -9.26,24.75 -5.69,3.95 -13.1,0.87 -19.35,3.19 0.25,3.82 3.21,6.84 6.71,8.05 4.77,0.72 10.32,0.71 14.06,-2.84 3.93,-3.79 7.15,-8.24 10.77,-12.33 6.24,-8.01 13.85,-14.8 21.91,-20.92 -2.27,7.42 -9.96,10.68 -14.22,16.69 -2.31,3.13 -5.09,7.27 -3.12,11.24 1.66,3.63 3.32,7.3 3.86,11.3 -2.24,-2.78 -3.84,-6.26 -6.91,-8.25 -2.64,0.31 -3.89,3.21 -5.8,4.77 -3.7,4.25 -9.66,4.84 -14.19,7.8 -2.2,1.34 -3.13,4.18 -2.25,6.59 1.19,3.42 3.5,6.28 5.47,9.28 -3.37,-1.67 -6.73,-3.36 -10.15,-4.92 2.05,5.75 5.44,10.85 8.09,16.3 -5.93,0.19 -11.88,-0.56 -17.8,0.19 -5.25,0.64 -10.21,2.71 -15.45,3.41 -7.55,1.09 -15.15,-0.22 -22.72,0.17 -12.13,0.46 -23.89,4.14 -36.03,4.38 -10.6,-0.03 -17.82,-9.83 -28.09,-11.12 -2.65,-0.23 -5.27,0.31 -7.87,0.74 1.38,3.73 2.36,7.62 4.12,11.19 0.7,1.46 2.54,1.59 3.94,1.8 4.62,0.4 9.27,-0.03 13.87,-0.53 -1.91,2.08 -3.8,4.18 -5.66,6.31 2.97,2.4 5.74,5.06 8.91,7.21 3.56,2.39 8.05,2.4 12.18,2.52 4.06,0.18 8.13,0.15 12.17,0.56 -4.88,3.43 -11.1,3.67 -16.28,6.49 11.14,0.82 22.15,-1.81 33.14,-3.22 -1.27,0.72 -2.57,1.41 -3.89,2.04 -14.32,3.91 -26.11,13.18 -38.98,20.13 -4.01,2.45 -8.89,1.45 -13.21,2.9 0.06,1.24 0.14,2.48 0.22,3.73 2.15,-0.87 4.24,-1.9 6.31,-2.93 0.69,1.26 1.35,2.53 2.03,3.81 6.95,-1.56 10.99,-7.88 17.18,-10.82 6.47,-3.27 13.54,-5.08 20.24,-7.81 4.6,-2 9.68,-2.25 14.62,-2.08 13.34,0.13 25.63,7 39.05,6.46 8.65,0.87 17.35,1.16 26.05,0.72 6.02,-0.82 12.32,-0.76 18.01,-3.16 3.25,-1.66 5.56,-4.64 7.7,-7.49 1.72,-2.8 3.04,-5.82 4.49,-8.77 2.65,-6.23 5.45,-12.44 9.38,-18 0.29,2.36 0.57,4.73 0.87,7.09 6.51,-1.71 13.08,-3.25 19.58,-5.01 3.68,-1.1 7.82,-2.81 9.39,-6.62 0.83,-2.98 -0.19,-6.05 -0.63,-9 -1.02,-4.87 -0.82,-9.87 -0.35,-14.79 2.53,7.53 5.17,15.49 11.55,20.72 5.61,-9.99 7,-21.98 14.05,-31.26 6.41,-8.17 14.83,-14.61 20.79,-23.19 2.22,-3.47 2.29,-7.75 3.26,-11.65 1.64,4.11 2.92,8.76 1.18,13.07 -3.49,9.69 -12.73,15.39 -18.46,23.57 -6.25,7.91 -8.08,18.04 -11.91,27.12 -1.59,4.04 -5.53,7.66 -4.15,12.35 -6.28,2.85 -12.88,5.6 -17.6,10.84 -6.96,8.02 -14.73,15.56 -19.36,25.29 3.11,-0.21 7.59,-2.3 9.51,1.28 0.95,3.17 -0.41,6.52 -0.78,9.72 6.82,-4.03 12.11,-9.94 17.66,-15.45 -1.97,6.35 -5.32,12.19 -7.01,18.65 2.44,-0.63 4.88,-1.74 7.44,-1.48 1.37,0.79 2.55,1.87 3.77,2.88 0.03,0.89 0.08,2.68 0.11,3.58 4.4,-4.13 8.33,-9.51 8.16,-15.83 0.96,-0.77 1.98,-1.45 3,-2.14 -0.37,6.47 -1.82,12.84 -1.71,19.35 2,-3.5 4.43,-6.93 8.33,-8.45 1.43,0.83 2.86,1.66 4.3,2.49 -2.2,-4.8 -1.18,-10.16 1.76,-14.38 0.59,-0.95 1.2,-1.9 1.82,-2.83 1.55,7.78 0.22,16.01 3.33,23.49 2.12,-2.37 4.18,-4.79 6.48,-6.97 1.12,-1.04 2.28,-2.04 3.43,-3.04 -2.14,-2.12 -4.69,-3.85 -6.49,-6.29 -1.8,-2.96 -1.58,-6.58 -2.31,-9.85 -0.31,-2.72 -1.73,-5.53 -0.6,-8.23 1.96,-5.73 5.74,-10.71 10.37,-14.56 4.42,-3.67 8.45,-7.83 13.23,-11.06 -0.28,3.69 -1.07,7.38 -3.02,10.58 -6.1,4.08 -12.09,9.11 -14.81,16.14 0.1,4.22 0.66,8.43 0.8,12.66 -0.04,1.56 1.57,2.37 2.48,3.4 2.37,1.93 4.53,4.2 5.55,7.16 -0.45,5.88 0.62,12.04 -1.71,17.66 -1.5,4.42 -5,7.63 -7.87,11.16 -1.67,0.4 -3.34,0.8 -5,1.21 -0.15,-2.47 -0.3,-4.94 -0.38,-7.4 0,-1.04 -0.01,-2.07 -0.02,-3.1 -0.68,-0.31 -2.05,-0.92 -2.73,-1.23 -0.2,0.37 -0.58,1.1 -0.78,1.46 -1.84,2.38 -3.97,4.53 -6.23,6.51 -2.07,1.79 -4.07,3.64 -6.22,5.34 -2.12,0.59 -4.29,0.96 -6.45,1.36 0.5,-3.68 1.37,-7.33 1.36,-11.05 -0.04,-2.69 -2.14,-5.08 -4.65,-5.85 -4.5,1.62 -7.63,5.49 -11.53,8.1 -2.98,2.26 -6.6,3.3 -10.16,4.25 1.05,-8.09 1.72,-16.22 2.41,-24.34 -4.49,1.95 -9.34,2.85 -13.92,4.55 -3.07,1.13 -4.32,4.4 -5.63,7.1 -0.55,0.43 -1.66,1.3 -2.21,1.73 -2.62,-4.4 -2.37,-9.56 -1.99,-14.46 3.84,-16.69 15.59,-29.59 24.87,-43.43 -0.31,-0.38 -0.94,-1.14 -1.25,-1.53 -4.03,0.59 -8.13,1.43 -11.63,3.63 -8.01,4.88 -14.85,11.71 -19.67,19.76 -1.85,3.17 -3.68,6.35 -5.3,9.63 -2.65,1 -5.49,1.26 -8.28,0.86 0.39,0.41 0.78,0.84 1.17,1.27 -4.35,-0.32 -8.56,1 -12.88,1.18 -15.16,1.52 -30.68,1.32 -45.53,-2.34 -9.33,-2.53 -18.62,-6.17 -28.44,-5.82 -4.44,-0.16 -8.54,1.85 -12.76,2.92 -6.25,2.3 -12.69,4.09 -18.74,6.93 -4.43,1.64 -7.84,5.08 -12.08,7.1 -3.3,1.65 -7.38,2.02 -9.8,5.12 -4.25,4.05 -8.93,10.03 -15.5,8.85 -6.8,-2.12 -10.5,-8.61 -14.73,-13.81 -5.49,0.33 -11.72,-1.16 -14.75,-6.16 -2.04,-2.93 -0.06,-6.35 0.34,-9.45 0.52,-3.46 1.65,-6.75 2.76,-10.05 -1.72,-2.13 -4.73,-3.86 -4.44,-6.98 -0.62,-5.26 3.43,-9.89 8.07,-11.74 3.95,-1.71 8.44,-3.07 11.03,-6.76 0.67,-4.74 0.63,-10.21 4.38,-13.76 2.22,-0.59 4.6,-0.01 6.8,-0.77 4.77,-1.22 10.03,-3.94 14.75,-1.01 6.59,4.48 13.75,8.64 21.82,9.55 6.88,0.56 13.88,0.48 20.64,-1.07 18.12,-4.65 37.77,-2.45 55.02,-10.58 5.49,-1.89 3.99,-8.92 4.85,-13.44 1.31,-3.19 2.55,-6.47 2.1,-10 -2.9,-2.91 -6.87,-4.4 -9.77,-7.28 -2.41,-2.18 -1.16,-5.81 -2.56,-8.49 -2.4,-5.45 -4.95,-11.04 -4.97,-17.12 3.6,-0.98 5.97,2.54 8.96,3.86 0.19,-3.24 0.23,-6.51 -0.43,-9.7 -0.74,1.91 0.18,5.58 -2.93,5.14 -4.59,-2.94 -8.19,-7.13 -11.11,-11.68 -1.75,-3.22 -6,-4.43 -6.84,-8.24 -0.66,-1.11 -0.55,-3.14 -2.1,-3.44 -4.39,1.3 -8.49,3.46 -12.96,4.52 4.12,-3.53 9.21,-5.78 13.02,-9.68 -5.63,0.2 -10.65,3.11 -16.1,4.23 4.53,-3.87 10.3,-5.62 15.31,-8.71 -7.74,0.99 -15.47,2.34 -23.26,2.91 4.68,-2.07 9.45,-3.92 14.39,-5.27 1.91,-0.46 3.69,-1.3 5.22,-2.53 -7.57,-0.66 -15.18,-0.32 -22.75,-0.8 7.73,-1.77 15.61,-2.33 23.48,-3.03 -8.09,-2.43 -16.67,-2.76 -24.69,-5.48 10.59,-1.09 21.09,1.55 31.52,3.01 1.57,-0.67 2.31,-2.27 2.92,-3.75 -4.46,-1.8 -9.12,-3.23 -13.21,-5.82 3.65,-4.45 9.33,-6.14 14.05,-9.12 2.27,-1.48 4.52,-3.01 6.64,-4.71 1.97,-1.75 3.74,-3.72 5.6,-5.58 3.99,-4.27 9.31,-7.01 14.85,-8.67 7.68,-2.22 15.26,-5.51 23.4,-5.34 3.13,0.43 6.25,0.91 9.38,1.37 2.75,0.52 5.46,1.26 8.07,2.29 6.33,4.81 14.54,4.98 22.09,6 12.82,-0.04 25.78,1.61 37.83,6.14 2.85,0.99 5.07,3.12 6.83,5.52 -1.23,3.59 -3.68,6.45 -6.41,8.99 4.42,-0.87 8.71,-2.49 13.26,-2.64 3.15,-11.1 3.59,-22.78 3.31,-34.25 -0.17,-12.76 -3.98,-25.08 -7.84,-37.12 C 264.73,80.97 258.23,68.4 249.5,57.49 243.31,49.68 234.6,44.43 225.74,40.17 219.11,36.88 211.79,35.43 204.67,33.63 180.45,27.67 154.89,24.89 130.26,30.01 117.42,32.42 106.1,40.08 92.97,41.3 91.36,40.92 89.9,40.12 88.41,39.42 88.33,36.72 88.12,33.99 88.54,31.3 90.3,26.07 94.41,21.95 99.33,19.55 m 37.78,-7.01 c -12.54,1.45 -25.75,4.54 -35.21,13.44 -1.57,1.1 -1.36,3.1 -1.45,4.77 1.32,0.6 2.64,1.19 3.96,1.8 l -0.59,0.67 c 6.81,-1.53 13.07,-4.76 19.81,-6.53 8.82,-2.98 18.1,-4.27 27.36,-4.81 6.43,-0.15 12.74,1.33 19.12,1.91 12.76,1.54 25.69,2.03 38.27,4.88 15.85,3.45 31.6,10.05 42.96,21.99 12.52,12.08 20.05,28.24 25.52,44.5 3.17,12.07 7.63,24.16 7.07,36.83 -0.16,11.17 -0.02,22.35 0.35,33.52 10.86,4.71 21.42,10.37 32.93,13.38 1.68,0.56 3.37,-0.07 5.01,-0.47 -3.64,-11.01 -7.56,-21.93 -11.93,-32.67 -1.75,-5.07 -2.06,-10.48 -3.36,-15.66 -3.98,-15.73 -9,-31.28 -16.19,-45.86 -3.19,-6.96 -6.16,-14.08 -10.52,-20.43 -5.63,-8.19 -12.08,-15.93 -19.98,-22.03 -3.23,-2.43 -6.04,-5.67 -9.94,-7.02 -5.37,-4.37 -11.73,-7.25 -18,-10.05 -20.91,-9.03 -43.68,-12.88 -66.31,-13.98 -9.66,-0.32 -19.27,1.03 -28.88,1.82 m 79.55,140.17 c 2.53,4.14 5.45,8.08 9.07,11.34 5,-2.36 10.1,-4.62 15.52,-5.86 4.17,-0.95 8.38,-1.76 12.42,-3.2 -6.26,-2.4 -13.03,-2.65 -19.65,-2.94 -5.79,-0.16 -11.64,-0.47 -17.36,0.66 m 32.82,9.7 c -6.08,3.81 -14.08,5.37 -17.83,12.13 -0.67,3.51 -0.06,7.1 0.13,10.63 3.59,-2.09 6.11,-5.5 9.26,-8.14 4.02,-3.31 7.88,-6.82 12.14,-9.83 1.89,-1.56 4.55,-2.78 4.79,-5.52 -2.8,0.14 -6,-0.92 -8.49,0.73 m -121.71,7.29 c 2.35,0.88 4.74,1.65 7.16,2.34 0.44,-1.89 1.32,-3.83 0.79,-5.8 -3.03,-1.13 -5.71,1.78 -7.95,3.46 m 19.09,10.93 c 1.57,1.29 4.85,1.63 4.81,4.09 -2.36,2.31 -5.45,3.9 -7.3,6.71 -1.37,1.59 -0.88,3.8 -1.03,5.73 7.44,1.58 14.9,3.44 22.55,3.49 -2.18,-2.83 -4.68,-5.47 -6.36,-8.66 0.08,-3.28 4.07,-4.78 4.98,-7.87 -0.78,-2.25 -2.89,-4.52 -5.43,-4.54 -4.08,-0.08 -8.37,-0.63 -12.22,1.05 m -11.71,5.15 c 0.14,0.78 0.28,1.57 0.43,2.36 1.09,0.42 2.17,0.85 3.26,1.28 1.05,-1.92 2.25,-3.74 3.67,-5.41 -2.45,0.61 -4.89,1.24 -7.36,1.77 m -0.29,20.25 c 2.45,-2.15 5.38,-4.5 5.69,-8 -1.22,-4.07 -4.71,-6.8 -7.99,-9.19 -0.11,-1.4 -0.25,-2.79 -0.4,-4.18 -4.16,6.7 -0.81,15.1 2.7,21.37 m 8.07,-3.49 c 0.82,1.9 2.07,3.64 4.4,3.3 0.21,-1.23 0.42,-2.46 0.62,-3.69 -1.68,0.08 -3.35,0.21 -5.02,0.39 m 6.97,-0.1 c 0.59,1.13 0.77,2.7 2.09,3.27 1.62,-0.21 1.49,-2.09 2.02,-3.25 -1.37,-0.03 -2.74,-0.03 -4.11,-0.02 m 7.44,0.8 c 0.29,4.18 1.02,8.3 1.55,12.45 2.84,-3.54 4.92,-7.68 5.9,-12.12 -2.48,-0.17 -4.97,-0.26 -7.45,-0.33 m -20.35,4.19 c 0.98,4.6 4.36,8.24 7.5,11.56 -0.05,-5.06 -1.61,-9.95 -2.47,-14.91 -1.72,1.05 -3.39,2.18 -5.03,3.35 m 18.99,23.33 c 2.23,-1.63 5.55,-2.76 6.18,-5.79 0.84,-3.09 1.75,-6.17 2.5,-9.29 -4.57,3.78 -9.43,8.58 -8.68,15.08 m 8.47,-4.34 c -0.09,3.42 0.18,6.84 0.43,10.25 -1.94,-0.48 -3.81,-0.52 -5.12,1.19 -0.98,-0.64 -1.97,-1.29 -2.96,-1.92 -0.45,1.43 -0.93,2.84 -1.45,4.25 -3.66,-3.06 -6.82,-6.65 -10.39,-9.8 0.17,4.54 2.35,8.6 4.9,12.25 6.26,-0.13 12.57,-0.08 18.73,-1.35 1.58,-0.47 4,-1.8 2.91,-3.78 -2.13,-3.82 -4.52,-7.52 -7.05,-11.09 m -133.2,68.54 c -0.75,5.08 3.79,8.51 7.15,11.51 0,-2.17 -0.1,-4.34 -0.05,-6.5 -0.1,-2.7 1.85,-5.06 1.31,-7.8 0.07,-1.72 -1.48,-2.73 -2.42,-3.93 -0.86,0.04 -2.59,0.11 -3.45,0.14 -1.49,1.9 -2.85,4.04 -2.54,6.58 m -16.91,16.43 c -2.16,0.94 -2.13,3.47 -2.67,5.43 1.77,-1.38 3.31,-3.17 5.44,-4 4.65,0.44 7.19,5.12 11.15,7.06 2.98,0.54 7.59,-1.1 6.85,-4.85 -0.28,-3.58 -1.83,-8.79 -6.15,-8.95 -5.18,0.56 -10.12,2.74 -14.62,5.31 m 0.96,12.37 c 1.95,5.5 8.22,8.83 13.89,7.82 -2.59,-2.64 -5.11,-5.41 -6.53,-8.87 0.89,-0.08 2.68,-0.24 3.58,-0.32 -2.06,-3.67 -5.71,-5.87 -9.56,-7.27 -1.62,2.53 -3.2,5.75 -1.38,8.64 m 15.1,3.06 c 4.14,5.04 11.24,4.34 16.87,2.8 -3.42,-3.18 -8.34,-3.45 -12.73,-4.15 -1.56,-0.39 -2.83,0.73 -4.14,1.35 M 13.34,332 c -0.97,4.2 -1.86,8.67 -0.17,12.83 2.51,-3.2 6.18,-4.93 9.97,-6.12 -2.97,-2.64 -6.24,-4.94 -9.8,-6.71 m 26.99,4.35 c -3.29,2.43 -7.6,0.53 -11.06,2.45 3.07,3.06 7.71,2.65 11.65,2.16 2.92,-0.4 4.52,-3.2 6.32,-5.2 -2.34,-0.63 -4.84,-0.96 -6.91,0.59 m 185.07,3.08 c -5.75,4.23 -7.82,11.75 -8.07,18.57 2.55,-2.71 5.53,-4.93 8.45,-7.22 3.08,-3.39 4.92,-7.97 4.91,-12.57 -1.79,0.21 -3.86,-0.11 -5.29,1.22 m -209.25,5.64 c 1.56,0.98 3.01,2.53 4.98,2.47 5.14,0.13 10.41,-1.14 14.65,-4.13 -3.31,-0.33 -6.64,-0.28 -9.96,-0.15 -0.6,-0.99 -1.21,-1.98 -1.81,-2.96 -2.95,0.97 -6.4,1.65 -7.86,4.77 m 21.99,-1.93 c -2.44,3.25 -5.13,6.4 -6.93,10.07 0.77,4 5.08,6.16 8.3,8.17 -0.42,-1.97 -1.28,-3.92 -1.11,-5.96 1.34,-2.89 4.06,-4.8 6.34,-6.91 -2.07,-1.95 -4.26,-3.76 -6.6,-5.37 m 6.22,13.19 c 1.32,-1.75 2.68,-3.62 2.32,-5.96 -2.17,1.18 -4.93,2.13 -5.77,4.73 -0.93,1.59 0.49,3.3 0.82,4.86 6.38,-1.27 11.75,-5.98 13.99,-12.05 -4.1,2.34 -7.79,5.34 -11.36,8.42 m 243.79,-0.27 c -3.62,5.57 -0.42,12.22 -0.66,18.29 4.45,-4.27 8.63,-9.87 8.35,-16.35 -0.22,-2.15 0.58,-4.99 -1.42,-6.49 -3.19,-1.16 -4.94,2.3 -6.27,4.55 m -40.85,-4.04 c -6.51,4.83 -6.05,13.75 -8.09,20.82 6.76,-3.28 12.79,-9.93 12.4,-17.86 -0.06,-1.97 -2.27,-4.97 -4.31,-2.96 m 19.45,8.94 c 1.28,5.74 -0.36,11.67 -2.72,16.9 7.43,-5.06 13.41,-14.09 11.45,-23.4 -0.91,-1.37 -2.27,-2.35 -3.46,-3.43 -3.19,2.16 -5.8,5.96 -5.27,9.93 z"
       id="path3165" />
    <path
       style="fill:#010101"
       inkscape:connector-curvature="0"
       d="m 165.4,157.96 c 5.94,-1.91 11.38,-5.26 17.63,-6.17 -2.97,2.7 -6.11,5.21 -9.17,7.82 6.9,0.34 14.05,0.31 20.42,3.39 -4.25,2.04 -8.47,4.17 -12.29,6.96 -2.1,1.34 -4.21,2.68 -6.21,4.17 -6.84,-1.16 -12.23,-5.68 -17.76,-9.5 1.96,-2.69 4.03,-5.65 7.38,-6.67 m 9.9,5.49 c 0.08,1.96 0.18,3.93 0.31,5.9 2.73,-0.66 3.61,-3.19 3.29,-5.75 -1.2,-0.05 -2.4,-0.1 -3.6,-0.15 m -8.53,1.36 c 0.93,2.92 3.79,4.26 6.32,5.54 -0.48,-2.14 -1.3,-4.17 -2.27,-6.13 -1.35,0.18 -2.7,0.37 -4.05,0.59 z"
       id="path3167" />
    <path
       style="fill:#010101"
       inkscape:connector-curvature="0"
       d="m 241.64,204.67 c 1.64,-3.01 3.39,-5.97 5.44,-8.72 -0.8,4.73 -2.65,9.16 -4.62,13.49 -2.58,5.75 -4.55,12.26 -9.83,16.19 -3.54,2.51 -7.54,5.35 -12.11,4.94 8.35,-7.46 15.66,-16.11 21.12,-25.9 z"
       id="path3169" />
    <path
       style="fill:#010101"
       inkscape:connector-curvature="0"
       d="m 323.56,231.22 c 2.4,0.16 4.71,0.84 6.9,1.83 -0.71,1.91 -1.44,3.82 -2.12,5.74 -1.76,-2.41 -3.36,-4.94 -4.78,-7.57 z"
       id="path3171" />
    <path
       style="fill:#010101"
       inkscape:connector-curvature="0"
       d="m 293.32,250.35 c 2.69,-4.44 4.15,-9.6 7.61,-13.56 -0.14,1.54 -0.25,3.1 -0.56,4.62 -4.67,17.02 -13.28,32.84 -24.68,46.28 -4.29,4.69 -6.28,11 -10.78,15.51 -0.01,-6.6 4.35,-11.94 6.28,-18.01 4.53,-13.27 15.19,-22.95 22.13,-34.84 z"
       id="path3173" />
    <path
       style="fill:#010101"
       inkscape:connector-curvature="0"
       d="m 397.18,260.34 c 0.57,-1.45 1.09,-2.92 1.59,-4.39 3.65,3.52 6.43,7.81 9.49,11.84 7.61,10.33 14.82,21 20.73,32.41 1.11,2.07 2.4,4.59 5.05,4.83 4.22,0.71 8.46,2.24 11.45,5.46 6.06,6.41 8.56,15.13 11.9,23.09 1.38,3.46 5.18,4.81 7.59,7.42 7.02,6.32 12.07,14.5 15.94,23.05 1.22,3 4.75,3.93 6.54,6.48 1.98,5.19 2.64,10.85 2.03,16.37 -1,1.19 -2.36,1.98 -3.46,3.05 -1.3,2.51 -2.24,5.77 -5.3,6.64 -2.14,1.13 -4.5,0.15 -6.75,0.11 -1.8,0.36 -3.28,1.56 -5.05,1.98 -3.51,-0.29 -6.32,-2.61 -9.2,-4.38 -1.9,-1.24 -4.18,-1.74 -5.97,-3.13 -2.14,-2.3 -2.41,-5.56 -3.61,-8.33 -1.75,-2.26 -3.9,-4.22 -5.31,-6.73 -3.74,-6.57 -5.16,-14.22 -9.27,-20.61 -4.66,-7.7 -10.26,-15.31 -18.24,-19.8 -4.72,-0.65 -9.55,0.54 -14.31,-0.06 -9.99,-1.59 -19.45,-5.61 -28.05,-10.85 0.52,-1.77 1.07,-3.54 1.66,-5.29 8.88,5.05 18.04,10.3 28.31,11.72 6.24,0.78 12.95,-0.47 18.11,-4.16 3.44,-2.39 2.1,-7.06 2.41,-10.6 0.95,0.38 1.9,0.78 2.88,1.12 3.54,6.67 4.14,14.26 5.53,21.56 1.05,5.81 4.11,10.94 6.97,16.01 3.48,6.12 5,13.18 9.03,19.01 5,7.36 10.29,15.12 18.4,19.33 0.11,-1.72 0.2,-3.43 0.28,-5.15 3.64,2.41 7.97,4.85 12.35,2.67 -0.28,-2.53 -0.58,-5.05 -0.8,-7.58 1.87,0.13 3.75,0.22 5.65,0.3 -0.22,-3.07 -0.13,-6.27 -1.32,-9.17 -1.84,-3.02 -5.47,-4.51 -7.08,-7.71 -2.44,-4.6 -4.34,-9.53 -7.56,-13.67 -0.8,-1.09 -2.25,-1.27 -3.38,-1.85 -5.59,-2.08 -8.24,-7.94 -10.8,-12.89 -4.24,-7.81 -5.53,-17.45 -12.4,-23.64 -2.97,-2.96 -7.12,-4.11 -11.16,-4.62 -2.74,-0.23 -4.85,-2.1 -6.71,-3.93 -8.29,-15.91 -16.61,-32.06 -28.16,-45.91 z"
       id="path3175" />
    <path
       style="fill:#010101"
       inkscape:connector-curvature="0"
       d="m 392.47,273.27 c 0.62,-1.9 1.21,-3.82 1.88,-5.71 5.62,5.66 10.64,12.01 13.86,19.36 2.34,4.94 5.26,10.05 4.51,15.74 -8.17,-8.75 -13.44,-19.64 -20.25,-29.39 z"
       id="path3177" />
    <path
       style="fill:#010101"
       inkscape:connector-curvature="0"
       d="m 138.07,326.27 c 18.35,0.89 36.78,-0.92 54.72,-4.86 -0.46,1.58 -0.95,3.15 -1.45,4.73 -7.77,4.26 -16.87,3.08 -25.35,4.07 -14.95,0.46 -29.86,-1.47 -44.49,-4.51 5.52,-0.71 11.08,-0.13 16.57,0.57 z"
       id="path3179" />
  </g>
  <g
     id="#c39e6eff"
     transform="matrix(0.15647982,0,0,0.15647982,-0.99490032,-0.5975316)">
    <path
       style="fill:#c39e6e"
       inkscape:connector-curvature="0"
       d="m 137.11,12.54 c 9.61,-0.79 19.22,-2.14 28.88,-1.82 22.63,1.1 45.4,4.95 66.31,13.98 6.27,2.8 12.63,5.68 18,10.05 -5.03,-1.25 -9.72,-3.44 -14.34,-5.74 -8.96,-4.37 -18.91,-5.82 -28.39,-8.61 -16.98,-5.29 -34.97,-5.47 -52.59,-5.31 -11.53,0.08 -23.02,2.18 -33.89,6.02 -6.54,2.1 -12.4,6.05 -16.68,11.44 -1.32,-0.61 -2.64,-1.2 -3.96,-1.8 0.09,-1.67 -0.12,-3.67 1.45,-4.77 9.46,-8.9 22.67,-11.99 35.21,-13.44 z"
       id="path3182" />
  </g>
  <path
     id="path3221"
     d="m 13.612491,9.6503318 c 6.540856,0 13.080148,0.00313 19.621005,-0.00156 0.01252,3.246956 0.01095,6.493913 0.0016,9.739304 -1.555409,0.01095 -3.112383,-0.01252 -4.669358,0.01252 0.173693,0.591494 0.380246,1.173599 0.604013,1.74788 -0.489782,-0.07198 -0.977999,-0.147091 -1.467781,-0.214377 -0.272275,-0.918537 -0.636873,-1.807342 -0.891935,-2.732138 1.746315,-0.02191 3.491065,-0.0078 5.235815,-0.09389 0.02973,-2.387882 0.01878,-4.777329 0.0063,-7.165211 -5.730291,-0.02034 -11.460582,-0.02191 -17.189308,0 -0.09389,2.389447 -0.09858,4.782023 0.0047,7.17147 0.711983,0 1.422402,0.04538 2.13282,0.07355 1.028072,-0.03599 2.062404,-0.128314 3.087347,0.0078 0.533596,1.646167 1.240885,3.240697 1.628955,4.930679 -0.291053,0.291052 -0.568022,0.599318 -0.876287,0.873157 -0.683817,-1.483428 -1.075017,-3.079523 -1.696241,-4.589553 -1.844898,-0.04694 -3.691359,-0.0031 -5.537821,-0.02191 0,-3.245391 -0.01095,-6.492348 0.0063,-9.7377392 z"
     inkscape:connector-curvature="0"
     style="fill:#feb30f;stroke:#feb30f;stroke-opacity:1;stroke-width:0.08;stroke-miterlimit:4;stroke-dasharray:none" />
  <path
     id="path3223"
     d="m 53.017239,9.6425078 c 6.542421,0.00782 13.084843,-0.00313 19.625699,0.00469 0.01252,3.2485208 0.0063,6.4954778 0.0047,9.7424338 -1.887147,0.0532 -3.777423,-0.05477 -5.663005,0.05946 -4.273464,12.443275 -8.496854,24.903763 -12.767189,37.348604 -0.688511,2.115607 -1.472475,4.201483 -2.121866,6.331173 1.488123,0.03599 2.979376,0.0031 4.469064,0.01721 0.0094,3.168716 -0.0047,6.335868 0.0078,9.504584 -1.140738,0.08606 -2.284606,0.01565 -3.425344,-0.02034 -6.572152,0.0016 -13.144304,0.0031 -19.716457,0 -1.175163,0.02817 -2.355021,0.129878 -3.527055,-0.0094 0.0094,-3.154633 0,-6.310831 0.0047,-9.465464 1.475605,-0.03286 2.949645,0.01095 4.423685,-0.0266 -0.201859,-0.721372 -0.444403,-1.43179 -0.70103,-2.134385 -1.020248,-2.880793 -1.97321,-5.783494 -3.031014,-8.650204 0.253497,-0.513254 0.539856,-1.01086 0.829343,-1.506901 0.425625,1.115701 0.827778,2.240791 1.201765,3.37527 -0.05946,0.766751 -0.09858,1.574187 0.311395,2.262698 0.08606,-0.06729 0.259757,-0.203424 0.34582,-0.27071 0.762057,2.029543 1.423967,4.095077 2.159422,6.134009 0.248803,0.686946 0.488217,1.378587 0.679122,2.084311 -1.638343,0.01721 -3.276687,-0.0266 -4.915031,0.02347 -0.01252,2.32529 -0.01408,4.652145 0.0016,6.977435 4.702219,0.03912 9.406002,0.0063 14.109785,0.01721 3.333021,-0.01408 6.667606,0.0266 10.000626,-0.02034 0.07042,-2.322161 0.02504,-4.647451 0.02504,-6.969611 -1.675898,-0.06416 -3.354927,0.0016 -5.030826,-0.03599 0.694771,-2.309642 1.533502,-4.57547 2.298689,-6.86164 4.476887,-13.122398 8.967858,-26.240101 13.438487,-39.365628 1.758833,-0.161174 3.52862,0.04694 5.292147,-0.07042 0.03755,-2.391012 0.03286,-4.783588 0.0047,-7.1746 -5.711514,-0.01878 -11.424592,-0.0266 -17.136105,0.0031 -0.0094,2.389447 -0.03912,4.778893 0.01565,7.166775 1.682158,0.103277 3.367445,-0.02817 5.051168,0.03912 -1.154821,3.584953 -2.431696,7.132351 -3.635026,10.701655 -3.52549,10.288548 -7.050981,20.575532 -10.574906,30.86408 -0.647827,1.777611 -1.162645,3.605295 -1.887147,5.353175 -0.860639,-2.090571 -1.475605,-4.275029 -2.297124,-6.381247 0.336432,-0.266016 0.649392,-0.555504 0.973305,-0.835603 0.611836,1.040591 0.774575,2.270523 1.344161,3.331456 0.375552,-0.965481 0.66504,-1.962257 1.024943,-2.932432 0.449097,-0.552374 0.996777,-1.054674 1.231496,-1.746315 0.364598,-0.879416 0.197165,-1.843332 0.267581,-2.763434 0.553938,-1.391105 1.00773,-2.819766 1.492817,-4.235908 3.074829,-8.964729 6.143398,-17.931023 9.221356,-26.894187 0.356774,-1.060933 0.751103,-2.112477 1.039026,-3.196883 -1.492817,-0.03599 -2.9872,-0.0031 -4.478452,-0.01721 -0.01878,-2.336244 -0.0016,-4.672488 -0.0094,-7.008732 -0.04068,-0.915406 -0.08293,-1.835508 0.02191,-2.7477852 z"
     inkscape:connector-curvature="0"
     style="fill:#feb30f;stroke:#feb30f;stroke-opacity:1;stroke-width:0.08;stroke-miterlimit:4;stroke-dasharray:none" />
  <g
     id="#efdcbbff"
     transform="matrix(0.15647982,0,0,0.15647982,-0.99490032,-0.5975316)">
    <path
       style="fill:#efdcbb"
       inkscape:connector-curvature="0"
       d="m 181.99,169.96 c 2.66,-1.27 5.31,-2.6 8.16,-3.39 2.62,-0.67 5.13,0.78 7.36,1.98 7.2,4.17 12.95,10.35 18.3,16.62 4.28,5.38 8.61,10.86 11.29,17.25 -3.88,-2.93 -6.84,-7.13 -11.43,-9.04 -5.65,-2.39 -11.85,-2.93 -17.92,-2.99 5.05,1.55 10.53,2.62 14.6,6.25 4.02,3.27 6.24,8.98 4.73,14.03 -2.15,2.29 -4.9,3.89 -7.43,5.72 0.37,-3.29 1.04,-7 -1.12,-9.86 -5.49,-7.92 -16.03,-13.86 -25.65,-10.05 -1.52,-0.83 -3.02,-1.67 -4.46,-2.6 7.28,-1.11 14.34,1.91 21.61,1.33 -5.69,-3.04 -12.24,-3.5 -18.31,-5.42 8.42,-2.47 17.07,-3.97 25.5,-6.4 -8.28,-0.42 -16.36,2.01 -24.6,1.96 7.5,-3.73 15.91,-5.11 23.43,-8.8 -10.32,0.26 -19.95,4.33 -30,6.2 6.68,-5.43 14.78,-8.52 22.08,-12.94 -6.33,1 -12.13,3.78 -17.92,6.38 -2.75,1.1 -5.54,2.75 -8.62,2.27 1.23,-1.6 2.6,-3.09 4.19,-4.33 2,-1.49 4.11,-2.83 6.21,-4.17 z"
       id="path3226" />
    <path
       style="fill:#efdcbb"
       inkscape:connector-curvature="0"
       d="m 275.6,172.17 c 2.96,-0.68 6.1,-1.21 9.07,-0.29 6.87,1.96 12.93,5.93 18.63,10.13 -7.35,-2.26 -14.15,-6.34 -21.95,-6.97 2.22,3.71 3.84,7.72 4.86,11.92 -7.41,-2.01 -14.36,-6.12 -22.19,-6.28 -7.53,0.53 -13.67,5.48 -20.62,7.89 2.69,-3.55 6.8,-5.43 10.58,-7.56 6.82,-3.77 13.94,-7.24 21.62,-8.84 z"
       id="path3228" />
    <path
       style="fill:#efdcbb"
       inkscape:connector-curvature="0"
       d="m 313.11,182.95 c 10.77,1.85 21.12,5.67 30.74,10.83 -0.38,1.09 -0.77,2.19 -1.15,3.28 -8.29,-4.5 -16.64,-9.61 -26.27,-10.41 -1.09,-1.25 -2.21,-2.47 -3.32,-3.7 z"
       id="path3230" />
    <path
       style="fill:#efdcbb"
       inkscape:connector-curvature="0"
       d="m 135.15,185.78 c 2.47,-0.53 4.91,-1.16 7.36,-1.77 -1.42,1.67 -2.62,3.49 -3.67,5.41 -1.09,-0.43 -2.17,-0.86 -3.26,-1.28 -0.15,-0.79 -0.29,-1.58 -0.43,-2.36 z"
       id="path3232" />
    <path
       style="fill:#efdcbb"
       inkscape:connector-curvature="0"
       d="m 291.27,297.23 c 5.61,-7.18 11.91,-14.12 20.28,-18.11 -2.63,6.24 -7.71,10.82 -11.52,16.28 4.87,-3.12 8.97,-7.26 12.93,-11.44 -1.59,4.52 -2.96,9.18 -5.36,13.37 -4.78,3.23 -8.81,7.39 -13.23,11.06 -4.63,3.85 -8.41,8.83 -10.37,14.56 -1.13,2.7 0.29,5.51 0.6,8.23 0.73,3.27 0.51,6.89 2.31,9.85 1.8,2.44 4.35,4.17 6.49,6.29 -1.15,1 -2.31,2 -3.43,3.04 -1.94,-2.45 -4.29,-4.64 -5.71,-7.45 -1.08,-2.85 -0.8,-5.97 -1.26,-8.94 -0.51,-6.74 -4.84,-12.86 -3.63,-19.79 1.25,-7.19 7.78,-11.45 11.9,-16.95 z"
       id="path3234" />
    <path
       style="fill:#efdcbb"
       inkscape:connector-curvature="0"
       d="m 186.2,292.63 c 4.83,3.86 9,8.44 13.3,12.87 2.91,2.98 4.91,6.69 6.71,10.42 -1.45,2.95 -2.77,5.97 -4.49,8.77 -3.5,0 -7.03,0.36 -10.38,1.45 0.5,-1.58 0.99,-3.15 1.45,-4.73 -17.94,3.94 -36.37,5.75 -54.72,4.86 -5.49,-0.7 -11.05,-1.28 -16.57,-0.57 -6.45,-0.93 -12.87,-2.21 -19,-4.47 1.32,-0.63 2.62,-1.32 3.89,-2.04 -10.99,1.41 -22,4.04 -33.14,3.22 5.18,-2.82 11.4,-3.06 16.28,-6.49 -4.04,-0.41 -8.11,-0.38 -12.17,-0.56 11.3,-2.22 21.84,-8.58 33.65,-7.6 8.14,0.53 16.07,-1.52 23.99,-3.04 10.49,-1.12 20.19,4.09 28.95,9.23 -2.13,-5.91 -6.63,-10.36 -11.67,-13.89 4.75,-1.06 9.67,-2 14.53,-1.02 9.56,1.69 18.61,5.6 28.3,6.65 -3.32,-4.1 -6.45,-8.38 -8.91,-13.06 z"
       id="path3236" />
    <path
       style="fill:#efdcbb"
       inkscape:connector-curvature="0"
       d="m 411.62,324.77 c 7.5,-3.44 9.8,-11.98 13.72,-18.52 1.86,1.83 3.97,3.7 6.71,3.93 4.04,0.51 8.19,1.66 11.16,4.62 6.87,6.19 8.16,15.83 12.4,23.64 2.56,4.95 5.21,10.81 10.8,12.89 1.13,0.58 2.58,0.76 3.38,1.85 3.22,4.14 5.12,9.07 7.56,13.67 1.61,3.2 5.24,4.69 7.08,7.71 1.19,2.9 1.1,6.1 1.32,9.17 -1.9,-0.08 -3.78,-0.17 -5.65,-0.3 -3.93,-4.56 -9.25,-7.84 -12.45,-13.03 -3.3,-5.3 -6.81,-10.46 -10.75,-15.3 -6.86,-8.69 -7.77,-20.31 -13.39,-29.63 -3.89,-4.33 -9.58,-6.69 -15.17,-7.89 -0.98,-0.34 -1.93,-0.74 -2.88,-1.12 -0.31,3.54 1.03,8.21 -2.41,10.6 -5.16,3.69 -11.87,4.94 -18.11,4.16 -10.27,-1.42 -19.43,-6.67 -28.31,-11.72 0.99,-2.97 2.04,-5.93 3.09,-8.88 5.13,3.84 10.27,7.72 15.95,10.73 4.82,2.46 10.47,5.14 15.95,3.42 z"
       id="path3238" />
    <path
       style="fill:#efdcbb"
       inkscape:connector-curvature="0"
       d="m 272.79,341 c 0.22,-2.59 2.26,-4.4 3.79,-6.3 0.44,0.49 1.32,1.48 1.76,1.97 -2.94,4.22 -3.96,9.58 -1.76,14.38 -1.44,-0.83 -2.87,-1.66 -4.3,-2.49 0.19,-2.52 0.2,-5.06 0.51,-7.56 z"
       id="path3240" />
    <path
       style="fill:#efdcbb"
       inkscape:connector-curvature="0"
       d="m 254.39,352.05 c 2.91,-3.99 4.41,-9.01 8.27,-12.25 0.17,6.32 -3.76,11.7 -8.16,15.83 -0.03,-0.9 -0.08,-2.69 -0.11,-3.58 z"
       id="path3242" />
  </g>
  <g
     id="#ef6f19ff"
     transform="matrix(0.15647982,0,0,0.15647982,-0.99490032,-0.5975316)">
    <path
       style="fill:#ef6f19"
       inkscape:connector-curvature="0"
       d="m 155.98,230.76 c -0.75,-6.5 4.11,-11.3 8.68,-15.08 -0.75,3.12 -1.66,6.2 -2.5,9.29 -0.63,3.03 -3.95,4.16 -6.18,5.79 z"
       id="path3245" />
  </g>
</svg>
