<?xml version="1.0" encoding="UTF-8" standalone="no"?>
<!-- Created with Inkscape (http://www.inkscape.org/) -->

<svg
   xmlns:dc="http://purl.org/dc/elements/1.1/"
   xmlns:cc="http://creativecommons.org/ns#"
   xmlns:rdf="http://www.w3.org/1999/02/22-rdf-syntax-ns#"
   xmlns:svg="http://www.w3.org/2000/svg"
   xmlns="http://www.w3.org/2000/svg"
   version="1.1"
   width="293.24469"
   height="200"
   id="svg29427">
  <defs
     id="defs29429" />
  <metadata
     id="metadata29432">
    <rdf:RDF>
      <cc:Work
         rdf:about="">
        <dc:format>image/svg+xml</dc:format>
        <dc:type
           rdf:resource="http://purl.org/dc/dcmitype/StillImage" />
        <dc:title></dc:title>
      </cc:Work>
    </rdf:RDF>
  </metadata>
  <g
     transform="translate(-602.39131,-546.07002)"
     id="layer1">
    <path
       d="m 779.69928,551.48706 c 0,0 9.38452,7.21961 4.69361,16.60277 -4.69361,9.3818 -35.37992,64.95872 -35.37992,64.95872 0,0 -30.68631,-55.57692 -35.37991,-64.95872 -4.69092,-9.38316 4.6936,-16.60277 4.6936,-16.60277 0,0 -38.61716,0 -38.61716,0 0,0 7.93899,6.13645 12.99228,14.43512 5.05195,8.30138 56.31119,109.35131 56.31119,109.35131 0,0 51.25788,-101.04993 56.3112,-109.35131 5.05329,-8.29867 12.99363,-14.43512 12.99363,-14.43512 0,0 -38.61852,0 -38.61852,0 z"
       id="path1810"
       style="fill:#ffffff;fill-opacity:1;fill-rule:evenodd;stroke:none" />
    <path
       d="m 845.77903,726.18656 c -0.8127,2.2731 -1.16835,4.64087 -4.70986,6.76795 -5.41436,3.24806 -13.64272,1.35223 -17.16124,-0.27057 -3.5185,-1.62402 -7.36157,-5.19799 -7.90381,-9.41966 0,0 29.77491,2.92217 29.77491,2.92217 z m -171.65969,6.49749 c -3.51852,1.62269 -11.74823,3.51852 -17.16124,0.27057 -3.54284,-2.12708 -3.89848,-4.49485 -4.71118,-6.76795 0,0 29.77491,-2.92217 29.77491,-2.92217 -0.54225,4.22167 -4.38532,7.79564 -7.90249,9.41966 z m 182.59387,-73.73204 c -15.37358,9.63739 -30.8026,18.35255 -47.3134,25.33415 -1.2995,0.59633 -16.72853,6.28248 -23.16925,8.44606 -15.53719,5.35892 -24.71076,6.71386 -37.21759,9.74287 -12.5055,-3.02901 -21.6804,-4.38395 -37.21626,-9.74287 -6.44341,-2.16358 -21.87107,-7.84973 -23.17058,-8.44606 -16.50944,-6.9816 -31.93846,-15.69676 -47.31339,-25.33415 -13.26273,-8.76656 -38.92143,-29.28675 -38.92143,-29.28675 0.81135,2.92491 2.97764,5.2521 4.65442,7.74291 5.79296,7.52521 15.64536,15.85905 23.06101,21.86974 7.74156,6.38796 38.16553,23.87236 52.78187,30.58351 14.7245,7.03841 46.66298,16.67444 46.93341,16.8367 -0.37727,0.48952 -20.13749,4.38396 -29.34081,5.74026 -2.8681,0.48545 -5.89983,0.64771 -8.65974,0.81135 -0.7045,-1.78631 -1.84175,-4.27579 -4.00668,-4.27579 -2.16491,0 -2.81671,4.22167 -2.70715,5.46709 0,0 -0.43272,0.32455 -0.43272,0.32455 -12.39733,1.67813 -25.22598,2.81399 -37.89374,3.51852 -2.43808,-1.94859 -3.65508,-2.63686 -7.03838,-2.21902 -3.44281,0.42596 -4.63411,2.93164 -4.43804,5.0871 0.27043,2.97897 2.75991,6.9843 5.19799,6.9843 3.24671,0 5.03302,-2.0581 5.84572,-0.27029 1.7863,5.19663 5.54959,10.35407 10.55555,13.74817 8.09044,5.48874 16.18628,5.57797 24.30646,2.05812 8.12018,-3.51988 10.55555,-11.64007 11.09646,-15.69677 0.21499,-1.61186 0.32588,-5.74026 0.32588,-5.74026 11.52918,-1.46176 56.38015,-10.93417 56.38015,-10.93417 0,0 44.85098,9.47241 56.38016,10.93417 0,0 0.11077,4.1284 0.32723,5.74026 0.54088,4.0567 2.97628,12.17689 11.09646,15.69677 8.12018,3.51985 16.21467,3.43062 24.30644,-2.05812 5.00463,-3.3941 8.76927,-8.55154 10.55557,-13.74817 0.81135,-1.78767 2.59763,0.27029 5.84572,0.27029 2.43672,0 4.92753,-4.00533 5.19799,-6.9843 0.19607,-2.15546 -0.99659,-4.66114 -4.43804,-5.0871 -3.38466,-0.41784 -4.60166,0.27057 -7.03974,2.21902 -12.66776,-0.70453 -25.49641,-1.84039 -37.89374,-3.51852 0,0 -0.43271,-0.32455 -0.43271,-0.32455 0.10966,-1.24542 -0.54225,-5.46709 -2.70583,-5.46709 -2.16626,0 -3.30215,2.48948 -4.00668,4.27579 -2.75991,-0.16367 -5.79161,-0.3259 -8.66107,-0.81135 -9.20332,-1.3563 -28.96218,-5.25074 -29.34081,-5.74026 0.27057,-0.16228 32.21027,-9.79829 46.93341,-16.8367 14.61632,-6.71115 45.04029,-24.19555 52.78184,-30.58351 7.41568,-6.01069 17.26809,-14.34453 23.06105,-21.86974 1.67813,-2.49081 3.84442,-4.818 4.65577,-7.74291 0,0 -25.66006,20.52019 -38.92278,29.28675 z"
       id="path1812"
       style="fill:#F36F21;fill-opacity:1;fill-rule:nonzero;stroke:none" />
    <path
       d="m 718.32666,551.48706 c 0,0 -9.38452,7.21961 -4.6936,16.60277 4.6936,9.3818 35.37991,64.95872 35.37991,64.95872 0,0 30.68631,-55.57692 35.37992,-64.95872 4.69091,-9.38316 -4.69361,-16.60277 -4.69361,-16.60277 0,0 38.61852,0 38.61852,0 0,0 -7.94034,6.13645 -12.99363,14.43512 -5.05332,8.30138 -56.3112,109.35131 -56.3112,109.35131 0,0 -51.25924,-101.04993 -56.31119,-109.35131 -5.05329,-8.29867 -12.99228,-14.43512 -12.99228,-14.43512 0,0 38.61716,0 38.61716,0 z m -52.28829,-3.16828 c 0,0 3.91743,3.04252 3.91743,3.04252 2.34885,1.82824 6.19056,5.90657 8.53399,7.74427 0,0 2.98032,2.33395 7.42376,9.63332 3.91339,6.42449 62.211,117.8339 63.09942,117.8339 0.88842,0 59.18739,-111.40941 63.10078,-117.8339 4.44208,-7.29937 7.42105,-9.63332 7.42105,-9.63332 2.34614,-1.8377 6.18785,-5.91603 8.53531,-7.74427 0,0 3.91746,-3.04252 3.91746,-3.04252 2.35153,-1.82688 1.83903,-2.24876 -1.1386,-2.24876 0,0 -63.2752,0 -63.2752,0 -2.97763,0 -2.94246,0.94926 -0.5801,2.76262 0,0 2.94923,2.02023 5.11413,3.46577 2.16765,1.4442 7.01,5.3197 7.36971,7.48328 0.36105,2.16629 -0.42867,4.90321 -1.91206,7.87135 -3.47524,6.95051 -27.73033,51.21598 -28.55248,51.36201 -0.82082,-0.14594 -25.07588,-44.4115 -28.55112,-51.36201 -1.48342,-2.96814 -2.27311,-5.70506 -1.91342,-7.87135 0.36104,-2.16358 5.20342,-6.03908 7.36835,-7.48328 2.16762,-1.44554 5.11685,-3.46577 5.11685,-3.46577 2.36236,-1.81336 2.39751,-2.76262 -0.58146,-2.76262 0,0 -63.27519,0 -63.27519,0 -2.97764,0 -3.48878,0.42188 -1.13861,2.24876 z"
       id="path1814"
       style="fill:#F36F21;fill-opacity:1;fill-rule:nonzero;stroke:none" />
    <path
       d="m 865.37021,744.45663 c -3.16964,0 -5.73888,-2.56924 -5.73888,-5.74023 0,-3.16967 2.56924,-5.73891 5.73888,-5.73891 3.16966,0 5.74026,2.56924 5.74026,5.73891 0,3.17099 -2.5706,5.74023 -5.74026,5.74023 z m 0,-13.04503 c -4.03372,0 -7.30477,3.2697 -7.30477,7.3048 0,4.03371 3.27105,7.30476 7.30477,7.30476 4.03509,0 7.30479,-3.27105 7.30479,-7.30476 0,-4.0351 -3.2697,-7.3048 -7.30479,-7.3048 z"
       id="path1816"
       style="fill:#F36F21;fill-opacity:1;fill-rule:nonzero;stroke:none" />
    <path
       d="m 865.89218,737.93344 c 0,0 -1.95532,0 -1.95532,0 0,0 0,-1.82417 0,-1.82417 0,0 1.95532,0 1.95532,0 0.50303,0 0.91276,0.40973 0.91276,0.91141 0,0.50574 -0.40973,0.91276 -0.91276,0.91276 z m 2.47729,-0.91276 c 0,-1.36711 -1.10883,-2.47594 -2.47729,-2.47594 0,0 -3.52393,-0.001 -3.52393,-0.001 0,0 0,8.34736 0,8.34736 0,0 1.56861,0 1.56861,0 0,0 0,-3.39141 0,-3.39141 0,0 1.1237,0 1.1237,0 0,0 1.58212,3.39141 1.58212,3.39141 0,0 1.72815,0 1.72815,0 0,0 -1.64703,-3.53476 -1.64703,-3.53476 0.95876,-0.34345 1.64567,-1.25757 1.64567,-2.3353 z"
       id="path1818"
       style="fill:#F36F21;fill-opacity:1;fill-rule:nonzero;stroke:none" />
  </g>
</svg>
