<?xml version="1.0" encoding="UTF-8" standalone="no"?>
<!-- Created with Inkscape (http://www.inkscape.org/) -->
<svg
   xmlns:svg="http://www.w3.org/2000/svg"
   xmlns="http://www.w3.org/2000/svg"
   version="1.0"
   width="214.16901"
   height="149.71001"
   viewBox="0 0 214.169 149.71"
   id="svg2"
   xml:space="preserve"
   style="overflow:visible"><defs
     id="defs24" /><path
     d="M 126.894,30.92 C 127.905,27.623 129.087,23.779 129.087,23.779 C 130.069,20.682 130.598,20.334 131.265,19.895 L 131.741,19.578 C 132.293,19.193 134.391,18.264 136.004,17.637 L 137.988,16.868 L 138.115,0 L 134.961,0 L 0,0 L 0,19.456 C 0,19.456 5.62,19.456 6.994,19.456 C 7.339,19.995 7.921,21.048 8.762,23.24 C 8.764,23.244 8.805,23.348 8.842,23.443 C 8.92,23.708 36.924,119.867 36.924,119.867 L 53.896,119.867 C 53.896,119.867 63.889,87.368 67.95,74.16 C 71.816,87.387 81.283,119.765 81.283,119.765 L 83.627,119.761 L 98.49,119.761 C 98.49,119.761 118.003,58.639 119.853,52.846 C 120.225,53.541 120.482,54.695 120.482,56.713 C 120.482,56.713 120.482,128.054 120.482,129.93 C 116.703,129.93 105.165,129.934 105.165,129.934 L 105.013,149.71 L 175.708,149.71 L 175.708,129.93 C 175.708,129.93 162.135,129.93 159.217,129.93 C 159.208,127.432 159.148,105.379 159.133,100.23 C 163.189,101.385 170.335,106.77 171.028,114.458 L 171.728,122.211 L 189.175,122.211 C 189.175,122.211 189.175,62.843 189.175,61.974 C 195.237,67.849 195.932,73.284 196.255,76.145 C 196.255,76.152 197.169,84.141 197.169,84.141 L 214.171,84.114 L 214.171,30.92 C 214.169,30.92 134.574,30.92 126.894,30.92 L 126.894,30.92 z M 53.72,54.187 C 52.945,51.715 52.04,48.821 52.04,48.821 C 47.836,35.394 43.508,21.56 42.981,19.641 C 43.638,19.48 44.672,19.331 46.598,19.278 C 48.21,19.236 53.299,20.434 54.222,22.955 C 54.327,23.373 57.956,37.897 58.339,39.424 C 58.126,40.102 55.743,47.715 53.72,54.187 L 53.72,54.187 z M 105.308,24.216 C 105.322,24.161 100.809,40.296 97.639,51.631 C 94.397,39.882 89.305,21.426 89.305,21.426 C 89.305,21.426 89.269,21.309 89.254,21.261 C 89.251,21.252 89.178,20.451 89.178,20.451 L 89.157,20.155 C 89.156,20.122 89.156,20.089 89.156,20.054 C 89.156,19.438 89.55,18.931 89.933,18.846 C 90.331,18.783 92.137,18.7 93.544,18.674 C 93.544,18.674 93.805,18.67 93.868,18.668 C 94.693,18.742 99.972,19.211 99.972,19.211 C 101.671,19.39 105.505,20.982 105.905,22.008 C 105.878,22.101 105.308,24.216 105.308,24.216 L 105.308,24.216 z M 172.495,60.615 L 171.15,67.499 C 169.533,75.782 163.462,80.043 159.078,80.807 C 159.065,75.668 159.011,55.542 159.011,55.542 C 159.011,51.835 159.912,51.835 161.558,51.835 L 169.905,51.835 C 172.604,51.835 178.113,53.531 184.769,58.308 C 185.871,59.08 186.813,59.85 187.707,60.615 C 186.875,60.615 172.495,60.615 172.495,60.615 L 172.495,60.615 z"
     id="path15"
     style="fill:#ffffff" /><path
     d="M 122.657,34.052 L 126.094,22.861 C 127.582,18.172 128.709,17.878 129.946,17.014 C 131.178,16.148 134.874,14.717 134.874,14.717 L 134.962,3.132 L 95.824,3.132 L 95.824,15.697 C 95.824,15.697 98.578,15.916 100.3,16.095 C 102.019,16.277 109.947,18.492 108.96,22.691 C 108.802,23.358 108.606,23.923 108.345,24.973 C 108.252,25.306 100.76,51.161 97.251,63.711 C 93.68,50.768 86.29,22.274 86.29,22.274 L 86.26,22.174 C 86.103,21.686 86.082,21.028 86.036,20.373 C 85.881,18.193 87.307,16.221 89.257,15.79 C 90.075,15.61 93.485,15.543 93.485,15.543 L 93.485,3.132 L 3.13,3.132 L 3.13,16.325 L 8.154,16.325 C 8.727,16.325 9.944,17.587 11.685,22.117 C 11.685,22.117 11.746,22.276 11.808,22.435 C 11.939,22.888 39.271,116.735 39.271,116.735 L 51.583,116.735 C 51.583,116.735 62.193,82.358 68.025,63.26 C 73.57,82.361 83.626,116.632 83.626,116.632 L 96.2,116.632 L 117.885,48.705 L 117.936,48.705 C 119.487,48.705 123.611,48.705 123.611,56.713 L 123.611,130.894 C 123.611,131.951 123.493,132.634 123.379,133.062 C 121.203,133.062 108.271,133.064 108.271,133.064 L 108.167,146.584 L 172.578,146.584 L 172.578,133.063 L 157.305,133.063 C 156.565,133.063 156.291,132.945 156.229,132.916 C 156.168,132.788 156.09,132.49 156.09,132.147 C 156.09,132.137 156.021,107.887 155.993,96.854 C 156.615,96.854 157.696,96.854 157.696,96.854 C 162.925,96.854 173.227,104 174.144,114.179 L 174.586,119.081 L 186.041,119.081 L 186.041,63.748 L 175.071,63.748 L 174.222,68.1 C 172.067,79.134 163.262,84.098 157.695,84.098 C 157.695,84.098 156.601,84.098 155.957,84.098 C 155.936,76.489 155.878,55.55 155.878,55.55 C 155.878,50.758 157.579,48.705 161.557,48.705 L 169.904,48.705 C 173.219,48.705 179.345,50.56 186.595,55.766 C 198.007,63.757 198.96,72.193 199.365,75.795 L 199.961,81.006 L 211.037,80.988 L 211.037,34.052 L 122.657,34.052 L 122.657,34.052 z M 53.72,64.672 C 48.151,46.841 40.552,22.692 39.926,20.343 C 39.299,17.995 40.558,17.313 40.551,17.212 C 41.519,16.714 42.731,16.252 46.513,16.149 C 48.531,16.093 55.614,17.376 57.202,21.97 C 57.302,22.373 60.969,37.043 61.587,39.517 C 61.08,41.149 57.434,52.795 53.72,64.672 L 53.72,64.672 z"
     id="path17" /><path
     d="M 120.943,39.075 L 119.569,43.41 C 127.344,44.303 128.997,51.625 128.997,56.712 L 128.997,130.893 C 128.997,134.671 127.891,138.446 123.986,138.446 C 123.986,138.446 117.044,138.514 113.552,138.446 L 113.552,141.556 L 167.195,141.556 L 167.195,138.446 L 157.304,138.446 C 151.297,138.446 150.703,133.851 150.703,132.145 L 150.592,91.465 L 157.696,91.465 C 166.046,91.465 178.359,100.96 179.508,113.694 L 180.654,113.694 L 180.654,69.132 L 179.508,69.132 C 176.9,82.49 166.046,89.481 157.696,89.481 L 150.588,89.481 L 150.495,55.565 C 150.495,45.651 156.759,43.319 161.558,43.319 L 169.905,43.319 C 174.5,43.319 181.595,45.546 189.737,51.391 C 203.586,61.085 204.345,72.054 204.762,75.602 L 206.016,75.602 L 206.016,39.075 L 120.943,39.075 L 120.943,39.075 z"
     id="path19"
     style="fill:#9e7e38;fill-opacity:1;stroke:#9e7e38;stroke-opacity:1" /><path
     d="M 101.209,7.795 L 101.209,11.466 C 104.288,12.029 108.743,13.629 111.357,15.968 C 114.363,18.372 114.612,21.393 113.799,24.92 L 96.6,82.7 L 96.6,82.7 L 81.127,23.809 C 80.286,21.165 80.407,15.993 82.811,13.948 C 84.086,13.124 85.735,12.113 88.459,11.497 L 88.459,7.795 L 52.027,7.795 L 52.027,11.872 C 55.923,12.48 60.523,14.363 62.37,20.44 L 67.18,39.678 L 53.714,82.724 L 34.116,19.961 C 33.394,17.194 34.456,14.944 35.799,13.947 C 37.032,13.035 39.093,12.216 41.778,11.79 L 41.778,7.795 L 8.154,7.795 L 8.154,11.525 C 13.79,11.525 16.078,18.621 16.914,20.708 L 43.316,111.708 L 47.596,111.708 L 68.155,44.398 L 87.671,111.607 L 92.264,111.607 L 120.964,21.23 C 123.778,12.357 128.37,11.628 129.937,11.628 L 129.937,7.795 L 101.209,7.795 L 101.209,7.795 z"
     id="path21"
     style="fill:#9e7e38;fill-opacity:1;stroke:#9e7e38;stroke-opacity:1" /></svg>