<?xml version="1.0" encoding="UTF-8" standalone="no"?>
<!DOCTYPE svg PUBLIC "-//W3C//DTD SVG 1.1//EN" "http://www.w3.org/Graphics/SVG/1.1/DTD/svg11.dtd">
<svg height="161.52" width="167.22" xmlns="http://www.w3.org/2000/svg">
<g fill="#002855">
	<path d="m159.8 96.427h-14.364s-3.9462-0.6175-6.9888 4.2713l-32.058 50.191s-2.6562 5.3988-5.8212 0l-33.198-55.476 16.763-23.534 20.255 32.37 19.03-27.567s2.955-4.9362 8.985-4.9362h27.399v24.68zm-100.27-11.425-30.726-50.247c-2.135-3.5312-6.9312-3.1612-6.9312-3.1612h-14.809l0.055-24.026 31.114 0.0675c4.6712 0 7.5988 6.4888 7.5988 6.4888l16.638 27.786 19.466-29.118c2.7175-5.9638 5.1575 0 5.1575 0l17.97 29.118 18.635-27.786c4.2075-7.5775 7.375-6.4888 7.375-6.4888h28.73v23.959h-14.809c-5.3525-0.37-6.5438 3.1612-6.5438 3.1612l-31.169 50.246c-3.0725 4.705-5.6012 0-5.6012 0l-17.028-27.175-19.744 27.175c-3.4638 4.4688-5.3788 0-5.3788 0m70.392-20.556 12.994-22.446s1.3738-3.0475 5.125-2.68l19.108-0.05375v-38.93h-36.446c-2.2012 0.35875-6.4838-0.55-11.21 5.7262l-13.84 23.301-14.994-26.53s-5.4612-6.3738-11.825 0l-16.483 25.221-12.244-22.332s-2.99-5.4988-10.089-5.4988h-39.985l-0.03 38.941 18.266 0.02s4.1912-0.96625 6.2062 3.7075c0 0 72.479 115.56 72.402 115.56 3.9738 4.1925 9.6188 4.0262 12.741-0.12625l31.794-48.785s2.45-5.81 6.5212-5.8012h19.268l0.0188-39.33-37.299 0.0375z"/>
</g>
<g fill="#EAAA00">
	<path d="m123.42 76.683-19.03 27.567-20.255-32.37l-16.762 23.534 33.195 55.475c3.165 5.3988 5.8212 0 5.8212 0l32.058-50.191c3.0425-4.8888 6.9888-4.2713 6.9888-4.2713h14.364v-24.68h-27.399c-6.03 0-8.985 4.9362-8.985 4.9362"/>
	<path d="m131.07 7.6353s-3.1675-1.0888-7.375 6.4888l-18.635 27.786-17.97-29.118s-2.44-5.9638-5.1575 0l-19.473 29.118-16.637-27.786s-2.9275-6.4888-7.5988-6.4888l-31.114-0.0674-0.055 24.026h14.809s4.7962-0.37 6.9312 3.1612l30.726 50.246s1.915 4.4688 5.3788 0l19.744-27.175 17.028 27.175s2.5288 4.705 5.6012 0l31.169-50.246s1.1912-3.5312 6.5438-3.1612h14.809v-23.959h-28.73z"/>
</g>
</svg>