<?xml version="1.0" encoding="UTF-8" standalone="no"?>
<!DOCTYPE svg PUBLIC "-//W3C//DTD SVG 1.1//EN" "http://www.w3.org/Graphics/SVG/1.1/DTD/svg11.dtd">
<svg width="500" height="400" viewBox="-1.5 -1 503 401" xmlns="http://www.w3.org/2000/svg" xmlns:xlink="http://www.w3.org/1999/xlink">
<use xlink:href="#cal" style="fill:#FFC72C;stroke:#FFC72C;stroke-width:15.6;stroke-linecap:round;stroke-linejoin:round;"/>
<path id="cal" fill="#041E42" d="M7.998,390.846c0.885-2.912,3.187-7.373,5.478-10.311,4.416-5.66,11.623-11.795,21.419-18.234,15.107-9.93,29.234-16.214,47.236-21.008,26.114-6.956,53.793-7.539,77.686-7.539l1.276,0.002c31.8,0.029,99.796,4.037,149.443,6.965,26.056,1.533,46.635,2.748,53.804,2.893l1.282,0.032c2.098,0.053,5.607,0.145,9.815,0.145,30.295,0,40.64-4.743,45.313-7.425,5.084-2.917,10.417-7.083,10-10-0.607-4.247-11.249-3.917-15.235-4.563-15.851-2.566-29.515-8.854-39.334-15.792-11.251-7.948-18.337-21.995-18.337-21.995l-7.435,4.935c-27.222,18.073-49.721,26.49-70.806,26.492-1.085,0-2.181-0.023-3.257-0.07-12.145-0.527-21.513-5.483-24.159-9.878l-4.898-8.135-7.186,6.207c-9.643,8.33-23.121,10.836-28.469,11.527-2.359,0.307-4.75,0.46-7.107,0.46-12.293,0-23.472-4.134-31.479-11.641-1.181-1.106-5.535-6.216-6.318-7.354l-5.12-7.437-6.805,5.922c-2.393,2.114-9.849,6.75-11.351,7.561-15.509,8.374-32.661,12.801-49.598,12.801-15.263,0-29.876-3.748-42.261-10.842-29.4-16.842-33.854-49.724-32.415-74.344,1.97-33.61,14.218-67.184,36.403-99.786,19.13-28.111,45.524-54.984,76.331-77.715,22.436-16.556,56.765-37.481,92.88-43.154,6.354-0.998,13.106-1.972,19.666-1.972,7.415,0,12.97,1.24,16.979,3.795,10.816,6.886,11.123,20.402,10.343,27.847-2.87,27.346-28.147,60.377-55.235,60.379-5.007-0.004-9.479-1.953-12.002-5.208-1.982-2.559-2.531-5.633-1.631-9.136,2.293-8.932,10.71-11.861,24.301-15.622,1.093-0.302,2.176-0.602,3.242-0.906,21.662-6.165,25.146-19.647,24.256-29.87-0.604-6.943-5.488-14.363-17.388-14.363-11.178,0-24.58,6.539-26.071,7.284-29.603,14.801-49.451,39.251-68.834,65.125-39.934,53.31-58.689,104.378-55.748,151.791,1.293,20.832,15.69,43.314,36.696,43.314,7.118,0,14.187-2.574,21.011-7.654,10.957-8.151,17.143-20.755,22.604-31.874,1.512-3.082,2.942-5.994,4.42-8.728,8.258-15.25,18.074-28.903,30.095-40.151,13.263-12.408,27.198-20.337,42.5-25.333,8.167-2.667,15.492-3.813,24.5-3.667,8.492,0.137,13,5.5,15,9,1.5-2.917,3.833-8.083,4.75-8.833,0.841-0.688,15.44-0.62,20-0.417,3.75,0.167,15.354,0.112,16.75,1.625,1.647,1.787-3,11.5-8.153,25.309-2.392,6.407-5.909,14.165-9.566,23.701-1.423,3.712-2.874,7.409-4.293,11.032-11.631,29.666-19.314,49.266-6.413,55.938,2.517,1.302,5.322,1.962,8.339,1.962,9.224,0,18.471-6.187,25.222-10.704,0.79-0.527,1.534-1.025,2.226-1.477,7.904-5.15,12.397-8.33,16.545-12.48l2.581-2.578-0.256-3.638c-2.313-32.91,2.436-68.774,12.389-93.601,13.827-34.499,34.072-65.684,58.541-90.185,12.268-12.285,43.079-34.595,60.007-34.988,14.333-0.333,10.305,24.905,9,30.833-2.833,12.874-17.924,52.878-42.527,93.884-8.311,13.852-26.416,38.8-38.396,55.309-5.647,7.784-10.108,13.93-12.067,16.869l-1.14,1.71-0.175,2.049c-1.661,19.547,8.462,39.489,19.232,50.585,10.098,10.404,20.793,14.163,31.134,17.798,3.544,1.247,7.209,2.534,10.921,4.105,3.188,1.349,7.153,3.602,7.933,6.68,0.77,3.04-1.209,7.807-5.429,13.08-21.502,26.867-49.083,35.38-75.687,40.579-15.301,2.99-33.901,4.443-56.862,4.445-15.454,0-30.854-0.621-45.747-1.221-5.665-0.229-11.207-0.451-16.573-0.634-17.073-0.576-35.808-1.674-53.927-2.735-15.911-0.932-32.363-1.897-47.539-2.498-12.027-0.477-23.625-0.717-34.472-0.717-29.61,0-55.078,1.794-75.696,5.327-9.311,1.598-17.356,3.688-25.137,5.711-2.27,0.592-4.527,1.179-6.792,1.747-0.987,0.246-2.176,0.61-3.554,1.029-2.852,0.87-7.33,2.233-10.669,2.629zm259.502-200.356c-8.125,0.25-27.5,10.25-42.993,38.907-3.615,6.687-14.823,34.503-8.751,48.388,1.835,4.198,5.154,7.077,9.345,8.1,1.083,0.267,2.2,0.4,3.314,0.4,13.666,0.002,23.238-19.119,32.64-40.426,0.734-1.661,1.394-3.156,1.971-4.411,2.405-5.253,12.555-28.676,14.56-37.499,1.248-5.5,1.664-13.82-10.086-13.459zm206.667-116.041c-3.201-1.766-11.745,4.534-11.745,4.534-16.361,12.992-28.658,29.088-39.255,47.633-28,49-25.417,87.5-25.417,87.5s14.606-16.627,18.052-22.074c4.698-7.426,22.376-32.285,32.323-49.811,10.664-18.792,22.918-44.801,25.956-53.808,0,0,4.919-11.308,0.086-13.974z"/>
</svg>