<?xml version="1.0" encoding="UTF-8" standalone="no"?>
<!DOCTYPE svg PUBLIC "-//W3C//DTD SVG 1.1//EN" "http://www.w3.org/Graphics/SVG/1.1/DTD/svg11.dtd">
<svg height="380" width="400" xmlns="http://www.w3.org/2000/svg">
<path d="m251.23 305.85c-29.856-1.0764-45.476 2.4676-45.476 2.4676l-20.094-85.429-19.324 91.468c-36.072 10.865-65.843 27.38-89.312 65.626l-51.87-153.34c-1.8394-5.8049-3.5254-8.9304-8.6965-10.576-7.0825-2.25-16.452 3.53-16.452 3.53l11.282-104.35s19.617-19.156 46.062-35.488c30.2-18.652 66.276-30.32 66.276-30.32l-10.811 107.93s-5.2873 1.2157-9.282 10.031c-2.2388 4.9383-2.3323 14.839-0.94058 20.945l15.158 68.614 22.798-94.947c1.8801-8.0467 3.5254-12.926 0-17.861-3.4997-4.8995-7.5216-4.1149-7.5216-4.1149l11.282-98.823s21.739-7.768 47.238-13.821c28.658-6.8023 55.112-10.113 55.112-10.113l-11.28 106.8s-5.2325 0.41496-8.2262 7.0628c-2.4671 5.479-2.6105 14.625-1.175 20.364l14.923 68.555 23.502-83.431c2.0079-6.4593 2.5627-12.098 0.23438-16.452-2.3499-4.395-8.4606-4.2301-8.4606-4.2301l10.34-99.41s27.735-3.6084 59.46-4.9352c39.717-1.6613 61.574 0 61.574 0l-10.577 92.597s-5.8743 8.4068-10.575 11.838c-6.6152 4.8291-9.1658 18.136-9.1658 18.136l-54.994 179.43s-24.912-6.8154-50.999-7.7555z"/>
<path d="m251.12 296.09c-23.622-1.2248-38.661 0.82237-38.661 0.82237l-16.451-77.086-16.452 83.666c-40.188 8.6955-76.666 24.112-99.917 58.229l-46.505-143.06c-1.8394-5.8602-3.5254-10.811-9.8705-12.808-6.4175-2.02-11.516 1.175-11.516 1.175l12.103-113.64s18.794-16.777 45.241-32.315c30.2-17.744 67.215-30.317 67.215-30.317l-11.281 110.69s-5.2878 1.0583-9.282 9.7538c-2.2388 4.8709-2.3323 14.77-0.94108 20.916l15.629 71.798 21.504-86.957c1.8802-7.9904 3.2236-10.978 0-17.156-2.8207-5.4055-7.756-5.5227-7.756-5.5227l12.33-108.81s21.739-6.3456 47.238-11.633c28.659-5.9432 55.112-8.4612 55.112-8.4612l-11.28 106.46s-5.2325 0.25803-8.2262 6.8154c-2.4671 5.4055-2.6105 14.547-1.175 20.329l15.511 72.738 22.562-83.549c2.0079-6.3989 1.5059-9.9122-0.82237-14.336-2.3504-4.4655-8.8132-4.5827-8.8132-4.5827l11.88-105.52s29.381-3.2669 61.104-3.6426c39.72-0.46828 60.4 1.6463 60.4 1.6463l-10.575 103.17s-6.1107-0.47028-10.811 2.8202c-6.6152 4.6304-9.1658 17.861-9.1658 17.861l-55.934 181.08s-23.853-8.5783-62.396-10.575z" fill="#b70101"/>
</svg>
