<?xml version="1.0" encoding="UTF-8" standalone="no"?>
<!-- Created with Inkscape (http://www.inkscape.org/) -->

<svg
   xmlns:dc="http://purl.org/dc/elements/1.1/"
   xmlns:cc="http://creativecommons.org/ns#"
   xmlns:rdf="http://www.w3.org/1999/02/22-rdf-syntax-ns#"
   xmlns:svg="http://www.w3.org/2000/svg"
   xmlns="http://www.w3.org/2000/svg"
   xmlns:sodipodi="http://sodipodi.sourceforge.net/DTD/sodipodi-0.dtd"
   xmlns:inkscape="http://www.inkscape.org/namespaces/inkscape"
   id="svg2"
   version="1.1"
   inkscape:version="0.91 r13725"
   xml:space="preserve"
   width="140.76083"
   height="137.29781"
   viewBox="0 0 140.76083 137.29781"
   sodipodi:docname="Yale Bulldogs Logo.svg"><metadata
     id="metadata8"><rdf:RDF><cc:Work
         rdf:about=""><dc:format>image/svg+xml</dc:format><dc:type
           rdf:resource="http://purl.org/dc/dcmitype/StillImage" /><dc:title></dc:title></cc:Work></rdf:RDF></metadata><defs
     id="defs6"><clipPath
       clipPathUnits="userSpaceOnUse"
       id="clipPath16"><path
         d="m 54,236.278 77.35,0 0,75.439 -77.35,0 0,-75.439 z"
         id="path18"
         inkscape:connector-curvature="0" /></clipPath></defs><sodipodi:namedview
     pagecolor="#ffffff"
     bordercolor="#666666"
     borderopacity="1"
     objecttolerance="10"
     gridtolerance="10"
     guidetolerance="10"
     inkscape:pageopacity="0"
     inkscape:pageshadow="2"
     inkscape:window-width="640"
     inkscape:window-height="480"
     id="namedview4"
     showgrid="false"
     fit-margin-top="0"
     fit-margin-left="0"
     fit-margin-right="0"
     fit-margin-bottom="0"
     inkscape:zoom="1"
     inkscape:cx="-65.551549"
     inkscape:cy="79.65249"
     inkscape:window-x="0"
     inkscape:window-y="0"
     inkscape:window-maximized="0"
     inkscape:current-layer="g10" /><g
     id="g10"
     inkscape:groupmode="layer"
     inkscape:label="A9R9AE3"
     transform="matrix(1.25,0,0,-1.25,-67.500002,432.64531)"><g
       id="g12"
       transform="matrix(1.4560022,0,0,1.4560022,-24.624117,-107.74328)"><g
         id="g14"
         clip-path="url(#clipPath16)"><g
           id="g20"
           transform="matrix(0.1699371,0,0,-0.1676788,87.055286,295.67206)"><path
             d="m 0,0 c -0.8,0.05 -15.8,-0.083 -23.7,0.017 -1.7,1.9 1.7,3.5 1.4,5.799 -8.6,3.101 -12.7,-4.6 -15.8,-10.1 -0.2,-1.4 -2.45,-3.75 -2.95,-5.049 l 32.25,0.049 0.2,-77.099 -176.7,-0.2 -0.4,0.899 0,77.601 51.1,0.2 c 16.7,24.4 32.9,49.099 48.2,74.199 l -6.5,3.601 -46,-69.201 -55.65,-0.049 0.15,-95.65 1.5,-0.701 192.85,0 L 0,0 Z"
             style="fill:#00356B;fill-opacity:1;fill-rule:nonzero;stroke:none"
             id="path22"
             inkscape:connector-curvature="0" /></g><g
           id="g24"
           transform="matrix(0.1699371,0,0,-0.1676788,131.341,311.69938)"><path
             d="m 0,0 -0.15,95.5 -55.25,0.1 c -21.201,32 -42.201,64 -64.1,95.8 -2.9,-2.8 -4.7,-7 -2.9,-10.8 20.2,-31.6 41.799,-62.4 62.7,-93.6 l 48.899,0 1.5,-0.25 0,-77.55 L -195.65,9 c 0,4.25 -0.1,71.75 0,78 l 1.25,0 35.299,0 0,2.1 c -7.5,10.2 -12.399,21.4 -19.399,31.7 -2.801,-0.6 -10.2,-1.5 -6.5,-6.5 l 10.8,-17.2 -1.401,-1.5 -28.099,0 -1.5,-2.1 -0.2,-93.6 204,0 L 0,0 Z"
             style="fill:#00356B;fill-opacity:1;fill-rule:nonzero;stroke:none"
             id="path26"
             inkscape:connector-curvature="0" /></g><g
           id="g28"
           transform="matrix(0.1699371,0,0,-0.1676788,103.57321,256.80128)"><path
             d="m 0,0 c 2.1,5.1 -1.3,13 2.9,16.6 l 67.6,0 0.1,105.75 -171.4,0.049 -95,-0.049 0,-106.5 64.8,0.049 c 0.1,-4.799 5.4,-3.299 8.6,-3.599 3.5,3.599 -0.6,7.7 0.7,12.2 l -65.3,-0.15 -0.2,2.35 0,84.9 1.5,1.5 246.9,0 1.4,0 L 62.5,26 -8,25.85 -7.9,2.899 C -5.7,1 -2.8,0.7 0,0"
             style="fill:#00356B;fill-opacity:1;fill-rule:nonzero;stroke:none"
             id="path30"
             inkscape:connector-curvature="0" /></g><g
           id="g32"
           transform="matrix(0.1699371,0,0,-0.1676788,83.996419,308.68117)"><path
             d="m 0,0 0,59.5 c -1.55,0 -25.8,0 -38.1,0.1 2,10 11,19 15.8,28.8 -5.5,18.5 -23.2,35 -39.6,45.4 -16.8,-24.8 -33.1,-49 -50.4,-74.2 -15.1,-0.2 -42.25,-0.1 -46.25,-0.1 l 0.15,-58.2 2.2,-1.4 154.8,0 L 0,0 Z"
             style="fill:#00356B;fill-opacity:1;fill-rule:nonzero;stroke:none"
             id="path34"
             inkscape:connector-curvature="0" /></g><g
           id="g36"
           transform="matrix(0.1699371,0,0,-0.1676788,128.04415,298.70428)"><path
             d="M 0,0 C -3.075,-0.075 -40.75,0 -45.4,0.1 -66.2,31.1 -87.1,62 -108,93 c -4,-12.7 -26.2,0.5 -20.2,-18 -3.4,-5.3 -9.6,-10 -15.8,-11.5 -3.5,-3.6 -7.9,-8.9 -7.9,-13.7 9.7,-16.3 19.7,-32.5 28.8,-49 l -43.9,-0.05 0,-58.95 1.4,-1.4 L 0,-59.6 0,0 Z"
             style="fill:#00356B;fill-opacity:1;fill-rule:nonzero;stroke:none"
             id="path38"
             inkscape:connector-curvature="0" /></g><g
           id="g40"
           transform="matrix(0.1699371,0,0,-0.1676788,88.890658,290.58864)"><path
             d="m 0,0 c 5.6,-3.2 11.5,-5.5 18,-6.5 18.1,-4 36.8,-0.4 50.4,10.8 8.6,5.4 7.1,20 19.4,18.7 3.3,1.1 6.9,4.6 8,7.9 3.1,5.6 -7.1,14.6 4.3,13.7 7.2,-3 14.4,1.4 17.3,7.9 2.7,6.9 3.1,14.6 7.2,20.9 3.1,3.2 -0.3,9 2.8,12.2 6.9,-4.2 7.4,-11.8 11.6,-16.5 7.6,5.9 8.9,14.4 10,23 2.1,2.7 4.1,0.8 6.5,2.2 -0.1,41.5 -30.8,78.5 -66.2,97.2 -23.1,10 -55.501,14.701 -79.9,4.3 -4.8,-0.7 -7.7,3.401 -11.5,5 -16,6.901 -37.3,9.1 -52.6,-0.7 -20,-11.8 -24.2,-34.7 -21.6,-56.9 l 2.9,-8.6 C -87.5,111 -104,88.4 -118.1,64.8 c 3.8,-12.4 17.2,-16.9 26.7,-23.1 6,-2.4 12.4,-3.7 18,-7.2 -2.4,-2.1 -5.9,-3.2 -7.2,-6.5 14.7,-11.2 29.4,-25.6 36.7,-42.4 13.2,-6.6 23.1,8 34.6,12.2 2.7,1.7 5.7,2.6 9.3,2.2"
             style="fill:#00356B;fill-opacity:1;fill-rule:nonzero;stroke:none"
             id="path42"
             inkscape:connector-curvature="0" /></g><g
           id="g44"
           transform="matrix(0.1699371,0,0,-0.1676788,100.51434,255.94618)"><path
             d="m 0,0 0,28.75 2.2,0.05 67.6,0 1.5,0.45 0,69.25 -1.5,0.101 -228.8,0 C -159.1,98 -158.9,29.75 -159,28 l 64.7,0.101 C -92.8,21.601 -94.4,13.7 -92.9,7.2 -81,7.101 -70.9,2.601 -61.2,-2.899 -42.5,2.3 -19.7,3.9 0,0"
             style="fill:#00356B;fill-opacity:1;fill-rule:nonzero;stroke:none"
             id="path46"
             inkscape:connector-curvature="0" /></g><g
           id="g48"
           transform="matrix(0.1699371,0,0,-0.1676788,87.310192,289.26399)"><path
             d="M 0,0 C 9.3,0.8 16.8,-7 26.6,-7.2 41,-9 60,-11.7 69.101,2.1 70.2,6.7 67.7,10.3 64,12.2 62.2,13 59.5,13.4 59,15.8 l 1.4,1.5 31.701,3.6 C 96.3,22 96.2,27.1 95,30.2 l -2.2,2.2 -47.5,-2.2 c -2.7,1.4 -4.8,4.3 -7.2,6.5 -1.1,6.6 1.1,12.5 6.5,15.8 5.7,0.5 11.1,2.1 17.3,1.5 2.3,6.8 -3.2,12.7 -8.7,16.5 -3.3,1.7 -7.1,2.3 -10.1,5.1 2.7,2.4 7.7,1.5 10.8,0.7 23,-5.2 41.201,-32.7 67,-20.2 5.5,4.2 4.6,12 3.6,18 C 116.3,97.4 84.9,79.6 69.101,92.101 46.4,110.5 37.1,138.101 12.2,155.5 1.2,164.2 -12.4,168.7 -27.4,165.601 -37.8,163.9 -46.2,155 -49.7,145.4 c -9.4,-22.6 12.6,-35.7 18,-54 0.4,-2.2 -0.5,-3.7 -2.2,-5 -2.9,0.5 -2.6,3.701 -3.6,5.701 -6.3,9.5 -17.2,14 -23,23.099 -11.9,-18.5 -24,-36.8 -35.3,-55.5 -1.1,-7.2 7.4,-9.8 11.5,-13.6 7.7,-4 15.9,-6.9 24.5,-8.7 -3.6,12 -3.8,28.7 7.2,36.7 2.6,-2.6 0.3,-6.8 0,-10 0.1,-17.2 8.8,-32.1 23.8,-41.8 7.8,-3.4 15.3,-7.6 24.4,-7.9 l 1.5,-2.2 C -8.6,6.8 -14.7,2.4 -21.6,0 -27.4,7.2 -32.1,16.8 -41.1,20.9 -46.4,21 -51.8,21.2 -55.5,17.3 -45.7,8 -36.8,-4.8 -28.1,-15.1 -17.3,-13.7 -9.7,-4.4 0,0"
             style="fill:#ffffff;fill-opacity:1;fill-rule:nonzero;stroke:none"
             id="path50"
             inkscape:connector-curvature="0" /></g><g
           id="g52"
           transform="matrix(0.1699371,0,0,-0.1676788,96.23189,282.99274)"><path
             d="M 0,0 C -1.5,2.7 -3.1,6.2 -1.4,9.4 -3.6,9.6 -2.2,7.1 -3.6,6.5 -2.9,4.1 -3.1,0.1 0,0"
             style="fill:#ffffff;fill-opacity:1;fill-rule:nonzero;stroke:none"
             id="path54"
             inkscape:connector-curvature="0" /></g><g
           id="g56"
           transform="matrix(0.1699371,0,0,-0.1676788,101.24503,282.74122)"><path
             d="m 0,0 c -8.7,0.9 -17.2,16.7 -25.2,5 -1.699,-3.8 2.801,-4 4.301,-5.8 C -13.7,-1 -6.899,-0.4 0,0"
             style="fill:#ffffff;fill-opacity:1;fill-rule:nonzero;stroke:none"
             id="path58"
             inkscape:connector-curvature="0" /></g><g
           id="g60"
           transform="matrix(0.1699371,0,0,-0.1676788,103.08032,282.6239)"><path
             d="M 0,0 C -4.699,4.2 -10.1,9.4 -17.3,9.3 -11.899,5.1 -5.699,3.1 0,0"
             style="fill:#ffffff;fill-opacity:1;fill-rule:nonzero;stroke:none"
             id="path62"
             inkscape:connector-curvature="0" /></g><g
           id="g64"
           transform="matrix(0.1699371,0,0,-0.1676788,104.91578,282.27176)"><path
             d="m 0,0 c -0.601,2.3 -1.801,5 -4.301,5.8 l -5,0 C -8.101,2.3 -4.601,-1.6 0,0"
             style="fill:#ffffff;fill-opacity:1;fill-rule:nonzero;stroke:none"
             id="path66"
             inkscape:connector-curvature="0" /></g><g
           id="g68"
           transform="matrix(0.1699371,0,0,-0.1676788,112.74981,275.14541)"><path
             d="m 0,0 c -3.9,1.1 -9.1,1.1 -13,0 5,-3.2 8.5,-8.3 11.6,-12.9 2.6,2.7 0.9,8.6 1.4,12.9"
             style="fill:#ffffff;fill-opacity:1;fill-rule:nonzero;stroke:none"
             id="path70"
             inkscape:connector-curvature="0" /></g><g
           id="g72"
           transform="matrix(0.1699371,0,0,-0.1676788,113.2427,273.93809)"><path
             d="m 0,0 c -3.5,33.6 -29.4,66.899 -61.9,77.8 -14.701,5.5 -33,2.4 -46.8,-2.901 C -113.7,81 -119.8,87.3 -126.7,90 -107.9,67.1 -97.101,40.899 -83.5,15.8 -63.801,-8.9 -28.7,3.1 0,0"
             style="fill:#ffffff;fill-opacity:1;fill-rule:nonzero;stroke:none"
             id="path74"
             inkscape:connector-curvature="0" /></g><g
           id="g76"
           transform="matrix(0.1699371,0,0,-0.1676788,94.634413,285.52471)"><path
             d="m 0,0 c -7.399,5 -11.1,13.8 -9.3,22.3 2.3,1.9 3.601,4.2 5,6.5 -4.099,1.7 -7.999,-1.7 -11.499,-3.6 -3,-3.9 -7.6,-8 -5.701,-13 3.101,-7.8 10.101,-11.7 18,-12.9 1.101,0.2 2.801,-0.6 3.5,0.7"
             style="fill:#00356B;fill-opacity:1;fill-rule:nonzero;stroke:none"
             id="path78"
             inkscape:connector-curvature="0" /></g></g></g></g></svg>