<?xml version="1.0" encoding="UTF-8" standalone="no"?>
<svg xmlns:dc="http://purl.org/dc/elements/1.1/" xmlns:cc="http://creativecommons.org/ns#" xmlns:rdf="http://www.w3.org/1999/02/22-rdf-syntax-ns#" xmlns:svg="http://www.w3.org/2000/svg" xmlns="http://www.w3.org/2000/svg" version="1.1" id="svg17185" width='359.33433px' height='278.29237px' viewBox="0 0 382 295.84617">
  <g id="g17187" transform="matrix(.55169 0 0 .55169 10 10)">
    <g id="g17189" fill="#fff">
      <path id="path17191" d="m316.73 198.55c-4.729 9.91-11.203 14.231-14.428 15.864-.356-5.194-4.34-11.455-10.389-14.15 15.8-1.023 40.921-6.759 49.09-8.112 8.188-1.348 52.908-10.81 59.4-11.468 3.01-.308 9.326-.9 8.969 3-.684 7.33-6.553 22.497-12.166 26.28.682-7.195-1.054-16.07-6.073-21.956-3.671 8.879-11.263 17.417-15.931 20.817-.261-8.514-1.973-12.961-7.788-18.03-2.685 7.02-9.07 14.354-14.65 16.215.506-2.885-4.442-10.451-7.984-13.03-4.539 11.452-10.03 17.531-14.768 19.305-.771-5.58-5.493-11.268-13.285-14.727" />
      <path id="path17193" d="m487.92 227.97c-3.803-4.942-6.882-15.489-5.253-21.465-2.819 1.224-6.159 4.075-8.144 6.211-1.031-3.036-2.722-7.638-5.06-9.963-1.32 1.957-4.265 5.073-6.313 5.892-1.605-2.203-3.103-5.769-4.198-8.484-1.345 1.878-3.696 4.211-6.273 5.677-2.404-2.697-5.961-9.49-6.471-14.05-6.684 3.745-16.17 22.522-18.986 29.606-6.625-7.897-7.123-20.287-4.361-30.675.974-2.206 3.31-5.42 7.599-6.527 4.289-1.11 10.578 1.36 13.666 3.254 6.288 3.882 15.569 8.658 20.278 10.409 4.712 1.759 16.214 5.455 24.267 7.621 3.72 3.563 2.317 15.909-.751 22.495" />
      <path id="path17195" d="m448.54 326.47c-3.431-.1-7.695-2.593-10.625-4.361-5.633 3.95-12.03 3.139-15.05.823-4.154 2.918-13.506.655-15.53-1.174 1.807-4.059 12.1-10.615 14.547-12.13.197 3.969 2.27 8.689 3.605 9.309 3.344.53 9.481-4.04 12.65-7.316 1.301 1.747 2.513 3.949 2.662 6.06 3.59.832 9.943-2.851 11.6-5.362 4.482.543 8.932 3.689 10.625 5.579-3.474 4.079-9.328 8.729-14.48 8.57" />
      <path id="path17197" d="m399.82 312.61c-1.735 1.266-4.156 1.052-6.353.617-6.273-1.518-6.602-4.554-13.09-12.457-6.485-7.897-28.398-28.02-47.17-37.15-8.848-4.52-22.555-8.838-22.555-8.838 6.118-1.143 13.462-6.567 15.509-11.398 3.06 4.511 2.112 13.314 1.476 16.569 4.155 1.88 7.213.912 10.539-.57 3.806-1.695 8.269-9.769 8.269-9.769 3.329 4 3.613 14.452 1.102 19.13 6.642 3.087 15.841-1.253 18.504-3.699 2.901 4.112 1.051 15.254-.399 17.773 5.941 2.078 15.07-1.108 18.303-4.1 1.617 6.04.924 13.637-2.704 18.967.071 1.185 2.312 1.861 2.312 1.861 6.795 1.577 16.59-6.694 22.88-14.567 2.701 9.59-.281 20.601-6.624 27.631" />
      <path id="path17199" d="m306.04 253.58c-5.764-1.793-11.968-3.075-17.756-4.266 4.383-.82 13.11-6.094 15.444-10.273 3.055 3.735 5.877 10.521 2.312 14.539" />
      <path id="path17201" d="m91.68 18.338l-16.504 47.673c-1.441 4.19-5.475 7.353-9.347 7.353-1.809 0-3.35-.72-4.25-2.01-1.092-1.534-1.255-3.696-.432-6.084l16.232-46.929h-16.321c-2.071 5.938-15.845 45.74-15.845 45.74-1.557 4.529-1.275 8.36.859 11.347 2.794 3.95 8.692 6.208 16.1 6.208 11.531 0 25.943-5.724 30.29-18.311l15.56-44.984h-16.351" />
      <path id="path17203" d="m131.42 18.338l-2.885 5.05v22.417l8.668-16.586-5.985 33.18h-2.684v8.274h1.542l-1.542 9.751v.791h14.569l7.745-62.871h-19.428zm-2.885 5.05l-32.846 57.823h14.211l5.68-10.542h12.955v-8.274h-8.642l8.642-16.59v-22.417m0 57.03v.791h-.111l.111-.791" />
      <path id="path17205" d="m189.26 77.08c7.148-3.1 13.195-8.297 16.15-16.798 2.771-8.04-1.673-13.1-3.63-14.36l-1.585-1.049 1.673-.909c5.06-2.775 8.381-6.375 9.877-10.691 1.013-2.946.748-5.578-.837-7.804-3.147-4.4-11-6.985-21.644-7.135v8.337c3.404.3 4.971 1.47 5.693 2.481.93 1.285 1.079 2.996.458 4.791-.902 2.63-2.655 4.741-6.151 5.843v37.29m-1.01-58.746h-7.925v30.932l4.931-.343.351.229c1.782 1.146 4.95 5.735 2.813 11.875-1.695 4.908-3.913 8.458-8.095 10.349v8.459c3.055-.632 6.072-1.526 8.937-2.754v-37.29c-1.743.53-3.896.822-6.561.822l4.841-14c.617 0 1.19.025 1.719.065v-8.337h-1.01m-7.925-.0001h-6.242l-21.79 62.871h13.421c4.641 0 9.679-.348 14.611-1.371v-8.459c-2.285 1.023-5.124 1.565-8.799 1.565l8.158-23.626.641-.049v-30.931" />
      <path id="path17207" d="m277.78 45.926l-1.581-1.049 1.673-.909c5.06-2.775 8.383-6.375 9.878-10.691 1.036-2.946.747-5.578-.835-7.804-3.125-4.4-10.997-6.985-21.669-7.135v8.337c3.427.3 4.992 1.47 5.698 2.481.942 1.285 1.101 2.996.484 4.791-.921 2.63-2.664 4.741-6.182 5.843v37.29c7.17-3.1 13.217-8.297 16.17-16.798 2.777-8.04-1.67-13.1-3.633-14.359m-12.533-27.588h-.974-7.937v30.932l4.926-.343.375.229c1.759 1.146 4.905 5.735 2.795 11.875-1.693 4.908-3.917 8.458-8.096 10.349v8.459c3.059-.632 6.071-1.526 8.911-2.754v-37.29c-1.712.53-3.875.822-6.531.822l4.836-14c.615 0 1.184.025 1.695.065v-8.338m-8.911 0h-6.27l-21.737 62.871h13.4c4.641 0 9.678-.348 14.607-1.371v-8.459c-2.289 1.023-5.132 1.565-8.803 1.565l8.163-23.626.641-.049v-30.931z" />
      <path id="path17209" d="m321.55 81.21l2.85-8.266h-19.12l18.89-54.606h-16.32l-21.79 62.872z" />
      <path id="path17211" d="m361.92 18.338l-2.86 5.059v22.406l8.644-16.586-5.985 33.18h-2.658v8.274h1.512l-1.512 9.744v.798h14.536l7.769-62.871h-19.446m-2.861 5.058l-32.896 57.812h14.263l5.629-10.542h13v-8.274h-8.674l8.674-16.59v-22.406m0 57.01v.798h-.136l.136-.798" />
      <path id="path17213" d="m420.05 81.21l2.86-8.266h-20.22l38.15-54.606h-38.4l-2.86 8.273h17.83l-38.13 54.599z" />
      <path id="path17215" d="m488.43 26.611l2.85-8.273h-36.69l-11.95 34.518h-5l-2.87 8.274h4.99l-6.95 20.08h36.74l2.85-8.266h-20.36l4.08-11.814h16.51l2.86-8.274h-16.5l9.07-26.25z" />
      <path id="path17217" d="m520.76 58.56l-1.119-1.216 1.518-.617c3.47-1.351 15.07-6.802 19.513-19.645 1.515-4.389 1.232-8.109-.856-11.04-3.5-4.895-12.166-7.701-23.811-7.701h-.242v8.447c3.44.04 6.609 1.031 7.95 2.925 1.399 1.985 1.537 4.741.324 8.194-1.688 4.961-4.834 8.701-8.274 11.125v32.18h9.271c1.273-3.845 2.327-8.289 1.228-12.776-1.093-4.68-4.224-8.462-5.502-9.872m-4.997-40.22h-13.706l-21.751 62.871h16.342l6.313-18.234c2.621 1.751 5.15 5.301 6.162 9.226.665 2.744.462 5.601-.504 9.01h7.145v-32.18c-3.037 2.134-6.313 3.232-9.08 3.232l8.803-25.487.281.012v-8.448" />
      <path id="path17219" d="m575.57 26.01c2.18 0 3.607.218 5.058.571l7.972-7.438c-2.58-.758-6.06-1.229-9.446-1.229-14.384 0-25.824 6.178-29.14 15.776-1.899 5.463-.534 9.87 5.209 16.875 4.795 5.74 8.02 10.258 5.985 16.204-1.317 3.782-6.02 6.422-11.416 6.422-2.998 0-5.792-.469-7.855-1.264l-8.409 7.854c3.349 1.253 7.397 1.847 12.547 1.847 15.748 0 28.29-6.787 31.94-17.298 2.25-6.483.973-10.955-5.193-18.386-4.686-5.7-8.05-9.815-6.333-14.78 1.033-3.034 4.774-5.154 9.09-5.154" />
      <path id="path17221" d="m341.06 148.26c7.348-6.124-5.257-8.919-5.257-8.919 8.05 2.579 5.257 8.919 5.257 8.919" />
    </g>
    <g id="g17223" fill="#f3d687">
      <path id="path17225" d="m612.27 295.43c1.652-.546 3.279-.957 4.884-1.242 7.438-4.494 15.597-19.775 4.379-34.486 1.542 7.58 2.509 21.936-9.263 35.728" />
      <path id="path17227" d="m444.91 260.99c5.195 5.629 8.23 11.661 9.573 16 5.04-5.209 5.779-13.927 4.107-17.305 6.804 2.046 32.963 18.949 37.711 22.899 4.752 3.956 16.351 13.937 22.05 16.923 4.819 2.526 13.425 4.361 19.1 2.617-15.685-6.447-24.07-12.01-30.492-18.536 1.3-.285 2.419-.427 3.695-1.415-9.68-5.537-19.623-14.238-27.365-18.429-7.749-4.202-26.733-16.56-42.502-19.18-1.215-1.05-.162-2.683.014-3.904-4.778.316-10.359.805-15.466-.522-13.286-.783-24.2-4.948-30.27-6.084-5.677-1.071-18.263-2.957-35.467-2.588-.352.147-1.672.518-3.261.957-3.162.902-7.541 2.127-8.135 2.585 1.324.209 2.819.423 4.401.627 14.345 1.818 37.932 3.147 49.877 5.856 14.01 3.178 33.723 10.01 42.44 19.492" />
    </g>
    <g id="g17229" fill="#e8ae10">
      <path id="path17231" d="m598.78 351.61c-4.23-5.88-13.907-9.145-19.1-9.627-5.238-.482-12.562-.945-19.25-.229l-1.384.15v3.718c9.247-.406 19.888-.024 25.438 2.962 2.414 1.304 4.707 3.616 5.388 6.352-4.711-2.036-12.985-3.735-15.508-4.086-2.465-.342-10.499-.808-15.318-.214v6.162c5.591-.067 11.377-.09 16.677.744 6.426.82 13.468 3.328 17.556 6.827 4.088 3.483 6.819 7.099 7.702 10.14 1.54-7.592 1.909-17.17-2.199-22.899m-39.736-9.705c-11.839 1.142-22.745 1-27.635.418-5.06-.62-9.941-1.419-15.949-3.906 1.145 3.342 4.094 6.413 7.28 9.02 6.251 5.125 15.358 8.536 24.07 9.185 3.787.288 7.963.221 12.234.177v-6.162l-.197.024c-4.819.62-16.61.62-21.958-.795-2.723-.712-5.895-2.281-8.685-4.062 5.06 1.206 10.907 1.782 17.572.933 3.15-.415 7.969-.893 13.269-1.112v-3.72" />
      <path id="path17233" d="m656.16 336.09c.355-22.573-15.482-46.15-39.01-41.906-1.604.285-3.231.696-4.884 1.242.661-.057 1.214-.016 1.824-.057 27.547-1.197 31.667 21.668 31.667 21.668-14.09-8.08-26.912-7.489-43.26-3.93-12.982 2.815-18.504 2.871-28.576-6.114 2.192 7.289 7.388 12.06 13.11 13.998-19.274-5.232-34.01 13.78-56.822 11.319-1.783-.188-3.59-.469-5.479-.946 15.931 7.572 31.372 1.686 43.583-2.827 16.586-6.135 46.64 7.246 58.44-4.04-8.696.043-23.03-3.037-30.98-5.373 0 0 3.827-1.913 21.695-2.375 17.887-.461 32.762 11.773 38.695 19.337" />
      <path id="path17235" d="m520.34 279.13c-6.399-.517-25.452-16.03-28.793-18.1-17.25-10.669-45.23-22.319-45.23-22.319.569-1.727.305-5.985-.707-7.194-3.342 3.265-14.956 4.02-22.88 2.541-7.917-1.501-21.806-3.249-27.613-3.983-10.321-1.333-30.01-.471-35.534 1.395 17.205-.368 29.791 1.517 35.467 2.588 6.072 1.136 16.986 5.301 30.27 6.084 5.107 1.328 10.688.838 15.466.522-.176 1.221-1.229 2.854-.014 3.904 15.769 2.618 34.753 14.976 42.502 19.18 7.743 4.19 17.686 12.892 27.365 18.429-1.275.987-2.395 1.13-3.695 1.415 6.427 6.53 14.808 12.09 30.492 18.536-5.671 1.744-14.277-.09-19.1-2.617-5.695-2.986-17.293-12.967-22.05-16.923-4.748-3.95-30.908-20.853-37.711-22.899 1.671 3.378.93 12.1-4.107 17.305-1.343-4.344-4.378-10.375-9.573-16-8.717-9.484-28.425-16.314-42.44-19.492-11.945-2.708-35.532-4.04-49.877-5.856.592.724 2.506.365 3.126 1.101.881.178 10.672 2.078 14.238 2.861 17.06 2.628 35.11 5.427 50.38 14.03 6.948 4.03 16.229 11.143 19.775 16.08 3.519 4.942 6.712 10.42 5.195 18.58 10.997.562 19.314-7.977 21.982-14.938 5.294 2.035 7.431 4.126 11.06 6.403 11.969 7.448 22.59 20.451 34.3 27.434 16.256 9.727 40.722-2.035 45.04-7.277-13.801-1.392-33.929-9.14-43.476-15.33 3.125-1.033 5.327-2.894 6.137-5.452" />
      <path id="path17237" d="m339.56 150.24c4.03-.229 8.276-.501 12.768-.975-3.662-2.616-7.246-7.273-10.963-9.292-.593-.33-1.214-.635-1.805-.921v1.565c2.996 1.38 6.01 3.885 1.497 7.641 0 0 1.74-3.944-1.497-6.895v8.877m-8.623.594c2.751-.253 5.633-.419 8.623-.594v-8.878c-.854-.77-2.065-1.482-3.76-2.024 0 0 1.894.415 3.76 1.278v-1.565c-7.836-3.871-13.991-4.33-17.13-2.519-2.819 1.627-9.95 7.557-10.633 13.585v1.82c.134 1.074.513 2.145 1.189 3.185 0 0 2.901-1.266 7.835-2.655.178-.061.418-.073.611-.128 2.16-5.475 5.35-10.989 8.805-14.23-.903 4.248-.594 8.566.702 12.725" />
      <path id="path17239" d="m407.44 365.27c2.114-4.744 2.971-11.287 1.521-16.204-6.25 3.771-15.907 6.626-20.725 6.099 1.757-2.241 2.818-11.25 1.251-12.894-4.398 1.75-14.06 3.178-18.213 1.086 3.873-2.182 4.728-5.877 4.818-9.594-6.648 1.164-12.961-1.208-12.961-1.208-3.366-10.433-17.291-24.371-22.307-28.14-4.533-3.413-18.967-11.01-27.852-14.576-8.01-3.174-25.989-8.115-41.21-9.118 7.918 24.09 43.01 40.901 76.77 68.52 8.112 6.629 27.25 24.25 43.799 42.649 9.152-10.04 18.721-21.12 28.509-33.24-3.979 3.159-8.532 5.269-13.397 6.615" />
      <path id="path17241" d="m132.87 249.43c.68-4.156 1.34-8.283 2.111-12.531-1.961-.783-4.158-1.519-7.576-1.178 2.732-7.05 6.409-13.318 10.717-19.19-3.035-1.341-7.299-1.626-11.375-1.17 2.923-7.286 10.806-16.564 17.645-20.11-3.059-2.327-7.59-3.794-12-4.305 6.641-7.06 13.507-14.439 23.493-17.898-2.862-4.214-8.274-7.05-13.729-8.229 6.859-7.07 23.672-10.721 31.617-8.753-2.887-4.568-7.305-6.909-11.237-10.577 11.237-5.938 38.654-5.871 50.13-2.869-.901-3.786-4.047-7.832-7.566-10.315 7.388-1.936 17.908-.133 28.01 3.535v-.012c0 0-8.476-16.852-10.741-27.754h-149.52c16.346 53.12 37.29 100.21 60.02 141.36" />
      <path id="path17243" d="m495.82 246.44c22.11-40.462 42.526-86.49 58.48-138.38h-203.6c.38.248.771.501 1.108.753 4.521 3.268 15.926 16.398 20.495 24.589 3.175-1.973 6.182-3.426 9.202-5.831 2.728-1.7 5.807-1.071 11.457.866 2.816 3.398 8.257 15.313 11.644 17.59 3.254-2.237 16.282-15.527 35.973-15.709 16.17 8.04 18.764 19.16 21.536 22.924 7.241-3.329 15.487-4.571 23.1-6.528 3.7-.359 7.486 1.179 8.519 3.617 1.826 6.258 3.277 12.932 4.528 19.532-.897 5.969-1.339 13.255-1.536 19.492.945 4.435 3.3 8.901 6.268 11.785-.506 3.811-.743 7.264-1.494 10.731-.569.961-5.171 3.447-5.98 3.614-.071 5.062-1.063 15.395-3.171 28.25 1.033.747 2.214 1.673 3.475 2.708" />
      <path id="path17245" d="m281.35 108.67c6.296 7.916 3.68 19.269 3.68 19.269 1.952-2.728 5.721-7.084 7.785-9.06-1.273-2.625-2.887-6.55-3.938-10.824h-8.06c.177.203.378.419.529.611" />
      <path id="path17247" d="m111.24 16.06h-21.19l-13.901 40.25v6.961l15.53-44.933h16.351l-15.56 44.984c-2.684 7.706-9.108 12.86-16.321 15.669v2.42c8.095-2.966 15.448-8.646 18.457-17.333l16.632-48.02m-35.09 12.879v-6.973l1.229-3.629h-1.229v-2.277h4.442l-4.442 12.879m0 27.37l-3.108 8.957c-1.144 3.266-4.312 5.823-7.213 5.823-.745 0-1.785-.181-2.4-1.063-.661-.9-.7-2.359-.126-4.02l12.847-37.07v-6.973l-15 43.3c-.823 2.388-.66 4.55.432 6.084.9 1.292 2.441 2.01 4.25 2.01 3.873 0 7.906-3.162 9.347-7.353l.974-2.74v-6.96m0-40.25v2.277h-15.09c-2.071 5.938-15.845 45.74-15.845 45.74-1.557 4.529-1.275 8.36.859 11.347 2.794 3.95 8.692 6.208 16.1 6.208 4.49 0 9.373-.853 13.974-2.642v2.42c-4.627 1.691-9.513 2.514-13.974 2.514-8.16 0-14.713-2.621-17.951-7.176-2.554-3.578-2.948-8.217-1.141-13.428l16.359-47.26h16.707z" />
      <path id="path17249" d="m130.09 16.06l-6.818 12.02v4.601l8.143-14.345h19.429l-7.745 62.871h-14.68l1.653-10.542h-6.8v2.277h4.134l-1.644 10.55h19.338l8.321-67.43h-23.331m-6.819 12.02l-31.524 55.41h19.516l5.653-10.55h6.355v-2.277h-7.697l-5.68 10.542h-14.21l27.587-48.53v-4.602" />
      <path id="path17251" d="m131.22 62.39l5.985-33.18-9.214 17.674v4.91l4.312-8.306-2.972 16.624h-1.34v2.275h3.229m-3.229-15.503l-8.096 15.503h8.096v-2.275h-4.337l4.337-8.318v-4.91" />
      <path id="path17253" d="m188.25 16.06h-5.921v2.277h5.921c11.172 0 19.421 2.594 22.656 7.135 1.584 2.226 1.85 4.857.837 7.804-1.497 4.316-4.817 7.916-9.877 10.691l-1.673.909 1.585 1.049c1.957 1.256 6.4 6.316 3.63 14.36-3.851 11.141-13.05 16.619-23.08 19.1v2.339c10.871-2.56 20.963-8.431 25.23-20.696 2.538-7.314-.171-13.08-3.163-15.926 4.776-2.938 7.966-6.65 9.508-11.08 1.253-3.645.862-7.06-1.146-9.871-3.651-5.148-12.581-8.096-24.507-8.096m-5.922 0h-9.878l-23.344 67.43h16.608c5.261 0 11.05-.455 16.614-1.768v-2.339c-5.546 1.365-11.353 1.822-16.614 1.822h-13.421l21.79-62.871h8.245v-2.277" />
      <path id="path17255" d="m189.72 39.616c3.208-1.126 4.817-3.163 5.691-5.668.621-1.795.472-3.506-.458-4.791-.68-.966-2.135-2.075-5.233-2.423v2.253c1.627.183 2.818.684 3.388 1.483.616.872.418 1.964.154 2.723-.55 1.601-1.826 2.941-3.542 3.854v2.569m-2.179-13.01l-4.841 14c2.93 0 5.238-.352 7.02-.997v-2.569c-1.104.596-2.404 1-3.782 1.177l3.213-9.284c.19 0 .392.016.569.046v-2.253c-.637-.082-1.366-.122-2.18-.122" />
      <path id="path17257" d="m185.6 49.16l-.351-.229-4.444.312v3.794l.506-1.473c1.032-.044 2.357-.146 3.343-.265 1.165 1.044 3.211 4.375 1.606 8.992-1.214 3.503-3.076 6.187-5.455 7.926v2.925c3.875-1.933 5.985-5.399 7.609-10.11 2.136-6.139-1.032-10.728-2.814-11.875m-4.795.083l-1.127.08-8.158 23.626c3.937 0 6.924-.62 9.286-1.807v-2.925c-1.759 1.289-3.784 2.066-6.05 2.328l6.05-17.507v-3.795z" />
      <path id="path17259" d="m280.4 45.1c4.776-2.938 7.97-6.65 9.507-11.08 1.254-3.645.859-7.06-1.146-9.871-3.649-5.146-12.585-8.095-24.489-8.095h-5.938v2.277h5.938c11.156 0 19.409 2.594 22.643 7.135 1.582 2.226 1.871 4.857.835 7.804-1.495 4.316-4.819 7.916-9.878 10.691l-1.673.909 1.581 1.049c1.962 1.256 6.41 6.316 3.634 14.36-3.851 11.141-13.07 16.619-23.08 19.1v2.339c10.868-2.56 20.971-8.431 25.21-20.696 2.529-7.315-.155-13.08-3.148-15.927m-22.06-29.04h-9.879l-23.336 67.43h16.608c5.277 0 11.04-.455 16.607-1.768v-2.339c-5.542 1.365-11.33 1.822-16.607 1.822h-13.4l21.737-62.871h8.27v-2.277" />
      <path id="path17261" d="m265.73 39.616c3.219-1.126 4.838-3.163 5.7-5.668.617-1.795.458-3.506-.484-4.791-.663-.966-2.11-2.075-5.216-2.423v2.253c1.628.183 2.794.684 3.362 1.483.642.872.443 1.964.18 2.723-.551 1.601-1.826 2.941-3.542 3.854v2.569m-2.177-13.01l-4.836 14c2.922 0 5.21-.352 7.01-.997v-2.569c-1.104.596-2.396 1-3.787 1.177l3.213-9.284c.203 0 .403.016.574.046v-2.253c-.641-.082-1.36-.122-2.177-.122" />
      <path id="path17263" d="m261.64 49.16l-.375-.229-4.444.312v3.794l.505-1.473c1.036-.044 2.353-.146 3.326-.265 1.182 1.044 3.236 4.375 1.623 8.992-1.206 3.503-3.059 6.187-5.454 7.938v2.913c3.87-1.933 5.985-5.399 7.614-10.11 2.11-6.139-1.036-10.728-2.795-11.875m-4.819.083l-1.123.08-8.163 23.626c3.915 0 6.935-.62 9.286-1.807v-2.913c-1.743 1.277-3.784 2.054-6.05 2.315l6.05-17.507v-3.794" />
      <path id="path17265" d="m361.72 62.39l5.985-33.18-9.219 17.674v4.91l4.333-8.306-2.984 16.624h-1.348v2.275h3.233m-3.234-15.503l-8.099 15.503h8.099v-2.275h-4.333l4.333-8.318v-4.91" />
      <path id="path17267" d="m445.21 16.06h-35.16v2.277h30.786l-30.786 44.06v3.965l35.16-50.3m-35.16 12.815v-2.267h7.353l-7.353 10.536v-3.98l2.997-4.289h-2.997m0 54.618h11.622l4.418-12.827h-16.04v2.277h12.854l-2.861 8.265h-9.993v2.285m.0001-67.43h-9.235l-4.447 12.816h13.682v-2.267h-10.47l2.861-8.272h7.609v-2.277m0 17.11l-29.738 42.572v3.978l29.738-42.57v-3.98m-29.739 12.154v-18.559l1.052-8.423h-1.052v-2.277h3.604l-3.604 29.26m0 38.17h29.738v-2.285h-29.738v2.285m29.739-12.828v2.277h-7.365l7.365-10.551v3.965l-2.985 4.309h2.985m-29.739 5.072l-4.562 6.531 4.562-36.949v-18.559l-6.717 54.45h-14.672l1.648-10.542h-6.795v2.277h4.134l-1.627 10.55h24.03v-2.285h-1.036l1.036-1.493v-3.978m-.0001-59.677v2.277h-18.393l-8.144 14.357v-4.626l6.819-12.01h19.718m-26.536 12.01l-29.22 51.36 3.06-8.768h-19.14l18.876-54.606h-21.15l-.967 2.818v6.933l2.6-7.474h16.322l-18.885 54.606h19.12l-2.856 8.265h-16.301v2.285h36.543l5.653-10.55h6.336v-2.277h-7.721l-5.629 10.542h-14.263l27.613-48.51v-4.625m-48.532-9.191l-22.374 64.61h22.374v-2.285h-19.19l19.19-55.4v-6.933" />
      <path id="path17269" d="m462.07 63.41h12.171l4.44-12.825h-16.52l7.523-21.705h20.369l4.451-12.816h-32.435v2.277h29.21l-2.85 8.272h-20.373l-5.99 17.335v8.91h13.423l-2.861 8.272h-10.562v2.28h.002m0 20.09h9.107l4.43-12.827h-13.537v2.277h10.338l-2.858 8.265h-7.48v2.285m-4.333-20.09h4.333v-2.279h-5.941l-4.086 11.816h10.03v-2.277h-6.841l2.508-7.26m4.333-47.34v2.277h-7.474l-11.955 34.518h-4.992l-2.878 8.272h4.998l-6.958 20.08h29.26v2.285h-32.422l6.949-20.09h-5.02l4.439-12.825h5l11.942-34.521h9.105m0 27.884l-3.075 8.91h3.075v-8.91" />
      <path id="path17271" d="m523.44 58.22c4.802-2.143 15.12-8.07 19.39-20.394 1.783-5.123 1.382-9.534-1.163-13.11-3.989-5.586-13.1-8.657-25.663-8.657h-5.06v2.277h5.06c11.645 0 20.311 2.806 23.811 7.701 2.089 2.936 2.372 6.656.856 11.04-4.444 12.842-16.04 18.294-19.513 19.645l-1.518.617 1.119 1.216c1.277 1.41 4.409 5.192 5.501 9.872 1.099 4.487.045 8.931-1.228 12.776h-14.09v2.285h15.708c1.495-4.328 3.132-10.242 1.831-15.587-.987-4.181-3.387-7.672-5.04-9.683m-12.495-42.16h-10.511l-23.328 67.43h21.17l5.717-16.516c1.121 1.336 2.292 3.3 2.901 5.764.664 2.696-.13 7.06-1.4 10.752h5.448v-2.285h-2.327c.967-3.407 1.169-6.264.504-9.01-1.012-3.925-3.541-7.475-6.162-9.226l-6.313 18.234h-16.341l21.751-62.871h8.888v-2.277" />
      <path id="path17273" d="m523.72 29.71c-1.285-1.794-4.183-2.778-7.42-2.913v4.605l.794-2.309c1.764.087 3.76.519 4.772 1.941 1.19 1.676.692 4.253.048 6.14-1.19 3.415-3.348 6.201-5.614 8.284v3.188c3.237-2.433 6.136-6.04 7.744-10.742 1.213-3.453 1.075-6.209-.324-8.194m-7.42-2.912c-.288-.012-.546-.024-.811-.024l-8.803 25.487c2.93 0 6.423-1.228 9.614-3.615v-3.188c-2.242 2.064-4.592 3.452-6.265 4.1l6.265-18.16v-4.604" />
      <path id="path17275" d="m575.57 28.3c2.225 0 4.153.392 5.703.798l11.498-10.728c-2.241-1.415-9.04-2.735-13.618-2.735-6.862 0-13.02 1.287-18.08 3.628v2.612c4.972-2.532 11.175-3.953 18.08-3.953 3.389 0 6.866.472 9.446 1.229l-7.972 7.438c-1.45-.354-2.877-.571-5.058-.571-4.311 0-8.05 2.12-9.09 5.156-1.715 4.965 1.648 9.08 6.333 14.78 6.166 7.431 7.443 11.902 5.193 18.386-2.376 6.865-8.554 12.151-16.938 14.99v2.387c9.416-3.01 16.408-8.891 19.07-16.622 2.837-8.188.114-13.749-5.562-20.593-4.911-5.96-7.222-8.98-5.97-12.586.643-1.793 3.215-3.616 6.956-3.616m-14.496 38.807v-7.757c.876 2.345 1.056 4.743.131 7.428l-.131.329m0-47.844c-6.471 2.992-11.131 7.705-13.219 13.689-2.161 6.288-.645 11.446 5.61 19.07 5.103 6.104 7.103 9.573 5.584 14.01-1.01 2.877-4.817 4.889-9.26 4.889-2.998 0-6.536-.808-8.361-1.651l-11.95 11.214c3.937 1.851 10.25 3.444 16.594 3.444 5.413 0 10.487-.783 15-2.214v-2.387c-4.447 1.497-9.549 2.308-15 2.308-5.15 0-9.198-.593-12.547-1.847l8.409-7.854c2.063.795 4.858 1.264 7.855 1.264 5.257 0 9.83-2.486 11.285-6.093v-7.757c-1.075-2.854-3.234-5.629-5.854-8.775-5.743-7.01-7.108-11.413-5.209-16.875 1.731-4.998 5.651-9.07 11.06-11.823v-2.614" />
    </g>
    <g id="g17277" fill="#d63647">
      <path id="path17279" d="m424.64 355.15c-1.202 1.29-2.458 2.462-3.806 3.507-9.788 12.12-19.357 23.2-28.509 33.24-.067.082-.154.176-.218.271-2.731 2.958-5.392 5.843-8.01 8.609-.174.175-.307.333-.485.499-2.633 2.808-5.254 5.534-7.832 8.159 0 .012 0 .012-.022.043-36.08 36.9-62.19 55.31-62.19 55.31 0 0-.135-.111-.38-.281-.086-.052-.154-.111-.282-.189-.2-.166-.485-.368-.841-.62-.219-.163-.435-.325-.7-.53-.354-.265-.777-.569-1.213-.914-.331-.245-.616-.451-.988-.732-.77-.592-1.612-1.24-2.569-1.997-.491-.361-1.01-.793-1.542-1.212-.592-.459-1.197-.928-1.829-1.446-.66-.518-1.32-1.056-2.025-1.63-.613-.506-1.253-1.012-1.914-1.553-.786-.648-1.581-1.296-2.441-2.01-.618-.493-1.253-1.05-1.894-1.582-1.784-1.504-3.696-3.125-5.697-4.862-.592-.517-1.186-1.01-1.777-1.553-1.151-.976-2.333-2.025-3.508-3.084-.718-.62-1.403-1.24-2.133-1.883-1.255-1.12-2.507-2.27-3.823-3.456-.685-.644-1.409-1.3-2.111-1.961-4.601-4.246-9.552-8.926-14.741-14.02-.728-.72-1.479-1.432-2.221-2.166-1.562-1.566-3.175-3.19-4.8-4.822-.81-.816-1.604-1.645-2.446-2.487-1.673-1.724-3.361-3.45-5.076-5.254-.555-.576-1.102-1.17-1.671-1.738-3.68-3.867-7.421-7.915-11.266-12.144-.53-.59-1.057-1.154-1.605-1.751-1.78-1.997-3.634-4.072-5.46-6.147-.897-1.031-1.823-2.059-2.728-3.118-1.821-2.087-3.647-4.207-5.494-6.377-.885-1.044-1.783-2.127-2.688-3.179-6.18-7.353-12.492-15.15-18.86-23.378-.988-1.287-2-2.553-2.965-3.846-1.854-2.411-3.697-4.851-5.55-7.332-1.074-1.46-2.152-2.938-3.253-4.419-1.821-2.511-3.692-5.04-5.518-7.614-.995-1.388-2.01-2.823-2.992-4.233-3.416-4.835-6.823-9.816-10.21-14.904-1.123-1.645-2.222-3.272-3.302-4.94-1.711-2.599-3.429-5.258-5.12-7.922-1.255-1.966-2.514-3.934-3.769-5.931-1.671-2.661-3.339-5.344-4.988-8.06-1.301-2.123-2.577-4.288-3.878-6.451-1.605-2.707-3.23-5.396-4.84-8.167-2.548-4.407-5.082-8.896-7.584-13.444v-.006c-22.73-41.16-43.677-88.24-60.02-141.36h149.52c-.04-.27-.13-.534-.17-.799-.489-2.695-.687-5.718-.599-8.766h-161.68l3.776 12.372c38.524 125.17 102.77 216.72 149.88 271.49 51.17 59.5 92.75 88.992 94.51 90.23l5.479 3.878 5.518-3.878c1.74-1.234 43.31-30.729 94.49-90.23 6.978-8.115 14.369-17.14 21.959-26.849-3.81.446-8.78.031-10.895-.365" />
      <path id="path17281" d="m584.49 348.58c-8.696-4.701-30.06-2.962-38.708-1.85-6.665.849-12.512.273-17.572-.933 2.79 1.782 5.962 3.35 8.685 4.062 5.349 1.415 17.14 1.415 21.958.795 4.815-.629 13-.152 15.516.19 2.523.351 10.796 2.051 15.508 4.086-.68-2.734-2.973-5.05-5.387-6.35" />
      <path id="path17283" d="m280.82 108.06h8.06c-.793-3.103-1.292-6.412-1.161-9.565h-17.496c4.779 3.723 8.538 7.173 10.601 9.565" />
      <path id="path17285" d="m614.09 295.37c-.61.119-1.256.175-1.824.057 11.772-13.792 10.806-28.15 9.263-35.728-3.697 23.648-21.14 34.27-37.446 33.89-10.8-.253-16.896-1.683-27.412-7.096-10.514-5.423-13.727-18.11-28.666-24.658 2.043 4.079 2.419 12.234-.929 16.05-3.321-4.817-14.321-16.223-23.912-25.01 22.576-41.02 43.784-88.42 60.28-142.01l3.802-12.372h-114.31v9.565h101.36c-15.95 51.895-36.37 97.92-58.48 138.38-1.261-1.035-2.441-1.961-3.476-2.707-.485-.341-.928-.681-1.358-.961-7.263-4.791-22.738-16.03-38.05-23.02v21.816c8.778 3.862 24.526 11.08 36.37 18.09.744.466 1.515.905 2.245 1.368.835.501 2.637 1.845 4.975 3.601 7.06 5.25 19 14.1 23.819 14.495-.81 2.558-3.01 4.419-6.135 5.452 9.546 6.19 29.675 13.938 43.476 15.33-4.313 5.242-28.779 17-45.04 7.277-9.554-5.692-18.414-15.382-27.833-22.804-.488-.383-.968-.784-1.471-1.154-1.633-1.241-3.305-2.416-4.996-3.476-3.629-2.276-5.767-4.368-11.06-6.403-2.01 5.237-7.202 11.372-14.353 13.827v12.902c6.186 3.25 13.467 7.421 20.242 11.817 6.183 4.03 11.902 8.244 15.931 12.13 6.202 6.03 7.895 13.887 9.324 19.729 5.705-5.561 5.04-20.959 3.433-24.25 5.387 3.617 9.708 7.838 14.806 9.361 3.874 1.529 8.627 2.676 13.537 3.441 22.812 2.461 37.548-16.551 56.822-11.319-5.718-1.942-10.915-6.709-13.11-13.998 10.07 8.985 15.593 8.929 28.576 6.114 16.346-3.559 29.17-4.15 43.26 3.93 0 .002-4.12-22.863-31.667-21.666m-161.16-196.87h-144.26c2.444 1.66 4.752 3.312 7.06 4.667 3.827-.319 9.917-.509 13.705.053.177-1.737 2.133-3.629 3.916-3.088 4.226.945 12.13 4.463 17.334 7.934h102.24v-9.566m0 121.26c-4.689-2.143-9.349-3.894-13.75-4.929-2.458 2.071-8.584 14.01-8.624 18.806-11.614-6.922-14.916-17.584-17.825-26.434-6.313 5.288-20.19 12.76-23.975 12.05 2.023-2.353 2.858-11.879 1.078-15-5.04 5.522-13.842 15.07-22.906 15.42 1.478-2.198 2.642-12.295.091-15.484-3.127 5.174-11.682 11.638-19.737 12.448.42-2.44.814-6.135-1.744-8.664-4.834 7.792-13.764 14.475-21.91 14.521.929-5.791-.432-10.865-4.463-14.195-4.049 6.04-8.884 13.06-21.671 13.689-.085-4.613-4.288-14.468-8.692-16.01-3.692 3.68-7.517 18.578-7.918 22.4-.553 5.503 1.736 13.448 8.298 12.788 5.696-.577 11.413-7.502 13.575-12.04 5.932 1.835 10.226 11.413 11.653 16.603 3.286-2.218 9.333-7.874 10.779-13.526 7.222 4.744 10.123 13.621 10.1 20.329 4.174-3.479 9.128-9.917 10.494-14.658 5.985 3.781 11.325 15.351 10.362 24.358 3.517-1.202 7.985-3.896 11-7.654 5.317 4.52 8.554 14 7.163 21.14 2.909-.506 11.254-6.191 13.317-10.124 2.661 4.113 4.748 18.522 3.76 24.12 5.743-3.505 14.656-13.562 17.997-19.894 1.759 3.106 3.855 9.759 4.048 14.495 10.779 2.846 24.44 8.361 33.09 12.531 1.914.921 4.088 2.01 6.4 3.241v-12.902c-2.353.842-4.907 1.253-7.63 1.111 1.517-8.16-1.676-13.638-5.195-18.58-3.547-4.937-12.827-12.04-19.775-16.08-15.274-8.599-33.32-11.397-50.38-14.03-3.566-.783-13.357-2.684-14.238-2.861-.62-.736-2.535-.377-3.126-1.101-1.582-.205-3.077-.418-4.401-.627.594-.458 4.973-1.683 8.135-2.585.404-.252 1.151-.53 3.261-.957 5.523-1.866 25.21-2.728 35.534-1.395 5.807.734 19.695 2.482 27.613 3.983 7.924 1.483 19.538.724 22.88-2.541 1.012 1.209 1.276 5.467.707 7.194 0 0 2.554 1.063 6.618 2.858v-21.816z" />
    </g>
    <g id="g17287" fill="#4da691">
      <path id="path17289" d="m375.75 409.48c-22.877-.489-54.4 9.06-62.21 16.11 7.741 6.104 13.663 15.1 21.493 22.1 10.65-9.08 24.69-21.819 40.72-38.21" />
      <path id="path17291" d="m147.19 202.09c-.525 1.578-3.451 6.84-3.846 8.397l-3.412-1.272c.796-1.309 6.207-5.938 7.258-7.125" />
      <path id="path17293" d="m156.51 181.15l-4.305 6.904-5.349-1.823c3.148-1.825 6.14-4.311 9.654-5.081" />
      <path id="path17295" d="m173.5 162.99c-1.821 1.814-4.568 4.566-6.664 6.518l-8.353-5.617c5.1-.783 9.39-1.037 15.02-.901" />
      <path id="path17297" d="m203.91 149.49c-6.25 1.691-12.13 5.02-18.266 7.222-1.254-2.676-3.25-6.788-7.164-8.08 7.825-1.185 17.726-1.873 25.43.862" />
      <path id="path17299" d="m221.68 138.82c2.336.231 5.942 1.749 6.802 2.476 0 0-1.339 2.549-3.455 5.985-.26-3-2.312-5.721-3.347-8.461" />
      <path id="path17301" d="m218.72 228.49c5.871 8.98 13.08 15.419 17.358 19.626-4.095-1.356-15.14-1.188-23.06-.98 1.323-2.214 4.158-14.598 5.698-18.646" />
      <path id="path17303" d="m244.72 258.39c4.071 4.513 5.657 9.608 7.174 13.214-13.335-3.806-25.81.506-37.683 5.432-2.131-5.01-2.333-10.919-2.468-16.551 4.51-4.048 22.14-5.096 32.977-2.095" />
      <path id="path17305" d="m253.99 280.13c6.267 4.748 9.238 13.148 14.14 20.18-19.556.205-41.577 10.688-41.577 10.688 0 0-8.03-13.61-9.551-24.23 9.488-6.822 29.04-8.921 36.988-6.634" />
      <path id="path17307" d="m275.63 308.56c6.312 6.728 12.436 13.829 19.278 19.591-14.546 6.329-31.29 9.919-44 20.389-6.716-8.257-14.541-16.961-18.523-26.485 12.667-8.623 28.05-12.7 43.25-13.495" />
      <path id="path17309" d="m304.27 337.12c5.637 7.673 24.781 16.578 34 22.801-21.414.596-40.844 9.09-59.17 21.29-6.688-6.279-13.926-14.345-20.17-22.02 13.218-12.21 28.425-19.559 45.34-22.07" />
      <path id="path17311" d="m286.13 389.63c20.263-11.304 42.18-20.223 66.92-16.961 9.131 7.63 17.337 15.839 25.853 24.722-17.796-.269-51.923 3.139-71.35 16.187-8.266-6.61-21.422-23.948-21.422-23.948" />
      <path id="path17313" d="m269.62 190.42c11.02 3.901 26.624 2.738 41.604.313 15.492-2.507 84.17-18.809 107.63-18.909 2.551-.001 4.549.151 5.895.558-9.109-3.604-55.18-1.497-77.51 6.496-20.48 7.305-59.768 9.76-72.05 2.965 4.755-6.377 7.412-20.786.819-26.443.521 15.512-13.512 33.525-33.794 33.929 7.98 4.328 15.29 5.439 21.361 2.787-5.409 14.08-9.105 38.815-6.581 42.74 2.792 4.302 10.255 13.06 10.255 13.06l7.348 6.842c0 0-11.721-15.969-13.199-22.358-1.496-6.394 6.096-32.937 8.226-41.964v-.012" />
    </g>
    <g id="g17315" fill="#008061">
      <path id="path17317" d="m177.95 173.57c-.577 1.897-1.525 6.451-1.525 6.451l-7.581 6.626c0 0-2.669 1.142-5.113 1.9 2.644-3.595 11.467-12.498 14.219-14.977" />
      <path id="path17319" d="m154.06 212.87c.486 2.088.194 6.4.194 6.4 0 0-6.857 9.131-8.689 15.15 2.361-7.326 3.784-15.15 8.495-21.552" />
      <path id="path17321" d="m160.51 225.9c3.403-.762 8.04-.778 11.195 0-11.02 12.137-15.931 23.324-20.6 35.33-1.599-4.04-2.857-9.273-2.481-13.571 2.724-7.324 7.838-15.1 11.886-21.754" />
      <path id="path17323" d="m161.87 207.13c4.158-5.902 16.831-18.58 16.831-18.58 0 0 4.974-1.102 8.511-.746-.554 3.214-.766 12.144-1.163 13.05-6.906 4.312-13.07 10.439-18.55 16.06l-5.873.648.244-10.44" />
      <path id="path17325" d="m178.13 216.43c0 0 9.349-8.694 12.144-10.06l6.242.188c-4.708 2.089-14.78 10.998-18.765 15.169-.175-2.265.379-5.301.379-5.301" />
      <path id="path17327" d="m186.68 169c5.743-3.395 18.17-10.408 18.17-10.408 0 0 7.504-.81 11.396.191-1.56 3.778-6.071 9.766-6.071 9.766-6.27 3.389-14.477 7.487-19.845 11.931h-7.434c.787-4.048 1.957-7.831 3.783-11.48" />
      <path id="path17329" d="m197.28 185.32c5.483-3.913 12.915-7.708 18.786-10.46 3.963 1.353 7 2.486 10.321 5.357-.917 3.783-3.144 7.581-4.048 10.972l-17.887 10.962c-2.883-.387-5.103-2.474-7.856-3.395-.086-4.53.024-8.728.684-13.436" />
      <path id="path17331" d="m453.38 334.82c-6.754 4.13-13.992 5.507-17.755 5.546-3.736.04-11.576-.876-18.917-2.225-7.395-1.34-17.605-5.949-26.714-8.502-5.676-2.238-10.205-6.182-12.537-11.562 8.531 7.161 19.38 9.925 25.404 9.609 4.226 2.977 11.512 5.851 19.829 3.747 2.815 3.969 12.607 3.313 16.235-.11 3.822 2.363 9.99 3.968 14.455 3.497" />
      <path id="path17333" d="m388.54 146.54c-3.545-.375-6.933-.398-10.162-1.289 1.359-1.818 3.719-3.438 5.582-3.695l4.76 4.72-.18.264" />
      <path id="path17335" d="m358.07 140c-4.723-3.597-21.603-17.06-30.912-17.488 0 0 2.49 3.075 2.49 5.479-6.273-.684-12.1-.553-16.306 1.422-5.608 3.775-12.673 15.832-12.385 21.397-2.793.949-5.058-2.652-9.704-2.568 8.273-7.927 4.337-23.754 14.15-30.707 5.349-1.349 27.761-5.01 33.661-1.581 6.229 2.375 17.448 13.11 22.638 17.06 2.909 2.534 3.301 9.582 5.06 12.619.0001.0001-3.997-2.079-8.689-5.629" />
      <path id="path17337" d="m271.45 137.54c-2.667-4.02-3.26-15.356 1.298-20.769-5.882-6.719-21.429-19.993-33.944-23.962 6.812 5.681 15.179 13.08 17.09 17.314-4.335-1.827-11.603-1.771-12.832-.502 5.788 1.956 10.147 4.791 12.63 7.594-3.628.042-6.467 1.741-9.435 3.979 3.362.383 14.366 2.894 15.792 6.455.027 2.196.378 4.677.05 6.55-2.616-1.023-4.691-1.481-7.31-2.238-1.556-7.094-16.15-8.588-17.05-9.359 2.971-1.74 5.3-2.04 4.505-4.836-.79-2.785-5.891-9.993-10.182-13.245 2.942.028 5.411-.73 6.574-1.743.553-4.668-4.969-10.736-9.366-15.05 17.88 2.04 39.487 18.15 46.569 28.873-3.293 4.635-4.394 13.938-4.394 20.934" />
      <path id="path17339" d="m487.63 188.32c.833-3.416.48-9.1.26-10.673-.196-1.584-.77-4.125-1.316-5.167-.966.254-1.87.59-2.509 1.535 1.272 2.351 2.64 4.537 2.554 7.396-.092.43-.486.6-.839.771-2.992-4.108-10.672-11.509-14.257-14.13 1.632-2.348 4.224-3.616 6.339-6.116 2.86-1.89 5.982-.055 8.998-1.51.529-2.792-3.479-2.315-4.776-2.222-4.977.352-20.903 8.771-20.286 14.883-.088.886-1.051.784-1.475.784-1.6-2.871-1.253-10.499-3.455-13.04-5.061-6.443-9.809-12.12-15.615-18.393-.537-.24-1.146-.415-1.829-.532v11.574c5.703 4.54 11.354 11.965 12.648 13.494.988 1.17 3.324 4.61 1.691 6.419-3.387-1.505-5.652-4.643-8.622-7.43-.569-.869-1.517-2.182-2.901-2.353-.553 1.655 2.724 4.605 1.759 5.812-1.673-.902-3.06-2.037-4.576-3.128v10.337c2.726 1.234 5.34 2.716 7.854 4.524 7.877 5.682 26.845 13.45 42.2 14.565-1.627-1.56-2.416-5.138-1.843-7.403m-48.21-46.41c-4.926-.921-12.433 1.047-12.433 1.047-3.962.497-8.974 6.708-12.626 7.976.064 1.831 4 6.274 4.332 7.243-.245.597-.725 1.379-1.208 1.719-5.107-2.01-15.575-4.269-20.457-4.867-9.772-1.173-33.773.617-41.32.831-14.219-1.577-33.487 1.21-42.592 3.305-8.298 1.897-18.747 6.06-24.45 8.911 1.696-2.837 2.264-5.881 2.202-8.388-7.127-6.594-27.811-15.318-43.18-12.587-2.818 1.633-6.142 4.847-7.925 7.701-2.886 4.756-4.77 9.639-5.946 15.09l-.062.872v4.263c.966 13.416 10.977 24.02 17.56 29.13-1.127.506-3.035 1.448-6.23.736-1.536 4.328-2.106 10.774-.945 16.13-1.541 1.842-4.948 3.356-7.459 4.02 0 0 23.829 30.411 31.15 39.475 11.18.062 25.299 2.316 34.1 4.431 8.803 2.094 31.861 10.989 49.42 22.02-20.223-19.569-48.848-30.562-55.07-32.34-6.226-1.785-16.982-3.397-21.693-3.872l-7.348-6.842c0 0-7.464-8.754-10.255-13.06-2.524-3.925 1.172-28.664 6.581-42.74-6.071 2.652-13.38 1.541-21.361-2.787 20.283-.404 34.32-18.417 33.794-33.929 6.593 5.657 3.936 20.07-.819 26.443 12.283 6.795 51.571 4.34 72.05-2.965 22.335-7.992 68.41-10.1 77.51-6.496-1.346-.407-3.343-.568-5.895-.558 7.21.517 14.167 1.922 20.569 4.808v-10.337c-1.12-.822-2.354-1.632-3.832-2.304-3.454-1.564-7.851-2.846-11.07-3.617 3.565-3.185 6.757-8.194 11.375-9.298 1.148.632 2.357 1.455 3.524 2.405v-11.576z" />
    </g>
    <g id="g17341" fill="#231f20">
      <path id="path17343" d="m362.82 43.495l-8.67 16.625h5.68z" />
      <path id="path17345" d="m186.26 60.29c1.605-4.616-.441-7.948-1.606-8.992-.986.119-2.311.221-3.343.265l-6.558 18.98c5.345-.607 9.416-4.181 11.507-10.253" />
      <path id="path17347" d="m132.3 43.495l-8.65 16.625h5.68z" />
      <path id="path17349" d="m269.27 33.19c.264-.759.462-1.851-.18-2.723-.608-.902-2.038-1.419-3.937-1.529l-3.213 9.284c3.527-.457 6.428-2.396 7.33-5.03" />
      <path id="path17351" d="m193.26 33.19c.264-.759.461-1.851-.154-2.723-.641-.902-2.046-1.419-3.957-1.529l-3.213 9.284c3.514-.457 6.422-2.396 7.324-5.03" />
      <path id="path17353" d="m262.27 60.29c1.613-4.616-.441-7.948-1.623-8.992-.974.119-2.291.221-3.326.265l-6.553 18.98c5.344-.607 9.415-4.181 11.502-10.253" />
      <path id="path17355" d="m444 169.43c.964-1.206-2.312-4.156-1.759-5.812 1.384.171 2.333 1.483 2.901 2.353 2.97 2.787 5.235 5.924 8.622 7.43 1.632-1.81-.703-5.25-1.691-6.419-1.584-1.853-9.461-12.3-16.17-15.898-4.618 1.104-7.81 6.113-11.375 9.298 3.217.771 7.614 2.053 11.07 3.617 3.449 1.571 5.474 3.85 8.406 5.431" />
      <path id="path17357" d="m521.91 37.17c.645-1.887 1.142-4.463-.048-6.14-1.012-1.422-3.01-1.854-4.772-1.941l-7.06 20.465c3.364-1.309 9.502-5.591 11.879-12.384" />
      <path id="path17359" d="m561.12 98.5h6.134l-3.802 12.372c-.767 2.467-1.54 4.929-2.332 7.372v61.892c24.863-52.847 47.521-112.76 65.58-180.13h-65.58v19.239c5.058-2.332 11.226-3.607 18.04-3.607 4.579 0 11.376 1.32 13.618 2.735l-11.498 10.728c-1.55-.406-3.479-.798-5.703-.798-3.741 0-6.313 1.823-6.956 3.616-1.252 3.606 1.059 6.626 5.97 12.586 5.677 6.844 8.4 12.405 5.562 20.593-2.666 7.719-9.615 13.598-19.03 16.598v16.807m-24.427 0h24.427v-16.809c-4.507 1.455-9.594 2.238-15.05 2.238-3.236 0-6.475-.419-9.38-1.072v15.643m24.426 19.744c-7.354 23.11-15.6 45.02-24.427 65.762v44.708c8.317-15.484 16.48-31.663 24.427-48.578v-61.892m0-118.24h-24.427v20.363c2.095 1.213 3.787 2.66 4.981 4.355 2.545 3.578 2.946 7.989 1.163 13.11-1.472 4.266-3.676 7.764-6.144 10.613v25.27l4.736-4.446c1.826.843 5.364 1.651 8.361 1.651 4.442 0 8.249-2.01 9.26-4.889 1.519-4.437-.481-7.906-5.584-14.01-6.255-7.626-7.771-12.785-5.61-19.07 2.088-6.02 6.771-10.729 13.264-13.71v-19.238m-50.604 98.5h26.18v-15.643c-2.787-.632-5.277-1.475-7.213-2.372l7.213-6.768v-25.27c-4.618 5.353-10.119 8.373-13.246 9.781 1.656 2.01 4.056 5.501 5.04 9.683 1.301 5.346-.335 11.259-1.831 15.587h-16.14v15m26.18 85.51c-8.265 19.449-17.09 37.86-26.18 55.21v20.662c1.871 1.838 3.746 3.685 5.48 5.49 6.974-11.746 13.886-23.961 20.698-36.65v-44.709m0-184h-26.18v16.06h5.496c8.76 0 15.843 1.505 20.682 4.302v-20.364m-50.882 239.28c2 1.36 3.758 2.552 5.175 3.494.43.281.874.621 1.358.961 2.108-12.853 3.1-23.19 3.171-28.25.81-.167 5.411-2.652 5.98-3.614.75-3.468.988-6.921 1.494-10.731-2.968-2.884-5.323-7.35-6.268-11.785.197-6.237.639-13.523 1.536-19.492-1.251-6.601-2.702-13.274-4.528-19.532-.994-2.305-4.42-3.806-7.919-3.656v11.752c.771.304 1.255.887 1.056 1.997-.347.166-.7.301-1.056.392v11.902c.242-.095.506-.178.771-.242.546 1.041 1.121 3.582 1.316 5.167.221 1.578.574 7.257-.26 10.673-.572 2.265.216 5.843 1.845 7.404-1.213-.08-2.417-.198-3.672-.368v9.329c.987.284 1.937.549 2.858.791 3.72 3.565 2.317 15.911-.75 22.497-.722-.969-1.455-2.135-2.107-3.44v14.749zm0-140.78h24.705v-15h-5.01c1.27-3.696 2.064-8.06 1.4-10.752-.609-2.464-1.78-4.428-2.901-5.764l-5.716 16.516h-12.476v15m24.705 140.71c-2.417 4.648-4.881 9.202-7.348 13.697 2.421 2.213 4.911 4.577 7.348 6.965v-20.662m0-239.21h-24.705v16.06h8.693l-4.451 12.816h-4.242v29.492l14.631-42.31h10.07v-16.06m-24.705 182.18v-4.781c.506 1.23.854 2.535.815 4.01-.092.429-.486.588-.815.771m-29.723 172.4c8.625-11.393 17.383-23.497 26.18-36.32-2.819-2.111-5.869-4.252-9.09-6.359-5.657-3.668-11.681-7.193-17.09-10.145v11.555c3.053 1.234 5.717 3.236 6.93 4.597-1.831 2.123-4.269 4.411-6.93 6.084v30.592m-.0001-133.32c11.22 5.518 22.264 12.942 29.723 18.03v-14.749c-2.707-5.439-4.471-13.215-3.146-18.03-2.819 1.224-6.159 4.075-8.144 6.211-1.031-3.036-2.722-7.638-5.06-9.963-1.32 1.957-4.265 5.073-6.313 5.892-1.605-2.203-3.103-5.769-4.198-8.484-.71.992-1.724 2.111-2.863 3.171v17.922m29.724-74.58c-.196.014-.399.024-.6.039-7.611 1.957-15.856 3.199-23.1 6.528-1.432-1.938-2.81-5.824-6.02-10.25v16.812l.788 1.026c2.201 2.54 1.854 10.168 3.455 13.04.424 0 1.387.102 1.475-.784-.617-6.112 15.309-14.532 20.286-14.883.799-.056 2.551-.245 3.72.226v-11.753m-29.724-48.18h29.723v-15h-8.697l8.697-25.12v-29.493h-16.13l-7.523 21.705h16.52l-4.44 12.825h-16.504l-1.648 4.785v2.476h19.518l-4.43 12.827h-15.09v15h-.002m29.723-98.5h-29.723v16.06h29.723v-16.06m0 160.82v11.902c-.656.242-1.276.608-1.739 1.293.617 1.145 1.254 2.229 1.739 3.386v4.781h-.024c-2.992-4.108-10.672-11.509-14.257-14.13 1.632-2.348 4.224-3.616 6.339-6.116 2.507-1.672 5.278-.43 7.942-1.118m0 34.537v9.329c-7.724-2.186-17.228-5.28-21.409-6.83-2.091-.794-5.085-2.146-8.314-3.775v-7.894c8.314 3.981 19.54 7.81 29.723 9.17m-48.38 183.01c6.11-7.562 12.36-15.491 18.657-23.785v-30.591c-2.465 1.541-5.082 2.564-7.55 2.486-3.431-.1-7.695-2.593-10.625-4.361-.154.123-.306.23-.482.344v9.951c.57-.313 1.051-.685 1.494-1.083 3.822 2.363 9.99 3.968 14.455 3.498-5.806 3.554-11.941 5.081-15.949 5.455v38.09m18.657-76.61c-3.517-1.913-6.793-3.585-9.549-4.914-2.64-1.276-5.759-2.676-9.107-4.083v19.604c.24-.254.482-.501.7-.735 1.301 1.747 2.513 3.949 2.662 6.06 3.59.832 9.943-2.851 11.6-5.362 1.254.152 2.498.518 3.695.982v-11.556m-18.658-84.74c.66-1.012 1.268-1.783 1.758-2.183 5.392 1.277 11.18 3.612 16.899 6.432v-17.922c-1.035.929-2.208 1.81-3.41 2.505-2.404-2.697-5.961-9.49-6.471-14.05-2.688 1.513-5.807 5.438-8.775 10.06v15.16m18.656-74.01c-3.035-4.159-7.68-8.781-15.511-12.675-1.083.012-2.134.063-3.146.155v11.214c1.43.062 2.771.281 3.83.75 5.495 5.942 10.06 11.334 14.827 17.367v-16.811m-18.657-44.499h18.657v-15h-18.657v15m18.657-98.5h-18.657v16.06h7.783l-7.783 11.144v23.376h3.589l11.942-34.521h3.125v-16.06m.0001 68.19v2.476h-.86l.86-2.476m0 117.99v7.894c-4.046-2.032-8.471-4.479-11.964-6.633-1.619-.988-4.1-2.134-6.693-2.854v-8.808c3.431 1.364 6.732 3.128 9.855 5.374 2.178 1.572 5.213 3.303 8.802 5.03m-27.678 203.08c2.989-3.562 5.985-7.187 9.02-10.902v-38.09c-.66.052-1.279.091-1.807.091-1.689.02-4.25-.159-7.215-.486v15.711c2.249.156 4.882.196 7.127-.077-2.396 3.069-4.772 6.077-7.127 9.01v24.741m9.02-96.51c-2.886-1.206-5.942-2.418-9.02-3.578v29.31c2.989-1.087 6.577-3.806 9.02-6.127v-19.603m-9.02-60.51c.684.479 1.408.94 2.155 1.393.04-3.867 4.02-12.386 6.866-16.623v-15.16c-3.61 5.598-6.997 12.215-9.02 16.782v13.605m9.02-101.76c-3.214.264-6.203.856-9.02 1.672v10.483c1.976-.431 5.721-1.103 9.02-.941v-11.214m-9.02-31.98h9.02v-15h-7.785l6.949-20.09h-5.02l4.439-12.825h1.416v-23.376l-9.02 12.894v58.4m9.02-98.5h-9.02v16.06h9.02v-16.06m0 175.78v8.808c-2.428-.641-4.931-.94-6.973-.4-.733.182-1.435.455-2.048.749v-11.828c3.079.648 6.115 1.521 9.02 2.671m0 146.67v9.951c-2.428 1.358-5.942 2-9.02 1.676v-9.242c2.771.21 5.985-.425 9.02-2.385m-22.01 81.919c4.274-4.848 8.585-9.886 12.985-15.11v-24.742c-4.447 5.527-8.775 10.765-12.985 15.701v24.15m12.985-115.2c-4.399-1.631-8.842-3.153-12.985-4.316v29.12c2.727-2 5.371-3.668 6.451-4.349.197 3.969 2.27 8.689 3.605 9.309.832.126 1.831-.052 2.928-.454v-29.31m-12.984-74.35c2.448 6.218 6.01 12.555 12.985 17.413v-13.604c-.462 1.031-.857 1.983-1.189 2.762-6.625-7.897-7.123-20.287-4.361-30.675.823-1.818 2.559-4.344 5.551-5.778v-11.828c-3.108-.633-6.289-1.055-9.546-1.286-1.063 0-2.201.04-3.438.123v42.873h-.002m12.985-82.68c-5.04 1.475-9.396 3.66-12.985 5.873v12.454c3.526-1.915 7.987-7.07 11.575-7.519 0 0 .553-.135 1.41-.324v-10.484m-12.985-33.651h12.985v-58.4l-12.985 18.593v11.975h10.672l-4.418 12.827h-6.254v15m12.985-98.5h-12.985v16.06h12.985v-16.06m0 324.84v9.242c-2.443-.253-4.616-1.096-5.72-2.649-2.53.636-4.969.823-7.265.681v-7.854c2.778.24 5.589-.033 7.434-1.325 1.326 1.012 3.287 1.742 5.551 1.905m0 15.04v15.711c-1.541-.101-2.904-.273-3.768-.441-1.202 1.29-2.458 2.462-3.806 3.507-1.711 1.353-3.517 2.519-5.411 3.526v-24.295c.442.1.843.176 1.283.254 4 .728 8.136 1.348 11.702 1.738m-12.985-180.73v-5.795c1.213 1.937 3.061 4.174 3.28 4.82-.245.597-.725 1.379-1.208 1.719-.619-.25-1.319-.49-2.072-.744m-8.05 254.21c2.66-2.915 5.325-5.91 8.05-8.987v-24.15l-1.847 2.139c-2.066 2.424-4.131 4.795-6.202 7.12v23.878m8.05-128.5c-.676-.2-1.341-.38-1.977-.553-.193-4.736-2.289-11.389-4.048-14.495-.53 1.021-1.206 2.149-2.023 3.319v17.247c.088 1.317.088 2.658 0 3.993v27.26c1.1-2.242 4.665-5.199 8.05-7.652v-29.12m-8.05-73.77c2.071-1.329 3.916-2.678 5.364-3.89.822 2.439 1.657 5.02 2.685 7.628v-42.873c-2.397.128-5.1.368-8.05.7v8.253c1.276.436 2.139 1.278 2 2.783-.224 2.29-.924 5.346-2 8.591v18.808m8.05-73.06c-3.383 2.092-6.089 4.214-8.05 5.783v13.172c2.857.66 5.744 1.417 8.05 2.174v-5.795c-.59-.933-1.027-1.817-1.052-2.423.328-.105.68-.256 1.052-.457v-12.454m-8.05-39.524h8.05v-15h-8.05v15m8.05-98.5h-8.05v16.06h8.05v-16.06m0 58.693v11.975h-8.05v-.479l8.05-11.496m0 265.57v7.854c-2.989-.199-5.72-.945-8.05-1.933v-8.362c1.204 1.015 4.577 2.128 8.05 2.441m0 13.628v24.295c-2.523 1.304-5.206 2.317-7.984 3.088 2.114-4.744 2.971-11.287 1.521-16.204-.485.313-1.012.608-1.584.909v-14.456c2.855.986 5.587 1.832 8.05 2.368m-8.05-300.89v-8.118h5.677l-5.677 8.118m-23.829 401.59c7.55-7.654 15.555-16.06 23.829-25.22v-23.878c-8.273 9.388-16.279 17.973-23.829 25.753v23.347m23.829-165.45c-4.135 6.088-11.18 13.644-15.973 16.575.987-5.601-1.1-20.01-3.76-24.12-.755 1.414-2.289 3.047-4.095 4.588v8.91c.158-.119.289-.24.415-.359 1.197 4.442 1.127 9.727-.415 14.314v6.514h.023c6.795 1.577 16.59-6.694 22.88-14.567.506 1.752.814 3.573.925 5.395v-17.247m-23.829-62.37c2.44-2.288 4.579-4.628 6.296-6.513 1.78 3.125.945 12.652-1.078 15 2.901.542 11.792-3.755 18.611-8.162v-18.809c-2.329 7.106-6.322 15.09-10.166 17.686.682-7.195-1.054-16.07-6.073-21.956-1.846 4.441-4.661 8.8-7.59 12.48v10.269m23.829-66.952c-1.23 1.03-2.177 1.812-2.772 2.227-3.387-2.277-8.828-14.192-11.644-17.59-4.306-1.472-7.101-2.19-9.413-1.688v14.891c.158-.035.289-.064.415-.09l4.76 4.72-.18.264c-1.695-.189-3.367-.275-4.995-.427v8.567c5.325-.104 10.206-.044 13.492.35 2.481.313 6.419 1.028 10.337 1.949v-13.173m-23.829-45.31h23.829v-15h-23.829v15m23.829-98.5h-23.829v16.06h.375l-.375 3.177v51.899l23.829-34.14v-8.118h-11l4.447-12.816h6.555v-16.06m-.0001 70.19v.479h-.305l.305-.479m0 102.46v8.253c-2.023-.707-5.128-.422-6.97-.222-2.206.222-8.783 1.463-16.859 3.048v-7.424c8.736-1.549 16.97-2.86 23.829-3.655m0 121.72v27.26l-.047.131.047.059v8.362c-1.72-.733-3.254-1.605-4.515-2.495-4.66.253-12.182-1.348-19.313-5.395v-17.461c3.677 4.966 4.865 7.175 9.926 8.4 2.197.435 4.618.648 6.353-.617 4.334-4.799 7.11-11.451 7.549-18.244m0 41.15c-5.589-1.887-11.706-4.289-17.383-5.882-2.375-.933-4.552-2.167-6.446-3.684v17.878c2.312-.39 4.424-.959 5.94-1.56 1.566 1.644.506 10.653-1.251 12.894 4.428.478 12.956-1.873 19.14-5.19v-14.456m-23.829 65.848v-18.935c2.972 3.086 5.916 6.253 8.779 9.46-.067.082-.154.176-.218.271-2.731 2.958-5.392 5.843-8.01 8.609-.174.175-.307.333-.485.499l-.063.096m-51.04 83.964c12.409-10.119 30.12-25.594 51.04-46.75v-23.348c-21.496 22.1-39.554 37.708-51.04 47.01v23.08m51.04-215.16c-3.253 2.76-7.349 5.214-9.222 5.536 1.392-7.141-1.845-16.623-7.163-21.14-3.02 3.757-7.488 6.452-11 7.654.963-9.01-4.377-20.578-10.362-24.358-1.366 4.74-6.32 11.179-10.494 14.658.019-3.655-.835-7.957-2.796-11.882v20.354c1.981-.075 3.785-.768 5.678-1.604 3.806-1.695 8.269-9.769 8.269-9.769 3.329 4 3.613 14.452 1.102 19.13 6.642 3.087 15.841-1.253 18.504-3.699 2.901 4.112 1.051 15.254-.399 17.773 5.72 1.992 14.345-.859 17.888-3.741v-8.912m-51.04-50.05c5.172-2.632 9.967-7.163 13.04-12.158 2.559 2.529 2.164 6.224 1.744 8.664 8.06-.81 16.61-7.274 19.737-12.448 2.551 3.189 1.387 13.286-.091 15.484 5.985-.229 11.856-4.463 16.61-8.907v-10.269c-2.921 3.657-6.01 6.641-8.341 8.336-.261-8.514-1.973-12.961-7.788-18.03-2.685 7.02-9.07 14.354-14.65 16.215.506-2.885-4.442-10.451-7.984-13.03-3.744 9.487-8.182 15.311-12.279 18.01v8.136m51.04-93.37c-.723.146-1.408.411-2.044.822-3.02 2.404-6.03 3.858-9.202 5.831-4.569-8.19-15.974-21.321-20.495-24.589-.336-.252-.728-.505-1.108-.753-5.205-3.471-13.11-6.989-17.334-7.934-.287-.09-.569-.114-.858-.079v14.54c2.815.145 5.172.544 6.556 1.368 6.229 2.375 17.448 13.12 22.638 17.06 2.909 2.534 3.301 9.582 5.06 12.619 0 0-3.998-2.08-8.689-5.629-3.937-2.984-16.17-12.728-25.564-16.223v12.55c2.642.7 5.631 1.89 8.867 3.646 3.717 2.02 7.301 6.676 10.963 9.292-7.205.774-13.82.964-19.83 1.435v5.436c7.726-.761 16.11-1.063 23.21-.282 5.02-.149 17.29-.985 27.829-1.181v-8.567c-1.783-.173-3.498-.403-5.167-.862 1.277-1.671 3.384-3.185 5.167-3.604v-14.892h-.002m-51.04-28.25h51.04v-15h-27.26l1.627-10.55h-10.47l-5.653 10.55h-9.287v15m51.04-98.5h-51.04v65.47l28.1-49.41h22.947v-16.06m0 19.239v51.899l-7.791 11.132 7.791-63.03m0 157.07v7.424c-15.753 3.099-37.14 7.535-42.546 8.419-1.961.328-4.914.909-8.496 1.609v-7.273c14.7-3.075 33.862-7.123 51.04-10.179m0 116.73v6.514c-.266-.08-2.218-.752-2.289-1.861.971-1.417 1.744-2.986 2.289-4.653m0 11.794v17.461c-2.087-1.191-4.155-2.582-6.091-4.214 1.336 3.125 3.453 5.767 6.091 7.878v17.878c-4.443.755-9.542.897-12.273-.474 3.873-2.182 4.728-5.877 4.818-9.594-6.648 1.164-12.961-1.208-12.961-1.208-3.366-10.433-17.291-24.371-22.307-28.14-1.676-1.267-4.713-3.097-8.318-5.084v-18.587c6.402 3.043 12.936 6.515 18.857 10.227-5.831-5.641-12.365-10.567-18.857-14.773v-12.942l.709.365c18.768 9.135 40.681 29.25 47.17 37.15 1.257 1.529 2.268 2.869 3.166 4.055m0 77.61v18.935c-2.638 2.774-5.214 5.472-7.769 8.06 0 .012 0 .012-.022.043-13.615-.296-30.31 2.984-43.25 7.163v-13.602c16.721-4.463 34.938-5.827 46.4-5.648-8.516-8.883-16.722-17.09-25.853-24.722-7.084-.929-13.903-.866-20.545-.036v-12.353c1.91-.191 3.854-.308 5.77-.358-1.634-1.116-3.617-2.319-5.77-3.578v-19.477c5.298 3.917 10.666 8.01 16.02 12.381 6.71 5.474 20.917 18.466 35.02 33.19m-51.04 67.37v-4.497c.834.817 1.654 1.612 2.507 2.382l-2.507 2.115m-34.52 38.913c9.767 7.587 15.381 11.283 15.381 11.283 0 0 7.04-4.796 19.14-14.667v-23.08c-8.03 6.513-12.866 9.946-13.419 10.34l-5.518 3.878-5.479-3.878c-.506-.347-4.072-2.877-10.1-7.668v23.797m34.519-248.08c-1.623-3.27-4.03-6.293-7.308-8.446-1.446 5.653-7.494 11.309-10.779 13.526-1.427-5.19-5.721-14.768-11.653-16.603-.989 2.043-2.685 4.594-4.779 6.812v8.716c2.536-1.771 4.751-3.782 5.744-5.598 3.055 3.736 5.876 10.521 2.312 14.539-2.618-.81-5.349-1.521-8.06-2.167v7.746c5.941 1.995 20.13 7.728 34.52 17.04v-12.942c-8.841-4.375-21.846-8.474-21.846-8.474 6.118-1.143 13.462-6.567 15.509-11.398 3.06 4.511 2.112 13.314 1.476 16.569 1.783.808 3.368 1.102 4.861 1.035v-20.355m-34.521-18.678c12.432-.783 17.19-7.704 21.19-13.666 4.03 3.33 5.392 8.405 4.463 14.195 2.925-.022 5.962-.881 8.869-2.363v-8.136c-.832.554-1.672.997-2.489 1.292-.771-5.58-5.494-11.269-13.286-14.728-4.729 9.91-11.203 14.231-14.428 15.864-.221-3.158-1.764-6.716-4.316-9.622v17.16m34.519-121.91c-1.493.143-2.907 1.712-3.058 3.167-3.788-.562-9.878-.372-13.705-.053-2.31-1.354-4.618-3.01-7.06-4.667h23.825v-15h-34.52v48.02c1.228-5.451 2.794-10.7 7.415-13.977 4.095-1.028 18.08-3.404 27.1-2.949v-14.54m.0001-100.05h-34.52v39.855l8.229-23.793h21.15l-18.876 54.606h19.14l-3.06 8.768 7.94-13.965v-65.47m.0001 123.78v12.55c-4.462-1.201-7.94-1.012-10.07.206-3.615 2.075-14.306 11.214-9.444 18.59 0 0 2.901-1.266 7.835-2.655.178-.061.418-.073.611-.128 2.16-5.475 5.35-10.989 8.805-14.23-.902 4.249-.593 8.566.703 12.725l1.561-.135v5.436c-7.719.758-14.802 1.973-19.379 3.02-4.753 1.091-10.255 2.937-15.14 4.855v-13.559c1.012.445 1.959.7 2.971.354-.288-5.565 6.777-17.622 12.385-21.397 4.202-1.975 10.03-2.106 16.306-1.422 0-2.405-2.49-5.479-2.49-5.479 1.59.072 3.411.537 5.347 1.266m0 62.706v7.273c-9.462 1.885-23.254 4.652-34.52 5.946v-7.257c4.379-.392 8.827-1.018 13.246-1.712 4.048-.66 11.724-2.242 21.274-4.25m0 94.26v18.587c-6.134-3.4-13.949-7.246-19.534-9.492-3.476-1.375-8.803-3.078-14.986-4.652v-17.12c1.406.285 2.727.582 3.96.878 5.83 1.389 17.951 5.775 30.56 11.796m0 56.12v19.477c-9.854-5.792-23.605-12.927-28.23-19.223-2.131.323-4.218.714-6.289 1.18v-26.546c10.1 7.901 22.09 15.96 34.519 25.11m0 23.414v12.353c-12.12 1.518-23.582 5.592-34.52 10.831v-13.13c10.982-5.288 22.439-8.913 34.52-10.05m0 42.759v13.602c-8.778 2.842-15.813 6.099-18.962 8.946 6.882 5.435 12.342 13.155 18.962 19.722v4.497c-11.838 9.981-18.938 14.979-18.938 14.979 0 0-.135-.111-.38-.281-.086-.052-.154-.111-.282-.189-.2-.166-.485-.368-.841-.62-.219-.163-.435-.325-.7-.53-.354-.265-.777-.569-1.213-.914-.331-.245-.616-.451-.988-.732-.77-.592-1.612-1.24-2.569-1.997-.491-.361-1.01-.793-1.542-1.212-.592-.459-1.197-.928-1.829-1.446-.66-.518-1.32-1.056-2.025-1.63-.613-.506-1.253-1.012-1.914-1.553l-1.299-1.08v-48.562c3.277 3.697 6.731 7.262 9.566 9.539 6.938-4.641 15.717-8.07 24.954-10.539m-40.457 80.995c2.106 1.692 4.091 3.253 5.938 4.685v-23.797c-1.784-1.408-3.76-3-5.938-4.806v23.918m5.937-248.11c-1.784 1.874-3.831 3.526-5.938 4.45v7.653c1.912-.857 4.02-2.051 5.938-3.388v-8.715m-5.937-27.429c3.01 3.636 5.383 10.03 5.454 13.486l.484-.024v-17.16c-1.605-1.833-3.629-3.415-5.938-4.478v8.179m5.937-208.49h-5.938v57.03l5.938-17.18v-39.855m0 83.5v48.02c-1.293 5.748-2.241 11.733-5.938 15.911v-27.754c.285-.289.549-.545.767-.786-.242-.514-.506-1.084-.767-1.697v-33.695h5.938m0 66.963v13.559c-2.136.826-4.159 1.684-5.938 2.47v-18.227c2.531.19 4.309 1.443 5.938 2.198m0 41.99v7.257c-2.087.241-4.072.426-5.938.545v-7.387c1.962-.092 3.938-.239 5.938-.415m0 58.963v7.746c-.66-.218-1.229-.395-1.692-.529-1.253-.361-2.708-.7-4.245-1.052v-7.48c1.961.42 3.96.847 5.937 1.315m0 16.659v17.12c-1.915-.491-3.913-.966-5.938-1.409v-16.843c2.091.365 4.075.736 5.938 1.135m0 43.682v26.546c-2 .458-3.977.965-5.938 1.582v-10.511c.969-.403 1.912-.794 2.861-1.213-.972-.812-1.912-1.665-2.861-2.538v-18.698c1.891 1.604 3.874 3.214 5.938 4.832m0 58.58v13.13c-2 .948-3.977 1.945-5.938 2.973v-13.06c1.962-1.071 3.938-2.083 5.938-3.048m0 33.708v48.562l-1.142-.933c-.618-.493-1.253-1.05-1.894-1.582-.921-.793-1.914-1.604-2.901-2.465v-50.55c1.778 2.161 3.827 4.593 5.937 6.965m-11.243 75.68c1.854 1.518 3.63 2.949 5.306 4.312v-23.918c-1.676-1.353-3.435-2.824-5.306-4.401v24.01m5.306-239.35c-.945.415-1.895.681-2.858.783-.882.081-1.7.017-2.448-.176v15.561c1.822.318 3.606.672 5.306 1.037v-7.48l-3.763-.783c1.05-.196 2.36-.644 3.763-1.288v-7.654m-5.306-31.32c.705-1.32 1.389-2.406 2.068-3.085 1.103.39 2.227 1.292 3.238 2.526v-8.179l-.135-.052.135-.012v-7.387c-1.784.074-3.561.122-5.306.098v16.09m5.306-209.05h-5.306v21.979c.812.664 1.475 1.395 2.025 2.177 2 2.807 2.4 6.226 1.146 9.871-.723 2.032-1.758 3.91-3.17 5.641v32.624l5.306-15.259v-57.03m-.0001 83.5v33.695c-1.108-2.489-2.31-5.7-3.171-9.127-.793-3.103-1.292-6.412-1.161-9.565h-.974v-15h5.306m0 36.18v27.754c-.266.276-.526.553-.795.819.269-.011.529 0 .795.015v18.227c-1.234.555-2.376 1.092-3.372 1.586 1.696-2.837 2.264-5.881 2.202-8.388-1.076-1-2.482-2.049-4.136-3.091v-30.925c1.693-2.076 3.768-4.419 5.306-5.997m0 147.26v16.843c-1.74-.387-3.499-.75-5.306-1.081v-16.595c1.822.26 3.59.54 5.306.833m0 39.983v18.698c-1.807-1.644-3.561-3.364-5.306-5.139v-18.282c1.677 1.582 3.459 3.154 5.306 4.723m0 22.45v10.511c-1.784.538-3.546 1.142-5.306 1.811v-10.282c1.784-.66 3.542-1.34 5.306-2.04m0 44.01v13.06c-1.784.925-3.546 1.87-5.306 2.842v-12.899c1.76-1.036 3.522-2.035 5.306-3m0 23.694v50.55l-2.796-2.397c-.592-.517-1.186-1.01-1.777-1.553l-.733-.608v-52.604c.949 1.235 2.89 3.69 5.306 6.615m-10.52 78.29c1.807 1.542 3.565 2.968 5.213 4.36v-24.01c-1.648-1.403-3.383-2.901-5.213-4.489v24.14m5.214-234.38c-2.661-.725-4.356-3.183-5.213-6.03v20.729c1.672.252 3.451.548 5.213.864v-15.56m-5.214-16.05c.995-4.522 3.02-11.524 5.213-15.873v-16.09c-1.781-.011-3.493-.084-5.213-.215v32.18m5.214-224.92h-5.213v18.892c2.07.85 3.831 1.89 5.213 3.088v-21.98m0 39.668v32.624l-3.868 11.203h3.868v15h-5.213v-32.827c.776-1.443 1.455-2.979 2.024-4.64 2.223-6.384.442-11.578-2.024-14.686v-1.957c2.086-1.409 3.83-2.991 5.213-4.719m0 86v30.925c-1.536-.997-3.3-1.982-5.213-2.939v-44.76c6.073 7.897 3.502 19.05 3.502 19.05.459-.681 1.075-1.451 1.711-2.274m0 140.43v16.595c-1.711-.32-3.478-.617-5.213-.875v-16.392c1.76.202 3.501.432 5.213.672m0 36.09v18.282c-1.735-1.805-3.493-3.681-5.213-5.549v-18.13c1.604 1.821 3.341 3.614 5.213 5.397m0 29.21v10.282c-1.735.672-3.493 1.403-5.213 2.206v-10.562c1.735-.637 3.501-1.278 5.213-1.926m0 44.968v12.899l-.612.351.612.829v52.604c-.9-.791-1.821-1.634-2.775-2.476-.718-.62-1.403-1.24-2.133-1.883l-.306-.282v-58.792c1.736-1.115 3.479-2.202 5.214-3.25m-13.705 91.7c2.974 2.579 5.812 5.02 8.492 7.285v-24.13c-2.66-2.33-5.494-4.832-8.492-7.531v24.381m8.491-233.13c-.637-2.155-.838-4.543-.637-6.579.091-.771.309-1.971.637-3.442v-32.18c-2.988-.229-5.831-.648-8.492-1.315v61.15c.973 1.35 1.563 2.176 1.563 2.176 1.691.175 4.158.494 6.929.918v-20.729m0-234.94h-8.492v16.667c3.214.469 6.072 1.23 8.492 2.225v-18.892m0 44.39v1.957c-.352-.465-.724-.886-1.123-1.24.399-.238.772-.48 1.123-.717m0 21.282v32.827h-8.492v-23.19c3.385-2.463 6.314-5.617 8.492-9.639m0 43.22v44.76c-2.569-1.274-5.456-2.485-8.492-3.532v-26.797c.685-2.64 1.606-5 2.815-6.724-.767-1.162-1.711-2.396-2.815-3.668v-12.171c3.456 2.842 6.165 5.4 7.784 7.301.178.202.38.419.53.61l.178.221m0 156.54v16.392c-2.861-.44-5.696-.781-8.492-.998v-16.14c2.797.162 5.631.414 8.492.743m0 31.37v18.13c-1.959-2.113-3.913-4.266-5.897-6.365-.854.04-1.715.09-2.594.175v-24.663c1.985 4.434 4.859 8.636 8.491 12.724m0 36.534v10.562c-2.88 1.339-5.72 2.871-8.492 4.566v-11.981c2.816-1.091 5.682-2.124 8.492-3.147m0 46.29v58.792c-1.138-1.026-2.312-2.075-3.517-3.174-.685-.644-1.409-1.3-2.111-1.961l-2.864-2.628v-55.44c2.048 2.107 4.073 4.132 6.072 5.994.791-.543 1.606-1.065 2.42-1.582m-23.645 74.75c5.363 4.996 10.421 9.544 15.15 13.699v-24.381c-4.711-4.263-9.771-9-15.15-14.228v24.91m15.15-454.37h-15.15v16.06h6.394c3.131 0 6.072.214 8.759.605v-16.667m0 75.31v23.19h-2.817c.995.782 1.936 1.529 2.817 2.265v12.171c-3.676-4.269-9.02-8.986-15.15-13.167v-17.925c5.43-1.243 10.715-3.288 15.15-6.532m0 48.02c-1.146 4.492-1.582 9.809-1.582 14.211-2.667-4.02-3.26-15.356 1.298-20.769-2.993-3.431-8.515-8.566-14.87-13.31v20.923c2.066.945 3.671 2.049 4.174 3.265.027 2.196.378 4.677.05 6.55-1.55-.593-2.866-.992-4.224-1.372v13.943c5.102.454 10.335 1.695 15.15 3.355v-26.796m.0001 68.11v61.15c-3.237-4.602-10.495-15.246-11.636-20.18-1.496-6.394 6.096-32.937 8.226-41.964v-.012c1.102.392 2.248.732 3.41 1.01m0 73.26c-1.782-.095-3.517-.157-5.193-.169-2.201-2.721-5.897-7.361-9.96-12.532v31.973c3.873 4.735 6.467 10.942 10.245 16.346-3.389.039-6.838.395-10.245.933v9.846c4.996-1.194 10.07-1.961 15.15-2.344v-24.663c-.481-1.102-.905-2.227-1.276-3.355l1.276.103v-16.14m0 71.794v11.981c-4.908 3.01-9.612 6.585-14.1 10.724 4.399 5.4 9.281 10.99 14.1 16.03v55.44c-3.762-3.518-7.724-7.325-11.877-11.396-.728-.72-1.479-1.432-2.221-2.166l-1.055-1.072v-72.36c4.793-2.882 9.943-5.148 15.15-7.183m-30.18 103.51c5.209 5.138 10.226 9.929 15.03 14.39v-24.909c-4.777-4.62-9.816-9.63-15.03-15.03v25.545m15.03-439.99h-15.03v32.26l5.604-16.202h9.422v-16.06m0 81.84v17.924c-4.69-3.213-9.837-6.111-15.03-8.274v-8.02c4.811-.049 9.981-.49 15.03-1.63m0 21.616c-4.777-3.566-10.04-6.897-15.03-9.107v1.869c5.734 4.986 11.483 10.473 13.04 13.9-4.335-1.827-11.603-1.771-12.832-.502 5.788 1.956 10.147 4.791 12.63 7.594-3.628.042-6.467 1.741-9.435 3.979 2.196.252 7.697 1.419 11.619 3.19v-20.923m0 29.366v13.943c-3.524-.306-6.96-.237-10.185.331-1.565.916-3.309 2.316-4.841 3.883v-27.02c4.66 1.238 10.954 3.48 11.94 7.996 1.104.314 2.088.583 3.086.867m0 119.16v31.973c-1.172-1.436-2.44-2.732-3.895-3.832-2.664-.77-6.669-1.035-11.131-.807v-9.137c2.963.103 5.979.549 9.04 1.418-1.517-3.606-3.103-8.701-7.174-13.214-.61-.162-1.23-.316-1.862-.458v-25.03c4.217 5.359 9.918 12.633 15.03 19.09m0 49.25v9.846c-5.18 1.232-10.215 2.922-15.03 5.124v-11.387c4.545-1.405 9.721-2.735 15.03-3.583m0 42.43v72.36c-1.239-1.218-2.491-2.482-3.746-3.75-.81-.816-1.604-1.645-2.446-2.487-1.673-1.724-3.361-3.45-5.076-5.254-.555-.576-1.102-1.17-1.671-1.738l-2.087-2.222v-61.904c2.656 3.383 5.432 6.669 8.05 9.878 2.201-1.821 4.555-3.427 6.978-4.881m-15.03-121.44v-26.334c2.857 3.474 5.933 6.289 8.467 8.27-1.127.506-3.035 1.448-6.23.736-1.536 4.328-2.106 10.774-.945 16.13-.351.41-.795.821-1.292 1.193m-7.926 209.85c2.689 2.721 5.322 5.365 7.927 7.919v-25.545c-2.604-2.661-5.238-5.439-7.927-8.286v25.912m7.926-432.07h-7.927v55.11l7.927-22.845v-32.26m0 83.47v8.02c-2.645-1.114-5.311-2.023-7.927-2.695v-5.302h6.802l1.125-.023m0 10.879v1.869c-1.369-1.173-2.732-2.334-4.048-3.414 1.317.414 2.657.94 4.048 1.545m0 29.611v27.02c-1.215 1.229-2.314 2.564-3.084 3.818-2.087 3.463-3.68 7.01-4.843 10.788v-58.47c3.459 3.587 6.711 8.457 7.325 10.641.795 2.796-1.534 3.096-4.505 4.836.327.277 2.442.664 5.107 1.363m0 71.925v26.334c-1.744 1.299-4.226 2.312-6.167 2.823l6.167 7.854v25.03c-2.444-.542-5.156-.905-7.927-1.104v-9.01c.439.098.811.2 1.146.307l-1.146-1.114v-65.51c1.655 5.525 4.642 10.396 7.927 14.392m0 74.3v9.137c-2.538.147-5.221.432-7.927.895v-9.582c2.617-.385 5.238-.562 7.927-.45m0 34.637v11.386c-2.718 1.235-5.349 2.628-7.927 4.205v-12.885c2.314-.863 4.993-1.807 7.927-2.706m0 33.847v61.904c-2.604-2.762-5.238-5.603-7.927-8.539v-64.79c2.246 3.938 5.02 7.733 7.927 11.425m-7.926-234.38c1.654-.301 2.97-.854 3.717-1.514.311-2.683-1.381-5.829-3.717-8.837v10.351m-3.102 324.6c1.038 1.075 2.07 2.122 3.102 3.181v-25.912c-1.031-1.095-2.063-2.213-3.102-3.343v26.07m3.102-428.88h-3.102v64.13l3.102-9.02v-55.11m0 83.5v5.302c-1.031-.28-2.063-.5-3.102-.688v-4.613h3.102v-.0001m0 10.441v10.352c-.86.159-1.821.24-2.857.229.945.7 1.917 1.604 2.857 2.604v58.47c-.419 1.403-.791 2.826-1.104 4.305-.434 4.099.052 7.997 1.104 11.602v65.51c-.94-.909-2-1.92-3.102-3.02v-108.6l1.28.448v-.012c0 0-.487-.969-1.28-2.626v-42.882c1.078 1.159 2.161 2.381 3.102 3.627m0 153.87v9.02c-1.031-.058-2.063-.109-3.102-.149v-9.318c1.19.115 2.225.26 3.102.452m0 22.823v9.582c-1.031.178-2.063.384-3.102.613v-9.646c1.038-.208 2.07-.411 3.102-.549m0 36.894v12.885c-.86.526-1.712 1.08-2.549 1.648.728 1.747 1.608 3.48 2.549 5.182v64.79l-1.252-1.383c-.53-.59-1.057-1.154-1.605-1.751l-.245-.281v-79.877c.924-.387 1.984-.782 3.102-1.213m-9.859 114.35c2.293 2.397 4.535 4.732 6.757 7.01v-26.07c-2.222-2.391-4.463-4.847-6.757-7.364v26.431m6.757-421.88h-6.757v117.24c2.266 6.249 5.126 12.534 6.757 15.949v-42.882c-.859-.909-1.716-1.778-2.547-2.581.831.083 1.688.218 2.547.38v-4.613h-6.705l6.705-19.366v-64.13m0 135.38v108.6c-2.087-2.036-4.401-4.399-6.757-7.094v-52.75c.53-1.292.991-2.604 1.321-3.913-.437-.376-.877-.729-1.321-1.047v-31.975c2.09-3.394 3.415-5.899 3.415-5.899-.506-.423-1.873-1.076-3.415-1.625v-6.317c2.249.558 4.491 1.249 6.757 2.024m0 111.97v9.318c-2.291-.047-4.57 0-6.757.169v-9.818c2.466.036 4.78.143 6.757.331m0 23.825v9.646c-2.307.506-4.594 1.146-6.757 1.909v-9.766c2.249-.709 4.467-1.313 6.757-1.789m0 37.558v79.877c-1.716-1.918-3.479-3.889-5.215-5.866l-1.542-1.743v-72.66c.9 1.655 1.479 2.645 1.479 2.645 0 0 1.976-.932 5.278-2.253m-20.327 98.45c4.625 5.119 9.155 10.02 13.57 14.686v-26.431c-3.755-4.186-7.609-8.547-11.498-13.08l-2.072-2.419v27.25m13.57-407.19h-13.57v22.667c.467.479.882.973 1.253 1.49 2.01 2.807 2.4 6.226 1.146 9.871-.571 1.644-1.365 3.211-2.4 4.65v59.82h10.1c-.087 3.048.11 6.071.599 8.766.04.266.131.53.17.799.597 2.795 1.567 5.993 2.704 9.179v-117.24h.0001m0 133.36v6.317c-1.137-.411-2.376-.75-3.388-.852 1.036 2.74 3.087 5.46 3.348 8.461l.04-.086v31.975c-2.809-2.124-5.562-3.136-9-4.31-1.448.681-2.981 1.416-4.57 2.214v-10.349c1.451-2.063 3.72-5.475 4.75-7.944-1.319-.345-3.036-.479-4.75-.504v-15.949c.395.086.793.181 1.166.278-.221-1.025-.645-2.058-1.166-3.093v-8c4.159-.048 8.818.637 13.57 1.846m0 50.776v52.75c-2.151-2.511-4.328-5.303-6.353-8.393-1.541 4.048-4.375 16.432-5.698 18.646 3.695-.098 8.06-.19 12.05-.11v9.818c-5.98.443-11.17 1.697-13.33 3.638.135 5.632.337 11.542 2.468 16.551 3.561-1.483 7.194-2.901 10.862-4.063v9.766c-3.036 1.083-5.847 2.417-8.07 4.02 1.095 7.759 5.696 17.11 8.07 21.586v72.66l-1.187-1.375c-1.821-2.087-3.647-4.207-5.494-6.377-.885-1.044-1.783-2.127-2.688-3.179-1.384-1.66-2.794-3.348-4.202-5.06v-167.17l10.843-6.649c.593-2.23 1.767-4.618 2.728-7.06m-33.877 199.73c6.902 8.234 13.682 16.01 20.307 23.327v-27.25c-6.506-7.626-13.31-15.928-20.307-24.916v28.837m20.307-383.87h-20.307v16.12c9.278.396 16.476 2.711 20.307 6.543v-22.667m0 38.677v59.82h-20.307v-19.781c7.215-3.355 13.309-8.866 16.361-17.686 2.538-7.314-.171-13.08-3.163-15.926 2.993-1.842 5.366-3.985 7.109-6.427m0 92.83v8c-1.448-2.754-3.831-5.411-6.4-7.222 1.932-.494 4.088-.755 6.4-.782m0 10.819v15.949c-3.343-.039-6.646.313-6.646.313 0 0-7.59 4.288-13.661 7.785v-11.912c4.203-1.834 8.376-3.791 12.716-4.98-3.853-1.375-8.272-1.885-12.716-1.904v-6.961c7.768-.07 15.243.567 20.307 1.71m0 24.398v10.349c-4.862 2.415-10.1 5.3-14.216 8.246-.66 4.708-.77 8.906-.684 13.437 2.753.921 4.973 3.01 7.856 3.395l7.04-4.313v167.18c-4.843-5.842-9.725-11.954-14.658-18.319-.988-1.287-2-2.553-2.965-3.846l-2.684-3.526v-129.38c2.044-1.54 3.938-2.768 5.321-3.39l-5.321-.161v-26.591c5.34-4.181 13.03-8.03 18.986-11.255.0001-.0001.533-.719 1.321-1.822m-29.04 206.59c2.946 3.604 5.854 7.099 8.736 10.55v-28.837c-2.882-3.684-5.791-7.495-8.736-11.405v29.692m8.736-373.32h-8.736v16.06h5.791c1.012 0 1.973.024 2.946.062v-16.12h-.0001m0 78.72v19.781h-8.736v-16.797c3.01-.731 5.961-1.697 8.736-2.984m0 61.904v6.961c-2.946-.008-5.917.209-8.736.518v-7.115c2.886-.227 5.831-.348 8.736-.364m0 13.846v11.912c-1.692.971-3.257 1.878-4.51 2.624-1.826 3.649-2.996 7.432-3.783 11.48h7.435c.289-.231.571-.447.858-.676v26.591l-.921-.027c-1.526.734-4.981 3.643-7.815 6.138v-9.223c1.189-.856 2.376-1.679 3.589-2.43.396-.909.609-9.839 1.163-13.05-1.499-.142-3.211-.036-4.752.138v-36.521c1.472 1.695 2.467 3.747 3.187 5.288 1.873-.668 3.724-1.438 5.549-2.241m0 55.48c-2.839 2.106-6.03 4.805-8.736 7.259v110.32l2.616 3.578c1.101 1.48 2.179 2.959 3.253 4.419.949 1.28 1.917 2.554 2.867 3.806v-129.38m-25.19 142.38c5.522 7.262 11.02 14.278 16.456 20.983v-29.691c-5.411-7.242-10.914-14.855-16.456-22.852v31.56m16.456-352.33h-16.456v34.68l6.447-18.618h10.01v-16.06m0 81.7v16.797h-16.456v-15c5.233-.024 10.954-.472 16.456-1.795m0 59.28v7.115c-1.364.146-2.707.335-3.977.525 1.622.539 2.925 1.585 3.977 2.796v36.521c-2.09.242-3.759.608-3.759.608 0 0-7.355 7.376-12.697 13.497v-14.266c1.589-.58 2.844-1.13 2.844-1.13l7.581-6.626c0 0 .948-4.554 1.525-6.451-2.202 1.973-8.23 8.04-11.95 12.223v-16.852l.834.569c2.096-1.952 4.843-4.704 6.664-6.518-2.726-.064-5.138-.032-7.498.095v-7.452c2.968-.221 5.677-.104 7.769.418-2.047-3.245-4.888-5.379-7.769-7.652v-4.395c4.49-1.567 10.318-2.543 16.456-3.03m0 62.3v9.223c-2.375 2.094-4.328 3.917-4.328 3.917 0 0-.554 3.036-.38 5.301 1.142-1.203 2.818-2.808 4.708-4.52v110.32c-.973-1.329-1.936-2.668-2.901-4.04-.995-1.388-2.01-2.823-2.992-4.233-3.416-4.835-6.823-9.816-10.21-14.904l-.352-.521v-71.04c1.696-2.277 3.562-4.561 5.701-6.887-1.628-.406-3.652-.587-5.701-.583v-8.235l1.496-.165c4.509-4.632 9.481-9.621 14.959-13.634m-30.762 129.73c4.779 6.654 9.551 13.09 14.306 19.318v-31.56c-4.755-6.856-9.527-13.979-14.306-21.382v33.624m14.306-333.01h-14.306v16.06h1.728l-1.728 14.02v45.935l14.306-41.34v-34.68m0 83.5v15h-14.306v-15h14.02.289m0 60.51v4.395c-1.166-.925-2.352-1.867-3.469-2.925 1.026-.535 2.192-1.024 3.469-1.47m0 11.629v7.452c-2.482.145-4.886.415-7.519.805l7.519 5.05v16.852c-.949 1.083-1.744 2.025-2.269 2.754.752-.229 1.538-.508 2.269-.77v14.266c-1.671 1.9-3.122 3.673-4.134 5.083l-.243 10.441 4.377-.484v8.235c-1.913.023-3.851.224-5.494.583-2.819 4.618-6.142 9.801-8.812 14.973v-17.977c1.431-2.157 2.554-3.628 2.554-3.628 0 0 .292-4.312-.194-6.4-.905 1.206-1.675 2.483-2.359 3.784v-28.779l.514.175 4.305-6.904c-1.692.371-3.276 1.152-4.819 2.066v-8.404c1.348-.66 2.739-1.265 4.187-1.771-1.08-1.588-2.531-2.973-4.187-4.146v-9.947c4.576-1.821 9.752-2.98 14.305-3.307m0 77.15v71.04c-.987-1.462-1.984-2.929-2.95-4.419-1.711-2.599-3.429-5.258-5.12-7.922-1.255-1.966-2.514-3.934-3.769-5.931-.832-1.308-1.644-2.632-2.466-3.948v-21.875c3.59-9.164 7.486-17.881 14.305-26.945m-22.441 88.74c2.707 3.919 5.435 7.726 8.135 11.484v-33.624c-2.7-4.217-5.428-8.508-8.135-12.899v35.04m8.135-321.53h-8.135v16.06h8.135v-16.06m0 30.09v45.935l-2.591 7.474h2.591v15h-8.135v-15h1.542l6.593-53.41m0 128.86v9.947c-2.391-1.695-5.229-2.962-8.135-3.756v-1.592c2.173-1.816 5.04-3.369 8.135-4.599m0 15.864v8.404c-1.646.969-3.227 2.083-4.834 3.02l4.834 1.648v28.779c-2.925 5.565-4.217 11.835-6.135 17.769 1.104-3.602 3.984-8.31 6.135-11.524v17.977c-1.181 2.263-2.242 4.533-3.075 6.781-.375 4.297.882 9.527 2.481 13.571l.594-1.494v21.875c-.834-1.364-1.687-2.742-2.521-4.116-1.301-2.123-2.577-4.288-3.878-6.451l-1.736-2.93v-58.25c.771-2.035 3.147-6.363 3.628-7.768-.525.586-2.087 1.997-3.628 3.416v-9.803c.281-.167.552-.333.834-.468-.266-.204-.553-.403-.834-.591v-14.563c2.483-2.01 5.17-3.818 8.135-5.278m-50.2 80.28c13.798 23.998 27.941 46.15 42.07 66.44v-35.04c-14.456-23.393-28.755-49.35-42.07-77.77v46.37m42.07-255.09h-42.07v16.06h9.749l-9.749 28.13v22.17l28.601-50.3h13.468v-16.06m0 83.49v15h-42.07v-15h9.773l5.653-10.55h10.489l-1.644 10.55h17.798m0 80.05v1.592c-.459-.106-.945-.229-1.407-.328.434-.422.902-.853 1.407-1.264m0 16.543v14.563c-3.01-1.989-7.122-3.241-11.17-3.713 3.493-3.738 7.083-7.553 11.17-10.85m0 15.622v9.803c-1.632 1.507-3.238 3.037-3.629 3.708l3.412 1.272c.041-.166.126-.368.218-.629v58.25c-1.035-1.738-2.064-3.479-3.104-5.238-2.548-4.407-5.082-8.896-7.584-13.444v-.006c.68-4.156 1.34-8.283 2.111-12.531-1.961-.783-4.158-1.519-7.576-1.178 2.732-7.05 6.409-13.318 10.717-19.19-3.035-1.341-7.299-1.626-11.375-1.17 2.817-6.984 10.185-15.823 16.81-19.645m-66.951 13.12c8.096 16.14 16.434 31.56 24.882 46.27v-46.37c-8.821-18.808-17.18-38.696-24.882-59.666v59.769m24.882-208.82h-24.882v16.06h3.984l-3.984 11.526v27.358l13.443-38.885h11.439v-16.06m0 44.19v22.17l-9.742 17.14h9.742v15h-24.882v-17.254c7.925-3.02 15.05-8.649 17.999-17.16l6.883-19.889m-101.49-44.19c19.65 79.83 46.645 149.21 76.61 208.82v-59.768c-4.546-12.357-8.867-25.08-12.913-38.19l-3.776-12.372h16.689v-17.255c-4.772 1.798-9.808 2.685-14.432 2.685-8.16 0-14.713-2.621-17.951-7.176-2.554-3.578-2.948-8.217-1.141-13.428l16.359-47.26h17.17v-16.06h-76.61m76.61 27.588v27.358l-3.566 10.321c-1.144 3.266-4.312 5.823-7.213 5.823-.745 0-1.785-.181-2.4-1.063-.661-.9-.7-2.359-.126-4.02l13.305-38.424" />
    </g>
  </g>
</svg>
