<?xml version="1.0" encoding="UTF-8" standalone="no"?>
<!-- Created with Inkscape (http://www.inkscape.org/) -->

<svg
   xmlns:dc="http://purl.org/dc/elements/1.1/"
   xmlns:cc="http://creativecommons.org/ns#"
   xmlns:rdf="http://www.w3.org/1999/02/22-rdf-syntax-ns#"
   xmlns:svg="http://www.w3.org/2000/svg"
   xmlns="http://www.w3.org/2000/svg"
   xmlns:sodipodi="http://sodipodi.sourceforge.net/DTD/sodipodi-0.dtd"
   xmlns:inkscape="http://www.inkscape.org/namespaces/inkscape"
   id="svg2"
   version="1.1"
   inkscape:version="0.47 r22583"
   width="100"
   height="76"
   xml:space="preserve"
   sodipodi:docname="lic-dos-and-donts.pdf"><metadata
     id="metadata8"><rdf:RDF><cc:Work
         rdf:about=""><dc:format>image/svg+xml</dc:format><dc:type
           rdf:resource="http://purl.org/dc/dcmitype/StillImage" /><dc:title></dc:title></cc:Work></rdf:RDF></metadata><defs
     id="defs6"><inkscape:perspective
       sodipodi:type="inkscape:persp3d"
       inkscape:vp_x="0 : 0.5 : 1"
       inkscape:vp_y="0 : 1000 : 0"
       inkscape:vp_z="1 : 0.5 : 1"
       inkscape:persp3d-origin="0.5 : 0.33333333 : 1"
       id="perspective10" /><clipPath
       clipPathUnits="userSpaceOnUse"
       id="clipPath82"><path
         d="m 502.234,692.342 c -1.733,-2.082 -8.662,-10.73 -11.053,-18.597 l -0.011,-0.033 0.004,-0.034 c 0.007,-0.046 0.617,-4.734 6.174,-11.158 -1.249,-1.698 -2.179,-3.443 -2.783,-4.684 -6.781,6.24 -9.605,16.181 -9.74,16.766 5.746,12.33 14.598,16.642 17.409,17.74"
         id="path84" /></clipPath><clipPath
       clipPathUnits="userSpaceOnUse"
       id="clipPath104"><path
         d="m 490.398,618.928 c -0.256,0.632 -0.792,1.068 -1.411,1.218 l -0.42,10.935 74.786,29.822 3.128,4.416 -5.79,1.169 -3.167,-4.508 -69.131,-27.568 -9.445,10.407 c 0.451,0.553 0.599,1.327 0.313,2.037 -0.415,1.043 -1.597,1.552 -2.642,1.137 -1.045,-0.418 -1.551,-1.6 -1.134,-2.644 0.374,-0.936 1.367,-1.44 2.322,-1.23 l 9.65,-24.207 c -0.838,-0.506 -1.214,-1.553 -0.839,-2.491 0.417,-1.044 1.599,-1.553 2.644,-1.137 1.042,0.414 1.549,1.598 1.136,2.644"
         id="path106" /></clipPath><clipPath
       clipPathUnits="userSpaceOnUse"
       id="clipPath116"><path
         d="m 481.598,624.306 c 0.264,0.202 0.681,1.974 0.681,1.974 l -0.865,5.227 c 0,0 -1.096,0.171 -2.228,-0.692 l -0.071,-3.751 -0.334,-0.254 -1.871,3.754 c 0,0 -1.167,-0.287 -1.877,-0.811 l 1.051,-4.465 -0.343,-0.343 -1.868,3.491 c 0,0 -0.836,-0.209 -1.47,-1.011 l 0.984,-4.295 -0.392,-0.294 -1.584,2.45 c 0,0 -0.748,-0.237 -1.332,-0.784 0,0 -0.037,-2.313 1.016,-4.575 0,0 1.091,-0.644 1.673,-0.388 0.58,0.255 0.977,1.016 0.977,1.016 0,0 1.651,-0.19 1.981,0 0.329,0.19 1.04,1.408 1.04,1.408 0,0 1.802,-0.12 2.216,0.153 0.413,0.272 1.197,2.24 1.197,2.24 0,0 1.154,-0.252 1.419,-0.05"
         id="path118" /></clipPath><clipPath
       clipPathUnits="userSpaceOnUse"
       id="clipPath126"><path
         d="m 481.254,623.111 c 0,0 1.653,2.264 1.722,4.215 l -1.446,5.464 c 0,0 -0.312,0.266 -1.414,-1.217 0,0 0.435,-1.754 0,-4.715 -0.795,-1.939 -4.286,-7.163 -5.199,-8.247 l 6.337,4.5"
         id="path128" /></clipPath><clipPath
       clipPathUnits="userSpaceOnUse"
       id="clipPath132"><path
         d="m 481.598,624.306 c 0.264,0.202 0.681,1.974 0.681,1.974 l -0.865,5.227 c 0,0 -1.096,0.171 -2.228,-0.692 l -0.071,-3.751 -0.334,-0.254 -1.871,3.754 c 0,0 -1.167,-0.287 -1.877,-0.811 l 1.051,-4.465 -0.343,-0.343 -1.868,3.491 c 0,0 -0.836,-0.209 -1.47,-1.011 l 0.984,-4.295 -0.392,-0.294 -1.584,2.45 c 0,0 -0.748,-0.237 -1.332,-0.784 0,0 -0.037,-2.313 1.016,-4.575 0,0 1.091,-0.644 1.673,-0.388 0.58,0.255 0.977,1.016 0.977,1.016 0,0 1.651,-0.19 1.981,0 0.329,0.19 1.04,1.408 1.04,1.408 0,0 1.802,-0.12 2.216,0.153 0.413,0.272 1.197,2.24 1.197,2.24 0,0 1.154,-0.252 1.419,-0.05"
         id="path134" /></clipPath><clipPath
       clipPathUnits="userSpaceOnUse"
       id="clipPath150"><path
         d="m 474.058,701.281 c 0,0 0.719,8.212 6.443,11.408 5.26,2.939 10.114,-2.612 10.971,-6.008 3.548,-14.066 -9.276,-17.296 -9.276,-17.296 0,0 -1.824,8.018 -8.138,11.896"
         id="path152" /></clipPath><clipPath
       clipPathUnits="userSpaceOnUse"
       id="clipPath164"><path
         d="m 468.726,655.12 c 0.15,1.156 0.924,5.192 0.465,9.523 0,0 -3.53,-0.479 -10.159,2.135 -0.234,-3.921 0.314,-8.624 1.252,-10.782 2.495,-0.977 5.035,-1.435 8.442,-0.876"
         id="path166" /></clipPath><clipPath
       clipPathUnits="userSpaceOnUse"
       id="clipPath206"><path
         d="m 461.282,615.823 c 0.339,0.132 1.445,0.819 1.445,0.819 0,0 1.538,-1.422 1.976,-1.257 0.779,0.296 1.507,1.773 1.507,1.773 0,0 1.187,-0.427 1.461,-0.273 0.272,0.156 0.708,1.811 0.708,1.811 0.023,3.969 -0.455,9.216 -0.607,10.673 -2.425,-0.995 -3.871,0.681 -3.871,0.681 0,0 2.83,2.057 5.042,7.509 2.211,5.45 2.513,15.42 2.513,15.42 -5.525,-3.704 -13.369,-0.763 -14.284,-0.302 0.002,-11.149 2.695,-22.557 2.695,-22.557 0,0 -1.843,-2.876 -2.649,-3.981 0,0 -0.541,-2.916 -0.419,-9.005 0,0 0.784,-0.881 1.384,-0.725 0.598,0.157 1.343,0.919 1.343,0.919 0,0 1.416,-1.639 1.756,-1.505"
         id="path208" /></clipPath><clipPath
       clipPathUnits="userSpaceOnUse"
       id="clipPath218"><path
         d="m 450.056,651.569 0,-27.069 c -3.053,-0.108 -5.494,-2.616 -5.494,-5.695 0,-3.079 2.441,-5.587 5.494,-5.695 l 0,-1.025 -7.638,1.873 0,26.239 -3.587,-4.554 -4.569,1.121 0,-15.082 -7.639,1.872 0,15.084 -17.994,4.413 0,13.245 37.837,-9.278 3.59,4.551"
         id="path220" /></clipPath><clipPath
       clipPathUnits="userSpaceOnUse"
       id="clipPath236"><path
         d="m 479.514,688.508 c 0,0 -3.579,8.181 -12.145,10.378 -2.018,-3.956 -3.53,-9.827 -2.425,-16.16 2.375,-1.934 4.373,-4.068 5.831,-6.763 3.524,1.974 7.543,6.339 8.739,12.545"
         id="path238" /></clipPath><clipPath
       clipPathUnits="userSpaceOnUse"
       id="clipPath248"><path
         d="m 515.103,690.354 c 0.132,-0.429 0.126,-0.901 -0.042,-1.382 -0.087,-0.251 -0.212,-0.488 -0.37,-0.71 1.237,-0.169 2.895,-0.481 4.53,-1.054 9.795,-3.432 8.915,-14.255 8.915,-14.255 -3.199,-2.539 -10.519,-3.44 -14.234,-3.031 l -0.062,-0.851 c 2.636,-0.637 9.552,-0.595 12.328,0.067 -2.352,-4.442 -7.133,-5.71 -8.903,-5.825 -1.769,-0.116 -3.006,0.018 -3.006,0.018 l -3.796,6.296 6.795,14.453 -4.168,2.121 c 0,0 -3.548,-8.738 -6.273,-16.176 1.507,-3.707 3.703,-7.612 3.703,-7.612 0,0 -6.778,0.603 -11.757,2.197 -0.095,0.085 -2.419,2.329 -4.692,7.813 0.083,0.356 2.251,8.999 8.503,14.232 0,0 1.965,-0.028 4.344,-0.497 0,0 1.762,-0.821 2.964,-3.809 0.373,0.816 1.226,2.681 1.965,4.284 -0.404,-0.059 -0.819,-0.068 -1.231,-0.016 -1.92,0.24 -3.041,1.68 -2.506,3.219 0.09,0.261 0.223,0.508 0.39,0.737 0.225,-0.969 1.176,-1.735 2.536,-1.901 1.625,-0.198 3.304,0.53 4.067,1.682"
         id="path250" /></clipPath><clipPath
       clipPathUnits="userSpaceOnUse"
       id="clipPath302"><path
         d="m 453.631,483.068 c -2.013,-2.42 -10.067,-12.472 -12.846,-21.615 l -0.012,-0.038 0.004,-0.04 c 0.007,-0.053 0.718,-5.502 7.175,-12.968 -1.452,-1.973 -2.532,-4.002 -3.235,-5.444 -7.88,7.253 -11.161,18.806 -11.319,19.486 6.678,14.33 16.966,19.342 20.233,20.619"
         id="path304" /></clipPath><clipPath
       clipPathUnits="userSpaceOnUse"
       id="clipPath320"><path
         d="m 480.131,472.426 c 4.15,-5.174 3.604,-11.894 3.604,-11.894 -3.718,-2.949 -12.225,-3.997 -16.543,-3.522 l -0.073,-0.989 c 3.064,-0.74 11.103,-0.692 14.329,0.078 -2.734,-5.162 -8.29,-6.637 -10.348,-6.77 -2.056,-0.135 -3.493,0.02 -3.493,0.02 l -4.412,7.318 6.579,13.996 10.357,-2.54 0,4.303 z m -21.174,-15.295 c 1.753,-4.31 4.304,-8.848 4.304,-8.848 0,0 -7.877,0.7 -13.664,2.554 -0.11,0.097 -2.812,2.706 -5.454,9.08 0.098,0.413 2.617,10.459 9.884,16.541 0,0 2.282,-0.033 5.049,-0.578 0,0 2.046,-0.954 3.444,-4.427 0.373,0.817 1.161,2.54 1.921,4.193 l 1.539,-0.377 c -0.963,-2.388 -4.336,-10.807 -7.023,-18.138"
         clip-rule="evenodd"
         id="path322" /></clipPath><clipPath
       clipPathUnits="userSpaceOnUse"
       id="clipPath370"><path
         d="m 374.323,507.308 c -1.847,-2.221 -9.236,-11.442 -11.784,-19.829 l -0.012,-0.035 0.004,-0.036 c 0.006,-0.05 0.658,-5.047 6.582,-11.897 -1.332,-1.81 -2.052,-2.395 -3.652,-3.994 -7.229,6.653 -9.555,16.252 -9.699,16.876 6.126,13.145 15.564,17.743 18.561,18.915"
         id="path372" /></clipPath><clipPath
       clipPathUnits="userSpaceOnUse"
       id="clipPath388"><path
         d="m 379.208,483.514 c 1.608,-3.953 3.949,-8.116 3.949,-8.116 0,0 -7.226,0.642 -12.536,2.343 -0.1,0.089 -2.579,2.483 -5.002,8.329 0.089,0.38 2.4,9.595 9.066,15.174 0,0 2.095,-0.03 4.632,-0.53 0,0 1.878,-0.876 3.16,-4.061 0.398,0.87 1.306,2.858 2.094,4.568 -0.43,-0.063 -0.872,-0.072 -1.312,-0.018 -2.046,0.256 -3.242,1.792 -2.672,3.432 0.097,0.278 0.238,0.542 0.416,0.786 0.24,-1.032 1.254,-1.85 2.704,-2.027 1.733,-0.211 3.523,0.565 4.336,1.794 0.14,-0.457 0.134,-0.961 -0.045,-1.474 -0.092,-0.267 -0.225,-0.52 -0.393,-0.756 1.318,-0.181 3.086,-0.514 4.829,-1.124 10.443,-3.66 9.504,-15.199 9.504,-15.199 -3.41,-2.706 -11.214,-3.667 -15.175,-3.231 l -0.067,-0.907 c 2.811,-0.679 10.184,-0.636 13.144,0.071 -2.507,-4.735 -7.604,-6.089 -9.492,-6.21 -1.886,-0.124 -3.205,0.018 -3.205,0.018 l -4.047,6.713 7.244,15.41 -4.443,2.261 c 0,0 -3.783,-9.316 -6.689,-17.246"
         id="path390" /></clipPath><clipPath
       clipPathUnits="userSpaceOnUse"
       id="clipPath670"><path
         d="m 485.793,324.299 c 3.205,8.746 7.377,19.021 7.377,19.021 l 4.901,-2.493 -7.99,-16.997 4.464,-7.405 c 0,0 1.454,-0.157 3.534,-0.02 2.082,0.134 7.705,1.626 10.47,6.85 -3.264,-0.779 -11.397,-0.828 -14.498,-0.079 l 0.074,1.001 c 4.369,-0.481 12.977,0.579 16.738,3.564 0,0 1.035,12.728 -10.483,16.764 -3.787,1.325 -7.679,1.467 -7.679,1.467 -0.893,-1.909 -2.676,-5.808 -3.303,-7.182 -1.415,3.514 -3.486,4.479 -3.486,4.479 -2.798,0.552 -5.108,0.585 -5.108,0.585 -7.352,-6.153 -9.901,-16.318 -10,-16.736 2.672,-6.449 5.407,-9.088 5.517,-9.187 5.856,-1.876 13.827,-2.585 13.827,-2.585 0,0 -2.582,4.593 -4.355,8.953"
         id="path672" /></clipPath><clipPath
       clipPathUnits="userSpaceOnUse"
       id="clipPath684"><path
         d="m 480.403,350.543 c -2.036,-2.45 -10.186,-12.62 -12.997,-21.871 l -0.013,-0.038 0.005,-0.04 c 0.007,-0.055 0.726,-5.568 7.26,-13.122 -1.469,-1.997 -2.562,-4.049 -3.273,-5.508 -7.974,7.339 -11.294,19.028 -11.454,19.716 6.757,14.499 17.167,19.57 20.472,20.863"
         id="path686" /></clipPath><clipPath
       clipPathUnits="userSpaceOnUse"
       id="clipPath716"><path
         d="m 81,207 630,0 0,810 -630,0 0,-810 z"
         id="path718" /></clipPath><clipPath
       clipPathUnits="userSpaceOnUse"
       id="clipPath730"><path
         d="m 711.004,207.002 -90.861,0 c 37.625,112.141 68.264,232.412 90.861,358.957 l 0,-358.957"
         id="path732" /></clipPath><clipPath
       clipPathUnits="userSpaceOnUse"
       id="clipPath736"><path
         d="m 81,207 630,0 0,810 -630,0 0,-810 z"
         id="path738" /></clipPath><clipPath
       clipPathUnits="userSpaceOnUse"
       id="clipPath746"><path
         d="m 81,207 630,0 0,810 -630,0 0,-810 z"
         id="path748" /></clipPath><clipPath
       clipPathUnits="userSpaceOnUse"
       id="clipPath816"><path
         d="m 403.593,344.143 c -0.893,-1.074 -4.465,-5.533 -5.698,-9.589 l -0.006,-0.016 0.002,-0.018 c 0.004,-0.024 0.318,-2.441 3.183,-5.753 -0.644,-0.875 -1.123,-1.775 -1.435,-2.415 -3.496,3.218 -4.951,8.343 -5.021,8.644 2.962,6.357 7.526,8.58 8.975,9.147"
         id="path818" /></clipPath><clipPath
       clipPathUnits="userSpaceOnUse"
       id="clipPath840"><path
         d="m 397.491,306.292 c -0.132,0.326 -0.409,0.551 -0.728,0.628 l -0.215,5.638 38.557,15.375 1.612,2.277 -2.985,0.603 -1.633,-2.324 -35.642,-14.213 -4.87,5.365 c 0.233,0.285 0.31,0.684 0.162,1.05 -0.214,0.538 -0.823,0.8 -1.362,0.586 -0.539,-0.215 -0.8,-0.824 -0.585,-1.363 0.192,-0.482 0.705,-0.742 1.197,-0.634 l 4.976,-12.48 c -0.432,-0.261 -0.627,-0.801 -0.433,-1.284 0.215,-0.539 0.825,-0.801 1.363,-0.587 0.537,0.214 0.799,0.824 0.586,1.363"
         id="path842" /></clipPath><clipPath
       clipPathUnits="userSpaceOnUse"
       id="clipPath852"><path
         d="m 392.954,309.065 c 0.136,0.104 0.351,1.018 0.351,1.018 l -0.446,2.695 c 0,0 -0.565,0.088 -1.148,-0.358 l -0.038,-1.934 -0.172,-0.13 -0.964,1.935 c 0,0 -0.602,-0.148 -0.968,-0.418 l 0.542,-2.302 -0.177,-0.176 -0.963,1.8 c 0,0 -0.431,-0.108 -0.758,-0.522 l 0.508,-2.214 -0.202,-0.152 -0.817,1.263 c 0,0 -0.386,-0.122 -0.686,-0.404 0,0 -0.02,-1.193 0.523,-2.359 0,0 0.562,-0.332 0.863,-0.2 0.299,0.132 0.503,0.524 0.503,0.524 0,0 0.851,-0.097 1.021,0 0.17,0.098 0.537,0.726 0.537,0.726 0,0 0.928,-0.062 1.142,0.079 0.213,0.14 0.617,1.155 0.617,1.155 0,0 0.595,-0.13 0.732,-0.026"
         id="path854" /></clipPath><clipPath
       clipPathUnits="userSpaceOnUse"
       id="clipPath870"><path
         d="m 389.066,348.751 c 0,0 0.371,4.234 3.322,5.881 2.712,1.516 5.215,-1.346 5.656,-3.097 1.829,-7.252 -4.782,-8.917 -4.782,-8.917 0,0 -0.94,4.134 -4.196,6.133"
         id="path872" /></clipPath><clipPath
       clipPathUnits="userSpaceOnUse"
       id="clipPath882"><path
         d="m 391.879,342.166 c 0,0 -1.844,4.218 -6.261,5.35 -1.04,-2.039 -1.82,-5.066 -1.25,-8.331 1.224,-0.998 2.255,-2.098 3.006,-3.487 1.817,1.018 3.889,3.268 4.505,6.468"
         id="path884" /></clipPath><clipPath
       clipPathUnits="userSpaceOnUse"
       id="clipPath896"><path
         d="m 386.318,324.952 c 0.076,0.596 0.475,2.677 0.239,4.909 0,0 -1.82,-0.246 -5.237,1.101 -0.121,-2.021 0.161,-4.446 0.645,-5.559 1.286,-0.503 2.596,-0.739 4.353,-0.451"
         id="path898" /></clipPath><clipPath
       clipPathUnits="userSpaceOnUse"
       id="clipPath932"><path
         d="m 382.479,304.691 c 0.175,0.069 0.746,0.423 0.746,0.423 0,0 0.792,-0.734 1.018,-0.648 0.402,0.152 0.778,0.914 0.778,0.914 0,0 0.611,-0.22 0.752,-0.14 0.141,0.079 0.365,0.933 0.365,0.933 0.013,2.046 -0.234,4.751 -0.312,5.502 -1.251,-0.513 -1.996,0.352 -1.996,0.352 0,0 1.459,1.06 2.6,3.871 1.14,2.81 1.295,7.95 1.295,7.95 -2.848,-1.91 -6.893,-0.394 -7.365,-0.155 10e-4,-5.748 1.39,-11.631 1.39,-11.631 0,0 -0.95,-1.482 -1.366,-2.052 0,0 -0.278,-1.503 -0.216,-4.642 0,0 0.404,-0.455 0.714,-0.374 0.308,0.081 0.693,0.474 0.693,0.474 0,0 0.729,-0.845 0.904,-0.777"
         id="path934" /></clipPath><clipPath
       clipPathUnits="userSpaceOnUse"
       id="clipPath950"><path
         d="m 405.956,332.636 c 0.777,-1.911 1.909,-3.924 1.909,-3.924 0,0 -3.494,0.311 -6.062,1.132 -0.048,0.044 -1.247,1.201 -2.418,4.029 0.043,0.184 1.161,4.64 4.384,7.337 0,0 1.012,-0.014 2.239,-0.256 0,0 0.908,-0.423 1.528,-1.964 0.193,0.421 0.632,1.383 1.013,2.209 -0.208,-0.03 -0.422,-0.035 -0.634,-0.009 -0.99,0.124 -1.568,0.867 -1.293,1.66 0.047,0.135 0.116,0.262 0.202,0.381 0.116,-0.5 0.606,-0.895 1.307,-0.981 0.838,-0.102 1.704,0.273 2.097,0.868 0.068,-0.221 0.065,-0.465 -0.022,-0.713 -0.045,-0.129 -0.109,-0.252 -0.19,-0.366 0.637,-0.087 1.492,-0.249 2.335,-0.544 5.05,-1.769 4.596,-7.349 4.596,-7.349 -1.649,-1.309 -5.422,-1.774 -7.338,-1.563 l -0.033,-0.438 c 1.36,-0.329 4.926,-0.307 6.357,0.034 -1.213,-2.29 -3.678,-2.944 -4.59,-3.003 -0.912,-0.06 -1.55,0.009 -1.55,0.009 l -1.957,3.246 3.503,7.452 -2.149,1.093 c 0,0 -1.829,-4.504 -3.234,-8.34"
         id="path952" /></clipPath><clipPath
       clipPathUnits="userSpaceOnUse"
       id="clipPath998"><path
         d="m 177.02,319.049 -8.08,-8.067 -0.25,-3.247 -3.483,-0.264 0.148,3.641 9.59,9.462 c 0.671,-0.535 1.363,-1.044 2.075,-1.525"
         id="path1000" /></clipPath><clipPath
       clipPathUnits="userSpaceOnUse"
       id="clipPath1014"><path
         d="m 180.775,319.354 c -6.303,3.412 -11.248,9.011 -13.815,15.782 2.567,6.771 7.512,12.369 13.815,15.78 l 0,-2.487 3.154,-5.711 -3.164,-4.277 0,-8.505 2.087,-3.843 -2.077,0.51 0,-7.249"
         id="path1016" /></clipPath><clipPath
       clipPathUnits="userSpaceOnUse"
       id="clipPath1050"><path
         d="m 223.436,352.939 c 0.401,-0.403 0.399,-1.054 -0.003,-1.453 -0.401,-0.4 -1.05,-0.399 -1.452,0.003 -0.273,0.273 -0.357,0.66 -0.259,1.007 l -6.784,3.845 -4.163,0 2.198,2.188 -2.689,5.215 c -0.291,-0.025 -0.59,0.075 -0.812,0.297 -0.4,0.402 -0.4,1.052 0.003,1.452 0.401,0.399 1.051,0.398 1.451,-0.003 0.361,-0.36 0.394,-0.922 0.105,-1.322 l 11.083,-11.121 c 0.401,0.288 0.962,0.251 1.322,-0.108"
         id="path1052" /></clipPath><clipPath
       clipPathUnits="userSpaceOnUse"
       id="clipPath1072"><path
         d="m 315.005,368.569 c 0.565,-0.001 1.035,-0.412 1.124,-0.954 l 17.441,0.03 c 0.087,0.542 0.555,0.957 1.121,0.956 0.63,10e-4 1.142,-0.509 1.143,-1.138 0.002,-0.629 -0.508,-1.141 -1.138,-1.142 -0.35,0 -0.663,0.156 -0.871,0.405 l -6.051,-1.985 0,-74.653 -2.744,-2.976 -2.53,2.943 2.296,2.748 0,71.614 -8.792,2.458 c -0.196,-0.351 -0.566,-0.588 -0.995,-0.588 -0.631,-10e-4 -1.142,0.508 -1.143,1.138 -0.002,0.63 0.508,1.142 1.139,1.144"
         id="path1074" /></clipPath></defs><sodipodi:namedview
     pagecolor="#ffffff"
     bordercolor="#666666"
     borderopacity="1"
     objecttolerance="10"
     gridtolerance="10"
     guidetolerance="10"
     inkscape:pageopacity="0"
     inkscape:pageshadow="2"
     inkscape:window-width="737"
     inkscape:window-height="481"
     id="namedview4"
     showgrid="false"
     inkscape:zoom="0.30849673"
     inkscape:cx="495.05814"
     inkscape:cy="382.5"
     inkscape:window-x="0"
     inkscape:window-y="0"
     inkscape:window-maximized="0"
     inkscape:current-layer="g12" /><g
     id="g12"
     inkscape:groupmode="layer"
     inkscape:label="lic-dos-and-donts"
     transform="matrix(0,-1.25,-1.25,0,1260.1163,188.5)"><g
       id="g3882"
       transform="matrix(1.1541846,0,0,1.1541846,-193.55776,578.84369)"><path
         id="path964"
         style="fill:#FFFFFF;fill-opacity:1;fill-rule:nonzero;stroke:none"
         d="m 257.181,335.228 0,8.12 5.909,7.985 3.885,-0.959 0,8.521 5.772,8.149 18.288,-4.486 7.369,9.349 -0.003,-39.401 -9.537,2.34 0,-8.603 -5.822,-8.348 -5.682,1.404 0,-16.705 -12.293,3.014 0,3.285 -9.064,2.222 0,5.535 -1.501,0.406 0,3.082 -8.824,2.165 0,15.745 11.503,-2.82" /><path
         id="path966"
         style="fill:#000000;fill-opacity:1;fill-rule:nonzero;stroke:none"
         d="m 258.712,333.275 0,9.568 5.003,6.759 4.791,-1.183 0,9.989 4.889,6.9 18.232,-4.471 5.246,6.654 -0.003,-33.033 -9.726,2.386 0.189,-0.363 0,-9.758 -4.945,-7.089 -6.56,1.621 0,-16.71 -9.23,2.265 0,3.284 -9.064,2.222 0,8.655 -10.325,2.533 0,12.593 11.503,-2.822" /><path
         id="path968"
         style="fill:#B5985A;fill-opacity:1;fill-rule:nonzero;stroke:none"
         d="m 275.914,323.732 0,7.549 4.586,-1.133 0,8.378 -2.052,-2.614 -12.902,3.189 0,-5.259 5.779,-1.427 0,-4.73 2.08,2.608 0,-22.657 -4.383,1.075 0,15.056 -2.058,-2.613 -2.622,0.644 0,-8.655 -4.384,1.075 0,8.654 -10.325,2.533 0,7.601 13.317,-3.267 -1.814,3.34 0,8.965 3.566,4.817 8.3,-2.05 -2.2,3.984 0,8.881 3.563,5.03 18.151,-4.452 2.06,2.613 -0.002,-10.718 -19.389,4.755 0,-5.161 17.329,-4.25 2.059,2.612 0.001,-10.718 -11.967,2.934 2.302,-4.433 0,-8.402 -3.556,-5.099 -5.439,1.345" /><path
         id="path970"
         style="fill:#FFFFFF;fill-opacity:1;fill-rule:nonzero;stroke:none"
         d="m 276.938,329.974 0,-1.089 3.523,-0.871 0,1.089 -3.523,0.871" /><path
         id="path972"
         style="fill:#FFFFFF;fill-opacity:1;fill-rule:nonzero;stroke:none"
         d="m 280.651,341.867 -15.533,3.837 -0.681,-0.921 15.489,-3.843 2.896,-5.566 0,-9.092 1.063,1.525 0,7.832 -3.234,6.228" /><path
         id="path974"
         style="fill:#FFFFFF;fill-opacity:1;fill-rule:nonzero;stroke:none"
         d="m 264.523,333.041 0,6.28 -1.063,0.262 0,-7.368 5.778,-1.427 0,-2.177 1.063,-0.263 0,3.265 -5.778,1.428" /><path
         id="path976"
         style="fill:#FFFFFF;fill-opacity:1;fill-rule:nonzero;stroke:none"
         d="m 273.098,355.384 0,-7.27 19.388,-4.756 0,-4.406 1.064,-0.26 -0.001,6.461 c -0.046,-0.058 -0.639,-0.811 -0.639,-0.811 l -18.749,4.598 0,6.183 -1.063,0.261" /><path
         id="path978"
         style="fill:#FFFFFF;fill-opacity:1;fill-rule:nonzero;stroke:none"
         d="m 274.142,360.62 18.346,-4.516 -10e-4,-4.39 1.064,-0.26 0,6.461 -0.639,-0.812 -18.114,4.442 -0.656,-0.925" /><path
         id="path980"
         style="fill:#FFFFFF;fill-opacity:1;fill-rule:nonzero;stroke:none"
         d="m 262.255,314.708 c 0.321,-0.079 0.669,-0.164 1.063,-0.261 0,1.413 0,5.576 0,7.569 -0.593,0.146 -1.063,0.261 -1.063,0.261 0,0 0,-4.959 0,-7.569" /><path
         id="path982"
         style="fill:#FFFFFF;fill-opacity:1;fill-rule:nonzero;stroke:none"
         d="m 272.381,308.94 0,18.401 -0.64,-0.812 -21.084,5.172 0,-1.087 20.66,-5.073 0,-16.339 1.064,-0.262" /></g></g></svg>