<?xml version="1.0" encoding="UTF-8" standalone="no"?>
<!-- Created with Inkscape (http://www.inkscape.org/) -->

<svg
   xmlns:dc="http://purl.org/dc/elements/1.1/"
   xmlns:cc="http://creativecommons.org/ns#"
   xmlns:rdf="http://www.w3.org/1999/02/22-rdf-syntax-ns#"
   xmlns:svg="http://www.w3.org/2000/svg"
   xmlns="http://www.w3.org/2000/svg"
   version="1.1"
   width="80"
   height="126.6182"
   id="svg2"
   xml:space="preserve"><metadata
     id="metadata8"><rdf:RDF><cc:Work
         rdf:about=""><dc:format>image/svg+xml</dc:format><dc:type
           rdf:resource="http://purl.org/dc/dcmitype/StillImage" /><dc:title></dc:title></cc:Work></rdf:RDF></metadata><defs
     id="defs6"><clipPath
       id="clipPath16"><path
         d="M 0,0 612,0 612,792 0,792 0,0 z"
         id="path18" /></clipPath><clipPath
       id="clipPath80"><path
         d="m 230,353.815 56.195,0 0,88.934 -56.195,0 0,-88.934 z"
         id="path82" /></clipPath><clipPath
       id="clipPath112"><path
         d="m 316.125,381.189 222.12,0 0,66.811 -222.12,0 0,-66.811 z"
         id="path114" /></clipPath><clipPath
       id="clipPath200"><path
         d="M 0,0 612,0 612,792 0,792 0,0 z"
         id="path202" /></clipPath><clipPath
       id="clipPath212"><path
         d="m 232,248.315 56.195,0 0,88.934 -56.195,0 0,-88.934 z"
         id="path214" /></clipPath><clipPath
       id="clipPath244"><path
         d="m 316.354,307.665 222.428,0 0,58.299 -222.428,0 0,-58.299 z"
         id="path246" /></clipPath><clipPath
       id="clipPath308"><path
         d="m 317.5,227.78 222.12,0 0,58.22 -222.12,0 0,-58.22 z"
         id="path310" /></clipPath></defs><g
     transform="matrix(1.25,0,0,-1.25,-287.62349,568.88718)"
     id="g10"><path
       d="m 264.4852,440.14277 c -0.40502,-2.17227 0.15973,-3.80261 1.29834,-4.71076 0.39247,-0.42442 0.89218,-0.72447 1.50713,-0.8534 1.92013,-0.4073 4.12434,0.24302 5.99883,1.6988 1.28123,0.99372 2.40958,2.3628 3.19223,4.02509 0.51911,1.10438 0.84655,2.12321 1.01426,3.04733 0.23617,1.29606 0.15859,2.40501 -0.14946,3.29948 -0.1814,0.52595 -0.44152,0.9766 -0.76212,1.34968 -0.31716,0.36851 -0.6948,0.66058 -1.11465,0.86822 -0.56018,0.27724 -1.16486,0.42099 -1.79691,0.44951 0.82715,0.40845 1.69993,0.62293 2.56359,0.59441 0.69367,-0.0228 1.32116,-0.20194 1.86765,-0.5077 0.0114,-0.006 0.0217,-0.0126 0.0319,-0.0183 0.1951,0.44837 0.41643,0.88077 0.66173,1.29606 1.15344,1.96006 2.82372,3.51054 4.62976,4.36165 l -0.009,0.0639 c -6.8876,0.17341 -17.49908,-7.28235 -18.93319,-14.96401"
       id="path86"
       style="fill:#000000;fill-opacity:1;fill-rule:nonzero;stroke:none" /><path
       d="m 251.76089,435.64238 c 0.0434,-1.80148 0.7895,-3.00398 1.87792,-3.53678 0.39589,-0.27153 0.85795,-0.4267 1.38162,-0.42784 1.64404,0 3.33713,0.88762 4.62292,2.3628 0.87621,1.00741 1.56531,2.2875 1.91785,3.74442 0.23502,0.96749 0.32743,1.83343 0.30462,2.59897 -0.0308,1.07244 -0.28637,1.94295 -0.69253,2.60467 -0.24073,0.38904 -0.53052,0.70507 -0.85795,0.94808 -0.32402,0.23959 -0.6834,0.40958 -1.06332,0.50314 -0.50656,0.12778 -1.02795,0.14147 -1.55048,0.057 0.60696,0.46321 1.28465,0.78266 1.99657,0.90473 0.57273,0.0981 1.11808,0.0605 1.61893,-0.0913 0.0103,-0.003 0.0205,-0.007 0.0308,-0.0103 0.081,0.39133 0.18711,0.77239 0.31603,1.14547 0.60011,1.73872 1.68738,3.23786 3.00284,4.22132 l -0.0228,0.0742 c -5.67026,-1.04848 -13.03703,-8.75182 -12.88301,-15.09863"
       id="path90"
       style="fill:#000000;fill-opacity:1;fill-rule:nonzero;stroke:none" /><path
       d="m 247.93329,437.12795 c 0.008,-0.002 0.016,-0.003 0.024,-0.005 0.0217,0.3069 0.0616,0.60924 0.11979,0.90701 0.27496,1.39304 0.95722,2.65487 1.87222,3.54591 l -0.0342,0.0491 c -4.28978,-1.41015 -9.16369,-8.07413 -8.34452,-12.89899 0.23274,-1.36907 0.94352,-2.20877 1.85053,-2.49628 0.33657,-0.16657 0.71192,-0.23502 1.12036,-0.18026 1.27895,0.1757 2.49629,1.03593 3.33256,2.29891 0.57159,0.86251 0.9652,1.91214 1.07815,3.06216 0.0764,0.76441 0.0525,1.43525 -0.0491,2.01597 -0.14261,0.8146 -0.43696,1.45122 -0.82601,1.91328 -0.22818,0.27154 -0.49058,0.48032 -0.77124,0.63206 -0.27952,0.14832 -0.57616,0.23959 -0.88306,0.27039 -0.40502,0.0422 -0.8146,-0.003 -1.21049,-0.12321 0.42213,0.41871 0.91272,0.73359 1.4535,0.90359 0.43354,0.13691 0.86138,0.16657 1.26754,0.10496"
       id="path94"
       style="fill:#000000;fill-opacity:1;fill-rule:nonzero;stroke:none" /><path
       d="m 278.21214,438.05185 c -0.73132,-1.44894 -0.68796,-2.71305 -0.10724,-3.5847 0.17683,-0.37878 0.45407,-0.69252 0.84198,-0.90815 1.21505,-0.6777 2.84654,-0.66743 4.42097,-0.0262 1.07815,0.44038 2.13006,1.17626 3.00741,2.18938 0.58414,0.67313 1.01882,1.32344 1.32686,1.94066 0.43126,0.8648 0.61038,1.66229 0.59099,2.35482 -0.0114,0.40844 -0.0947,0.78037 -0.23503,1.10781 -0.13805,0.32401 -0.33086,0.60695 -0.57273,0.83856 -0.32173,0.30804 -0.70165,0.53394 -1.12378,0.68225 0.64689,0.1198 1.28237,0.0924 1.86194,-0.10154 0.46435,-0.15744 0.85339,-0.413 1.15915,-0.7393 0.006,-0.007 0.0137,-0.0137 0.0183,-0.0205 0.2259,0.27723 0.46663,0.53622 0.7199,0.77923 1.16942,1.12492 2.59212,1.86537 3.96919,2.11294 l 0.009,0.0913 c -4.65258,1.46263 -13.31997,-1.62349 -15.88699,-6.71646"
       id="path98"
       style="fill:#000000;fill-opacity:1;fill-rule:nonzero;stroke:none" /><path
       d="m 262.01767,353.81518 -31.91888,0 3.80375,13.00737 31.91888,0 -3.80375,-13.00737 z"
       id="path102"
       style="fill:#e00122;fill-opacity:1;fill-rule:nonzero;stroke:none" /><path
       d="m 281.0249,426.29011 c -4.02166,2.22361 -8.12091,3.71134 -13.45688,3.71134 -16.59435,0 -30.58746,-14.86475 -33.83559,-30.36384 -3.74671,-17.88014 7.17054,-28.78484 19.50021,-28.54981 13.19904,0.251 19.47284,14.40383 20.56011,17.31311 l -0.12778,0.0171 c -4.51909,-7.46717 -11.26636,-10.12889 -14.22014,-10.12889 -12.51564,0 -12.62973,12.41981 -9.95091,22.34904 3.70336,13.72727 9.51965,22.25548 18.00678,22.25548 3.07244,0 7.49912,-2.17227 8.48029,-11.99882 l 0.17684,-0.0194 c 0.81346,2.28179 4.86707,15.41466 4.86707,15.41466"
       id="path106"
       style="fill:#000000;fill-opacity:1;fill-rule:nonzero;stroke:none" /></g></svg>