<?xml version="1.0" encoding="utf-8"?>
<!-- Generator: Adobe Illustrator 14.0.0, SVG Export Plug-In . SVG Version: 6.00 Build 43363)  -->
<!DOCTYPE svg PUBLIC "-//W3C//DTD SVG 1.1//EN" "http://www.w3.org/Graphics/SVG/1.1/DTD/svg11.dtd">
<svg version="1.1" id="Layer_1" xmlns="http://www.w3.org/2000/svg" xmlns:xlink="http://www.w3.org/1999/xlink" x="0px" y="0px"
	 width="250px" height="230px" viewBox="0 0 250 230" enable-background="new 0 0 250 230" xml:space="preserve">
<g>
	<polygon fill="#BBBDBF" points="11.685,26.866 13.691,16.31 154.91,26.926 144.39,72.709 123.68,57.783 80.188,57.783 
		76.801,72.544 121.513,72.544 115.589,98.278 70.693,98.278 59.779,143.9 13.93,143.9 35.977,47.916 	"/>
	<g>
		<path fill="#BBBDBF" d="M170.696,55.478c-0.007,4.457,0.772,10.228,2.922,16.72c0.688-0.591,1.367-1.143,2.039-1.666l-0.215-1.604
			c-0.085-0.658-0.414-2.499-0.786-4.314c-0.183-0.91-0.376-1.806-0.564-2.549c-0.089-0.347-0.165-0.656-0.246-0.914
			c-0.083-0.266-0.13-0.373-0.13-0.385c-0.265-0.523-1.265-2.239-2.188-3.833L170.696,55.478z M162.341,77.688
			c-1.401-3.578-2.653-6.591-3.564-10.329c-4.58-3.905-19.682-22.778-3.233-42.048c1.479-1.495,6.336-5.797,9.639-7.278
			c-6.61,10.043-6.807,16.306-6.547,20.821c7.688-29.245,33.425-39.828,60.789-31.605c3.355,1.008,7.935,2.986,11.189,4.313
			c-21.15-0.541-42.736,1.023-54.399,21.354c6.383-2.169,5.448-1.058,10.837-5.667c6.803-5.828,15.538-8.774,24.453-9.105
			c9.719-0.369,23.488,2.223,30.026,10.399c-10.204-2.372-24.65-4.387-34.593-0.324c6.01,0.759,11.667,2.906,16.264,6.928
			c-11.811-0.629-23.373,1.927-34.389,6.12l-0.732,2.407c3.884,0.048,7.702-0.741,11.565-0.986
			c11.891-0.762,25.299,2.429,30.561,14.294c-13.419-5.59-30.328-6.896-43.174,0.922l0.401,6.357
			c9.942-2.933,18.764,0.222,28.663,0.361c9.032,0.128,14.168-2.484,22.187-5.951c-3.792,4.554-7.424,9.441-12.502,12.67
			c7.108,0.901,12.473-0.833,19.219-2.572l-5.817,5.045c-19.513,16.68-31.107-2.065-48.248,11.443l2.209,4.949
			c12.137-9.606,23.048-7.547,35.646-3.441c-6.475,0.842-12.535,1.824-18.858,4.81c9.407-2.957,16.701,1.658,20.946,8.667
			c-8.949-1.98-23.194-1.701-28.915,6.737c14.273,3.667,24.808,1.962,38.684-2.126c-4.324,3.925-8.48,8.313-13.917,10.677
			l18.033-0.458c-4.795,2.557-9.508,5.31-14.498,7.473c-8.771,3.795-23.102,2.371-31.998-0.666c1.386,2.027,4.526,6.68,4.778,8.958
			c0.217,1.889-0.55,3.336-0.063,5.259c0.446,1.775,1.662,3.541,2.355,5.253c2.168,5.299,3.457,10.956,5.864,16.176
			c1.276,2.754,3.269,6.063,4.52,8.832c1.66,3.659,1.78,5.332-1.013,8.554c-2.349,2.714-6.544,6.257-9.702,7.945
			c-13.344,7.148-19.412-12.528-33.289-16.168c-4.671,20.686-14.76,30.12-35.513,39.42l2.626-5.188
			c-2.728,1.972-5.229,4.03-8.218,5.6l0.404-2.027c-5.055,6.639-10.724,14.162-15.569,20.957
			c1.352-12.445,2.096-23.375-2.763-35.306l-40.165-8.498l32.888-5.25c-5.645-6.923-11.054-11.616-18.194-16.847
			C63.22,156.717,31.07,153.063,5,149.574l58.354-4.587c-9.774-4.285-16.169-7.681-26.546-13.341
			c22.174,1.249,46.759,2.967,66.312-3.906l-40.498-7.615l66.17-6.202c4.645-3.417,8.464-7.968,13.683-10.576
			c-7.285-10.788-6.682-25.155-5.396-37.271l2.224,2.432c-0.066-2.361,0.565-7.369,1.48-10.582
			C146.746,66.01,153.74,72.538,162.341,77.688"/>
		<path fill="#231F20" d="M233.438,108.869c-2.531,2.284-5.258,4.214-8.489,5.388c-7.028,2.569-19.813-1.748-24.529-5.793
			C210.303,111.209,223.398,111.811,233.438,108.869 M226.553,97.603c-9.14-1.965-20.807,0.247-26.243,8.548
			c-0.878-6.294,5.269-11.683,10.824-13.012C219.191,91.218,223.466,94.312,226.553,97.603 M224.123,72.92
			c4.115,0.703,8.605,0.837,13.856-0.489c-18.987,16.466-30.411-3.588-49.149,12.181c-0.143,0.123,1.365,3.886,2.562,6.197
			c-1.725,1.63-3.916,4.192-5.092,5.95c-1.217-1.534-4.903-8.916-5.436-11.342c8.038-9.639,15.535-9.835,23.476-9.614
			c2.315,0.063,4.628,0.167,6.946,0.107c2.378-0.057,4.843-0.297,7.354-0.921C220.472,74.527,222.309,73.859,224.123,72.92
			 M188.267,28.616c6.804-6.071,17.059-8.952,23.882-8.829c16.51-0.205,22.815,5.819,22.815,5.819
			c-12.098-2.189-22.192-2.517-30.882,1.906C198.928,27.052,193.589,27.545,188.267,28.616 M175.352,59.947
			c-0.538-1.076-4.074-7.026-4.01-7.11c5.628-6.905,14.797-9.063,14.797-9.063c-1.892,6.199,24.794-7.552,40.16,9.971
			c0.424,0.49-21.832-9.431-41.238,3.237c0,0,0.468,2.843,0.533,7.01c-2.451,0.95-5.701,2.854-8.336,4.689
			C177.083,67.359,175.922,61.088,175.352,59.947 M112.952,126.658l-41.105-6.197l58.766-4.18c1.47-1.061,3.383-2.865,4.852-4.04
			c3.668-2.943,6.266-6.277,10.909-7.686c-7.777-9.284-8.096-22.213-7.543-33.693l2.365,2.433c-0.277-2.632,0.128-8.09,0.736-10.566
			c4.342,5.862,9.464,9.858,15.417,13.971c2.913,2.014,6.145,3.64,8.996,5.733l-1.697-3.932c-1.84-4.44-3.204-8.709-4.157-12.78
			c-7.336-6.339-18.351-25.881-0.822-41.091c-5.011,9.464-3.351,21.001-2.204,24.032c0.113,0.337,0.256,0.812,0.436,1.146
			c0.37,0.979,0.825,1.585,0.811,1.478c-0.139-0.804,0.066-2.445,0.093-2.796c1.703-24.144,21.379-39.565,35.823-41.102
			c14.287-1.89,26.891,2.635,26.891,2.635c-22.841-0.49-38.905,3.542-48.907,26.143c15.091-5.657,31.533-9.657,44.561-2.943
			c-0.683-0.31-36.953,3.123-48.126,18.733c-0.578,5.5,0.146,13.851,3.767,23.441c22.601-21.346,35.875-2.061,59.114-12.007
			c-18.764,22.318-36.168-3.449-55.344,23.724c2.361,4.035,6.46,9.495,10.042,13.816c4.252-8.867,17.134-19.201,34.887-14.602
			c-16.743,2.936-24.894,9.958-24.632,22.558c4.393,2.925,7.317,8.476,29.962,8.476l10.51-0.271l-4.58,2.357l-3.233,1.414
			c0,0-16.029,6.204-36.974-3.347c4.06,5.676,8.145,11.901,8.283,13.448c0.238,2.611-0.852,3.217,0,5.742
			c0.598,1.76,1.712,3.539,2.373,5.335c1.99,5.433,3.458,10.983,5.839,16.279c1.245,2.8,2.972,5.35,4.236,8.076
			c1.097,2.351,1.972,4.881-0.258,6.916c-5.987,5.451-12.609,12.949-20.581,5.371c-5.421-5.15-15.103-13.87-22.629-15.026
			c-3.379,17.528-12.735,28.636-28.638,36.929l4.315-7.886c-3.971,3.293-8.481,6.584-13.074,8.97l0.47-3.308
			c-6.062,6.736-9.975,11.835-14.422,18.057c1.217-11.404-0.176-20.107-3.904-28.772l-31.007-5.799l26.826-3.971
			c-4.271-5.871-8.557-10.769-15.367-15.772c3.244,0.194,5.396,0.032,8.628,0.411c-1.88-1.344-6.109-3.231-8.926-4.813
			l-66.411-7.726l45.957-2.966c-11.716-5.447-27.423-12.237-28.167-12.671C75.646,136.655,94.621,135.287,112.952,126.658"/>
		<path fill="#E03A3E" d="M170.474,112.626c0,0-1.049-11.571-5.306-18.114c-3.581-5.6-9.535-7.437-14.36-11.491
			c0.22,3.757,0.884,11.929,4.42,15.466c0.155,0.157-0.899-3.903,0.443-6.411c0.022-0.046,7.287,6.285,10.824,13.704
			C167.836,108.586,170.474,112.626,170.474,112.626 M185.497,119.259c2.675,3.495,4.011,6.957,4.687,10.549
			c-1.13-2.59-3.188-4.526-7.545-4.827c-0.719-1.337-3.811-5.479-5.103-6.221c3.484,7.835-0.93,19.344,12.373,19.713
			c4.747,8.779,4.308,9.009,10.51,19.258c-1.982-5.637-1.123-4.157-5.1-14.598l-2.394-4.948
			C193.594,131.456,192.697,125.367,185.497,119.259 M147.099,148.241l-28.681,2.002l23.792,5.107L147.099,148.241z
			 M128.814,123.893l-19.644-2.327l24.229-0.903c6.008-4.427,11.291-10.217,18.958-11.569c1.569-0.277,10.996,7.017,16.342,5.52
			c-15.937-4.953-23.229-18.261-25.623-33.8l3.309,2.432c-0.177-3.454-0.449-7.174,0-10.605c2.89,3.833,6.627,6.336,10.658,8.817
			c12.628,7.757,16.536,14.31,18.065,29.508c2.118-1.992,3.083-2.253,5.856-2.426c2.729,3.704,14.608,19.593,15.134,22.864
			c0.372,2.32-0.58,3.531,0.441,5.748c1.607,3.487,3.199,7.571,3.863,11.376c0.142,0.798-0.109,1.615-0.103,2.432
			c0.032,2.651,0.283,5.385,0.991,7.952c-7.933-0.359-9.316,11.324-3.429,13.587c-6.758-0.909-8.255-3.697-13.035-7.297
			c-3.611-2.711-7.759-5.144-11.929-6.901c-2.124-0.895-4.745-1.456-6.626-2.813c-10.766-7.77-13.896-21.578-4.42-31.817
			c-7.405,2.106-9.726,8.096-10.16,15.126c-0.081,1.312,0.026,4.043-0.332,5.201c-2.859,9.162-9.835,24.501-18.56,29.167
			l4.195,1.539c-7.336,4.889-11.339,4.348-16.57,12.595l-1.24-3.252l-15.668-2.126l13.855-1.751
			c-2.582-4.998-5.9-9.589-9.661-13.758c3.361,0.18,6.694,0.485,9.954,1.352c-2.283-2.395-14.624-12.898-17.249-13.339
			c-9.049-1.519-21.119-2.291-30.189-3.639c2.382-0.208,15.968-1.211,22.255-1.361c-5.273-2.544-10.339-4.96-15.651-7.093
			c-0.763-0.308-6.476-2.435-6.889-2.753C92.233,140.88,110.252,136.392,128.814,123.893"/>
		<path fill="#FFFFFF" d="M202.248,176.294c-4.644,1.955-5.524,1.858-9.942-2.604C196.76,175.713,198.119,175.412,202.248,176.294
			 M200.021,147.425c1.134,3.218,4.703,12.411,6.708,16.288c-0.754-0.277-1.306-0.259-1.897-0.051c-2.876,1.539-0.27,7.489,0,8.396
			l0.438-1.77l0.332-1.436l0.88,0.109c0,0,0.594,0.676,0.948,1.571l-2.598,2.408c-2.595,0.454-5.458,0.046-7.498-0.537
			c-5.823-3.557-3.68-14.912,3.629-13.719C200.521,156.46,200.077,149.229,200.021,147.425 M191.323,141.143
			c-5.966,0.774-13.868-2.339-14.665-8.967c-0.198-1.624,0-3.332,0-5.08c0-1.659,0.994-5.081-0.665-10.608
			c1.741,2.156,2.982,4.203,3.313,10.553c0.714,5.847,1.616,11.181,10.604,11.433C190.424,139.416,190.889,140.307,191.323,141.143
			 M187.819,135.933c-5.151-0.267-5.644-4.75-4.976-8.616c0.666,0.152,0.891,0.122,1.547,0.337c-0.156,0.546-0.27,1.075-0.348,1.581
			c1.317,0.655,2.756,1.516,3.44,2.835c-0.968-0.697-2.508-1.058-3.54-1.457C183.976,132.862,185.064,134.698,187.819,135.933
			 M154.676,149.295c1.326,5.269,6.625,9.504,10.385,12.154c0,0-2.324,19.008-14.697,24.972c1.152-2.588,1.678-4.774,2.432-8.181
			c-5.683,8.034-7.589,10.007-16.344,14.586l1.983-5.971c-5.396,1.804-11.729,11.062-15.025,15.684
			c0-20.984,21.054-21.874,24.084-30.928l-5.303,0.447C147.67,168.549,153.592,155.55,154.676,149.295"/>
		<polygon points="13.547,16.326 156.768,16.388 146.245,62.171 125.544,47.248 82.621,47.248 79.228,62 123.937,62 118.018,87.744 
			73.26,87.744 62.347,133.36 15.785,133.36 37.833,37.371 		"/>
		<polygon fill="#E03A3E" points="25.134,125.922 46.092,34.676 33.508,23.776 147.43,23.827 141.506,49.582 127.94,39.808 
			76.691,39.808 69.886,69.444 114.592,69.444 112.095,80.306 67.387,80.306 56.474,125.922 		"/>
	</g>
</g>
</svg>
