<?xml version="1.0" encoding="UTF-8" standalone="no"?>
<svg
   xmlns:dc="http://purl.org/dc/elements/1.1/"
   xmlns:cc="http://creativecommons.org/ns#"
   xmlns:rdf="http://www.w3.org/1999/02/22-rdf-syntax-ns#"
   xmlns:svg="http://www.w3.org/2000/svg"
   xmlns="http://www.w3.org/2000/svg"
   xmlns:sodipodi="http://sodipodi.sourceforge.net/DTD/sodipodi-0.dtd"
   xmlns:inkscape="http://www.inkscape.org/namespaces/inkscape"
   width="470"
   height="305"
   viewBox="0 0 376 244"
   version="1.1"
   id="svg3071"
   inkscape:version="0.48.1 "
   sodipodi:docname="Florida_Gators_logo.svg">
  <metadata
     id="metadata3155">
    <rdf:RDF>
      <cc:Work
         rdf:about="">
        <dc:format>image/svg+xml</dc:format>
        <dc:type
           rdf:resource="http://purl.org/dc/dcmitype/StillImage" />
      </cc:Work>
    </rdf:RDF>
  </metadata>
  <defs
     id="defs3153" />
  <sodipodi:namedview
     pagecolor="#ffffff"
     bordercolor="#666666"
     borderopacity="1"
     objecttolerance="10"
     gridtolerance="10"
     guidetolerance="10"
     inkscape:pageopacity="0"
     inkscape:pageshadow="2"
     inkscape:window-width="1366"
     inkscape:window-height="706"
     id="namedview3151"
     showgrid="false"
     showguides="true"
     inkscape:guide-bbox="true"
     inkscape:zoom="0.909375"
     inkscape:cx="260.625"
     inkscape:cy="160"
     inkscape:window-x="-8"
     inkscape:window-y="-8"
     inkscape:window-maximized="1"
     inkscape:current-layer="svg3071" />
  <g
     id="g3925"
     transform="translate(-25.6,-5.6)">
    <path
       id="path3075"
       d="m 170.6,23.12 c 9.25,-6.7 21.21,-9.48 32.46,-7.58 7.52,0.98 14.27,4.78 20.33,9.14 2.45,1.91 5.7,1.66 8.62,1.88 26.24,1.87 52.25,7.6 76.69,17.42 -1.54,0.77 -2.97,1.77 -4.6,2.31 -20.18,-8.16 -41.66,-12.69 -63.22,-15.23 -5.95,-0.9 -12.01,-0.58 -17.95,-1.64 -8.05,-6.75 -18.28,-11.4 -28.96,-10.79 -5.98,0.64 -11.96,2.18 -17.12,5.35 -2.44,1.23 -4.93,3.51 -7.86,2.57 -4.38,-1.34 -8.51,-3.52 -13.07,-4.29 -5.92,-1.14 -12.01,-1.1 -17.99,-0.59 -14.41,1.93 -27.26,12.29 -32.16,25.99 -1.16,4.37 -6.09,5.2 -9.49,7.21 -20.22,10.71 -39.48,25.18 -50.76,45.53 -5.77,9.87 -8.6,21.25 -9.08,32.63 0.45,13.28 4.71,26.38 12.12,37.43 12.7,19.33 32.24,32.98 52.71,43.09 25.3,12.07 52.9,18.78 80.72,21.54 13.17,1.14 26.43,1.93 39.64,1.07 5.77,-0.67 11.64,-0.12 17.35,-1.38 2.35,-0.2 4.69,-0.37 7.04,-0.55 -1.05,-0.15 -2.11,-0.3 -3.16,-0.45 3.99,0.02 8,-0.11 11.93,-0.86 31.68,-5.25 63.17,-15.77 89.35,-34.78 4.58,-3.2 8.65,-7.03 12.8,-10.76 3.39,-2.37 7.36,-3.81 10.75,-6.22 -3.09,4.33 -6.99,8.01 -10.93,11.56 -13.8,12.38 -30.09,21.72 -47.17,28.79 -41.87,17.24 -88.28,21.63 -133.07,16.79 -28.6,-3.39 -56.96,-10.83 -82.6,-24.17 C 74.15,203.73 55.64,189.53 43.79,170.3 34.41,155.19 30.73,136.53 34.46,119.07 38.27,100.21 50.12,83.91 64.48,71.52 75.53,61.93 88.16,54.3 101.33,48.01 c 4.53,-13.14 15.16,-24.19 28.51,-28.4 8.14,-2.87 16.91,-2.23 25.33,-1.35 5.39,0.72 10.4,2.91 15.43,4.86 z"
       inkscape:connector-curvature="0"
       style="fill:#0021a5" />
    <path
       id="path3077"
       d="m 176.85,23.98 c 5.16,-3.17 11.14,-4.71 17.12,-5.35 10.68,-0.61 20.91,4.04 28.96,10.79 5.94,1.06 12,0.74 17.95,1.64 21.56,2.54 43.04,7.07 63.22,15.23 -4.72,5.28 -11.67,7.76 -18.56,8.46 -20.97,-5.87 -42.56,-10.59 -64.44,-10.45 0.04,-0.09 0.11,-0.26 0.15,-0.35 -4.8,-3.59 -9.05,-7.93 -14.24,-10.97 -10.27,-5.15 -23.57,-2.19 -31.12,6.37 -3.03,-0.03 -6.06,-0.06 -9.09,-0.05 -10.07,-6.54 -23.41,-8.63 -34.64,-3.95 -10.66,4.4 -16.85,16.72 -15.32,27.93 -7.56,2.28 -15.15,5.13 -21.27,10.3 -0.41,0.76 -0.83,1.51 -1.27,2.26 0.02,-0.39 0.06,-1.16 0.08,-1.54 -4.31,0.52 -7.39,3.8 -10.7,6.26 -13.31,10.33 -24.56,24.45 -28.19,41.2 -3.6,15.9 1.22,32.91 11.03,45.69 14.48,19.52 36.48,31.73 58.8,40.2 22.64,8.35 46.65,12.71 70.7,13.94 13.99,-0.08 28.05,0.69 41.95,-1.2 32.83,-3.38 65.53,-13.08 93.08,-31.63 8.55,2.21 17.58,1.54 25.89,-1.38 -4.15,3.73 -8.22,7.56 -12.8,10.76 -26.18,19.01 -57.67,29.53 -89.35,34.78 -3.93,0.75 -7.94,0.88 -11.93,0.86 1.05,0.15 2.11,0.3 3.16,0.45 -2.35,0.18 -4.69,0.35 -7.04,0.55 -5.71,1.26 -11.58,0.71 -17.35,1.38 -13.21,0.86 -26.47,0.07 -39.64,-1.07 -27.82,-2.76 -55.42,-9.47 -80.72,-21.54 C 80.8,203.44 61.26,189.79 48.56,170.46 41.15,159.41 36.89,146.31 36.44,133.03 36.92,121.65 39.75,110.27 45.52,100.4 56.8,80.05 76.06,65.58 96.28,54.87 c 3.4,-2.01 8.33,-2.84 9.49,-7.21 4.9,-13.7 17.75,-24.06 32.16,-25.99 5.98,-0.51 12.07,-0.55 17.99,0.59 4.56,0.77 8.69,2.95 13.07,4.29 2.93,0.94 5.42,-1.34 7.86,-2.57 z"
       inkscape:connector-curvature="0"
       style="fill:#FA4616" />
    <path
       id="path3079"
       d="m 177.23,41.6 c 7.18,-9.59 22.23,-11.94 31.84,-4.72 7.05,5.19 13.35,11.58 21.25,15.49 16.97,3.25 34.28,5.91 51.62,5.07 7.38,-0.81 15.63,-1.76 21.11,-7.33 3.43,-3.49 7.64,-6.15 12.24,-7.81 8.15,-3.07 17.55,-5.02 25.96,-1.92 6.76,-4.35 15.3,-7.81 23.27,-4.69 6.41,2.72 8.42,10.03 13.16,14.56 3.08,3.19 7.97,3.01 11.42,5.62 5.08,3.4 7.33,10.24 5.52,16.04 -0.84,3.95 -4.27,6.89 -4.43,11.05 -1.08,7.86 -4.76,15.14 -9.66,21.31 9.61,21.29 7.89,47.37 -5.41,66.71 -10.01,11.51 -25.84,18.56 -41.15,15.97 -5.31,-1.34 -10.79,-1.3 -16.22,-1.25 -3.13,3.07 -6.7,5.78 -10.92,7.15 -11.31,3.91 -23.51,4.24 -35.35,3.71 -1.59,1.87 -3.57,3.38 -5.96,4.04 -12.1,3.71 -24.92,4.34 -37.49,3.68 -1.37,3.71 -5.22,5.09 -8.78,5.81 -13.87,2.96 -28.17,4.21 -42.32,2.76 -6.82,-0.85 -13.82,-2 -19.83,-5.57 -17.04,0.98 -34.27,-3.63 -48.91,-12.3 -9.63,-5.89 -18.36,-13.86 -23.16,-24.25 -1.22,-2.43 -1.77,-5.17 -3.07,-7.55 -6.1,-5.17 -12.79,-10.38 -16.11,-17.89 -2.36,-4.8 -0.39,-10.6 3.16,-14.24 3.58,-3.61 7.67,-6.71 12.1,-9.2 -1.48,-6.27 -5.15,-13.05 -2.11,-19.41 3.37,-6.73 11.62,-7.57 18.16,-8.98 -1.35,-4.09 -3.14,-8.34 -2.3,-12.73 0.67,-2.88 1.96,-5.82 4.46,-7.57 5.71,-4.25 12.69,-6.17 19.45,-8.06 -0.3,-8.56 1.65,-17.98 8.29,-23.92 7.93,-6.8 19.39,-7.3 29.03,-4.46 3.69,0.97 6.93,3.03 10.34,4.66 3.59,0.26 7.2,-0.02 10.8,0.22 z"
       inkscape:connector-curvature="0"
       style="fill:#0021a5" />
    <path
       id="path3081"
       d="m 185.91,43.57 c 2.47,-4.22 7.54,-5.43 12.13,-5.16 3.6,-0.14 6.65,2.01 9.5,3.92 4.26,2.83 8.14,6.19 12.2,9.31 -5.79,-1.06 -11.85,-0.59 -17.5,-2.23 -5.15,-2.72 -10.51,-5.04 -16.33,-5.84 z"
       inkscape:connector-curvature="0"
       style="fill:#01723e" />
    <path
       id="path3083"
       d="m 138.02,42.37 c 9.18,-3.52 19.8,-0.63 27.23,5.45 6.72,5.51 12.61,12.37 20.82,15.75 1.78,0.92 3.92,0.97 5.75,0.13 0.22,-1.13 -0.28,-1.79 -1.5,-1.97 -6.07,-2.43 -10.91,-6.97 -15.82,-11.14 -0.1,-0.59 -0.29,-1.78 -0.39,-2.37 6.6,-0.12 13.28,0.96 19.35,3.61 2.73,1.18 5.29,2.85 8.21,3.53 9.78,0.93 19.68,0.56 29.39,2.19 9.74,0.89 19.24,3.4 28.92,4.64 10.74,0.61 21.5,-0.14 32.25,0.16 -2.62,2.69 -5.48,5.16 -8.86,6.82 1.2,0.36 2.41,0.72 3.62,1.1 2.59,-1.47 5.2,-2.9 7.65,-4.59 5.12,-3.45 8.53,-8.84 13.66,-12.28 6.25,-4.16 13.3,-7.26 20.72,-8.6 6.37,-1.33 12.43,2.11 16.8,6.46 6.22,6.07 13.98,11.56 23.05,11.44 -0.43,-2.05 -0.26,-4.42 -1.79,-6.05 -2.54,-0.23 -5.09,1.23 -7.57,0.52 -5.32,-2.74 -8.66,-7.96 -12.38,-12.43 4.22,-2.97 9.57,-4.92 14.75,-4.05 5.29,1.74 6.31,7.94 10.38,11.11 4.24,3.94 10.36,5.19 14.22,9.6 2.12,2.22 2.64,5.79 1.09,8.46 -2.15,4.05 -5.64,7.44 -9.84,9.3 -3.36,1.12 -6.97,0.43 -10.38,0 -8.48,-1.45 -17.54,-0.57 -25.22,3.46 -7.07,3.51 -13.93,7.43 -21.04,10.84 -6.6,3.36 -13.43,7.46 -21.11,7.06 -7.3,0.2 -14.49,-1.27 -21.34,-3.71 -7.95,-2.11 -16.27,-5.89 -24.56,-3.27 -4.5,0.85 -8.65,2.84 -12.33,5.53 -9.41,5.95 -18.49,12.51 -28.47,17.51 -4.72,2.45 -10,3.67 -15.31,3.88 -6.62,0.24 -13.43,0.3 -19.75,-1.95 -6.6,-2.36 -13.25,-4.78 -20.19,-5.9 -4.93,-0.37 -9.95,-0.6 -14.86,0.11 -8.27,2.15 -16.31,7.34 -19.73,15.46 -4.53,8.18 -3.51,17.96 -1.92,26.8 -2.1,1.72 -4.12,3.52 -6.08,5.39 -0.81,-0.03 -1.63,-0.07 -2.44,-0.1 -1.84,-5 -5.04,-9.71 -4.8,-15.24 -0.77,-7.09 4.09,-12.81 7.27,-18.64 1.14,-1.56 0.82,-3.55 0.87,-5.36 -3.96,2.89 -6.48,7.14 -9.24,11.08 -5.58,7.25 -6.26,17.61 -2.08,25.69 1.98,4.17 2.92,8.72 4.59,13 6.4,0.65 10.02,-5.1 14.56,-8.43 8.3,-5.29 18.82,-5.83 28.17,-3.42 9.13,3.34 15.57,12.34 25.63,13.49 7.29,1 13.82,-2.82 19.93,-6.19 8.76,-4.64 16.98,-10.3 26.05,-14.33 7.16,-3.18 15.25,-2.82 22.86,-2.14 16.2,4.59 30.44,15.11 47.42,17.14 16.52,2.27 33.35,2.03 49.87,-0.08 8.56,-1.07 17.06,-3.23 24.73,-7.27 0.97,0.4 1.94,0.79 2.91,1.18 -0.34,2.14 -0.7,4.38 -2.12,6.12 -6.47,8.69 -16.63,15.16 -27.65,15.49 -5.02,0.28 -9.98,-0.75 -14.98,-0.82 -12.33,-0.26 -24.68,0.3 -37,-0.29 -8.59,-1.31 -17.39,-1.44 -25.99,-0.11 -12.6,1.54 -25.33,0.96 -37.96,2.02 -6.36,-0.55 -12.78,-1.09 -19.15,-0.49 -4.02,1.4 -7.1,4.55 -10.85,6.49 -11.31,6.19 -23.87,9.92 -36.57,11.95 -10.59,1.39 -21.41,-0.13 -31.43,-3.72 -8.32,-2.72 -16.51,-6.38 -23.09,-12.27 C 96.79,178.88 90.37,170.07 88,160 c -1.85,-15.92 0.49,-32.96 9.47,-46.54 3.94,-6.29 9.08,-11.83 15.2,-16.05 1.41,-1.08 3.24,-1.09 4.91,-1.41 0.99,1.12 1.99,2.24 2.99,3.35 1.14,0.06 2.28,0.12 3.42,0.17 -1.07,-3.01 -2.88,-5.67 -4.15,-8.59 -1.56,-5.78 0.24,-11.77 2.8,-16.97 2.38,0.45 4.65,1.31 6.75,2.5 0.01,-1.08 0.03,-2.16 0.04,-3.25 -3.84,-4.84 -4.31,-11.3 -3.68,-17.22 0.88,-6.48 6.1,-11.83 12.27,-13.62 z"
       inkscape:connector-curvature="0"
       style="fill:#01723e" />
    <path
       id="path3085"
       d="m 221.1,44.3 c 21.88,-0.14 43.47,4.58 64.44,10.45 -17.25,2.28 -34.52,-1.18 -51.56,-3.58 -5.02,-0.54 -8.84,-4.22 -12.88,-6.87 z"
       inkscape:connector-curvature="0"
       style="fill:#0021a5" />
    <path
       id="path3087"
       d="m 138.78,58.6 c 2.27,-1.79 4.42,-3.89 7.19,-4.9 2.41,-0.42 4.86,-0.29 7.3,-0.33 6.38,5.04 10.53,12.52 17.83,16.46 4.78,3.7 11.03,2.45 16.61,2.48 -0.02,0.78 -0.06,2.34 -0.08,3.12 -2.24,0.28 -4.9,-0.12 -6.61,1.71 -3.91,3.63 -7.34,7.96 -12.3,10.27 -6.9,4.06 -15.09,4.7 -22.9,3.88 -0.13,-0.91 -0.26,-1.82 -0.38,-2.72 3.97,-0.5 10.17,1.2 11.76,-3.77 -5.31,-1.07 -10.53,-5.1 -11.11,-10.78 -0.96,-4.58 -0.19,-9.24 0.65,-13.77 -2.8,-0.14 -5.62,0.14 -8.31,0.99 0.12,-0.88 0.23,-1.76 0.35,-2.64 z"
       inkscape:connector-curvature="0"
       style="fill:#0021a5" />
    <path
       id="path3089"
       d="m 316.38,64.34 c 3.62,-4.08 9.01,-7.21 14.63,-6.67 3.55,0.41 5.23,4.11 8.18,5.69 3.14,1.65 6.61,2.54 9.89,3.86 -6.42,3.23 -12.85,-1.47 -18.03,-4.92 -4.51,3.24 -8.83,7.43 -14.71,7.74 -0.18,-1.87 -1.56,-4.09 0.04,-5.7 z"
       inkscape:connector-curvature="0"
       style="fill:#0021a5" />
    <path
       id="path3091"
       d="m 151.78,62.83 c 3.67,1.02 6.47,3.71 9.23,6.19 -1.19,2.8 -3.05,5.21 -4.92,7.58 3.9,0.88 7.21,-1.01 10.13,-3.35 2.53,0.36 4.7,1.96 7.04,2.92 -4.94,7.76 -19.61,7.45 -22.63,-1.86 -1.15,-3.82 0.02,-7.81 1.15,-11.48 z"
       inkscape:connector-curvature="0"
       style="fill:#ffffff" />
    <path
       id="path3093"
       d="m 100.43,79.37 c 4.43,-3.82 9.74,-6.43 15.32,-8.08 -0.69,2.85 -1.71,5.61 -2.62,8.4 -1.12,3.56 -0.9,7.4 -1.98,10.97 -1.78,1.93 -4.06,3.3 -6.14,4.89 -1.27,-2.99 -3.08,-5.71 -4.33,-8.7 -0.55,-2.45 -0.24,-5 -0.25,-7.48 z"
       inkscape:connector-curvature="0"
       style="fill:#01723e" />
    <path
       style="fill:#0021a5;fill-opacity:1"
       id="path3095"
       d="m 83.68,80.56 c 3.31,-2.46 6.39,-5.74 10.7,-6.26 -0.02,0.38 -0.06,1.15 -0.08,1.54 -0.64,2.38 -1.9,4.62 -1.96,7.14 -0.14,3.11 0.99,6.07 2,8.96 -6.37,1.24 -13.71,2.95 -17.06,9.15 -3.54,6.36 -0.54,13.52 1.34,19.88 -5.88,4.09 -12.68,8.23 -15.2,15.33 -1.77,4.64 -0.3,9.81 2.55,13.67 3.86,5.66 8.91,10.39 14.26,14.61 3.56,10.92 10.64,20.52 19.89,27.33 16.17,12 36.52,18.66 56.71,17.57 7.38,4.12 15.92,5.13 24.2,5.83 13.8,0.79 27.79,-0.34 41.16,-3.95 2.94,-0.63 5.38,-2.45 7.12,-4.87 11.35,0.72 22.83,-0.26 33.87,-3.06 3.38,-0.82 6.64,-2.27 9.17,-4.7 11,0.36 22.22,0.18 32.82,-3.1 4.89,-1.53 9.42,-4.17 13.07,-7.76 4.27,0.09 8.69,-0.6 12.81,0.89 -27.55,18.55 -60.25,28.25 -93.08,31.63 -13.9,1.89 -27.96,1.12 -41.95,1.2 C 171.97,220.36 147.96,216 125.32,207.65 103,199.18 81,186.97 66.52,167.45 56.71,154.67 51.89,137.66 55.49,121.76 59.12,105.01 70.37,90.89 83.68,80.56 z"
       inkscape:connector-curvature="0" />
    <path
       id="path3097"
       d="m 375.73,86.97 c 3.94,0.27 6.87,-2.4 10.01,-4.3 -0.16,6.55 -4.28,12.02 -7.74,17.26 -2.82,4.35 -6.78,7.94 -11.64,9.83 0.01,-1.51 0.02,-3.1 1.01,-4.34 3.64,-5.71 7.03,-11.73 8.36,-18.45 z"
       inkscape:connector-curvature="0"
       style="fill:#ffffff" />
    <path
       id="path3099"
       d="m 331.17,95.66 c 7.74,-3.04 14.01,-9.28 22.51,-10.41 1.01,3.81 0.24,7.78 -0.82,11.5 -3.12,10.29 -8.8,20.13 -17.51,26.66 -1.44,1.13 -3.29,1.27 -5.03,1.5 -0.16,-4.96 1.22,-9.79 1.34,-14.73 0.76,-4.85 -0.09,-9.69 -0.49,-14.52 z"
       inkscape:connector-curvature="0"
       style="fill:#ffffff" />
    <path
       id="path3101"
       d="m 359.16,85.2 c 3.95,-0.04 7.91,-0.09 11.84,0.43 -0.33,4.66 -2.49,8.87 -4.55,12.96 -2.85,5.49 -6.17,10.84 -10.64,15.17 -1.53,1.54 -3.47,2.66 -5.64,2.97 4.2,-10.08 9.6,-20.25 8.99,-31.53 z"
       inkscape:connector-curvature="0"
       style="fill:#ffffff" />
    <path
       id="path3103"
       d="m 242.14,105.89 c 5.14,-4.34 11.81,-7.36 18.67,-6.53 0.15,7.64 -3.28,15.45 -9.33,20.2 -1.26,1.25 -3.13,0.96 -4.73,1.16 -0.07,-2.52 0.2,-5.1 -0.38,-7.58 -0.8,-2.75 -3.17,-4.64 -4.23,-7.25 z"
       inkscape:connector-curvature="0"
       style="fill:#ffffff" />
    <path
       id="path3105"
       d="m 83.8,106.05 c 2.46,-6.14 9.95,-6.58 15.61,-6.68 -1.3,3.98 -4.59,6.72 -6.76,10.18 -2.14,3.32 -3.99,6.81 -5.81,10.32 -1.81,-4.33 -3.82,-9.06 -3.04,-13.82 z"
       inkscape:connector-curvature="0"
       style="fill:#01723e" />
    <path
       id="path3107"
       d="m 273.19,101.4 c 6.01,2.33 12.24,4.04 18.54,5.4 -2.59,6.3 -7.85,11.2 -13.85,14.26 -1.78,1.02 -3.76,0.45 -5.44,-0.44 1.67,-6.28 1.5,-12.83 0.75,-19.22 z"
       inkscape:connector-curvature="0"
       style="fill:#ffffff" />
    <path
       id="path3109"
       d="m 302.16,107.57 c 6.89,-0.93 13.56,-3.14 19.59,-6.62 -1.62,8.99 -5.77,17.95 -13.08,23.69 -1.48,1.32 -3.41,1.87 -5.33,2.16 -0.23,-6.43 1.21,-13.02 -1.18,-19.23 z"
       inkscape:connector-curvature="0"
       style="fill:#ffffff" />
    <path
       id="path3111"
       d="m 376.53,108.49 c 0.41,-0.01 1.23,-0.05 1.64,-0.07 0.95,2.81 1.88,5.63 2.7,8.49 2.12,6.83 1.85,14.05 1.71,21.11 -0.04,3.7 -0.72,7.34 -1.65,10.91 -1,3.85 -2.57,7.5 -3.98,11.21 -0.57,-1.53 -1.15,-3.05 -1.73,-4.57 -2.56,-0.02 -5.11,-0.01 -7.66,0.01 0.17,-3.81 -0.77,-7.61 -3.15,-10.64 -0.22,-7.31 0.85,-14.7 -0.47,-21.96 -0.52,-2.7 -0.34,-5.45 -0.16,-8.17 1.42,-0.29 2.85,-0.58 4.29,-0.87 3.09,-1.35 5.96,-3.16 8.46,-5.45 z"
       inkscape:connector-curvature="0"
       style="fill:#ff4a00" />
    <path
       id="path3113"
       d="m 217.38,119.82 c 5.02,-2.22 9.92,-4.75 14.33,-8.03 0.89,7.5 -2.44,14.98 -7.81,20.11 -1.19,1.12 -2.79,1.59 -4.37,1.85 0.18,-4.75 0.32,-9.67 -2.15,-13.93 z"
       inkscape:connector-curvature="0"
       style="fill:#ffffff" />
    <path
       id="path3115"
       d="m 139.13,118.73 c 5.09,-2.81 11.19,-3.63 16.78,-1.93 -2.97,5.16 -4.47,10.98 -4.56,16.92 -7.58,-0.3 -11,-8.59 -12.22,-14.99 z"
       inkscape:connector-curvature="0"
       style="fill:#ffffff" />
    <path
       id="path3117"
       d="m 234.97,119.48 c 2.42,-0.08 4.85,-0.06 7.27,-0.02 0.85,1.67 1.72,3.33 2.58,4.99 3.67,0.4 7.34,-0.35 10.08,-2.96 2.66,-0.1 5.33,0.09 7.96,0.58 1.01,0.36 2.03,0.73 3.04,1.09 1.03,0.37 2.05,0.75 3.07,1.14 0.63,0.06 1.88,0.18 2.51,0.25 l 0.03,0.65 c 1.81,0.59 3.61,1.25 5.36,1.99 1.67,0.67 3.33,1.34 4.99,2.01 5.56,2.19 10.74,5.22 16.24,7.53 3.41,1.57 6.85,3.07 10.34,4.45 -0.39,0.07 -1.18,0.21 -1.57,0.28 -3.49,6.21 -9.63,10.34 -15.87,13.43 -0.71,0.32 -1.42,0.65 -2.12,0.97 -1.41,0.23 -2.81,0.45 -4.21,0.66 0.09,-4.59 -0.43,-9.15 -1.46,-13.61 -0.47,-1.29 -0.89,-2.59 -1.3,-3.89 -1.03,-3.04 -3.07,-5.54 -5.61,-7.46 -0.88,0.01 -2.65,0.03 -3.53,0.04 -0.49,0.33 -1.47,0.99 -1.96,1.32 -1.5,5.99 -5.36,11.79 -11.36,13.94 -0.08,0.33 -0.23,0.97 -0.31,1.29 -3.84,-7.53 -7.9,-15.5 -15.12,-20.36 -2.01,-1.57 -4.58,-2.04 -7.04,-2.36 -0.82,0.8 -1.63,1.6 -2.44,2.4 0.01,4.15 -0.12,8.63 -2.74,12.1 -2.51,4.06 -7.47,5.32 -11.9,5.9 -2.58,-2.72 -5.15,-5.59 -8.48,-7.41 -2.15,-1.2 -4.74,-0.8 -7.09,-1.09 -1.22,7.82 -2.13,16.1 -7.27,22.5 -1.1,0.81 -2.18,1.62 -3.26,2.44 -0.66,0.03 -1.32,0.06 -1.97,0.1 -0.19,-1.82 -0.37,-3.63 -0.54,-5.44 -0.46,-1 -0.91,-1.99 -1.35,-2.99 -0.18,-1.1 -0.36,-2.19 -0.53,-3.28 -1.51,-1.92 -3.09,-3.79 -4.81,-5.51 -0.39,-0.79 -0.78,-1.58 -1.17,-2.36 -1.94,0.34 -3.89,0.59 -5.84,0.79 1.68,0.1 3.38,0.17 5,0.64 0.01,0.25 0.01,0.73 0.01,0.98 l -1.5,-0.84 c -0.83,0.01 -2.5,0.02 -3.34,0.02 -1.54,2.34 -1.03,5.22 -1.59,7.83 -0.58,1.99 -1.85,3.64 -2.95,5.36 -1.1,0.04 -2.21,0.08 -3.31,0.12 -1.43,-2.49 -2.85,-4.99 -4.21,-7.52 -0.95,-3.35 -1.09,-6.82 -1.42,-10.26 -1.09,-2.46 -4.31,-1.59 -6.42,-1.36 -4.54,2.57 -5.96,8.01 -7.03,12.75 -0.1,-0.77 -0.3,-2.33 -0.4,-3.11 -0.44,0.15 -1.32,0.44 -1.76,0.59 -1.09,-4 -1.37,-8.41 -3.91,-11.83 l -0.26,-0.45 c -0.92,0.01 -2.76,0.03 -3.68,0.04 -4.85,2.13 -7.7,6.81 -9.62,11.52 -0.61,1.88 -1.2,3.76 -1.8,5.64 -1.18,-0.11 -2.36,-0.22 -3.53,-0.33 -0.45,-7.68 -1.05,-15.81 2.45,-22.94 1.39,-3.24 4.23,-5.43 7.02,-7.41 2.61,5.24 5.7,10.99 11.47,13.24 2.38,0.02 5.78,1.18 7.37,-1.17 0.98,-3.69 1.29,-7.53 2.45,-11.18 0.7,-1.24 1.37,-2.49 2.05,-3.74 3.36,0 6.63,0.76 9.81,1.81 0.03,2.41 -0.32,4.8 -1.15,7.07 -1.49,2.62 -3.57,7.12 -0.48,9.24 9.8,1.27 17.91,-6.17 24.55,-12.41 0.46,3.81 0.4,7.77 -1.74,11.1 -0.06,1.38 -0.1,2.75 -0.13,4.13 0.55,0.3 1.65,0.92 2.2,1.22 1.48,0.01 2.97,0.02 4.46,0.03 7.53,-3.34 13.38,-9.9 15.56,-17.87 1.28,-0.09 2.57,-0.18 3.85,-0.26 0.91,3.77 0.82,7.66 0.76,11.51 3.54,1.4 7.86,1.15 10.54,-1.8 3.72,-4.09 7.06,-8.92 8.06,-14.46 z"
       inkscape:connector-curvature="0"
       style="fill:#FA4616" />
    <path
       id="path3119"
       d="m 169.87,130.97 c 1.88,-2.97 2.74,-6.39 3.6,-9.76 4.28,1.78 8.84,2.64 13.38,3.45 -4.26,5.78 -10.83,10.37 -18.15,10.8 -1.17,-1.62 0.53,-3.06 1.17,-4.49 z"
       inkscape:connector-curvature="0"
       style="fill:#ffffff" />
    <path
       id="path3121"
       d="m 195.39,125.34 c 4.28,-0.41 8.52,-1.15 12.73,-2.04 -2.01,7.32 -7.32,14.92 -15.17,16.45 1.07,-4.76 2.74,-9.45 2.44,-14.41 z"
       inkscape:connector-curvature="0"
       style="fill:#ffffff" />
    <path
       id="path3123"
       d="m 73.45,134.49 c 3.08,-2.95 6.48,-5.58 10.26,-7.58 0.16,6.16 -2.42,11.98 -2.22,18.14 -0.18,2.86 0.38,5.98 -1.14,8.58 -3.72,-1.94 -6.26,-5.65 -8.68,-8.98 -2.28,-3.26 -1.26,-7.77 1.78,-10.16 z"
       inkscape:connector-curvature="0"
       style="fill:#01723e" />
    <path
       id="path3125"
       d="m 238.25,129.38 c 0.55,0.02 1.65,0.06 2.2,0.09 5.68,4.84 10.58,10.69 13.81,17.45 -6.42,-2.89 -13.6,-3.41 -20.55,-3.15 3.9,-3.69 4.96,-9.23 4.54,-14.39 z"
       inkscape:connector-curvature="0"
       style="fill:#ffffff" />
    <path
       id="path3127"
       d="m 273.87,136.43 c 0.51,-0.08 1.52,-0.23 2.02,-0.31 3.38,6.76 4.82,14.48 4.59,22.01 -5.69,-3.29 -11.78,-5.78 -17.9,-8.12 5.8,-2.3 9.47,-7.83 11.29,-13.58 z"
       inkscape:connector-curvature="0"
       style="fill:#ffffff" />
    <path
       id="path3129"
       d="m 139.92,140.97 c 0.85,-0.97 3.15,-1.2 3.45,0.38 0.78,3.97 1.9,7.93 4.14,11.35 -4.54,-0.6 -9.13,-0.22 -13.55,0.94 0.27,-4.77 2.42,-9.46 5.96,-12.67 z"
       inkscape:connector-curvature="0"
       style="fill:#ffffff" />
    <path
       id="path3131"
       d="m 153.41,154.18 c 1.33,-4.75 2.09,-11.87 7.87,-13.14 0.24,3.05 -0.07,6.2 0.91,9.15 1.3,4.35 4.57,7.76 5.89,12.1 -4.74,-2.97 -9.44,-6.04 -14.67,-8.11 z"
       inkscape:connector-curvature="0"
       style="fill:#ffffff" />
    <path
       id="path3133"
       d="m 206.73,140.15 c 4.95,1.31 8.16,5.51 11.5,9.07 -4.78,2.28 -9.72,4.24 -14.22,7.06 1.96,-5.16 2.94,-10.6 2.72,-16.13 z"
       inkscape:connector-curvature="0"
       style="fill:#ffffff" />
    <path
       id="path3135"
       d="m 311.23,143.18 c 0.6,0.07 1.78,0.22 2.37,0.29 0.09,6.38 0.89,12.94 -0.86,19.17 -7.42,0.08 -14.82,-0.18 -22.14,-1.44 0.04,-0.3 0.11,-0.92 0.15,-1.23 8.5,-2.95 16.62,-8.39 20.48,-16.79 z"
       inkscape:connector-curvature="0"
       style="fill:#ffffff" />
    <path
       id="path3137"
       d="m 332.39,151.31 c 2.16,-2.39 3.31,-5.51 5.47,-7.89 1.63,-0.57 1.95,1.23 2.39,2.38 0.63,5.45 0.46,11.05 -0.87,16.39 -7,0.95 -14.12,1.55 -21.13,0.3 5.43,-2.7 10.1,-6.7 14.14,-11.18 z"
       inkscape:connector-curvature="0"
       style="fill:#ffffff" />
    <path
       id="path3139"
       d="m 318.43,145.07 c 3.14,0.37 6.26,0.95 9.37,1.57 -0.05,1.22 -0.1,2.44 -0.14,3.67 -2.86,2.25 -5.38,5.32 -9.2,5.85 -0.08,-3.69 -0.05,-7.39 -0.03,-11.09 z"
       inkscape:connector-curvature="0"
       style="fill:#FA4616" />
    <path
       id="path3141"
       d="m 180.49,146.95 c 1.17,0.6 2.55,1.02 3.33,2.15 3.52,4.65 4.77,10.6 4.78,16.34 -5.55,2.57 -13.06,3.72 -17.65,-1.27 2.44,-2.96 6.2,-4.78 7.85,-8.37 1.37,-2.75 1.33,-5.88 1.69,-8.85 z"
       inkscape:connector-curvature="0"
       style="fill:#ffffff" />
    <path
       id="path3143"
       d="m 347.4,148.34 c 0.77,-1.43 3.5,-1.56 3.88,0.23 1.94,3.7 0.65,7.89 -0.21,11.69 -2.27,0.37 -4.54,0.75 -6.79,1.17 0.27,-4.47 -0.45,-9.69 3.12,-13.09 z"
       inkscape:connector-curvature="0"
       style="fill:#ffffff" />
    <path
       id="path3145"
       d="m 354.94,159.97 c -0.37,-5.44 3.82,-9.1 6.24,-13.48 3.47,2.03 2.71,6.68 2.25,10.03 -1.78,2.84 -5.59,2.81 -8.49,3.45 z"
       inkscape:connector-curvature="0"
       style="fill:#ffffff" />
    <path
       id="path3147"
       d="m 266.36,185.95 c 4.23,-0.06 8.38,-1.16 12.6,-1.14 10.47,1.88 21.15,0.33 31.7,1.3 0.03,0.38 0.1,1.15 0.13,1.53 -6,1.3 -11.56,4.44 -17.79,4.62 -6.02,0.11 -12.07,1.41 -18.04,0.06 -3.04,-0.19 -5.93,-2.49 -8.97,-1.3 -2.34,0.54 1.3,2.34 1.6,3.39 -4.96,3.34 -11.03,3.88 -16.77,4.81 -6.93,0.95 -13.99,1.69 -20.96,0.66 -7.6,-1.07 -15.73,-2.53 -21.47,-8.08 0.03,-1.1 0.07,-2.21 0.1,-3.3 9.15,-0.23 18.34,0.43 27.46,-0.61 6.36,-0.4 12.75,0.05 19.06,-0.97 3.15,-0.56 5.68,2.67 8.78,1.94 1.11,-0.72 1.9,-1.78 2.57,-2.91 z"
       inkscape:connector-curvature="0"
       style="fill:#01723e" />
    <path
       id="path3149"
       d="m 194.86,197.09 c 3.28,-1.25 6.85,-0.57 10.14,0.26 6,1.55 11.97,3.27 17.82,5.31 -0.49,0.82 -0.97,1.63 -1.46,2.46 -8.65,1.98 -17.4,3.72 -26.32,3.51 -8.36,1.47 -16.7,-0.4 -25.09,-0.53 0.26,-1.14 0.52,-2.28 0.78,-3.42 8.45,-1.02 16.21,-4.73 24.13,-7.59 z"
       inkscape:connector-curvature="0"
       style="fill:#01723e" />
  </g>
</svg>
