<?xml version="1.0" encoding="utf-8"?>
<!-- Generator: Adobe Illustrator 15.1.0, SVG Export Plug-In . SVG Version: 6.00 Build 0)  -->
<!DOCTYPE svg PUBLIC "-//W3C//DTD SVG 1.1//EN" "http://www.w3.org/Graphics/SVG/1.1/DTD/svg11.dtd">
<svg version="1.1" id="Layer_1" xmlns="http://www.w3.org/2000/svg" xmlns:xlink="http://www.w3.org/1999/xlink" x="0px" y="0px"
	 width="182.12px" height="129.749px" viewBox="0 0 182.12 129.749" enable-background="new 0 0 182.12 129.749"
	 xml:space="preserve">
<g>
	<defs>
		<rect id="SVGID_1_" width="182.12" height="129.749"/>
	</defs>
	<clipPath id="SVGID_2_">
		<use xlink:href="#SVGID_1_"  overflow="visible"/>
	</clipPath>
	<path clip-path="url(#SVGID_2_)" fill="#00287A" d="M176.667,47.811l-14.605-0.17l-0.122,0.003l-2.905-0.033
		c0,0-3.034,5.339-3.541,6.231c-0.199-0.271-4.659-6.332-4.659-6.332l-14.418-0.168l-0.124,0.003l-2.905-0.033
		c0,0-0.297,0.523-0.569,1.003c-0.368-0.503-0.784-1.071-0.784-1.071l-3.37,1.057c-0.543,0.17-13.334,4.187-17.071,5.648
		c0.005-0.002-1.203,0.496-1.203,0.496c-0.454,0.192-1.299,0.588-4.131,2.083c-2.1,1.11-4.351,2.627-6.884,4.639
		c0.003-0.002-0.028,0.022-0.072,0.057c-0.794-1.085-3.717-5.082-3.717-5.082l-3.37,1.057c-0.543,0.17-13.335,4.188-17.071,5.648
		c-0.001,0-1.207,0.497-1.207,0.497c-4.066,1.805-9.533,4.759-10.696,5.545c-0.188-0.193-2.836-3.143-2.836-3.143L23.29,72.345
		L3.23,77.219c0,0,19.483,5.774,19.55,5.78c-3.853,7.664-12.745,26.009-13.601,27.71C7.736,111.735,0,117.68,0,117.68l4.76,12.069
		l25.5-5.44c0,0,6.768-15.908,6.8-15.979c0-0.058,7.628-1.3,7.65-1.304c1.19,3.457,3.752,6.031,4.808,6.912
		c4.393,3.656,11.397,3.755,20.261,0.289c1.866-0.728,4.063-1.76,6.708-3.156c2.78-1.464,5.849-3.559,9.115-6.223
		c0,0,0.039-0.032,0.075-0.061c0.102,0.089,0.207,0.184,0.291,0.253c4.392,3.655,11.396,3.754,20.259,0.289
		c1.867-0.728,4.064-1.76,6.708-3.156c1.673-0.88,2.671-1.782,4.535-3.108c1.19,1.19,2.125,1.955,3.655,2.975
		c0,0,2.549,1.34,5.185,1.955c2.551,0.595,4.666,0.739,6.801,0.765c0.002,0,5.609-0.595,5.609-0.595
		c2.465-0.51,4.371-1.093,7.379-2.06c2.553-0.817,5.221-2.17,8.15-4.132c2.853-1.911,5.459-4.182,7.746-6.752
		c2.24-2.517,4.197-5.237,5.816-8.086l0.031-0.056l14.276-26.698L176.667,47.811"/>
	<path clip-path="url(#SVGID_2_)" fill="#CFAB7A" d="M173.937,52.46l-0.146-0.001l-11.936-0.139l-15.038,26.466
		c-1.367,2.404-3.023,4.256-4.966,5.554c-1.876,1.251-3.829,1.882-5.857,1.902c-0.391-1.336,0.068-3.161,1.381-5.472l13.494-24.941
		l-2.7-3.669l-11.96-0.14l-14.684,25.843c-1.21,2.128-2.225,4.578-3.037,7.345c-0.51,1.722-0.594,3.398-0.248,5.028
		c0.345,1.631,0.719,2.683,1.383,3.87c0.794,1.416,1.162,2.153,2.607,3.173c2.208,1.559,3.258,1.642,7.367,2.38
		c2.09,0.375,4.702,0.057,6.742-0.283c3.271-0.545,5.304-0.933,8.218-1.87c2.093-0.67,4.28-2.195,6.799-3.882
		c2.517-1.686,4.787-3.665,6.807-5.933c2.02-2.269,3.756-4.682,5.213-7.246l12.888-24.1L173.937,52.46"/>
	<path clip-path="url(#SVGID_2_)" fill="none" stroke="#CFAB7A" stroke-width="2.363" d="M173.937,52.46l-0.146-0.001l-11.936-0.139
		l-15.038,26.466c-1.367,2.404-3.023,4.256-4.966,5.554c-1.876,1.251-3.829,1.882-5.857,1.902c-0.391-1.336,0.068-3.161,1.381-5.472
		l13.494-24.941l-2.7-3.669l-11.96-0.14l-14.684,25.843c-1.21,2.128-2.225,4.578-3.037,7.345c-0.51,1.722-0.594,3.398-0.248,5.028
		c0.345,1.631,0.719,2.683,1.383,3.87c0.794,1.416,1.162,2.153,2.607,3.173c2.208,1.559,3.258,1.642,7.367,2.38
		c2.09,0.375,4.702,0.057,6.742-0.283c3.271-0.545,5.304-0.933,8.218-1.87c2.093-0.67,4.28-2.195,6.799-3.882
		c2.517-1.686,4.787-3.665,6.807-5.933c2.02-2.269,3.756-4.682,5.213-7.246l12.888-24.1L173.937,52.46z"/>
	<path clip-path="url(#SVGID_2_)" fill="#FFFFFF" d="M131.121,96.364c3.313,0.038,6.429-0.412,9.343-1.35
		c2.093-0.67,4.398-1.848,6.916-3.535c2.519-1.686,4.788-3.665,6.807-5.933c2.021-2.269,3.758-4.683,5.214-7.246l13.503-23.761
		l1.182-2.081l-12.109-0.141l-15.038,26.466c-1.366,2.405-3.022,4.256-4.966,5.553c-1.875,1.253-3.829,1.882-5.856,1.903
		c-0.072,0.001-0.146,0.007-0.219,0.006c-2.126-0.025-3.41-0.709-3.852-2.054s0.01-3.2,1.355-5.566l13.855-24.385l1.182-2.081
		l-12.107-0.141l-14.685,25.843c-1.21,2.128-2.224,4.577-3.036,7.345c-0.511,1.72-0.594,3.397-0.248,5.027
		c0.346,1.631,1.028,2.894,2.054,3.788c0.833,0.73,2.03,1.265,3.576,1.614c0.352,0.08,0.717,0.153,1.106,0.213
		C127.196,96.169,129.204,96.341,131.121,96.364"/>
	<path clip-path="url(#SVGID_2_)" fill="#00885A" d="M132.045,84.191c0.441,1.345,1.727,2.029,3.853,2.054
		c0.072,0.001,0.145-0.005,0.218-0.006c-0.392-1.337,0.066-3.16,1.381-5.472l13.494-24.941l-2.612-3.825L133.4,78.625
		C132.055,80.991,131.604,82.846,132.045,84.191"/>
	<path clip-path="url(#SVGID_2_)" fill="#00885A" d="M174.01,52.36l-14.582,25.968c-1.456,2.563-3.193,4.977-5.213,7.246
		c-2.02,2.268-4.29,4.247-6.807,5.933c-2.518,1.687-4.824,2.865-6.917,3.535c-2.914,0.937-5.994,1.312-9.308,1.274
		c-1.918-0.023-5.521-0.333-7.594-0.794c-1.02-0.226-2.267-0.68-4.08-2.266c-0.82-0.879,0.198,1.964,2.834,3.966
		c2.832,2.154,6.236,2.275,7.819,2.38c1.7,0.114,4.16,0.135,6.573-0.226c3.22-0.482,5.636-1.208,7.479-1.814
		c2.09-0.684,4.771-2.226,7.288-3.913c2.519-1.686,4.788-3.665,6.808-5.933c2.02-2.269,3.757-4.683,5.213-7.245l12.888-24.101
		L174.01,52.36"/>
	<path clip-path="url(#SVGID_2_)" fill="#231F20" d="M121.393,90.605"/>
	<path clip-path="url(#SVGID_2_)" fill="none" stroke="#231F20" stroke-width="9.057" d="M121.393,90.605"/>
	<path clip-path="url(#SVGID_2_)" fill="#CFAB7A" d="M121.428,92.303"/>
	<path clip-path="url(#SVGID_2_)" fill="none" stroke="#CFAB7A" stroke-width="2.365" d="M121.428,92.303"/>
	<path clip-path="url(#SVGID_2_)" fill="#CFAB7A" d="M117.867,81.128l-10.427,1.814l-0.921,2.434c0,0-3.346,1.415-4.065,1.634
		l-0.089-0.159c0.48-2.229,0.884-3.567,0.992-3.893l1.692-3.973c0.75-1.639,1.831-3.183,3.7-4.215
		c3.083-1.696,4.024-1.783,4.182-1.846c1.06-0.412,6.004-1.348,6.004-1.348l13.78-14.833l-2.886-3.78c0,0-13.049,4.068-16.671,5.483
		c-0.25,0.098-0.61,0.249-1.083,0.447c-0.476,0.201-1.72,0.834-3.748,1.903c-2.021,1.068-4.316,2.653-6.882,4.753
		c-2.565,2.099-5.323,4.938-8.269,8.513c-2.942,3.575-5.074,7.367-6.399,11.373c-0.726,2.201-1.055,7.13-1.055,7.13
		s-0.159,1.373,0.582,4.402c0.474,1.934,2.223,3.558,2.79,4.031c3.566,2.969,10.085,1.526,15.308-0.516
		c1.693-0.66,3.724-1.616,6.204-2.924c2.493-1.315,5.284-3.226,8.3-5.685l0.52-0.421l1.953-5.564L117.867,81.128"/>
	<path clip-path="url(#SVGID_2_)" fill="none" stroke="#CFAB7A" stroke-width="2.365" d="M117.867,81.128l-10.427,1.814
		l-0.921,2.434c0,0-3.346,1.415-4.065,1.634l-0.089-0.159c0.48-2.229,0.884-3.567,0.992-3.893l1.692-3.973
		c0.75-1.639,1.831-3.183,3.7-4.215c3.083-1.696,4.024-1.783,4.182-1.846c1.06-0.412,6.004-1.348,6.004-1.348l13.78-14.833
		l-2.886-3.78c0,0-13.049,4.068-16.671,5.483c-0.25,0.098-0.61,0.249-1.083,0.447c-0.476,0.201-1.72,0.834-3.748,1.903
		c-2.021,1.068-4.316,2.653-6.882,4.753c-2.565,2.099-5.323,4.938-8.269,8.513c-2.942,3.575-5.074,7.367-6.399,11.373
		c-0.726,2.201-1.055,7.13-1.055,7.13s-0.159,1.373,0.582,4.402c0.474,1.934,2.223,3.558,2.79,4.031
		c3.566,2.969,10.085,1.526,15.308-0.516c1.693-0.66,3.724-1.616,6.204-2.924c2.493-1.315,5.284-3.226,8.3-5.685l0.52-0.421
		l1.953-5.564L117.867,81.128z"/>
	<path clip-path="url(#SVGID_2_)" fill="#FFFFFF" d="M115.501,88.412c-2.903,2.368-5.539,4.177-7.901,5.422
		c-2.364,1.246-4.351,2.187-5.965,2.816c-4.801,1.878-8.574,2.346-11.306,1.405c-2.736-0.937-4.159-2.755-4.271-5.445
		c-0.114-2.689,0.194-5.134,0.92-7.334c1.324-4.008,3.456-7.8,6.4-11.374c2.945-3.576,5.701-6.413,8.267-8.513
		c2.567-2.099,4.862-3.685,6.886-4.754c2.022-1.068,3.271-1.701,3.745-1.901c0.471-0.199,0.832-0.349,1.082-0.446
		c3.622-1.416,16.752-5.536,16.752-5.536l-13.672,14.435c-0.156-0.094-4.27,0.869-5.956,1.527c-0.537,0.212-1.911,0.815-4.217,2.087
		c-2.31,1.272-4.536,3.586-5.497,5.689c-0.958,2.1-1.485,3.292-1.576,3.574c-0.094,0.286-0.163,0.495-0.211,0.637
		c-0.21,0.637-0.577,2.199-1.101,4.686c-0.526,2.484,1.868,2.692,7.174,0.619l1.667-0.79l0.832-2.161l10.427-1.7L115.501,88.412"/>
	<path clip-path="url(#SVGID_2_)" fill="none" stroke="#FFFFFF" stroke-width="0.142" d="M115.501,88.412
		c-2.903,2.368-5.539,4.177-7.901,5.422c-2.364,1.246-4.351,2.187-5.965,2.816c-4.801,1.878-8.574,2.346-11.306,1.405
		c-2.736-0.937-4.159-2.755-4.271-5.445c-0.114-2.689,0.194-5.134,0.92-7.334c1.324-4.008,3.456-7.8,6.4-11.374
		c2.945-3.576,5.701-6.413,8.267-8.513c2.567-2.099,4.862-3.685,6.886-4.754c2.022-1.068,3.271-1.701,3.745-1.901
		c0.471-0.199,0.832-0.349,1.082-0.446c3.622-1.416,16.752-5.536,16.752-5.536l-13.672,14.435c-0.156-0.094-4.27,0.869-5.956,1.527
		c-0.537,0.212-1.911,0.815-4.217,2.087c-2.31,1.272-4.536,3.586-5.497,5.689c-0.958,2.1-1.485,3.292-1.576,3.574
		c-0.094,0.286-0.163,0.495-0.211,0.637c-0.21,0.637-0.577,2.199-1.101,4.686c-0.526,2.484,1.868,2.692,7.174,0.619l1.667-0.79
		l0.832-2.161l10.427-1.7L115.501,88.412z"/>
	<path clip-path="url(#SVGID_2_)" fill="#00885A" d="M116.554,67.045c-1.331,0.25-3.769,0.753-5.154,1.292
		c-0.451,0.177-1.495,0.354-4.677,2.106c-2.757,1.52-5.026,3.837-6.197,6.401l-1.544,3.857c-0.357,0.651-0.945,3.362-1.108,5.543
		c-0.162,2.191,5.34,0.428,4.639,0.547c0.478-2.229,0.938-3.668,1.047-3.992l1.693-3.974c0.747-1.642,2.02-2.936,3.888-3.968
		c3.082-1.696,3.836-2.031,3.991-2.093c1.061-0.412,6.005-1.349,6.005-1.349l13.777-14.833l-2.884-3.779
		C130.029,52.803,117.492,65.88,116.554,67.045"/>
	<path clip-path="url(#SVGID_2_)" fill="#00885A" d="M117.984,81.224c-1.833,5.217-2.072,6.294-2.385,7.184
		c-2.565,2.053-4.935,3.691-7.01,4.784c-2.286,1.206-4.209,2.115-5.716,2.702c-5.65,2.209-8.165,2.92-11.029,2.508
		c-0.151-0.023-5.276-0.461-5.92-5.997c0,0-0.16,1.372,0.582,4.401c0.473,1.935,2.221,3.559,2.789,4.032
		c3.567,2.968,10.085,1.528,15.307-0.517c1.693-0.661,3.725-1.617,6.206-2.925c2.49-1.312,5.284-3.223,8.297-5.683l0.521-0.423
		l1.671-5.411L117.984,81.224"/>
	<path clip-path="url(#SVGID_2_)" fill="#231F20" d="M84.943,99.504"/>
	<path clip-path="url(#SVGID_2_)" fill="none" stroke="#231F20" stroke-width="9.057" d="M84.943,99.504"/>
	<path clip-path="url(#SVGID_2_)" fill="#CFAB7A" d="M84.979,101.201"/>
	<path clip-path="url(#SVGID_2_)" fill="none" stroke="#CFAB7A" stroke-width="2.365" d="M84.979,101.201"/>
	<path clip-path="url(#SVGID_2_)" fill="#CFAB7A" d="M85.302,79.063l-13.595,5.419l-4.856,7.921l4.445-1.848l-1.225,3.72
		c0,0-3.346,1.415-4.065,1.634l-0.089-0.159c0.48-2.229,0.883-3.567,0.991-3.892l1.694-3.974c0.749-1.639,1.829-3.184,3.697-4.215
		c3.084-1.697,4.025-1.783,4.184-1.846c1.059-0.413,6.003-1.349,6.003-1.349l13.782-14.832l-2.889-3.78
		c0,0-13.048,4.067-16.67,5.483c-0.249,0.097-0.609,0.249-1.083,0.448c-0.474,0.2-1.72,0.834-3.748,1.901
		c-2.02,1.07-4.315,2.655-6.882,4.754c-2.564,2.099-5.323,4.936-8.268,8.512c-2.943,3.576-5.075,7.368-6.4,11.374
		c-0.725,2.201-1.054,7.131-1.054,7.131s-0.16,1.371,0.582,4.4c0.473,1.935,2.222,3.558,2.789,4.032
		c3.566,2.968,10.086,1.525,15.308-0.516c1.694-0.66,3.724-1.617,6.203-2.926c2.495-1.314,5.286-3.225,8.301-5.683l0.521-0.422
		l5.637-16.632L85.302,79.063"/>
	<path clip-path="url(#SVGID_2_)" fill="none" stroke="#CFAB7A" stroke-width="2.365" d="M85.302,79.063l-13.595,5.419l-4.856,7.921
		l4.445-1.848l-1.225,3.72c0,0-3.346,1.415-4.065,1.634l-0.089-0.159c0.48-2.229,0.883-3.567,0.991-3.892l1.694-3.974
		c0.749-1.639,1.829-3.184,3.697-4.215c3.084-1.697,4.025-1.783,4.184-1.846c1.059-0.413,6.003-1.349,6.003-1.349l13.782-14.832
		l-2.889-3.78c0,0-13.048,4.067-16.67,5.483c-0.249,0.097-0.609,0.249-1.083,0.448c-0.474,0.2-1.72,0.834-3.748,1.901
		c-2.02,1.07-4.315,2.655-6.882,4.754c-2.564,2.099-5.323,4.936-8.268,8.512c-2.943,3.576-5.075,7.368-6.4,11.374
		c-0.725,2.201-1.054,7.131-1.054,7.131s-0.16,1.371,0.582,4.4c0.473,1.935,2.222,3.558,2.789,4.032
		c3.566,2.968,10.086,1.525,15.308-0.516c1.694-0.66,3.724-1.617,6.203-2.926c2.495-1.314,5.286-3.225,8.301-5.683l0.521-0.422
		l5.637-16.632L85.302,79.063z"/>
	<path clip-path="url(#SVGID_2_)" fill="#FFFFFF" d="M50.529,94.174c1.324-4.008,3.456-7.8,6.4-11.375
		c2.946-3.575,5.701-6.412,8.267-8.512c2.567-2.099,4.862-3.685,6.887-4.754c2.022-1.068,3.27-1.701,3.745-1.901
		c0.471-0.199,0.832-0.35,1.082-0.447c3.621-1.416,16.753-5.535,16.753-5.535L79.99,76.084c-0.156-0.093-4.27,0.869-5.955,1.526
		c-0.538,0.213-1.912,0.816-4.219,2.088c-2.31,1.271-4.536,3.586-5.497,5.688c-0.958,2.101-1.484,3.293-1.575,3.575
		c-0.095,0.285-0.163,0.495-0.212,0.637c-0.21,0.637-0.576,2.2-1.101,4.686c-0.526,2.485,1.868,2.692,7.174,0.618l1.666-0.789
		l1.228-3.718l-4.45,1.848l4.861-7.924l13.593-5.417l-6.451,18.408c-2.903,2.368-5.539,4.176-7.901,5.421
		c-2.363,1.247-4.351,2.187-5.965,2.816c-4.801,1.878-8.574,2.346-11.306,1.405c-2.736-0.938-4.16-2.755-4.271-5.445"/>
	<path clip-path="url(#SVGID_2_)" fill="none" stroke="#FFFFFF" stroke-width="0.142" d="M50.529,94.174
		c1.324-4.008,3.456-7.8,6.4-11.375c2.946-3.575,5.701-6.412,8.267-8.512c2.567-2.099,4.862-3.685,6.887-4.754
		c2.022-1.068,3.27-1.701,3.745-1.901c0.471-0.199,0.832-0.35,1.082-0.447c3.621-1.416,16.753-5.535,16.753-5.535L79.99,76.084
		c-0.156-0.093-4.27,0.869-5.955,1.526c-0.538,0.213-1.912,0.816-4.219,2.088c-2.31,1.271-4.536,3.586-5.497,5.688
		c-0.958,2.101-1.484,3.293-1.575,3.575c-0.095,0.285-0.163,0.495-0.212,0.637c-0.21,0.637-0.576,2.2-1.101,4.686
		c-0.526,2.485,1.868,2.692,7.174,0.618l1.666-0.789l1.228-3.718l-4.45,1.848l4.861-7.924l13.593-5.417l-6.451,18.408
		c-2.903,2.368-5.539,4.176-7.901,5.421c-2.363,1.247-4.351,2.187-5.965,2.816c-4.801,1.878-8.574,2.346-11.306,1.405
		c-2.736-0.938-4.16-2.755-4.271-5.445"/>
	<path clip-path="url(#SVGID_2_)" fill="#00885A" d="M80.104,75.943c-1.33,0.25-3.769,0.753-5.154,1.292
		c-0.451,0.176-1.495,0.354-4.677,2.104c-2.756,1.521-5.026,3.837-6.197,6.402l-1.544,3.857c-0.357,0.651-0.945,3.362-1.108,5.543
		c-0.161,2.192,5.342,0.428,4.639,0.547c0.478-2.229,0.938-3.667,1.047-3.991l1.695-3.975c0.745-1.641,2.018-2.937,3.886-3.969
		c3.082-1.695,3.836-2.03,3.992-2.093c1.061-0.411,6.004-1.348,6.004-1.348l13.777-14.832l-2.884-3.78
		C93.58,61.701,81.043,74.778,80.104,75.943"/>
	<path clip-path="url(#SVGID_2_)" fill="#00885A" d="M85.503,78.902c-1.833,5.216-6.04,17.514-6.353,18.405
		c-2.566,2.053-4.934,3.69-7.009,4.782c-2.287,1.206-4.21,2.116-5.716,2.703c-5.651,2.209-8.166,2.92-11.029,2.507
		c-0.152-0.021-5.277-0.461-5.921-5.996c0,0-0.16,1.372,0.583,4.402c0.473,1.934,2.22,3.559,2.788,4.029
		c3.567,2.97,10.085,1.529,15.308-0.514c1.693-0.662,3.725-1.619,6.205-2.927c2.49-1.312,5.284-3.223,8.297-5.683l0.521-0.422
		l5.638-16.632L85.503,78.902"/>
	<polygon clip-path="url(#SVGID_2_)" fill="#00885A" points="71.498,90.395 67.049,92.243 69.05,94.662 70.272,94.113 	"/>
	<polygon clip-path="url(#SVGID_2_)" fill="#CFAB7A" points="12.325,77.471 23.388,79.665 23.435,75.514 	"/>
	<path clip-path="url(#SVGID_2_)" fill="#CFAB7A" d="M58.79,70.347l0.135,0.012l2.925,3.948l-8.5,12.457
		c0,0-10.782,2.201-12.035,2.444l-0.376,0.906l4.373-0.869l2.192,2.325l-5.386,10.823c0,0-8.288,1.629-8.306,1.612
		c0.018,0.017-7.009,15.884-7.009,15.884l-19.413,4.116l-1.978-4.877l6.776-4.813l17.347-34.513l-10.818-2.26L58.79,70.347"/>
	<path clip-path="url(#SVGID_2_)" fill="none" stroke="#CFAB7A" stroke-width="2.365" d="M58.79,70.347l0.135,0.012l2.925,3.948
		l-8.5,12.457c0,0-10.782,2.201-12.035,2.444l-0.376,0.906l4.373-0.869l2.192,2.325l-5.386,10.823c0,0-8.288,1.629-8.306,1.612
		c0.018,0.017-7.009,15.884-7.009,15.884l-19.413,4.116l-1.978-4.877l6.776-4.813l17.347-34.513l-10.818-2.26L58.79,70.347z"/>
	<path clip-path="url(#SVGID_2_)" fill="#00885A" d="M50.624,82.212c-1.053,0.204-12.496,2.563-12.496,2.563l-2.081,4.18
		l5.055,1.098c0,0-0.128-0.021,0.336-0.943c1.253-0.244,12.035-2.445,12.035-2.445l8.5-12.456l-2.926-3.949
		C59.047,70.26,51.249,81.319,50.624,82.212"/>
	<path clip-path="url(#SVGID_2_)" fill="#00885A" d="M39.156,97.889c-1.173,0.227-8.317,1.613-8.317,1.613l-7.041,15.911
		l-18.244,3.627l1.927,4.815l19.096-3.966c0,0,6.871-15.01,7.359-15.982c1.179-0.229,8.307-1.611,8.307-1.611l5.559-10.81
		l-3.5-4.152C44.301,87.333,39.731,96.761,39.156,97.889"/>
	<polygon clip-path="url(#SVGID_2_)" fill="#FFFFFF" points="23.63,115.354 5.536,119.029 12.313,114.216 29.659,79.704 
		18.717,77.542 58.913,70.249 50.717,82.295 38.17,84.73 36.047,88.955 44.359,87.342 39.13,97.747 30.816,99.359 	"/>
	<polygon clip-path="url(#SVGID_2_)" fill="none" stroke="#FFFFFF" stroke-width="0.142" points="23.63,115.354 5.536,119.029 
		12.313,114.216 29.659,79.704 18.717,77.542 58.913,70.249 50.717,82.295 38.17,84.73 36.047,88.955 44.359,87.342 39.13,97.747 
		30.816,99.359 	"/>
	<path clip-path="url(#SVGID_2_)" fill="#00287A" d="M143.712,24.978c0,0-3.173,4.299-3.982,4.498
		c0.336-1.421,1.232-6.504,1.232-7.803c0-3.463-1.102-6.328-2.79-7.736l-2.225-1.855l-0.971,2.731
		c-0.012,0.032-0.951,2.6-2.54,4.843c0.054-0.122,0.106-0.224,0.16-0.349c0.454-1.068,0.646-2.232,0.646-3.423
		c0-4.094-2.278-8.492-4.021-10.235l-2.753-2.754l-0.665,3.856c-0.007,0.038-0.711,3.875-5.156,8.318
		c-0.173,0.174-0.551,0.485-1.021,0.858c0.104-0.593,0.183-1.173,0.183-1.704c0-2.661-1.171-4.509-2.008-5.274l-2.609-2.381
		l-0.733,3.482c-0.004,0.016-0.377,1.72-2.187,4.266c-1.662,2.338-3.173,4.091-4.479,5.446c-0.029-0.556-0.054-1.129-0.119-1.604
		c-0.006-0.054-1.073-4.34-3.918-5.691l-1.935-1.45c0,0-0.895,6.005-2.506,10.521c-1.573,4.407-3.555,7.217-6.178,10.18
		c-0.854,0.223-2.724,0.661-4.329,0.763c-4.456,0.285-6.36,1.55-7.982,3.498c-0.926,1.11-1.221,2.459-1.221,3.649
		c0,0.9,0.168,1.711,0.359,2.26c0.331,0.947,0.754,1.72,1.271,2.346c-0.675,0.184-1.161,0.389-1.404,0.512
		c-1.105,0.453-6.51,2.832-7.477,6.377c-0.214,0.786-0.303,1.526-0.303,2.222c0,1.812,0.606,3.32,1.202,4.51
		c0.838,1.678,2.809,4.542,4.132,6.008c2.995,3.318,6.774,4.479,6.933,4.527l3.127,0.939l-0.557-3.218
		c-0.149-0.856-0.476-3.115-0.476-4.685c0-0.268,0.011-0.516,0.03-0.734l0.049-0.491c0.002-0.039,0.006-0.083,0.013-0.122
		c1.965,0.782,6.001,1.865,11.719,0.792c3.531-0.662,5.304-1.62,5.811-3.141c0.43,0.095,0.854,0.156,1.269,0.148
		c8.634-0.202,12.937-1.88,17.283-3.886c5.052-2.333,8.729-5.079,14.187-9.324c1.695-1.318,7.315-6.127,8.486-12.677
		C145.785,29.04,143.927,25.385,143.712,24.978"/>
	<path clip-path="url(#SVGID_2_)" fill="none" stroke="#00287A" stroke-width="2.794" d="M143.712,24.978
		c0,0-3.173,4.299-3.982,4.498c0.336-1.421,1.232-6.504,1.232-7.803c0-3.463-1.102-6.328-2.79-7.736l-2.225-1.855l-0.971,2.731
		c-0.012,0.032-0.951,2.6-2.54,4.843c0.054-0.122,0.106-0.224,0.16-0.349c0.454-1.068,0.646-2.232,0.646-3.423
		c0-4.094-2.278-8.492-4.021-10.235l-2.753-2.754l-0.665,3.856c-0.007,0.038-0.711,3.875-5.156,8.318
		c-0.173,0.174-0.551,0.485-1.021,0.858c0.104-0.593,0.183-1.173,0.183-1.704c0-2.661-1.171-4.509-2.008-5.274l-2.609-2.381
		l-0.733,3.482c-0.004,0.016-0.377,1.72-2.187,4.266c-1.662,2.338-3.173,4.091-4.479,5.446c-0.029-0.556-0.054-1.129-0.119-1.604
		c-0.006-0.054-1.073-4.34-3.918-5.691l-1.935-1.45c0,0-0.895,6.005-2.506,10.521c-1.573,4.407-3.555,7.217-6.178,10.18
		c-0.854,0.223-2.724,0.661-4.329,0.763c-4.456,0.285-6.36,1.55-7.982,3.498c-0.926,1.11-1.221,2.459-1.221,3.649
		c0,0.9,0.168,1.711,0.359,2.26c0.331,0.947,0.754,1.72,1.271,2.346c-0.675,0.184-1.161,0.389-1.404,0.512
		c-1.105,0.453-6.51,2.832-7.477,6.377c-0.214,0.786-0.303,1.526-0.303,2.222c0,1.812,0.606,3.32,1.202,4.51
		c0.838,1.678,2.809,4.542,4.132,6.008c2.995,3.318,6.774,4.479,6.933,4.527l3.127,0.939l-0.557-3.218
		c-0.149-0.856-0.476-3.115-0.476-4.685c0-0.268,0.011-0.516,0.03-0.734l0.049-0.491c0.002-0.039,0.006-0.083,0.013-0.122
		c1.965,0.782,6.001,1.865,11.719,0.792c3.531-0.662,5.304-1.62,5.811-3.141c0.43,0.095,0.854,0.156,1.269,0.148
		c8.634-0.202,12.937-1.88,17.283-3.886c5.052-2.333,8.729-5.079,14.187-9.324c1.695-1.318,7.315-6.127,8.486-12.677
		C145.785,29.04,143.927,25.385,143.712,24.978z"/>
	<path clip-path="url(#SVGID_2_)" fill="#FFFFFF" d="M90.15,43.662c-1.682,0.505-3.28,0.841-5.551,0.336
		c-1.233-0.273-2.185-0.925-2.859-2.859c-0.196-0.564-0.638-2.582,0.504-3.953c1.262-1.514,2.606-2.523,6.561-2.776
		c2.389-0.152,5.312-0.972,5.34-1.003c2.735-3.034,5.092-6.096,6.94-11.277c1.683-4.71,2.355-7.738,2.355-7.738
		c0.925,0.084,1.896,2.445,2.102,3.954c0.254,1.85,0.422,4.542-1.262,6.813c0,0,4.123-2.187,9.504-9.757
		c2.149-3.023,2.524-4.962,2.524-5.047c0,0.085,1.936,1.767,1.178,5.383c-0.551,2.634-4.122,7.15-4.122,7.15s7.33-5.228,8.578-6.478
		c5.047-5.046,5.722-9.419,5.722-9.419c2.019,2.019,4.493,7.801,2.944,11.439c-1.935,4.542-3.619,6.14-6.982,8.411
		c0,0,5.383-0.757,8.916-4.375c2.679-2.744,4.204-7.064,4.204-7.064c2.02,1.682,3.281,7.317,0.337,13.457
		c-1.454,3.034-5.048,5.047-5.048,5.047c2.021,1.346,4.725,0.156,7.739-2.356c2.019-1.681,2.019-5.719,2.019-5.719
		s1.767,3.365,1.346,5.719c-0.868,4.86-4.709,9.084-7.737,11.439c-5.602,4.358-9.052,6.895-13.795,9.084
		c-4.373,2.018-8.463,3.513-16.482,3.701c-2.348,0.054-6.395-3.364-7.488-3.448C90.169,51.75,90.15,43.662,90.15,43.662"/>
	<path clip-path="url(#SVGID_2_)" fill="#00287A" d="M94.65,47.072c0,0-0.012-3.015,5.133-4.137
		c5.147-1.122,10.724-3.646,10.724-3.646s-2.861,5.72-5.553,8.915C100.157,53.899,94.65,47.072,94.65,47.072"/>
	<path clip-path="url(#SVGID_2_)" fill="#00287A" d="M105.754,45.344c0,2.509-2.034,4.542-4.542,4.542s-4.543-2.033-4.543-4.542
		c0-2.509,2.035-4.542,4.543-4.542S105.754,42.835,105.754,45.344"/>
	<path clip-path="url(#SVGID_2_)" fill="#00885A" d="M103.986,45.344c0,1.532-1.243,2.775-2.774,2.775
		c-1.532,0-2.775-1.243-2.775-2.775c0-1.532,1.243-2.775,2.775-2.775C102.743,42.569,103.986,43.812,103.986,45.344"/>
	<circle clip-path="url(#SVGID_2_)" fill="none" stroke="#00885A" stroke-width="1.329" cx="101.211" cy="45.344" r="2.775"/>
	<path clip-path="url(#SVGID_2_)" fill="#FFFFFF" d="M101.746,45.575c0,0.702-0.568,1.272-1.271,1.272
		c-0.703,0-1.271-0.57-1.271-1.272c0-0.701,0.568-1.271,1.271-1.271C101.178,44.304,101.746,44.875,101.746,45.575"/>
	<path clip-path="url(#SVGID_2_)" fill="#00287A" d="M111.178,32.14c0,0,0.504,0.721-3.534,3.749
		c-4.037,3.028-8.154,4.025-13.161,3.778c-4.156-0.203-5.047,6.056-0.463,6.315c3.495,0.197,6.393-0.89,9.293-2.025
		c6.555-2.564,9.463-4.668,10.221-7.948C114.561,31.556,111.178,32.14,111.178,32.14"/>
	<path clip-path="url(#SVGID_2_)" fill="#FFFFFF" d="M108.738,28.186c0,0,3.825,2.782-0.211,5.811
		c-4.039,3.029-8.156,4.025-13.161,3.779c-4.157-0.204-5.046,6.056-0.465,6.315c3.495,0.197,6.268-0.511,9.296-2.026
		c6.295-3.147,9.587-5.046,9.881-8.572C114.456,28.938,108.738,28.186,108.738,28.186"/>
	<path clip-path="url(#SVGID_2_)" fill="#758BBB" d="M99.318,34.41c7.547-3.701,16.062-3.272,16.062-3.272
		s-6.305,1.421-10.763,2.935c-5.098,1.732-12.404,5.31-12.404,5.31S94.86,36.597,99.318,34.41"/>
	<path clip-path="url(#SVGID_2_)" fill="#758BBB" d="M137.252,39.961c-9.082,9.169-19.303,12.196-19.303,12.196
		s9.966-5.751,14.887-10.093c4.289-3.784,8.858-10.316,8.858-10.316S141.9,35.27,137.252,39.961"/>
</g>
<g>
	<defs>
		<path id="SVGID_3_" d="M80.479,46.522c0,0-5.551,2.271-6.308,5.046c-0.567,2.081,0,3.785,0.757,5.299
			c0.757,1.513,2.629,4.233,3.825,5.558c2.652,2.937,6.014,3.946,6.014,3.946s-0.673-3.869-0.464-5.965
			c0.179-1.776,0.254-3.28,1.011-4.038c0.757-0.757,2.312-1.507,4.793-1.514c2.483-0.006,4.419-1.435,4.419-1.435l-3.197-2.355
			c-0.757-0.253-0.291-4.044-3.279-4.795c-1.467-0.369-2.725-0.499-3.771-0.499C81.765,45.771,80.479,46.522,80.479,46.522"/>
	</defs>
	<clipPath id="SVGID_4_">
		<use xlink:href="#SVGID_3_"  overflow="visible"/>
	</clipPath>
	<path clip-path="url(#SVGID_4_)" fill="#FFFFFF" d="M91.328,51.064c-0.757-0.253-0.291-4.045-3.279-4.795
		c-4.992-1.255-7.57,0.252-7.57,0.252s-5.552,2.271-6.309,5.047c-0.567,2.08,0,3.785,0.757,5.298
		c0.758,1.514,2.631,4.234,3.825,5.559c2.653,2.936,6.015,3.946,6.015,3.946s-0.673-3.869-0.464-5.965
		c0.18-1.776,0.254-3.281,1.01-4.038c0.758-0.757,2.313-1.508,4.795-1.514s4.418-1.436,4.418-1.436L91.328,51.064"/>
</g>
<g>
	<defs>
		<path id="SVGID_5_" d="M80.479,46.522c0,0-5.551,2.271-6.308,5.046c-0.567,2.081,0,3.785,0.757,5.299
			c0.757,1.513,2.629,4.233,3.825,5.558c2.652,2.937,6.014,3.946,6.014,3.946s-0.673-3.869-0.464-5.965
			c0.179-1.776,0.254-3.28,1.011-4.038c0.757-0.757,2.312-1.507,4.793-1.514c2.483-0.006,4.419-1.435,4.419-1.435l-3.197-2.355
			c-0.757-0.253-0.291-4.044-3.279-4.795c-1.467-0.369-2.725-0.499-3.771-0.499C81.764,45.771,80.479,46.522,80.479,46.522"/>
	</defs>
	<clipPath id="SVGID_6_">
		<use xlink:href="#SVGID_5_"  overflow="visible"/>
	</clipPath>
	
		<linearGradient id="SVGID_7_" gradientUnits="userSpaceOnUse" x1="-268.5537" y1="511.3291" x2="-267.5532" y2="511.3291" gradientTransform="matrix(20.4724 0 0 -22.7166 5571.9707 11671.7168)">
		<stop  offset="0" style="stop-color:#FFFFFF"/>
		<stop  offset="1" style="stop-color:#FFFFFF"/>
	</linearGradient>
	<rect x="73.604" y="45.771" clip-path="url(#SVGID_6_)" fill="url(#SVGID_7_)" width="20.921" height="20.601"/>
</g>
<g>
	<defs>
		<path id="SVGID_8_" d="M80.479,46.522c0,0-5.551,2.271-6.308,5.046c-0.567,2.081,0,3.785,0.757,5.299
			c0.757,1.513,2.629,4.233,3.825,5.558c2.652,2.937,6.014,3.946,6.014,3.946s-0.673-3.869-0.464-5.965
			c0.179-1.776,0.254-3.28,1.011-4.038c0.757-0.757,2.312-1.507,4.793-1.514c2.483-0.006,4.419-1.435,4.419-1.435l-3.197-2.355
			c-0.757-0.253-0.291-4.044-3.279-4.795c-1.467-0.369-2.725-0.499-3.771-0.499C81.765,45.771,80.479,46.522,80.479,46.522"/>
	</defs>
	<clipPath id="SVGID_9_">
		<use xlink:href="#SVGID_8_"  overflow="visible"/>
	</clipPath>
	<path clip-path="url(#SVGID_9_)" fill="#FFFFFF" d="M91.328,51.064c-0.757-0.253-0.291-4.045-3.279-4.795
		c-4.992-1.255-7.57,0.252-7.57,0.252s-5.552,2.271-6.309,5.047c-0.567,2.08,0,3.785,0.757,5.298
		c0.758,1.514,2.631,4.234,3.825,5.559c2.653,2.936,6.015,3.946,6.015,3.946s-0.673-3.869-0.464-5.965
		c0.18-1.776,0.254-3.281,1.01-4.038c0.758-0.757,2.313-1.508,4.795-1.514s4.418-1.436,4.418-1.436L91.328,51.064"/>
</g>
<g>
	<defs>
		<path id="SVGID_10_" d="M80.479,46.522c0,0-5.551,2.271-6.308,5.046c-0.567,2.081,0,3.785,0.757,5.299
			c0.757,1.513,2.629,4.233,3.825,5.558c2.652,2.937,6.014,3.946,6.014,3.946s-0.673-3.869-0.464-5.965
			c0.179-1.776,0.254-3.28,1.011-4.038c0.757-0.757,2.312-1.507,4.793-1.514c2.483-0.006,4.419-1.435,4.419-1.435l-3.197-2.355
			c-0.757-0.253-0.291-4.044-3.279-4.795c-1.467-0.369-2.725-0.499-3.771-0.499C81.764,45.771,80.479,46.522,80.479,46.522"/>
	</defs>
	<clipPath id="SVGID_11_">
		<use xlink:href="#SVGID_10_"  overflow="visible"/>
	</clipPath>
	
		<linearGradient id="SVGID_12_" gradientUnits="userSpaceOnUse" x1="-268.5537" y1="511.3291" x2="-267.5532" y2="511.3291" gradientTransform="matrix(20.4724 0 0 -22.7166 5571.9707 11671.7168)">
		<stop  offset="0" style="stop-color:#FFFFFF"/>
		<stop  offset="0.0842" style="stop-color:#F5EFE6"/>
		<stop  offset="0.2969" style="stop-color:#E7D5BC"/>
		<stop  offset="0.5009" style="stop-color:#DCC29E"/>
		<stop  offset="0.6914" style="stop-color:#D4B589"/>
		<stop  offset="0.8632" style="stop-color:#D0AD7E"/>
		<stop  offset="1" style="stop-color:#CFAB7A"/>
	</linearGradient>
	<rect x="73.604" y="45.771" clip-path="url(#SVGID_11_)" fill="url(#SVGID_12_)" width="20.921" height="20.601"/>
</g>
<g>
	<defs>
		<rect id="SVGID_13_" width="182.12" height="129.749"/>
	</defs>
	<clipPath id="SVGID_14_">
		<use xlink:href="#SVGID_13_"  overflow="visible"/>
	</clipPath>
	<path clip-path="url(#SVGID_14_)" fill="#CFAB7A" d="M97.048,54.091c0,0-0.674,1.515-2.439,2.02
		c-3.154,0.901-8.538,1.519-8.538,1.519c4.922,1.508,4.189,2.571,11.65,1.171c1.345-0.252,6.772-1.351,3.028-3.364
		C98.971,54.481,97.048,54.091,97.048,54.091"/>
	<path clip-path="url(#SVGID_14_)" fill="#FFFFFF" d="M88.112,46.27c0,0-2.65-0.505-3.346-0.252
		c-1.773,0.645-4.539,1.521-5.864,2.27c-1.847,1.042-4.034,3.585-3.406,6.309c0.703,3.048,4.417,7.632,4.417,7.632
		c-5.932-11.165-1.326-11.985,0.881-13.498C81.896,47.974,88.112,46.27,88.112,46.27"/>
	<path clip-path="url(#SVGID_14_)" fill="#00287A" d="M90.192,51.82c0,0-3.404,1.64-1.892,1.64s4.036-0.378,4.036-0.378
		L90.192,51.82"/>
</g>
</svg>
