<?xml version="1.0" standalone="no"?>
<!DOCTYPE svg PUBLIC "-//W3C//DTD SVG 20010904//EN"
 "http://www.w3.org/TR/2001/REC-SVG-20010904/DTD/svg10.dtd">
<svg version="1.0" xmlns="http://www.w3.org/2000/svg"
 width="536.000000pt" height="522.000000pt" viewBox="0 0 536.000000 522.000000"
 preserveAspectRatio="xMidYMid meet">
<metadata>
Created by potrace 1.10, written by Peter Selinger 2001-2011
</metadata>
<g transform="translate(0.000000,522.000000) scale(0.100000,-0.100000)"
fill="#582C83" stroke="none">
<path d="M2670 5144 c0 -37 -55 -257 -96 -384 -211 -655 -566 -1147 -1077
-1488 -356 -239 -758 -419 -1207 -541 -134 -36 -143 -40 -117 -50 16 -6 32
-11 37 -11 5 0 80 -23 167 -51 452 -146 927 -377 1257 -611 121 -86 318 -276
429 -413 200 -248 370 -562 488 -903 44 -127 105 -358 115 -434 7 -48 24 -57
24 -13 0 40 69 299 116 438 160 465 381 827 695 1132 142 138 239 211 458 342
323 194 718 369 1092 483 74 22 141 43 149 46 8 3 -50 24 -130 46 -280 77
-496 157 -736 272 -646 312 -1045 683 -1340 1250 -120 230 -238 558 -286 796
-13 60 -26 110 -30 110 -5 0 -8 -7 -8 -16z m55 -732 c145 -342 382 -690 660
-967 311 -312 672 -547 1087 -709 87 -34 108 -46 93 -52 -716 -258 -1306 -748
-1682 -1399 -56 -97 -145 -277 -174 -352 -13 -35 -26 -63 -29 -63 -4 0 -21 37
-39 82 -18 46 -61 137 -95 203 -217 419 -530 791 -903 1072 -249 187 -479 311
-843 455 -23 9 -15 14 85 53 573 223 1065 604 1422 1103 141 196 293 471 349
629 10 29 20 50 23 48 2 -3 23 -49 46 -103z"/>
<path d="M2670 4192 c0 -4 -31 -65 -70 -135 -81 -150 -181 -302 -294 -447 -97
-125 -397 -430 -516 -524 -166 -131 -398 -278 -572 -362 -32 -16 -58 -31 -58
-34 0 -3 60 -35 134 -72 156 -79 356 -210 511 -334 313 -252 634 -643 810
-987 33 -64 62 -117 65 -117 3 0 27 43 53 95 274 552 808 1086 1354 1355 62
30 112 57 112 60 1 3 -42 27 -95 53 -559 278 -1077 789 -1360 1341 -52 102
-74 134 -74 108z m460 -1087 l0 -135 -39 0 c-38 0 -38 0 -45 45 -14 104 -39
115 -256 115 l-160 0 2 -197 3 -198 85 -3 c47 -2 118 0 158 3 90 8 121 30 129
93 6 41 6 42 44 42 l39 0 0 -190 0 -190 -39 0 c-38 0 -38 1 -44 42 -4 29 -14
50 -32 65 -25 22 -35 23 -187 23 l-161 0 5 -171 c5 -149 8 -175 25 -198 23
-30 71 -50 126 -50 36 -1 37 -2 37 -41 l0 -40 -315 0 -315 0 0 39 0 39 55 7
c36 4 65 15 83 30 l27 23 3 394 c2 265 0 405 -8 431 -13 45 -39 63 -102 72
-48 7 -48 7 -48 46 l0 39 465 0 465 0 0 -135z"/>
</g>
</svg>
